<svg width="18" height="12" viewBox="0 0 18 12" fill="none" xmlns="http://www.w3.org/2000/svg">
<path d="M5.44458 0.5C5.93526 0.5 6.3882 0.538869 6.80339 0.655477C7.21859 0.733216 7.55829 0.888693 7.86025 1.08304C8.16221 1.27739 8.38868 1.54947 8.53966 1.89929C8.69064 2.24912 8.76613 2.67668 8.76613 3.14311C8.76613 3.68728 8.65289 4.15371 8.38868 4.50353C8.16221 4.85336 7.78476 5.16431 7.33182 5.39753C7.97348 5.59187 8.46417 5.9417 8.76613 6.40813C9.06809 6.87456 9.25681 7.4576 9.25681 8.11837C9.25681 8.66254 9.14358 9.12898 8.95485 9.51767C8.76613 9.90636 8.46417 10.2562 8.12446 10.4894C7.78476 10.7226 7.36957 10.917 6.91663 11.0336C6.46369 11.1502 6.01075 11.2279 5.55781 11.2279H0.5V0.5H5.44458ZM5.14262 4.85336C5.55781 4.85336 5.89752 4.73675 6.16173 4.5424C6.42595 4.34806 6.53918 3.99823 6.53918 3.57067C6.53918 3.33746 6.50143 3.10424 6.42594 2.94876C6.35046 2.79329 6.23722 2.67668 6.08624 2.56007C5.93526 2.48233 5.78428 2.40459 5.59556 2.36572C5.40683 2.32686 5.21811 2.32686 4.99164 2.32686H2.80244V4.85336H5.14262ZM5.25585 9.43993C5.48232 9.43993 5.70879 9.40106 5.89752 9.36219C6.08624 9.32332 6.27497 9.24558 6.42594 9.12898C6.57692 9.01237 6.69016 8.89576 6.80339 8.70141C6.87888 8.50707 6.95437 8.27385 6.95437 8.00177C6.95437 7.4576 6.80339 7.06891 6.50143 6.79682C6.19948 6.5636 5.78428 6.447 5.2936 6.447H2.80244V9.43993H5.25585ZM12.5406 9.40106C12.8426 9.71201 13.2955 9.86749 13.8994 9.86749C14.3146 9.86749 14.6921 9.75088 14.994 9.55654C15.296 9.32332 15.4847 9.09011 15.5602 8.85689H17.4097C17.1077 9.78975 16.6548 10.4505 16.0509 10.8781C15.447 11.2668 14.7298 11.5 13.8617 11.5C13.2578 11.5 12.7293 11.3834 12.2387 11.189C11.748 10.9947 11.3705 10.7226 11.0308 10.3339C10.6911 9.9841 10.4269 9.55654 10.2759 9.05124C10.0872 8.54594 10.0117 8.00177 10.0117 7.37986C10.0117 6.79682 10.0872 6.25265 10.2759 5.74735C10.4646 5.24205 10.7289 4.81449 11.0686 4.4258C11.4083 4.07597 11.8235 3.76502 12.2764 3.57067C12.7671 3.37633 13.2578 3.25972 13.8617 3.25972C14.5033 3.25972 15.0695 3.37633 15.5602 3.64841C16.0509 3.9205 16.4283 4.23145 16.7303 4.69788C17.0323 5.12544 17.2587 5.63074 17.4097 6.17491C17.4852 6.71908 17.5229 7.26325 17.4852 7.88516H12.0122C12.0122 8.50707 12.2387 9.09011 12.5406 9.40106ZM14.9185 5.31979C14.6543 5.0477 14.2391 4.89223 13.7484 4.89223C13.4087 4.89223 13.1445 4.96996 12.9181 5.08657C12.6916 5.20318 12.5406 5.35866 12.3896 5.51413C12.2387 5.66961 12.1632 5.86396 12.1254 6.0583C12.0877 6.25265 12.0499 6.40813 12.0499 6.5636H15.447C15.3715 5.98057 15.1828 5.59187 14.9185 5.31979ZM11.597 1.23852H15.8244V2.28799H11.597V1.23852Z" fill="#DEA81C"/>
</svg>
