<svg width="18" height="18" viewBox="0 0 18 18" fill="none" xmlns="http://www.w3.org/2000/svg">
<path d="M9 18C4.03594 18 0 13.9664 0 9.00352C0 4.03363 4.03594 0 9 0C13.9641 0 18 4.03363 18 8.99648C18 13.9593 13.9641 18 9 18ZM16.5867 10.2284C16.3266 10.1439 14.2102 9.5174 11.7984 9.89754C12.8039 12.657 13.2117 14.9097 13.2891 15.3743C15.0188 14.2127 16.2492 12.3684 16.5867 10.2284ZM12.0023 16.0853C11.8898 15.4095 11.4398 13.0583 10.3641 10.2565C10.35 10.2636 10.3289 10.2706 10.3148 10.2706C5.97656 11.7841 4.42266 14.79 4.28203 15.0716C5.58281 16.0853 7.22109 16.6907 9 16.6907C10.0617 16.6977 11.0813 16.4795 12.0023 16.0853ZM3.29062 14.1494C3.46641 13.8537 5.57578 10.3621 9.54141 9.07391C9.63984 9.03872 9.74531 9.01056 9.84375 8.9824C9.65391 8.54595 9.44297 8.1095 9.21797 7.68009C5.37891 8.82753 1.65234 8.77826 1.31484 8.77122C1.31484 8.84865 1.30781 8.92609 1.30781 9.00352C1.31484 10.9816 2.06016 12.7837 3.29062 14.1494ZM1.47656 7.43371C1.82109 7.44075 4.98516 7.45483 8.58516 6.49746C7.3125 4.23074 5.93437 2.33007 5.7375 2.05553C3.57891 3.06922 1.97578 5.05436 1.47656 7.43371ZM7.2 1.53461C7.41094 1.81619 8.81016 3.71686 10.0687 6.03285C12.8039 5.00508 13.957 3.45639 14.0977 3.25929C12.7406 2.05553 10.9547 1.32343 9 1.32343C8.38125 1.32343 7.77656 1.40086 7.2 1.53461ZM14.9484 4.14627C14.7867 4.36449 13.5 6.01877 10.6594 7.18029C10.8352 7.54634 11.0109 7.91944 11.1727 8.29253C11.2289 8.42628 11.2852 8.56003 11.3414 8.68674C13.9008 8.36293 16.4391 8.88385 16.6922 8.93312C16.6711 7.12397 16.0242 5.45561 14.9484 4.14627Z" fill="#DEA81C"/>
</svg>
