<svg width="22" height="25" viewBox="0 0 22 25" fill="none" xmlns="http://www.w3.org/2000/svg">
<path d="M15.5124 24V19.1293C15.5124 17.7276 14.6704 16.5033 13.5089 15.9552H14.7355C18.1956 15.9552 21 13.0915 21 9.52908C21 7.81646 20.3464 6.26267 19.2875 5.10803C19.4859 3.97195 19.4633 2.37433 19.018 1C16.7766 1 14.9539 2.7776 14.6594 3.06278H8.24669C7.95167 2.77812 6.23367 1 3.99225 1C3.59155 2.23818 3.44779 3.69863 3.5685 4.76199C2.3073 5.94087 1.51091 7.637 1.51091 9.5296C1.51091 13.092 4.31531 15.9546 7.77537 15.9546H9.00101C7.99775 16.4275 7.18032 17.3759 6.9975 18.5331C5.99575 18.5331 4.56124 18.4393 3.90159 17.4202C2.66943 15.5173 2.10344 15.5173 1.48786 15.5173C0.871787 15.5173 0.821699 16.1516 1.43778 16.7859C2.05385 17.4202 2.05386 17.4202 2.66993 18.6889C3.17682 19.7342 4.49312 20.5964 6.9975 20.5964V24" stroke="#DEA81C" stroke-width="1.3" stroke-miterlimit="10" stroke-linecap="round" stroke-linejoin="round"/>
</svg>
