<svg width="19" height="17" viewBox="0 0 19 17" fill="none" xmlns="http://www.w3.org/2000/svg">
<path d="M17.8833 16.5502C16.8333 16.5252 15.8083 16.5252 14.7583 16.5502C14.5333 16.5502 14.4833 16.5002 14.4833 16.2752C14.4833 14.4252 14.4833 12.5502 14.4833 10.7002C14.4833 10.2752 14.4583 9.85021 14.3333 9.45022C13.9583 8.15022 12.4583 7.67522 11.3833 8.55022C10.8083 9.00022 10.5833 9.62522 10.5833 10.3752C10.5833 12.1252 10.5833 13.8752 10.5833 15.6252C10.5833 15.8502 10.5583 16.0752 10.5833 16.3252C10.6083 16.5252 10.5083 16.5752 10.3333 16.5502C9.2583 16.5502 8.2083 16.5502 7.1333 16.5502C6.9333 16.5502 6.8833 16.5002 6.8833 16.3002C6.9083 14.7252 6.9083 13.1502 6.9083 11.5502C6.9083 9.60021 6.9083 7.65022 6.8833 5.72521C6.8833 5.50021 6.9333 5.45021 7.1333 5.45021C8.2083 5.45021 9.2583 5.45021 10.3333 5.45021C10.5333 5.45021 10.5833 5.50021 10.5833 5.70021C10.5833 6.10021 10.5833 6.50021 10.5833 6.97521C10.6583 6.90021 10.6833 6.87521 10.7083 6.85021C11.6833 5.42521 13.0583 5.02521 14.6833 5.27521C16.5583 5.57521 17.7583 6.87521 18.0583 8.87522C18.1333 9.35021 18.1583 9.82522 18.1583 10.3002C18.1583 12.3002 18.1583 14.2752 18.1583 16.2752C18.1583 16.4752 18.1083 16.5502 17.8833 16.5502Z" fill="#DEA81C"/>
<path d="M4.88301 11.0002C4.88301 12.7502 4.88301 14.5002 4.88301 16.2502C4.88301 16.4752 4.83301 16.5502 4.60801 16.5502C3.55801 16.5252 2.50801 16.5502 1.45801 16.5502C1.25801 16.5502 1.20801 16.5002 1.20801 16.3002C1.20801 12.7752 1.20801 9.2252 1.20801 5.7002C1.20801 5.5252 1.25801 5.4502 1.45801 5.4502C2.53301 5.4502 3.60801 5.4502 4.68301 5.4502C4.90801 5.4502 4.93301 5.5252 4.93301 5.7252C4.88301 7.4752 4.88301 9.2252 4.88301 11.0002Z" fill="#DEA81C"/>
<path d="M5.05813 2.55001C4.80813 3.55001 3.78313 4.12501 2.60813 3.92501C1.35813 3.72501 0.658134 2.50001 1.10813 1.30001C1.40813 0.550013 2.13313 0.100013 3.05813 0.125013C4.45813 0.100013 5.38313 1.22501 5.05813 2.55001Z" fill="#DEA81C"/>
</svg>
