<svg width="16" height="22" viewBox="0 0 16 22" fill="none" xmlns="http://www.w3.org/2000/svg">
<path d="M8 11.75C9.65685 11.75 11 10.4069 11 8.75C11 7.09315 9.65685 5.75 8 5.75C6.34315 5.75 5 7.09315 5 8.75C5 10.4069 6.34315 11.75 8 11.75Z" stroke="#DEA81C" stroke-linecap="round" stroke-linejoin="round"/>
<path d="M15.5 8.75C15.5 15.5 8 20.75 8 20.75C8 20.75 0.5 15.5 0.5 8.75C0.5 6.76088 1.29018 4.85322 2.6967 3.4467C4.10322 2.04018 6.01088 1.25 8 1.25C9.98912 1.25 11.8968 2.04018 13.3033 3.4467C14.7098 4.85322 15.5 6.76088 15.5 8.75V8.75Z" stroke="#DEA81C" stroke-linecap="round" stroke-linejoin="round"/>
</svg>
