<svg width="32" height="32" viewBox="0 0 32 32" fill="none" xmlns="http://www.w3.org/2000/svg">
<path opacity="0.2" d="M16.5626 22.6495C17.48 23.2744 18.5175 23.7015 19.609 23.9037C20.7005 24.1059 21.8221 24.0787 22.9025 23.8239C23.9829 23.569 24.9985 23.0922 25.8846 22.4236C26.7707 21.7549 27.508 20.9092 28.0495 19.9402C28.591 18.9712 28.925 17.9001 29.0301 16.795C29.1352 15.69 29.0092 14.5751 28.6601 13.5214C28.3109 12.4677 27.7463 11.4981 27.0022 10.6745C26.258 9.85077 25.3506 9.19098 24.3376 8.73703C24.1151 8.62521 23.9384 8.43965 23.8376 8.21203C23.1895 6.66823 22.1 5.3502 20.7057 4.42331C19.3114 3.49642 17.6744 3.00195 16.0001 3.00195C14.3258 3.00195 12.6888 3.49642 11.2944 4.42331C9.90012 5.3502 8.8106 6.66823 8.16256 8.21203C8.06171 8.43965 7.88499 8.62521 7.66256 8.73703C6.64956 9.19098 5.74213 9.85077 4.99796 10.6745C4.2538 11.4981 3.68919 12.4677 3.34006 13.5214C2.99093 14.5751 2.86492 15.69 2.97003 16.795C3.07514 17.9001 3.40908 18.9712 3.95061 19.9402C4.49214 20.9092 5.22941 21.7549 6.11552 22.4236C7.00163 23.0922 8.01719 23.569 9.0976 23.8239C10.178 24.0787 11.2996 24.1059 12.3911 23.9037C13.4826 23.7015 14.5201 23.2744 15.4376 22.6495C15.6047 22.5398 15.8002 22.4814 16.0001 22.4814C16.1999 22.4814 16.3955 22.5398 16.5626 22.6495Z" fill="#DEA81C"/>
<path d="M16 29V11" stroke="#1A73EC" stroke-linecap="round" stroke-linejoin="round"/>
<path d="M16 19L10 16" stroke="#1A73EC" stroke-linecap="round" stroke-linejoin="round"/>
<path d="M16 16L22 13" stroke="#1A73EC" stroke-linecap="round" stroke-linejoin="round"/>
<path d="M16.5626 22.6495C17.48 23.2744 18.5175 23.7015 19.609 23.9037C20.7005 24.1059 21.8221 24.0787 22.9025 23.8239C23.9829 23.5691 24.9985 23.0922 25.8846 22.4236C26.7707 21.7549 27.508 20.9092 28.0495 19.9402C28.591 18.9712 28.925 17.9001 29.0301 16.795C29.1352 15.69 29.0092 14.5751 28.6601 13.5214C28.3109 12.4677 27.7463 11.4981 27.0022 10.6745C26.258 9.85077 25.3506 9.19098 24.3376 8.73703C24.1151 8.62521 23.9384 8.43965 23.8376 8.21203C23.1895 6.66823 22.1 5.3502 20.7057 4.42331C19.3114 3.49642 17.6744 3.00195 16.0001 3.00195C14.3258 3.00195 12.6888 3.49642 11.2944 4.42331C9.90012 5.3502 8.8106 6.66823 8.16256 8.21203C8.06171 8.43965 7.88499 8.62521 7.66256 8.73703C6.64956 9.19098 5.74213 9.85077 4.99796 10.6745C4.2538 11.4981 3.68919 12.4677 3.34006 13.5214C2.99093 14.5751 2.86492 15.69 2.97003 16.795C3.07514 17.9001 3.40908 18.9712 3.95061 19.9402C4.49214 20.9092 5.22941 21.7549 6.11552 22.4236C7.00163 23.0922 8.01719 23.5691 9.0976 23.8239C10.178 24.0787 11.2996 24.1059 12.3911 23.9037C13.4826 23.7015 14.5201 23.2744 15.4376 22.6495C15.6047 22.5398 15.8002 22.4814 16.0001 22.4814C16.1999 22.4814 16.3955 22.5398 16.5626 22.6495Z" stroke="#1A73EC" stroke-linecap="round" stroke-linejoin="round"/>
</svg>
