<svg width="113" height="24" viewBox="0 0 113 24" fill="none" xmlns="http://www.w3.org/2000/svg">
<path d="M108.407 18.0936H111.964L112.055 17.3309C111.637 17.3279 111.225 17.2438 110.843 17.0838C110.465 16.8641 110.141 16.5711 109.894 16.2244C109.701 15.9837 109.456 15.6648 109.152 15.2708C108.86 14.8913 108.513 14.4421 108.109 13.9256C107.286 12.8729 106.554 11.9706 105.902 11.2079C106.527 10.6636 107.019 10.2232 107.377 9.88663C107.635 9.63022 107.906 9.3864 108.189 9.15616C108.543 8.87079 108.927 8.61892 109.333 8.40421C109.892 8.10429 110.487 7.86981 111.106 7.70598V7.00774L105.925 7.00774V7.71672C106.261 7.76348 106.594 7.83167 106.92 7.92083C107.263 8.02108 107.435 8.17147 107.435 8.37199C107.427 8.47037 107.387 8.56409 107.32 8.64054C107.259 8.73154 107.19 8.81777 107.114 8.89836C106.623 9.42472 106.028 10.0263 105.296 10.6923C104.859 11.09 104.446 11.4762 104.051 11.8464C103.784 12.0961 103.525 12.3385 103.271 12.5721V0.863267L103.111 0.691406L98.7423 0.938469V1.65819C98.827 1.66237 98.922 1.67632 99.0274 1.69181C99.1927 1.71609 99.3836 1.74413 99.6001 1.74413C99.8816 1.75168 100.155 1.83359 100.389 1.98045C100.598 2.12007 100.764 2.30907 100.87 2.52829C100.988 2.77488 101.05 3.04198 101.053 3.31248V16.203C101.064 16.4358 101.005 16.6668 100.881 16.869C100.765 17.0367 100.592 17.1619 100.389 17.2235C100.224 17.2632 100.056 17.2884 99.8861 17.2987L99.3142 17.3524V18.0936L105.033 18.0936V17.3524C104.829 17.3415 104.626 17.3163 104.427 17.2772C104.239 17.2345 104.055 17.177 103.878 17.1053C103.667 17.0353 103.489 16.8985 103.374 16.7186C103.261 16.5131 103.206 16.2838 103.214 16.0526V13.4208L104.198 12.5614C104.964 13.4745 105.708 14.4198 106.417 15.3758L108.407 18.0936Z" fill="#737980"/>
<path fill-rule="evenodd" clip-rule="evenodd" d="M70.904 12.5504C70.9511 14.0981 70.3517 15.6017 69.2341 16.7398C68.7529 17.2667 68.1565 17.6901 67.4855 17.9811C66.8145 18.2721 66.0846 18.424 65.3455 18.4263C64.7008 18.429 64.0598 18.3347 63.4469 18.147C62.8293 17.9649 62.2378 17.7124 61.6856 17.3951L60.7935 18.6842L60.0501 18.5338C60.0501 18.2303 60.0703 17.8952 60.0925 17.5284C60.1112 17.2199 60.1312 16.889 60.1416 16.5357C60.157 16.0165 60.1517 15.5022 60.1466 15.0024C60.1441 14.7584 60.1416 14.5158 60.1416 14.2799V3.31222C60.1369 3.0489 60.0745 2.7893 59.9586 2.54953C59.8627 2.32463 59.6948 2.13323 59.4782 2.00169C59.2481 1.87363 58.99 1.79648 58.7234 1.77609C58.4394 1.73012 58.1531 1.69785 57.8656 1.67942V0.959702L62.2003 0.712622L62.3604 0.884499V8.18912H62.4519C62.9085 7.73443 63.4567 7.36931 64.0646 7.11491C64.6053 6.87585 65.194 6.74768 65.7916 6.73894C66.4894 6.73086 67.1799 6.87283 67.8103 7.15398C68.4407 7.43512 68.9942 7.848 69.4286 8.361C70.4434 9.54406 70.9675 11.0323 70.904 12.5504ZM68.4107 12.6256C68.406 12.0552 68.3409 11.4867 68.2163 10.9284C68.1092 10.3993 67.9081 9.89088 67.6215 9.42446C67.3596 8.99435 66.9956 8.62676 66.5579 8.35025C66.0865 8.07025 65.5371 7.92818 64.9795 7.94206C64.4719 7.93341 63.9696 8.04028 63.5155 8.25357C63.0829 8.46471 62.6952 8.74872 62.3718 9.09146V15.5367C62.5334 16.0354 62.8288 16.4867 63.2296 16.8472C63.4672 17.0611 63.7418 17.2354 64.0417 17.3629C64.4028 17.5066 64.7936 17.5727 65.1854 17.5562C65.6677 17.5528 66.1404 17.4286 66.5546 17.1963C66.9688 16.964 67.3094 16.6322 67.5414 16.235C68.182 15.1309 68.483 13.8812 68.4107 12.6256Z" fill="#737980"/>
<path d="M15.3611 18.0935H21.0797L21.0454 17.3309C20.8418 17.3185 20.6393 17.2934 20.4392 17.2557C20.2561 17.2189 20.0764 17.1687 19.9017 17.1053C19.6924 17.0381 19.5171 16.9003 19.4098 16.7186C19.3074 16.5175 19.2566 16.2968 19.2612 16.074L19.2612 10.4452C19.3487 9.43534 19.0395 8.43036 18.392 7.62001C18.0959 7.31256 17.7312 7.07033 17.3239 6.91063C16.9166 6.75093 16.4768 6.6777 16.0359 6.69619C15.5713 6.69271 15.1087 6.75425 14.6634 6.8788C14.285 6.98381 13.9262 7.14325 13.5998 7.35145C13.2949 7.54374 13.0045 7.7555 12.7306 7.98524L11.9757 8.67273C11.7334 8.12003 11.3386 7.63799 10.8319 7.27625C10.2587 6.88296 9.56299 6.67899 8.85333 6.69619C8.39634 6.6942 7.94156 6.75573 7.50375 6.8788C7.13022 6.97703 6.77526 7.12924 6.45155 7.32996C6.16941 7.51579 5.90184 7.72043 5.65093 7.94228L4.93038 8.60828H4.7817V7.02919L4.61011 6.86806L0.675781 7.11513L0.675781 8.06044C0.907239 8.07878 1.13671 8.11469 1.36199 8.16785C1.55947 8.21188 1.74851 8.28435 1.9224 8.38269C2.12313 8.5113 2.29107 8.68006 2.41419 8.87683C2.52985 9.07409 2.589 9.29619 2.58577 9.52136L2.58577 16.3963C2.59397 16.6241 2.53877 16.8499 2.42564 17.0516C2.30566 17.22 2.12816 17.345 1.9224 17.4061C1.75799 17.4499 1.58946 17.4786 1.41916 17.492H0.847297L0.847297 18.2332H6.56589V17.492C6.36976 17.4804 6.17478 17.4553 5.98259 17.4168C5.80484 17.3774 5.63224 17.3197 5.4679 17.2449C5.2584 17.1677 5.0817 17.0281 4.96473 16.8475C4.84402 16.656 4.78444 16.436 4.79314 16.2137L4.79314 9.87585L5.15914 9.4032C5.32665 9.19378 5.52278 9.00597 5.74245 8.8446C6.03461 8.64737 6.35391 8.48836 6.69169 8.37195C7.05838 8.24889 7.44614 8.19062 7.83541 8.20007C8.10803 8.19462 8.37827 8.24909 8.62451 8.35913C8.87074 8.46917 9.08621 8.63175 9.25368 8.83387C9.66716 9.3522 9.86996 9.99219 9.82554 10.6385V16.3426C9.83468 16.5739 9.77948 16.8034 9.6654 17.0086C9.54542 17.177 9.36793 17.3021 9.16216 17.3631C9.00897 17.4051 8.85197 17.4338 8.6932 17.449H8.16713V18.1902L13.7828 18.1902V17.449C13.5863 17.4405 13.3911 17.4154 13.1995 17.3738C13.0323 17.3336 12.868 17.2834 12.7077 17.2234C12.4984 17.1563 12.3231 17.0184 12.2159 16.8367C12.1081 16.6375 12.0569 16.4155 12.0672 16.1922V9.74694C12.1366 9.64451 12.2404 9.50978 12.3636 9.34977L12.4217 9.27428C12.5927 9.07407 12.7885 8.89376 13.005 8.73717C13.2931 8.54 13.6087 8.38097 13.9429 8.26454C14.3117 8.15043 14.6984 8.09594 15.0866 8.1034C15.3575 8.09879 15.6257 8.1537 15.8699 8.26373C16.1142 8.37377 16.3277 8.53589 16.4934 8.73717C16.9069 9.25552 17.1097 9.89552 17.0652 10.5419L17.0652 16.2459C17.0802 16.4777 17.0246 16.7087 16.9051 16.9119C16.7894 17.0796 16.6157 17.2048 16.4133 17.2664C16.2484 17.3083 16.0801 17.337 15.9101 17.3523H15.3611V18.0935Z" fill="#737980"/>
<path fill-rule="evenodd" clip-rule="evenodd" d="M31.1484 17.6423C31.9938 17.095 32.6783 16.356 33.1385 15.4939L32.315 15.0857C31.9679 15.7501 31.4584 16.328 30.8282 16.7722C30.2796 17.0912 29.6432 17.2518 28.9982 17.2341C28.3754 17.2535 27.7576 17.1241 27.2026 16.8581C26.7038 16.6039 26.2826 16.2341 25.9788 15.7839C25.6514 15.3069 25.4152 14.7797 25.2811 14.2263C25.1276 13.5739 25.0547 12.9071 25.0638 12.239L32.8754 12.239V11.5086C32.8764 10.8801 32.784 10.2546 32.601 9.65018C32.4325 9.11016 32.1526 8.60649 31.7774 8.16776C31.3803 7.70325 30.8705 7.33489 30.2906 7.09355C29.5882 6.81958 28.8321 6.68781 28.0718 6.70684C27.2775 6.69091 26.4914 6.86072 25.7844 7.20098C25.1307 7.51052 24.5539 7.94611 24.0917 8.47929C23.6199 9.0409 23.2596 9.67767 23.028 10.3592C22.7833 11.052 22.6597 11.7776 22.662 12.5076C22.6573 13.2819 22.7729 14.0527 23.0051 14.7956C23.2175 15.4782 23.5669 16.1163 24.0345 16.6755C24.5129 17.224 25.1195 17.6615 25.8073 17.9538C26.5873 18.2815 27.4348 18.4429 28.2891 18.4265C29.3049 18.4441 30.3023 18.1706 31.1484 17.6423ZM30.3821 9.92946C30.4521 10.3742 30.4903 10.8227 30.4965 11.2722L25.041 11.2722C25.0195 10.2948 25.3365 9.33727 25.9445 8.54374C26.1834 8.23674 26.4969 7.98784 26.859 7.81779C27.2211 7.64775 27.6213 7.56148 28.0261 7.56621C28.4638 7.54817 28.8963 7.661 29.2613 7.88847C29.5829 8.10481 29.8422 8.39271 30.0161 8.72636C30.2027 9.10752 30.3262 9.51324 30.3821 9.92946Z" fill="#737980"/>
<path fill-rule="evenodd" clip-rule="evenodd" d="M45.0216 16.9443C45.3323 17.2219 45.5879 17.5493 45.7765 17.9111C45.9714 18.3306 46.0651 18.7855 46.051 19.2431C46.0619 19.7763 45.9318 20.3037 45.6723 20.778C45.4128 21.2523 45.032 21.6587 44.5641 21.9608C43.9817 22.3358 43.3359 22.6155 42.6541 22.788C41.7531 22.9991 40.8262 23.0966 39.8977 23.078C38.5176 23.1598 37.1385 22.9044 35.8947 22.3368C35.4822 22.1306 35.1394 21.8201 34.9049 21.4404C34.6705 21.0608 34.5537 20.6271 34.568 20.1884C34.5585 19.8367 34.6412 19.4882 34.8087 19.1735C34.9762 18.8589 35.2235 18.5877 35.5287 18.3837C36.2457 17.9201 37.0944 17.6694 37.9649 17.664V17.5136C37.7123 17.4402 37.4642 17.3541 37.2214 17.2558C36.9854 17.1709 36.7654 17.0512 36.5695 16.9013C36.3661 16.7504 36.1953 16.5645 36.0662 16.3535C35.9313 16.108 35.8645 15.8347 35.8718 15.5585C35.8796 15.162 36.0377 14.7811 36.3179 14.4843C36.6927 14.1007 37.1592 13.8061 37.6789 13.625V13.4531C36.9764 13.1691 36.3624 12.7218 35.8947 12.1533C35.4688 11.6295 35.2432 10.9862 35.2542 10.3272C35.2407 9.83577 35.347 9.34798 35.5651 8.90113C35.7832 8.45428 36.1072 8.06019 36.5123 7.74904C37.4056 7.05096 38.5421 6.68753 39.7033 6.72855C40.0648 6.72652 40.4255 6.76255 40.7784 6.83598C41.1454 6.90292 41.5081 6.98898 41.8649 7.09378L45.9709 7.09378V8.16798H43.2031V8.18947C43.4992 8.49996 43.7215 8.86617 43.855 9.26369C43.9979 9.62837 44.0714 10.0138 44.0723 10.4023C44.076 10.8768 43.9647 11.3459 43.7467 11.774C43.5287 12.2021 43.2098 12.5779 42.8142 12.873C42.0003 13.5381 40.9536 13.8977 39.8748 13.8828H38.4338C38.2208 13.9623 38.0237 14.0749 37.8505 14.2158C37.7526 14.293 37.6748 14.3903 37.6233 14.5002C37.5717 14.6101 37.5477 14.7296 37.5531 14.8496C37.5466 14.9658 37.5655 15.082 37.6088 15.191C37.6521 15.3001 37.7188 15.3995 37.8047 15.4833C37.9788 15.633 38.1919 15.7368 38.4224 15.7841C38.6845 15.8463 38.9528 15.8823 39.2229 15.8915H40.1722C40.4925 15.8915 41.0072 15.8916 41.6133 15.9668L42.9172 16.0312C43.3121 16.0411 43.701 16.1251 44.0609 16.2783C44.4201 16.4458 44.7453 16.6712 45.0216 16.9443ZM44.0952 19.662C44.1219 19.2817 44.0133 18.9038 43.7864 18.5878C43.5514 18.3029 43.2139 18.1081 42.8371 18.04C42.6236 18.04 42.1661 18.0077 41.4646 17.9433C41.1394 17.9433 40.7918 17.9293 40.4207 17.9143C39.9957 17.8972 39.5399 17.8788 39.0514 17.8788C38.3688 17.9604 37.7296 18.238 37.2214 18.6737C36.8464 19.0641 36.6493 19.5771 36.6724 20.1024C36.6691 20.3632 36.7318 20.6209 36.8554 20.8544C36.9937 21.1246 37.2071 21.3547 37.4731 21.5204C37.8187 21.7451 38.2069 21.9055 38.6168 21.9931C39.18 22.1333 39.7613 22.1984 40.3438 22.1864C41.3141 22.235 42.2778 22.0106 43.1116 21.5419C43.4327 21.3334 43.6917 21.0512 43.8638 20.7222C44.036 20.3931 44.1156 20.0281 44.0952 19.662ZM41.8077 10.3809C41.8472 9.64578 41.6521 8.91638 41.2473 8.28615C41.0741 8.03853 40.8355 7.83719 40.555 7.70167C40.2744 7.56616 39.9613 7.50106 39.6461 7.51272C39.3108 7.49916 38.9782 7.57356 38.6854 7.72757C38.4168 7.88163 38.1928 8.09564 38.0335 8.3506C37.863 8.62604 37.7468 8.92806 37.6904 9.2422C37.6216 9.59661 37.5871 9.95615 37.5874 10.3164C37.5543 11.0335 37.7581 11.7426 38.1707 12.3467C38.3286 12.5864 38.5491 12.7844 38.8113 12.9216C39.0736 13.0589 39.3688 13.1309 39.669 13.1308C39.9825 13.1417 40.2937 13.0761 40.5722 12.9406C40.8508 12.8051 41.0873 12.6042 41.2588 12.3574C41.6498 11.7502 41.837 11.0465 41.7963 10.3379L41.8077 10.3809Z" fill="#737980"/>
<path fill-rule="evenodd" clip-rule="evenodd" d="M57.6026 18.1688C57.8771 18.0936 58.2087 17.9862 58.5862 17.8573L58.6548 17.1698L57.8542 17.1698C57.6612 17.1738 57.4697 17.1371 57.2938 17.0624C57.0881 16.9593 56.9146 16.8075 56.7906 16.622C56.6751 16.4057 56.62 16.1655 56.6304 15.9237V10.3701C56.6531 9.74491 56.5482 9.12144 56.3216 8.53321C56.1296 8.08412 55.809 7.69372 55.3952 7.40529C54.9925 7.12452 54.5271 6.9335 54.0342 6.84669C53.4562 6.75414 52.8706 6.711 52.2843 6.71779C51.7757 6.72176 51.2705 6.7978 50.7861 6.94337C50.3327 7.06528 49.8982 7.24223 49.4936 7.46974C49.1019 7.69175 48.7569 7.97938 48.4757 8.31835C48.2334 8.59837 48.0966 8.94589 48.0868 9.30662C48.0831 9.62425 48.1829 9.93536 48.3727 10.1982C48.4691 10.3316 48.6014 10.4386 48.7561 10.5084C48.9107 10.5782 49.0824 10.6083 49.2534 10.5957C49.6314 10.6166 50.0036 10.5014 50.2942 10.2734C50.4083 10.1858 50.501 10.0762 50.5662 9.95207C50.6313 9.8279 50.6672 9.69205 50.6716 9.5537C50.6694 9.27819 50.631 9.00397 50.5573 8.73729C50.4971 8.52278 50.4588 8.30337 50.4429 8.08203C50.6352 7.91906 50.8609 7.79477 51.1063 7.7168C51.431 7.59995 51.7764 7.54163 52.1242 7.54492C52.5632 7.51821 52.9998 7.62357 53.3708 7.8457C53.6463 8.04356 53.8759 8.29213 54.0456 8.57617C54.1829 8.82141 54.2757 9.08643 54.3201 9.36034C54.3552 9.54503 54.3781 9.73158 54.3887 9.91893V10.9931C53.6712 11.3124 52.9295 11.5817 52.1699 11.7988C51.0719 12.1425 50.3514 12.3789 49.9969 12.5078C49.6762 12.6229 49.3663 12.763 49.0705 12.9267C48.7686 13.0776 48.5006 13.2819 48.2813 13.5283C48.0283 13.7941 47.8339 14.1045 47.7094 14.4414C47.5755 14.8076 47.5097 15.1928 47.515 15.58C47.4983 15.9512 47.5663 16.3214 47.7142 16.666C47.8621 17.0106 48.0866 17.3215 48.3727 17.578C48.6645 17.8353 49.0081 18.0352 49.3832 18.1662C49.7583 18.2971 50.1575 18.3565 50.5573 18.3407C51.2967 18.362 52.0306 18.2146 52.696 17.911C53.3324 17.6044 53.8994 17.1849 54.3658 16.6757H54.4345C54.5059 17.1448 54.7583 17.5729 55.1436 17.8788C55.5773 18.1661 56.1003 18.3097 56.6304 18.287C56.9587 18.2897 57.2858 18.2499 57.6026 18.1688ZM52.6274 12.4863C53.1459 12.3001 53.7406 12.1175 54.4116 11.9384L54.4002 15.8163C54.0769 16.1795 53.6901 16.4883 53.2565 16.7294C52.8076 16.9923 52.287 17.1267 51.7582 17.1161C51.5047 17.1335 51.2502 17.0981 51.0129 17.0125C50.7756 16.9269 50.5613 16.7931 50.3854 16.6207C50.2095 16.4483 50.0764 16.2416 49.9953 16.0153C49.9143 15.7889 49.8875 15.5486 49.9168 15.3115C49.9032 14.8739 50.0221 14.4418 50.2599 14.0654C50.5066 13.7062 50.8298 13.399 51.2092 13.163C51.6524 12.8866 52.1284 12.6595 52.6274 12.4863Z" fill="#737980"/>
<path fill-rule="evenodd" clip-rule="evenodd" d="M83.0848 18.1688C83.3707 18.0936 83.6909 17.9862 84.0684 17.8573L84.1484 17.1698H83.3593C83.1625 17.175 82.9669 17.1383 82.7874 17.0624C82.5817 16.9593 82.4082 16.8075 82.2842 16.622C82.1687 16.4057 82.1136 16.1655 82.124 15.9237V10.3701C82.1436 9.74418 82.0349 9.12058 81.8038 8.53321C81.6078 8.0863 81.2879 7.69683 80.8774 7.40529C80.4747 7.12452 80.0093 6.9335 79.5164 6.84669C78.9384 6.75414 78.3527 6.711 77.7665 6.71779C77.2615 6.72084 76.76 6.79692 76.2796 6.94337C75.8219 7.06333 75.3834 7.24036 74.9758 7.46974C74.5864 7.69474 74.2419 7.98193 73.9579 8.31835C73.7247 8.57824 73.5885 8.90264 73.5699 9.24204C73.5513 9.58145 73.6514 9.91723 73.855 10.1982C73.9513 10.3316 74.0836 10.4386 74.2383 10.5084C74.393 10.5782 74.5646 10.6083 74.7357 10.5957C75.1136 10.6166 75.4858 10.5014 75.7764 10.2734C75.8905 10.1858 75.9833 10.0762 76.0484 9.95207C76.1135 9.8279 76.1495 9.69205 76.1539 9.5537C76.1516 9.27819 76.1131 9.00397 76.0394 8.73729C75.9792 8.52278 75.941 8.30337 75.9251 8.08203C76.1174 7.91906 76.3431 7.79477 76.5885 7.7168C76.917 7.59911 77.2662 7.5408 77.6178 7.54492C78.053 7.51977 78.4856 7.62509 78.853 7.8457C79.1285 8.04356 79.358 8.29213 79.5278 8.57617C79.6701 8.81938 79.7632 9.08526 79.8023 9.36034C79.8374 9.54503 79.8603 9.73158 79.8709 9.91893V10.9931C79.1534 11.3124 78.4118 11.5817 77.6521 11.7988C77.1382 11.9685 76.6884 12.1121 76.3206 12.2294L76.3161 12.2309C75.9413 12.3505 75.6521 12.4428 75.4676 12.5078C75.1516 12.6252 74.8458 12.7653 74.5526 12.9267C74.2508 13.0776 73.9828 13.2819 73.7635 13.5283C73.5104 13.7941 73.316 14.1045 73.1916 14.4414C73.0577 14.8076 72.9919 15.1928 72.9972 15.58C72.9805 15.9512 73.0484 16.3214 73.1963 16.666C73.3443 17.0106 73.5688 17.3215 73.855 17.578C74.1468 17.8353 74.4902 18.0352 74.8653 18.1662C75.2405 18.2971 75.6396 18.3565 76.0394 18.3407C76.7789 18.362 77.5127 18.2146 78.1782 17.911C78.8145 17.6044 79.3816 17.1849 79.848 16.6757H79.9167C79.9881 17.1448 80.2404 17.5729 80.6258 17.8788C81.0629 18.1677 81.5902 18.3113 82.124 18.287C82.4485 18.289 82.7718 18.2492 83.0848 18.1688ZM78.121 12.4863C78.6243 12.3037 79.219 12.1211 79.8938 11.9384L79.8824 15.8163C79.562 16.1821 79.1747 16.4913 78.7387 16.7294C78.2899 16.9923 77.7691 17.1267 77.2403 17.1161C76.7575 17.136 76.2856 16.978 75.9251 16.6757C75.7361 16.4985 75.591 16.2844 75.5001 16.0486C75.4092 15.8129 75.3746 15.5612 75.399 15.3115C75.3835 14.8723 75.5069 14.4387 75.7535 14.0654C75.9928 13.7043 76.3128 13.3964 76.6914 13.163C77.1374 12.8846 77.6174 12.6574 78.121 12.4863Z" fill="#737980"/>
<path d="M98.7196 18.0937H93.001V17.3525H93.6072C93.7926 17.3397 93.9763 17.3109 94.1561 17.2665C94.3586 17.2049 94.5322 17.0797 94.6479 16.912C94.7675 16.7088 94.823 16.4778 94.8081 16.246V10.5635C94.8537 9.907 94.6421 9.25749 94.2133 8.73731C94.0388 8.53718 93.8188 8.37636 93.5694 8.26667C93.32 8.15699 93.0476 8.10124 92.7722 8.10353C92.3826 8.10149 91.9955 8.16328 91.6285 8.28614C91.2992 8.40378 90.9847 8.55507 90.6906 8.73731C90.4521 8.89257 90.24 9.08091 90.0616 9.2959C89.9339 9.44835 89.8192 9.60997 89.7185 9.77929V16.1386C89.7098 16.3609 89.7694 16.581 89.8901 16.7724C90.012 16.944 90.1879 17.0754 90.3933 17.1484C90.5648 17.2249 90.7452 17.2825 90.9308 17.3202C91.1311 17.3565 91.3335 17.3817 91.537 17.3954V18.1366H85.8184V17.3954H86.3902C86.5605 17.3821 86.7291 17.3533 86.8935 17.3095C87.0993 17.2485 87.2767 17.1235 87.3967 16.955C87.5098 16.7534 87.5651 16.5275 87.5569 16.2997V9.46778C87.5613 9.22536 87.5025 8.9856 87.3853 8.76953C87.2892 8.57987 87.1451 8.41517 86.9657 8.28973C86.7863 8.1643 86.577 8.08193 86.356 8.04982C86.1368 8.00919 85.9153 7.9805 85.6926 7.96388V7.11526L89.6042 6.8682L89.7757 7.02932V8.58692H89.8328L90.5534 7.94241C90.8081 7.72023 91.0795 7.5156 91.3655 7.3301C91.6927 7.13542 92.0467 6.98363 92.4177 6.87893C92.863 6.75438 93.3255 6.69284 93.7901 6.69632C94.264 6.66185 94.7398 6.73457 95.1776 6.90839C95.6154 7.08221 96.0025 7.35206 96.3063 7.69532C96.8892 8.46425 97.1792 9.39515 97.1298 10.3379V16.0956C97.1189 16.3143 97.1661 16.5321 97.267 16.7294C97.3816 16.9028 97.5547 17.0352 97.7588 17.1054C97.9217 17.1718 98.0899 17.2257 98.2621 17.2665C98.45 17.3053 98.6415 17.3269 98.8339 17.331L98.7196 18.0937Z" fill="#737980"/>
</svg>
