<svg width="139" height="45" viewBox="0 0 139 45" fill="none" xmlns="http://www.w3.org/2000/svg">
<path fill-rule="evenodd" clip-rule="evenodd" d="M11.4541 29.2541C15.7889 29.2541 19.3093 32.7825 19.3093 37.1271C19.3093 41.4718 15.7889 45.0002 11.4541 45.0002C7.11926 45.0002 3.59886 41.4718 3.59886 37.1271C3.59886 32.7825 7.11926 29.2541 11.4541 29.2541ZM30.1602 29.2541C34.4687 29.2541 38.0154 32.7825 38.0154 37.1271C38.0154 41.4718 34.495 45.0002 30.1602 45.0002C25.8254 45.0002 22.305 41.4718 22.305 37.1271C22.305 32.7825 25.8254 29.2541 30.1602 29.2541ZM48.8392 29.2541C53.174 29.2541 56.6944 32.7825 56.6944 37.1271C56.6944 41.4718 53.174 45.0002 48.8392 45.0002C44.5044 45.0002 40.984 41.4718 40.984 37.1271C40.984 32.7825 44.5044 29.2541 48.8392 29.2541ZM115.175 5.66049C118.695 5.66049 121.585 8.53061 121.585 12.0853V19.9321C121.585 20.7483 120.928 21.4066 120.114 21.4066C119.299 21.4066 118.642 20.7483 118.642 19.9321V12.0853C118.642 10.1631 117.092 8.6096 115.175 8.6096C113.257 8.6096 111.707 10.1631 111.707 12.0853V19.9321C111.707 20.7483 111.05 21.4066 110.235 21.4066C109.421 21.4066 108.764 20.7483 108.764 19.9321V7.13505C108.764 6.31878 109.421 5.66049 110.235 5.66049C110.919 5.66049 111.47 6.10813 111.654 6.71375C112.679 6.05546 113.887 5.66049 115.175 5.66049ZM9.51031 21.4072V21.3809H7.93402C5.5433 21.3809 3.62548 19.4323 3.62548 17.0625L3.62548 8.58385H1.47121C0.65679 8.58385 0 7.92557 0 7.1093C0 6.29303 0.65679 5.63474 1.47121 5.63474L3.62548 5.63474L3.62548 3.34392C3.62548 2.52765 4.28227 1.86937 5.09669 1.86937C5.91111 1.86937 6.5679 2.52765 6.5679 3.34392V5.66107L9.53659 5.66107C10.351 5.66107 11.0078 6.31936 11.0078 7.13563C11.0078 7.9519 10.351 8.61018 9.53659 8.61018H6.5679L6.5679 17.1152C6.5679 17.8525 7.17214 18.4581 7.90775 18.4581H9.51031C10.3247 18.4581 10.9815 19.1164 10.9815 19.9326C10.9815 20.7489 10.3247 21.4072 9.51031 21.4072ZM138.793 19.1436C139.213 19.8545 138.977 20.7498 138.241 21.1448C138.005 21.2764 137.742 21.3554 137.479 21.3554C136.98 21.3554 136.507 21.1184 136.218 20.6445L132.96 15.0886C132.33 14.1406 131.253 13.5613 130.097 13.5613H128.967V19.9335C128.967 20.7498 128.31 21.4081 127.496 21.4081C126.682 21.4081 126.025 20.7498 126.025 19.9335V1.5016C126.025 0.685326 126.682 0.0270433 127.496 0.0270433C128.31 0.0270433 128.967 0.685326 128.967 1.5016V10.6122H130.097L134.379 6.10958C134.957 5.50396 135.903 5.50396 136.481 6.05691C137.085 6.6362 137.085 7.58413 136.533 8.16342L133.355 11.4812C134.169 11.9815 134.905 12.6397 135.456 13.4823L138.793 19.1436ZM21.7535 21.4066C17.4187 21.4066 13.8983 17.8782 13.8983 13.5336C13.8983 9.18889 17.4187 5.66049 21.7535 5.66049C26.0883 5.66049 29.6087 9.18889 29.6087 13.5336C29.6087 17.8782 26.0883 21.4066 21.7535 21.4066ZM21.7533 8.63694C19.0473 8.63694 16.8405 10.8488 16.8405 13.5609C16.8405 16.273 19.0473 18.4849 21.7533 18.4849C24.4593 18.4849 26.6661 16.273 26.6661 13.5609C26.6661 10.8488 24.4593 8.63694 21.7533 8.63694ZM59.0852 5.66049C63.42 5.66049 66.9404 9.18889 66.9404 13.5336C66.9404 17.8782 63.42 21.4066 59.0852 21.4066C54.7503 21.4066 51.2299 17.8782 51.2299 13.5336C51.2299 9.18889 54.7503 5.66049 59.0852 5.66049ZM59.0849 18.4578C61.7909 18.4578 63.9977 16.246 63.9977 13.5339C63.9977 10.8217 61.7909 8.6099 59.0849 8.6099C56.379 8.6099 54.1722 10.8217 54.1722 13.5339C54.1722 16.246 56.379 18.4578 59.0849 18.4578ZM77.8166 5.66123C82.1514 5.66123 85.6718 9.18963 85.6718 13.5343C85.6718 17.879 82.1514 21.4074 77.8166 21.4074C75.9513 21.4074 74.2437 20.7491 72.9038 19.6695V19.8801C72.9038 20.6964 72.247 21.3547 71.4326 21.3547C70.6182 21.3547 69.9614 20.6964 69.9614 19.8801V1.47455C69.9614 0.658283 70.6182 0 71.4326 0C72.247 0 72.9038 0.658283 72.9038 1.47455V7.3991C74.27 6.31951 75.9513 5.66123 77.8166 5.66123ZM77.8165 18.4578C80.5225 18.4578 82.703 16.246 82.7293 13.5339C82.7293 10.8217 80.5225 8.6099 77.8165 8.6099C75.1105 8.6099 72.9037 10.8217 72.9037 13.5339C72.9037 16.246 75.1105 18.4578 77.8165 18.4578ZM40.4316 21.4074C36.0968 21.4074 32.5764 17.8526 32.5764 13.508C32.5764 9.16329 36.0968 5.6349 40.4316 5.6349C42.2969 5.6349 44.0046 6.29318 45.3444 7.37277V1.47455C45.3444 0.658283 46.0012 0 46.8156 0C47.63 0 48.2868 0.658283 48.2868 1.47455V19.9328C48.2868 20.7491 47.63 21.4074 46.8156 21.4074C46.0012 21.4074 45.3444 20.7491 45.3444 19.9328V19.6695C43.9783 20.7491 42.2969 21.4074 40.4316 21.4074ZM40.4323 8.6099C37.7263 8.6099 35.5195 10.8217 35.5195 13.5339C35.5195 16.246 37.7263 18.4578 40.4323 18.4578C43.1383 18.4578 45.3451 16.246 45.3451 13.5339C45.3451 10.8217 43.1383 8.6099 40.4323 8.6099ZM102.853 5.66049C103.668 5.66049 104.325 6.31878 104.325 7.13505V19.9321C104.325 20.7483 103.668 21.4066 102.853 21.4066C102.039 21.4066 101.382 20.7483 101.382 19.9321V19.7214C100.016 20.801 98.3347 21.4593 96.4694 21.4593C92.1346 21.4593 88.6142 17.9309 88.6142 13.5862C88.6142 9.24155 92.1346 5.71316 96.4694 5.71316C98.3347 5.71316 100.042 6.37144 101.382 7.45102V7.13505C101.382 6.31878 102.039 5.66049 102.853 5.66049ZM96.4692 18.4849C99.1752 18.4849 101.382 16.2994 101.382 13.5609C101.382 10.8488 99.1752 8.63694 96.4692 8.63694C93.7632 8.63694 91.5564 10.8488 91.5564 13.5609C91.5564 16.273 93.7632 18.4849 96.4692 18.4849Z" fill="#7C4EFF"/>
</svg>
