<svg width="22" height="18" viewBox="0 0 22 18" fill="none" xmlns="http://www.w3.org/2000/svg">
<path d="M12.8785 0.171471C12.6832 -0.0237911 12.3666 -0.0237911 12.1713 0.171471C11.9761 0.366733 11.9761 0.683316 12.1713 0.878578L19.7928 8.5H1C0.723858 8.5 0.5 8.72386 0.5 9C0.5 9.27614 0.723858 9.5 1 9.5H19.7928L12.1713 17.1215C11.9761 17.3167 11.9761 17.6333 12.1713 17.8286C12.3666 18.0238 12.6832 18.0238 12.8785 17.8286L21.3484 9.35866C21.4419 9.26781 21.5 9.14069 21.5 9C21.5 8.85858 21.4413 8.73087 21.3469 8.63992L12.8785 0.171471Z" fill="#1A73EC"/>
</svg>
