<svg width="22" height="18" viewBox="0 0 22 18" fill="none" xmlns="http://www.w3.org/2000/svg">
<path fill-rule="evenodd" clip-rule="evenodd" d="M9.82855 0.171471C10.0238 0.366733 10.0238 0.683316 9.82855 0.878578L1.70711 9.00002L9.82855 17.1215C10.0238 17.3167 10.0238 17.6333 9.82855 17.8286C9.63329 18.0238 9.31671 18.0238 9.12145 17.8286L0.646447 9.35358C0.552678 9.25981 0.5 9.13263 0.5 9.00002C0.5 8.86742 0.552678 8.74024 0.646447 8.64647L9.12145 0.171471C9.31671 -0.0237911 9.63329 -0.0237911 9.82855 0.171471Z" fill="#1A73EC"/>
<path fill-rule="evenodd" clip-rule="evenodd" d="M0.5 9.00002C0.5 8.72388 0.723858 8.5 1 8.5H21C21.2761 8.5 21.5 8.72386 21.5 9C21.5 9.27614 21.2761 9.5 21 9.5H1C0.723858 9.5 0.5 9.27617 0.5 9.00002Z" fill="#1A73EC"/>
</svg>
