<svg width="154" height="156" viewBox="0 0 154 156" fill="none" xmlns="http://www.w3.org/2000/svg">
<path d="M152.064 108.854L91.4926 2.33656L91.556 2.3352L29.9785 118.792L29.9222 118.707L152.064 108.854ZM152.075 108.858L29.9347 118.822L29.8301 118.831L29.8784 118.738L91.4929 2.29791L91.5241 2.23887L91.5564 2.29655L152.075 108.858Z" fill="#DEA81C" stroke="#DEA81C" stroke-width="0.138846"/>
<path d="M148.33 115.223L97.2752 3.82782L97.3379 3.83231L25.8431 114.482L25.7952 114.394L148.33 115.223ZM148.341 115.227L25.7945 114.509L25.6895 114.508L25.7469 114.42L97.2778 3.79351L97.3126 3.7381L97.3405 3.798L148.341 115.227Z" fill="#DEA81C" stroke="#DEA81C" stroke-width="0.138846"/>
<path d="M144.056 121.243L102.905 5.82014L102.967 5.83046L22.0991 109.831L22.0588 109.738L144.056 121.243ZM144.067 121.247L22.0442 109.85L21.9395 109.841L22.0036 109.759L102.909 5.78873L102.95 5.73654L102.971 5.79796L144.067 121.247Z" fill="#DEA81C" stroke="#DEA81C" stroke-width="0.138846"/>
<path d="M139.273 126.867L108.337 8.29824L108.397 8.31771L18.7751 104.868L18.7443 104.772L139.273 126.867ZM139.284 126.87L18.7231 104.886L18.6201 104.867L18.6909 104.791L108.345 8.26461L108.39 8.21603L108.407 8.27969L139.284 126.87Z" fill="#DEA81C" stroke="#DEA81C" stroke-width="0.138846"/>
<path d="M134.019 132.053L113.535 11.239L113.595 11.2581L15.8986 99.6333L15.8746 99.5347L134.019 132.053ZM134.029 132.056L15.844 99.6484L15.7441 99.6162L15.8215 99.5454L113.547 11.2017L113.596 11.1582L113.607 11.2233L134.029 132.056Z" fill="#DEA81C" stroke="#DEA81C" stroke-width="0.138846"/>
<path d="M128.333 136.761L118.455 14.6219L118.513 14.648L13.485 94.1718L13.4709 94.0727L128.333 136.761ZM128.339 136.77L13.4304 94.1796L13.3305 94.1474L13.4149 94.0849L118.467 14.5945L118.52 14.5546L118.526 14.6205L128.339 136.77Z" fill="#DEA81C" stroke="#DEA81C" stroke-width="0.138846"/>
<path d="M122.257 140.955L123.063 18.4196L123.118 18.4508L11.56 88.519L11.554 88.4177L122.257 140.955ZM122.265 140.966L11.5057 88.5185L11.4112 88.4734L11.4993 88.4182L123.082 18.3822L123.138 18.347L123.138 18.4134L122.265 140.966Z" fill="#DEA81C" stroke="#DEA81C" stroke-width="0.138846"/>
<path d="M115.838 144.605L127.319 22.6056L127.372 22.6408L10.1322 82.7202L10.1345 82.6191L115.838 144.605ZM115.844 144.616L10.0749 82.7174L9.98399 82.6651L10.0772 82.6164L127.338 22.5766L127.397 22.5469L127.39 22.6115L115.844 144.616Z" fill="#DEA81C" stroke="#DEA81C" stroke-width="0.138846"/>
<path d="M109.129 147.681L131.201 27.1415L131.25 27.1815L9.2143 76.8114L9.22609 76.7109L109.129 147.681ZM109.132 147.692L9.1618 76.8126L9.07732 76.7514L9.17358 76.7122L131.221 27.1201L131.282 27.0962L131.27 27.1601L109.132 147.692Z" fill="#DEA81C" stroke="#DEA81C" stroke-width="0.138846"/>
<path d="M102.174 150.159L134.666 32.0073L134.711 32.0521L8.81922 70.858L8.83869 70.7601L102.174 150.159ZM102.177 150.171L8.77096 70.8461L8.69115 70.7779L8.79188 70.7474L134.697 31.9808L134.76 31.9623L134.74 32.0249L102.177 150.171Z" fill="#DEA81C" stroke="#DEA81C" stroke-width="0.138846"/>
<path d="M95.03 152.024L137.697 37.1536L137.738 37.2009L8.9425 64.888L8.9733 64.7925L95.03 152.024ZM95.0333 152.036L8.88804 64.8765L8.81511 64.802L8.91665 64.7803L137.722 37.1362L137.785 37.1228L137.765 37.1854L95.0333 152.036Z" fill="#DEA81C" stroke="#DEA81C" stroke-width="0.138846"/>
<path d="M87.7521 153.258L140.267 42.5457L140.304 42.5964L9.58582 58.9504L9.6232 58.857L87.7521 153.258ZM87.7486 153.269L9.53529 58.9305L9.46813 58.8494L9.57158 58.8368L140.296 42.5235L140.362 42.5145L140.333 42.5742L87.7486 153.269Z" fill="#DEA81C" stroke="#DEA81C" stroke-width="0.138846"/>
<path d="M80.3932 153.854L142.362 48.1383L142.395 48.1926L10.7441 53.0928L10.7888 53.003L80.3932 153.854ZM80.3897 153.865L10.6939 53.0681L10.6347 52.9812L10.7401 52.9776L142.387 48.1198L142.454 48.1169L142.42 48.1738L80.3897 153.865Z" fill="#DEA81C" stroke="#DEA81C" stroke-width="0.138846"/>
<path d="M73.0109 153.804L143.955 53.8902L143.982 53.9476L12.41 47.3509L12.4631 47.265L73.0109 153.804ZM73.0073 153.815L12.3554 47.3248L12.3035 47.2341L12.4086 47.2389L143.985 53.8746L144.051 53.8791L144.013 53.932L73.0073 153.815Z" fill="#DEA81C" stroke="#DEA81C" stroke-width="0.138846"/>
<path d="M65.662 153.107L145.041 59.7624L145.064 59.822L14.566 41.7887L14.6262 41.7076L65.662 153.107ZM65.6581 153.119L14.5229 41.7458L14.4786 41.6503L14.5827 41.6657L145.08 59.7519L145.145 59.7607L145.102 59.8111L65.6581 153.119Z" fill="#DEA81C" stroke="#DEA81C" stroke-width="0.138846"/>
<path d="M58.3971 151.783L145.613 65.7066L145.629 65.7677L17.197 36.4276L17.2638 36.3521L58.3971 151.783ZM58.3932 151.795L17.1588 36.3922L17.1239 36.2937L17.2255 36.3168L145.645 65.6976L145.706 65.7174L145.66 65.7631L58.3932 151.795Z" fill="#DEA81C" stroke="#DEA81C" stroke-width="0.138846"/>
<path d="M51.2788 149.825L145.666 71.6738L145.678 71.7357L20.2944 31.3161L20.3677 31.2464L51.2788 149.825ZM51.275 149.837L20.255 31.2803L20.2285 31.1785L20.3284 31.2107L145.698 71.672L145.761 71.6922L145.71 71.7339L51.275 149.837Z" fill="#DEA81C" stroke="#DEA81C" stroke-width="0.138846"/>
<path d="M44.3591 147.255L145.196 77.6301L145.202 77.6928L23.8189 26.4982L23.8982 26.4365L44.3591 147.255ZM44.3552 147.267L23.7839 26.4566L23.7665 26.3528L23.8635 26.3938L145.234 77.629L145.294 77.6547L145.24 77.6917L44.3552 147.267Z" fill="#DEA81C" stroke="#DEA81C" stroke-width="0.138846"/>
<path d="M37.6906 144.085L144.211 83.5141L144.213 83.5776L27.7505 22.0067L27.8338 21.9512L37.6906 144.085ZM37.6868 144.097L27.7201 21.9581L27.7125 21.8539L27.8046 21.9029L144.25 83.5218L144.308 83.5526L144.25 83.5848L37.6868 144.097Z" fill="#DEA81C" stroke="#DEA81C" stroke-width="0.138846"/>
<path d="M31.3195 140.357L142.714 89.3004L142.71 89.3642L32.0596 17.8694L32.1489 17.8218L31.3195 140.357ZM31.3159 140.368L32.034 17.8211L32.0341 17.7157L32.1221 17.7732L142.749 89.3029L142.804 89.3389L142.744 89.3668L31.3159 140.368Z" fill="#DEA81C" stroke="#DEA81C" stroke-width="0.138846"/>
<path d="M25.2989 136.083L140.722 94.9308L140.712 94.9929L36.7128 14.1268L36.8047 14.0862L25.2989 136.083ZM25.2953 136.094L36.6905 14.076L36.7 13.9712L36.7834 14.0357L140.76 94.9319L140.811 94.9715L140.749 94.994L25.2953 136.094Z" fill="#DEA81C" stroke="#DEA81C" stroke-width="0.138846"/>
<path d="M19.6751 131.301L138.243 100.364L138.224 100.423L41.6745 10.8027L41.7697 10.7704L19.6751 131.301ZM19.6661 131.31L41.6565 10.7496L41.6751 10.6466L41.7524 10.7188L138.277 100.373L138.326 100.418L138.263 100.434L19.6661 131.31Z" fill="#DEA81C" stroke="#DEA81C" stroke-width="0.138846"/>
<path d="M14.4893 126.045L135.303 105.56L135.284 105.621L46.9076 7.92425L47.0059 7.9014L14.4893 126.045ZM14.4799 126.056L46.894 7.87259L46.9262 7.77271L46.9959 7.84971L135.34 105.576L135.384 105.624L135.319 105.636L14.4799 126.056Z" fill="#DEA81C" stroke="#DEA81C" stroke-width="0.138846"/>
<path d="M9.78126 120.358L131.92 110.482L131.894 110.539L52.3702 5.51173L52.4707 5.49689L9.78126 120.358ZM9.77148 120.366L52.3624 5.45711L52.3946 5.35723L52.4574 5.4405L131.952 110.495L131.992 110.548L131.926 110.554L9.77148 120.366Z" fill="#DEA81C" stroke="#DEA81C" stroke-width="0.138846"/>
<path d="M5.58864 114.285L128.122 115.09L128.091 115.146L58.0237 3.58692L58.1236 3.58157L5.58864 114.285ZM5.57812 114.291L58.0254 3.53292L58.0704 3.43841L58.1267 3.52684L128.154 115.101L128.189 115.157L128.123 115.156L5.57812 114.291Z" fill="#DEA81C" stroke="#DEA81C" stroke-width="0.138846"/>
<path d="M1.93825 107.866L123.937 119.347L123.902 119.4L63.8246 2.15772L63.9253 2.16111L1.93825 107.866ZM1.92773 107.872L63.8274 2.10407L63.8805 2.01457L63.9281 2.10747L123.966 119.367L123.997 119.426L123.931 119.42L1.92773 107.872Z" fill="#DEA81C" stroke="#DEA81C" stroke-width="0.138846"/>
</svg>
