<svg width="300" height="160" viewBox="0 0 300 160" fill="none" xmlns="http://www.w3.org/2000/svg">
<g opacity="0.5">
<path d="M298.334 16.7937C296.788 31.5515 281.027 53.7011 258.194 70.1362C235.52 86.9652 205.749 98.094 179.822 99.7971C153.479 101.689 136.177 95.6963 126.017 89.018C115.878 82.119 112.924 74.5948 115.751 68.4175C121.456 55.9901 153.14 51.8064 204.344 29.6457C229.555 19.2903 253.492 7.10957 271.161 2.76671C288.754 -1.80658 300.073 1.46712 298.334 16.7937Z" stroke="url(#paint0_linear_1029_348138)" stroke-miterlimit="10"/>
<path d="M200.535 32.6705C225.919 22.9395 250.124 11.3419 267.911 7.57869C285.609 3.55896 296.903 7.40654 294.741 23.0773C292.779 38.1812 276.302 60.3037 252.853 76.284C229.579 92.6775 199.328 102.971 173.438 103.778C147.101 104.761 130.241 98.0352 120.543 90.8891C110.862 83.5248 108.371 75.7304 111.427 69.4848C117.596 56.9338 148.914 53.5896 200.535 32.6705Z" stroke="url(#paint1_linear_1029_348138)" stroke-miterlimit="10"/>
<path d="M196.715 35.5631C222.272 26.4498 246.71 15.4543 264.592 12.2673C282.4 8.83197 293.636 13.2147 291.035 29.2102C288.656 44.6491 271.414 66.6864 247.374 82.2153C223.484 98.1651 192.81 107.581 166.965 107.509C140.688 107.578 124.296 100.155 115.067 92.5322C105.882 84.6989 103.858 76.6831 107.153 70.3799C113.799 57.7381 144.714 55.2303 196.715 35.5631Z" stroke="url(#paint2_linear_1029_348138)" stroke-miterlimit="10"/>
<path d="M192.889 38.3212C218.565 29.8497 243.26 19.4378 261.213 16.8055C279.1 13.9381 290.264 18.863 287.2 35.1686C284.386 50.9078 266.379 72.8709 241.748 87.9085C217.261 103.387 186.14 111.934 160.42 110.962C134.205 110.131 118.35 102.025 109.63 93.977C100.959 85.7095 99.4277 77.498 102.959 71.1395C110.085 58.4046 140.549 56.7262 192.889 38.3212Z" stroke="url(#paint3_linear_1029_348138)" stroke-miterlimit="10"/>
<path d="M189.088 40.9361C214.879 33.0978 239.79 23.2796 257.819 21.2398C275.784 18.9291 286.846 24.4018 283.321 40.9931C280.054 57.0197 261.275 78.8735 236.059 93.4107C210.976 108.389 179.441 116.054 153.879 114.182C127.78 112.445 112.471 103.683 104.278 95.223C96.1357 86.5365 95.1195 78.1395 98.9004 71.7519C106.454 58.9414 136.417 58.0741 189.088 40.9361Z" stroke="url(#paint4_linear_1029_348138)" stroke-miterlimit="10"/>
<path d="M185.235 43.4271C211.125 36.2246 236.236 27.0099 254.31 25.5391C272.313 23.7955 283.277 29.7915 279.241 46.6679C275.501 62.9695 255.918 84.6973 230.14 98.6821C204.477 113.147 172.586 119.881 147.176 117.139C121.242 114.514 106.538 105.111 98.8867 96.2869C91.3096 87.1955 90.8053 78.6487 94.8385 72.2363C102.911 59.3512 132.329 59.2856 185.235 43.4271Z" stroke="url(#paint5_linear_1029_348138)" stroke-miterlimit="10"/>
<path d="M181.428 45.8135C207.386 39.2348 232.693 30.6369 250.797 29.7379C268.815 28.5579 279.666 35.0732 275.113 52.204C270.892 68.763 250.533 90.3217 224.17 103.755C197.93 117.681 165.694 123.484 140.491 119.86C114.735 116.318 100.627 106.329 93.5582 97.1124C86.5585 87.6601 86.5916 78.9893 90.8817 72.5607C99.4576 59.6439 128.284 60.3595 181.428 45.8135Z" stroke="url(#paint6_linear_1029_348138)" stroke-miterlimit="10"/>
<path d="M177.619 48.0545C203.644 42.1351 229.115 34.1263 247.228 33.7933C265.275 33.1629 275.963 40.1972 270.886 57.5693C266.177 74.3616 245 95.7393 218.088 108.602C191.281 121.967 158.723 126.82 133.766 122.321C108.228 117.885 94.7695 107.315 88.2881 97.7659C81.8932 87.9716 82.4755 79.1985 87.0139 72.7586C96.0999 59.8231 124.29 61.2992 177.619 48.0545Z" stroke="url(#paint7_linear_1029_348138)" stroke-miterlimit="10"/>
<path d="M173.828 50.172C199.884 44.8977 225.513 37.4983 243.619 37.7229C261.673 37.643 272.189 45.1899 266.567 62.7862C261.315 79.7961 239.364 100.958 211.89 113.217C184.533 126.001 151.683 129.883 127.014 124.514C101.736 119.189 88.9525 108.074 83.0788 98.1988C77.3078 88.0974 78.4401 79.2441 83.2407 72.808C88.5133 66.2213 97.1658 63.6968 112.004 61.1277C126.688 58.6086 147.565 56.0179 173.828 50.172Z" stroke="url(#paint8_linear_1029_348138)" stroke-miterlimit="10"/>
<path d="M170.047 52.1719C196.117 47.5344 221.883 40.7495 239.969 41.5345C257.996 42.0063 268.337 50.0504 262.159 67.8604C256.39 85.0846 233.602 105.997 205.61 117.629C177.715 129.791 144.596 132.695 120.228 126.47C95.2398 120.258 83.1661 108.631 77.9289 98.4923C72.8111 88.096 74.5061 79.2066 79.5646 72.7765C85.1069 66.2178 93.6875 63.8513 108.42 61.628C123.005 59.4346 143.747 57.3819 170.047 52.1719Z" stroke="url(#paint9_linear_1029_348138)" stroke-miterlimit="10"/>
<path d="M166.285 54.0524C192.373 50.0493 218.24 43.8826 236.286 45.2264C254.271 46.2416 264.42 54.7813 257.661 72.7613C251.344 90.1722 227.738 110.819 199.227 121.802C170.794 133.353 137.456 135.245 113.439 128.173C88.774 121.083 77.4309 108.972 72.8418 98.5803C68.3724 87.9427 70.6397 79.0345 75.9849 72.6117C81.8084 66.0915 90.2969 63.8772 104.918 61.9978C119.375 60.1399 139.975 58.6231 166.285 54.0524Z" stroke="url(#paint10_linear_1029_348138)" stroke-miterlimit="10"/>
<path d="M162.554 55.8267C188.592 52.4851 214.587 46.9154 232.571 48.8079C250.51 50.3688 260.418 59.4014 253.091 77.54C246.216 95.1201 221.792 115.462 192.777 125.781C163.822 136.685 130.281 137.557 106.66 129.635C82.3581 121.679 71.7713 109.12 67.8513 98.5044C64.0622 87.642 66.9377 78.7292 72.5222 72.351C78.6317 65.878 87.021 63.8028 101.508 62.2681C115.815 60.7355 136.238 59.7448 162.554 55.8267Z" stroke="url(#paint11_linear_1029_348138)" stroke-miterlimit="10"/>
<path d="M158.829 57.4627C184.821 54.7623 210.904 49.8068 228.821 52.2502C246.686 54.3602 256.378 63.8448 248.435 82.1392C240.99 99.8668 215.735 119.888 186.228 129.515C156.762 139.753 123.066 139.585 99.8536 130.829C75.9423 122.014 66.1397 109.038 62.9034 98.2355C59.8092 87.1854 63.2812 78.3086 69.1358 71.9693C75.5249 65.5527 83.8018 63.6237 98.1566 62.4158C112.326 61.2303 132.546 60.7579 158.829 57.4627Z" stroke="url(#paint12_linear_1029_348138)" stroke-miterlimit="10"/>
<path d="M155.138 58.9989C181.059 56.9429 207.21 52.5889 225.039 55.5841C242.819 58.2212 252.279 68.1718 243.697 86.6118C235.688 104.456 209.603 124.128 179.615 133.028C149.689 142.602 115.831 141.362 93.0533 131.797C69.5748 122.13 60.5755 108.771 58.0353 97.8139C55.6525 86.6068 59.729 77.8011 65.8466 71.4877C72.5205 65.1472 80.693 63.3376 94.8758 62.4669C108.888 61.6047 128.903 61.6572 155.138 58.9989Z" stroke="url(#paint13_linear_1029_348138)" stroke-miterlimit="10"/>
<path d="M151.473 60.4251C177.308 59.0096 203.517 55.2797 221.234 58.8052C238.912 61.968 248.101 72.3949 238.913 90.917C230.294 108.885 203.404 128.161 172.947 136.35C142.529 145.168 108.576 142.884 86.2793 132.514C63.2586 122.007 55.0863 108.31 53.2632 97.2265C51.5956 85.8999 56.284 77.1894 62.684 70.9479C69.6472 64.6812 77.6998 62.9937 91.7031 62.436C105.527 61.8804 125.305 62.4524 151.473 60.4251Z" stroke="url(#paint14_linear_1029_348138)" stroke-miterlimit="10"/>
<path d="M147.862 61.7328C173.582 60.9566 199.839 57.8401 217.433 61.8964C234.992 65.5876 243.889 76.4517 234.074 95.0678C224.845 113.121 197.138 131.988 166.237 139.426C135.337 147.518 101.308 144.166 79.5242 132.984C56.9974 121.653 49.6711 107.652 48.5755 96.4818C47.6464 85.0681 52.948 76.4862 59.6257 70.3077C66.8784 64.1259 74.8115 62.5716 88.6214 62.3119C102.234 62.0639 121.76 63.1359 147.862 61.7328Z" stroke="url(#paint15_linear_1029_348138)" stroke-miterlimit="10"/>
<path d="M144.239 62.9605C169.832 62.8197 196.107 60.3154 213.563 64.9053C230.99 69.1099 239.577 80.4205 229.133 99.0975C219.288 117.233 190.73 135.661 159.432 142.291C128.113 149.617 94.0506 145.147 72.8028 133.208C50.8012 121.059 44.3403 106.799 43.9801 95.5777C43.7955 84.119 49.7356 75.6914 56.674 69.5966C64.2167 63.5108 72.0085 62.0393 85.6195 62.1089C99.0337 62.1391 118.267 63.7215 144.239 62.9605Z" stroke="url(#paint16_linear_1029_348138)" stroke-miterlimit="10"/>
<path d="M140.662 64.0789C166.103 64.5699 192.388 62.676 209.691 67.7912C226.962 72.4878 235.255 84.2423 224.138 102.97C213.66 121.14 184.284 139.116 152.578 144.958C120.848 151.49 86.773 145.891 66.1063 133.204C44.6928 120.258 39.0904 105.789 39.4664 94.5387C40.0473 83.063 46.5868 74.811 53.8326 68.8027C61.6657 62.8239 69.3185 61.4398 82.7096 61.8106C95.8991 62.1332 114.835 64.2061 140.662 64.0789Z" stroke="url(#paint17_linear_1029_348138)" stroke-miterlimit="10"/>
<path d="M137.152 65.0881C162.413 66.203 188.691 64.9245 205.811 70.5349C222.925 75.7703 230.89 87.9298 219.103 106.674C208.006 124.888 177.798 142.347 145.708 147.362C113.556 153.102 79.5179 146.391 59.4406 132.941C38.5868 119.208 33.9034 104.548 35.0469 93.336C36.3949 81.8878 43.5719 73.8811 51.091 67.9383C59.226 62.0773 66.7241 60.772 79.8814 61.429C92.8482 62.0374 111.458 64.5997 137.152 65.0881Z" stroke="url(#paint18_linear_1029_348138)" stroke-miterlimit="10"/>
<path d="M133.666 66.0038C158.735 67.7387 184.988 67.0674 201.928 73.2174C218.856 78.9503 226.478 91.5066 214.026 110.264C202.284 128.491 171.26 145.417 138.81 149.578C106.273 154.488 72.2946 146.635 52.8502 132.46C32.6143 117.955 28.8412 103.17 30.742 92.0189C32.8652 80.6333 40.6495 72.8997 48.4851 67.0497C56.9133 61.3111 64.2649 60.069 77.1793 61.0058C89.8774 61.8573 108.143 64.8963 133.666 66.0038Z" stroke="url(#paint19_linear_1029_348138)" stroke-miterlimit="10"/>
<path d="M130.223 66.8229C155.072 69.181 181.283 69.1152 198.022 75.7656C214.759 81.9985 222.02 94.95 208.886 113.69C196.496 131.91 164.662 148.277 131.857 151.569C98.9527 155.633 65.0765 146.622 46.2857 131.739C26.695 116.48 23.8355 101.597 26.5221 90.5592C29.409 79.2877 37.8672 71.8248 45.9469 66.0901C54.6754 60.4872 61.8734 59.2951 74.5267 60.499C86.9874 61.599 104.89 65.1022 130.223 66.8229Z" stroke="url(#paint20_linear_1029_348138)" stroke-miterlimit="10"/>
<path d="M126.825 67.5493C151.428 70.5004 177.59 71.0604 194.112 78.214C210.637 84.9366 217.521 98.275 203.707 116.973C190.657 135.164 158.018 150.937 124.886 153.333C91.6591 156.516 57.8915 146.348 39.786 130.774C20.8659 114.786 18.9358 99.8755 22.4044 88.9646C26.0981 77.8345 35.1685 70.7156 43.558 65.0718C52.5959 59.6107 59.6312 58.4623 72.0138 59.916C84.186 61.2642 101.697 65.2192 126.825 67.5493Z" stroke="url(#paint21_linear_1029_348138)" stroke-miterlimit="10"/>
<path d="M123.473 68.1831C147.829 71.7607 173.905 72.9057 190.185 80.5588C206.483 87.7672 212.985 101.462 198.485 120.134C184.772 138.251 151.333 153.398 117.912 154.883C84.3348 157.178 50.7503 145.824 33.3792 129.566C15.1676 112.856 14.1818 97.9558 18.4192 87.2411C22.904 76.3063 32.6048 69.544 41.2962 64.0179C50.6349 58.7035 57.5133 57.5786 69.6142 59.2825C81.4682 60.8555 98.5755 65.2517 123.473 68.1831Z" stroke="url(#paint22_linear_1029_348138)" stroke-miterlimit="10"/>
<path d="M120.166 68.7355C144.245 72.9117 170.233 74.6529 186.274 82.7878C202.347 90.4641 208.439 104.547 193.219 123.103C178.828 141.15 144.606 155.662 110.904 156.226C77.0101 157.591 43.6459 145.037 26.9866 128.146C9.50237 110.739 9.44646 95.8847 14.479 85.4139C19.7516 74.7101 30.0937 68.3551 39.0782 62.9515C48.7097 57.8106 55.4412 56.6756 67.2394 58.6015C78.8389 60.3815 95.5201 65.2086 120.166 68.7355Z" stroke="url(#paint23_linear_1029_348138)" stroke-miterlimit="10"/>
<path d="M116.912 69.1954C140.69 73.9599 166.574 76.3067 182.348 84.9156C198.126 93.0868 203.851 107.5 187.92 125.948C172.863 143.923 137.851 157.724 103.884 157.319C69.717 157.759 36.5904 143.995 20.6945 126.483C3.96488 108.398 4.86672 93.6816 10.6769 83.4644C16.7371 73.0426 27.7081 67.1242 37.006 61.849C46.9672 56.856 53.5213 55.7275 65.0134 57.8489C76.3031 59.8379 92.5375 65.0789 116.912 69.1954Z" stroke="url(#paint24_linear_1029_348138)" stroke-miterlimit="10"/>
<path d="M182.59 128.653C166.858 146.511 131.074 159.592 96.8683 158.204C62.4397 157.689 29.5816 142.709 14.4784 124.588C-1.47125 105.851 0.380411 91.2995 6.97304 81.4067C13.8269 71.3089 25.426 65.8672 35.031 60.7295C45.3139 55.9112 51.7024 54.7488 62.887 57.0836C73.8584 59.2353 89.6323 64.8751 113.697 69.5847C137.155 74.9318 162.908 77.8763 178.408 86.9571C193.958 95.5697 199.231 110.337 182.59 128.653Z" stroke="url(#paint25_linear_1029_348138)" stroke-miterlimit="10"/>
</g>
<defs>
<linearGradient id="paint0_linear_1029_348138" x1="146.834" y1="46.5597" x2="213.527" y2="120.164" gradientUnits="userSpaceOnUse">
<stop offset="0.0104136" stop-color="#DEA81C"/>
<stop offset="1" stop-color="#1A73EC"/>
</linearGradient>
<linearGradient id="paint1_linear_1029_348138" x1="141.833" y1="48.1114" x2="212.198" y2="124.038" gradientUnits="userSpaceOnUse">
<stop offset="0.0104136" stop-color="#DEA81C"/>
<stop offset="1" stop-color="#1A73EC"/>
</linearGradient>
<linearGradient id="paint2_linear_1029_348138" x1="136.811" y1="49.5352" x2="210.852" y2="127.65" gradientUnits="userSpaceOnUse">
<stop offset="0.0104136" stop-color="#DEA81C"/>
<stop offset="1" stop-color="#1A73EC"/>
</linearGradient>
<linearGradient id="paint3_linear_1029_348138" x1="131.779" y1="50.8564" x2="209.437" y2="130.991" gradientUnits="userSpaceOnUse">
<stop offset="0.0104136" stop-color="#DEA81C"/>
<stop offset="1" stop-color="#1A73EC"/>
</linearGradient>
<linearGradient id="paint4_linear_1029_348138" x1="126.776" y1="52.0677" x2="208.055" y2="134.097" gradientUnits="userSpaceOnUse">
<stop offset="0.0104136" stop-color="#DEA81C"/>
<stop offset="1" stop-color="#1A73EC"/>
</linearGradient>
<linearGradient id="paint5_linear_1029_348138" x1="121.69" y1="53.2086" x2="206.486" y2="136.953" gradientUnits="userSpaceOnUse">
<stop offset="0.0104136" stop-color="#DEA81C"/>
<stop offset="1" stop-color="#1A73EC"/>
</linearGradient>
<linearGradient id="paint6_linear_1029_348138" x1="116.61" y1="54.2457" x2="204.967" y2="139.615" gradientUnits="userSpaceOnUse">
<stop offset="0.0104136" stop-color="#DEA81C"/>
<stop offset="1" stop-color="#1A73EC"/>
</linearGradient>
<linearGradient id="paint7_linear_1029_348138" x1="111.517" y1="55.2079" x2="203.359" y2="142.054" gradientUnits="userSpaceOnUse">
<stop offset="0.0104136" stop-color="#DEA81C"/>
<stop offset="1" stop-color="#1A73EC"/>
</linearGradient>
<linearGradient id="paint8_linear_1029_348138" x1="106.432" y1="56.119" x2="201.636" y2="144.278" gradientUnits="userSpaceOnUse">
<stop offset="0.0104136" stop-color="#DEA81C"/>
<stop offset="1" stop-color="#1A73EC"/>
</linearGradient>
<linearGradient id="paint9_linear_1029_348138" x1="101.327" y1="56.9703" x2="199.826" y2="146.317" gradientUnits="userSpaceOnUse">
<stop offset="0.0104136" stop-color="#DEA81C"/>
<stop offset="1" stop-color="#1A73EC"/>
</linearGradient>
<linearGradient id="paint10_linear_1029_348138" x1="96.22" y1="57.7431" x2="197.914" y2="148.141" gradientUnits="userSpaceOnUse">
<stop offset="0.0104136" stop-color="#DEA81C"/>
<stop offset="1" stop-color="#1A73EC"/>
</linearGradient>
<linearGradient id="paint11_linear_1029_348138" x1="91.1226" y1="58.4764" x2="195.924" y2="149.801" gradientUnits="userSpaceOnUse">
<stop offset="0.0104136" stop-color="#DEA81C"/>
<stop offset="1" stop-color="#1A73EC"/>
</linearGradient>
<linearGradient id="paint12_linear_1029_348138" x1="86.0005" y1="59.1417" x2="193.801" y2="151.284" gradientUnits="userSpaceOnUse">
<stop offset="0.0104136" stop-color="#DEA81C"/>
<stop offset="1" stop-color="#1A73EC"/>
</linearGradient>
<linearGradient id="paint13_linear_1029_348138" x1="80.8778" y1="59.7639" x2="191.581" y2="152.619" gradientUnits="userSpaceOnUse">
<stop offset="0.0104136" stop-color="#DEA81C"/>
<stop offset="1" stop-color="#1A73EC"/>
</linearGradient>
<linearGradient id="paint14_linear_1029_348138" x1="75.7865" y1="60.3732" x2="189.254" y2="153.822" gradientUnits="userSpaceOnUse">
<stop offset="0.0104136" stop-color="#DEA81C"/>
<stop offset="1" stop-color="#1A73EC"/>
</linearGradient>
<linearGradient id="paint15_linear_1029_348138" x1="70.7129" y1="60.9303" x2="186.827" y2="154.884" gradientUnits="userSpaceOnUse">
<stop offset="0.0104136" stop-color="#DEA81C"/>
<stop offset="1" stop-color="#1A73EC"/>
</linearGradient>
<linearGradient id="paint16_linear_1029_348138" x1="65.6593" y1="61.4552" x2="184.311" y2="155.8" gradientUnits="userSpaceOnUse">
<stop offset="0.0104136" stop-color="#DEA81C"/>
<stop offset="1" stop-color="#1A73EC"/>
</linearGradient>
<linearGradient id="paint17_linear_1029_348138" x1="60.6352" y1="61.9399" x2="181.696" y2="156.597" gradientUnits="userSpaceOnUse">
<stop offset="0.0104136" stop-color="#DEA81C"/>
<stop offset="1" stop-color="#1A73EC"/>
</linearGradient>
<linearGradient id="paint18_linear_1029_348138" x1="55.6385" y1="62.3903" x2="178.986" y2="157.284" gradientUnits="userSpaceOnUse">
<stop offset="0.0104136" stop-color="#DEA81C"/>
<stop offset="1" stop-color="#1A73EC"/>
</linearGradient>
<linearGradient id="paint19_linear_1029_348138" x1="50.7172" y1="62.8376" x2="176.214" y2="157.875" gradientUnits="userSpaceOnUse">
<stop offset="0.0104136" stop-color="#DEA81C"/>
<stop offset="1" stop-color="#1A73EC"/>
</linearGradient>
<linearGradient id="paint20_linear_1029_348138" x1="45.8141" y1="63.2317" x2="173.351" y2="158.351" gradientUnits="userSpaceOnUse">
<stop offset="0.0104136" stop-color="#DEA81C"/>
<stop offset="1" stop-color="#1A73EC"/>
</linearGradient>
<linearGradient id="paint21_linear_1029_348138" x1="40.97" y1="63.5997" x2="170.414" y2="158.726" gradientUnits="userSpaceOnUse">
<stop offset="0.0104136" stop-color="#DEA81C"/>
<stop offset="1" stop-color="#1A73EC"/>
</linearGradient>
<linearGradient id="paint22_linear_1029_348138" x1="36.2144" y1="63.9258" x2="167.445" y2="158.975" gradientUnits="userSpaceOnUse">
<stop offset="0.0104136" stop-color="#DEA81C"/>
<stop offset="1" stop-color="#1A73EC"/>
</linearGradient>
<linearGradient id="paint23_linear_1029_348138" x1="31.4681" y1="64.2213" x2="164.356" y2="159.169" gradientUnits="userSpaceOnUse">
<stop offset="0.0104136" stop-color="#DEA81C"/>
<stop offset="1" stop-color="#1A73EC"/>
</linearGradient>
<linearGradient id="paint24_linear_1029_348138" x1="26.813" y1="64.5016" x2="161.236" y2="159.262" gradientUnits="userSpaceOnUse">
<stop offset="0.0104136" stop-color="#DEA81C"/>
<stop offset="1" stop-color="#1A73EC"/>
</linearGradient>
<linearGradient id="paint25_linear_1029_348138" x1="22.1968" y1="64.691" x2="158.095" y2="159.232" gradientUnits="userSpaceOnUse">
<stop offset="0.0104136" stop-color="#DEA81C"/>
<stop offset="1" stop-color="#1A73EC"/>
</linearGradient>
</defs>
</svg>
