<svg width="32" height="32" viewBox="0 0 32 32" fill="none" xmlns="http://www.w3.org/2000/svg">
<g clip-path="url(#clip0_625_622)">
<path d="M16.0009 31.5505C24.5923 31.5505 31.557 24.5858 31.557 15.9944C31.557 7.403 24.5923 0.438293 16.0009 0.438293C7.40953 0.438293 0.444824 7.403 0.444824 15.9944C0.444824 24.5858 7.40953 31.5505 16.0009 31.5505Z" fill="#FCD6E0"/>
<path d="M16.001 0.438293C15.5369 0.438293 15.0776 0.458638 14.6238 0.498452C22.5701 1.1955 28.8027 7.8671 28.8027 15.9944C28.8027 24.1217 22.5701 30.7933 14.6238 31.4903C15.0776 31.5302 15.5369 31.5505 16.001 31.5505C24.5924 31.5505 31.5571 24.5858 31.5571 15.9944C31.5571 7.40298 24.5924 0.438293 16.001 0.438293Z" fill="#F798B3"/>
<path d="M13.8386 21.0826C13.5556 21.0826 13.2725 20.9746 13.0566 20.7587L9.4175 17.1197C8.41265 16.1148 9.97283 14.547 10.9815 15.5557L13.8386 18.4127L21.0203 11.231C22.0166 10.2347 23.6035 11.7759 22.5843 12.795L14.6206 20.7587C14.4047 20.9746 14.1216 21.0826 13.8386 21.0826Z" fill="white"/>
<path d="M27.3327 4.66254C21.3671 -1.55414 10.6344 -1.55445 4.66904 4.66273C-1.36134 10.4549 -1.56918 20.7767 4.19146 26.8266C4.36681 27.0177 4.66378 27.0303 4.85484 26.8551C5.04589 26.6798 5.0586 26.3828 4.88332 26.1918C-3.95655 16.5932 2.94723 0.873992 16.001 0.907858C24.1098 0.740654 31.2554 7.88494 31.0873 15.9945C31.1475 28.509 16.4358 35.6374 6.65434 27.8373C6.45095 27.6766 6.15567 27.7111 5.99485 27.9146C5.83409 28.118 5.86864 28.4132 6.07209 28.5741C12.2012 33.5938 21.8291 33.0298 27.3326 27.3261C33.5494 21.3614 33.5497 10.6273 27.3327 4.66254Z" fill="#2D2E35"/>
<path d="M16.0007 27.951C13.324 27.951 10.9103 26.9899 10.0176 26.384C9.80314 26.2384 9.51111 26.2943 9.3655 26.5088C9.21989 26.7233 9.27573 27.0153 9.49032 27.1609C17.7176 32.0899 28.9725 26.0216 28.8963 15.9943C28.8964 8.88381 23.1114 3.09882 16.0008 3.09882C15.7415 3.09882 15.5313 3.30903 15.5313 3.56832C15.5313 3.82761 15.7415 4.03782 16.0008 4.03782C31.8423 4.63953 31.8355 27.3528 16.0007 27.951Z" fill="#2D2E35"/>
<path d="M8.67536 15.9978C8.53532 16.5205 8.68493 17.0501 9.08576 17.4508L12.7248 21.0899C13.327 21.6921 14.3492 21.6934 14.9528 21.0899L20.2465 15.7963C20.4298 15.613 20.4298 15.3157 20.2465 15.1324C20.0631 14.949 19.7658 14.949 19.5825 15.1324L14.2889 20.426C14.0433 20.6715 13.6344 20.6715 13.3888 20.426L9.74976 16.7869C9.20333 16.2405 10.0936 15.3307 10.6498 15.8868L13.5068 18.7439C13.6902 18.9272 13.9875 18.9272 14.1708 18.7439L21.3525 11.5622C21.6142 11.3005 21.9815 11.3435 22.233 11.595C22.307 11.6691 22.6559 12.0588 22.2525 12.4622L21.3378 13.3769C21.1544 13.5603 21.1544 13.8576 21.3378 14.0409C21.5211 14.2242 21.8184 14.2242 22.0017 14.0409L22.9164 13.1262C24.3352 11.6541 22.1576 9.4943 20.6885 10.8982L13.8387 17.7479L11.3136 15.2228C10.4483 14.3575 8.98216 14.8528 8.67536 15.9978Z" fill="#2D2E35"/>
<path d="M12.7968 3.48627C12.1926 3.48627 12.1916 4.42527 12.7968 4.42527C13.401 4.42527 13.402 3.48627 12.7968 3.48627Z" fill="#2D2E35"/>
<path d="M9.79045 4.7265C9.18624 4.7265 9.18523 5.6655 9.79045 5.6655C10.3947 5.6655 10.3957 4.7265 9.79045 4.7265Z" fill="#2D2E35"/>
<path d="M7.20696 7.64011C7.81117 7.64011 7.81217 6.70111 7.20696 6.70111C6.60274 6.70111 6.60174 7.64011 7.20696 7.64011Z" fill="#2D2E35"/>
<path d="M5.22282 9.27808C4.61861 9.27808 4.61761 10.2171 5.22282 10.2171C5.82704 10.2171 5.82804 9.27808 5.22282 9.27808Z" fill="#2D2E35"/>
<path d="M3.97307 12.2802C3.36885 12.2802 3.36785 13.2192 3.97307 13.2192C4.57728 13.2192 4.57829 12.2802 3.97307 12.2802Z" fill="#2D2E35"/>
<path d="M3.54338 15.504C2.93917 15.504 2.93816 16.443 3.54338 16.443C4.1476 16.443 4.1486 15.504 3.54338 15.504Z" fill="#2D2E35"/>
<path d="M3.96233 19.6684C4.56654 19.6684 4.56754 18.7294 3.96233 18.7294C3.35811 18.7294 3.35711 19.6684 3.96233 19.6684Z" fill="#2D2E35"/>
<path d="M5.20207 21.7355C4.59786 21.7355 4.59686 22.6745 5.20207 22.6745C5.80623 22.6745 5.80723 21.7355 5.20207 21.7355Z" fill="#2D2E35"/>
<path d="M7.17712 25.2583C7.78134 25.2583 7.78234 24.3193 7.17712 24.3193C6.57297 24.3193 6.57197 25.2583 7.17712 25.2583Z" fill="#2D2E35"/>
</g>
<defs>
<clipPath id="clip0_625_622">
<rect width="32" height="32" fill="white"/>
</clipPath>
</defs>
</svg>
