<svg width="44" height="44" viewBox="0 0 44 44" fill="none" xmlns="http://www.w3.org/2000/svg">
<g clip-path="url(#clip0_445_10328)">
<path d="M21.9999 0.64563C33.7936 0.64563 43.3542 10.2063 43.3542 22C43.3542 29.6654 39.3145 36.3862 33.2489 40.1529L34.4853 42.3763C34.7292 42.815 34.412 43.3544 33.91 43.3544H21.9999C10.2062 43.3544 0.645458 33.7937 0.645458 22C0.645458 10.2063 10.2062 0.64563 21.9999 0.64563Z" fill="#FDEAF0"/>
<path d="M38.5723 21.1525C38.5723 12.5719 33.8383 5.09809 26.8404 1.1969C36.3023 3.38978 43.3542 11.8713 43.3542 22.0001C43.3542 29.6654 39.3145 36.3863 33.2489 40.153L34.4853 42.3764C34.7292 42.8151 34.412 43.3545 33.91 43.3545H21.9999C21.7183 43.3545 21.4376 43.3484 21.1587 43.3377C31.1522 40.9043 38.5723 31.895 38.5723 21.1525Z" fill="#FCD6E0"/>
<path d="M24.6795 29.2587H25.5625C28.9977 29.2587 31.7825 26.4739 31.7825 23.0387V17.2554C31.7825 15.9332 30.7105 14.8612 29.3882 14.8612H26.3942C25.0719 14.8612 24 15.9332 24 17.2554V18.5262C24 19.8485 25.0719 20.9204 26.3942 20.9204H27.8627V22.7831C27.8627 24.6042 26.9458 26.303 25.4234 27.3024L24.3126 28.0317C23.7579 28.3958 24.0158 29.2587 24.6795 29.2587Z" fill="white"/>
<path d="M12.8817 29.2587H13.7647C17.1999 29.2587 19.9846 26.4739 19.9846 23.0387V17.2554C19.9846 15.9332 18.9127 14.8612 17.5904 14.8612H14.5964C13.2741 14.8612 12.2021 15.9332 12.2021 17.2554V18.5262C12.2021 19.8485 13.2741 20.9204 14.5964 20.9204H16.0648V22.7831C16.0648 24.6042 15.1479 26.303 13.6256 27.3024L12.5148 28.0317C11.9601 28.3958 12.218 29.2587 12.8817 29.2587Z" fill="white"/>
<path d="M3.19054 10.5833C3.3758 10.2787 3.77309 10.1818 4.07775 10.3673C4.38241 10.5525 4.47917 10.9497 4.29391 11.2544C2.32959 14.484 1.29129 18.1998 1.29129 22C1.29129 27.5315 3.44535 32.7319 7.3567 36.6432C11.2681 40.5547 16.4685 42.7087 22 42.7087L33.916 42.7084C33.9192 42.7066 33.9236 42.699 33.9211 42.6901L32.6849 40.4668C32.5175 40.1656 32.6158 39.7862 32.9085 39.6044C35.2505 38.1501 37.2523 36.2738 38.8582 34.0276C39.0655 33.7376 39.4687 33.6707 39.7589 33.8779C40.049 34.0852 40.1159 34.4886 39.9086 34.7786C38.3228 36.9966 36.3737 38.8749 34.1083 40.3694L35.0497 42.0625C35.2768 42.4706 35.2708 42.9546 35.0341 43.3571C34.7973 43.7597 34.3772 44 33.9102 44H22C16.1236 44 10.5989 41.7116 6.44367 37.5563C2.28835 33.401 -3.8147e-06 27.8764 -3.8147e-06 22C-3.8147e-06 17.963 1.10328 14.0153 3.19054 10.5833Z" fill="#2D2E35"/>
<path d="M42.7087 22C42.7087 16.4685 40.5546 11.2681 36.6433 7.35679C32.7319 3.44536 27.5315 1.2913 22 1.2913C15.6975 1.2913 9.81362 4.11193 5.85708 9.0298C5.6336 9.3076 5.22727 9.35176 4.94929 9.1282C4.67141 8.90463 4.62741 8.49822 4.85089 8.22041C9.05399 2.99625 15.3045 0 22 0C27.8764 0 33.4011 2.28844 37.5563 6.44367C41.7116 10.5989 44 16.1236 44 22C44 25.6071 43.1071 29.1854 41.4178 32.3481C41.3015 32.5657 41.0785 32.6897 40.8478 32.6897C40.7452 32.6897 40.6411 32.6651 40.5442 32.6134C40.2297 32.4455 40.1109 32.0543 40.2789 31.7397C41.8684 28.7635 42.7087 25.3956 42.7087 22Z" fill="#2D2E35"/>
<path d="M26.3944 21.566C24.7182 21.566 23.3545 20.2023 23.3545 18.5261V17.2553C23.3545 15.5792 24.7182 14.2155 26.3944 14.2155H29.3883C31.0645 14.2155 32.4282 15.5792 32.4282 17.2553V23.0386C32.4282 26.8244 29.3484 29.9042 25.5626 29.9042H24.6796C24.0942 29.9042 23.5882 29.5274 23.4206 28.9666C23.2529 28.4057 23.469 27.8131 23.9584 27.4918L25.0692 26.7626C26.4142 25.8796 27.2171 24.3918 27.2171 22.783V21.566H26.3944ZM25.7779 27.842L24.6672 28.5713C24.6598 28.5761 24.6565 28.5794 24.6558 28.5795C24.6541 28.5885 24.6598 28.6072 24.6637 28.6114C24.6637 28.6114 24.6683 28.613 24.6796 28.613H25.5627C28.6364 28.613 31.137 26.1124 31.137 23.0387V17.2554C31.137 16.2913 30.3527 15.5068 29.3884 15.5068H26.3945C25.4303 15.5068 24.6459 16.2913 24.6459 17.2554V18.5262C24.6459 19.4903 25.4302 20.2747 26.3945 20.2747H27.863C28.2196 20.2747 28.5086 20.5638 28.5086 20.9204V22.7831C28.5085 24.8283 27.4877 26.7195 25.7779 27.842Z" fill="#2D2E35"/>
<path d="M14.5966 21.5661C12.9204 21.5661 11.5567 20.2024 11.5567 18.5262V17.2555C11.5567 15.5793 12.9204 14.2156 14.5966 14.2156H17.5905C19.2667 14.2156 20.6304 15.5793 20.6304 17.2555V22.8719C20.6304 23.2285 20.3414 23.5176 19.9847 23.5176C19.6281 23.5176 19.3391 23.2285 19.3391 22.8719V17.2555C19.3391 16.2913 18.5547 15.5069 17.5905 15.5069H14.5966C13.6324 15.5069 12.848 16.2913 12.848 17.2555V18.5262C12.848 19.4904 13.6323 20.2748 14.5966 20.2748H16.065C16.4217 20.2748 16.7107 20.5639 16.7107 20.9204V22.7831C16.7107 24.8284 15.6899 26.7197 13.98 27.8422L12.8693 28.5714C12.862 28.5762 12.8586 28.5796 12.858 28.5796C12.8562 28.5886 12.8619 28.6073 12.8659 28.6115C12.8659 28.6115 12.8704 28.6131 12.8818 28.6131H13.7649C15.9354 28.6131 17.9241 27.3372 18.8314 25.3627C18.9803 25.0386 19.3636 24.8966 19.6877 25.0455C20.0118 25.1944 20.1537 25.5778 20.0049 25.9018C18.8875 28.3333 16.4382 29.9043 13.765 29.9043H12.8819C12.2965 29.9043 11.7906 29.5275 11.623 28.9667C11.4553 28.4058 11.6713 27.8132 12.1607 27.4919L13.2714 26.7628C14.6164 25.8797 15.4195 24.392 15.4195 22.7831V21.5661H14.5966Z" fill="#2D2E35"/>
</g>
<defs>
<clipPath id="clip0_445_10328">
<rect width="44" height="44" fill="white" transform="matrix(-1 0 0 1 44 0)"/>
</clipPath>
</defs>
</svg>
