<svg width="46" height="67" viewBox="0 0 46 67" fill="none" xmlns="http://www.w3.org/2000/svg">
<path d="M22.1628 66.1602C22.1628 66.1602 22.1999 66.2522 22.1628 66.1602C22.1999 66.2522 22.1999 66.2522 22.1628 66.1602C22.237 66.3442 22.2189 66.5642 22.256 66.6563C22.3113 66.5282 22.237 66.3442 22.1628 66.1602C20.9782 65.3445 18.9261 65.2933 17.4653 65.1179C15.875 64.8865 14.1923 64.6912 12.6392 64.5518C9.31095 64.2532 5.83511 64.1186 2.5259 64.132C2.43353 64.1681 0.410612 59.4197 0.558239 59.2556C4.33959 54.0527 8.21333 48.8137 11.9947 43.6107C11.847 43.7748 12.8857 45.8189 12.9971 46.0949C13.1085 46.371 14.11 48.323 13.9995 48.5792C12.4869 50.6603 10.9373 52.6495 9.5171 54.6946C12.1218 53.4652 14.5599 52.0878 16.9237 50.5264C25.0494 45.2256 31.9146 37.8608 36.7629 29.4725C41.5189 21.1204 45.8821 9.93965 42.7419 0.302521C43.095 1.44266 44.1337 3.48674 44.6353 4.99492C46.4933 10.6596 45.6897 16.6174 43.9795 22.1836C38.9595 38.626 26.6882 52.4667 11.0229 59.7513C12.3542 59.8707 13.8149 60.0462 15.1834 60.2576C16.7736 60.489 19.2877 60.3599 20.2512 61.6878C20.2141 61.5958 20.177 61.5038 20.2694 61.4678C20.3436 61.6518 20.3807 61.7438 20.455 61.9278C20.455 61.9278 20.455 61.9278 20.4921 62.0198C21.1224 63.0518 21.883 64.6719 22.1628 66.1602ZM21.7915 65.2401C21.8658 65.4241 21.9771 65.7001 22.0514 65.8841C22.0695 65.6641 21.9953 65.4801 21.7915 65.2401Z" fill="#F7D557"/>
</svg>
