<svg width="106" height="124" viewBox="0 0 106 124" fill="none" xmlns="http://www.w3.org/2000/svg">
<g opacity="0.9">
<path d="M8.67793 118.272C9.36014 118.6 9.72047 118.581 10.5475 118.207C11.7698 117.644 25.5949 107.054 26.4076 106.058C26.9859 105.346 26.9333 104.547 26.2568 103.813C25.5397 103.032 24.6429 103.123 23.4242 104.112C20.8992 106.165 15.3158 110.45 15.2243 110.4C15.1027 110.339 19.6075 102.707 21.3061 100.102C23.0933 97.3577 23.3154 96.7867 22.9713 95.812C22.559 94.6482 21.6036 94.1866 20.4398 94.599C19.5422 94.9141 18.8923 95.7132 17.2098 98.5708L16.6724 99.4897L16.7615 98.3445C16.8277 97.4983 16.7326 96.9423 16.3812 96.2001C15.8015 94.9504 15.0906 94.6254 13.9124 95.0391C12.8817 95.4028 12.4617 96.2602 10.9841 101.011C9.66091 105.24 9.4862 106.009 8.38723 112.028C7.45731 117.06 7.48731 117.695 8.67793 118.272Z" fill="#FF3C1F"/>
<path d="M23.4046 93.3749C24.2125 93.8863 25.4277 93.7155 25.9708 93.0132C26.1974 92.7242 27.0096 91.4901 27.8048 90.2285C28.5948 88.9891 29.9369 86.9888 30.7754 85.8029C31.6138 84.6169 32.3179 83.4652 32.3201 83.255C32.3678 81.0418 29.8876 79.9906 28.3854 81.593C27.6336 82.3871 22.6158 90.7325 22.5139 91.3503C22.3733 92.1744 22.7117 92.9323 23.4046 93.3749Z" fill="#FF3C1F"/>
<path d="M33.432 77.7638C34.0024 78.3698 35.1285 78.6417 35.9413 78.3489C36.5297 78.1349 37.0883 77.366 39.9138 72.8597C42.8147 68.2306 43.0708 67.6347 42.6781 66.527C42.1069 64.9 40.3332 64.5941 38.8355 65.8558C38.2646 66.3361 37.071 68.1416 34.592 72.2464C32.4228 75.8661 32.2818 76.531 33.432 77.7638Z" fill="#FF3C1F"/>
<path d="M44.1563 62.4934C44.4533 62.8061 44.9827 63.1263 45.3759 63.2273C46.7254 63.5654 47.2246 63.1713 50.0584 59.5333C51.5078 57.675 53.0707 55.7121 53.5214 55.185C54.7497 53.7528 55.1133 52.7559 54.7771 51.7878C54.3753 50.6592 53.4316 50.1676 52.2048 50.4481C50.9859 50.7352 49.7638 52.0003 46.1996 56.6621C43.3269 60.4269 43.0297 61.2801 44.1563 62.4934Z" fill="#FF3C1F"/>
<path d="M59.5498 46.7239C59.8884 46.9387 60.569 47.0927 61.052 47.0695C61.9097 47.026 62.0583 46.9108 65.9848 43.1857C70.6032 38.8024 71.1865 37.9878 70.7032 36.6061C70.4655 35.9185 70.2234 35.6513 69.5791 35.3419C68.1009 34.632 67.3602 35.0774 62.8005 39.39C60.344 41.7112 58.7479 43.3948 58.5713 43.8313C58.1945 44.7643 58.6726 46.1682 59.5498 46.7239Z" fill="#FF3C1F"/>
<path d="M76.3424 33.4677C77.4415 33.9956 78.2452 33.6819 80.0189 32.0398C80.7995 31.3227 82.7559 29.6201 84.3748 28.2602C86.0001 26.8925 87.4636 25.4965 87.6339 25.1475C88.6638 23.0603 86.6165 21.136 84.5153 22.2148C83.7966 22.5857 77.9144 27.6296 75.9911 29.5319C75.0164 30.4987 74.8402 31.1741 75.2617 32.3588C75.4547 32.8767 75.7596 33.196 76.3424 33.4677Z" fill="#FF3C1F"/>
<path d="M92.2977 20.55C92.6936 20.6798 93.2172 20.7035 93.4977 20.605C93.9322 20.4488 102.52 15.769 103.989 14.8938C105.416 14.0371 105.373 11.8684 103.911 11.1716C103.055 10.7659 102.669 10.896 100.23 12.4768C99.144 13.1788 96.7915 14.5924 94.9631 15.6458C91.2098 17.8051 90.8411 18.2015 91.3046 19.5271C91.5278 20.1364 91.7594 20.3683 92.2977 20.55Z" fill="#FF3C1F"/>
</g>
</svg>
