<svg width="138" height="138" viewBox="0 0 138 138" fill="none" xmlns="http://www.w3.org/2000/svg">
<g clip-path="url(#clip0_78_2700)">
<path d="M5.60746 87.1844C5.88631 88.4375 5.53861 89.83 6.04771 90.9813C6.28895 91.8381 7.28518 92.2234 8.04016 91.7519C8.62911 91.2162 8.61812 90.2576 8.70895 89.5292C8.73556 88.9669 8.46771 88.6724 7.96959 88.4797C7.83017 87.8532 7.69075 87.2266 7.32107 86.7019C6.91379 85.7809 5.2644 86.0973 5.60746 87.1844Z" fill="#0054C3"/>
<path d="M12.8353 97.6145C13.2802 98.9318 13.8911 100.313 14.5662 101.529C15.2414 102.744 16.1844 104.254 17.3466 104.704C18.0108 104.961 18.664 104.259 18.2943 103.734C17.7852 102.583 16.5211 101.903 15.7817 100.854C14.8763 99.74 14.3672 98.5887 13.7563 97.2072C13.3866 96.6825 12.6317 97.154 12.8353 97.6145Z" fill="#0054C3"/>
<path d="M26.2372 107.379C24.7804 107.198 23.2219 106.786 21.7275 106.208C21.2294 106.015 20.9083 106.845 21.4064 107.038C23.3989 107.808 26.9985 110.346 29.0974 108.867C29.5579 108.664 29.2524 107.973 28.9204 107.844C28.0902 107.523 27.1316 107.534 26.2372 107.379Z" fill="#0054C3"/>
<path d="M36.1431 100.522C35.4477 103.307 35.0467 105.824 32.7552 107.801C32.4607 108.068 32.7285 108.363 33.023 108.095C35.8127 106.311 37.7346 103.809 37.3319 100.409C37.2567 99.6162 36.1697 99.9592 36.1431 100.522Z" fill="#0054C3"/>
<path d="M32.1325 85.2273C32.1169 86.7483 32.7278 88.1298 33.1085 89.6132C33.591 91.3268 34.1377 92.8743 34.8504 94.4861C35.054 94.9466 35.9108 94.7054 35.7714 94.0788C35.1605 92.6973 34.9459 91.2782 34.5652 89.7948C34.1845 88.3115 34.0983 86.5603 33.4874 85.1787C33.182 84.488 32.0573 84.4347 32.1325 85.2273Z" fill="#0054C3"/>
<path d="M24.4804 69.4792C24.4867 72.9174 26.2177 76.8317 27.7074 79.8892C28.0771 80.414 28.7678 80.1085 28.6284 79.4819C27.9799 77.7041 27.3956 75.7603 26.9773 73.8806C26.5966 72.3973 26.4462 70.8121 25.8353 69.4306C25.3638 68.6756 24.507 68.9168 24.4804 69.4792Z" fill="#0054C3"/>
<path d="M24.0521 52.3258C22.7302 55.2503 22.7365 58.6884 22.7053 61.7304C22.6787 62.2927 23.407 62.3835 23.5997 61.8854C23.8612 58.7417 24.6208 55.7906 25.5465 52.9037C25.7015 52.0093 24.3732 51.4956 24.0521 52.3258Z" fill="#0054C3"/>
<path d="M33.834 43.3206C32.5167 43.7655 31.0709 44.5425 29.8554 45.2176C28.8702 45.7909 29.4811 47.1725 30.5682 46.8294C31.7195 46.32 33.0367 45.8754 34.3541 45.4305C35.6715 44.9854 37.4868 44.7334 38.7665 43.8922C39.2912 43.5226 39.05 42.6658 38.3216 42.5749C36.9933 42.0612 35.2155 42.7097 33.834 43.3206Z" fill="#0054C3"/>
<path d="M44.0205 43.6335C43.3563 43.3766 42.9069 44.5386 43.5711 44.7955C45.1672 45.6037 46.5331 46.5137 48.065 47.4882C49.4309 48.3982 50.6041 49.8064 52.2645 50.4486C53.0947 50.7697 53.8763 49.7358 53.1746 49.0824C50.93 46.4964 47.0734 44.6233 44.0205 43.6335Z" fill="#0054C3"/>
<path d="M58.0286 57.259C58.8696 58.539 59.7109 59.8185 60.552 61.0984C61.4575 62.2118 62.1702 63.8236 63.4342 64.5037C64.0983 64.7605 64.5213 64.1606 64.5479 63.5983C64.4993 62.2434 63.1976 61.1673 62.394 60.2839C61.3868 58.9399 60.1493 57.6978 59.1421 56.3539C58.4405 55.7005 57.5571 56.5041 58.0286 57.259Z" fill="#0054C3"/>
<path d="M66.9387 70.2485C67.6891 72.2566 68.5679 73.9326 69.6769 75.5068C70.7859 77.081 72.4307 79.2441 74.3855 79.6184C75.2799 79.7734 75.7671 79.0075 75.2956 78.2525C74.4544 76.9728 72.8582 76.1646 71.7226 75.1527C69.987 73.718 68.6101 71.8493 67.4635 69.8788C67.4259 69.4825 66.7351 69.788 66.9387 70.2485Z" fill="#0054C3"/>
<path d="M79.5502 86.0062C80.3005 88.0143 81.3453 89.7545 82.7864 91.4571C84.2275 93.1598 86.1028 95.2212 88.2237 95.6597C88.9521 95.7505 89.3374 94.7543 88.9035 94.3956C87.7942 92.8213 85.8017 92.0507 84.3982 90.7444C82.8289 89.374 81.4518 87.5052 80.3051 85.5347C80.1015 85.0742 79.2447 85.3155 79.5502 86.0062Z" fill="#0054C3"/>
<path d="M104.889 95.9974C103.776 96.9029 102.892 97.7065 101.575 98.1514C99.9255 98.4678 97.8046 98.0293 96.3103 97.4513C95.8119 97.2586 95.4908 98.0887 95.9892 98.2815C99.0154 99.8337 104.751 101.289 106.255 96.9075C106.346 96.1792 105.478 95.4618 104.889 95.9974Z" fill="#0054C3"/>
<path d="M117.508 80.6454C116.635 82.4073 116.261 84.3623 115.554 86.1884C114.489 88.4491 112.99 90.3506 110.956 91.6633C110.661 91.9313 111.095 92.29 111.325 92.188C115.33 89.7287 119.517 85.8124 119.361 80.789C119.183 79.7665 117.829 79.8152 117.508 80.6454Z" fill="#0054C3"/>
<path d="M111.676 62.1652C111.89 63.5843 112.501 64.9658 112.818 66.6152C113.032 68.0344 112.851 69.4914 112.503 70.8836C112.348 71.7783 113.51 72.2278 113.831 71.3973C115.153 68.4729 115.634 64.2687 113.454 61.5166C112.88 60.5311 111.664 61.2064 111.676 62.1652Z" fill="#0054C3"/>
<path d="M104.346 51.5045C105.67 54.4978 107.095 57.7211 109.174 60.2432C109.812 61.0625 110.759 60.0928 110.288 59.3378C108.669 56.6123 108.165 52.9815 105.856 50.5612C105.09 50.0745 103.939 50.5836 104.346 51.5045Z" fill="#0054C3"/>
<path d="M109.329 39.1157C108.14 39.2285 106.962 40.3 106.078 41.1035C105.131 42.0731 104.451 43.3373 103.938 44.6656C103.617 45.4958 104.778 45.9452 105.1 45.115C105.549 43.9528 106.267 43.0851 107.15 42.2815C107.969 41.6437 109.057 41.3007 109.875 40.6633C110.63 40.1917 110.121 39.0408 109.329 39.1157Z" fill="#0054C3"/>
<path d="M119.657 31.6582C114.94 32.5057 110.045 32.3304 105.289 32.7816C103.077 33.0715 103.71 36.3702 105.858 36.2464C109.756 36.0363 113.757 36.0567 117.682 35.2844C117.27 36.8429 116.858 38.4015 116.382 40.1261C116.291 40.8545 115.842 42.0167 116.314 42.7718L116.415 43.0017C116.415 43.0017 116.351 43.1677 116.517 43.2319C116.721 43.6925 117.513 43.6173 117.642 43.2852C117.872 43.1834 117.936 43.017 118.065 42.6852C118.552 41.9189 118.707 41.0249 119.092 40.0286C119.761 37.8059 120.365 35.7492 121.366 33.655C121.918 32.7233 120.846 31.5454 119.657 31.6582Z" fill="#0054C3"/>
</g>
<defs>
<clipPath id="clip0_78_2700">
<rect width="106.195" height="106.195" fill="white" transform="translate(0 99.0449) rotate(-68.8553)"/>
</clipPath>
</defs>
</svg>
