<svg width="36" height="36" viewBox="0 0 36 36" fill="none" xmlns="http://www.w3.org/2000/svg">
<path opacity="0.2" d="M31.5 13.6196H4.5C3.87868 13.6196 3.375 13.9804 3.375 14.4255V27.3196C3.375 27.7647 3.87868 28.1255 4.5 28.1255H31.5C32.1213 28.1255 32.625 27.7647 32.625 27.3196V14.4255C32.625 13.9804 32.1213 13.6196 31.5 13.6196Z" fill="#7C4EFF"/>
<path d="M23.623 22.625C23.0708 22.625 22.623 23.0727 22.623 23.625C22.623 24.1773 23.0708 24.625 23.623 24.625H28.123C28.6753 24.625 29.123 24.1773 29.123 23.625C29.123 23.0727 28.6753 22.625 28.123 22.625H23.623Z" fill="#7C4EFF"/>
<path d="M15.873 23.625C15.873 23.0727 16.3208 22.625 16.873 22.625H19.123C19.6753 22.625 20.123 23.0727 20.123 23.625C20.123 24.1773 19.6753 24.625 19.123 24.625H16.873C16.3208 24.625 15.873 24.1773 15.873 23.625Z" fill="#7C4EFF"/>
<path fill-rule="evenodd" clip-rule="evenodd" d="M2.375 13.6826V27.0005C2.375 28.1741 3.32639 29.1255 4.5 29.1255H31.5C32.6736 29.1255 33.625 28.1741 33.625 27.0005V9.00049C33.625 7.82688 32.6736 6.87549 31.5 6.87549H4.5C3.32639 6.87549 2.375 7.82688 2.375 9.00049V13.5566C2.3737 13.5775 2.37305 13.5985 2.37305 13.6196C2.37305 13.6408 2.3737 13.6618 2.375 13.6826ZM4.375 9.00049C4.375 8.93145 4.43096 8.87549 4.5 8.87549H31.5C31.569 8.87549 31.625 8.93145 31.625 9.00049V12.6196H4.375V9.00049ZM4.375 14.6196H31.625V27.0005C31.625 27.0695 31.569 27.1255 31.5 27.1255H4.5C4.43096 27.1255 4.375 27.0695 4.375 27.0005V14.6196Z" fill="#7C4EFF"/>
</svg>
