<svg width="36" height="36" viewBox="0 0 36 36" fill="none" xmlns="http://www.w3.org/2000/svg">
<path opacity="0.2" d="M7.03125 5.90625V27.2812L9.28125 29.5312H30.6562V5.90625H7.03125Z" fill="#7C4EFF"/>
<path d="M8.06786 6.94286C8.0913 6.91942 8.1231 6.90625 8.15625 6.90625H29.5312C29.5644 6.90625 29.5962 6.91942 29.6196 6.94286C29.6431 6.9663 29.6562 6.9981 29.6562 7.03125V28.4062C29.6562 28.4394 29.6431 28.4712 29.6196 28.4946C29.5962 28.5181 29.5644 28.5312 29.5312 28.5312H19.9125C19.3602 28.5312 18.9125 28.979 18.9125 29.5312C18.9125 30.0835 19.3602 30.5312 19.9125 30.5312H29.5312C30.0948 30.5312 30.6353 30.3074 31.0339 29.9089C31.4324 29.5103 31.6562 28.9698 31.6562 28.4062V7.03125C31.6562 6.46767 31.4324 5.92716 31.0339 5.52865C30.6353 5.13013 30.0948 4.90625 29.5312 4.90625H8.15625C7.59266 4.90625 7.05216 5.13013 6.65365 5.52865C6.25513 5.92716 6.03125 6.46766 6.03125 7.03125V19.8703C6.03125 20.4226 6.47897 20.8703 7.03125 20.8703C7.58353 20.8703 8.03125 20.4226 8.03125 19.8703V7.03125C8.03125 6.9981 8.04442 6.9663 8.06786 6.94286Z" fill="#7C4EFF"/>
<path d="M19.5509 21.8009C19.9414 21.4103 19.9414 20.7772 19.5509 20.3866C19.1603 19.9961 18.5272 19.9961 18.1366 20.3866L9.84375 28.6795L6.05086 24.8866C5.66033 24.4961 5.02717 24.4961 4.63664 24.8866C4.24612 25.2772 4.24612 25.9103 4.63664 26.3009L9.13664 30.8009C9.52717 31.1914 10.1603 31.1914 10.5509 30.8009L19.5509 21.8009Z" fill="#7C4EFF"/>
</svg>
