<svg width="36" height="36" viewBox="0 0 36 36" fill="none" xmlns="http://www.w3.org/2000/svg">
<g opacity="0.2">
<path d="M22.5 15.75C22.5 18.2353 20.4853 20.25 18 20.25C15.5147 20.25 13.5 18.2353 13.5 15.75C13.5 13.2647 15.5147 11.25 18 11.25C20.4853 11.25 22.5 13.2647 22.5 15.75Z" fill="#7C4EFF"/>
<path d="M13.643 21.7413C12.3274 22.7122 11.2523 24.1044 10.5332 25.7683H25.4676C24.7484 24.1044 23.6733 22.7122 22.3577 21.7413C21.0422 20.7703 19.5358 20.2573 18.0004 20.2573C16.465 20.2573 14.9586 20.7703 13.643 21.7413Z" fill="#7C4EFF"/>
</g>
<path d="M25.3125 4.625C24.7602 4.625 24.3125 5.07272 24.3125 5.625C24.3125 6.17728 24.7602 6.625 25.3125 6.625H29.25C29.2832 6.625 29.3149 6.63817 29.3384 6.66161C29.3618 6.68505 29.375 6.71685 29.375 6.75V10.6875C29.375 11.2398 29.8227 11.6875 30.375 11.6875C30.9273 11.6875 31.375 11.2398 31.375 10.6875V6.75C31.375 6.18642 31.1511 5.64591 30.7526 5.2474C30.3541 4.84888 29.8136 4.625 29.25 4.625H25.3125Z" fill="#7C4EFF"/>
<path d="M31.375 25.3125C31.375 24.7602 30.9273 24.3125 30.375 24.3125C29.8227 24.3125 29.375 24.7602 29.375 25.3125V29.25C29.375 29.2832 29.3618 29.3149 29.3384 29.3384C29.3149 29.3618 29.2832 29.375 29.25 29.375H25.3125C24.7602 29.375 24.3125 29.8227 24.3125 30.375C24.3125 30.9273 24.7602 31.375 25.3125 31.375H29.25C29.8136 31.375 30.3541 31.1511 30.7526 30.7526C31.1511 30.3541 31.375 29.8136 31.375 29.25V25.3125Z" fill="#7C4EFF"/>
<path d="M5.625 24.3125C6.17728 24.3125 6.625 24.7602 6.625 25.3125V29.25C6.625 29.2832 6.63817 29.3149 6.66161 29.3384C6.68505 29.3618 6.71685 29.375 6.75 29.375H10.6875C11.2398 29.375 11.6875 29.8227 11.6875 30.375C11.6875 30.9273 11.2398 31.375 10.6875 31.375H6.75C6.18642 31.375 5.64591 31.1511 5.2474 30.7526C4.84888 30.3541 4.625 29.8136 4.625 29.25V25.3125C4.625 24.7602 5.07272 24.3125 5.625 24.3125Z" fill="#7C4EFF"/>
<path d="M6.75 4.625C6.18641 4.625 5.64591 4.84888 5.2474 5.2474C4.84888 5.64591 4.625 6.18641 4.625 6.75V10.6875C4.625 11.2398 5.07272 11.6875 5.625 11.6875C6.17728 11.6875 6.625 11.2398 6.625 10.6875V6.75C6.625 6.71685 6.63817 6.68505 6.66161 6.66161C6.68505 6.63817 6.71685 6.625 6.75 6.625H10.6875C11.2398 6.625 11.6875 6.17728 11.6875 5.625C11.6875 5.07272 11.2398 4.625 10.6875 4.625H6.75Z" fill="#7C4EFF"/>
<path fill-rule="evenodd" clip-rule="evenodd" d="M12.5 15.75C12.5 12.7124 14.9624 10.25 18 10.25C21.0376 10.25 23.5 12.7124 23.5 15.75C23.5 17.4338 22.7434 18.9409 21.5516 19.9497C22.0071 20.1344 22.4492 20.355 22.8735 20.6103C24.3448 21.4956 25.5471 22.7649 26.3513 24.282C26.61 24.7699 26.4241 25.3752 25.9362 25.6339C25.4482 25.8926 24.8429 25.7067 24.5843 25.2187C23.9502 24.0227 23.0023 23.022 21.8424 22.324C20.6824 21.6261 19.3543 21.2573 18.0006 21.2573C16.6469 21.2573 15.3187 21.6261 14.1588 22.324C12.9989 23.022 12.051 24.0227 11.4169 25.2187C11.1583 25.7067 10.553 25.8926 10.065 25.6339C9.57706 25.3752 9.3912 24.7699 9.64988 24.282C10.4541 22.7649 11.6564 21.4956 13.1277 20.6103C13.5518 20.3551 13.9936 20.1347 14.4488 19.9501C13.2568 18.9412 12.5 17.434 12.5 15.75ZM18 12.25C16.067 12.25 14.5 13.817 14.5 15.75C14.5 17.683 16.067 19.25 18 19.25C19.933 19.25 21.5 17.683 21.5 15.75C21.5 13.817 19.933 12.25 18 12.25Z" fill="#7C4EFF"/>
</svg>
