<svg width="36" height="36" viewBox="0 0 36 36" fill="none" xmlns="http://www.w3.org/2000/svg">
<path opacity="0.2" d="M23.0396 2.41748L32.3621 9.37944L23.1288 16.3192L23.0396 12.9525L4.32278 12.9524C4.14109 12.9524 3.96683 12.8802 3.83835 12.7517C3.70987 12.6232 3.6377 12.449 3.6377 12.2673V6.62341C3.6377 6.44172 3.70987 6.26746 3.83835 6.13898C3.96683 6.01051 4.14109 5.93833 4.32278 5.93833L23.0396 5.93844V2.41748Z" fill="#7C4EFF"/>
<path fill-rule="evenodd" clip-rule="evenodd" d="M24.4887 1.65474C23.5091 0.854379 22.0396 1.55135 22.0396 2.81632V4.9381L4.32279 4.93799C3.87587 4.93799 3.44726 5.11553 3.13125 5.43154C2.81523 5.74756 2.6377 6.17617 2.6377 6.62308V12.2669C2.6377 12.7139 2.81523 13.1425 3.13125 13.4585C3.44726 13.7745 3.87587 13.952 4.32278 13.952L22.0396 13.9521V15.9458C22.0396 17.211 23.5095 17.9079 24.489 17.1071L32.5214 10.5405C33.2557 9.94025 33.2555 8.81772 32.5211 8.21764L24.4887 1.65474ZM24.0396 5.43811V3.87052L30.7819 9.37933L24.0396 14.8912V13.4521C24.0396 12.6237 23.368 11.9521 22.5396 11.9521L4.6377 11.952V6.938L22.5396 6.93811C23.368 6.93811 24.0396 6.26654 24.0396 5.43811Z" fill="#7C4EFF"/>
<path fill-rule="evenodd" clip-rule="evenodd" d="M11.5111 18.893C12.4907 18.0927 13.9602 18.7896 13.9602 20.0546V22.1764L31.6772 22.1763C32.1241 22.1763 32.5527 22.3539 32.8688 22.6699C33.1848 22.9859 33.3623 23.4145 33.3623 23.8614V29.5054C33.3623 29.9523 33.1848 30.3809 32.8688 30.6969C32.5527 31.0129 32.1241 31.1905 31.6772 31.1905L13.9602 31.1906V33.1843C13.9602 34.4495 12.4903 35.1464 11.5108 34.3456L3.47824 27.7789C2.74396 27.1786 2.74412 26.0561 3.47856 25.456L11.5111 18.893ZM11.9602 22.6764V21.1088L5.21774 26.6177L11.9602 32.1297V30.6906C11.9602 29.8621 12.6317 29.1906 13.4601 29.1906L31.3623 29.1905V24.1763L13.4602 24.1764C12.6317 24.1764 11.9602 23.5049 11.9602 22.6764Z" fill="#7C4EFF"/>
</svg>
