<svg width="36" height="36" viewBox="0 0 36 36" fill="none" xmlns="http://www.w3.org/2000/svg">
<path opacity="0.2" d="M5.625 15.1875H30.375V18.5625C30.375 19.1592 30.1379 19.7315 29.716 20.1535C29.294 20.5754 28.7217 20.8125 28.125 20.8125H21.5437C21.3832 20.813 21.2247 20.8478 21.0787 20.9146C20.9328 20.9815 20.8028 21.0788 20.6976 21.2C20.5924 21.3212 20.5143 21.4635 20.4686 21.6174C20.4229 21.7713 20.4107 21.9332 20.4328 22.0922L21.375 28.6875C21.375 29.5826 21.0194 30.4411 20.3865 31.074C19.7536 31.7069 18.8951 32.0625 18 32.0625C17.1049 32.0625 16.2464 31.7069 15.6135 31.074C14.9806 30.4411 14.625 29.5826 14.625 28.6875L15.5672 22.0922C15.5893 21.9332 15.5771 21.7713 15.5314 21.6174C15.4857 21.4635 15.4076 21.3212 15.3024 21.2C15.1972 21.0788 15.0672 20.9815 14.9213 20.9146C14.7753 20.8478 14.6168 20.813 14.4563 20.8125H7.875C7.27826 20.8125 6.70597 20.5754 6.28401 20.1535C5.86205 19.7315 5.625 19.1592 5.625 18.5625V15.1875Z" fill="#7C4EFF"/>
<path fill-rule="evenodd" clip-rule="evenodd" d="M4.625 8.4375V18.5625C4.625 19.4245 4.96741 20.2511 5.5769 20.8606C6.1864 21.4701 7.01305 21.8125 7.875 21.8125H14.4539C14.4715 21.8126 14.4889 21.8165 14.5049 21.8238C14.5211 21.8313 14.5356 21.8421 14.5473 21.8555C14.559 21.869 14.5676 21.8848 14.5727 21.9019C14.5777 21.9187 14.5791 21.9363 14.5768 21.9537L14.5767 21.9547L13.6351 28.5461C13.6284 28.5929 13.625 28.6402 13.625 28.6875C13.625 29.8478 14.0859 30.9606 14.9064 31.7811C15.7269 32.6016 16.8397 33.0625 18 33.0625C19.1603 33.0625 20.2731 32.6016 21.0936 31.7811C21.9141 30.9606 22.375 29.8478 22.375 28.6875C22.375 28.6402 22.3716 28.5929 22.365 28.5461L21.4233 21.9547L21.4232 21.9537C21.4209 21.9363 21.4223 21.9187 21.4273 21.9019C21.4324 21.8848 21.441 21.869 21.4527 21.8555C21.4644 21.8421 21.4789 21.8313 21.4951 21.8238C21.5111 21.8165 21.5285 21.8126 21.5461 21.8125H28.125C28.987 21.8125 29.8136 21.4701 30.4231 20.8606C31.0326 20.2511 31.375 19.4245 31.375 18.5625V3.9375C31.375 3.38522 30.9273 2.9375 30.375 2.9375H10.125C8.66631 2.9375 7.26736 3.51696 6.23591 4.54841C5.20446 5.57986 4.625 6.97881 4.625 8.4375ZM10.125 4.9375C9.19674 4.9375 8.3065 5.30625 7.65013 5.96263C6.99375 6.619 6.625 7.50924 6.625 8.4375V14.1875H29.375V4.9375H26.875V11.6875C26.875 12.2398 26.4273 12.6875 25.875 12.6875C25.3227 12.6875 24.875 12.2398 24.875 11.6875V4.9375H10.125ZM29.375 18.5625V16.1875H6.625V18.5625C6.625 18.894 6.7567 19.212 6.99112 19.4464C7.22554 19.6808 7.54348 19.8125 7.875 19.8125H14.4563V20.8125L14.4593 19.8125C14.7625 19.8134 15.062 19.8792 15.3376 20.0054C15.6133 20.1317 15.8588 20.3155 16.0575 20.5444C16.2563 20.7734 16.4038 21.0422 16.4901 21.3329C16.5763 21.6236 16.5994 21.9294 16.5577 22.2297L16.5571 22.2336L15.6259 28.7524C15.6424 29.3587 15.8905 29.9368 16.3206 30.3669C16.766 30.8123 17.3701 31.0625 18 31.0625C18.6299 31.0625 19.234 30.8123 19.6794 30.3669C20.1095 29.9368 20.3576 29.3587 20.3741 28.7524L19.4429 22.2336L19.4423 22.2297C19.4006 21.9294 19.4237 21.6236 19.5099 21.3329C19.5962 21.0422 19.7437 20.7734 19.9425 20.5444C20.1412 20.3155 20.3867 20.1317 20.6624 20.0054C20.938 19.8792 21.2375 19.8134 21.5407 19.8125L21.5438 19.8125L28.125 19.8125C28.4565 19.8125 28.7745 19.6808 29.0089 19.4464C29.2433 19.212 29.375 18.894 29.375 18.5625Z" fill="#7C4EFF"/>
</svg>
