<svg width="36" height="36" viewBox="0 0 36 36" fill="none" xmlns="http://www.w3.org/2000/svg">
<path opacity="0.2" d="M5.0625 27C5.0625 27.5967 5.29955 28.169 5.72151 28.591C6.14347 29.0129 6.71576 29.25 7.3125 29.25H29.8125C30.1109 29.25 30.397 29.1315 30.608 28.9205C30.819 28.7095 30.9375 28.4234 30.9375 28.125V12.375C30.9375 12.0766 30.819 11.7905 30.608 11.5795C30.397 11.3685 30.1109 11.25 29.8125 11.25H7.3125C6.71576 11.25 6.14347 11.0129 5.72151 10.591C5.29955 10.169 5.0625 9.59674 5.0625 9V27Z" fill="#7C4EFF"/>
<path d="M26.4375 20.25C26.4375 21.182 25.682 21.9375 24.75 21.9375C23.818 21.9375 23.0625 21.182 23.0625 20.25C23.0625 19.318 23.818 18.5625 24.75 18.5625C25.682 18.5625 26.4375 19.318 26.4375 20.25Z" fill="#7C4EFF"/>
<path fill-rule="evenodd" clip-rule="evenodd" d="M6.42862 8.11612C6.66304 7.8817 6.98098 7.75 7.3125 7.75H26.4375C26.9898 7.75 27.4375 7.30228 27.4375 6.75C27.4375 6.19772 26.9898 5.75 26.4375 5.75H7.3125C6.45055 5.75 5.6239 6.09241 5.0144 6.7019C4.40491 7.3114 4.0625 8.13805 4.0625 9V27C4.0625 27.862 4.40491 28.6886 5.0144 29.2981C5.6239 29.9076 6.45055 30.25 7.3125 30.25H29.8125C30.3761 30.25 30.9166 30.0261 31.3151 29.6276C31.7136 29.2291 31.9375 28.6886 31.9375 28.125V12.375C31.9375 11.8114 31.7136 11.2709 31.3151 10.8724C30.9166 10.4739 30.3761 10.25 29.8125 10.25H7.3125C6.98098 10.25 6.66304 10.1183 6.42862 9.88388C6.1942 9.64946 6.0625 9.33152 6.0625 9C6.0625 8.66848 6.1942 8.35054 6.42862 8.11612ZM6.0625 27V12C6.45485 12.1635 6.87921 12.25 7.3125 12.25H29.8125C29.8457 12.25 29.8774 12.2632 29.9009 12.2866C29.9243 12.3101 29.9375 12.3418 29.9375 12.375V28.125C29.9375 28.1582 29.9243 28.1899 29.9009 28.2134C29.8774 28.2368 29.8457 28.25 29.8125 28.25H7.3125C6.98098 28.25 6.66304 28.1183 6.42862 27.8839C6.1942 27.6495 6.0625 27.3315 6.0625 27Z" fill="#7C4EFF"/>
</svg>
