<svg width="165" height="162" viewBox="0 0 165 162" fill="none" xmlns="http://www.w3.org/2000/svg">
<path d="M165 80.9951C165 103.36 155.944 123.616 141.308 138.274C141.182 138.4 141.056 138.527 140.929 138.643C126.322 153.087 106.26 162 84.1209 162H80.8791C36.2127 162 0 125.735 0 80.9951C0 58.6299 9.05556 38.3835 23.692 23.726C23.76 23.658 23.8377 23.59 23.9056 23.5122C38.5227 8.9811 58.6527 0 80.8791 0H84.1209C128.787 0 165 36.2646 165 80.9951Z" fill="#D2D5EF"/>
<path d="M120.45 80.9951C120.45 91.2884 116.286 100.6 109.55 107.346L109.375 107.52C109.366 107.53 109.346 107.55 109.337 107.559C102.62 114.179 93.4092 118.261 83.2471 118.261H81.7524C61.205 118.261 44.5498 101.582 44.5498 80.9951C44.5498 70.7116 48.7136 61.4 55.4495 54.6544L55.5465 54.5573C62.2727 47.87 71.5321 43.7391 81.7524 43.7391H83.2471C103.794 43.7391 120.45 60.4183 120.45 80.9951Z" fill="#EBEBFA"/>
<path d="M165 80.9951C165 103.36 155.945 123.616 141.308 138.274C141.182 138.4 141.056 138.527 140.93 138.643L23.9058 23.5122C38.5228 8.9811 58.6528 0 80.8793 0H84.1211C128.788 0 165 36.2646 165 80.9951Z" fill="#454994"/>
<path d="M120.45 80.9951C120.45 91.2884 116.286 100.6 109.55 107.346L109.375 107.52C109.366 107.53 109.346 107.55 109.337 107.559L55.5078 54.5961L55.5466 54.5573C62.2728 47.87 71.5322 43.7391 81.7525 43.7391H83.2472C103.795 43.7391 120.45 60.4183 120.45 80.9951Z" fill="#D2D5EF"/>
</svg>
