<svg width="16" height="16" viewBox="0 0 16 16" fill="none" xmlns="http://www.w3.org/2000/svg">
<path d="M9.875 14.25V10.5C9.875 10.3343 9.80915 10.1753 9.69194 10.0581C9.57473 9.94089 9.41576 9.87505 9.25 9.87505H6.75C6.58424 9.87505 6.42527 9.94089 6.30806 10.0581C6.19085 10.1753 6.125 10.3343 6.125 10.5V14.25C6.125 14.4158 6.05915 14.5748 5.94194 14.692C5.82473 14.8092 5.66576 14.875 5.5 14.875H1.75C1.58424 14.875 1.42527 14.8092 1.30806 14.692C1.19085 14.5748 1.125 14.4158 1.125 14.25V7.02348C1.1264 6.93699 1.14509 6.85165 1.17998 6.77248C1.21486 6.69332 1.26523 6.62194 1.32812 6.56255L7.57812 0.882858C7.69334 0.777451 7.84384 0.718994 8 0.718994C8.15616 0.718994 8.30666 0.777451 8.42187 0.882858L14.6719 6.56255C14.7348 6.62194 14.7851 6.69332 14.82 6.77248C14.8549 6.85165 14.8736 6.93699 14.875 7.02348V14.25C14.875 14.4158 14.8092 14.5748 14.6919 14.692C14.5747 14.8092 14.4158 14.875 14.25 14.875H10.5C10.3342 14.875 10.1753 14.8092 10.0581 14.692C9.94085 14.5748 9.875 14.4158 9.875 14.25Z" stroke="#1A73EC" stroke-linecap="round" stroke-linejoin="round"/>
</svg>
