<svg width="17" height="20" viewBox="0 0 17 20" fill="none" xmlns="http://www.w3.org/2000/svg">
<path d="M15.6059 9.67232C14.0055 9.31545 12.5432 8.4734 11.4042 7.25289C10.2653 6.03238 9.50107 4.48834 9.20833 2.81646C9.05886 1.85643 8.82168 0.913356 8.5 0C8.17681 0.91501 7.93898 1.86012 7.78979 2.82231C7.49705 4.49933 6.72993 6.04789 5.58622 7.27062C4.4425 8.49335 2.97398 9.33487 1.36782 9.68793C0.554266 9.86932 0 10 0 10C0.579273 10.234 1.17231 10.4294 1.77553 10.5851C4.89821 11.3985 7.22425 14.096 7.82361 17.3747C7.97116 18.2694 8.19758 19.1482 8.5 20C8.80169 19.1481 9.02748 18.2694 9.17451 17.3747C9.76824 14.0901 12.1018 11.3985 15.2226 10.5851C15.8263 10.4291 16.42 10.2337 17 10C17 10 16.4326 9.85956 15.6059 9.67232Z" fill="#DEA81C"/>
</svg>
