<svg width="38" height="39" viewBox="0 0 38 39" fill="none" xmlns="http://www.w3.org/2000/svg">
<path d="M13.3966 8.76371L9.84082 2.72968L11.8522 1.36484L12.6064 2.22684L16.3777 0H21.6934L25.4646 2.44234L26.183 1.36484L28.0506 2.72968L24.4949 8.76371L22.5195 7.4707L22.9505 6.57278L18.9637 4.45369L14.9051 6.57278L15.3361 7.4707L13.3966 8.76371Z" fill="#222224"/>
<path d="M12.4631 9.19483L8.90737 3.26855L7.0397 4.31014L7.54253 5.24398L0.897921 8.94341V17.2043H0V19.5389H7.0397V17.2043H6.03403V11.8886L9.94896 9.66175L10.7032 10.4878L12.4631 9.19483Z" fill="#222224"/>
<path d="M25.5369 9.19483L29.0926 3.26855L30.9603 4.31014L30.4575 5.24398L37.1021 8.94341V17.2043H38V19.5389H30.9603V17.2043H31.966V11.8886L28.051 9.66175L27.2968 10.4878L25.5369 9.19483Z" fill="#222224"/>
<path d="M13.3966 29.9907L9.84082 36.0247L11.8522 37.3896L12.6064 36.5276L16.3777 38.7544H21.6934L25.4646 36.3121L26.183 37.3896L28.0506 36.0247L24.4949 29.9907L22.5195 31.2837L22.9505 32.1816L18.9637 34.3007L14.9051 32.1816L15.3361 31.2837L13.3966 29.9907Z" fill="#222224"/>
<path d="M12.4631 29.7749L8.90737 35.7012L7.0397 34.6596L7.54253 33.7257L0.897921 30.0263V22.9866H0V20.652H7.0397V22.9866H6.03403V27.0811L9.94896 29.308L10.7032 28.4819L12.4631 29.7749Z" fill="#222224"/>
<path d="M25.5369 29.7031L29.0926 35.6294L30.9603 34.5878L30.4575 33.654L37.1021 29.9545V22.9867H38V20.6521H30.9603V22.9867H31.966V27.0094L28.051 29.2362L27.2968 28.4101L25.5369 29.7031Z" fill="#222224"/>
<path fill-rule="evenodd" clip-rule="evenodd" d="M23.5111 14.3403L18.9637 9.7334L14.6221 14.1319C12.7494 15.4744 11.5293 17.6693 11.5293 20.1493C11.5293 24.2356 14.8419 27.5481 18.9282 27.5481C23.0144 27.5481 26.327 24.2356 26.327 20.1493C26.327 17.7937 25.2263 15.6953 23.5111 14.3403Z" fill="url(#paint0_linear_206_1611)"/>
<defs>
<linearGradient id="paint0_linear_206_1611" x1="18.9282" y1="9.7334" x2="18.9282" y2="27.5481" gradientUnits="userSpaceOnUse">
<stop stop-color="#7EA7FF"/>
<stop offset="1" stop-color="#3D70E0"/>
</linearGradient>
</defs>
</svg>
