<svg width="164" height="44" viewBox="0 0 164 44" fill="none" xmlns="http://www.w3.org/2000/svg">
<path d="M62.4398 21.7637H59.9265L54.2408 13.1938V21.7637H51.7275V9.26855H54.2408L59.9265 17.8589V9.26855H62.4398V21.7637Z" fill="#5D53A5"/>
<path d="M73.6465 17.5711H66.3952C66.457 18.2904 66.7042 18.8453 67.1574 19.2563C67.59 19.6673 68.1462 19.8728 68.7848 19.8728C69.7118 19.8728 70.3711 19.4824 70.7831 18.6809H73.4817C73.1933 19.6262 72.6371 20.4277 71.8337 21.0237C71.0303 21.6402 70.0209 21.9485 68.8466 21.9485C67.899 21.9485 67.0338 21.743 66.2716 21.3114C65.5094 20.8798 64.912 20.2838 64.4999 19.5235C64.0673 18.7425 63.8613 17.8588 63.8613 16.8518C63.8613 15.8243 64.0673 14.92 64.4793 14.1596C64.8913 13.3787 65.4888 12.7827 66.2304 12.3717C66.9926 11.9606 67.8578 11.7551 68.826 11.7551C69.7736 11.7551 70.6183 11.9606 71.3599 12.3717C72.1015 12.7827 72.6783 13.3581 73.0903 14.098C73.5023 14.8378 73.7083 15.7009 73.7083 16.6668C73.7083 16.9546 73.6877 17.2834 73.6465 17.5711ZM71.1127 15.8859C71.0921 15.2488 70.8655 14.735 70.4123 14.3446C69.959 13.9541 69.4028 13.7691 68.7436 13.7691C68.1256 13.7691 67.59 13.9541 67.178 14.324C66.7454 14.6939 66.4982 15.2283 66.3952 15.8859H71.1127Z" fill="#5D53A5"/>
<path d="M88.1494 11.8579L85.2447 21.7636H82.5461L80.7332 14.8378L78.9204 21.7636H76.2011L73.2759 11.8579H75.8303L77.5814 19.4002L79.4766 11.8579H82.1341L83.9881 19.3796L85.7391 11.8579H88.1494Z" fill="#5D53A5"/>
<path d="M93.4437 12.2074C94 11.2415 94.7622 10.4811 95.7098 9.9468C96.678 9.41247 97.7492 9.12476 98.9441 9.12476C100.345 9.12476 101.56 9.47412 102.611 10.1934C103.662 10.9127 104.403 11.8992 104.815 13.1528H101.931C101.643 12.5568 101.251 12.1047 100.716 11.817C100.201 11.5292 99.6033 11.3648 98.9235 11.3648C98.2024 11.3648 97.5432 11.5292 96.987 11.8786C96.4102 12.228 95.9776 12.7007 95.6686 13.3172C95.3596 13.9337 95.1948 14.6736 95.1948 15.4956C95.1948 16.3177 95.3596 17.0369 95.6686 17.674C95.9776 18.2906 96.4308 18.7838 96.987 19.1126C97.5638 19.462 98.2024 19.6264 98.9235 19.6264C99.6033 19.6264 100.201 19.4825 100.716 19.1743C101.231 18.866 101.643 18.4139 101.931 17.8179H104.815C104.403 19.0921 103.662 20.0785 102.611 20.7978C101.56 21.5171 100.345 21.8665 98.9235 21.8665C97.7286 21.8665 96.6574 21.5993 95.6892 21.0444C94.721 20.5101 93.9587 19.7497 93.4231 18.7838C92.8669 17.8179 92.5991 16.7287 92.5991 15.4956C92.6197 14.2831 92.8875 13.1939 93.4437 12.2074Z" fill="#5D53A5"/>
<path d="M115.713 17.5713H108.462C108.523 18.2906 108.771 18.8455 109.224 19.2565C109.656 19.6676 110.213 19.8731 110.851 19.8731C111.778 19.8731 112.437 19.4826 112.849 18.6811H115.548C115.26 19.6265 114.704 20.428 113.9 21.0239C113.097 21.6405 112.087 21.9487 110.913 21.9487C109.965 21.9487 109.1 21.7432 108.338 21.3117C107.576 20.8801 106.978 20.2841 106.566 19.5237C106.134 18.7428 105.928 17.8591 105.928 16.8521C105.928 15.8245 106.134 14.9202 106.546 14.1599C106.958 13.3789 107.555 12.7829 108.297 12.3719C109.059 11.9609 109.924 11.7554 110.892 11.7554C111.84 11.7554 112.685 11.9609 113.426 12.3719C114.168 12.7829 114.745 13.3584 115.157 14.0982C115.569 14.838 115.775 15.7012 115.775 16.6671C115.795 16.9548 115.754 17.2836 115.713 17.5713ZM113.179 15.8862C113.158 15.2491 112.932 14.7353 112.479 14.3448C112.025 13.9543 111.469 13.7694 110.81 13.7694C110.192 13.7694 109.656 13.9543 109.244 14.3243C108.812 14.6942 108.565 15.2285 108.462 15.8862H113.179Z" fill="#5D53A5"/>
<path d="M124.735 12.8444C125.456 13.5843 125.827 14.6324 125.827 15.9682V21.7842H123.314V16.297C123.314 15.5161 123.108 14.8995 122.717 14.4885C122.325 14.0569 121.79 13.8514 121.11 13.8514C120.409 13.8514 119.874 14.0569 119.462 14.4885C119.07 14.9201 118.864 15.5161 118.864 16.297V21.7636H116.351V11.858H118.864V13.091C119.194 12.6595 119.627 12.3306 120.142 12.084C120.657 11.8374 121.233 11.7141 121.851 11.7141C123.046 11.7141 123.994 12.1046 124.735 12.8444Z" fill="#5D53A5"/>
<path d="M131.122 13.9131V18.7015C131.122 19.0303 131.204 19.2769 131.369 19.4208C131.534 19.5646 131.801 19.6468 132.193 19.6468H133.367V21.7636H131.781C129.659 21.7636 128.608 20.736 128.608 18.6809V13.9131H127.434V11.8579H128.608V9.41235H131.142V11.8579H133.367V13.9131H131.122Z" fill="#5D53A5"/>
<path d="M144.532 11.8579V21.7636H141.998V20.5099C141.669 20.9415 141.257 21.2703 140.742 21.5169C140.227 21.7636 139.65 21.8869 139.053 21.8869C138.27 21.8869 137.59 21.7225 136.992 21.3936C136.395 21.0648 135.921 20.5921 135.592 19.9551C135.241 19.318 135.077 18.5576 135.077 17.6739V11.8579H137.59V17.304C137.59 18.0849 137.796 18.7014 138.187 19.1125C138.579 19.544 139.114 19.7495 139.794 19.7495C140.495 19.7495 141.03 19.544 141.422 19.1125C141.813 18.6809 142.019 18.0849 142.019 17.304V11.8579H144.532Z" fill="#5D53A5"/>
<path d="M149.641 12.1662C150.156 11.8785 150.754 11.7141 151.434 11.7141V14.3447H150.774C149.992 14.3447 149.394 14.5296 148.982 14.8995C148.591 15.2695 148.385 15.9065 148.385 16.8313V21.7636H145.872V11.858H148.385V13.3993C148.714 12.8855 149.126 12.4745 149.641 12.1662Z" fill="#5D53A5"/>
<path d="M162.62 11.8579L156.481 26.4492H153.803L155.945 21.5169L151.969 11.8579H154.791L157.346 18.7836L159.942 11.8579H162.62Z" fill="#5D53A5"/>
<path d="M89.0352 26.9016V34.896H87.7167V31.4023H83.9468V34.896H82.6284V26.9016H83.9468V30.3337H87.7167V26.9016H89.0352Z" fill="#FF0068"/>
<path d="M92.9698 34.6082C92.4754 34.341 92.1046 33.9505 91.8368 33.4573C91.569 32.9641 91.4248 32.3886 91.4248 31.731C91.4248 31.0939 91.569 30.5185 91.8574 30.0253C92.1458 29.532 92.5372 29.1416 93.0316 28.8744C93.5261 28.6072 94.0823 28.4634 94.6797 28.4634C95.2771 28.4634 95.8333 28.6072 96.3277 28.8744C96.8221 29.1416 97.2135 29.532 97.5019 30.0253C97.7903 30.5185 97.9345 31.0939 97.9345 31.731C97.9345 32.3681 97.7903 32.9435 97.5019 33.4368C97.2135 33.93 96.8015 34.3205 96.3071 34.5876C95.8127 34.8548 95.2565 34.9986 94.6385 34.9986C93.9999 35.0192 93.4642 34.8753 92.9698 34.6082ZM95.5449 33.6423C95.8333 33.4779 96.0805 33.2312 96.2659 32.923C96.4513 32.5942 96.5337 32.2037 96.5337 31.7516C96.5337 31.2994 96.4513 30.909 96.2659 30.5801C96.0805 30.2719 95.8539 30.0253 95.5655 29.8609C95.2771 29.6964 94.9475 29.6142 94.6179 29.6142C94.2883 29.6142 93.9587 29.6964 93.6703 29.8609C93.3819 30.0253 93.1552 30.2719 92.9904 30.5801C92.8256 30.909 92.7432 31.2789 92.7432 31.7516C92.7432 32.4297 92.908 32.9641 93.2582 33.334C93.6085 33.7039 94.0411 33.8889 94.5767 33.8889C94.9475 33.8683 95.2565 33.7861 95.5449 33.6423Z" fill="#FF0068"/>
<path d="M109.326 28.7717C109.718 28.9772 110.027 29.2855 110.253 29.6965C110.48 30.1076 110.604 30.6008 110.604 31.1762V34.9165H109.306V31.3612C109.306 30.7857 109.162 30.3542 108.873 30.0459C108.585 29.7376 108.193 29.5938 107.699 29.5938C107.205 29.5938 106.813 29.7376 106.525 30.0459C106.236 30.3542 106.092 30.7857 106.092 31.3612V34.9165H104.794V31.3612C104.794 30.7857 104.65 30.3542 104.362 30.0459C104.073 29.7376 103.682 29.5938 103.187 29.5938C102.693 29.5938 102.302 29.7376 102.013 30.0459C101.725 30.3542 101.581 30.7857 101.581 31.3612V34.9165H100.262V28.5662H101.581V29.2855C101.787 29.0183 102.075 28.8128 102.405 28.669C102.734 28.5251 103.084 28.4429 103.476 28.4429C103.991 28.4429 104.444 28.5457 104.835 28.7717C105.227 28.9772 105.536 29.3061 105.763 29.6965C105.948 29.3061 106.257 28.9978 106.669 28.7717C107.081 28.5457 107.514 28.4224 107.987 28.4224C108.482 28.4635 108.914 28.5662 109.326 28.7717Z" fill="#FF0068"/>
<path d="M119.132 32.2243H114.271C114.312 32.7381 114.497 33.1286 114.827 33.4368C115.157 33.7451 115.589 33.889 116.084 33.889C116.784 33.889 117.299 33.6013 117.587 33.0053H119.009C118.823 33.5807 118.473 34.0739 117.958 34.4438C117.464 34.8138 116.825 34.9987 116.084 34.9987C115.466 34.9987 114.93 34.8549 114.456 34.5877C113.982 34.3205 113.591 33.9301 113.323 33.4368C113.055 32.9436 112.911 32.3682 112.911 31.7105C112.911 31.0529 113.035 30.4775 113.303 29.9842C113.57 29.491 113.941 29.1006 114.415 28.8334C114.889 28.5662 115.445 28.4224 116.063 28.4224C116.66 28.4224 117.196 28.5457 117.67 28.8128C118.144 29.08 118.514 29.4499 118.762 29.9226C119.029 30.3953 119.153 30.9296 119.153 31.5461C119.174 31.8133 119.153 32.0394 119.132 32.2243ZM117.793 31.1762C117.793 30.683 117.608 30.3131 117.278 30.0048C116.949 29.7171 116.516 29.5732 116.022 29.5732C115.569 29.5732 115.177 29.7171 114.848 30.0048C114.518 30.2925 114.333 30.683 114.271 31.1762H117.793Z" fill="#FF0068"/>
<path d="M125.725 28.7922C126.095 28.1757 126.59 27.6825 127.208 27.3331C127.826 26.9837 128.526 26.8193 129.268 26.8193C130.113 26.8193 130.875 27.0248 131.555 27.4564C132.214 27.8674 132.708 28.4634 132.997 29.2444H131.41C131.204 28.8128 130.916 28.5045 130.545 28.299C130.174 28.0935 129.742 27.9908 129.268 27.9908C128.732 27.9908 128.259 28.1141 127.847 28.3401C127.435 28.5867 127.105 28.9156 126.878 29.3677C126.652 29.8198 126.528 30.3336 126.528 30.9296C126.528 31.5255 126.652 32.0393 126.878 32.4915C127.105 32.9436 127.435 33.2724 127.847 33.519C128.259 33.7656 128.732 33.8889 129.268 33.8889C129.762 33.8889 130.174 33.7862 130.545 33.5807C130.916 33.3751 131.204 33.0669 131.41 32.6353H132.997C132.688 33.3957 132.214 33.9917 131.555 34.4027C130.895 34.8137 130.133 35.0192 129.268 35.0192C128.506 35.0192 127.826 34.8548 127.208 34.5055C126.59 34.1561 126.095 33.6629 125.725 33.0463C125.354 32.4298 125.168 31.7311 125.168 30.9296C125.168 30.1075 125.354 29.4088 125.725 28.7922Z" fill="#FF0068"/>
<path d="M135.572 30.0253C135.839 29.532 136.19 29.1621 136.663 28.8744C137.117 28.6072 137.632 28.4634 138.188 28.4634C138.682 28.4634 139.115 28.5661 139.506 28.7511C139.877 28.9566 140.186 29.1827 140.392 29.4909V28.5661H141.711V34.9164H140.392V33.9711C140.165 34.2794 139.856 34.526 139.486 34.7109C139.094 34.9164 138.662 35.0192 138.167 35.0192C137.611 35.0192 137.117 34.8753 136.663 34.6082C136.21 34.3205 135.839 33.93 135.592 33.4368C135.324 32.9435 135.201 32.3681 135.201 31.731C135.16 31.0734 135.304 30.5185 135.572 30.0253ZM140.104 30.6007C139.918 30.2719 139.692 30.0253 139.403 29.8609C139.115 29.6964 138.806 29.6142 138.456 29.6142C138.105 29.6142 137.796 29.6964 137.508 29.8609C137.22 30.0253 136.972 30.2719 136.808 30.5801C136.622 30.909 136.54 31.2789 136.54 31.7105C136.54 32.142 136.622 32.5325 136.808 32.8613C136.993 33.1901 137.22 33.4368 137.529 33.6217C137.817 33.7861 138.147 33.8889 138.476 33.8889C138.806 33.8889 139.135 33.8067 139.424 33.6423C139.712 33.4779 139.959 33.2312 140.124 32.9024C140.31 32.5736 140.392 32.2037 140.392 31.7516C140.371 31.2994 140.289 30.909 140.104 30.6007Z" fill="#FF0068"/>
<path d="M146.593 28.7305C146.902 28.5456 147.293 28.4634 147.726 28.4634V29.8198H147.396C146.881 29.8198 146.49 29.9431 146.222 30.2102C145.954 30.4774 145.831 30.9295 145.831 31.5666V34.8959H144.512V28.5661H145.831V29.4909C146.016 29.1621 146.263 28.9155 146.593 28.7305Z" fill="#FF0068"/>
<path d="M155.78 32.2243H150.919C150.96 32.7381 151.145 33.1286 151.475 33.4368C151.805 33.7451 152.237 33.889 152.732 33.889C153.432 33.889 153.947 33.6013 154.235 33.0053H155.657C155.471 33.5807 155.121 34.0739 154.606 34.4438C154.112 34.8138 153.473 34.9987 152.732 34.9987C152.114 34.9987 151.578 34.8549 151.104 34.5877C150.63 34.3205 150.239 33.9301 149.971 33.4368C149.703 32.9436 149.559 32.3682 149.559 31.7105C149.559 31.0529 149.683 30.4775 149.95 29.9842C150.218 29.491 150.589 29.1006 151.063 28.8334C151.537 28.5662 152.093 28.4224 152.711 28.4224C153.308 28.4224 153.844 28.5457 154.318 28.8128C154.792 29.08 155.162 29.4499 155.41 29.9226C155.677 30.3953 155.801 30.9296 155.801 31.5461C155.842 31.8133 155.822 32.0394 155.78 32.2243ZM154.462 31.1762C154.462 30.683 154.277 30.3131 153.947 30.0048C153.617 29.7171 153.185 29.5732 152.69 29.5732C152.237 29.5732 151.846 29.7171 151.516 30.0048C151.187 30.2925 151.001 30.683 150.939 31.1762H154.462Z" fill="#FF0068"/>
<path d="M78.4054 30.2717H50.6772V31.3404H78.4054V30.2717Z" fill="#5D53A5"/>
<path d="M45.7331 10.07C44.8061 7.43944 43.1375 5.44598 40.7684 4.15126C39.4912 3.39087 38.0904 2.91819 36.5865 2.71268C36.4629 2.69213 36.3393 2.67158 36.2363 2.67158C33.8879 2.34276 31.663 2.73323 29.6236 3.82244L29.603 3.84299C29.5412 3.86354 29.5 3.90465 29.4382 3.9252C28.676 4.33622 27.955 4.85 27.2751 5.44598C27.2751 5.44598 26.9249 5.7748 26.6159 6.04197L24.0615 8.52866C21.1774 5.75425 20.889 5.48709 20.8478 5.44598C20.168 4.85 19.4264 4.33622 18.6848 3.9252C18.623 3.90465 18.5818 3.86354 18.52 3.84299L18.4994 3.82244C16.4393 2.73323 14.2145 2.36331 11.8866 2.67158C11.763 2.69213 11.6394 2.69213 11.5158 2.71268C10.0326 2.91819 8.61114 3.41142 7.35452 4.15126C4.98547 5.44598 3.31683 7.43944 2.38981 10.07C1.8542 11.4264 1.607 12.8649 1.607 14.3035C1.5864 16.3997 2.14261 18.3521 3.25503 20.1195C3.64644 20.7771 4.14085 21.4142 4.82066 22.1335C4.96487 22.2979 10.1562 27.4768 10.3622 27.6823L10.4858 27.8056L24.0615 14.4679L37.6372 27.8056L37.7608 27.6823C37.9874 27.4563 43.1581 22.2774 43.3023 22.1335C43.9615 21.4142 44.4559 20.7771 44.8679 20.1195C45.9803 18.3521 46.5365 16.3997 46.5159 14.3035C46.5159 12.8649 46.2687 11.4264 45.7331 10.07ZM41.9014 16.6875C41.8602 16.7902 41.819 16.893 41.7778 16.9957C41.7572 17.0574 41.716 17.119 41.6954 17.1807C41.6748 17.2012 41.6748 17.2218 41.6542 17.2629V17.2834C40.7684 18.9481 38.7084 21.0238 37.8638 21.8458L37.596 22.0924L26.9867 11.5086C28.5112 10.0494 30.3446 8.3437 30.9832 7.89157L31.0038 7.87102H31.0244C31.4158 7.6244 31.7866 7.41889 32.178 7.25448C32.6518 7.06952 33.1463 6.92567 33.6613 6.84346C35.2475 6.5763 36.8955 6.84346 38.3376 7.5422C39.3676 8.07653 40.2534 8.83692 40.9332 9.74117C41.3658 10.3372 41.716 10.9948 41.9426 11.6935C42.5195 13.3376 42.4989 15.105 41.9014 16.6875ZM17.0985 7.87102C17.9225 8.44645 20.3946 10.8098 21.1156 11.488L10.5064 22.0719L10.2386 21.8252C9.39396 21.0032 7.35452 18.9275 6.4481 17.2629V17.2423C6.4275 17.2218 6.4275 17.2012 6.4069 17.1601C6.3863 17.0985 6.3451 17.0368 6.3245 16.9752C6.2833 16.8724 6.24209 16.7697 6.20089 16.6669C5.60348 15.105 5.58288 13.3171 6.15969 11.6524C6.4069 10.9537 6.7365 10.2961 7.16911 9.70007C7.84893 8.79582 8.75535 8.03543 9.76477 7.5011C10.836 6.96677 12.0308 6.6996 13.2256 6.6996C13.6376 6.6996 14.0497 6.74071 14.4617 6.80236C14.9767 6.88456 15.4711 7.02842 15.9243 7.21338C16.3157 7.37779 16.6865 7.5833 17.0779 7.82992C17.0779 7.85047 17.0985 7.85047 17.0985 7.87102Z" fill="#5D53A5"/>
<path d="M27.3161 24.4148H27.3367V21.5376H27.3161H24.4526V24.4148H27.3161Z" fill="#5D53A5"/>
<path d="M23.6702 24.4148V21.5376H20.7861V24.4148H23.6702Z" fill="#5D53A5"/>
<path d="M24.4526 28.0317H27.3161H27.3367V25.1545H27.3161H24.4526V28.0317Z" fill="#5D53A5"/>
<path d="M20.7861 28.0317H23.6702V25.1545H20.7861V28.0317Z" fill="#5D53A5"/>
<path d="M33.6816 25.9561L33.558 26.0794C30.8387 28.7305 27.8105 31.7104 25.874 33.5805C24.9882 34.4642 24.329 35.1013 24.0406 35.3685C23.7728 35.1013 23.1342 34.4848 22.269 33.6422C20.3531 31.772 17.2837 28.7716 14.5438 26.0794L14.4202 25.9561L11.5361 28.8538L24.0612 41.39L36.5862 28.8538L33.6816 25.9561Z" fill="#FF0068"/>
</svg>
