<svg width="26" height="26" viewBox="0 0 26 26" fill="none" xmlns="http://www.w3.org/2000/svg">
<path d="M13 0C8.31311 0 4.5 3.95837 4.5 8.82387C4.5 10.7791 5.60885 13.7526 7.98964 18.1816C9.61424 21.2036 11.2314 23.7562 11.2996 23.8638L12.4684 25.7029C12.5862 25.8884 12.7859 26 13 26C13.2141 26 13.4138 25.8884 13.5316 25.7029L14.7004 23.8639C14.7679 23.7576 16.3733 21.227 18.0104 18.1816C20.3911 13.7528 21.5 10.7793 21.5 8.82387C21.5 3.95837 17.6869 0 13 0ZM16.8981 17.5372C15.2838 20.5401 13.7039 23.0309 13.6373 23.1356L13 24.1383L12.3629 23.1358C12.296 23.0303 10.7039 20.5172 9.10185 17.5372C6.89347 13.4289 5.77372 10.4973 5.77372 8.82387C5.77372 4.68747 9.01539 1.32226 13 1.32226C16.9846 1.32226 20.2263 4.68747 20.2263 8.82387C20.2263 10.4975 19.1065 13.429 16.8981 17.5372Z" fill="#333333"/>
<path d="M12.9994 3.87622C10.4007 3.87622 8.28662 6.07096 8.28662 8.76859C8.28662 11.4662 10.4007 13.661 12.9994 13.661C15.598 13.661 17.7122 11.4662 17.7122 8.76859C17.7122 6.07096 15.598 3.87622 12.9994 3.87622ZM12.9994 12.3387C11.1031 12.3387 9.56034 10.7372 9.56034 8.76859C9.56034 6.80001 11.1031 5.19848 12.9994 5.19848C14.8958 5.19848 16.4384 6.80001 16.4384 8.76859C16.4384 10.7372 14.8958 12.3387 12.9994 12.3387Z" fill="#333333"/>
</svg>
