<svg width="26" height="26" viewBox="0 0 26 26" fill="none" xmlns="http://www.w3.org/2000/svg">
<path d="M13.8656 16.3189H12.4014C11.869 16.3189 11.4377 15.8811 11.4377 15.3405C11.4377 14.8 11.869 14.3621 12.4014 14.3621H14.9783C15.3297 14.3621 15.6173 14.0702 15.6173 13.7135C15.6173 13.3567 15.3297 13.0648 14.9783 13.0648H13.7697V12.1621C13.7697 11.8054 13.4822 11.5135 13.1308 11.5135C12.7794 11.5135 12.4919 11.8054 12.4919 12.1621V13.0648H12.4014C11.1661 13.0648 10.1599 14.0865 10.1599 15.3405C10.1599 16.5946 11.1661 17.6162 12.4014 17.6162H13.8656C14.398 17.6162 14.8293 18.054 14.8293 18.5946C14.8293 19.1351 14.398 19.5729 13.8656 19.5729H11.2407C10.8893 19.5729 10.6018 19.8648 10.6018 20.2216C10.6018 20.5784 10.8893 20.8702 11.2407 20.8702H12.4972V21.7946C12.4972 22.1513 12.7847 22.4432 13.1361 22.4432C13.4875 22.4432 13.775 22.1513 13.775 21.7946V20.8702H13.8815C13.8869 20.8702 13.8922 20.8702 13.8975 20.8702C15.1221 20.854 16.1071 19.8378 16.1071 18.5946C16.1071 17.3405 15.1008 16.3189 13.8656 16.3189Z" fill="#333333"/>
<path d="M22.7328 14.8486C22.062 13.2811 21.1355 11.7622 19.9642 10.3405C18.5479 8.61081 17.137 7.45405 16.4182 6.91892L19.1336 1.80541C19.2667 1.55135 19.2241 1.23784 19.0165 1.03784C18.3137 0.340541 17.5682 0 16.7377 0C15.9763 0 15.2788 0.291892 14.6718 0.551351C14.1926 0.751351 13.7401 0.945946 13.3727 0.945946C13.2609 0.945946 13.1651 0.92973 13.0692 0.891892C11.802 0.421622 10.8277 0.12973 9.88529 0.12973C8.69264 0.12973 7.6757 0.616216 6.68006 1.65405C6.47241 1.87027 6.44046 2.21081 6.60552 2.46486L9.53388 6.95676C8.80978 7.5027 7.42546 8.64865 6.03582 10.3405C4.8698 11.7622 3.93804 13.2811 3.26718 14.8486C2.42594 16.8216 2 18.8811 2 20.9676C2 23.7405 4.22556 26 6.95692 26H19.0431C21.7744 26 24 23.7405 24 20.9676C24 18.8811 23.5741 16.8216 22.7328 14.8486ZM7.96854 2.19459C8.58616 1.65405 9.17715 1.41622 9.88529 1.41622C10.6413 1.41622 11.4932 1.67568 12.6273 2.1027C12.8616 2.18919 13.1118 2.23243 13.3674 2.23243C13.9903 2.23243 14.5866 1.98378 15.1563 1.74054C15.7047 1.50811 16.2265 1.28649 16.7323 1.28649C16.9773 1.28649 17.3233 1.32973 17.7599 1.64324L15.2043 6.46486H10.7531L7.96854 2.19459ZM19.0431 24.7027H6.95692C4.92836 24.7027 3.27783 23.027 3.27783 20.9676C3.27783 17.5027 4.52904 14.2162 6.98887 11.2C8.54356 9.29189 10.1249 8.10811 10.6041 7.76216H15.3853C15.8698 8.1027 17.4458 9.29189 19.0005 11.2C21.4656 14.2162 22.7115 17.4973 22.7115 20.9676C22.7222 23.027 21.0716 24.7027 19.0431 24.7027Z" fill="#333333"/>
</svg>
