<svg width="28" height="29" viewBox="0 0 28 29" fill="none" xmlns="http://www.w3.org/2000/svg">
<g clip-path="url(#clip0_8_242)">
<path fill-rule="evenodd" clip-rule="evenodd" d="M24.5 14.5C24.5 20.299 19.799 25 14 25C8.20101 25 3.5 20.299 3.5 14.5C3.5 8.70101 8.20101 4 14 4C19.799 4 24.5 8.70101 24.5 14.5ZM19.4357 12.9357C20.0214 12.3499 20.0214 11.4001 19.4357 10.8143C18.8499 10.2286 17.9001 10.2286 17.3143 10.8143L12.25 15.8787L10.6857 14.3143C10.0999 13.7286 9.15013 13.7286 8.56434 14.3143C7.97855 14.9001 7.97855 15.8499 8.56434 16.4357L11.1893 19.0607C11.7751 19.6464 12.7249 19.6464 13.3107 19.0607L19.4357 12.9357Z" fill="#355393"/>
</g>
<defs>
<clipPath id="clip0_8_242">
<rect width="28" height="28" fill="white" transform="translate(0 0.5)"/>
</clipPath>
</defs>
</svg>
