<svg width="26" height="26" viewBox="0 0 26 26" fill="none" xmlns="http://www.w3.org/2000/svg">
<path d="M12.9985 6.99997C12.7182 6.99997 12.4907 7.22399 12.4907 7.49997C12.4907 7.77595 12.7182 7.99997 12.9985 7.99997C13.2788 7.99997 13.5063 7.77595 13.5063 7.49997C13.5063 7.22399 13.2788 6.99997 12.9985 6.99997Z" fill="#333333"/>
<path d="M4.56995 16.0001C4.85023 16.0001 5.07776 15.7761 5.07776 15.5001C5.07776 15.2241 4.85023 15.0001 4.56995 15.0001C4.28966 15.0001 4.06213 15.2241 4.06213 15.5001C4.06213 15.7761 4.28966 16.0001 4.56995 16.0001Z" fill="#333333"/>
<path d="M17.0625 2C12.4908 2 8.73854 5.10352 8.44833 9.0127C4.09444 9.22773 0 12.3189 0 16.5C0 18.2473 0.702209 19.9402 1.98047 21.2816C2.23338 22.3082 1.92632 23.3963 1.1644 24.1465C1.0192 24.2895 0.975754 24.5045 1.05431 24.6914C1.13286 24.8781 1.31793 25 1.52344 25C2.97169 25 4.36739 24.4408 5.40443 23.4555C6.4147 23.7945 7.73283 24 8.9375 24C13.5086 24 17.2605 20.8973 17.5515 16.9889C18.6147 16.9424 19.7206 16.749 20.5956 16.4555C21.6326 17.4408 23.0283 18 24.4766 18C24.6821 18 24.8671 17.8781 24.9457 17.6914C25.0242 17.5045 24.9808 17.2895 24.8356 17.1465C24.0737 16.3963 23.7666 15.3082 24.0195 14.2816C25.2978 12.9402 26 11.2473 26 9.5C26 5.15566 21.5902 2 17.0625 2ZM8.9375 23C7.73898 23 6.37325 22.7684 5.45839 22.41C5.26241 22.333 5.03845 22.3836 4.89583 22.5369C4.28268 23.1969 3.48546 23.657 2.61682 23.8686C3.09547 22.9656 3.21767 21.9012 2.92647 20.8926C2.90346 20.8131 2.86081 20.7404 2.80229 20.6812C1.65019 19.5129 1.01562 18.0279 1.01562 16.5C1.01562 12.9766 4.64331 10 8.9375 10C12.9925 10 16.5547 12.7764 16.5547 16.5C16.5547 20.0842 13.1377 23 8.9375 23ZM23.1977 13.6813C23.1392 13.7406 23.0965 13.8133 23.0735 13.8926C22.7823 14.9012 22.9045 15.9656 23.3832 16.8686C22.5145 16.6572 21.7173 16.1969 21.1042 15.5369C20.9615 15.3838 20.7376 15.333 20.5416 15.41C19.7487 15.7205 18.6177 15.9355 17.5499 15.9875C17.4015 14.0967 16.4436 12.3195 14.8059 11H21.4297C21.7102 11 21.9375 10.7762 21.9375 10.5C21.9375 10.2238 21.7102 10 21.4297 10H13.2458C12.0931 9.42227 10.7988 9.08535 9.46654 9.01465C9.75833 5.65645 13.0538 3 17.0625 3C21.3567 3 24.9844 5.97656 24.9844 9.5C24.9844 11.0279 24.3498 12.5129 23.1977 13.6813Z" fill="#333333"/>
<path d="M13.0002 15.0001H6.60175C6.32126 15.0001 6.09393 15.2239 6.09393 15.5001C6.09393 15.7763 6.32126 16.0001 6.60175 16.0001H13.0002C13.2807 16.0001 13.508 15.7763 13.508 15.5001C13.508 15.2239 13.2807 15.0001 13.0002 15.0001Z" fill="#333333"/>
<path d="M12.9996 18.0002H4.56995C4.28946 18.0002 4.06213 18.224 4.06213 18.5002C4.06213 18.7764 4.28946 19.0002 4.56995 19.0002H12.9996C13.2801 19.0002 13.5074 18.7764 13.5074 18.5002C13.5074 18.224 13.2801 18.0002 12.9996 18.0002Z" fill="#333333"/>
<path d="M21.4288 6.99997H15.0304C14.7499 6.99997 14.5226 7.2238 14.5226 7.49997C14.5226 7.77614 14.7499 7.99997 15.0304 7.99997H21.4288C21.7093 7.99997 21.9366 7.77614 21.9366 7.49997C21.9366 7.2238 21.7093 6.99997 21.4288 6.99997Z" fill="#333333"/>
</svg>
