<svg width="26" height="26" viewBox="0 0 26 26" fill="none" xmlns="http://www.w3.org/2000/svg">
<path d="M20.5308 16.2849C20.0206 15.3029 18.1952 13.9398 16.4315 12.6228C15.4478 11.8888 14.5183 11.1948 13.9258 10.6478C13.7773 10.5098 13.5553 10.4657 13.3592 10.5308C12.9941 10.6528 12.7688 10.7468 12.5911 10.8198C12.3203 10.9317 12.2293 10.9698 11.8642 11.0037C11.7028 11.0187 11.5576 11.0988 11.4677 11.2227C10.7018 12.2798 9.90875 12.1898 9.379 12.0258C9.21 11.9738 9.17969 11.9068 9.16344 11.8428C9.04969 11.4038 9.62062 10.3817 10.3605 9.6987C12.1209 8.07265 13.0288 7.66562 14.9463 8.45666C17.1216 9.35468 19.3013 10.0577 19.323 10.0647C19.6079 10.1557 19.9145 10.0177 20.013 9.75669C20.1105 9.49568 19.9621 9.21067 19.6793 9.11968C19.6577 9.1127 17.5213 8.42366 15.3893 7.54262C12.9053 6.51757 11.5424 7.19259 9.59564 8.99068C8.85463 9.6747 7.8482 11.0587 8.1082 12.0738C8.21977 12.5058 8.54913 12.8258 9.03877 12.9748C10.2662 13.3488 11.3863 12.9908 12.2205 11.9688C12.565 11.9198 12.7525 11.8478 13.0341 11.7308C13.1359 11.6888 13.2551 11.6398 13.4133 11.5808C14.033 12.1178 14.8693 12.7428 15.75 13.3998C17.3425 14.5889 19.1485 15.9369 19.5547 16.717C19.7552 17.1019 19.5395 17.353 19.3933 17.468C19.1788 17.638 18.8852 17.692 18.726 17.5889C18.5505 17.4779 18.3219 17.471 18.141 17.5709C17.959 17.6709 17.8572 17.8599 17.8799 18.054C17.9167 18.372 17.6015 18.554 17.465 18.617C17.1183 18.779 16.7565 18.751 16.621 18.635C16.4693 18.505 16.2516 18.467 16.0588 18.533C15.866 18.6 15.7316 18.764 15.7121 18.954C15.6796 19.282 15.4163 19.597 15.0729 19.72C14.9072 19.778 14.6667 19.813 14.4511 19.631C14.3168 19.519 14.1304 19.476 13.956 19.515C13.7795 19.5549 13.6375 19.673 13.5758 19.83C13.5552 19.88 13.5086 20 13.0016 20C12.6408 20 11.9919 19.775 11.6745 19.581C11.2943 19.35 8.90983 17.7079 6.85045 16.1159C6.5612 15.8908 6.06069 15.4088 5.61869 14.9828C5.22651 14.6048 4.86794 14.2618 4.68376 14.1178C4.45301 13.9378 4.11176 13.9648 3.92001 14.1768C3.72719 14.3878 3.75532 14.7038 3.98394 14.8818C4.15187 15.0129 4.47688 15.3298 4.83544 15.6748C5.31863 16.1408 5.81801 16.6229 6.15388 16.8829C8.17107 18.442 10.5956 20.125 11.0787 20.418C11.4774 20.66 12.3365 21 13.0016 21C13.5357 21 13.9463 20.887 14.2312 20.666C14.6125 20.803 15.0459 20.804 15.463 20.654C15.9559 20.478 16.361 20.123 16.5907 19.693C17.0175 19.777 17.5062 19.718 17.9503 19.512C18.3847 19.31 18.6989 19.001 18.8549 18.64C19.286 18.661 19.7302 18.52 20.0974 18.229C20.7193 17.738 20.8905 16.974 20.5308 16.2849Z" fill="#333333"/>
<path d="M10.8359 7.99976H5.96094C5.66193 7.99976 5.41925 8.22378 5.41925 8.49979C5.41925 8.7758 5.66193 8.99982 5.96094 8.99982H10.8359C11.1349 8.99982 11.3776 8.7758 11.3776 8.49979C11.3776 8.22378 11.1349 7.99976 10.8359 7.99976Z" fill="#333333"/>
<path d="M22.1138 15.2209C21.9458 14.9919 21.61 14.9289 21.362 15.0849L19.7781 16.0669C19.5301 16.2209 19.464 16.5319 19.6308 16.7609C19.7359 16.9039 19.9071 16.9819 20.0815 16.9819C20.1844 16.9819 20.2895 16.9549 20.3827 16.8969L21.9665 15.9149C22.2145 15.7609 22.2806 15.4499 22.1138 15.2209Z" fill="#333333"/>
<path d="M18.7549 17.6071C18.367 17.3251 16.6326 15.686 15.5601 14.654C15.3532 14.454 15.0098 14.447 14.7942 14.639C14.5775 14.83 14.571 15.147 14.7779 15.346C15.0564 15.614 17.5122 17.9771 18.0832 18.3931C18.1817 18.4651 18.3009 18.5002 18.4179 18.5002C18.5772 18.5002 18.7364 18.4341 18.8447 18.3091C19.03 18.0931 18.99 17.7781 18.7549 17.6071Z" fill="#333333"/>
<path d="M16.5891 18.6101C15.9402 18.1311 14.3098 16.532 13.9414 16.162C13.7377 15.958 13.3965 15.946 13.1755 16.132C12.9556 16.319 12.9404 16.636 13.143 16.8391C13.1625 16.858 15.1082 18.7971 15.912 19.3911C16.0117 19.4641 16.1319 19.5001 16.25 19.5001C16.4082 19.5001 16.5663 19.4351 16.6736 19.3131C16.86 19.0971 16.8221 18.7821 16.5891 18.6101Z" fill="#333333"/>
<path d="M14.433 19.6171C13.6606 19.0161 12.08 17.4631 11.7713 17.158C11.5665 16.956 11.2231 16.945 11.0054 17.134C10.7865 17.323 10.7757 17.639 10.9794 17.8411C11.4235 18.2801 12.9359 19.7601 13.7343 20.3821C13.8361 20.4611 13.9596 20.5001 14.0831 20.5001C14.2369 20.5001 14.3908 20.4391 14.498 20.3221C14.6909 20.1101 14.6616 19.7951 14.433 19.6171Z" fill="#333333"/>
<path d="M6.33101 7.13673C5.40258 6.32469 1.69 6.06167 0.574185 6.00068C0.420368 5.9937 0.278434 6.04067 0.170118 6.13568C0.0617501 6.22967 0 6.36168 0 6.49968V15.5C0 15.776 0.242684 16 0.541685 16H3.79169C4.02569 16 4.23369 15.861 4.30626 15.655C4.38533 15.431 6.25195 10.1428 6.49783 7.54273C6.51195 7.39071 6.45126 7.2407 6.33101 7.13673ZM3.39626 15H1.08332V7.03571C2.82426 7.1627 4.70276 7.43871 5.38526 7.74472C5.0982 9.93479 3.79926 13.8259 3.39626 15Z" fill="#333333"/>
<path d="M25.4583 6.99973C21.2051 6.99973 18.8456 8.00476 18.747 8.04676C18.6062 8.10774 18.5011 8.22076 18.4578 8.35778C18.4145 8.4948 18.4361 8.64181 18.5173 8.76378C19.1868 9.75883 21.2831 15.285 21.6861 16.633C21.7511 16.85 21.9645 17 22.2083 17H25.4583C25.7573 17 26 16.776 26 16.5V7.49971C26 7.22272 25.7573 6.99973 25.4583 6.99973ZM24.9167 16H22.6135C22.1 14.4559 20.5833 10.4298 19.7372 8.7658C20.5638 8.5068 22.3394 8.06176 24.9167 8.00579V16Z" fill="#333333"/>
</svg>
