<svg width="26" height="26" viewBox="0 0 26 26" fill="none" xmlns="http://www.w3.org/2000/svg">
<path d="M22.2204 4.47876C21.1361 4.47876 20.254 5.36091 20.254 6.44521V7.21343C20.0488 7.14067 19.8283 7.10069 19.5985 7.10069C18.5142 7.10069 17.6321 7.98283 17.6321 9.06713V11.1465C17.3647 11.2406 17.1138 11.3939 16.9 11.6068L14.8454 13.6178C14.8437 13.6195 14.842 13.6211 14.8404 13.6227C14.0451 14.418 13.4236 15.3481 12.9932 16.3872C12.9912 16.3921 12.9894 16.3969 12.9874 16.4018C12.5543 15.3772 11.9208 14.4276 11.116 13.6228L9.10285 11.6097C8.89183 11.3986 8.64126 11.2416 8.36797 11.1452V9.06713C8.36797 7.98283 7.48582 7.10069 6.40153 7.10069C6.17176 7.10069 5.95121 7.14067 5.74604 7.21343V6.44521C5.74604 5.36091 4.8639 4.47876 3.7796 4.47876C2.6953 4.47876 1.81311 5.36091 1.81311 6.44521V13.5848C1.81311 14.1786 1.97462 14.7617 2.28016 15.271L4.49045 18.9548C5.32828 20.3512 5.7897 21.9765 5.7897 23.5314C5.7897 23.8934 6.08318 24.1869 6.44518 24.1869H13H19.5548C19.9168 24.1869 20.2103 23.8934 20.2103 23.5314C20.2103 21.9765 20.6717 20.3512 21.5096 18.9548L23.7199 15.271C24.0254 14.7617 24.1869 14.1786 24.1869 13.5848V6.44521C24.1869 5.36091 23.3047 4.47876 22.2204 4.47876ZM5.746 9.06718C5.746 8.7057 6.04005 8.41165 6.40148 8.41165C6.76292 8.41165 7.05696 8.7057 7.05696 9.06713V11.1452C6.78367 11.2416 6.5331 11.3986 6.32208 11.6097C6.15965 11.7721 6.03166 11.956 5.93801 12.1524C5.81421 12.0286 5.746 11.864 5.746 11.6889C5.746 11.411 5.746 9.34506 5.746 9.06718ZM12.3445 22.8759H7.07742C6.9659 21.2928 6.45633 19.6832 5.6146 18.2803L3.40431 14.5965C3.221 14.2909 3.12407 13.9411 3.12407 13.5848V6.44521C3.12407 6.08377 3.41812 5.78972 3.77956 5.78972C4.14099 5.78972 4.43504 6.08377 4.43504 6.44521C4.43504 6.67047 4.43504 11.4773 4.43504 11.6888V11.6905C4.43504 11.691 4.43512 11.6915 4.43512 11.692C4.43596 12.2161 4.64033 12.7086 5.01099 13.0793L8.5599 16.6282C8.81584 16.8842 9.23089 16.8842 9.48688 16.6282C9.74287 16.3723 9.74287 15.9573 9.48688 15.7013L7.24902 13.4634C6.99351 13.2079 6.99351 12.7921 7.24902 12.5366C7.50536 12.2803 7.91945 12.2803 8.17583 12.5366L10.1889 14.5498C11.5589 15.9197 12.3445 17.778 12.3445 19.6482V22.8759ZM18.943 9.06713C18.943 8.7057 19.2371 8.41165 19.5985 8.41165C19.9599 8.41165 20.254 8.7057 20.254 9.06713C20.254 9.34453 20.254 11.411 20.254 11.6888C20.254 11.8639 20.1858 12.0286 20.062 12.1524L20.0619 12.1524C19.9683 11.956 19.8403 11.772 19.6779 11.6097C19.4635 11.3953 19.2116 11.2409 18.943 11.1465V9.06713ZM22.8759 13.5848C22.8759 13.9411 22.779 14.2909 22.5957 14.5965L20.3854 18.2803C19.5437 19.6832 19.0341 21.2928 18.9225 22.8759H13.6555V19.6482C13.6555 17.7233 14.4046 15.9137 15.765 14.5521L17.8191 12.5415C17.8208 12.5399 17.8225 12.5383 17.8241 12.5366C18.0797 12.281 18.4954 12.281 18.7509 12.5366C19.0072 12.7929 19.0073 13.2071 18.7509 13.4634L16.5131 15.7012C16.2571 15.9572 16.2571 16.3722 16.5131 16.6282C16.769 16.8842 17.1841 16.8842 17.4401 16.6282L20.989 13.0793C21.3595 12.7087 21.5639 12.2163 21.5649 11.6924C21.5649 11.6919 21.565 11.6913 21.565 11.6907V11.6888C21.565 11.48 21.565 6.67183 21.565 6.44516C21.565 6.08373 21.859 5.78968 22.2204 5.78968C22.5819 5.78968 22.8759 6.08373 22.8759 6.44516V13.5848Z" fill="#333333"/>
<path d="M15.269 1.81311C14.367 1.81311 13.5839 2.22611 13 3.00845C12.4161 2.22611 11.633 1.81311 10.731 1.81311C9.03395 1.81311 7.80658 3.22122 7.80658 4.93163C7.80658 7.11871 9.8682 8.48744 12.5707 10.8297C12.6939 10.9365 12.8469 10.9899 13 10.9899C13.153 10.9899 13.3061 10.9365 13.4293 10.8297C16.1338 8.48578 18.1934 7.11801 18.1934 4.93159C18.1934 3.22008 16.9651 1.81311 15.269 1.81311ZM13 9.46984C10.6157 7.43378 9.11754 6.35009 9.11754 4.93163C9.11754 3.90113 9.81117 3.12407 10.731 3.12407C11.9273 3.12407 12.3515 4.55163 12.3691 4.61289C12.4487 4.89527 12.706 5.09201 12.9996 5.09201C13.2942 5.09201 13.5523 4.89689 13.6309 4.61294C13.6484 4.55215 14.0725 3.12407 15.269 3.12407C16.1888 3.12407 16.8825 3.90113 16.8825 4.93163C16.8825 6.35066 15.383 7.43478 13 9.46984Z" fill="#333333"/>
</svg>
