<svg width="26" height="26" viewBox="0 0 26 26" fill="none" xmlns="http://www.w3.org/2000/svg">
<g clip-path="url(#clip0_1_101)">
<path d="M13 26C12.9296 26 12.8591 25.9903 12.7907 25.9707C7.79919 24.5446 3.98785 20.7393 2.39302 16.0269C1.84971 14.4214 1.57422 12.7469 1.57422 11.0499L1.57422 3.8594C1.57422 3.52054 1.79806 3.22245 2.12347 3.1279L12.7875 0.0302402C12.9263 -0.0100801 13.0737 -0.0100801 13.2125 0.0302402L23.8765 3.1279C24.2019 3.22245 24.4258 3.52054 24.4258 3.8594V11.0499C24.4258 12.7469 24.1503 14.4214 23.607 16.0269C21.9854 20.8184 18.1211 24.5673 13.2093 25.9707C13.1409 25.9903 13.0704 26 13 26ZM3.09766 4.43135L3.09766 11.0499C3.09766 17.1983 7.15868 22.6746 13 24.4443C18.8413 22.6746 22.9023 17.1983 22.9023 11.0499V4.43135L13 1.55495L3.09766 4.43135Z" fill="#333333"/>
<path d="M13 19.8555C9.21989 19.8555 6.14453 16.7801 6.14453 13C6.14453 9.21989 9.21989 6.14453 13 6.14453C16.7801 6.14453 19.8555 9.21989 19.8555 13C19.8555 16.7801 16.7802 19.8555 13 19.8555ZM13 7.66797C10.0599 7.66797 7.66797 10.0599 7.66797 13C7.66797 15.9401 10.0599 18.332 13 18.332C15.9401 18.332 18.332 15.9401 18.332 13C18.332 10.0599 15.9401 7.66797 13 7.66797Z" fill="#333333"/>
<path d="M12.2383 15.2852C12.0433 15.2852 11.8484 15.2108 11.6997 15.0621L10.1762 13.5386C9.87876 13.2411 9.87876 12.7589 10.1762 12.4614C10.4737 12.1639 10.956 12.1639 11.2535 12.4614L12.2383 13.4462L14.7465 10.938C15.044 10.6405 15.5263 10.6405 15.8238 10.938C16.1212 11.2355 16.1212 11.7178 15.8238 12.0152L12.7769 15.0621C12.6282 15.2108 12.4332 15.2852 12.2383 15.2852Z" fill="#333333"/>
</g>
<defs>
<clipPath id="clip0_1_101">
<rect width="26" height="26" fill="white"/>
</clipPath>
</defs>
</svg>
