<svg width="16" height="16" viewBox="0 0 16 16" fill="none" xmlns="http://www.w3.org/2000/svg">
<path d="M12.1643 10.5844C11.6416 10.0683 10.989 10.0683 10.4696 10.5844C10.0734 10.9773 9.67715 11.3702 9.2876 11.7697C9.18105 11.8796 9.09116 11.9029 8.96131 11.8296C8.70493 11.6898 8.43191 11.5766 8.18553 11.4234C7.03685 10.7009 6.07463 9.77203 5.22227 8.72659C4.79942 8.20719 4.42319 7.65118 4.16016 7.02525C4.10689 6.89873 4.11688 6.81549 4.22009 6.71228C4.6163 6.32939 5.00252 5.93652 5.39208 5.54365C5.93479 4.99762 5.93479 4.35837 5.38875 3.80901C5.0791 3.49604 4.76946 3.18974 4.45981 2.87677C4.14018 2.55714 3.82388 2.23419 3.50092 1.91789C2.97818 1.40849 2.3256 1.40849 1.8062 1.92122C1.40666 2.3141 1.02377 2.71696 0.617565 3.10317C0.241331 3.45942 0.0515495 3.89558 0.0115954 4.40498C-0.0516652 5.23401 0.151435 6.01643 0.437772 6.77887C1.02377 8.35702 1.91607 9.75871 2.99816 11.0439C4.45981 12.7818 6.20448 14.1569 8.24546 15.1491C9.16441 15.5952 10.1166 15.9381 11.1521 15.9947C11.8646 16.0347 12.4839 15.8549 12.98 15.2989C13.3196 14.9193 13.7025 14.5731 14.0621 14.2102C14.5948 13.6708 14.5982 13.0182 14.0688 12.4855C13.4362 11.8496 12.8002 11.217 12.1643 10.5844Z" fill="white"/>
<path d="M11.5268 7.93087L12.7554 7.72111C12.5623 6.59243 12.0295 5.5703 11.2205 4.75792C10.3648 3.90225 9.2827 3.36288 8.09074 3.19641L7.9176 4.43163C8.83988 4.56148 9.67891 4.97766 10.3415 5.64022C10.9674 6.26615 11.377 7.05855 11.5268 7.93087Z" fill="white"/>
<path d="M13.4496 2.5903C12.0312 1.17196 10.2366 0.276343 8.25553 0L8.0824 1.23522C9.79376 1.47494 11.3453 2.2507 12.5706 3.4726C13.7326 4.63457 14.495 6.10285 14.7714 7.71763L16 7.50787C15.677 5.63673 14.7947 3.93872 13.4496 2.5903Z" fill="white"/>
</svg>
