<svg width="26" height="26" viewBox="0 0 26 26" fill="none" xmlns="http://www.w3.org/2000/svg">
<path d="M24.2946 13.3368C24.1898 13.1227 24.1898 12.8773 24.2946 12.6633L25.2664 10.6795C25.8074 9.57499 25.3787 8.2585 24.2905 7.6823L22.3359 6.64739C22.125 6.53577 21.9805 6.33712 21.9392 6.10256L21.5569 3.92767C21.3441 2.71676 20.2216 1.90305 19.002 2.07525L16.8112 2.3845C16.5747 2.41781 16.3409 2.34195 16.1693 2.17635L14.5791 0.64115C13.6936 -0.213691 12.3064 -0.213742 11.421 0.64115L9.83066 2.1765C9.65907 2.34215 9.42525 2.41786 9.18883 2.38465L6.998 2.0754C5.77799 1.9031 4.65593 2.71691 4.44307 3.92783L4.06081 6.10261C4.01954 6.33722 3.87497 6.53582 3.66414 6.64749L1.70958 7.6824C0.621315 8.25855 0.192644 9.57514 0.733673 10.6797L1.70536 12.6634C1.81018 12.8774 1.81018 13.1229 1.70536 13.3369L0.733622 15.3206C0.192593 16.4251 0.621264 17.7416 1.70953 18.3178L3.66409 19.3527C3.87497 19.4643 4.01954 19.663 4.06081 19.8975L4.44307 22.0724C4.63685 23.1748 5.58405 23.9478 6.67268 23.9477C6.7799 23.9477 6.88869 23.9402 6.99805 23.9248L9.18888 23.6155C9.42515 23.5821 9.65913 23.6581 9.83072 23.8237L11.421 25.3589C11.8638 25.7864 12.4318 26 13 26C13.5681 25.9999 14.1364 25.7863 14.579 25.3589L16.1693 23.8237C16.3409 23.6581 16.5748 23.5824 16.8112 23.6155L19.002 23.9248C20.2222 24.097 21.3441 23.2833 21.5569 22.0724L21.9392 19.8976C21.9805 19.663 22.1251 19.4644 22.3359 19.3527L24.2905 18.3178C25.3787 17.7416 25.8074 16.425 25.2664 15.3205L24.2946 13.3368ZM23.5861 16.9931L21.6316 18.028C21.0084 18.358 20.581 18.9449 20.4591 19.6384L20.0769 21.8132C20.0049 22.2229 19.6253 22.4981 19.2125 22.44L17.0216 22.1307C16.323 22.0319 15.6316 22.2563 15.1245 22.7458L13.5342 24.281C13.2347 24.5701 12.7654 24.5701 12.4657 24.281L10.8755 22.7458C10.4469 22.3321 9.88664 22.1079 9.30175 22.1079C9.19458 22.1079 9.08655 22.1154 8.97836 22.1307L6.78753 22.4399C6.37504 22.4981 5.99517 22.2229 5.92311 21.8132L5.5408 19.6383C5.41888 18.9448 4.99153 18.3579 4.36832 18.0279L2.41375 16.993C2.04554 16.7981 1.90051 16.3527 2.08355 15.979L3.05528 13.9952C3.36508 13.3627 3.36508 12.6373 3.05528 12.0047L2.08355 10.021C1.90051 9.6473 2.04554 9.20191 2.41375 9.00696L4.36832 7.97205C4.99148 7.64203 5.41888 7.0551 5.54075 6.36164L5.92301 4.18681C5.99507 3.77711 6.37458 3.50188 6.78743 3.56007L8.97826 3.86933C9.67668 3.96799 10.3683 3.7437 10.8754 3.25422L12.4657 1.71902C12.7652 1.42988 13.2345 1.42988 13.5342 1.71902L15.1244 3.25422C15.6315 3.74375 16.323 3.96799 17.0215 3.86933L19.2124 3.56007C19.6249 3.50183 20.0048 3.77711 20.0768 4.18681L20.459 6.36169C20.581 7.05515 21.0083 7.64213 21.6315 7.97205L23.5861 9.00696C23.9543 9.20191 24.0993 9.6473 23.9163 10.021L22.9446 12.0047C22.6348 12.6372 22.6348 13.3627 22.9446 13.9952L23.9163 15.9789C24.0994 16.3527 23.9544 16.7981 23.5861 16.9931Z" fill="#333333"/>
<path d="M18.4915 7.52154C18.1982 7.22874 17.7224 7.22874 17.429 7.52154L7.51169 17.4182C7.21827 17.711 7.21827 18.1857 7.51169 18.4785C7.65839 18.6249 7.85069 18.6982 8.04295 18.6982C8.2352 18.6982 8.42755 18.625 8.5742 18.4785L18.4915 8.58194C18.785 8.28909 18.785 7.81439 18.4915 7.52154Z" fill="#333333"/>
<path d="M9.99459 6.25208C8.47551 6.25208 7.23962 7.48539 7.23962 9.00129C7.23962 10.5172 8.47551 11.7505 9.99459 11.7505C11.5137 11.7505 12.7496 10.5172 12.7496 9.00129C12.7496 7.48539 11.5137 6.25208 9.99459 6.25208ZM9.99459 10.2509C9.3041 10.2509 8.74236 9.69033 8.74236 9.00124C8.74236 8.3122 9.3041 7.75163 9.99459 7.75163C10.6851 7.75163 11.2469 8.3122 11.2469 9.00124C11.2468 9.69033 10.6851 10.2509 9.99459 10.2509Z" fill="#333333"/>
<path d="M16.005 14.2498C14.4859 14.2498 13.25 15.4831 13.25 16.999C13.25 18.5149 14.4859 19.7482 16.005 19.7482C17.524 19.7482 18.7599 18.5149 18.7599 16.999C18.7599 15.4831 17.524 14.2498 16.005 14.2498ZM16.005 18.2486C15.3145 18.2486 14.7527 17.6881 14.7527 16.999C14.7527 16.31 15.3144 15.7494 16.005 15.7494C16.6954 15.7494 17.2572 16.31 17.2572 16.999C17.2572 17.6881 16.6954 18.2486 16.005 18.2486Z" fill="#333333"/>
</svg>
