<svg width="74" height="74" viewBox="0 0 74 74" fill="none" xmlns="http://www.w3.org/2000/svg">
<path d="M51.532 10.6L35.832 63.4H23.532L36.232 20.8C34.432 21.6666 32.4654 22.4666 30.332 23.2C28.1987 23.9333 25.532 24.7333 22.332 25.6L22.632 23.5C27.2987 22.3 31.232 20.9666 34.432 19.5C37.6987 18.0333 40.532 16.5666 42.932 15.1C45.332 13.5666 47.532 12.0666 49.532 10.6H51.532Z" fill="#FFF7ED"/>
<path fill-rule="evenodd" clip-rule="evenodd" d="M52.8723 9.59998L36.5776 64.4H22.1901L34.6467 22.6165C33.3846 23.1556 32.0545 23.6652 30.6568 24.1457C28.4952 24.8887 25.8056 25.6951 22.5931 26.5652L21.127 26.9623L21.7362 22.6977L22.3827 22.5315C27.0112 21.3413 30.8847 20.0257 34.0151 18.5909L34.0221 18.5877C37.2562 17.1356 40.0477 15.6899 42.4017 14.2519C44.783 12.7303 46.9623 11.2442 48.9404 9.79357L49.2044 9.59998H52.8723ZM42.9317 15.1C40.5317 16.5666 37.6984 18.0333 34.4317 19.5C31.2317 20.9666 27.2984 22.3 22.6317 23.5L22.3317 25.6C22.6888 25.5033 23.0392 25.4074 23.383 25.3124C26.1202 24.5556 28.4364 23.8515 30.3317 23.2C31.9962 22.6278 33.5592 22.0151 35.0208 21.3617C35.4325 21.1777 35.8361 20.9904 36.2317 20.8L23.5317 63.4H35.8317L51.5317 10.6H49.5317C47.5317 12.0666 45.3317 13.5666 42.9317 15.1Z" fill="#DEA81C"/>
</svg>
