<svg width="74" height="74" viewBox="0 0 74 74" fill="none" xmlns="http://www.w3.org/2000/svg">
<path d="M46.5145 10.1582C51.1145 10.1582 54.7811 11.0915 57.5145 12.9582C60.2478 14.7582 61.6145 17.2582 61.6145 20.4582C61.6145 23.0582 60.7478 25.5915 59.0145 28.0582C57.3478 30.5249 55.1811 32.8915 52.5145 35.1582C49.8478 37.3582 46.9811 39.4582 43.9145 41.4582C40.9145 43.4582 38.0145 45.3249 35.2145 47.0582C32.4811 48.7915 30.2145 50.3249 28.4145 51.6582C30.0811 51.6582 32.0145 51.8915 34.2145 52.3582C36.4811 52.8249 38.7811 53.2915 41.1145 53.7582C43.4478 54.2249 45.6145 54.4582 47.6145 54.4582C50.0811 54.4582 52.0478 54.0582 53.5145 53.2582C54.9811 52.4582 55.7145 51.2582 55.7145 49.6582C55.7145 47.4582 54.3811 45.7249 51.7145 44.4582L52.9145 43.1582C54.7811 44.0915 56.1811 45.2249 57.1145 46.5582C58.0478 47.8915 58.5145 49.5249 58.5145 51.4582C58.5145 53.4582 58.0145 55.4249 57.0145 57.3582C56.0145 59.2249 54.4478 60.7582 52.3145 61.9582C50.1811 63.1582 47.3811 63.7582 43.9145 63.7582C41.7811 63.7582 39.7145 63.5249 37.7145 63.0582C35.7811 62.5915 33.7478 62.1249 31.6145 61.6582C29.5478 61.1249 27.2811 60.8249 24.8145 60.7582C22.2145 60.6249 20.0811 60.7915 18.4145 61.2582C16.7478 61.6582 14.8811 62.2915 12.8145 63.1582L13.3145 61.0582C14.7811 59.8582 16.6811 58.4582 19.0145 56.8582C21.3478 55.1915 23.8478 53.3582 26.5145 51.3582C29.2478 49.2915 31.9478 47.0915 34.6145 44.7582C37.2811 42.3582 39.7145 39.8915 41.9145 37.3582C44.1145 34.7582 45.8811 32.0915 47.2145 29.3582C48.6145 26.6249 49.3145 23.8915 49.3145 21.1582C49.3145 18.4249 48.6145 16.3582 47.2145 14.9582C45.8811 13.4915 44.0145 12.7582 41.6145 12.7582C39.6811 12.7582 37.7145 13.2249 35.7145 14.1582C33.7145 15.0249 31.8478 16.2249 30.1145 17.7582C28.4478 19.2249 27.0811 20.8915 26.0145 22.7582C25.0145 24.6249 24.5145 26.5249 24.5145 28.4582C24.5145 30.0582 24.9478 31.2582 25.8145 32.0582C26.6811 32.8582 28.1478 33.2582 30.2145 33.2582C32.1478 33.2582 33.7811 32.9249 35.1145 32.2582C36.5145 31.5249 37.9811 30.4915 39.5145 29.1582L40.7145 30.5582C38.8478 32.2915 36.9478 33.5249 35.0145 34.2582C33.0811 34.9915 31.2811 35.3582 29.6145 35.3582C28.5478 35.3582 27.4145 35.1915 26.2145 34.8582C25.0811 34.4582 24.1145 33.7915 23.3145 32.8582C22.5145 31.8582 22.1145 30.4249 22.1145 28.5582C22.1145 26.3582 22.7145 24.1915 23.9145 22.0582C25.1145 19.8582 26.8145 17.8582 29.0145 16.0582C31.2145 14.2582 33.7811 12.8249 36.7145 11.7582C39.7145 10.6915 42.9811 10.1582 46.5145 10.1582Z" fill="#FFF7ED"/>
<path fill-rule="evenodd" clip-rule="evenodd" d="M36.7145 11.7582C39.7145 10.6915 42.9812 10.1582 46.5145 10.1582C51.1145 10.1582 54.7812 11.0915 57.5145 12.9582C60.2479 14.7582 61.6145 17.2582 61.6145 20.4582C61.6145 23.0582 60.7479 25.5915 59.0145 28.0582C57.3479 30.5249 55.1812 32.8915 52.5145 35.1582C49.8479 37.3582 46.9812 39.4582 43.9145 41.4582C40.9145 43.4582 38.0145 45.3249 35.2145 47.0582C33.1131 48.3908 31.2875 49.6052 29.7378 50.7014C29.2717 51.031 28.8307 51.35 28.4145 51.6582C28.9262 51.6582 29.4629 51.6802 30.0248 51.7242C31.2933 51.8235 32.6899 52.0348 34.2145 52.3582C36.4812 52.8249 38.7812 53.2915 41.1145 53.7582C43.4479 54.2249 45.6145 54.4582 47.6145 54.4582C50.0812 54.4582 52.0479 54.0582 53.5145 53.2582C54.9812 52.4582 55.7145 51.2582 55.7145 49.6582C55.7145 47.726 54.6861 46.1539 52.6292 44.9416C52.3441 44.7736 52.0392 44.6124 51.7145 44.4582L52.9145 43.1582C54.7812 44.0915 56.1812 45.2249 57.1145 46.5582C58.0479 47.8915 58.5145 49.5249 58.5145 51.4582C58.5145 53.4582 58.0145 55.4249 57.0145 57.3582C56.0145 59.2249 54.4479 60.7582 52.3145 61.9582C50.1812 63.1582 47.3812 63.7582 43.9145 63.7582C41.7812 63.7582 39.7145 63.5249 37.7145 63.0582C35.7812 62.5915 33.7479 62.1249 31.6145 61.6582C29.5479 61.1249 27.2812 60.8249 24.8145 60.7582C22.2145 60.6249 20.0812 60.7915 18.4145 61.2582C17.0594 61.5834 15.572 62.0629 13.9524 62.6967C13.5801 62.8424 13.2008 62.9962 12.8145 63.1582L13.3145 61.0582C14.7812 59.8582 16.6812 58.4582 19.0145 56.8582C21.3479 55.1915 23.8479 53.3582 26.5145 51.3582C29.2479 49.2915 31.9479 47.0915 34.6145 44.7582C37.2812 42.3582 39.7145 39.8915 41.9145 37.3582C44.1145 34.7582 45.8812 32.0915 47.2145 29.3582C48.6145 26.6249 49.3145 23.8915 49.3145 21.1582C49.3145 18.4249 48.6145 16.3582 47.2145 14.9582C45.8812 13.4915 44.0145 12.7582 41.6145 12.7582C39.6812 12.7582 37.7145 13.2249 35.7145 14.1582C33.7145 15.0249 31.8479 16.2249 30.1145 17.7582C28.4479 19.2249 27.0812 20.8915 26.0145 22.7582C25.0145 24.6249 24.5145 26.5249 24.5145 28.4582C24.5145 30.0582 24.9479 31.2582 25.8145 32.0582C26.6812 32.8582 28.1479 33.2582 30.2145 33.2582C32.1479 33.2582 33.7812 32.9249 35.1145 32.2582C36.4047 31.5824 37.7515 30.6518 39.1549 29.4664C39.2744 29.3655 39.3943 29.2628 39.5145 29.1582L40.7145 30.5582C38.8479 32.2915 36.9479 33.5249 35.0145 34.2582C33.0812 34.9915 31.2812 35.3582 29.6145 35.3582C28.5479 35.3582 27.4145 35.1915 26.2145 34.8582C25.0812 34.4582 24.1145 33.7915 23.3145 32.8582C22.5145 31.8582 22.1145 30.4249 22.1145 28.5582C22.1145 26.3582 22.7145 24.1915 23.9145 22.0582C25.1145 19.8582 26.8145 17.8582 29.0145 16.0582C31.2145 14.2582 33.7812 12.8249 36.7145 11.7582ZM34.6591 31.3679C35.9714 30.6794 37.3712 29.6968 38.8584 28.4036L39.6184 27.7427L42.0992 30.6371L41.395 31.291C39.455 33.0924 37.4476 34.4048 35.3692 35.1932C33.3488 35.9595 31.4276 36.3582 29.6145 36.3582C28.4438 36.3582 27.2199 36.1753 25.9469 35.8217L25.914 35.8126L25.8817 35.8012C24.5792 35.3415 23.4666 34.5722 22.5553 33.509L22.5443 33.4961L22.5337 33.4829C21.5396 32.2404 21.1145 30.5513 21.1145 28.5582C21.1145 26.1697 21.7674 23.8376 23.0398 21.5735C24.3091 19.2484 26.0967 17.1535 28.3813 15.2842C30.6766 13.4063 33.344 11.9198 36.3728 10.8184L36.3795 10.816C39.4982 9.7071 42.8795 9.1582 46.5145 9.1582C51.236 9.1582 55.1195 10.1143 58.0714 12.1275C61.0734 14.1072 62.6145 16.9154 62.6145 20.4582C62.6145 23.2927 61.6667 26.0206 59.838 28.6256C58.1132 31.1766 55.8836 33.607 53.1622 35.9201L53.1566 35.9249L53.1509 35.9296C50.4551 38.1537 47.5595 40.2747 44.465 42.2931C41.4597 44.2966 38.5531 46.1675 35.7454 47.9057C34.0781 48.9631 32.5895 49.943 31.2785 50.8458C32.2665 50.9665 33.3138 51.145 34.4195 51.3794C36.6832 51.8455 38.9802 52.3116 41.3107 52.7776C43.5912 53.2337 45.6914 53.4582 47.6145 53.4582C49.9878 53.4582 51.7694 53.071 53.0357 52.3803C53.6442 52.0484 54.0518 51.6613 54.3113 51.2368C54.5693 50.8145 54.7145 50.3001 54.7145 49.6582C54.7145 47.9786 53.7439 46.5292 51.2855 45.3615L50.058 44.7784L52.6895 41.9277L53.3618 42.2638C55.3363 43.251 56.8819 44.482 57.9338 45.9847C59.0055 47.5158 59.5145 49.3592 59.5145 51.4582C59.5145 53.6319 58.9696 55.7551 57.9028 57.8176L57.8994 57.8241L57.896 57.8304C56.7929 59.8895 55.0775 61.5514 52.8048 62.8298C50.4723 64.1418 47.4855 64.7582 43.9145 64.7582C41.7077 64.7582 39.5646 64.5168 37.4873 64.032L37.4799 64.0303C35.5542 63.5655 33.5278 63.1004 31.4008 62.6351L31.3827 62.6311L31.3647 62.6265C29.3811 62.1146 27.1904 61.8228 24.7875 61.7578L24.7754 61.7575L24.7633 61.7569C22.2226 61.6266 20.208 61.7945 18.6842 62.2212L18.6661 62.2262L18.6479 62.2306C17.0467 62.6149 15.2324 63.2286 13.2013 64.0804L11.3857 64.8417L12.4199 60.4981L12.6813 60.2843C14.1759 59.0614 16.0981 57.6457 18.441 56.039C20.7642 54.3795 23.2544 52.5533 25.9119 50.5602C28.6237 48.5098 31.3034 46.3265 33.9509 44.0101C36.5853 41.6388 38.9864 39.2044 41.1552 36.7075C43.3061 34.1649 45.0236 31.5686 46.3158 28.9198L46.32 28.911L46.3245 28.9023C47.6613 26.2925 48.3145 23.7143 48.3145 21.1582C48.3145 18.5871 47.6579 16.8157 46.5074 15.6653L46.4906 15.6485L46.4746 15.6309C45.3702 14.416 43.7972 13.7582 41.6145 13.7582C39.8467 13.7582 38.0238 14.1841 36.1374 15.0644L36.1249 15.0703L36.1121 15.0758C34.2146 15.898 32.4364 17.0393 30.7771 18.5072L30.7752 18.5089C29.1921 19.902 27.8988 21.4794 26.8896 23.2424C25.9642 24.974 25.5145 26.709 25.5145 28.4582C25.5145 29.8826 25.8966 30.773 26.4928 31.3234C27.0782 31.8638 28.2264 32.2582 30.2145 32.2582C32.0328 32.2582 33.5008 31.945 34.6591 31.3679Z" fill="#DEA81C"/>
</svg>
