<svg width="74" height="74" viewBox="0 0 74 74" fill="none" xmlns="http://www.w3.org/2000/svg">
<path d="M48.9608 2.83871C53.6942 2.83871 57.4608 3.73871 60.2608 5.53872C63.0608 7.27205 64.4608 9.70538 64.4608 12.8387C64.4608 15.172 63.7608 17.3387 62.3608 19.3387C60.9608 21.272 59.1275 23.0054 56.8608 24.5387C54.6608 26.072 52.2608 27.4054 49.6608 28.5387C47.0608 29.6054 44.5608 30.4387 42.1608 31.0387C45.4942 31.1054 48.5275 31.5721 51.2608 32.4387C53.9942 33.3054 56.1608 34.6054 57.7608 36.3387C59.3608 38.072 60.1608 40.3054 60.1608 43.0387C60.1608 46.572 59.0608 49.8054 56.8608 52.7387C54.6608 55.6054 51.7275 58.1721 48.0608 60.4387C44.4608 62.7054 40.4275 64.6054 35.9608 66.1387C31.5608 67.7387 27.0942 68.9387 22.5608 69.7387C18.0275 70.6054 13.7942 71.0721 9.86084 71.1387L10.3608 69.3387C14.2942 69.0721 18.3942 68.3054 22.6608 67.0387C26.9942 65.772 30.9942 63.972 34.6608 61.6387C38.3942 59.372 41.4275 56.6054 43.7608 53.3387C46.0942 50.0054 47.2608 46.1387 47.2608 41.7387C47.2608 39.072 46.6608 36.9387 45.4608 35.3387C44.2608 33.672 42.5608 32.772 40.3608 32.6387C39.2942 33.1054 38.2608 33.5054 37.2608 33.8387C36.3275 34.172 35.4275 34.3387 34.5608 34.3387C34.0275 34.3387 33.5608 34.2387 33.1608 34.0387C32.7608 33.8387 32.6608 33.4387 32.8608 32.8387C33.0608 31.9054 33.7942 31.3387 35.0608 31.1387C36.3275 30.9387 37.8275 30.9054 39.5608 31.0387C41.8942 30.0387 44.0608 28.772 46.0608 27.2387C48.0608 25.6387 49.6608 23.8054 50.8608 21.7387C52.0608 19.6054 52.6608 17.3054 52.6608 14.8387C52.6608 12.0387 51.8608 9.83871 50.2608 8.23871C48.7275 6.63871 46.5275 5.83871 43.6608 5.83871C41.9275 5.83871 40.1608 6.20538 38.3608 6.93871C36.5608 7.60538 34.8942 8.53871 33.3608 9.73871C31.8942 10.872 30.6942 12.172 29.7608 13.6387C28.8275 15.1054 28.3608 16.6054 28.3608 18.1387C28.3608 19.7387 28.7942 20.9387 29.6608 21.7387C30.5942 22.5387 32.0942 22.9387 34.1608 22.9387C36.4275 22.9387 38.4942 22.4387 40.3608 21.4387L41.4608 22.9387C40.0608 23.672 38.6608 24.2054 37.2608 24.5387C35.9275 24.872 34.6608 25.0387 33.4608 25.0387C32.3942 25.0387 31.2608 24.872 30.0608 24.5387C28.9275 24.1387 27.9608 23.472 27.1608 22.5387C26.3608 21.5387 25.9608 20.1054 25.9608 18.2387C25.9608 15.772 26.9942 13.372 29.0608 11.0387C31.1275 8.70538 33.8942 6.77205 37.3608 5.23871C40.8275 3.63871 44.6942 2.83871 48.9608 2.83871Z" fill="#FFF7ED"/>
<path fill-rule="evenodd" clip-rule="evenodd" d="M40.5501 23.3876C39.4537 23.894 38.3573 24.2777 37.261 24.5387C35.9276 24.872 34.661 25.0387 33.461 25.0387C32.3943 25.0387 31.261 24.872 30.061 24.5387C28.9276 24.1387 27.961 23.472 27.161 22.5387C26.361 21.5387 25.961 20.1054 25.961 18.2387C25.961 15.772 26.9943 13.372 29.061 11.0387C31.1276 8.70538 33.8943 6.77205 37.361 5.23871C40.8276 3.63871 44.6943 2.83871 48.961 2.83871C53.6943 2.83871 57.461 3.73872 60.261 5.53872C63.061 7.27205 64.461 9.70538 64.461 12.8387C64.461 15.172 63.761 17.3387 62.361 19.3387C60.961 21.272 59.1276 23.0054 56.861 24.5387C54.661 26.072 52.261 27.4054 49.661 28.5387C48.1041 29.1774 46.5831 29.7325 45.098 30.2038C44.1029 30.5197 43.1239 30.798 42.161 31.0387C43.2047 31.0596 44.219 31.1197 45.2039 31.219C47.3645 31.4368 49.3835 31.8434 51.261 32.4387C53.9943 33.3054 56.161 34.6054 57.761 36.3387C59.361 38.072 60.161 40.3054 60.161 43.0387C60.161 46.572 59.061 49.8054 56.861 52.7387C54.661 55.6054 51.7276 58.172 48.061 60.4387C44.461 62.7054 40.4276 64.6054 35.961 66.1387C31.561 67.7387 27.0943 68.9387 22.561 69.7387C18.4266 70.5291 14.5417 70.9868 10.9063 71.1118C10.5555 71.1239 10.2071 71.1329 9.86097 71.1387L10.361 69.3387C14.2943 69.072 18.3943 68.3054 22.661 67.0387C26.9943 65.772 30.9943 63.972 34.661 61.6387C38.3943 59.3721 41.4276 56.6054 43.761 53.3387C46.0943 50.0054 47.261 46.1387 47.261 41.7387C47.261 39.072 46.661 36.9387 45.461 35.3387C44.261 33.672 42.561 32.772 40.361 32.6387C39.2943 33.1054 38.261 33.5054 37.261 33.8387C36.3276 34.172 35.4276 34.3387 34.561 34.3387C34.0276 34.3387 33.561 34.2387 33.161 34.0387C32.761 33.8387 32.661 33.4387 32.861 32.8387C33.061 31.9054 33.7943 31.3387 35.061 31.1387C36.3276 30.9387 37.8276 30.9054 39.561 31.0387C41.8943 30.0387 44.061 28.772 46.061 27.2387C48.061 25.6387 49.661 23.8054 50.861 21.7387C52.061 19.6054 52.661 17.3054 52.661 14.8387C52.661 12.0387 51.861 9.83871 50.261 8.23871C48.7276 6.63871 46.5276 5.83871 43.661 5.83871C41.9276 5.83871 40.161 6.20538 38.361 6.93871C36.561 7.60538 34.8943 8.53871 33.361 9.73871C31.8943 10.872 30.6943 12.172 29.761 13.6387C28.8276 15.1054 28.361 16.6054 28.361 18.1387C28.361 19.7387 28.7943 20.9387 29.661 21.7387C30.5943 22.5387 32.0943 22.9387 34.161 22.9387C36.4276 22.9387 38.4943 22.4387 40.361 21.4387L41.461 22.9387C41.1573 23.0978 40.8537 23.2474 40.5501 23.3876ZM30.3257 20.9913C30.9925 21.5539 32.1969 21.9387 34.161 21.9387C36.2748 21.9387 38.1775 21.474 39.8887 20.5572L40.654 20.1473L42.955 23.285L41.925 23.8245C40.4603 24.5918 38.9843 25.1558 37.4979 25.5103C36.0985 25.8597 34.7518 26.0387 33.461 26.0387C32.2902 26.0387 31.0663 25.8558 29.7933 25.5022L29.7604 25.4931L29.7281 25.4817C28.4256 25.022 27.3131 24.2528 26.4017 23.1895L26.3907 23.1766L26.3801 23.1634C25.3861 21.9209 24.961 20.2318 24.961 18.2387C24.961 15.4685 26.1279 12.8421 28.3124 10.3757C30.4912 7.91577 33.3823 5.90607 36.9492 4.3274C40.56 2.66224 44.5697 1.83871 48.961 1.83871C53.805 1.83871 57.7796 2.75734 60.7946 4.69297C63.8661 6.59715 65.461 9.34096 65.461 12.8387C65.461 15.3871 64.6921 17.7523 63.1802 19.9122L63.1756 19.9187L63.1709 19.9252C61.6945 21.9641 59.7739 23.7747 57.4272 25.363C55.1716 26.9345 52.7153 28.2982 50.0606 29.4554L50.0506 29.4598L50.0405 29.4639C49.137 29.8346 48.2443 30.1779 47.3626 30.4938C48.8269 30.7318 50.2274 31.0619 51.5632 31.4855C54.4266 32.3934 56.755 33.7746 58.4958 35.6604C60.2932 37.6076 61.161 40.0966 61.161 43.0387C61.161 46.797 59.9855 50.2393 57.661 53.3387L57.6543 53.3476C55.3685 56.3261 52.3388 58.9694 48.5899 61.2874C44.9213 63.5968 40.8211 65.5269 36.2943 67.0816C31.8457 68.6987 27.328 69.9125 22.7418 70.7223C18.1641 71.5971 13.8754 72.0708 9.87791 72.1386L8.53906 72.1613L9.58694 68.3889L10.2933 68.341C14.1444 68.0799 18.1715 67.3284 22.3764 66.0801L22.3804 66.0789C26.6268 64.8376 30.54 63.0758 34.1241 60.7951L34.133 60.7894L34.142 60.7839C37.7684 58.5822 40.6969 55.9068 42.9445 52.7613C45.1486 49.6108 46.261 45.9494 46.261 41.7387C46.261 39.2168 45.6939 37.316 44.661 35.9387L44.6551 35.9309L44.6494 35.923C43.6802 34.5768 42.34 33.8169 40.5327 33.6543C39.525 34.0882 38.5431 34.4651 37.5871 34.7841C36.5646 35.1482 35.5541 35.3387 34.561 35.3387C33.902 35.3387 33.2769 35.2147 32.7138 34.9331C32.2777 34.7151 31.9431 34.3405 31.8158 33.8312C31.7063 33.3931 31.7752 32.9541 31.8954 32.5745C32.0502 31.9081 32.4046 31.3435 32.9495 30.9224C33.4903 30.5045 34.1662 30.2676 34.905 30.151C36.2065 29.9455 37.7048 29.9076 39.3887 30.0235C41.5586 29.0728 43.5766 27.8823 45.4443 26.4514C47.349 24.9262 48.8611 23.1896 49.9927 21.2426C51.1056 19.2618 51.661 17.1328 51.661 14.8387C51.661 12.2372 50.9239 10.3158 49.5539 8.94582L49.5463 8.9383L49.539 8.93062C48.2455 7.58086 46.3392 6.83871 43.661 6.83871C42.0718 6.83871 40.433 7.17437 38.7383 7.8648L38.7234 7.87088L38.7083 7.87646C37.0066 8.50673 35.4304 9.38897 33.9773 10.5262L33.9724 10.53C32.5912 11.5973 31.4719 12.8128 30.6046 14.1756C29.7594 15.5039 29.361 16.8201 29.361 18.1387C29.361 19.5523 29.7372 20.44 30.3257 20.9913Z" fill="#DEA81C"/>
</svg>
