<svg width="74" height="74" viewBox="0 0 74 74" fill="none" xmlns="http://www.w3.org/2000/svg">
<path d="M57.0352 2.90039L57.3352 5.40039L12.3352 50.7004L14.0352 47.5004H60.9352L59.7352 51.8004H10.0352L10.6352 49.7004L57.0352 2.90039ZM59.6352 2.90039L41.7352 70.1004H29.4352L43.5352 17.4004L57.0352 2.90039H59.6352Z" fill="#FFF7ED"/>
<path fill-rule="evenodd" clip-rule="evenodd" d="M57.0352 2.90039L10.6352 49.7004L10.0352 51.8004H34.3314L29.4352 70.1004H41.7352L46.6098 51.8004H59.7352L60.9352 47.5004H47.7551L59.6352 2.90039H57.0352ZM42.8424 19.9898L15.514 47.5004H35.4819L42.8424 19.9898ZM40.9061 23.358L17.9169 46.5004H34.7143L40.9061 23.358ZM49.0564 46.5004H62.2525L60.4943 52.8004H47.3783L42.5037 71.1004H28.1325L33.0287 52.8004H8.70947L9.74424 49.1787L56.314 2.20752L56.5999 1.90039H56.6185H57.9224H60.9364L49.0564 46.5004Z" fill="#DEA81C"/>
</svg>
