<svg width="51" height="69" viewBox="0 0 51 69" fill="none" xmlns="http://www.w3.org/2000/svg">
<path d="M47.0352 0.899998L47.3352 3.4L2.33516 48.7L4.03516 45.5H50.9352L49.7352 49.8H0.0351559L0.635156 47.7L47.0352 0.899998ZM49.6352 0.899998L31.7352 68.1H19.4352L33.5352 15.4L47.0352 0.899998H49.6352Z" fill="#443E46"/>
<path d="M47.0352 0.899998L48.028 0.780853L47.7816 -1.27316L46.325 0.195934L47.0352 0.899998ZM47.3352 3.39999L48.0446 4.10475L48.3857 3.76139L48.328 3.28085L47.3352 3.39999ZM2.33516 48.7L1.45204 48.2308L3.04461 49.4048L2.33516 48.7ZM4.03516 45.5V44.5H3.43405L3.15204 45.0308L4.03516 45.5ZM50.9352 45.5L51.8984 45.7688L52.2524 44.5H50.9352V45.5ZM49.7352 49.8V50.8H50.4943L50.6984 50.0688L49.7352 49.8ZM0.0351562 49.8L-0.926368 49.5253L-1.29057 50.8H0.0351562V49.8ZM0.635156 47.7L-0.0749788 46.9959L-0.255809 47.1783L-0.326368 47.4253L0.635156 47.7ZM49.6352 0.899998L50.6015 1.15739L50.9364 -0.100002H49.6352V0.899998ZM31.7352 68.1V69.1H32.5037L32.7015 68.3574L31.7352 68.1ZM19.4352 68.1L18.4691 67.8415L18.1324 69.1H19.4352V68.1ZM33.5352 15.4L32.8033 14.7186L32.6335 14.9009L32.5691 15.1415L33.5352 15.4ZM47.0352 0.899998V-0.100002H46.5999L46.3033 0.218578L47.0352 0.899998ZM46.0423 1.01914L46.3423 3.51914L48.328 3.28085L48.028 0.780853L46.0423 1.01914ZM46.6257 2.69524L1.6257 47.9952L3.04461 49.4048L48.0446 4.10475L46.6257 2.69524ZM3.21827 49.1692L4.91827 45.9692L3.15204 45.0308L1.45204 48.2308L3.21827 49.1692ZM4.03516 46.5H50.9352V44.5H4.03516V46.5ZM49.972 45.2312L48.772 49.5312L50.6984 50.0688L51.8984 45.7688L49.972 45.2312ZM49.7352 48.8H0.0351562V50.8H49.7352V48.8ZM0.99668 50.0747L1.59668 47.9747L-0.326368 47.4253L-0.926368 49.5253L0.99668 50.0747ZM1.34529 48.4041L47.7453 1.60406L46.325 0.195934L-0.0749788 46.9959L1.34529 48.4041ZM48.6688 0.642605L30.7689 67.8426L32.7015 68.3574L50.6015 1.15739L48.6688 0.642605ZM31.7352 67.1H19.4352V69.1H31.7352V67.1ZM20.4012 68.3585L34.5012 15.6585L32.5691 15.1415L18.4691 67.8415L20.4012 68.3585ZM34.2671 16.0814L47.7671 1.58142L46.3033 0.218578L32.8033 14.7186L34.2671 16.0814ZM47.0352 1.9H49.6352V-0.100002H47.0352V1.9Z" fill="#DEA81C"/>
</svg>
