<svg width="80" height="140" viewBox="0 0 80 140" fill="none" xmlns="http://www.w3.org/2000/svg">
<path d="M55.0352 38.9004L55.3352 41.4004L10.3352 86.7004L12.0352 83.5004H58.9352L57.7352 87.8004H8.03516L8.63516 85.7004L55.0352 38.9004ZM57.6352 38.9004L39.7352 106.1H27.4352L41.5352 53.4004L55.0352 38.9004H57.6352Z" fill="#FFF7ED"/>
<path fill-rule="evenodd" clip-rule="evenodd" d="M55.0352 38.9004L8.6352 85.7004L8.0352 87.8004H32.3314L27.4352 106.1H39.7352L44.6098 87.8004H57.7352L58.9352 83.5004H45.7551L57.6352 38.9004H55.0352ZM40.8424 55.9898L13.514 83.5004H33.4819L40.8424 55.9898ZM38.9061 59.358L15.9169 82.5004H32.7143L38.9061 59.358ZM47.0564 82.5004H60.2525L58.4943 88.8004H45.3783L40.5037 107.1H26.1325L31.0287 88.8004H6.70947L7.74424 85.1787L54.314 38.2075L54.5999 37.9004H54.6185H55.9224H58.9364L47.0564 82.5004Z" fill="#DEA81C"/>
</svg>
