<svg width="80" height="140" viewBox="0 0 80 140" fill="none" xmlns="http://www.w3.org/2000/svg">
<path d="M59.7601 38.1992L60.9601 38.8992C59.2934 42.8326 57.2601 45.9992 54.8601 48.3992C52.4601 50.7326 49.6601 51.8992 46.4601 51.8992C45.0601 51.8992 43.5934 51.5659 42.0601 50.8992C40.5934 50.2326 39.1601 49.5992 37.7601 48.9992C36.3601 48.3992 35.0601 48.1992 33.8601 48.3992L23.9601 69.3992C25.9601 68.2659 28.1934 67.3992 30.6601 66.7992C33.1267 66.1992 35.8601 65.8992 38.8601 65.8992C44.6601 65.8992 48.8601 66.9992 51.4601 69.1992C54.0601 71.3326 55.3601 74.1326 55.3601 77.5992C55.3601 81.3992 54.3267 84.8326 52.2601 87.8992C50.1934 90.9659 47.4267 93.6326 43.9601 95.8992C40.5601 98.2326 36.7601 100.199 32.5601 101.799C28.4267 103.399 24.2267 104.599 19.9601 105.399C15.6934 106.199 11.7267 106.666 8.06006 106.799L8.56006 104.999C12.2267 104.999 16.0267 104.399 19.9601 103.199C23.8934 101.999 27.5267 100.233 30.8601 97.8992C34.2601 95.6326 36.9934 92.8326 39.0601 89.4992C41.1934 86.0992 42.2601 82.1992 42.2601 77.7992C42.2601 75.1326 41.5267 72.9992 40.0601 71.3992C38.5934 69.7326 36.0934 68.8992 32.5601 68.8992C31.4267 68.8992 30.0267 69.0659 28.3601 69.3992C26.6934 69.6659 24.6601 70.3992 22.2601 71.5992L21.2601 71.0992L35.5601 40.1992C37.3601 40.0659 38.9934 40.2326 40.4601 40.6992C41.9267 41.0992 43.4601 41.5326 45.0601 41.9992C46.6601 42.4659 48.5601 42.6992 50.7601 42.6992C52.6267 42.6992 54.2934 42.3659 55.7601 41.6992C57.2934 41.0326 58.6267 39.8659 59.7601 38.1992Z" fill="#FFF7ED"/>
<path fill-rule="evenodd" clip-rule="evenodd" d="M59.458 36.8652L62.2244 38.4789L61.881 39.2894C60.1766 43.3116 58.0784 46.5952 55.5673 49.1063L55.5574 49.1163C52.9802 51.6218 49.9335 52.8992 46.4602 52.8992C44.8991 52.8992 43.2966 52.5272 41.6615 51.8163L41.6539 51.813L41.6464 51.8096C40.186 51.1457 38.7593 50.5154 37.3663 49.9184C36.3118 49.4665 35.3707 49.2861 34.5265 49.3309L26.0803 67.2472C27.4456 66.6725 28.8939 66.1997 30.4239 65.8276C32.9804 65.2057 35.7945 64.8992 38.8602 64.8992C44.7406 64.8992 49.23 66.0059 52.1003 68.4309C54.9361 70.7603 56.3602 73.8463 56.3602 77.5992C56.3602 81.5925 55.2706 85.2215 53.0895 88.4581C50.9417 91.6451 48.0773 94.4005 44.5168 96.7301C41.0488 99.1089 37.1811 101.109 32.9182 102.733C28.7298 104.354 24.4717 105.571 20.1445 106.382C15.8376 107.19 11.8209 107.663 8.09655 107.799L6.73096 107.848L7.80012 103.999H8.56021C12.1168 103.999 15.8183 103.417 19.6684 102.243C23.5023 101.073 27.0404 99.3524 30.2867 97.08L30.2961 97.0735L30.3055 97.0672C33.5915 94.8765 36.2222 92.1788 38.2103 88.9723L38.2131 88.9677C40.237 85.7422 41.2602 82.0299 41.2602 77.7992C41.2602 75.3228 40.5841 73.4506 39.3231 72.0749L39.3162 72.0675L39.3095 72.0598C38.1206 70.7088 35.9734 69.8992 32.5602 69.8992C31.5166 69.8992 30.187 70.0537 28.5563 70.3798L28.5373 70.3836L28.5182 70.3867C26.9934 70.6306 25.0633 71.3157 22.7074 72.4936L22.2602 72.7173L19.9452 71.5597L34.8997 39.2454L35.4863 39.202C37.384 39.0614 39.141 39.2334 40.743 39.7398C42.2098 40.14 43.7423 40.5732 45.3402 41.0392C46.8255 41.4724 48.6266 41.6992 50.7602 41.6992C52.5066 41.6992 54.0287 41.3878 55.3464 40.7889L55.3539 40.7854L55.3615 40.7822C56.6887 40.2051 57.8843 39.1796 58.9333 37.6369L59.458 36.8652ZM40.4602 40.6992C38.9935 40.2326 37.3602 40.0659 35.5602 40.1992L21.2602 71.0992L22.2602 71.5992C24.6602 70.3992 26.6935 69.6659 28.3602 69.3992C30.0269 69.0659 31.4269 68.8992 32.5602 68.8992C36.0935 68.8992 38.5935 69.7326 40.0602 71.3992C41.5269 72.9992 42.2602 75.1326 42.2602 77.7992C42.2602 82.1992 41.1935 86.0992 39.0602 89.4992C36.9935 92.8326 34.2602 95.6326 30.8602 97.8992C27.5269 100.233 23.8935 101.999 19.9602 103.199C16.0269 104.399 12.2269 104.999 8.56021 104.999L8.06021 106.799C8.40781 106.787 8.75811 106.771 9.1111 106.752C12.4817 106.574 16.098 106.123 19.9602 105.399C24.2269 104.599 28.4269 103.399 32.5602 101.799C36.7602 100.199 40.5602 98.2326 43.9602 95.8992C47.4269 93.6326 50.1935 90.9659 52.2602 87.8992C54.3269 84.8326 55.3602 81.3992 55.3602 77.5992C55.3602 74.1326 54.0602 71.3326 51.4602 69.1992C48.8602 66.9992 44.6602 65.8992 38.8602 65.8992C35.8602 65.8992 33.1269 66.1992 30.6602 66.7992C28.7796 67.2567 27.0346 67.8691 25.4253 68.6366C24.9238 68.8757 24.4354 69.1299 23.9602 69.3992L33.8602 48.3992C35.0602 48.1992 36.3602 48.3992 37.7602 48.9992C39.1602 49.5992 40.5935 50.2326 42.0602 50.8992C43.5935 51.5659 45.0602 51.8992 46.4602 51.8992C49.6602 51.8992 52.4602 50.7326 54.8602 48.3992C57.2602 45.9992 59.2935 42.8326 60.9602 38.8992L59.7602 38.1992C58.6269 39.8659 57.2935 41.0326 55.7602 41.6992C54.2935 42.3659 52.6269 42.6992 50.7602 42.6992C48.5602 42.6992 46.6602 42.4659 45.0602 41.9992C43.4602 41.5326 41.9269 41.0992 40.4602 40.6992Z" fill="#DEA81C"/>
</svg>
