<svg width="74" height="74" viewBox="0 0 74 74" fill="none" xmlns="http://www.w3.org/2000/svg">
<path d="M61.7601 2.19922L62.9601 2.89922C61.2934 6.83255 59.2601 9.99922 56.8601 12.3992C54.4601 14.7326 51.6601 15.8992 48.4601 15.8992C47.0601 15.8992 45.5934 15.5659 44.0601 14.8992C42.5934 14.2326 41.1601 13.5992 39.7601 12.9992C38.3601 12.3992 37.0601 12.1992 35.8601 12.3992L25.9601 33.3992C27.9601 32.2659 30.1934 31.3992 32.6601 30.7992C35.1267 30.1992 37.8601 29.8992 40.8601 29.8992C46.6601 29.8992 50.8601 30.9992 53.4601 33.1992C56.0601 35.3326 57.3601 38.1326 57.3601 41.5992C57.3601 45.3992 56.3267 48.8326 54.2601 51.8992C52.1934 54.9659 49.4267 57.6326 45.9601 59.8992C42.5601 62.2326 38.7601 64.1992 34.5601 65.7992C30.4267 67.3992 26.2267 68.5992 21.9601 69.3992C17.6934 70.1992 13.7267 70.6659 10.0601 70.7992L10.5601 68.9992C14.2267 68.9992 18.0267 68.3992 21.9601 67.1992C25.8934 65.9992 29.5267 64.2326 32.8601 61.8992C36.2601 59.6326 38.9934 56.8326 41.0601 53.4992C43.1934 50.0992 44.2601 46.1992 44.2601 41.7992C44.2601 39.1326 43.5267 36.9992 42.0601 35.3992C40.5934 33.7326 38.0934 32.8992 34.5601 32.8992C33.4267 32.8992 32.0267 33.0659 30.3601 33.3992C28.6934 33.6659 26.6601 34.3992 24.2601 35.5992L23.2601 35.0992L37.5601 4.19922C39.3601 4.06589 40.9934 4.23255 42.4601 4.69922C43.9267 5.09922 45.4601 5.53255 47.0601 5.99922C48.6601 6.46589 50.5601 6.69922 52.7601 6.69922C54.6267 6.69922 56.2934 6.36588 57.7601 5.69922C59.2934 5.03255 60.6267 3.86589 61.7601 2.19922Z" fill="#FFF7ED"/>
<path fill-rule="evenodd" clip-rule="evenodd" d="M61.458 0.865234L64.2244 2.47894L63.881 3.28937C62.1766 7.31163 60.0784 10.5952 57.5673 13.1063L57.5574 13.1163C54.9802 15.6218 51.9335 16.8992 48.4602 16.8992C46.8991 16.8992 45.2966 16.5272 43.6615 15.8163L43.6539 15.813L43.6464 15.8096C42.186 15.1457 40.7593 14.5154 39.3663 13.9184C38.3118 13.4665 37.3707 13.2861 36.5265 13.3309L28.0803 31.2472C29.4456 30.6725 30.8939 30.1997 32.4239 29.8276C34.9804 29.2057 37.7945 28.8992 40.8602 28.8992C46.7406 28.8992 51.23 30.0059 54.1003 32.4309C56.9361 34.7603 58.3602 37.8463 58.3602 41.5992C58.3602 45.5925 57.2706 49.2215 55.0895 52.4581C52.9417 55.6451 50.0773 58.4005 46.5168 60.7301C43.0488 63.1089 39.1811 65.1088 34.9182 66.7329C30.7298 68.354 26.4717 69.5707 22.1445 70.3821C17.8376 71.1896 13.8209 71.6631 10.0965 71.7986L8.73096 71.8482L9.80012 67.9992H10.5602C14.1168 67.9992 17.8183 67.4174 21.6684 66.2427C25.5023 65.0731 29.0404 63.3524 32.2867 61.08L32.2961 61.0735L32.3055 61.0672C35.5915 58.8765 38.2222 56.1788 40.2103 52.9723L40.2131 52.9677C42.237 49.7422 43.2602 46.0299 43.2602 41.7992C43.2602 39.3228 42.5841 37.4506 41.3231 36.0749L41.3162 36.0675L41.3095 36.0598C40.1206 34.7088 37.9734 33.8992 34.5602 33.8992C33.5166 33.8992 32.187 34.0537 30.5563 34.3798L30.5373 34.3836L30.5182 34.3867C28.9934 34.6306 27.0633 35.3157 24.7074 36.4936L24.2602 36.7173L21.9452 35.5597L36.8997 3.24541L37.4863 3.20195C39.384 3.06139 41.141 3.23336 42.743 3.73982C44.2098 4.14001 45.7423 4.57315 47.3402 5.03922C48.8255 5.47244 50.6266 5.69922 52.7602 5.69922C54.5066 5.69922 56.0287 5.38779 57.3464 4.78885L57.3539 4.78544L57.3615 4.78215C58.6887 4.2051 59.8843 3.1796 60.9333 1.63691L61.458 0.865234ZM42.4602 4.69922C40.9935 4.23255 39.3602 4.06589 37.5602 4.19922L23.2602 35.0992L24.2602 35.5992C26.6602 34.3992 28.6935 33.6659 30.3602 33.3992C32.0269 33.0659 33.4269 32.8992 34.5602 32.8992C38.0935 32.8992 40.5935 33.7326 42.0602 35.3992C43.5269 36.9992 44.2602 39.1326 44.2602 41.7992C44.2602 46.1992 43.1935 50.0992 41.0602 53.4992C38.9935 56.8326 36.2602 59.6326 32.8602 61.8992C29.5269 64.2326 25.8935 65.9992 21.9602 67.1992C18.0269 68.3992 14.2269 68.9992 10.5602 68.9992L10.0602 70.7992C10.4078 70.7866 10.7581 70.771 11.1111 70.7523C14.4817 70.5744 18.098 70.1234 21.9602 69.3992C26.2269 68.5992 30.4269 67.3992 34.5602 65.7992C38.7602 64.1992 42.5602 62.2326 45.9602 59.8992C49.4269 57.6326 52.1935 54.9659 54.2602 51.8992C56.3269 48.8326 57.3602 45.3992 57.3602 41.5992C57.3602 38.1326 56.0602 35.3326 53.4602 33.1992C50.8602 30.9992 46.6602 29.8992 40.8602 29.8992C37.8602 29.8992 35.1269 30.1992 32.6602 30.7992C30.7796 31.2567 29.0346 31.8691 27.4253 32.6366C26.9238 32.8757 26.4354 33.1299 25.9602 33.3992L35.8602 12.3992C37.0602 12.1992 38.3602 12.3992 39.7602 12.9992C41.1602 13.5992 42.5935 14.2326 44.0602 14.8992C45.5935 15.5659 47.0602 15.8992 48.4602 15.8992C51.6602 15.8992 54.4602 14.7326 56.8602 12.3992C59.2602 9.99922 61.2935 6.83255 62.9602 2.89922L61.7602 2.19922C60.6269 3.86589 59.2935 5.03255 57.7602 5.69922C56.2935 6.36589 54.6269 6.69922 52.7602 6.69922C50.5602 6.69922 48.6602 6.46589 47.0602 5.99922C45.4602 5.53255 43.9269 5.09922 42.4602 4.69922Z" fill="#DEA81C"/>
</svg>
