<svg width="53" height="69" viewBox="0 0 53 69" fill="none" xmlns="http://www.w3.org/2000/svg">
<path d="M51.7602 0.199995L52.9602 0.899998C51.2935 4.83333 49.2602 8 46.8602 10.4C44.4602 12.7333 41.6602 13.9 38.4602 13.9C37.0602 13.9 35.5935 13.5667 34.0602 12.9C32.5935 12.2333 31.1602 11.6 29.7602 11C28.3602 10.4 27.0602 10.2 25.8602 10.4L15.9602 31.4C17.9602 30.2667 20.1935 29.4 22.6602 28.8C25.1268 28.2 27.8602 27.9 30.8602 27.9C36.6602 27.9 40.8602 29 43.4602 31.2C46.0602 33.3333 47.3602 36.1333 47.3602 39.6C47.3602 43.4 46.3268 46.8333 44.2602 49.9C42.1935 52.9667 39.4268 55.6333 35.9602 57.9C32.5602 60.2333 28.7602 62.2 24.5602 63.8C20.4268 65.4 16.2268 66.6 11.9602 67.4C7.69349 68.2 3.72682 68.6667 0.060156 68.8L0.560156 67C4.22682 67 8.02682 66.4 11.9602 65.2C15.8935 64 19.5268 62.2333 22.8602 59.9C26.2602 57.6333 28.9935 54.8333 31.0602 51.5C33.1935 48.1 34.2602 44.2 34.2602 39.8C34.2602 37.1333 33.5268 35 32.0602 33.4C30.5935 31.7333 28.0935 30.9 24.5602 30.9C23.4268 30.9 22.0268 31.0667 20.3602 31.4C18.6935 31.6667 16.6602 32.4 14.2602 33.6L13.2602 33.1L27.5602 2.2C29.3602 2.06666 30.9935 2.23333 32.4602 2.7C33.9268 3.1 35.4602 3.53333 37.0602 4C38.6602 4.46666 40.5602 4.7 42.7602 4.7C44.6268 4.7 46.2935 4.36666 47.7602 3.7C49.2935 3.03333 50.6268 1.86666 51.7602 0.199995Z" fill="#FFF7ED"/>
<path d="M51.7602 0.199997L52.264 -0.663784L51.458 -1.13399L50.9332 -0.362312L51.7602 0.199997ZM52.9602 0.899998L53.8809 1.29015L54.2243 0.479721L53.464 0.0362206L52.9602 0.899998ZM46.8602 10.4L47.5573 11.1171L47.5673 11.1071L46.8602 10.4ZM34.0602 12.9L33.6464 13.8104L33.6539 13.8138L33.6614 13.8171L34.0602 12.9ZM29.7602 11L29.3662 11.9191L29.7602 11ZM25.8602 10.4L25.6958 9.4136L25.179 9.49973L24.9556 9.97358L25.8602 10.4ZM15.9602 31.4L15.0556 30.9736L13.7122 33.8232L16.4532 32.27L15.9602 31.4ZM22.6602 28.8L22.8965 29.7717L22.6602 28.8ZM43.4602 31.2L42.8142 31.9634L42.82 31.9683L42.8258 31.9731L43.4602 31.2ZM44.2602 49.9L43.4309 49.3411L44.2602 49.9ZM35.9602 57.9L35.4129 57.063L35.4035 57.0692L35.3943 57.0755L35.9602 57.9ZM24.5602 63.8L24.2042 62.8655L24.1992 62.8674L24.5602 63.8ZM11.9602 67.4L11.7759 66.4171L11.9602 67.4ZM0.0601559 68.8L-0.903362 68.5324L-1.2691 69.849L0.0964956 69.7993L0.0601559 68.8ZM0.560156 67V66H-0.199929L-0.403362 66.7324L0.560156 67ZM11.9602 65.2L11.6684 64.2435L11.9602 65.2ZM22.8602 59.9L22.3055 59.0679L22.296 59.0742L22.2867 59.0808L22.8602 59.9ZM31.0602 51.5L30.2131 50.9685L30.2103 50.9731L31.0602 51.5ZM32.0602 33.4L31.3094 34.0606L31.3161 34.0682L31.323 34.0757L32.0602 33.4ZM20.3602 31.4L20.5181 32.3874L20.5373 32.3844L20.5563 32.3806L20.3602 31.4ZM14.2602 33.6L13.8129 34.4944L14.2602 34.718L14.7074 34.4944L14.2602 33.6ZM13.2602 33.1L12.3526 32.68L11.9451 33.5605L12.8129 33.9944L13.2602 33.1ZM27.5602 2.2L27.4863 1.20273L26.8997 1.24619L26.6526 1.78001L27.5602 2.2ZM32.4602 2.7L32.157 3.65292L32.1769 3.65926L32.197 3.66476L32.4602 2.7ZM37.0602 4L36.7802 4.96H36.7802L37.0602 4ZM47.7602 3.7L47.3614 2.78293L47.3539 2.78622L47.3464 2.78963L47.7602 3.7ZM51.2563 1.06377L52.4563 1.76377L53.464 0.0362206L52.264 -0.663784L51.2563 1.06377ZM52.0394 0.50985C50.4104 4.35425 48.4419 7.40401 46.1531 9.69289L47.5673 11.1071C50.0784 8.59599 52.1766 5.31241 53.8809 1.29015L52.0394 0.50985ZM46.1631 9.683C43.9402 11.8441 41.3868 12.9 38.4602 12.9V14.9C41.9335 14.9 44.9801 13.6225 47.5572 11.117L46.1631 9.683ZM38.4602 12.9C37.2213 12.9 35.8904 12.6053 34.4589 11.9829L33.6614 13.8171C35.2966 14.528 36.899 14.9 38.4602 14.9V12.9ZM34.474 11.9896C33.0011 11.3201 31.5611 10.6839 30.1541 10.0809L29.3662 11.9191C30.7592 12.5161 32.1859 13.1465 33.6464 13.8104L34.474 11.9896ZM30.1541 10.0809C28.6224 9.42443 27.1269 9.17509 25.6958 9.4136L26.0246 11.3864C26.9934 11.2249 28.0979 11.3756 29.3662 11.9191L30.1541 10.0809ZM24.9556 9.97358L15.0556 30.9736L16.8647 31.8264L26.7647 10.8264L24.9556 9.97358ZM16.4532 32.27C18.3648 31.1867 20.5104 30.3521 22.8965 29.7717L22.4238 27.8283C19.8766 28.4479 17.5555 29.3466 15.4671 30.53L16.4532 32.27ZM22.8965 29.7717C25.2733 29.1935 27.9258 28.9 30.8602 28.9V26.9C27.7945 26.9 24.9803 27.2065 22.4238 27.8283L22.8965 29.7717ZM30.8602 28.9C36.5758 28.9 40.4842 29.9919 42.8142 31.9634L44.1061 30.4366C41.2361 28.0081 36.7445 26.9 30.8602 26.9V28.9ZM42.8258 31.9731C45.1862 33.9098 46.3602 36.4221 46.3602 39.6H48.3602C48.3602 35.8445 46.9341 32.7569 44.0945 30.4269L42.8258 31.9731ZM46.3602 39.6C46.3602 43.2067 45.3831 46.4444 43.4309 49.3411L45.0894 50.4589C47.2706 47.2223 48.3602 43.5933 48.3602 39.6H46.3602ZM43.4309 49.3411C41.4472 52.2847 38.7814 54.8606 35.4129 57.063L36.5074 58.737C40.0723 56.4061 42.9398 53.6486 45.0894 50.4589L43.4309 49.3411ZM35.3943 57.0755C32.0652 59.3602 28.3367 61.2912 24.2042 62.8655L24.9162 64.7345C29.1836 63.1088 33.0551 61.1065 36.526 58.7245L35.3943 57.0755ZM24.1992 62.8674C20.1219 64.4457 15.981 65.6287 11.7759 66.4171L12.1444 68.3829C16.4727 67.5713 20.7318 66.3543 24.9212 64.7326L24.1992 62.8674ZM11.7759 66.4171C7.54947 67.2096 3.63281 67.6694 0.0238161 67.8007L0.0964956 69.7993C3.82083 69.6639 7.83751 69.1904 12.1444 68.3829L11.7759 66.4171ZM1.02367 69.0676L1.52367 67.2676L-0.403362 66.7324L-0.903362 68.5324L1.02367 69.0676ZM0.560156 68C4.3369 68 8.23538 67.3819 12.252 66.1565L11.6684 64.2435C7.81827 65.4181 4.11675 66 0.560156 66V68ZM12.252 66.1565C16.2847 64.9261 20.0133 63.1135 23.4336 60.7192L22.2867 59.0808C19.0404 61.3532 15.5023 63.0739 11.6684 64.2435L12.252 66.1565ZM23.4149 60.732C26.9289 58.3894 29.7648 55.487 31.9101 52.0269L30.2103 50.9731C28.2222 54.1796 25.5915 56.8773 22.3055 59.0679L23.4149 60.732ZM31.9072 52.0315C34.15 48.4571 35.2602 44.3693 35.2602 39.8H33.2602C33.2602 44.0307 32.237 47.7429 30.2131 50.9685L31.9072 52.0315ZM35.2602 39.8C35.2602 36.9431 34.4696 34.5486 32.7973 32.7243L31.323 34.0757C32.584 35.4514 33.2602 37.3236 33.2602 39.8H35.2602ZM32.8109 32.7394C31.0664 30.757 28.2136 29.9 24.5602 29.9V31.9C27.9734 31.9 30.1206 32.7096 31.3094 34.0606L32.8109 32.7394ZM24.5602 29.9C23.3371 29.9 21.8667 30.0789 20.164 30.4194L20.5563 32.3806C22.187 32.0544 23.5165 31.9 24.5602 31.9V29.9ZM20.2022 30.4126C18.3936 30.7019 16.257 31.4835 13.8129 32.7056L14.7074 34.4944C17.0633 33.3165 18.9934 32.6314 20.5181 32.3874L20.2022 30.4126ZM14.7074 32.7056L13.7074 32.2056L12.8129 33.9944L13.8129 34.4944L14.7074 32.7056ZM14.1677 33.52L28.4677 2.61999L26.6526 1.78001L12.3526 32.68L14.1677 33.52ZM27.634 3.19727C29.3283 3.07176 30.8311 3.23106 32.157 3.65292L32.7634 1.74707C31.1559 1.2356 29.392 1.06157 27.4863 1.20273L27.634 3.19727ZM32.197 3.66476C33.6576 4.06308 35.1852 4.49482 36.7802 4.96L37.3402 3.04C35.7351 2.57185 34.1961 2.13691 32.7233 1.73523L32.197 3.66476ZM36.7802 4.96C38.4948 5.46011 40.4938 5.7 42.7602 5.7V3.7C40.6266 3.7 38.8255 3.47322 37.3402 3.04L36.7802 4.96ZM42.7602 5.7C44.7471 5.7 46.5583 5.34476 48.174 4.61036L47.3464 2.78963C46.0287 3.38857 44.5066 3.7 42.7602 3.7V5.7ZM48.1589 4.61707C49.8983 3.86079 51.3694 2.55295 52.5871 0.762306L50.9332 -0.362312C49.8842 1.18037 48.6887 2.20588 47.3614 2.78293L48.1589 4.61707Z" fill="#DEA81C"/>
</svg>
