<svg width="74" height="74" viewBox="0 0 74 74" fill="none" xmlns="http://www.w3.org/2000/svg">
<path d="M61.5893 1.11719L62.1756 3.07124C58.6583 3.98313 55.1084 5.57893 51.526 7.85865C47.9436 10.1384 44.524 12.9717 41.2673 16.3588C38.0756 19.7458 35.1771 23.6539 32.5717 28.083C30.0315 32.5122 28.0123 37.3322 26.5142 42.543C25.0812 47.7538 24.3647 53.3228 24.3647 59.2501C24.3647 63.8747 24.8858 67.0012 25.928 68.6295C26.9701 70.2579 28.3705 71.0721 30.1292 71.0721C32.5392 71.0721 34.6886 70.0951 36.5775 68.141C38.5316 66.187 40.1925 63.7118 41.5604 60.7156C42.9933 57.6543 44.0681 54.4627 44.7845 51.1408C45.501 47.7538 45.8593 44.6924 45.8593 41.9568C45.8593 38.6349 45.3708 36.29 44.3937 34.9222C43.4167 33.5544 42.1466 32.8705 40.5833 32.8705C38.955 32.8705 37.2289 33.6521 35.4051 35.2153C33.6465 36.7786 32.1158 39.5794 30.8131 43.6177L29.1522 43.0315C30.2595 39.4491 31.6599 36.6157 33.3534 34.5314C35.0469 32.4471 36.9032 30.9816 38.9224 30.1348C41.0067 29.288 43.1236 28.8647 45.2731 28.8647C49.1811 28.8647 52.3728 30.1348 54.8479 32.6751C57.323 35.1502 58.5606 38.7977 58.5606 43.6177C58.5606 47.3956 57.7464 51.0431 56.118 54.5604C54.5548 58.0777 52.3402 61.2367 49.4743 64.0375C46.6735 66.7732 43.4167 68.9552 39.704 70.5836C36.0565 72.212 32.1484 73.0261 27.9797 73.0261C22.7038 73.0261 18.698 71.5606 15.9623 68.6295C13.2918 65.6985 11.9565 61.2367 11.9565 55.2443C11.9565 49.4473 13.0638 43.976 15.2784 38.8303C17.5581 33.6195 20.5218 28.8647 24.1693 24.5658C27.8169 20.2669 31.8227 16.489 36.1867 13.2323C40.6159 9.9104 45.0451 7.23987 49.4743 5.22069C53.9034 3.13638 57.9418 1.76854 61.5893 1.11719Z" fill="#FFF7ED"/>
<path fill-rule="evenodd" clip-rule="evenodd" d="M62.2749 0L63.4029 3.76007L62.4207 4.01471C59.0174 4.89706 55.5609 6.44675 52.0505 8.68064C48.5414 10.9137 45.1825 13.6948 41.9749 17.0301C38.8407 20.3568 35.9871 24.2023 33.4166 28.5715C30.9198 32.9257 28.9318 37.6692 27.4547 42.8052C26.0481 47.9224 25.3417 53.4018 25.3417 59.2478C25.3417 61.5284 25.4706 63.4084 25.7193 64.9005C25.9702 66.4063 26.3322 67.4464 26.7509 68.1006C27.6347 69.4815 28.7412 70.0928 30.1292 70.0928C32.2393 70.0928 34.1444 69.25 35.875 67.4597L35.8808 67.4537L35.8867 67.4479C37.7441 65.5904 39.3431 63.2176 40.6715 60.3076L40.6754 60.2991C42.0768 57.3053 43.128 54.1842 43.829 50.9344C44.5347 47.598 44.8822 44.6066 44.8822 41.9545C44.8822 38.6699 44.3878 36.5926 43.5987 35.4878C42.7889 34.3541 41.8042 33.8452 40.5833 33.8452C39.2788 33.8452 37.7734 34.4716 36.0477 35.949C34.4891 37.338 33.0272 39.9341 31.7429 43.9154L31.4347 44.8709L27.9413 43.638L28.2187 42.7407C29.3493 39.0828 30.7982 36.1245 32.5951 33.913C34.3673 31.7318 36.347 30.153 38.5445 29.2315L38.5546 29.2273C40.7502 28.3353 42.9917 27.8854 45.273 27.8854C49.4127 27.8854 52.865 29.2402 55.5431 31.9863C58.2586 34.7047 59.5376 38.6388 59.5376 43.6154C59.5376 47.5363 58.692 51.3212 57.0078 54.9616C55.3925 58.5938 53.106 61.8521 50.1571 64.734C47.27 67.554 43.9149 69.8008 40.0997 71.4746C36.3221 73.1606 32.2785 74.0009 27.9797 74.0009C22.5227 74.0009 18.2219 72.4802 15.2481 69.2939L15.24 69.2853C12.3391 66.1014 10.9795 61.3569 10.9795 55.242C10.9795 49.3169 12.112 43.7137 14.381 38.4418L14.3833 38.4364C16.7007 33.1394 19.7148 28.3034 23.4243 23.9314C27.1177 19.5784 31.1769 15.7496 35.6019 12.4473C40.0775 9.09073 44.5646 6.38338 49.0635 4.33187C53.545 2.22336 57.665 0.823203 61.4176 0.153096L62.2749 0ZM49.4742 5.21841C45.0451 7.23759 40.6159 9.90812 36.1867 13.23C31.8227 16.4867 27.8169 20.2646 24.1693 24.5635C20.5218 28.8624 17.5581 33.6172 15.2784 38.828C13.0638 43.9737 11.9565 49.445 11.9565 55.242C11.9565 61.2344 13.2918 65.6962 15.9623 68.6272C18.698 71.5583 22.7038 73.0239 27.9797 73.0239C32.1483 73.0239 36.0564 72.2097 39.704 70.5813C43.4167 68.9529 46.6734 66.7709 49.4742 64.0352C52.3402 61.2344 54.5547 58.0754 56.118 54.5581C57.7464 51.0408 58.5605 47.3933 58.5605 43.6154C58.5605 38.7955 57.323 35.1479 54.8479 32.6728C52.3727 30.1325 49.1811 28.8624 45.273 28.8624C43.1236 28.8624 41.0067 29.2858 38.9224 30.1325C36.9032 30.9793 35.0468 32.4448 33.3533 34.5291C31.6598 36.6134 30.2594 39.4468 29.1521 43.0292L30.8131 43.6154C30.9152 43.299 31.0186 42.9902 31.1235 42.6889C32.3571 39.1457 33.7842 36.6538 35.4051 35.213C37.2289 33.6498 38.9549 32.8682 40.5833 32.8682C42.1465 32.8682 43.4167 33.5521 44.3937 34.9199C45.3707 36.2878 45.8592 38.6326 45.8592 41.9545C45.8592 44.6902 45.501 47.7515 44.7845 51.1385C44.068 54.4604 42.9933 57.652 41.5603 60.7134C40.1925 63.7096 38.5316 66.1847 36.5775 68.1387C34.6886 70.0928 32.5391 71.0698 30.1292 71.0698C28.3705 71.0698 26.9701 70.2556 25.928 68.6272C24.8858 66.9989 24.3647 63.8724 24.3647 59.2478C24.3647 53.3205 25.0812 47.7515 26.5142 42.5407C28.0123 37.3299 30.0315 32.5099 32.5717 28.0808C35.1771 23.6516 38.0756 19.7435 41.2672 16.3565C44.524 12.9695 47.9436 10.1361 51.526 7.85637C54.7889 5.77999 58.0247 4.27096 61.2336 3.32928C61.5478 3.23707 61.8618 3.15029 62.1755 3.06895L61.5893 1.1149C57.9418 1.76626 53.9034 3.13409 49.4742 5.21841Z" fill="#DEA81C"/>
</svg>
