<svg width="52" height="75" viewBox="0 0 52 75" fill="none" xmlns="http://www.w3.org/2000/svg">
<path d="M51.1633 0.799994L51.7633 2.8C48.1633 3.73333 44.5299 5.36666 40.8633 7.69999C37.1966 10.0333 33.6966 12.9333 30.3633 16.4C27.0966 19.8667 24.1299 23.8667 21.4633 28.4C18.8633 32.9333 16.7966 37.8667 15.2633 43.2C13.7966 48.5333 13.0633 54.2333 13.0633 60.3C13.0633 65.0333 13.5966 68.2333 14.6633 69.9C15.7299 71.5667 17.1633 72.4 18.9633 72.4C21.4299 72.4 23.6299 71.4 25.5633 69.4C27.5633 67.4 29.2633 64.8667 30.6633 61.8C32.1299 58.6667 33.23 55.4 33.9633 52C34.6966 48.5333 35.0633 45.4 35.0633 42.6C35.0633 39.2 34.5633 36.8 33.5633 35.4C32.5633 34 31.2633 33.3 29.6633 33.3C27.9966 33.3 26.2299 34.1 24.3633 35.7C22.5633 37.3 20.9966 40.1667 19.6633 44.3L17.9633 43.7C19.0966 40.0333 20.5299 37.1333 22.2633 35C23.9966 32.8667 25.8966 31.3667 27.9633 30.5C30.0966 29.6333 32.2633 29.2 34.4633 29.2C38.4633 29.2 41.7299 30.5 44.2633 33.1C46.7966 35.6333 48.0633 39.3667 48.0633 44.3C48.0633 48.1667 47.23 51.9 45.5633 55.5C43.9633 59.1 41.6966 62.3333 38.7633 65.2C35.8966 68 32.5633 70.2333 28.7633 71.9C25.0299 73.5667 21.0299 74.4 16.7633 74.4C11.3633 74.4 7.26328 72.9 4.46328 69.9C1.72995 66.9 0.363281 62.3333 0.363281 56.2C0.363281 50.2667 1.49661 44.6667 3.76328 39.4C6.09662 34.0667 9.12995 29.2 12.8633 24.8C16.5966 20.4 20.6966 16.5333 25.1633 13.2C29.6966 9.8 34.23 7.06666 38.7633 5C43.2966 2.86667 47.43 1.46666 51.1633 0.799994Z" fill="#FFF7ED"/>
<path d="M51.1633 0.799994L52.1211 0.512648L51.865 -0.341129L50.9875 -0.184433L51.1633 0.799994ZM51.7633 2.8L52.0142 3.76799L53.0195 3.50737L52.7211 2.51265L51.7633 2.8ZM40.8633 7.7L40.3264 6.85633L40.8633 7.7ZM30.3633 16.4L29.6424 15.7069L29.6355 15.7142L30.3633 16.4ZM21.4633 28.4L20.6013 27.8929L20.5958 27.9025L21.4633 28.4ZM15.2633 43.2L14.3021 42.9237L14.2991 42.9348L15.2633 43.2ZM14.6633 69.9L15.5056 69.3609L14.6633 69.9ZM25.5633 69.4L24.8562 68.6929L24.8502 68.6989L24.8443 68.705L25.5633 69.4ZM30.6633 61.8L29.7575 61.376L29.7536 61.3847L30.6633 61.8ZM33.9633 52L34.9408 52.2108L34.9416 52.207L33.9633 52ZM33.5633 35.4L34.377 34.8188L33.5633 35.4ZM24.3633 35.7L23.7125 34.9407L23.7057 34.9466L23.6989 34.9526L24.3633 35.7ZM19.6633 44.3L19.3305 45.243L20.2995 45.585L20.615 44.607L19.6633 44.3ZM17.9633 43.7L17.0079 43.4047L16.724 44.3231L17.6305 44.643L17.9633 43.7ZM22.2633 35L23.0394 35.6306L22.2633 35ZM27.9633 30.5L27.5869 29.5735L27.5766 29.5778L27.9633 30.5ZM44.2633 33.1L43.547 33.7979L43.5562 33.8071L44.2633 33.1ZM45.5633 55.5L44.6558 55.0799L44.6526 55.0868L44.6495 55.0939L45.5633 55.5ZM38.7633 65.2L39.462 65.9154L39.4622 65.9152L38.7633 65.2ZM28.7633 71.9L28.3616 70.9842L28.3556 70.9869L28.7633 71.9ZM4.46328 69.9L3.72403 70.5735L3.73223 70.5823L4.46328 69.9ZM3.76328 39.4L2.84711 38.9992L2.84474 39.0047L3.76328 39.4ZM12.8633 24.8L12.1008 24.153L12.8633 24.8ZM25.1633 13.2L25.7614 14.0014L25.7633 14L25.1633 13.2ZM38.7633 5L39.1781 5.90997L39.1891 5.90482L38.7633 5ZM50.2055 1.08734L50.8055 3.08735L52.7211 2.51265L52.1211 0.512648L50.2055 1.08734ZM51.5123 1.832C47.7957 2.79557 44.0668 4.4761 40.3264 6.85633L41.4002 8.54366C44.9931 6.25723 48.5309 4.67109 52.0142 3.76799L51.5123 1.832ZM40.3264 6.85633C36.586 9.23661 33.0251 12.1889 29.6424 15.7069L31.0841 17.0931C34.3681 13.6777 37.8073 10.83 41.4002 8.54366L40.3264 6.85633ZM29.6355 15.7142C26.3126 19.2406 23.302 23.3018 20.6013 27.893L22.3252 28.907C24.9579 24.4315 27.8807 20.4928 31.0911 17.0858L29.6355 15.7142ZM20.5958 27.9025C17.9535 32.5097 15.8564 37.5179 14.3022 42.9237L16.2244 43.4763C17.7369 38.2154 19.7731 33.357 22.3307 28.8975L20.5958 27.9025ZM14.2991 42.9348C12.8065 48.3625 12.0633 54.1523 12.0633 60.3H14.0633C14.0633 54.3143 14.7867 48.7042 16.2275 43.4652L14.2991 42.9348ZM12.0633 60.3C12.0633 62.6992 12.1981 64.7416 12.4769 66.4144C12.7533 68.0731 13.1828 69.4419 13.821 70.4391L15.5056 69.3609C15.0771 68.6914 14.7066 67.6269 14.4497 66.0856C14.1951 64.5584 14.0633 62.6342 14.0633 60.3H12.0633ZM13.821 70.4391C15.0498 72.359 16.7839 73.4 18.9633 73.4V71.4C17.5427 71.4 16.4101 70.7743 15.5056 69.3609L13.821 70.4391ZM18.9633 73.4C21.7368 73.4 24.1869 72.2626 26.2823 70.095L24.8443 68.705C23.073 70.5374 21.1231 71.4 18.9633 71.4V73.4ZM26.2704 70.1071C28.3693 68.0082 30.1327 65.3702 31.573 62.2153L29.7536 61.3847C28.3939 64.3631 26.7573 66.7918 24.8562 68.6929L26.2704 70.1071ZM31.569 62.2239C33.0677 59.0221 34.1917 55.6839 34.9408 52.2108L32.9858 51.7892C32.2682 55.1161 31.1922 58.3112 29.7576 61.3761L31.569 62.2239ZM34.9416 52.207C35.6858 48.6893 36.0633 45.485 36.0633 42.6H34.0633C34.0633 45.315 33.7075 48.3774 32.9849 51.793L34.9416 52.207ZM36.0633 42.6C36.0633 39.1619 35.5693 36.488 34.377 34.8188L32.7495 35.9812C33.5572 37.112 34.0633 39.2381 34.0633 42.6H36.0633ZM34.377 34.8188C33.2059 33.1792 31.6137 32.3 29.6633 32.3V34.3C30.9128 34.3 31.9207 34.8208 32.7495 35.9812L34.377 34.8188ZM29.6633 32.3C27.6669 32.3 25.6766 33.2572 23.7125 34.9407L25.0141 36.4593C26.7833 34.9428 28.3264 34.3 29.6633 34.3V32.3ZM23.6989 34.9526C21.6966 36.7324 20.0619 39.8069 18.7116 43.993L20.615 44.607C21.9313 40.5264 23.4299 37.8676 25.0276 36.4474L23.6989 34.9526ZM19.9961 43.357L18.2961 42.757L17.6305 44.643L19.3305 45.243L19.9961 43.357ZM18.9187 43.9953C20.0281 40.4059 21.4119 37.6337 23.0394 35.6306L21.4872 34.3694C19.648 36.6329 18.1651 39.6608 17.0079 43.4047L18.9187 43.9953ZM23.0394 35.6306C24.6922 33.5964 26.4659 32.2123 28.35 31.4222L27.5766 29.5778C25.3274 30.521 23.3011 32.1369 21.4872 34.3694L23.0394 35.6306ZM28.3397 31.4265C30.3591 30.6061 32.3983 30.2 34.4633 30.2V28.2C32.1283 28.2 29.8341 28.6606 27.5869 29.5735L28.3397 31.4265ZM34.4633 30.2C38.2239 30.2 41.2221 31.4117 43.5471 33.7979L44.9795 32.4021C42.2378 29.5883 38.7027 28.2 34.4633 28.2V30.2ZM43.5562 33.8071C45.8404 36.0913 47.0633 39.5298 47.0633 44.3H49.0633C49.0633 39.2035 47.7529 35.1754 44.9704 32.3929L43.5562 33.8071ZM47.0633 44.3C47.0633 48.0177 46.2632 51.608 44.6558 55.0799L46.4707 55.9201C48.1967 52.192 49.0633 48.3156 49.0633 44.3H47.0633ZM44.6495 55.0939C43.103 58.5734 40.9109 61.7029 38.0644 64.4848L39.4622 65.9152C42.4823 62.9637 44.8236 59.6266 46.4771 55.9061L44.6495 55.0939ZM38.0645 64.4846C35.2871 67.1975 32.0553 69.3642 28.3616 70.9842L29.1649 72.8158C33.0713 71.1025 36.5062 68.8025 39.462 65.9154L38.0645 64.4846ZM28.3556 70.9869C24.7562 72.5938 20.8957 73.4 16.7633 73.4V75.4C21.1642 75.4 25.3037 74.5396 29.1709 72.8131L28.3556 70.9869ZM16.7633 73.4C11.5486 73.4 7.75052 71.9564 5.19434 69.2177L3.73223 70.5823C6.77605 73.8436 11.178 75.4 16.7633 75.4V73.4ZM5.20248 69.2265C2.70493 66.4853 1.36328 62.208 1.36328 56.2H-0.636719C-0.636719 62.4587 0.754964 67.3147 3.72408 70.5735L5.20248 69.2265ZM1.36328 56.2C1.36328 50.3978 2.47078 44.9328 4.68182 39.7953L2.84474 39.0047C0.52245 44.4006 -0.636719 50.1356 -0.636719 56.2H1.36328ZM4.67944 39.8008C6.97415 34.5558 9.95593 29.7722 13.6258 25.447L12.1008 24.153C8.30397 28.6278 5.21908 33.5776 2.84712 38.9992L4.67944 39.8008ZM13.6258 25.447C17.312 21.1025 21.3573 17.2881 25.7614 14.0014L24.5652 12.3986C20.036 15.7786 15.8812 19.6975 12.1008 24.153L13.6258 25.447ZM25.7633 14C30.2467 10.6374 34.7185 7.94296 39.1781 5.90991L38.3485 4.09009C33.7414 6.19037 29.1465 8.96258 24.5633 12.4L25.7633 14ZM39.1891 5.90482C43.6668 3.79768 47.7148 2.43162 51.3391 1.78442L50.9875 -0.184433C47.1451 0.501705 42.9265 1.93565 38.3375 4.09518L39.1891 5.90482Z" fill="#DEA81C"/>
</svg>
