<svg width="140" height="115" viewBox="0 0 140 115" fill="none" xmlns="http://www.w3.org/2000/svg">
<g opacity="0.2">
<path d="M111.125 30.8004C114.013 23.5381 118.562 16.363 124.644 9.45039C126.569 7.26289 126.831 4.11303 125.256 1.66303C124.031 -0.261972 122.019 -1.31193 119.831 -1.31193C119.219 -1.31193 118.606 -1.2684 117.994 -1.04943C105.131 2.71302 75.0749 16.0567 74.2436 58.8443C73.9376 75.3379 86.0124 89.5129 101.719 91.1316C110.425 92.0067 119.087 89.1631 125.519 83.388C131.95 77.5692 135.625 69.2566 135.625 60.5942C135.625 46.1567 125.387 33.5129 111.125 30.8004Z" fill="#D2D9E2"/>
<path d="M31.8936 91.1316C40.5563 92.0067 49.2187 89.1631 55.6498 83.388C62.0812 77.5692 65.7563 69.2566 65.7564 60.5942C65.7564 46.1567 55.5187 33.513 41.2562 30.8004C44.1438 23.5381 48.6937 16.363 54.7751 9.45045C56.7001 7.26295 56.9626 4.11308 55.3873 1.66308C54.1625 -0.261918 52.1499 -1.31188 49.9624 -1.31188C49.3501 -1.31188 48.7375 -1.26835 48.125 -1.04938C35.2625 2.71307 5.20623 16.0567 4.37497 58.8444L4.37497 59.4567C4.37497 75.688 16.3186 89.5129 31.8936 91.1316Z" fill="#D2D9E2"/>
</g>
</svg>
