<svg width="16" height="17" viewBox="0 0 16 17" fill="none" xmlns="http://www.w3.org/2000/svg">
<path d="M8 7V9.5" stroke="#FD70A3" stroke-linecap="round" stroke-linejoin="round"/>
<path d="M7.1374 2.99991L1.6374 12.4999C1.54978 12.6517 1.50357 12.8238 1.50342 12.999C1.50326 13.1743 1.54916 13.3465 1.63651 13.4984C1.72386 13.6503 1.8496 13.7766 2.00113 13.8646C2.15266 13.9526 2.32466 13.9993 2.4999 13.9999H13.4999C13.6751 13.9993 13.8471 13.9526 13.9987 13.8646C14.1502 13.7766 14.2759 13.6503 14.3633 13.4984C14.4506 13.3465 14.4965 13.1743 14.4964 12.999C14.4962 12.8238 14.45 12.6517 14.3624 12.4999L8.8624 2.99991C8.77543 2.84796 8.64987 2.72167 8.49841 2.63384C8.34695 2.54601 8.17498 2.49976 7.9999 2.49976C7.82481 2.49976 7.65284 2.54601 7.50138 2.63384C7.34992 2.72167 7.22436 2.84796 7.1374 2.99991V2.99991Z" stroke="#FD70A3" stroke-linecap="round" stroke-linejoin="round"/>
<path d="M8 12.25C8.27614 12.25 8.5 12.0261 8.5 11.75C8.5 11.4739 8.27614 11.25 8 11.25C7.72386 11.25 7.5 11.4739 7.5 11.75C7.5 12.0261 7.72386 12.25 8 12.25Z" fill="#FD70A3"/>
</svg>
