<svg width="210" height="225" viewBox="0 0 210 225" fill="none" xmlns="http://www.w3.org/2000/svg">
<mask id="mask0_311_77301" style="mask-type:alpha" maskUnits="userSpaceOnUse" x="1" y="3" width="208" height="216">
<path d="M95.4898 94.5363C94.5474 93.8307 93.8854 92.8141 93.621 91.6669C93.2543 89.7344 94.4952 87.8314 97.0283 86.4477L124.471 71.4714C128.232 69.4132 134.079 68.9553 138.702 70.3518C141.329 71.1434 143.24 72.4645 144.079 74.0603L154.536 93.8594C154.889 94.4904 155.05 95.2109 154.999 95.9322C154.949 96.6536 154.688 97.3445 154.25 97.9198C152.137 100.961 146.147 102.701 140.321 101.949L102.43 97.146C99.9232 96.9205 97.5243 96.0185 95.4898 94.5363ZM142.122 72.8854C141.04 72.0525 139.806 71.4373 138.49 71.074C134.042 69.7345 128.415 70.1772 124.82 72.1381L97.3775 87.1144C95.1277 88.3621 94.0419 89.9261 94.3442 91.5481C94.7886 93.9247 97.9982 95.8319 102.506 96.4103L140.379 101.236C146.724 102.057 151.927 99.9299 153.597 97.5192C153.956 97.0557 154.17 96.4966 154.213 95.9119C154.256 95.3271 154.125 94.7428 153.838 94.2319L143.4 74.4242C143.086 73.8317 142.653 73.3101 142.129 72.8914L142.122 72.8854Z" fill="url(#paint0_linear_311_77301)"/>
<path d="M92.682 96.8236C91.7921 96.1307 91.1467 95.1718 90.8399 94.0865C90.323 92.0677 91.4258 90.0638 93.9424 88.4458L121.758 70.5601C128.186 66.4307 140.012 67.2417 143.211 72.0358L156.967 92.6745C157.427 93.3129 157.686 94.0736 157.712 94.8598C157.738 95.646 157.53 96.4222 157.114 97.0899C155.192 100.422 148.941 102.66 142.605 102.276L101.063 99.5469C97.4601 99.3172 94.5093 98.3216 92.682 96.8236ZM141.456 71.2724C137.405 67.9516 127.566 67.7261 122.14 71.2168L94.3244 89.1024C92.0991 90.5298 91.1153 92.2387 91.5811 93.9457C92.2557 96.5355 96.0708 98.4973 101.085 98.8165L142.62 101.54C149.515 101.989 154.882 99.3945 156.402 96.702C156.75 96.1567 156.925 95.5185 156.903 94.8718C156.881 94.2251 156.663 93.6003 156.279 93.0798L142.523 72.4411C142.224 72.0029 141.865 71.6094 141.456 71.2724Z" fill="url(#paint1_linear_311_77301)"/>
<path d="M89.9109 99.4108C89.0783 98.7656 88.4453 97.8979 88.0852 96.9081C87.3941 94.8323 88.3609 92.6801 90.8016 90.8403L118.662 69.8014C125.093 64.9502 137.947 65.0458 141.989 69.9788L159.359 91.2239C159.942 91.8655 160.316 92.6695 160.431 93.5289C160.546 94.3883 160.397 95.2624 160.004 96.035C158.181 99.7554 151.916 102.473 145.022 102.441L99.8223 102.198C95.5954 102.206 92.0244 101.143 89.9109 99.4108ZM140.541 69.5896C136.02 65.8839 124.752 66.1437 119.101 70.4187L91.2463 91.4503C89.0749 93.0813 88.2005 94.9412 88.7844 96.6837C89.5787 99.0526 93.276 101.458 99.7789 101.488L144.979 101.731C152.399 101.764 157.891 98.6715 159.287 95.7418C159.612 95.0974 159.733 94.3697 159.636 93.6547C159.539 92.9396 159.227 92.2709 158.742 91.7368L141.365 70.4857C141.12 70.161 140.844 69.8609 140.541 69.5896Z" fill="url(#paint2_linear_311_77301)"/>
<path d="M87.2475 102.405C86.4674 101.797 85.8531 101.002 85.461 100.094C84.5824 97.9629 85.4071 95.6697 87.7158 93.5868L115.241 69.1692C121.588 63.5375 135.472 62.7961 140.426 67.8142L161.826 89.5164C162.543 90.1509 163.046 90.9908 163.269 91.9218C163.491 92.8528 163.422 93.8298 163.069 94.7199C161.497 98.7931 155.049 102.034 147.727 102.45L98.8013 105.165C93.877 105.484 89.6618 104.385 87.2475 102.405ZM139.376 67.8372C134.32 63.6923 121.518 64.5963 115.76 69.7044L88.234 94.1221C86.1579 95.9662 85.4389 97.9658 86.1656 99.7885C87.2314 102.38 91.5389 104.819 98.7479 104.422L147.661 101.721C155.554 101.283 161.116 97.671 162.345 94.4815C162.646 93.7239 162.707 92.8918 162.518 92.0985C162.33 91.3051 161.902 90.5891 161.292 90.048L139.886 68.3531C139.709 68.1897 139.523 68.037 139.328 67.8959L139.376 67.8372Z" fill="url(#paint3_linear_311_77301)"/>
<path d="M84.7247 105.797C84.0048 105.225 83.4142 104.507 82.9921 103.69C81.8838 101.554 82.5258 99.0501 84.7318 96.7481L111.468 68.7138C117.624 62.2513 132.52 60.4994 138.481 65.6065L164.292 87.5258C165.161 88.1558 165.812 89.0421 166.152 90.0604C166.492 91.0787 166.505 92.1779 166.19 93.204C164.864 97.5899 158.288 101.451 150.613 102.312L98.0659 108.427C92.4203 109.088 87.4693 108.047 84.7247 105.797ZM137.889 66.09C132.216 61.4398 117.82 63.1355 112.004 69.227L85.2608 97.2553C83.2946 99.3245 82.7264 101.485 83.6841 103.325C85.3488 106.653 91.2291 108.43 97.9711 107.675L150.501 101.595C158.907 100.621 164.382 96.5319 165.461 92.9997C165.731 92.1132 165.717 91.1644 165.419 90.2867C165.122 89.409 164.557 88.6467 163.803 88.1069L137.985 66.1816L137.889 66.09Z" fill="url(#paint4_linear_311_77301)"/>
<path d="M82.409 109.58C81.7621 109.059 81.2114 108.429 80.7817 107.719C79.4625 105.496 79.8556 102.861 81.925 100.337L107.389 68.4503C113.251 61.1203 129.113 58.295 136.137 63.317L166.745 85.1928L166.51 85.4789L166.745 85.1928C169 86.7966 169.952 88.988 169.419 91.3604C168.341 96.1331 161.929 100.497 153.764 101.926L97.7114 111.928C91.2661 113.16 85.5352 112.143 82.409 109.58ZM166.732 86.1515L166.306 85.8026L135.693 63.9342C129.039 59.1789 113.476 61.9677 107.94 68.9014L82.4754 100.788C80.5864 103.092 80.2538 105.384 81.419 107.345C83.5548 110.937 90.1918 112.525 97.5599 111.215L153.606 101.22C162.359 99.6587 167.812 95.0122 168.663 91.2194C168.875 90.2793 168.803 89.2977 168.457 88.3984C168.111 87.499 167.506 86.7223 166.72 86.1662L166.732 86.1515Z" fill="url(#paint5_linear_311_77301)"/>
<path d="M80.2651 113.737C79.7349 113.302 79.2636 112.8 78.8631 112.244C77.2702 109.981 77.4044 107.183 79.2564 104.37L102.827 68.4772C108.246 60.22 125.03 56.1505 133.26 61.0935L169.071 82.6089C171.789 84.2479 173.062 86.6166 172.653 89.3002C171.883 94.3863 165.471 99.3637 157.069 101.396L97.7023 115.786C90.5841 117.509 83.8169 116.649 80.2651 113.737ZM168.836 82.8951L168.64 83.2247L132.857 61.72C125.07 57.0298 108.57 61.0376 103.431 68.8623L79.861 104.755C78.1807 107.329 78.0302 109.758 79.4584 111.787C82.1575 115.619 89.5846 116.947 97.5128 115.029L156.863 100.675C164.963 98.7262 171.155 93.9863 171.881 89.1946C172.244 86.8054 171.131 84.7514 168.644 83.2648L168.836 82.8951Z" fill="url(#paint6_linear_311_77301)"/>
<path d="M78.5116 118.361C78.0951 118.021 77.7102 117.644 77.3616 117.234C75.455 114.935 75.2888 111.964 76.9115 108.877L97.9669 68.7632C102.799 59.5461 120.44 54.0565 129.923 58.8485L171.257 79.628C174.507 81.2615 176.157 83.8288 175.91 86.8537C175.468 92.258 169.161 97.8857 160.586 100.549L98.1959 119.884C90.3073 122.337 82.5478 121.67 78.5116 118.361ZM171.087 79.955L170.919 80.2954L129.592 59.5219C120.564 54.968 103.211 60.375 98.6282 69.1089L77.5728 109.223C76.0819 112.075 76.2109 114.671 77.9409 116.752C81.3315 120.758 89.5313 121.787 97.9702 119.171L160.348 99.851C168.607 97.2596 174.727 91.9201 175.145 86.815C175.372 84.0684 173.909 81.8265 170.901 80.3174L171.087 79.955Z" fill="url(#paint7_linear_311_77301)"/>
<path d="M77.131 123.413C76.8573 123.214 76.5952 122.999 76.3458 122.769C74.0586 120.441 73.5448 117.295 74.9026 113.918L92.7661 69.42C94.5824 64.8843 99.3347 60.7186 105.796 58.0154C112.974 54.9916 120.733 54.4929 126.042 56.6978L173.29 76.3251L173.142 76.6702L173.29 76.3251C177.136 77.9198 179.224 80.6865 179.179 84.1095C179.093 89.9167 173.072 96.0488 164.3 99.4462L99.2402 124.298C90.5963 127.568 81.7249 127.179 77.131 123.413ZM175.782 78.6135C174.937 77.9388 173.999 77.389 172.998 76.9811L125.75 57.3538C120.616 55.2191 113.074 55.7235 106.07 58.6693C99.8823 61.278 95.1514 65.3876 93.4389 69.677L75.6274 114.156C74.3673 117.295 74.8114 120.076 76.9098 122.201C81.0333 126.391 90.1041 126.956 98.9657 123.57L164.018 98.7122C172.425 95.506 178.342 89.4853 178.456 84.0935C178.472 83.0343 178.238 81.9863 177.773 81.0343C177.309 80.0822 176.627 79.2529 175.782 78.6135Z" fill="url(#paint8_linear_311_77301)"/>
<path d="M76.1955 128.879L76.034 128.747C74.7033 127.632 73.7404 126.141 73.2716 124.469C72.8028 122.797 72.85 121.023 73.4069 119.379L87.1753 70.432C88.5265 65.6255 92.9126 60.9634 99.2111 57.6357C106.765 53.6442 115.346 52.4572 121.569 54.5648L175.062 72.5757C179.569 74.0982 182.169 77.0636 182.376 80.9269C182.699 87.0442 176.985 93.8943 168.15 97.952L100.897 128.907C91.5515 133.198 81.4425 133.181 76.1955 128.879ZM174.935 72.9254L174.815 73.2812L121.329 55.2763C115.282 53.239 106.942 54.4022 99.5663 58.295C93.4469 61.524 89.1991 66.0174 87.9022 70.623L74.1352 119.583C73.1619 123.031 73.9889 126.003 76.5226 128.166C81.5227 132.424 91.4106 132.456 100.568 128.245L167.815 97.2974C176.38 93.361 181.939 86.7891 181.614 80.9889C181.425 77.4475 178.997 74.7212 174.797 73.3032L174.935 72.9254Z" fill="url(#paint9_linear_311_77301)"/>
<path d="M76.5489 135.48C75.1873 134.372 74.1547 132.913 73.5632 131.26C72.9716 129.607 72.8435 127.824 73.1927 126.103L82.0501 72.5052C82.8828 67.4331 86.8615 62.2653 92.9569 58.3171C100.759 53.2897 110.051 51.3242 117.252 53.2271L177.289 69.0929L177.196 69.446L177.289 69.0929C182.537 70.4745 185.723 73.6382 186.256 78.0018C187.044 84.5249 181.813 91.8935 172.916 96.7597L104.026 134.397C94.4053 139.652 83.3818 140.272 77.2242 135.899C76.9794 135.788 76.7544 135.649 76.5489 135.48ZM182.231 72.4198C180.698 71.2181 178.925 70.3591 177.032 69.9005L116.982 54.036C109.989 52.1934 100.951 54.1338 93.2687 59.0144C87.357 62.8432 83.496 67.8376 82.6969 72.7041L73.8496 126.2C73.4814 127.925 73.6377 129.72 74.2983 131.355C74.9589 132.99 76.0936 134.389 77.5565 135.374C83.4893 139.587 94.187 138.945 103.564 133.823L172.455 96.1851C180.943 91.5482 186.146 84.3037 185.404 78.1739C185.292 77.0463 184.96 75.9516 184.425 74.9529C183.89 73.9541 183.162 73.0708 182.285 72.3537L182.231 72.4198Z" fill="url(#paint10_linear_311_77301)"/>
<path d="M76.1221 141.138C74.7601 140.038 73.686 138.624 72.9923 137.016C72.2986 135.409 72.0062 133.657 72.1402 131.911L75.0931 73.8406C75.3705 68.4729 78.8905 62.7571 84.7548 58.1778C92.4966 52.1315 102.696 49.2535 110.749 50.836L177.626 63.9409C183.577 65.1382 187.55 68.5544 188.473 73.385C189.785 80.227 184.993 88.2871 176.265 93.9052L106.446 138.843C96.805 145.05 85.0516 146.471 77.8482 142.296C77.243 141.956 76.6658 141.569 76.1221 141.138ZM177.529 64.328L177.464 64.6918L110.587 51.587C102.736 50.0587 92.7422 52.9095 85.1995 58.7878C79.5042 63.2357 76.092 68.7453 75.8275 73.9027L72.8672 131.967C72.7037 133.934 73.1213 135.906 74.0684 137.638C75.0154 139.369 76.4502 140.785 78.1946 141.708C85.1478 145.74 96.5914 144.323 105.998 138.267L175.823 93.3219C184.291 87.8712 188.951 80.1208 187.685 73.5979C186.806 69.0123 183.158 65.8742 177.422 64.7432L177.529 64.328Z" fill="url(#paint11_linear_311_77301)"/>
<path d="M77.119 147.87C75.7813 146.782 74.6884 145.424 73.912 143.885C73.1355 142.345 72.693 140.659 72.6135 138.937L68.6824 76.3767C68.3265 70.674 71.3449 64.3875 76.9728 59.1237C84.6135 51.9883 95.3583 48.146 104.37 49.3369L178.263 59.0767L178.213 59.4526L178.263 59.0767C185.095 59.9778 189.806 63.631 191.255 69.0029C193.144 76.1586 188.9 84.9129 180.437 91.3004L110.475 144.121C100.99 151.291 88.5939 153.644 80.3292 149.851C79.1793 149.33 78.1006 148.664 77.119 147.87ZM178.124 59.785L104.231 50.0452C95.4384 48.8866 84.9333 52.6309 77.4484 59.6362C72.0102 64.7734 69.0481 70.8115 69.3721 76.3286L73.3032 138.889C73.4251 141.116 74.1734 143.263 75.4619 145.083C76.7503 146.903 78.5266 148.323 80.5863 149.178C88.6107 152.86 100.699 150.537 109.964 143.531L179.897 90.6863C188.115 84.4781 192.255 76.0309 190.442 69.1711C189.101 64.0716 184.571 60.677 178.071 59.7903L178.124 59.785Z" fill="url(#paint12_linear_311_77301)"/>
<path d="M78.9345 154.965C76.3084 152.819 74.5516 149.792 73.9911 146.447L61.9883 79.4538C60.8577 73.349 63.3645 66.4592 68.7508 60.4574C76.1227 52.2428 87.2691 47.4168 97.2058 48.0778L178.293 53.7269L178.262 54.0941L178.293 53.7269C186.033 54.2683 191.659 58.0332 193.712 64.06C196.296 71.6256 192.787 80.86 184.569 88.1604L115.47 149.492C106.186 157.734 93.5771 161.067 84.1175 157.803C82.2351 157.172 80.4801 156.211 78.9345 154.965ZM188.847 58.3049C185.789 55.9662 182.077 54.6392 178.229 54.5087L97.1551 48.8582C87.46 48.1868 76.5294 52.9442 69.3031 60.996C64.0746 66.8204 61.6694 73.5114 62.7202 79.3543L74.723 146.347C75.6416 151.468 79.0683 155.296 84.3611 157.132C93.5917 160.33 105.896 157.055 114.995 148.98L184.066 87.6372C192.054 80.5415 195.478 71.6055 193.022 64.3037C192.221 61.9447 190.768 59.8607 188.832 58.2929L188.847 58.3049Z" fill="url(#paint13_linear_311_77301)"/>
<path d="M81.6649 162.381C79.1495 160.316 77.322 157.534 76.4247 154.405L55.1781 83.1962C53.262 76.7175 55.0839 69.1066 60.2072 62.288C67.1722 53.0282 78.622 47.1136 89.3791 47.2078L177.718 47.9919C186.424 48.0735 193.025 51.9508 195.862 58.6079C199.219 66.4881 196.445 76.3982 188.7 84.5282L121.594 154.954C112.841 164.135 99.9134 168.604 89.4089 166.092C86.5808 165.454 83.9335 164.186 81.6649 162.381ZM177.696 48.3785L177.693 48.7563L89.3537 47.9723C78.8022 47.9116 67.6209 53.6783 60.799 62.7486C55.8114 69.3717 54.0278 76.7563 55.8874 83.0046L77.1266 154.207C78.8224 159.892 83.2405 163.857 89.5671 165.375C99.8233 167.831 112.47 163.45 121.039 154.449L188.139 84.0309C195.682 76.1163 198.369 66.4913 195.158 58.9138C192.455 52.5264 186.088 48.8283 177.708 48.7684L177.696 48.3785Z" fill="url(#paint14_linear_311_77301)"/>
<path d="M85.395 170.09C83.0283 168.146 81.1763 165.651 80.0025 162.822L48.2414 87.7062C45.3183 80.7946 46.4205 72.3852 51.2776 64.649C57.688 54.4192 69.259 47.4138 80.7579 46.8277L176.347 41.9109C186.034 41.4099 193.75 45.3182 197.509 52.6326C201.686 60.7685 199.834 71.4098 192.666 80.393L128.82 160.448C120.676 170.668 107.919 176.246 96.3242 174.644C92.33 174.166 88.5465 172.59 85.395 170.09ZM176.375 42.2654L176.399 42.6407L80.8099 47.5575C69.5467 48.1405 58.2102 54.9946 51.9222 65.0302C47.1995 72.5576 46.1195 80.7152 48.9401 87.4078L80.7012 162.524C83.3605 168.814 88.9516 172.846 96.4578 173.882C107.784 175.437 120.269 169.966 128.259 159.951L192.122 79.9345C199.097 71.1861 200.926 60.8573 196.876 52.9852C193.266 45.9394 185.807 42.1808 176.429 42.6647L176.375 42.2654Z" fill="url(#paint15_linear_311_77301)"/>
<path d="M90.1687 177.917C88.0385 176.174 86.2597 174.041 84.9275 171.633L41.345 92.9609C37.2552 85.5715 37.4976 76.31 42.0339 67.5133C44.8961 61.9498 49.0714 57.1679 54.1983 53.5819C59.3252 49.9958 65.249 47.7137 71.4567 46.9331L174.153 35.4125C184.667 34.216 193.801 38.2065 198.593 46.0118C203.856 54.5594 203.042 65.6103 196.464 75.641L137.336 165.821C130.083 176.87 117.438 183.718 105.114 183.26C99.6815 183.163 94.4311 181.286 90.1687 177.917ZM174.222 35.7765L174.265 36.1431L71.5695 47.6637C65.4863 48.433 59.6823 50.6737 54.6603 54.1918C49.6383 57.7099 45.5497 62.3993 42.7486 67.8538C38.3234 76.4103 38.0705 85.43 42.0797 92.6184L85.6623 171.29C89.4789 178.1 96.5908 182.237 105.247 182.559C117.314 183.016 129.709 176.293 136.796 165.477L195.931 75.3026C202.333 65.5322 203.127 54.7597 198.046 46.484C193.392 38.9144 184.516 35.0738 174.306 36.2132L174.222 35.7765Z" fill="url(#paint16_linear_311_77301)"/>
<path d="M96.1068 185.926C94.2783 184.438 92.6655 182.702 91.3145 180.77L34.514 99.0789C29.0253 91.1808 28.261 80.9469 32.4185 70.9807C34.921 64.9931 38.8777 59.7244 43.9302 55.6519C48.9827 51.5793 54.9715 48.8315 61.3539 47.6574L170.968 28.5809C182.409 26.598 192.873 30.4027 198.983 38.7855C205.38 47.5512 205.766 59.3396 200.015 70.3064L147.208 171.067C144.193 176.922 139.728 181.906 134.24 185.546C128.752 189.186 122.423 191.359 115.857 191.858C108.759 192.464 101.696 190.343 96.1068 185.926ZM171.067 28.9688L171.131 29.3401L61.5107 48.4241C55.2492 49.5652 49.3719 52.2526 44.4129 56.2423C39.4539 60.2319 35.5702 65.3973 33.1146 71.2692C29.0548 80.9964 29.7865 90.9705 35.1072 98.6695L91.9198 180.346C97.1391 187.84 105.863 191.776 115.821 191.154C122.26 190.663 128.467 188.53 133.848 184.96C139.23 181.39 143.607 176.502 146.564 170.76L199.371 69.9994C204.978 59.2828 204.615 47.7955 198.396 39.2617C192.453 31.1254 182.254 27.4157 171.119 29.3548L171.067 28.9688Z" fill="url(#paint17_linear_311_77301)"/>
<path d="M103.246 193.95C101.841 192.798 100.543 191.521 99.3689 190.134L27.8841 106.074C20.7488 97.6846 18.7972 86.3547 22.4752 75.0875C24.5701 68.7295 28.2511 63.0105 33.1706 58.4707C38.0901 53.9309 44.0858 50.7201 50.5911 49.1415L166.725 21.483L166.821 21.8443L166.725 21.483C178.96 18.5315 190.869 22.0853 198.5 30.9175C206.239 39.8873 208.003 52.3888 203.21 64.3734L158.567 176.085C156.072 182.338 152.013 187.846 146.778 192.08C141.543 196.314 135.308 199.132 128.671 200.265C119.077 201.836 110.078 199.551 103.246 193.95ZM194.308 27.8737C186.97 21.8579 177.08 19.7629 166.875 22.1829L50.7708 49.8654C44.3884 51.416 38.506 54.5667 33.6787 59.0204C28.8513 63.4741 25.2379 69.0841 23.1793 75.3212C19.5676 86.3728 21.4828 97.4028 28.4501 105.593L99.9408 189.645C106.854 197.767 117.289 201.413 128.544 199.522C135.054 198.413 141.171 195.65 146.306 191.498C151.442 187.346 155.425 181.943 157.872 175.809L202.521 64.0909C207.208 52.3867 205.491 40.157 197.928 31.4056C196.827 30.1244 195.616 28.9426 194.308 27.8737Z" fill="url(#paint18_linear_311_77301)"/>
<path d="M111.487 201.724C110.709 201.087 109.924 200.443 109.216 199.69L21.572 114.028C12.6284 105.286 9.11984 92.5321 12.1916 79.909C13.7847 73.2138 17.1103 67.0553 21.8349 62.0511C26.5595 57.047 32.5168 53.3731 39.1094 51.3981L161.254 14.1023L161.362 14.4489L161.254 14.1023C174.238 10.1327 187.562 13.2024 196.887 22.3186C206.211 31.4349 209.586 44.6802 205.896 57.7287L171.416 180.691C169.593 187.326 166.057 193.365 161.163 198.203C156.27 203.04 150.19 206.506 143.534 208.253C138.06 209.805 132.293 210.022 126.717 208.886C121.141 207.75 115.919 205.294 111.487 201.724ZM194.091 20.8492C185.146 13.5159 173.169 11.2567 161.46 14.8236L39.299 52.1548C32.8324 54.0945 26.9888 57.6991 22.3534 62.6076C17.7181 67.5161 14.4536 73.5563 12.887 80.1233C9.87763 92.4907 13.2869 104.991 22.0625 113.535L109.712 199.19C118.469 207.742 131.026 210.894 143.314 207.593C149.844 205.878 155.809 202.475 160.609 197.728C165.41 192.98 168.878 187.054 170.667 180.543L205.177 57.6179C208.77 44.8083 205.455 31.8334 196.34 22.9257C195.623 22.1538 194.869 21.4868 194.091 20.8492Z" fill="url(#paint19_linear_311_77301)"/>
<path d="M121.038 209.308L15.7297 122.981C10.2967 118.528 6.13167 112.723 3.65344 106.15C1.17519 99.5767 0.471075 92.4668 1.61182 85.5352C2.75257 78.6035 5.69798 72.0943 10.152 66.6619C14.606 61.2295 20.4116 57.0654 26.9852 54.5881L154.411 6.55411C160.976 4.03415 168.094 3.30806 175.033 4.45044C181.972 5.59283 188.481 8.56246 193.892 13.0541C199.357 17.4794 203.546 23.2799 206.027 29.8597C208.508 36.4395 209.193 43.5613 208.011 50.4934L185.879 184.842C184.74 191.774 181.795 198.283 177.342 203.717C172.889 209.15 167.084 213.315 160.511 215.793C153.938 218.272 146.828 218.976 139.896 217.835C132.965 216.695 126.455 213.75 121.023 209.296L121.038 209.308ZM154.533 6.89942L154.662 7.25071L27.2436 55.2907C20.7938 57.7223 15.0978 61.809 10.728 67.1398C6.35827 72.4707 3.46875 78.8579 2.35 85.6594C1.23126 92.461 1.9227 99.4372 4.35477 105.887C6.78683 112.336 10.8738 118.032 16.205 122.402L121.513 208.728C126.843 213.098 133.23 215.989 140.032 217.108C146.833 218.228 153.809 217.537 160.259 215.106C166.709 212.675 172.405 208.588 176.775 203.258C181.145 197.927 184.035 191.54 185.154 184.738L207.264 50.3719C208.382 43.5703 207.69 36.5944 205.257 30.145C202.825 23.6957 198.738 18.0001 193.408 13.6303C188.077 9.26052 181.69 6.37053 174.889 5.25071C168.088 4.13089 161.112 4.82066 154.662 7.25071L154.533 6.89942Z" fill="url(#paint20_linear_311_77301)"/>
</mask>
<g mask="url(#mask0_311_77301)">
<ellipse cx="128.167" cy="92.129" rx="141.773" ry="139.441" transform="rotate(54.3583 128.167 92.129)" fill="url(#paint21_angular_311_77301)"/>
</g>
<defs>
<linearGradient id="paint0_linear_311_77301" x1="106.851" y1="73.4324" x2="147.213" y2="106.519" gradientUnits="userSpaceOnUse">
<stop stop-color="#83A4D4"/>
<stop offset="0.95" stop-color="#B4F7FD"/>
<stop offset="1" stop-color="#B6FBFF"/>
</linearGradient>
<linearGradient id="paint1_linear_311_77301" x1="105.257" y1="73.8802" x2="147.674" y2="108.651" gradientUnits="userSpaceOnUse">
<stop stop-color="#83A4D4"/>
<stop offset="0.95" stop-color="#B4F7FD"/>
<stop offset="1" stop-color="#B6FBFF"/>
</linearGradient>
<linearGradient id="paint2_linear_311_77301" x1="103.737" y1="74.5971" x2="148.039" y2="110.914" gradientUnits="userSpaceOnUse">
<stop stop-color="#83A4D4"/>
<stop offset="0.95" stop-color="#B4F7FD"/>
<stop offset="1" stop-color="#B6FBFF"/>
</linearGradient>
<linearGradient id="paint3_linear_311_77301" x1="102.28" y1="75.6112" x2="148.263" y2="113.306" gradientUnits="userSpaceOnUse">
<stop stop-color="#83A4D4"/>
<stop offset="0.95" stop-color="#B4F7FD"/>
<stop offset="1" stop-color="#B6FBFF"/>
</linearGradient>
<linearGradient id="paint4_linear_311_77301" x1="100.921" y1="76.9393" x2="148.35" y2="115.819" gradientUnits="userSpaceOnUse">
<stop stop-color="#83A4D4"/>
<stop offset="0.95" stop-color="#B4F7FD"/>
<stop offset="1" stop-color="#B6FBFF"/>
</linearGradient>
<linearGradient id="paint5_linear_311_77301" x1="100.069" y1="77.3205" x2="149.075" y2="117.494" gradientUnits="userSpaceOnUse">
<stop stop-color="#83A4D4"/>
<stop offset="0.95" stop-color="#B4F7FD"/>
<stop offset="1" stop-color="#B6FBFF"/>
</linearGradient>
<linearGradient id="paint6_linear_311_77301" x1="97.0232" y1="75.4373" x2="149.963" y2="118.835" gradientUnits="userSpaceOnUse">
<stop stop-color="#83A4D4"/>
<stop offset="0.95" stop-color="#B4F7FD"/>
<stop offset="1" stop-color="#B6FBFF"/>
</linearGradient>
<linearGradient id="paint7_linear_311_77301" x1="93.8378" y1="73.3661" x2="150.821" y2="120.079" gradientUnits="userSpaceOnUse">
<stop stop-color="#83A4D4"/>
<stop offset="0.95" stop-color="#B4F7FD"/>
<stop offset="1" stop-color="#B6FBFF"/>
</linearGradient>
<linearGradient id="paint8_linear_311_77301" x1="90.5233" y1="71.0783" x2="151.683" y2="121.214" gradientUnits="userSpaceOnUse">
<stop stop-color="#83A4D4"/>
<stop offset="0.95" stop-color="#B4F7FD"/>
<stop offset="1" stop-color="#B6FBFF"/>
</linearGradient>
<linearGradient id="paint9_linear_311_77301" x1="87.1043" y1="68.5578" x2="152.505" y2="122.17" gradientUnits="userSpaceOnUse">
<stop stop-color="#83A4D4"/>
<stop offset="0.95" stop-color="#B4F7FD"/>
<stop offset="1" stop-color="#B6FBFF"/>
</linearGradient>
<linearGradient id="paint10_linear_311_77301" x1="84.3279" y1="66.4337" x2="154.088" y2="123.62" gradientUnits="userSpaceOnUse">
<stop stop-color="#83A4D4"/>
<stop offset="0.95" stop-color="#B4F7FD"/>
<stop offset="1" stop-color="#B6FBFF"/>
</linearGradient>
<linearGradient id="paint11_linear_311_77301" x1="79.9574" y1="62.7728" x2="154.128" y2="123.574" gradientUnits="userSpaceOnUse">
<stop stop-color="#83A4D4"/>
<stop offset="0.95" stop-color="#B4F7FD"/>
<stop offset="1" stop-color="#B6FBFF"/>
</linearGradient>
<linearGradient id="paint12_linear_311_77301" x1="76.2635" y1="59.4502" x2="154.925" y2="123.933" gradientUnits="userSpaceOnUse">
<stop stop-color="#83A4D4"/>
<stop offset="0.95" stop-color="#B4F7FD"/>
<stop offset="1" stop-color="#B6FBFF"/>
</linearGradient>
<linearGradient id="paint13_linear_311_77301" x1="72.5054" y1="55.8174" x2="155.746" y2="124.054" gradientUnits="userSpaceOnUse">
<stop stop-color="#83A4D4"/>
<stop offset="0.95" stop-color="#B4F7FD"/>
<stop offset="1" stop-color="#B6FBFF"/>
</linearGradient>
<linearGradient id="paint14_linear_311_77301" x1="68.7095" y1="51.8713" x2="156.566" y2="123.892" gradientUnits="userSpaceOnUse">
<stop stop-color="#83A4D4"/>
<stop offset="0.95" stop-color="#B4F7FD"/>
<stop offset="1" stop-color="#B6FBFF"/>
</linearGradient>
<linearGradient id="paint15_linear_311_77301" x1="64.9057" y1="47.5752" x2="158.479" y2="124.282" gradientUnits="userSpaceOnUse">
<stop stop-color="#83A4D4"/>
<stop offset="0.95" stop-color="#B4F7FD"/>
<stop offset="1" stop-color="#B6FBFF"/>
</linearGradient>
<linearGradient id="paint16_linear_311_77301" x1="61.1005" y1="42.9222" x2="167.15" y2="129.856" gradientUnits="userSpaceOnUse">
<stop stop-color="#83A4D4"/>
<stop offset="0.95" stop-color="#B4F7FD"/>
<stop offset="1" stop-color="#B6FBFF"/>
</linearGradient>
<linearGradient id="paint17_linear_311_77301" x1="57.4045" y1="37.9414" x2="177.052" y2="136.023" gradientUnits="userSpaceOnUse">
<stop stop-color="#83A4D4"/>
<stop offset="0.95" stop-color="#B4F7FD"/>
<stop offset="1" stop-color="#B6FBFF"/>
</linearGradient>
<linearGradient id="paint18_linear_311_77301" x1="53.8634" y1="32.6215" x2="188.239" y2="142.777" gradientUnits="userSpaceOnUse">
<stop stop-color="#83A4D4"/>
<stop offset="0.95" stop-color="#B4F7FD"/>
<stop offset="1" stop-color="#B6FBFF"/>
</linearGradient>
<linearGradient id="paint19_linear_311_77301" x1="50.4959" y1="26.9407" x2="200.833" y2="150.18" gradientUnits="userSpaceOnUse">
<stop stop-color="#83A4D4"/>
<stop offset="0.95" stop-color="#B4F7FD"/>
<stop offset="1" stop-color="#B6FBFF"/>
</linearGradient>
<linearGradient id="paint20_linear_311_77301" x1="47.4751" y1="21.0164" x2="214.786" y2="158.17" gradientUnits="userSpaceOnUse">
<stop stop-color="#83A4D4"/>
<stop offset="0.95" stop-color="#B4F7FD"/>
<stop offset="1" stop-color="#B6FBFF"/>
</linearGradient>
<radialGradient id="paint21_angular_311_77301" cx="0" cy="0" r="1" gradientUnits="userSpaceOnUse" gradientTransform="translate(128.167 92.129) rotate(128.969) scale(177.831 149.308)">
<stop offset="0.479167" stop-color="#DEA81C"/>
<stop offset="0.984379" stop-color="#FFE4C1"/>
</radialGradient>
</defs>
</svg>
