<svg width="120" height="120" viewBox="0 0 120 120" fill="none" xmlns="http://www.w3.org/2000/svg">
<g clip-path="url(#clip0_766_25652)">
<path d="M27.4155 22.1414C28.3863 22.1414 29.1734 21.3544 29.1734 20.3836C29.1734 19.4128 28.3863 18.6258 27.4155 18.6258C26.4448 18.6258 25.6577 19.4128 25.6577 20.3836C25.6577 21.3544 26.4445 22.1414 27.4155 22.1414ZM13.353 22.1414C14.3238 22.1414 15.1109 21.3544 15.1109 20.3836C15.1109 19.4128 14.3238 18.6258 13.353 18.6258C12.3823 18.6258 11.5952 19.4128 11.5952 20.3836C11.5952 21.3544 12.382 22.1414 13.353 22.1414ZM20.3843 22.1414C21.3551 22.1414 22.1421 21.3544 22.1421 20.3836C22.1421 19.4128 21.3551 18.6258 20.3843 18.6258C19.4135 18.6258 18.6265 19.4128 18.6265 20.3836C18.6265 21.3544 19.4133 22.1414 20.3843 22.1414ZM19.9988 40.7632C20.0095 40.7635 20.0203 40.7635 20.0311 40.7635L35.9238 40.7675H35.9248C37.0228 40.7675 37.9549 40.0561 38.2448 38.9972C38.535 37.9378 38.0946 36.8506 37.1496 36.2916L34.7325 34.8614C38.6175 31.0109 40.8026 25.7571 40.7679 20.2526C40.6983 9.24448 31.6884 0.160342 20.6836 0.0019049C9.28008 -0.161923 0 9.06237 0 20.3841C0 31.241 8.94563 40.5282 19.9988 40.7632ZM8.54297 8.37003C11.7844 5.17503 16.0688 3.45355 20.6332 3.51706C29.7394 3.64808 37.1946 11.1654 37.2523 20.2746C37.2834 25.1892 35.1759 29.8629 31.47 33.0968C30.8503 33.6373 30.5257 34.4485 30.6007 35.2667C30.6757 36.0844 31.1428 36.8222 31.8495 37.2401L31.867 37.2504L20.0484 37.2476C10.912 37.0723 3.51562 29.5456 3.51562 20.3841C3.51562 15.8323 5.30109 11.5657 8.54297 8.37003ZM118.242 116.484H116.484V90.3068C116.484 83.4485 112.432 77.2207 106.14 74.4319L96.8763 70.4614C99.1305 69.75 101.167 68.4816 102.824 66.7221C105.324 64.0678 106.758 60.4662 106.758 56.8407C106.758 53.5092 105.594 50.3649 103.391 47.7467C100.637 44.4755 99.1195 40.3182 99.1195 36.0399V27.6164C99.1195 20.2388 96.2463 13.3041 91.0296 8.08995C85.8129 2.87276 78.8775 -0.000204477 71.5008 -0.000204477C56.273 -0.000204477 43.8844 12.3884 43.8844 27.6162V35.7654C43.8853 40.1923 42.1455 44.4178 39.3185 47.824C35.7605 52.1107 35.0213 57.9066 37.3896 62.9496C39.1474 66.6931 42.318 69.3825 46.1138 70.5209L36.9145 74.5212C30.4605 77.2371 26.2901 83.5163 26.2901 90.518V111.211C26.2901 112.182 27.0769 112.969 28.0479 112.969C29.0189 112.969 29.8057 112.182 29.8057 111.211V90.518C29.8057 84.9347 33.1312 79.9273 38.2973 77.7535L49.8281 72.7393V83.3201H44.5305C43.0376 83.3201 41.6086 83.9567 40.6099 85.0667C39.6115 86.1767 39.1291 87.6647 39.2866 89.1493L42.1842 116.484H1.75781C0.786797 116.484 0 117.271 0 118.242C0 119.213 0.786797 120 1.75781 120H118.242C119.213 120 120 119.213 120 118.242C120 117.271 119.213 116.484 118.242 116.484ZM100.702 50.0103C102.364 51.986 103.242 54.3478 103.242 56.8404C103.242 59.5796 102.157 62.3025 100.265 64.3116C98.2615 66.4386 95.5092 67.61 92.5151 67.61H90.2243L87.2152 66.3202C84.5866 65.1928 82.7885 62.7762 82.421 59.9944C87.8447 57.0741 91.5401 51.3427 91.5401 44.7631V31.5483C92.0545 31.5832 92.5685 31.6022 93.0811 31.6022C93.9265 31.6022 94.7686 31.5542 95.6041 31.4595V36.0396C95.6039 41.1453 97.4147 46.107 100.702 50.0103ZM71.928 77.7605C65.6395 77.8718 59.3984 77.075 53.3438 75.3957V71.2104L53.8521 70.9894C53.8561 70.9878 53.8601 70.9859 53.8643 70.9843L57.0002 69.6207C60.491 68.1031 62.9578 64.9948 63.7057 61.3625C65.2364 61.8075 66.852 62.0508 68.5245 62.0508H74.2523C75.9312 62.0508 77.5528 61.8057 79.0887 61.3573C79.8612 64.973 82.3373 68.0534 85.8298 69.5515L89.1766 70.9859C89.1787 70.9868 89.1809 70.9878 89.183 70.9885L89.4309 71.0946V75.0502C83.742 76.7452 77.8605 77.6569 71.928 77.7605ZM89.4305 78.7102V83.3204H53.3438V79.036C59.0423 80.5301 64.8933 81.2862 70.7838 81.2862C71.1855 81.2862 71.5875 81.2827 71.9895 81.2757C77.8934 81.1725 83.749 80.3098 89.4305 78.7102ZM95.6039 27.9148C90.7619 28.5689 85.3041 27.2719 81.5438 24.3584C80.7766 23.764 79.6725 23.9037 79.0777 24.6713C78.483 25.4386 78.6232 26.5428 79.3905 27.1374C81.8489 29.0419 84.814 30.3835 88.0245 31.0599V40.6296C87.1798 42.5548 86.2394 44.1558 84.1195 45.9047C83.227 46.6411 82.2502 47.2526 81.2039 47.7378C80.3496 46.0707 78.6145 44.9264 76.6162 44.9264H72.4969C69.6555 44.9264 67.3441 47.2381 67.3441 50.0792C67.3441 52.9203 69.6555 55.2319 72.4969 55.2319H76.6162C79.0073 55.2319 81.023 53.5946 81.6016 51.3825C83.9531 50.4865 87.7873 47.2901 87.7882 47.2889C86.5978 53.6796 80.9831 58.5342 74.2526 58.5342H68.5242C60.9305 58.5342 54.7523 52.3564 54.7523 44.7624V31.1747C60.7226 30.2389 66.3628 28.2185 71.5355 25.159C79.4114 20.5003 84.4634 14.4127 87.5121 9.60308C92.7286 14.2491 95.696 20.9098 95.6039 27.9148ZM78.2529 50.0841C78.2503 50.9848 77.5172 51.7167 76.616 51.7167H72.4966C71.5938 51.7167 70.8595 50.9822 70.8595 50.0796C70.8595 49.1771 71.5941 48.4425 72.4966 48.4425H76.616C77.517 48.4425 78.2498 49.174 78.2529 50.0742V50.0841ZM47.4 27.6162C47.4 14.3269 58.2115 3.51542 71.5008 3.51542C76.2668 3.51542 80.8212 4.8912 84.713 7.45245C81.9073 11.9499 77.1848 17.7333 69.7455 22.1339C64.642 25.1527 59.044 27.08 53.1063 27.8623H52.9966C52.9959 27.8623 52.9952 27.8623 52.9943 27.8623C52.9934 27.8623 52.9929 27.8623 52.992 27.8623H47.3998V27.6162H47.4ZM40.5715 61.4553C38.7891 57.6589 39.3455 53.296 42.0216 50.0719C45.3795 46.0264 47.4038 41.0276 47.4 35.7654V31.3779H51.2367V44.7631C51.2367 51.3464 54.9368 57.0807 60.3654 59.9993C60.0258 62.8022 58.233 65.2507 55.5982 66.3964L52.8073 67.61H50.2594C46.0664 67.61 42.3544 65.2517 40.5715 61.4553ZM101.764 88.7789L98.8268 116.484H45.7195L42.7826 88.7789C42.7294 88.2767 42.8859 87.7934 43.2237 87.4182C43.5614 87.0427 44.0257 86.836 44.5305 86.836H100.016C100.521 86.836 100.985 87.0427 101.323 87.4182C101.66 87.7934 101.817 88.2767 101.764 88.7789ZM112.969 116.484H102.362L105.26 89.1497C105.417 87.665 104.935 86.1769 103.936 85.0669C102.938 83.9569 101.509 83.3204 100.016 83.3204H92.9461V72.6017L104.735 77.6546C109.737 79.8717 112.969 84.8379 112.969 90.3068V116.484ZM72.273 94.9803C68.5898 94.9803 65.5934 97.9768 65.5934 101.66C65.5934 105.343 68.5898 108.34 72.273 108.34C75.9562 108.34 78.9527 105.343 78.9527 101.66C78.9527 97.9768 75.9562 94.9803 72.273 94.9803ZM72.273 104.824C70.5284 104.824 69.109 103.405 69.109 101.66C69.109 99.9153 70.5284 98.4959 72.273 98.4959C74.0177 98.4959 75.4371 99.9153 75.4371 101.66C75.4371 103.405 74.018 104.824 72.273 104.824Z" fill="#5D53A5"/>
<path d="M27.4155 22.1414C28.3863 22.1414 29.1734 21.3544 29.1734 20.3836C29.1734 19.4128 28.3863 18.6258 27.4155 18.6258C26.4448 18.6258 25.6577 19.4128 25.6577 20.3836C25.6577 21.3544 26.4445 22.1414 27.4155 22.1414ZM13.353 22.1414C14.3238 22.1414 15.1109 21.3544 15.1109 20.3836C15.1109 19.4128 14.3238 18.6258 13.353 18.6258C12.3823 18.6258 11.5952 19.4128 11.5952 20.3836C11.5952 21.3544 12.382 22.1414 13.353 22.1414ZM20.3843 22.1414C21.3551 22.1414 22.1421 21.3544 22.1421 20.3836C22.1421 19.4128 21.3551 18.6258 20.3843 18.6258C19.4135 18.6258 18.6265 19.4128 18.6265 20.3836C18.6265 21.3544 19.4133 22.1414 20.3843 22.1414ZM19.9988 40.7632C20.0095 40.7635 20.0203 40.7635 20.0311 40.7635L35.9238 40.7675C37.0219 40.7675 37.9549 40.0561 38.2448 38.9972C38.535 37.9378 38.0946 36.8506 37.1496 36.2916L34.7325 34.8614C38.6175 31.0109 40.8026 25.7571 40.7679 20.2526C40.6983 9.24448 31.6884 0.160342 20.6836 0.0019049C9.28008 -0.161923 0 9.06237 0 20.3841C0 31.241 8.94563 40.5282 19.9988 40.7632ZM8.54297 8.37003C11.7844 5.17503 16.0688 3.45355 20.6332 3.51706C29.7394 3.64808 37.1946 11.1654 37.2523 20.2746C37.2834 25.1892 35.1759 29.8629 31.47 33.0968C30.8503 33.6373 30.5257 34.4485 30.6007 35.2667C30.6757 36.0844 31.1428 36.8222 31.8495 37.2401L31.867 37.2504L20.0484 37.2476C10.912 37.0723 3.51562 29.5456 3.51562 20.3841C3.51562 15.8323 5.30109 11.5657 8.54297 8.37003ZM72.273 94.9803C68.5898 94.9803 65.5934 97.9768 65.5934 101.66C65.5934 105.343 68.5898 108.34 72.273 108.34C75.9562 108.34 78.9527 105.343 78.9527 101.66C78.9527 97.9768 75.9562 94.9803 72.273 94.9803ZM72.273 104.824C70.5284 104.824 69.109 103.405 69.109 101.66C69.109 99.9153 70.5284 98.4959 72.273 98.4959C74.0177 98.4959 75.4371 99.9153 75.4371 101.66C75.4371 103.405 74.018 104.824 72.273 104.824Z" fill="#E73668"/>
</g>
<defs>
<clipPath id="clip0_766_25652">
<rect width="120" height="120" fill="white"/>
</clipPath>
</defs>
</svg>
