<svg width="24" height="25" viewBox="0 0 24 25" fill="none" xmlns="http://www.w3.org/2000/svg">
<g clip-path="url(#clip0_766_25662)">
<path d="M17.8096 16.2274C17.0798 15.4832 16.1688 15.4832 15.4437 16.2274C14.8906 16.7941 14.3376 17.3608 13.7937 17.937C13.6449 18.0955 13.5194 18.1291 13.3382 18.0235C12.9803 17.8218 12.5992 17.6585 12.2552 17.4376C10.6516 16.3955 9.30837 15.0558 8.11847 13.5479C7.52818 12.7987 7.00295 11.9969 6.63575 11.094C6.56139 10.9116 6.57532 10.7915 6.71941 10.6426C7.27252 10.0905 7.8117 9.52378 8.35551 8.95713C9.11315 8.16958 9.11314 7.2476 8.35086 6.45525C7.91859 6.00387 7.48633 5.56207 7.05406 5.11069C6.60787 4.64969 6.16628 4.18387 5.71544 3.72769C4.9857 2.99297 4.07469 2.99297 3.34961 3.73249C2.79185 4.29914 2.25732 4.88018 1.69026 5.43724C1.16503 5.95106 0.900095 6.58012 0.844312 7.31484C0.755999 8.51055 1.03954 9.63905 1.43925 10.7387C2.2573 13.0149 3.50296 15.0366 5.01358 16.8902C7.05406 19.3968 9.48963 21.3801 12.3388 22.8111C13.6217 23.4546 14.9511 23.9492 16.3966 24.0309C17.3912 24.0885 18.2557 23.8292 18.9483 23.0272C19.4224 22.4798 19.9569 21.9803 20.459 21.457C21.2026 20.679 21.2072 19.7378 20.4683 18.9694C19.5851 18.0523 18.6974 17.1399 17.8095 16.2274H17.8096Z" fill="#E73668"/>
<path d="M16.9193 12.4003L18.6344 12.0978C18.3649 10.4699 17.6212 8.99564 16.4917 7.82396C15.2971 6.58983 13.7866 5.81189 12.1225 5.57178L11.8809 7.35336C13.1683 7.54064 14.3396 8.1409 15.2646 9.0965C16.1385 9.99933 16.7101 11.1422 16.9192 12.4003H16.9193Z" fill="#E73668"/>
<path d="M19.6039 4.69756C17.6239 2.65186 15.1186 1.3601 12.353 0.961548L12.1113 2.7431C14.5004 3.08885 16.6664 4.20774 18.3769 5.97009C19.999 7.64602 21.0634 9.76371 21.4492 12.0927L23.1643 11.7903C22.7135 9.09145 21.4817 6.6424 19.6039 4.69756H19.6039Z" fill="#E73668"/>
</g>
<defs>
<clipPath id="clip0_766_25662">
<rect width="24" height="24" fill="white" transform="translate(0 0.5)"/>
</clipPath>
</defs>
</svg>
