<svg width="52" height="52" viewBox="0 0 52 52" fill="none" xmlns="http://www.w3.org/2000/svg">
<path d="M2.16675 27.0504L26.1052 50.9889L50.0437 27.0504L39.1219 27.0504L39.1219 0.722243L13.0886 0.722244L13.0886 27.0504L2.16675 27.0504ZM15.9712 3.6049L24.655 3.6049L24.655 20.3618L27.5555 20.3618L27.5555 3.6049L36.2393 3.6049L36.2393 29.933L43.0788 29.933L26.1231 46.8887L9.16746 29.933L16.007 29.933L16.007 3.6049L15.9712 3.6049Z" fill="#FF3C1F"/>
<path d="M24.655 26.1987L24.655 23.2624L27.5556 23.2624L27.5556 26.1987L24.655 26.1987Z" fill="#FF3C1F"/>
<path d="M24.655 31.9461L24.655 29.0097L27.5556 29.0097L27.5556 31.9461L24.655 31.9461Z" fill="#FF3C1F"/>
<path d="M24.655 37.7114L24.655 34.775L27.5556 34.775L27.5556 37.7114L24.655 37.7114Z" fill="#FF3C1F"/>
</svg>
