<svg width="204" height="214" viewBox="0 0 204 214" fill="none" xmlns="http://www.w3.org/2000/svg">
<path d="M184.154 84.8292L18.8718 128.277" stroke="#8E1533" stroke-width="0.4" stroke-miterlimit="10"/>
<path d="M183.028 94.4454L19.9935 118.668" stroke="#8E1533" stroke-width="0.4" stroke-miterlimit="10"/>
<path d="M52.3637 167.641L150.661 45.4642" stroke="#8E1533" stroke-width="0.4" stroke-miterlimit="10"/>
<path d="M42.5771 164.15L160.443 48.9625" stroke="#8E1533" stroke-width="0.4" stroke-miterlimit="10"/>
<path d="M22.695 145.67L180.33 67.4355" stroke="#8E1533" stroke-width="0.4" stroke-miterlimit="10"/>
<path d="M27.55 153.026L175.462 60.0819" stroke="#8E1533" stroke-width="0.4" stroke-miterlimit="10"/>
<path d="M34.2389 159.24L168.782 53.8726" stroke="#8E1533" stroke-width="0.4" stroke-miterlimit="10"/>
<path d="M63.3667 169.632L139.658 43.4743" stroke="#8E1533" stroke-width="0.4" stroke-miterlimit="10"/>
<path d="M75.3052 170.069L127.72 43.0367" stroke="#8E1533" stroke-width="0.4" stroke-miterlimit="10"/>
<path d="M87.8901 168.948L115.13 44.1657" stroke="#8E1533" stroke-width="0.4" stroke-miterlimit="10"/>
<path d="M100.808 166.285L102.212 46.8275" stroke="#8E1533" stroke-width="0.4" stroke-miterlimit="10"/>
<path d="M113.744 162.152L89.2767 50.9614" stroke="#8E1533" stroke-width="0.4" stroke-miterlimit="10"/>
<path d="M126.384 156.646L76.641 56.4597" stroke="#8E1533" stroke-width="0.4" stroke-miterlimit="10"/>
<path d="M138.4 149.909L64.6134 63.2002" stroke="#8E1533" stroke-width="0.4" stroke-miterlimit="10"/>
<path d="M149.519 142.104L53.5059 71.0013" stroke="#8E1533" stroke-width="0.4" stroke-miterlimit="10"/>
<path d="M159.449 133.427L43.5712 79.6847" stroke="#8E1533" stroke-width="0.4" stroke-miterlimit="10"/>
<path d="M167.961 124.09L35.0598 89.0232" stroke="#8E1533" stroke-width="0.4" stroke-miterlimit="10"/>
<path d="M174.825 114.313L28.1923 98.7878" stroke="#8E1533" stroke-width="0.4" stroke-miterlimit="10"/>
<path d="M179.897 104.351L23.1279 108.754" stroke="#8E1533" stroke-width="0.4" stroke-miterlimit="10"/>
<path d="M183.249 75.7583L19.7717 137.355" stroke="#8E1533" stroke-width="0.4" stroke-miterlimit="10"/>
</svg>
