<svg width="115" height="122" viewBox="0 0 115 122" fill="none" xmlns="http://www.w3.org/2000/svg">
<path d="M85.6026 92.8592C82.6585 92.7996 79.7609 92.6271 76.843 92.7486C76.3636 92.7519 70.5506 93.0004 70.8248 92.6089C74.3677 87.3884 77.5353 83.3562 79.3716 77.3302C81.0313 71.512 81.7232 65.6053 81.421 59.8348C80.9992 49.2471 78.0893 39.1972 72.897 30.396C68.4597 22.8328 61.6323 14.9639 52.2878 12.5127C50.5446 12.0717 41.5954 11.2902 41.7601 15.0194C41.8376 16.7582 44.0701 16.0398 45.4436 16.1257C48.1805 16.4106 50.738 17.2659 52.9411 18.6328C70.1429 28.1918 75.213 54.5893 70.6738 73.3982C69.6152 78.455 67.2477 83.3499 63.7911 87.6279C62.9929 88.5596 60.2283 92.0709 59.132 91.8309C58.0357 91.5909 58.363 85.258 58.2016 84.1209C57.6925 80.0057 57.5305 74.4957 55.6235 70.8739C54.7578 69.2472 53.428 68.0761 51.312 69.1229C48.72 70.3483 49.1432 72.9594 49.1958 75.0033C49.3448 80.7591 50.5745 86.3647 51.4412 91.9657C52.2222 97.0717 51.8766 102.378 58.5702 101.854C65.3196 101.097 72.0709 100.023 78.7988 98.6375C80.6567 98.3103 85.7426 97.9027 87.2134 96.0697C89.4139 93.2877 85.3838 94.1867 85.6254 92.865C82.9712 92.804 85.5815 92.9411 85.6026 92.8592Z" fill="white"/>
</svg>
