<svg width="295" height="594" viewBox="0 0 295 594" fill="none" xmlns="http://www.w3.org/2000/svg">
<path d="M194.598 505L196.852 507.363L200 507.175L198.6 510.203L199.74 513.355L196.621 512.863L194.178 515L193.65 511.667L191 509.836L193.793 508.268L194.598 505Z" fill="#FFC100"/>
<path d="M199.228 299.141L202.902 297.98L204.525 294.484L206.765 297.62L210.591 298.083L208.301 301.183L209.043 304.964L205.387 303.744L202.02 305.618L202.051 301.765L199.228 299.141Z" fill="#FFC100"/>
<path d="M240.317 4.85369L243.992 3.69227L245.614 0.196503L247.854 3.33253L251.681 3.79539L249.39 6.89498L250.132 10.6768L246.477 9.45643L243.109 11.3309L243.14 7.47705L240.317 4.85369Z" fill="#FFC100"/>
<path d="M187.215 114.079L187.17 110.226L184.296 107.658L187.947 106.425L189.501 102.898L191.802 105.989L195.637 106.377L193.408 109.521L194.224 113.287L190.545 112.139L187.215 114.079Z" fill="#FFC100"/>
<path d="M268.784 406.595L271.539 409.29L275.387 409.075L273.676 412.528L275.07 416.121L271.257 415.561L268.271 417.997L267.625 414.197L264.386 412.109L267.8 410.322L268.784 406.595Z" fill="#FFC100"/>
<path d="M277.69 356.253L278.272 359.116L280.74 360.446L278.246 362.107L277.613 365.052L275.489 363.215L272.63 363.706L273.812 360.909L272.678 358.267L275.531 358.376L277.69 356.253Z" fill="#FFC100"/>
<path d="M172.317 203.854L175.992 202.692L177.614 199.197L179.854 202.333L183.68 202.795L181.39 205.895L182.132 209.677L178.477 208.456L175.109 210.331L175.14 206.477L172.317 203.854Z" fill="#FFC100"/>
<path d="M78.2194 92.1719L78.1747 88.3182L75.3004 85.7509L78.9517 84.5175L80.5052 80.9905L82.8065 84.0819L86.6409 84.4695L84.412 87.6135L85.2282 91.38L81.5493 90.2317L78.2194 92.1719Z" fill="#FFC100"/>
<path d="M270.98 531.85L271.105 535.702L274.032 538.209L270.407 539.518L268.928 543.077L266.562 540.034L262.721 539.726L264.884 536.537L263.989 532.788L267.691 533.859L270.98 531.85Z" fill="#FFC100"/>
<path d="M229.779 237.432L233.235 239.136L236.825 237.735L236.273 241.549L238.715 244.53L234.917 245.183L232.836 248.427L231.041 245.017L227.313 244.04L230.002 241.279L229.779 237.432Z" fill="#FFC100"/>
<path d="M107.721 38.1893L110.355 35.376L110.056 31.5337L113.546 33.1695L117.108 31.698L116.63 35.5222L119.13 38.4551L115.346 39.1828L113.329 42.467L111.467 39.0924L107.721 38.1893Z" fill="#FFC100"/>
<path d="M240.687 106.365L244.533 106.122L246.95 103.119L248.369 106.702L251.971 108.072L249.002 110.53L248.812 114.379L245.558 112.315L241.838 113.323L242.796 109.59L240.687 106.365Z" fill="#FFC100"/>
<path d="M101.062 548.214L100.023 551.819L102 555.013L98.2282 555.145L95.7814 558L94.4891 554.477L91 553.048L93.9731 550.738L94.2635 547L97.3934 549.095L101.062 548.214Z" fill="#FFC100"/>
<path d="M194.979 402L197.499 404.351L201 404.145L199.458 407.181L200.743 410.326L197.27 409.851L194.563 412L193.958 408.671L191 406.854L194.099 405.272L194.979 402Z" fill="#FFC100"/>
<path d="M233.386 180L233.597 176.152L231 173.394L234.596 172.413L236.324 169L238.335 172.242L242 172.891L239.647 175.875L240.185 179.689L236.719 178.292L233.386 180Z" fill="#FFC100"/>
<path d="M275 126.926L278.084 125.286L278.901 122L281.483 124.301L285 124.03L283.512 127.092L284.868 130.21L281.366 129.801L278.688 132L278.012 128.685L275 126.926Z" fill="#FFC100"/>
<path d="M196.745 562.092L197.093 565.931L200.161 568.264L196.618 569.781L195.347 573.419L192.809 570.519L188.956 570.434L190.931 567.124L189.821 563.434L193.578 564.289L196.745 562.092Z" fill="#FFC100"/>
<path d="M252.737 323.926L256.287 325.427L259.79 323.82L259.459 327.66L262.07 330.495L258.316 331.367L256.427 334.726L254.437 331.425L250.659 330.666L253.183 327.754L252.737 323.926Z" fill="#FFC100"/>
<path d="M216.466 50.0681L218.932 47.1069L218.411 43.2883L221.99 44.7192L225.46 43.0438L225.205 46.8893L227.871 49.6724L224.135 50.6182L222.312 54.0136L220.258 50.7527L216.466 50.0681Z" fill="#FFC100"/>
<path d="M288.051 58.7403L290.518 55.7791L289.997 51.9605L293.575 53.3914L297.046 51.716L296.791 55.5615L299.457 58.3446L295.721 59.2903L293.898 62.6858L291.844 59.4248L288.051 58.7403Z" fill="#FFC100"/>
<path d="M264.051 193.74L266.518 190.779L265.997 186.961L269.575 188.391L273.046 186.716L272.791 190.562L275.457 193.345L271.721 194.29L269.898 197.686L267.844 194.425L264.051 193.74Z" fill="#FFC100"/>
<path d="M280 248.913L282.693 248.536L284.269 246L285.413 248.825L288 249.762L286.014 251.884L286.037 255L283.666 253.486L281.093 254.475L281.614 251.417L280 248.913Z" fill="#FFC100"/>
<path d="M240.119 504.946L240.174 508.8L243.055 511.36L239.406 512.602L237.862 516.133L235.553 513.048L231.717 512.67L233.938 509.52L233.112 505.756L236.794 506.895L240.119 504.946Z" fill="#C19539"/>
<path d="M271.119 217.946L271.174 221.8L274.055 224.36L270.406 225.602L268.862 229.133L266.553 226.048L262.717 225.67L264.938 222.52L264.112 218.756L267.794 219.895L271.119 217.946Z" fill="#C19539"/>
<path d="M269.67 441L269.713 444.1L272 446.16L269.104 447.159L267.878 450L266.045 447.518L263 447.214L264.763 444.68L264.107 441.652L267.03 442.568L269.67 441Z" fill="#C19539"/>
<path d="M198.997 251.925L202.422 253.692L206.037 252.356L205.415 256.16L207.802 259.185L203.993 259.769L201.853 262.975L200.121 259.532L196.411 258.487L199.15 255.776L198.997 251.925Z" fill="#C19539"/>
<path d="M139 575.065L136.226 576.712L135.498 580L133.167 577.705L130 577.985L131.333 574.919L130.104 571.805L133.259 572.205L135.666 570L136.283 573.313L139 575.065Z" fill="#C19539"/>
<path d="M236.847 379.033L236.921 382.886L239.815 385.432L236.173 386.693L234.646 390.231L232.321 387.157L228.484 386.799L230.689 383.638L229.845 379.878L233.532 380.998L236.847 379.033Z" fill="#C19539"/>
<path d="M46.0817 31.9201L46.1554 35.7733L49.0489 38.319L45.4071 39.5798L43.8801 43.1184L41.5556 40.0444L37.7184 39.6856L39.9236 36.525L39.0791 32.7647L42.7665 33.8853L46.0817 31.9201Z" fill="#C19539"/>
<path d="M237 294.177L239.275 292.104L239.303 289L241.949 290.556L244.865 289.623L244.225 292.658L246 295.186L242.959 295.506L241.139 298L239.899 295.163L237 294.177Z" fill="#C19539"/>
<path d="M264.587 81.2699L268.296 82.3179L271.572 80.2879L271.721 84.139L274.664 86.6273L271.048 87.9595L269.591 91.5273L267.206 88.4996L263.363 88.2163L265.506 85.0129L264.587 81.2699Z" fill="#C19539"/>
<path d="M229.192 63.9611L232.802 64.9867L235.99 63L236.136 66.769L239 69.2044L235.48 70.5081L234.062 74L231.741 71.0367L228 70.7594L230.086 67.6243L229.192 63.9611Z" fill="#C19539"/>
<path d="M255.316 135.168L259.025 136.216L262.301 134.186L262.45 138.037L265.393 140.526L261.777 141.858L260.319 145.426L257.935 142.398L254.091 142.114L256.234 138.911L255.316 135.168Z" fill="#C19539"/>
<path d="M209.083 210.874L212.365 211.806L215.264 210L215.396 213.426L218 215.64L214.8 216.826L213.511 220L211.401 217.306L208 217.054L209.896 214.204L209.083 210.874Z" fill="#C19539"/>
<path d="M273.316 25.1681L277.025 26.2161L280.301 24.1861L280.45 28.0372L283.393 30.5255L279.777 31.8577L278.319 35.4255L275.935 32.3978L272.091 32.1145L274.234 28.9111L273.316 25.1681Z" fill="#C19539"/>
<path d="M242.975 27.8737L245.929 28.8061L248.537 27L248.656 30.4264L251 32.6403L248.12 33.8255L246.96 37L245.061 34.3061L242 34.054L243.706 31.2039L242.975 27.8737Z" fill="#C19539"/>
<path d="M173.316 324.168L177.025 325.216L180.301 323.186L180.45 327.037L183.393 329.526L179.777 330.858L178.319 334.426L175.935 331.398L172.091 331.114L174.234 327.911L173.316 324.168Z" fill="#C19539"/>
<path d="M187.083 50.8737L190.365 51.8061L193.264 50L193.396 53.4264L196 55.6403L192.8 56.8255L191.511 60L189.401 57.3061L186 57.054L187.896 54.2039L187.083 50.8737Z" fill="#C19539"/>
<path d="M49 589.558L46.226 591.041L45.4982 594L43.1667 591.935L40 592.187L41.3331 589.427L40.1037 586.624L43.2591 586.985L45.6661 585L46.2831 587.982L49 589.558Z" fill="#C19539"/>
<path d="M207.18 464.702L207.254 468.555L210.147 471.101L206.505 472.362L204.978 475.9L202.654 472.826L198.816 472.468L201.022 469.307L200.177 465.547L203.865 466.667L207.18 464.702Z" fill="#C19539"/>
<path d="M242.916 571.973L240.457 574.941L240.988 578.758L237.406 577.336L233.939 579.021L234.185 575.174L231.512 572.398L235.245 571.443L237.06 568.043L239.122 571.298L242.916 571.973Z" fill="#C19539"/>
<path d="M283.201 287.852L284.66 291.419L288.277 292.748L285.336 295.239L285.189 299.09L281.912 297.062L278.204 298.112L279.12 294.369L276.975 291.167L280.818 290.881L283.201 287.852Z" fill="#C19539"/>
<path d="M190.787 10.4449L194.624 10.0837L196.946 7.00815L198.476 10.5457L202.118 11.8042L199.227 14.3518L199.155 18.205L195.839 16.2419L192.152 17.3649L192.994 13.6041L190.787 10.4449Z" fill="#C19539"/>
<path d="M113.316 130.168L117.025 131.216L120.301 129.186L120.45 133.037L123.393 135.526L119.776 136.858L118.319 140.426L115.935 137.398L112.091 137.114L114.234 133.911L113.316 130.168Z" fill="#C19539"/>
</svg>
