<svg width="10" height="10" viewBox="0 0 10 10" fill="none" xmlns="http://www.w3.org/2000/svg">
<path d="M0.707108 0.707107C1.09763 0.316582 1.7308 0.316583 2.12132 0.707107L9.19239 7.77817C9.58291 8.1687 9.58291 8.80186 9.19239 9.19239C8.80187 9.58291 8.1687 9.58291 7.77818 9.19239L0.707108 2.12132C0.316584 1.7308 0.316584 1.09763 0.707108 0.707107Z" fill="white"/>
<path d="M0.707137 9.19246C0.316613 8.80193 0.316613 8.16877 0.707137 7.77824L7.7782 0.707177C8.16873 0.316653 8.80189 0.316653 9.19242 0.707177C9.58294 1.0977 9.58294 1.73087 9.19242 2.12139L2.12135 9.19246C1.73083 9.58298 1.09766 9.58298 0.707137 9.19246Z" fill="white"/>
</svg>
