<svg width="156" height="188" viewBox="0 0 156 188" fill="none" xmlns="http://www.w3.org/2000/svg">
<path d="M132.66 7.40991L24.1396 181.14" stroke="#1A73EC" stroke-width="0.4" stroke-miterlimit="10"/>
<path d="M123.36 3.08008L33.4502 185.46" stroke="#1A73EC" stroke-width="0.4" stroke-miterlimit="10"/>
<path d="M112.939 1L43.8594 187.54" stroke="#1A73EC" stroke-width="0.4" stroke-miterlimit="10"/>
<path d="M101.68 1.21997L55.1201 187.32" stroke="#1A73EC" stroke-width="0.4" stroke-miterlimit="10"/>
<path d="M89.8502 3.72998L66.9502 184.82" stroke="#1A73EC" stroke-width="0.4" stroke-miterlimit="10"/>
<path d="M77.7295 8.46997L79.0695 180.08" stroke="#1A73EC" stroke-width="0.4" stroke-miterlimit="10"/>
<path d="M65.6299 15.3198L91.1699 173.23" stroke="#1A73EC" stroke-width="0.4" stroke-miterlimit="10"/>
<path d="M53.8398 24.1099L102.96 164.43" stroke="#1A73EC" stroke-width="0.4" stroke-miterlimit="10"/>
<path d="M42.6602 34.6299L114.14 153.91" stroke="#1A73EC" stroke-width="0.4" stroke-miterlimit="10"/>
<path d="M32.3594 46.6199L124.439 141.92" stroke="#1A73EC" stroke-width="0.4" stroke-miterlimit="10"/>
<path d="M23.1895 59.79L133.609 128.76" stroke="#1A73EC" stroke-width="0.4" stroke-miterlimit="10"/>
<path d="M15.3896 73.7998L141.42 114.74" stroke="#1A73EC" stroke-width="0.4" stroke-miterlimit="10"/>
<path d="M9.12988 88.3198L147.67 100.23" stroke="#1A73EC" stroke-width="0.4" stroke-miterlimit="10"/>
<path d="M4.58008 102.98L152.22 85.5601" stroke="#1A73EC" stroke-width="0.4" stroke-miterlimit="10"/>
<path d="M1.83984 117.43L154.96 71.1099" stroke="#1A73EC" stroke-width="0.4" stroke-miterlimit="10"/>
<path d="M1 131.31L155.81 57.24" stroke="#1A73EC" stroke-width="0.4" stroke-miterlimit="10"/>
<path d="M2.0498 144.28L154.75 44.27" stroke="#1A73EC" stroke-width="0.4" stroke-miterlimit="10"/>
<path d="M4.98926 156.01L151.809 32.5298" stroke="#1A73EC" stroke-width="0.4" stroke-miterlimit="10"/>
<path d="M9.73926 166.23L147.059 22.3198" stroke="#1A73EC" stroke-width="0.4" stroke-miterlimit="10"/>
<path d="M16.1699 174.67L140.63 13.8699" stroke="#1A73EC" stroke-width="0.4" stroke-miterlimit="10"/>
</svg>
