<svg width="14" height="14" viewBox="0 0 14 14" fill="none" xmlns="http://www.w3.org/2000/svg">
<path d="M4.84611 6.4616H2.96148C2.7371 6.4616 2.54635 6.38309 2.38928 6.22602C2.23231 6.06896 2.15371 5.87826 2.15371 5.65383V5.38472C2.15371 4.79013 2.36409 4.28257 2.78481 3.86184C3.20551 3.44126 3.71316 3.23089 4.30769 3.23089H4.84611C4.99192 3.23089 5.11808 3.17758 5.22469 3.07105C5.33125 2.96446 5.38453 2.83831 5.38453 2.69247V1.61545C5.38453 1.46963 5.33122 1.34336 5.22469 1.23677C5.11811 1.13033 4.99195 1.07693 4.84611 1.07693H4.30769C3.7243 1.07693 3.16773 1.19063 2.63762 1.41768C2.10756 1.64488 1.64909 1.95201 1.26202 2.33908C0.874982 2.72597 0.567948 3.18447 0.340775 3.71459C0.113601 4.24464 0 4.80136 0 5.38469V11.3076C0 11.7566 0.156979 12.1378 0.471085 12.452C0.78522 12.7661 1.16672 12.9231 1.61541 12.9231H4.84632C5.29498 12.9231 5.67636 12.7661 5.99052 12.452C6.30457 12.1378 6.46164 11.7566 6.46164 11.3076V8.07701C6.46164 7.62814 6.30457 7.24694 5.99032 6.93268C5.6763 6.61866 5.29477 6.4616 4.84611 6.4616Z" fill="#41A6DC"/>
<path d="M13.5292 6.93268C13.2151 6.61866 12.8337 6.4616 12.385 6.4616H10.5003C10.2761 6.4616 10.0852 6.38309 9.92836 6.22602C9.77124 6.06896 9.69279 5.87826 9.69279 5.65383V5.38472C9.69279 4.79013 9.90317 4.28257 10.3237 3.86184C10.7442 3.44126 11.2519 3.23089 11.8467 3.23089H12.385C12.5308 3.23089 12.6571 3.17758 12.7636 3.07105C12.8701 2.96446 12.9236 2.83831 12.9236 2.69247V1.61545C12.9236 1.46963 12.8701 1.34336 12.7636 1.23677C12.6571 1.13033 12.5309 1.07693 12.385 1.07693H11.8467C11.263 1.07693 10.7065 1.19063 10.1763 1.41768C9.64629 1.64488 9.18797 1.95201 8.8009 2.33908C8.41383 2.72597 8.10664 3.18447 7.87956 3.71459C7.65244 4.24464 7.5387 4.80136 7.5387 5.38469V11.3076C7.5387 11.7566 7.69582 12.1378 8.00984 12.452C8.32389 12.7661 8.7053 12.9231 9.15405 12.9231H12.3848C12.8336 12.9231 13.2149 12.7661 13.529 12.452C13.8432 12.1378 14 11.7566 14 11.3076V8.07701C14 7.62811 13.8432 7.24694 13.5292 6.93268Z" fill="#41A6DC"/>
</svg>
