<svg width="15" height="16" viewBox="0 0 15 16" fill="none" xmlns="http://www.w3.org/2000/svg">
<path d="M10.5001 4.24992L3.99228 10.8671C3.77683 11.1049 3.66107 11.4164 3.66897 11.7372C3.67687 12.058 3.80782 12.3634 4.03471 12.5903C4.2616 12.8172 4.56705 12.9481 4.88783 12.956C5.2086 12.9639 5.52013 12.8482 5.75791 12.6327L13.5157 4.76554C13.9466 4.28998 14.1781 3.66693 14.1623 3.02538C14.1465 2.38383 13.8846 1.77293 13.4309 1.31915C12.9771 0.865368 12.3662 0.603468 11.7246 0.587672C11.0831 0.571877 10.46 0.803395 9.98447 1.23429L2.22666 9.10148C1.52425 9.80389 1.12964 10.7566 1.12964 11.7499C1.12964 12.7433 1.52425 13.6959 2.22666 14.3984C2.92907 15.1008 3.88174 15.4954 4.8751 15.4954C5.86845 15.4954 6.82112 15.1008 7.52353 14.3984L13.9376 7.99992" stroke="#1A73EC" stroke-linecap="round" stroke-linejoin="round"/>
</svg>
