<svg width="19" height="19" viewBox="0 0 19 19" fill="none" xmlns="http://www.w3.org/2000/svg">
<path d="M5.69063 18.2499H1.5C1.30109 18.2499 1.11033 18.1709 0.969675 18.0302C0.829022 17.8896 0.750005 17.6988 0.750005 17.4999V13.3093C0.749663 13.2119 0.768533 13.1154 0.805532 13.0253C0.842532 12.9352 0.896936 12.8533 0.965629 12.7843L12.2156 1.53429C12.2854 1.46343 12.3686 1.40715 12.4603 1.36874C12.5521 1.33033 12.6505 1.31055 12.75 1.31055C12.8495 1.31055 12.9479 1.33033 13.0397 1.36874C13.1314 1.40715 13.2146 1.46343 13.2844 1.53429L17.4656 5.71554C17.5365 5.78533 17.5928 5.86851 17.6312 5.96025C17.6696 6.052 17.6894 6.15046 17.6894 6.24992C17.6894 6.34938 17.6696 6.44784 17.6312 6.53958C17.5928 6.63132 17.5365 6.71451 17.4656 6.78429L6.21563 18.0343C6.1466 18.103 6.06469 18.1574 5.9746 18.1944C5.88452 18.2314 5.78802 18.2503 5.69063 18.2499V18.2499Z" stroke="#1A73EC" stroke-linecap="round" stroke-linejoin="round"/>
</svg>
