<svg width="72" height="72" viewBox="0 0 72 72" fill="none" xmlns="http://www.w3.org/2000/svg">
<g clip-path="url(#clip0_1548_87244)">
<path d="M70.9172 34.7179C70.8935 34.1625 70.4398 33.7428 69.8856 33.6956C65.0768 33.2886 61.0515 30.1388 59.3793 25.8151C58.9943 24.8186 57.9242 24.2314 56.8761 24.4424C55.9362 24.6313 54.9639 24.7313 53.9653 24.7308C52.2761 24.7297 50.6139 24.3127 49.0505 23.6728L48.4002 23.4064C46.282 22.539 44.4357 21.331 43.007 19.7018C41.1624 17.5979 39.9132 14.9755 39.5227 12.1185C39.5183 12.0844 39.5128 12.0498 39.5089 12.0157C38.9596 6.76098 41.1887 3.04156 41.2382 2.95312C41.6183 2.27362 41.2003 1.44031 40.4285 1.34088C38.9783 1.15466 37.5017 1.05469 36.001 1.05469C32.8573 1.05469 29.8107 1.46942 26.9126 2.2478C23.0893 3.27502 19.5144 5.07019 16.2575 7.32128L16.2525 7.32458C13.1494 9.46856 10.3133 12.0102 8.04739 15.026C3.20957 21.4634 0.543737 29.6268 1.13865 38.4269C2.3043 55.6787 16.2718 69.6681 33.5219 70.8579C53.9427 72.2658 70.9452 56.1181 70.9452 35.9989C70.9452 35.5693 70.9347 35.1425 70.9172 34.7179Z" fill="#C38C66"/>
<path d="M40.5098 66.4341C21.2101 66.4341 5.56504 50.789 5.56504 31.4899C5.56504 23.2145 8.44785 15.6163 13.2555 9.62988C11.3318 11.2399 9.55527 13.0186 8.04739 15.0258C3.20957 21.4632 0.543737 29.6266 1.13865 38.4267C2.3043 55.6785 16.2718 69.6679 33.5219 70.8577C45.2971 71.6696 55.928 66.6368 62.8257 58.3784C56.7717 63.4079 48.9951 66.4341 40.5098 66.4341Z" fill="#B57F5F"/>
<path d="M19.092 25.2897C19.092 26.8464 17.8308 28.1077 16.274 28.1077C14.7178 28.1077 13.4561 26.8464 13.4561 25.2897C13.4561 23.7335 14.7178 22.4717 16.274 22.4717C17.8308 22.4717 19.092 23.7335 19.092 25.2897Z" fill="#785353"/>
<path d="M36.0265 34.2396L34.4489 28.0284C34.2187 27.1226 33.1783 26.698 32.3807 27.1841L27.6494 30.0669C27.1287 30.3839 26.876 31.0035 27.026 31.5946L28.6036 37.8063C28.8338 38.7115 29.8742 39.1362 30.6718 38.65L35.403 35.7672C35.9238 35.4502 36.1765 34.8306 36.0265 34.2396Z" fill="#FFE09F"/>
<path d="M18.5531 48.0247L15.6934 51.9683C15.2765 52.5429 15.5352 53.3569 16.207 53.5866L20.1923 54.9467C20.6307 55.0961 21.1152 54.9423 21.3871 54.5671L24.2468 50.6241C24.6637 50.049 24.405 49.2349 23.7332 49.0058L19.7479 47.6457C19.3096 47.4957 18.8251 47.6495 18.5531 48.0247Z" fill="#FFE09F"/>
<path d="M52.543 51.4506L48.5461 49.8614C47.9639 49.6302 47.3228 50.0279 47.2728 50.653L46.9762 54.3592C46.9432 54.7668 47.1805 55.1486 47.5607 55.2997L51.5569 56.8888C52.1398 57.1207 52.7803 56.7224 52.8303 56.0973L53.1274 52.391C53.1598 51.9834 52.9231 51.6017 52.543 51.4506Z" fill="#FFE09F"/>
<path d="M17.8461 5.65751L13.9794 7.54167C13.4158 7.81632 13.279 8.5579 13.7075 9.01603L16.247 11.7318C16.5266 12.0307 16.9683 12.112 17.3357 11.9329L21.2024 10.0487C21.766 9.77409 21.9028 9.03251 21.4748 8.57493L18.9348 5.85911C18.6552 5.56028 18.2136 5.47843 17.8461 5.65751Z" fill="#FFE09F"/>
<path d="M50.3253 6.55426L48.818 11.0757C48.5988 11.7327 49.0185 12.4303 49.7018 12.544L54.5116 13.346C54.9148 13.413 55.3224 13.257 55.5773 12.9384L58.576 9.19042C59.0891 8.54882 58.7655 7.59137 57.969 7.39251L51.6678 5.81707C51.0965 5.67425 50.5115 5.99505 50.3253 6.55426Z" fill="#FFE09F"/>
<path d="M63.6745 14.2152L62.5006 15.9757C62.1765 16.4624 62.2776 17.1161 62.7341 17.4814L66.3771 20.3955C66.9677 20.8679 67.8471 20.6361 68.1278 19.9341L69.3989 16.7552C69.6302 16.1773 69.3495 15.5209 68.7711 15.2902L65.0308 13.7938C64.5364 13.5955 63.97 13.7713 63.6745 14.2152Z" fill="#C38C66"/>
<path d="M17.3357 11.933L17.8466 11.6837C16.4744 10.1686 16.2091 8.05377 16.2585 6.43164L13.9794 7.54181C13.4158 7.81647 13.279 8.55804 13.7075 9.01617L16.247 11.7314C16.5266 12.0303 16.9683 12.1121 17.3357 11.933Z" fill="#F6D190"/>
<path d="M28.6038 37.8072C28.834 38.7125 29.8744 39.1371 30.672 38.6509L32.337 37.6363C29.6486 35.7775 29.1092 32.0729 29.1713 29.1406L27.6497 30.0679C27.1289 30.3848 26.8762 31.0045 27.0262 31.5955L28.6038 37.8072Z" fill="#F6D190"/>
<path d="M16.8233 50.4102L15.6934 51.9686C15.2765 52.5432 15.5352 53.3572 16.207 53.5869L20.1923 54.947C20.6307 55.0964 21.1157 54.9426 21.3876 54.5674L22.3275 53.271C19.2738 52.8068 17.7132 51.6357 16.8233 50.4102Z" fill="#F6D190"/>
<path d="M49.7011 12.5434L53.2793 13.1394C51.9571 10.9559 51.4644 8.00824 51.265 5.79395C50.8415 5.84283 50.4663 6.12683 50.3246 6.5531L48.8172 11.0751C48.5981 11.7321 49.0177 12.4297 49.7011 12.5434Z" fill="#F6D190"/>
<path d="M64.3188 18.7487C63.9997 17.0908 64.8088 15.4583 65.6394 14.0372L65.0313 13.7938C64.5358 13.5955 63.97 13.7713 63.6745 14.2152L62.5006 15.9757C62.1765 16.4624 62.2776 17.1161 62.7346 17.4814L64.3188 18.7487Z" fill="#B57F5F"/>
<path d="M39.3831 59.1071C39.3831 60.6633 38.1213 61.925 36.5651 61.925C35.0083 61.925 33.7471 60.6633 33.7471 59.1071C33.7471 57.5503 35.0083 56.2891 36.5651 56.2891C38.1213 56.2891 39.3831 57.5503 39.3831 59.1071Z" fill="#785353"/>
<path d="M58.5457 39.3806C58.5457 41.2483 57.0317 42.7622 55.1641 42.7622C53.2964 42.7622 51.7825 41.2483 51.7825 39.3806C51.7825 37.5129 53.2964 35.999 55.1641 35.999C57.0317 35.999 58.5457 37.5129 58.5457 39.3806Z" fill="#785353"/>
<path d="M56.8972 41.0287C55.0295 41.0287 53.5156 39.5148 53.5156 37.6471C53.5156 37.1626 53.621 36.7045 53.8045 36.2881C52.6152 36.8116 51.7825 37.997 51.7825 39.3802C51.7825 41.2479 53.2964 42.7623 55.1641 42.7623C56.5472 42.7623 57.7327 41.9296 58.2567 40.7397C57.8398 40.9232 57.3816 41.0287 56.8972 41.0287Z" fill="#6E4848"/>
<path d="M68.6904 4.43603C68.6904 5.68078 67.6808 6.69043 66.436 6.69043C65.1907 6.69043 64.1816 5.68078 64.1816 4.43603C64.1816 3.19073 65.1907 2.18164 66.436 2.18164C67.6808 2.18164 68.6904 3.19073 68.6904 4.43603Z" fill="#C38C66"/>
<path d="M50.6545 25.2897C50.6545 26.8464 49.3933 28.1077 47.8365 28.1077C46.2803 28.1077 45.0186 26.8464 45.0186 25.2897C45.0186 23.7335 46.2803 22.4717 47.8365 22.4717C49.3933 22.4717 50.6545 23.7335 50.6545 25.2897Z" fill="#785353"/>
<path d="M71.9708 34.6745C71.9263 33.6099 71.0683 32.7376 69.9752 32.6453C65.6751 32.2811 61.8975 29.4384 60.3511 25.4026C59.7952 23.9529 58.2187 23.0943 56.6839 23.4053C54.8673 23.7727 53.0227 23.7596 51.1957 23.3657C50.5266 22.2028 49.272 21.4173 47.8366 21.4173C47.473 21.4173 47.1214 21.4689 46.7874 21.5629C43.4157 19.4255 41.0993 15.8642 40.5675 11.9756C40.4631 11.2121 40.4214 10.4414 40.4428 9.68389C40.4593 9.10162 40.0006 8.61602 39.4183 8.59954C38.8328 8.58471 38.3505 9.04174 38.334 9.62402C38.3098 10.4969 38.3576 11.384 38.4779 12.2613C39.0503 16.4487 41.4058 20.3049 44.8665 22.8087C44.3034 23.4811 43.9639 24.3468 43.9639 25.29C43.9639 27.4257 45.7014 29.1632 47.8372 29.1632C49.8674 29.1632 51.5368 27.5921 51.6961 25.602C53.499 25.8777 55.3117 25.8354 57.1025 25.4723C57.6408 25.3641 58.1901 25.658 58.3813 26.1573C58.7405 27.095 59.2025 27.9772 59.7496 28.7946L58.9273 29.6169C58.5153 30.0289 58.5153 30.6969 58.9273 31.1083C59.1333 31.3143 59.403 31.4176 59.6733 31.4176C59.943 31.4176 60.2127 31.3143 60.4187 31.1083L61.0663 30.4607C63.3119 32.8837 66.4183 34.4608 69.7972 34.747C69.8406 34.7503 69.8631 34.769 69.8636 34.7629C69.8818 35.2018 69.8906 35.6067 69.8906 35.9989C69.8906 40.7807 68.915 45.4026 66.9913 49.7362C65.1324 53.9236 62.4841 57.6386 59.1201 60.7785C55.7627 63.9124 51.8834 66.2937 47.59 67.8559C43.1213 69.4819 38.4125 70.1378 33.595 69.8054C29.9591 69.5549 26.4122 68.7051 23.08 67.3203L24.3473 66.0531C24.7587 65.6411 24.7587 64.9731 24.3473 64.5611C23.9353 64.1497 23.2674 64.1497 22.8559 64.5611L21.0305 66.3865C17.7467 64.7572 14.7123 62.588 12.0619 59.9381C6.25558 54.1318 2.7515 46.4848 2.19449 38.4049C1.93137 34.5893 2.28348 30.8633 3.24039 27.2746L3.69248 27.7267C3.89847 27.9327 4.16818 28.0354 4.43845 28.0354C4.70816 28.0354 4.97787 27.9327 5.18387 27.7267C5.59586 27.3147 5.59586 26.6468 5.18387 26.2353L4.05667 25.1081C4.01822 25.0697 3.97702 25.0356 3.93472 25.0049C4.24344 24.1067 4.58896 23.2179 4.97568 22.3401C6.95981 17.8407 9.95248 13.7703 13.6631 10.5123L15.477 12.4519C15.8637 12.865 16.3888 13.0836 16.9244 13.0836C17.2194 13.0836 17.5182 13.0171 17.7978 12.8809L21.6644 10.9968C22.2368 10.7177 22.6318 10.1986 22.7477 9.57238C22.8636 8.94561 22.6801 8.31939 22.2451 7.85412L20.4164 5.89856C25.2064 3.4162 30.5656 2.10937 36.001 2.10937C37.4161 2.10937 38.8602 2.20276 40.2934 2.38733C40.3132 2.38952 40.3187 2.39447 40.3236 2.40381C40.328 2.4126 40.3291 2.41864 40.3192 2.43567C39.9298 3.1322 39.5914 3.86169 39.3134 4.60547C39.1096 5.15094 39.3865 5.75848 39.932 5.96228C40.478 6.16607 41.0855 5.88922 41.2893 5.34375C41.5299 4.7005 41.8227 4.06878 42.16 3.46563C42.5093 2.84161 42.5269 2.09015 42.2078 1.45569C41.8881 0.820129 41.2728 0.386718 40.5626 0.294983C39.0404 0.0994262 37.5056 0 36.001 0C29.874 0 23.837 1.56445 18.5163 4.52527C18.1395 4.47528 17.7467 4.53296 17.3842 4.70984L13.5181 6.59344C12.9452 6.87249 12.5502 7.39215 12.4343 8.01837C12.387 8.27654 12.3925 8.53417 12.4431 8.78082C8.42428 12.2646 5.18332 16.6415 3.04538 21.4892C0.674533 26.8676 -0.320279 32.6074 0.0895113 38.5499C0.682223 47.1379 4.40384 55.2634 10.5699 61.4295C16.736 67.5955 24.8615 71.3177 33.4495 71.9099C34.3103 71.9692 35.1672 71.9988 36.0203 71.9988C40.2385 71.9988 44.3622 71.2748 48.3112 69.8378C52.8727 68.1784 56.9932 65.6488 60.5593 62.3204C64.1315 58.9861 66.944 55.0404 68.9188 50.5926C70.9634 45.9876 71.9999 41.0773 71.9999 35.9989C71.9999 35.5765 71.9906 35.1436 71.9708 34.6745ZM47.8366 27.0533C46.8643 27.0533 46.0733 26.2622 46.0733 25.29C46.0733 24.3177 46.8643 23.5267 47.8366 23.5267C48.8095 23.5267 49.6005 24.3177 49.6005 25.29C49.6005 26.2622 48.8095 27.0533 47.8366 27.0533ZM18.2263 6.64563L20.5905 9.17303L16.9552 10.9446L14.5915 8.41717L18.2263 6.64563Z" fill="#342E37"/>
<path d="M36.5651 62.9803C38.7003 62.9803 40.4377 61.2428 40.4377 59.1071C40.4377 56.9719 38.7003 55.2344 36.5651 55.2344C34.4293 55.2344 32.6924 56.9719 32.6924 59.1071C32.6924 61.2428 34.4293 62.9803 36.5651 62.9803ZM36.5651 57.3443C37.5374 57.3443 38.3284 58.1353 38.3284 59.1076C38.3284 60.0799 37.5374 60.8709 36.5651 60.8709C35.5922 60.8709 34.8012 60.0799 34.8012 59.1076C34.8012 58.1353 35.5922 57.3443 36.5651 57.3443Z" fill="#342E37"/>
<path d="M16.274 21.417C14.1389 21.417 12.4014 23.1545 12.4014 25.2897C12.4014 27.4254 14.1383 29.1629 16.274 29.1629C18.4098 29.1629 20.1467 27.4254 20.1467 25.2897C20.1467 23.1545 18.4098 21.417 16.274 21.417ZM16.274 27.053C15.3018 27.053 14.5107 26.262 14.5107 25.2897C14.5107 24.3174 15.3018 23.5264 16.274 23.5264C17.2463 23.5264 18.0374 24.3174 18.0374 25.2897C18.0374 26.262 17.2463 27.053 16.274 27.053Z" fill="#342E37"/>
<path d="M55.1641 43.8169C57.6102 43.8169 59.6003 41.8273 59.6003 39.3806C59.6003 36.9345 57.6102 34.9443 55.1641 34.9443C52.718 34.9443 50.7278 36.9345 50.7278 39.3806C50.7278 41.8273 52.718 43.8169 55.1641 43.8169ZM55.1641 37.0537C56.4473 37.0537 57.491 38.0974 57.491 39.3806C57.491 40.6638 56.4473 41.7075 55.1641 41.7075C53.8809 41.7075 52.8366 40.6638 52.8366 39.3806C52.8366 38.0974 53.8809 37.0537 55.1641 37.0537Z" fill="#342E37"/>
<path d="M36.5329 31.9493C36.3895 31.3852 35.8149 31.0435 35.2508 31.1869C34.6861 31.3303 34.3449 31.9043 34.4883 32.469L35.0041 34.4998C35.0404 34.6426 34.9799 34.7904 34.8542 34.8668L30.1229 37.7496C29.9976 37.8259 29.8812 37.7974 29.823 37.7737C29.7647 37.7501 29.6615 37.6886 29.6258 37.5469L28.0481 31.3352C28.0119 31.1924 28.0717 31.0446 28.1981 30.9683L32.9293 28.0854C33.0546 28.0091 33.171 28.0377 33.2287 28.0613C33.2875 28.0849 33.3902 28.1464 33.4265 28.2881C33.5698 28.8528 34.1439 29.194 34.708 29.0511C35.2727 28.9078 35.6144 28.3337 35.471 27.769C35.2782 27.0099 34.7514 26.4045 34.0258 26.1085C33.3007 25.8124 32.5009 25.8766 31.8318 26.2842L27.1 29.1671C26.1788 29.7285 25.7377 30.8084 26.0036 31.8543L27.5812 38.066C27.774 38.8251 28.3008 39.431 29.0259 39.7266C29.3269 39.8496 29.6411 39.9106 29.9532 39.9106C30.3926 39.9106 30.8288 39.7897 31.2204 39.5508L35.9517 36.6685C36.8734 36.1066 37.314 35.0266 37.0487 33.9807L36.5329 31.9493Z" fill="#342E37"/>
<path d="M15.8667 54.585L19.852 55.9452C20.0783 56.0226 20.3107 56.06 20.5392 56.06C21.2006 56.06 21.835 55.7474 22.2415 55.1865L25.1007 51.2436C25.4984 50.6953 25.6089 50.0114 25.404 49.3665C25.1996 48.7216 24.7151 48.2262 24.0746 48.0081L20.0893 46.648C19.2071 46.347 18.2469 46.6513 17.6998 47.406L14.8401 51.3496C14.4429 51.8972 14.3325 52.5811 14.5374 53.226C14.7417 53.8709 15.2262 54.3664 15.8667 54.585ZM19.4071 48.6442L18.5534 48.0251L19.4076 48.6442L23.3935 50.0054L20.5332 53.9489L16.5473 52.5877L19.4071 48.6442Z" fill="#342E37"/>
<path d="M49.5268 50.2518C49.7421 49.7102 49.4779 49.0971 48.9363 48.8818C48.3447 48.6467 47.6948 48.7044 47.1538 49.0405C46.6127 49.3767 46.2732 49.9337 46.2227 50.5693L45.9255 54.2755C45.8552 55.15 46.3562 55.9559 47.1713 56.28L51.1682 57.8691C51.4082 57.9647 51.6576 58.012 51.9059 58.012C52.269 58.012 52.6294 57.9103 52.9512 57.7104C53.4918 57.3742 53.8313 56.8167 53.8823 56.1822L54.1795 52.476C54.2493 51.6009 53.7489 50.7956 52.9331 50.471C52.3915 50.2556 51.7785 50.5204 51.5637 51.0615C51.3599 51.574 51.5856 52.1508 52.0701 52.3936L51.7933 55.8477L48.0354 54.3535L48.3128 50.8906C48.8111 51.0049 49.3324 50.7412 49.5268 50.2518Z" fill="#342E37"/>
<path d="M26.7989 18.4342L27.9261 16.1798C28.187 15.659 27.9756 15.0251 27.4548 14.7648C26.9335 14.5044 26.3001 14.7159 26.0398 15.2366L24.9126 17.491C24.6517 18.0123 24.8631 18.6457 25.3839 18.9061C25.5355 18.9819 25.6965 19.0176 25.8547 19.0176C26.2419 19.0176 26.6144 18.8039 26.7989 18.4342Z" fill="#342E37"/>
<path d="M34.8736 22.3994C35.1433 22.3994 35.413 22.2967 35.619 22.0907C36.031 21.6787 36.031 21.0107 35.619 20.5993L34.4918 19.4721C34.0798 19.0601 33.4124 19.0601 33.0004 19.4721C32.5884 19.8835 32.5884 20.5515 33.0004 20.9635L34.1276 22.0907C34.3336 22.2961 34.6033 22.3994 34.8736 22.3994Z" fill="#342E37"/>
<path d="M9.60235 36.1831L7.34795 37.3103C6.8272 37.5707 6.61571 38.204 6.87609 38.7253C7.06121 39.0945 7.43365 39.3081 7.82036 39.3081C7.97912 39.3081 8.14007 39.2724 8.29113 39.1966L10.5455 38.0694C11.0668 37.8091 11.2778 37.1757 11.0174 36.6544C10.757 36.1336 10.1236 35.9222 9.60235 36.1831Z" fill="#342E37"/>
<path d="M18.3471 38.6352C17.9351 39.0466 17.9351 39.7146 18.3471 40.1266L19.4743 41.2538C19.6797 41.4592 19.95 41.5625 20.2197 41.5625C20.4894 41.5625 20.7597 41.4597 20.9657 41.2538C21.3777 40.8418 21.3777 40.1738 20.9657 39.7624L19.8385 38.6352C19.4265 38.2232 18.7585 38.2232 18.3471 38.6352Z" fill="#342E37"/>
<path d="M33.7472 49.4537C33.906 49.4537 34.0664 49.4179 34.218 49.3421L36.4724 48.2149C36.9937 47.9546 37.2046 47.3212 36.9442 46.7999C36.6839 46.2792 36.05 46.0677 35.5292 46.3286L33.2748 47.4558C32.7535 47.7162 32.5426 48.3495 32.8029 48.8708C32.9881 49.24 33.3605 49.4537 33.7472 49.4537Z" fill="#342E37"/>
<path d="M44.6375 38.6352C44.2256 38.2232 43.5576 38.2232 43.1461 38.6352C42.7342 39.0466 42.7342 39.7146 43.1461 40.1266L44.2733 41.2538C44.4788 41.4592 44.7491 41.5625 45.0188 41.5625C45.289 41.5625 45.5587 41.4597 45.7647 41.2538C46.1767 40.8418 46.1767 40.1738 45.7647 39.7624L44.6375 38.6352Z" fill="#342E37"/>
<path d="M45.7643 62.3066C45.3523 61.8952 44.6843 61.8952 44.2729 62.3066C43.8609 62.7186 43.8609 63.3866 44.2729 63.798L45.4001 64.9252C45.606 65.1312 45.8758 65.2345 46.1455 65.2345C46.4157 65.2345 46.6855 65.1318 46.8914 64.9252C47.3034 64.5138 47.3034 63.8458 46.8914 63.4338L45.7643 62.3066Z" fill="#342E37"/>
<path d="M61.9267 49.4536C62.197 49.4536 62.4667 49.3504 62.6727 49.1444C63.0847 48.7329 63.0847 48.065 62.6727 47.653L61.5455 46.5258C61.1335 46.1138 60.4655 46.1138 60.0541 46.5258C59.6421 46.9378 59.6421 47.6057 60.0541 48.0172L61.1813 49.1444C61.3873 49.3504 61.657 49.4536 61.9267 49.4536Z" fill="#342E37"/>
<path d="M49.5289 13.5837L54.3381 14.3851C54.4579 14.4055 54.5776 14.4148 54.6968 14.4148C55.3527 14.4148 55.9833 14.1182 56.4008 13.5963L59.3995 9.84834C59.8659 9.26496 60.0016 8.49482 59.7626 7.7873C59.5242 7.07978 58.9491 6.54915 58.2246 6.36842L51.9239 4.79298C50.8247 4.51832 49.6827 5.14509 49.3245 6.22011L47.8172 10.7415C47.6151 11.348 47.6887 12.0093 48.0183 12.557C48.3479 13.1041 48.8983 13.4788 49.5289 13.5837ZM49.8184 11.4084L51.3257 6.88698C51.3356 6.85676 51.3641 6.83699 51.3949 6.83699C51.4004 6.83699 51.4064 6.83809 51.4125 6.83918L57.7131 8.41462C57.7269 8.41792 57.7516 8.42396 57.7648 8.46186C57.7774 8.49922 57.7609 8.51954 57.7527 8.53053L54.754 12.278C54.7375 12.2988 54.7117 12.3087 54.6853 12.3049L49.8755 11.5029C49.8667 11.5012 49.8425 11.4974 49.8255 11.4688C49.8079 11.4403 49.8156 11.4172 49.8184 11.4084Z" fill="#342E37"/>
<path d="M62.0758 18.3049L65.7188 21.219C66.1121 21.5343 66.5867 21.6986 67.0745 21.6986C67.2613 21.6986 67.4508 21.6744 67.6381 21.625C68.3127 21.447 68.8483 20.9735 69.1076 20.3259L70.3792 17.147C70.8258 16.0297 70.2804 14.7574 69.1636 14.3108L65.4233 12.8145C64.4708 12.4338 63.3661 12.7766 62.7976 13.6302L61.6237 15.3908C60.9909 16.34 61.1853 17.5925 62.0758 18.3049ZM63.3787 16.5608L64.5526 14.8003C64.5664 14.78 64.5889 14.7679 64.6131 14.7679C64.6218 14.7679 64.6312 14.7695 64.64 14.7734L68.3803 16.2692C68.4171 16.284 68.4352 16.3263 68.4204 16.3636L67.1487 19.5425C67.1443 19.5535 67.1355 19.5766 67.0998 19.5859C67.0647 19.5953 67.0454 19.5799 67.0361 19.5722L63.3936 16.6581C63.3639 16.6344 63.3573 16.5927 63.3787 16.5608Z" fill="#342E37"/>
<path d="M66.436 7.74511C68.2603 7.74511 69.7451 6.26031 69.7451 4.43603C69.7451 2.6112 68.2603 1.12695 66.436 1.12695C64.6112 1.12695 63.127 2.6112 63.127 4.43603C63.127 6.26031 64.6112 7.74511 66.436 7.74511ZM66.436 3.23578C67.0974 3.23578 67.6357 3.77411 67.6357 4.43603C67.6357 5.09741 67.0974 5.63574 66.436 5.63574C65.7741 5.63574 65.2363 5.09741 65.2363 4.43603C65.2363 3.77411 65.7741 3.23578 66.436 3.23578Z" fill="#342E37"/>
</g>
<defs>
<clipPath id="clip0_1548_87244">
<rect width="72" height="72" fill="white"/>
</clipPath>
</defs>
</svg>
