<svg width="14" height="13" viewBox="0 0 14 13" fill="none" xmlns="http://www.w3.org/2000/svg">
<path fill-rule="evenodd" clip-rule="evenodd" d="M6.99996 4.99984C7.2761 4.99984 7.49996 5.22369 7.49996 5.49984V7.99984C7.49996 8.27598 7.2761 8.49984 6.99996 8.49984C6.72382 8.49984 6.49996 8.27598 6.49996 7.99984V5.49984C6.49996 5.22369 6.72382 4.99984 6.99996 4.99984Z" fill="#FA6A7E"/>
<path fill-rule="evenodd" clip-rule="evenodd" d="M6.25068 0.701062C6.47834 0.569041 6.73684 0.499512 7.00002 0.499512C7.26319 0.499512 7.52169 0.569041 7.74936 0.701062C7.97663 0.832859 8.16512 1.02226 8.29581 1.25016L8.29648 1.25132L13.7952 10.7492C13.9267 10.9768 13.9963 11.2355 13.9965 11.4983C13.9967 11.7612 13.9279 12.0195 13.7969 12.2474C13.6658 12.4753 13.4772 12.6647 13.2499 12.7967C13.0226 12.9288 12.7646 12.9987 12.5018 12.9997L12.5 12.9997H1.50002L1.49826 12.9997C1.2354 12.9987 0.977403 12.9288 0.750109 12.7967C0.522815 12.6647 0.334208 12.4753 0.203181 12.2474C0.0721537 12.0195 0.00330775 11.7612 0.00354063 11.4983C0.00377347 11.2355 0.0730768 10.9773 0.204507 10.7497L5.70356 1.25132L5.70422 1.25016C5.83491 1.02226 6.0234 0.832859 6.25068 0.701062ZM6.13752 1.49967L6.57023 1.75019L1.07053 11.2497C1.02679 11.3255 1.00362 11.4117 1.00354 11.4992C1.00346 11.5869 1.02641 11.673 1.07009 11.7489C1.11376 11.8249 1.17663 11.888 1.2524 11.932C1.32791 11.9759 1.41359 11.9992 1.50091 11.9997H12.4991C12.5864 11.9992 12.6721 11.9759 12.7476 11.932C12.8234 11.888 12.8863 11.8249 12.9299 11.7489C12.9736 11.673 12.9966 11.5869 12.9965 11.4992C12.9964 11.4117 12.9734 11.3258 12.9297 11.25L7.42855 1.74802C7.38534 1.67252 7.32296 1.60977 7.24771 1.56613C7.17245 1.52249 7.08701 1.49951 7.00002 1.49951C6.91303 1.49951 6.82758 1.52249 6.75233 1.56613C6.67708 1.60977 6.61469 1.67252 6.57148 1.74802L6.13752 1.49967Z" fill="#FA6A7E"/>
<path d="M6.99996 10.7498C7.2761 10.7498 7.49996 10.526 7.49996 10.2498C7.49996 9.97369 7.2761 9.74984 6.99996 9.74984C6.72382 9.74984 6.49996 9.97369 6.49996 10.2498C6.49996 10.526 6.72382 10.7498 6.99996 10.7498Z" fill="#FA6A7E"/>
</svg>
