<svg width="274" height="48" viewBox="0 0 274 48" fill="none" xmlns="http://www.w3.org/2000/svg">
<g clip-path="url(#clip0_2_4932)">
<mask id="mask0_2_4932" style="mask-type:luminance" maskUnits="userSpaceOnUse" x="1" y="1" width="55" height="46">
<path d="M28.5434 12.3269C26.3985 8.57087 23.5203 4.83079 19.7471 2.61607C15.7531 0.271534 10.8928 0.830677 7.13645 3.43567C-0.346064 8.62337 -0.242387 18.3124 4.4068 25.3997C8.9288 32.2926 24.9185 44.6912 27.2766 46.5845C27.4349 46.7114 27.5507 46.5891 27.5427 46.4518C27.3459 42.9356 25.6933 29.6834 12.1601 19.0719C11.376 18.1502 12.3103 16.7757 13.4516 17.1764C17.4615 18.5863 20.6005 26.1878 28.1359 26.2613C33.2682 26.3122 37.0254 19.7176 42.8016 17.6209C43.9622 17.1995 44.9163 18.6102 44.0898 19.5289C27.5658 31.3243 31.2861 42.0929 29.8959 46.3631C29.8472 46.5135 29.8825 46.6584 30.0793 46.4971C31.8599 45.0377 39.7601 38.691 42.6047 36.2154C48.9078 30.7298 55.8841 23.8865 55.8841 14.8966C55.8841 7.95837 50.7828 1.75824 43.7393 1.14574C43.4346 1.11886 43.1332 1.10626 42.8352 1.10626C36.3521 1.10626 31.6488 7.24002 28.5434 12.3269ZM24.9844 19.3512C25.2236 18.0859 26.2432 17.0659 27.5071 16.8261C29.77 16.3967 31.7168 18.3456 31.2874 20.6094C31.0481 21.8747 30.0285 22.8956 28.7647 23.1346C28.5518 23.1753 28.3411 23.1942 28.1359 23.1942C26.1563 23.1947 24.5952 21.4026 24.9844 19.3512Z" fill="white"/>
</mask>
<g mask="url(#mask0_2_4932)">
<path d="M-0.345947 0.271526H55.8842V46.7114H-0.345947V0.271526Z" fill="#FF3C1F"/>
</g>
<mask id="mask1_2_4932" style="mask-type:luminance" maskUnits="userSpaceOnUse" x="-24" y="-34" width="327" height="109">
<path d="M-23.8706 -33.3425H302.843V74.3471H-23.8706V-33.3425Z" fill="white"/>
</mask>
<g mask="url(#mask1_2_4932)">
<path d="M92.1658 19.2373C92.1801 16.9995 91.9925 15.0003 91.6034 13.2384C91.2138 11.4774 90.6186 9.9903 89.8181 8.77749C89.0177 7.56469 88.0145 6.63713 86.8102 5.99481C85.6055 5.35249 84.1884 5.02398 82.5581 5.00927C81.0869 5.00927 79.7776 5.32308 78.6309 5.95154C77.4837 6.57916 76.5136 7.48193 75.7203 8.65819C74.927 9.83528 74.3246 11.2644 73.9137 12.9461C73.5023 14.6281 73.2967 16.5231 73.2967 18.6312C73.2967 20.7098 73.4986 22.6082 73.9028 24.3263C74.3066 26.0445 74.898 27.5207 75.6771 28.7549C76.4561 29.9896 77.4262 30.9499 78.5876 31.6355C79.7487 32.3215 81.0869 32.6714 82.6013 32.6857C84.0004 32.6857 85.2848 32.4186 86.4534 31.8842C87.6216 31.3507 88.6277 30.5311 89.4718 29.4267C90.3155 28.3218 90.972 26.9254 91.4409 25.2358C91.9093 23.5471 92.1511 21.5474 92.1658 19.2373ZM97.0559 18.6744C97.0559 20.1468 96.8901 21.5579 96.5585 22.9077C96.2265 24.2579 95.7539 25.5068 95.141 26.6545C94.5278 27.8026 93.7886 28.8415 92.9231 29.7728C92.0575 30.7042 91.0908 31.5019 90.0234 32.1657C88.956 32.8298 87.8021 33.339 86.5613 33.6927C85.3205 34.0464 84.0151 34.2233 82.6446 34.2233C80.6541 34.2233 78.7895 33.8515 77.0514 33.1083C75.3127 32.3648 73.7945 31.3141 72.4962 29.9572C71.1979 28.5999 70.1771 26.9721 69.4345 25.0737C68.6911 23.1753 68.3201 21.071 68.3201 18.7605C68.3201 16.5664 68.6949 14.5344 69.4454 12.6646C70.1951 10.7952 71.2302 9.17826 72.5503 7.8138C73.8705 6.44935 75.4248 5.38483 77.2134 4.61943C79.0019 3.85444 80.9425 3.47174 83.0345 3.47174C84.3181 3.47174 85.5551 3.64482 86.7451 3.99139C87.9355 4.33797 89.05 4.82905 90.0885 5.46381C91.1269 6.09941 92.0718 6.87154 92.9231 7.78104C93.7743 8.69095 94.5064 9.70841 95.1196 10.8347C95.7325 11.9609 96.2085 13.1809 96.5476 14.4945C96.8864 15.8086 97.0559 17.2016 97.0559 18.6744Z" fill="#002F6D"/>
<path d="M116.033 24.9093C116.033 23.3109 115.881 21.9359 115.578 20.7836C115.274 19.6317 114.862 18.6882 114.342 17.9539C113.821 17.22 113.214 16.676 112.52 16.3231C111.827 15.9706 111.089 15.7938 110.309 15.7938C109.875 15.7938 109.474 15.877 109.105 16.0425C108.737 16.208 108.372 16.4386 108.01 16.7335C107.649 17.0288 107.28 17.3784 106.904 17.7816C106.528 18.1849 106.116 18.6311 105.668 19.1205V26.5292C105.668 28.0705 105.733 29.1216 105.863 29.6837C105.964 30.058 106.13 30.4323 106.362 30.8066C106.593 31.1813 106.896 31.5165 107.272 31.8114C107.648 32.1063 108.089 32.3475 108.595 32.5344C109.101 32.7222 109.672 32.8155 110.308 32.8155C111.161 32.8155 111.938 32.6323 112.64 32.2647C113.341 31.8976 113.94 31.3758 114.439 30.6986C114.938 30.0218 115.328 29.1938 115.61 28.2146C115.892 27.2354 116.033 26.1335 116.033 24.9093ZM119.495 22.8534C119.495 24.4128 119.275 25.8785 118.834 27.2497C118.394 28.6217 117.772 29.8236 116.97 30.8557C116.168 31.8879 115.211 32.7003 114.099 33.2918C112.986 33.8837 111.751 34.1799 110.393 34.1799C110.075 34.1799 109.735 34.1652 109.374 34.1366C109.013 34.1077 108.638 34.0316 108.247 33.9094C107.857 33.7863 107.446 33.6061 107.012 33.3679C106.578 33.1293 106.13 32.8012 105.668 32.3823V38.3812C105.668 39.1609 105.694 39.7961 105.744 40.2868C105.794 40.7774 105.932 41.1639 106.155 41.4454C106.379 41.7269 106.718 41.9218 107.172 42.0302C107.626 42.1385 108.25 42.207 109.044 42.236V43.059H98.5493V42.236C99.3569 42.207 99.9916 42.1419 100.453 42.0411C100.915 41.9398 101.261 41.7487 101.492 41.4672C101.723 41.1858 101.867 40.7921 101.925 40.2868C101.982 39.7814 102.011 39.1172 102.011 38.2943V19.5187C102.011 18.9701 102.008 18.5193 102.001 18.1652C101.993 17.8115 101.968 17.5153 101.925 17.2775C101.882 17.0393 101.809 16.8482 101.708 16.7033C101.607 16.5596 101.47 16.4218 101.297 16.292C101.067 16.1332 100.774 16.0429 100.421 16.0215C100.067 15.9996 99.5735 16.1189 98.9384 16.3785L98.679 15.6421L104.851 13.1732H105.668L105.69 17.8081C106.195 16.9419 106.7 16.2092 107.205 15.6098C107.709 15.0111 108.222 14.5272 108.741 14.1588C109.26 13.7908 109.794 13.5274 110.342 13.3686C110.89 13.2098 111.468 13.13 112.073 13.13C113.169 13.13 114.172 13.3791 115.081 13.8773C115.99 14.3755 116.772 15.0616 117.429 15.9345C118.085 16.8083 118.594 17.8371 118.954 19.0205C119.315 20.2047 119.495 21.4822 119.495 22.8534Z" fill="#002F6D"/>
<path d="M134.902 19.9303C134.902 18.8334 134.743 17.9415 134.426 17.2555C134.108 16.5699 133.726 16.0322 133.279 15.6424C132.832 15.2525 132.363 14.9854 131.873 14.8413C131.382 14.6968 130.956 14.6245 130.596 14.6245C130.019 14.6245 129.452 14.7405 128.897 14.9711C128.342 15.2021 127.84 15.5416 127.394 15.989C126.946 16.4368 126.571 16.9926 126.268 17.6563C125.965 18.3205 125.77 19.0787 125.684 19.9303H134.902ZM139.425 26.2753C139.28 27.2428 138.984 28.1998 138.538 29.145C138.09 30.091 137.521 30.935 136.828 31.679C136.135 32.4225 135.32 33.0253 134.383 33.487C133.445 33.9487 132.406 34.1802 131.267 34.1802C130.098 34.1802 128.987 33.9382 127.934 33.4543C126.881 32.9712 125.961 32.278 125.176 31.3756C124.389 30.4737 123.765 29.3832 123.304 28.1057C122.842 26.8277 122.611 25.4019 122.611 23.8283C122.611 22.1538 122.838 20.6524 123.293 19.3241C123.747 17.9957 124.382 16.8695 125.197 15.9457C126.012 15.0219 126.982 14.3141 128.108 13.8234C129.233 13.3327 130.466 13.087 131.808 13.087C132.904 13.087 133.917 13.271 134.848 13.639C135.778 14.0074 136.582 14.538 137.261 15.2307C137.939 15.9238 138.469 16.7687 138.851 17.7647C139.233 18.7607 139.425 19.8866 139.425 21.1431H125.684C125.684 22.6159 125.879 23.9367 126.268 25.1058C126.658 26.2753 127.184 27.2646 127.848 28.0729C128.511 28.882 129.279 29.4987 130.153 29.9247C131.025 30.3506 131.945 30.5708 132.911 30.585C133.561 30.5993 134.163 30.5308 134.718 30.3792C135.273 30.228 135.789 29.9679 136.265 29.5999C136.741 29.2319 137.185 28.7413 137.596 28.1271C138.007 27.5137 138.386 26.7517 138.732 25.8422L139.425 26.2753Z" fill="#002F6D"/>
<path d="M152.819 33.5303V32.7086C153.555 32.7086 154.135 32.6619 154.561 32.5678C154.986 32.4742 155.311 32.2939 155.535 32.0272C155.758 31.7604 155.899 31.3891 155.957 30.9135C156.014 30.4376 156.043 29.8171 156.043 29.0529V20.9632C156.043 20.0693 155.993 19.2942 155.892 18.6385C155.791 17.9823 155.619 17.445 155.374 17.027C155.129 16.6086 154.813 16.2985 154.424 16.0965C154.036 15.8953 153.546 15.794 152.957 15.794C152.123 15.794 151.277 16.0246 150.421 16.4863C149.565 16.9476 148.705 17.6542 147.842 18.6057V29.0529C147.842 29.8318 147.875 30.459 147.94 30.9349C148.004 31.4105 148.152 31.7785 148.383 32.0381C148.613 32.2973 148.942 32.4742 149.367 32.5678C149.793 32.6619 150.366 32.7086 151.088 32.7086V33.5303H141.243V32.7073C141.862 32.7073 142.368 32.6607 142.757 32.5666C143.147 32.4725 143.45 32.2889 143.666 32.0146C143.882 31.7403 144.03 31.3647 144.109 30.8883C144.188 30.4119 144.228 29.7982 144.228 29.0475V21.6627C144.228 20.4793 144.214 19.548 144.185 18.8691C144.156 18.1906 144.117 17.671 144.066 17.3097C144.015 16.9493 143.951 16.7035 143.871 16.5737C143.792 16.4435 143.695 16.3351 143.579 16.2486C143.103 15.8301 142.324 15.8448 141.243 16.2918L140.896 15.5126L146.955 13.1302H147.842V17.2664C150.193 14.509 152.415 13.1302 154.507 13.1302C155.473 13.1302 156.289 13.3071 156.952 13.6608C157.615 14.0145 158.149 14.5161 158.553 15.166C158.957 15.8159 159.249 16.5951 159.43 17.505C159.61 18.4145 159.7 19.4253 159.7 20.5364V29.0475C159.7 29.7839 159.736 30.3901 159.808 30.8665C159.88 31.3429 160.025 31.7151 160.241 31.9818C160.457 32.249 160.768 32.4364 161.171 32.5447C161.575 32.6531 162.109 32.7073 162.773 32.7073V33.5303H152.819Z" fill="#002F6D"/>
<path d="M190.362 10.185L185.255 22.0958H195.338L190.362 10.185ZM195.599 33.5303V32.7073C196.622 32.693 197.351 32.5447 197.784 32.2633C198.217 31.9818 198.468 31.6172 198.541 31.1698C198.613 30.7224 198.552 30.2132 198.357 29.6432C198.162 29.0727 197.942 28.4921 197.697 27.8994L195.944 23.6766H184.563L182.572 28.3543C182.297 29.0189 182.088 29.6033 181.944 30.1082C181.8 30.614 181.803 31.0475 181.955 31.408C182.106 31.7688 182.438 32.0541 182.951 32.2633C183.462 32.4725 184.231 32.6208 185.255 32.7073V33.5303H175.972V32.7073C176.592 32.6636 177.133 32.5305 177.595 32.3065C178.057 32.0826 178.471 31.7621 178.839 31.3429C179.207 30.9244 179.549 30.4082 179.867 29.7944C180.184 29.1811 180.516 28.477 180.862 27.683L191.162 3.47148H191.941L202.133 27.8994C202.566 28.9248 202.956 29.744 203.301 30.3577C203.648 30.9715 204.005 31.4441 204.373 31.776C204.741 32.1083 205.144 32.3355 205.584 32.4582C206.024 32.5809 206.547 32.6636 207.153 32.7073V33.5303H195.599Z" fill="#002F6D"/>
<path d="M222.604 15.5242C222.604 15.7855 222.553 16.0392 222.453 16.2858C222.351 16.5324 222.21 16.7467 222.03 16.9277C221.85 17.1092 221.641 17.2579 221.403 17.3743C221.165 17.4902 220.908 17.5482 220.635 17.5482C220.274 17.5482 219.953 17.4688 219.672 17.3096C219.391 17.1512 219.134 16.9744 218.904 16.7794C218.673 16.5845 218.449 16.4081 218.233 16.2489C218.016 16.0901 217.793 16.0107 217.562 16.0107C217.201 16.0107 216.765 16.3102 216.253 16.9092C215.74 17.5083 215.211 18.3342 214.662 19.3865V28.9234C214.662 29.5439 214.713 30.0917 214.814 30.5677C214.915 31.0432 215.095 31.4398 215.355 31.7569C215.615 32.0741 215.972 32.3123 216.426 32.4707C216.88 32.6295 217.461 32.7085 218.168 32.7085V33.5302H207.868V32.7072C208.488 32.7072 209.004 32.6748 209.415 32.6102C209.826 32.545 210.151 32.3896 210.388 32.1443C210.627 31.8989 210.796 31.5309 210.897 31.0398C210.998 30.5492 211.049 29.885 211.049 29.0474V21.3597C211.049 20.32 211.038 19.4936 211.016 18.8799C210.995 18.2666 210.959 17.7864 210.908 17.4398C210.857 17.0932 210.789 16.8408 210.702 16.682C210.616 16.5232 210.515 16.3787 210.4 16.2489C210.082 16.0754 209.732 15.9745 209.35 15.9455C208.968 15.917 208.474 16.0321 207.868 16.2921L207.673 15.5124L213.818 13.1301H214.662V17.5696C216.307 14.6105 218.016 13.1301 219.791 13.1301C220.18 13.1301 220.548 13.1885 220.894 13.3044C221.24 13.4208 221.54 13.5838 221.792 13.7943C222.045 14.0047 222.243 14.2585 222.387 14.5559C222.532 14.8533 222.604 15.1759 222.604 15.5242Z" fill="#002F6D"/>
<path d="M247.228 33.5303V32.7073C248.007 32.7073 248.609 32.6426 249.035 32.5124C249.46 32.3826 249.774 32.1734 249.976 31.8844C250.178 31.5962 250.301 31.2168 250.344 30.7476C250.387 30.2788 250.409 29.7116 250.409 29.0475V20.4717C250.409 19.5765 250.344 18.8258 250.214 18.2196C250.085 17.613 249.882 17.1223 249.608 16.7468C249.334 16.3716 248.992 16.1007 248.581 15.9347C248.169 15.7688 247.69 15.6856 247.142 15.6856C246.824 15.6856 246.474 15.7255 246.092 15.8049C245.71 15.8843 245.306 16.0251 244.88 16.2271C244.455 16.4292 244.004 16.7035 243.528 17.0501C243.052 17.3967 242.547 17.8373 242.013 18.3713V29.0475C242.013 29.7553 242.038 30.3435 242.089 30.8123C242.139 31.2815 242.269 31.6571 242.479 31.9385C242.687 32.22 243.005 32.4187 243.43 32.5342C243.856 32.6498 244.444 32.7073 245.194 32.7073V33.5303H235.154V32.7073C235.991 32.7073 236.632 32.6351 237.08 32.4905C237.527 32.3469 237.848 32.1225 238.042 31.8197C238.237 31.5164 238.345 31.1341 238.367 30.6716C238.389 30.2099 238.4 29.6684 238.4 29.0475V20.4717C238.4 19.5912 238.32 18.8439 238.162 18.2301C238.004 17.6168 237.781 17.1186 237.493 16.7359C237.205 16.3536 236.853 16.0755 236.436 15.9024C236.018 15.7289 235.551 15.6424 235.033 15.6424C234.514 15.6424 234.014 15.7255 233.532 15.8915C233.05 16.0574 232.597 16.2704 232.173 16.5304C231.748 16.7901 231.349 17.0824 230.975 17.4076C230.601 17.7323 230.263 18.0537 229.961 18.3713V29.0475C229.961 29.8847 230.008 30.5455 230.101 31.029C230.195 31.5126 230.361 31.8772 230.599 32.1225C230.837 32.3683 231.165 32.5267 231.584 32.5989C232.002 32.6716 232.528 32.7073 233.163 32.7073V33.5303H223.339V32.7073C223.974 32.7073 224.482 32.6607 224.865 32.5666C225.247 32.4725 225.546 32.296 225.763 32.036C225.979 31.776 226.123 31.408 226.196 30.9312C226.267 30.4552 226.304 29.8272 226.304 29.0475V21.4459C226.304 20.3491 226.3 19.4072 226.293 18.62C226.285 17.8331 226.199 17.2198 226.033 16.7791C225.867 16.3393 225.579 16.0755 225.167 15.9889C224.756 15.9024 224.147 16.0032 223.339 16.2918L222.971 15.5126L229.025 13.1302H229.961L229.939 17.3097C230.746 16.4435 231.464 15.7365 232.092 15.1874C232.72 14.6392 233.304 14.2132 233.844 13.9099C234.386 13.6066 234.894 13.4008 235.37 13.2928C235.846 13.1844 236.329 13.1302 236.82 13.1302C237.411 13.1302 237.974 13.2134 238.508 13.3793C239.041 13.5453 239.528 13.7982 239.968 14.1372C240.408 14.4766 240.791 14.9097 241.115 15.4365C241.44 15.9637 241.681 16.588 241.84 17.3097C242.576 16.4582 243.247 15.765 243.853 15.2307C244.458 14.6967 245.035 14.2708 245.584 13.9532C246.132 13.636 246.665 13.4192 247.185 13.3037C247.704 13.1882 248.238 13.1302 248.786 13.1302C249.594 13.1302 250.319 13.2604 250.961 13.5201C251.603 13.7797 252.151 14.2023 252.606 14.7871C253.06 15.3714 253.41 16.1297 253.655 17.0606C253.9 17.9919 254.023 19.1291 254.023 20.4717V29.0475C254.023 29.7982 254.066 30.4119 254.153 30.8883C254.239 31.3647 254.398 31.7403 254.629 32.0146C254.859 32.2889 255.166 32.4725 255.548 32.5666C255.93 32.6607 256.425 32.7073 257.031 32.7073V33.5303H247.228Z" fill="#002F6D"/>
<path d="M272.913 28.5215C272.913 29.2731 272.733 29.9923 272.372 30.6787C272.011 31.3656 271.528 31.9684 270.923 32.4889C270.316 33.0098 269.613 33.4211 268.812 33.7248C268.012 34.0277 267.171 34.1802 266.292 34.1802C265.758 34.1802 265.242 34.1184 264.745 33.9958C264.247 33.8731 263.771 33.7319 263.317 33.5736C262.862 33.4148 262.436 33.2631 262.04 33.1186C261.643 32.9749 261.278 32.8804 260.947 32.8371C260.788 32.8371 260.644 32.9531 260.514 33.1837C260.384 33.4148 260.276 33.624 260.189 33.8118H259.475V26.7303H260.189C260.377 27.741 260.669 28.6249 261.066 29.3832C261.463 30.141 261.931 30.7766 262.473 31.2887C263.014 31.8016 263.608 32.1877 264.258 32.4477C264.907 32.7073 265.585 32.8371 266.292 32.8371C266.825 32.8371 267.301 32.7582 267.72 32.599C268.138 32.4402 268.491 32.2272 268.78 31.9604C269.069 31.6932 269.292 31.3832 269.451 31.0291C269.61 30.6754 269.689 30.3036 269.689 29.9133C269.703 29.4231 269.649 28.9715 269.527 28.5602C269.404 28.1485 269.162 27.7444 268.802 27.3474C268.441 26.9504 267.933 26.532 267.276 26.0913C266.62 25.6511 265.751 25.1566 264.669 24.608C263.616 24.0593 262.746 23.5468 262.061 23.07C261.376 22.5941 260.835 22.1101 260.438 21.6194C260.041 21.1288 259.764 20.623 259.605 20.1033C259.447 19.5837 259.367 19.0208 259.367 18.4141C259.367 17.6782 259.508 16.9888 259.789 16.346C260.07 15.7037 260.485 15.1442 261.033 14.6678C261.582 14.1914 262.256 13.8162 263.057 13.5415C263.857 13.2676 264.777 13.1302 265.816 13.1302C266.262 13.1302 266.706 13.1701 267.146 13.2495C267.586 13.3289 268.001 13.4155 268.391 13.5092C268.78 13.6033 269.126 13.6898 269.429 13.7692C269.732 13.8486 269.97 13.8881 270.143 13.8881C270.345 13.8881 270.515 13.8486 270.652 13.7692C270.789 13.6898 270.944 13.4768 271.117 13.1302H271.831V19.8656H271.117C270.858 18.7973 270.547 17.9092 270.187 17.2018C269.826 16.4943 269.422 15.9314 268.975 15.5126C268.528 15.0937 268.033 14.7942 267.493 14.6136C266.952 14.4334 266.371 14.343 265.751 14.343C264.423 14.343 263.453 14.5854 262.84 15.0694C262.227 15.5537 261.913 16.1788 261.899 16.9443C261.885 17.3349 261.917 17.7143 261.997 18.0827C262.076 18.4515 262.235 18.8057 262.473 19.1455C262.711 19.485 263.042 19.8135 263.468 20.1315C263.893 20.4495 264.452 20.7675 265.145 21.0855L268.347 22.6029C269.848 23.2965 270.983 24.1421 271.755 25.1394C272.527 26.1371 272.913 27.2642 272.913 28.5215Z" fill="#002F6D"/>
<path d="M135.009 46.7972V46.596H135.274C135.567 46.596 135.778 46.5094 135.909 46.3363C135.947 46.2834 135.98 46.1901 136.006 46.0557C136.033 45.9221 136.046 45.7436 136.046 45.5214V43.3348H132.698V45.5214C132.698 45.765 132.708 45.9482 132.73 46.0717C132.751 46.1952 132.786 46.2872 132.835 46.3473C132.895 46.4212 132.987 46.4813 133.11 46.5271C133.234 46.5733 133.357 46.596 133.481 46.596H133.74V46.7972H130.667V46.596H130.925C131.208 46.596 131.419 46.5094 131.561 46.3363C131.645 46.2238 131.687 45.952 131.687 45.5214V40.884C131.687 40.7567 131.685 40.6479 131.679 40.558C131.674 40.4685 131.666 40.3916 131.655 40.3282C131.645 40.2643 131.63 40.2106 131.611 40.1665C131.591 40.1223 131.567 40.0829 131.539 40.0476C131.514 40.0152 131.478 39.9854 131.431 39.9573C131.383 39.9291 131.33 39.9035 131.272 39.8804C131.214 39.8573 131.155 39.8396 131.095 39.8274C131.035 39.8153 130.978 39.809 130.925 39.809H130.667V39.6182H133.74V39.809H133.481C133.36 39.809 133.246 39.8258 133.137 39.8594C133.027 39.8926 132.936 39.9518 132.862 40.0367C132.837 40.0652 132.814 40.0997 132.793 40.14C132.772 40.1807 132.754 40.2337 132.74 40.2988C132.726 40.3643 132.715 40.4437 132.708 40.537C132.701 40.6302 132.698 40.7462 132.698 40.884V42.9433H136.046V40.884C136.046 40.6227 136.032 40.4286 136.004 40.3013C135.976 40.174 135.937 40.0862 135.887 40.0367C135.817 39.9661 135.727 39.9102 135.617 39.8699C135.508 39.8295 135.394 39.809 135.274 39.809H135.009V39.6182H138.088V39.809H137.829C137.723 39.809 137.612 39.8283 137.496 39.8674C137.379 39.9064 137.284 39.9623 137.21 40.0367C137.171 40.0791 137.141 40.1202 137.12 40.161C137.099 40.2017 137.083 40.2522 137.072 40.3118C137.062 40.3719 137.056 40.4471 137.054 40.537C137.052 40.6269 137.051 40.7428 137.051 40.884V45.5214C137.051 45.6377 137.052 45.7381 137.054 45.8234C137.056 45.9078 137.061 45.9822 137.07 46.0456C137.079 46.1087 137.092 46.1637 137.11 46.2099C137.127 46.2557 137.15 46.2981 137.178 46.3363C137.242 46.4283 137.335 46.4943 137.459 46.535C137.582 46.5758 137.705 46.596 137.829 46.596H138.088V46.7972H135.009Z" fill="#FF3C1F"/>
<path d="M151.01 43.3031C151.013 42.7562 150.968 42.2672 150.872 41.8366C150.777 41.406 150.632 41.0426 150.436 40.746C150.24 40.4494 149.995 40.223 149.701 40.0659C149.406 39.9088 149.06 39.8285 148.661 39.8252C148.302 39.8252 147.981 39.9016 147.701 40.0554C147.421 40.2087 147.184 40.4293 146.99 40.717C146.796 41.0044 146.648 41.3539 146.548 41.7652C146.448 42.1764 146.398 42.6398 146.398 43.1548C146.398 43.6631 146.447 44.1273 146.545 44.5474C146.645 44.9671 146.788 45.328 146.979 45.63C147.17 45.9316 147.407 46.166 147.691 46.3341C147.975 46.5017 148.302 46.587 148.672 46.5908C149.014 46.5908 149.328 46.5256 149.613 46.3946C149.899 46.2643 150.145 46.064 150.351 45.7943C150.558 45.5237 150.718 45.1826 150.833 44.7697C150.947 44.3567 151.006 43.8681 151.01 43.3031ZM152.205 43.1653C152.205 43.5253 152.165 43.8707 152.084 44.2004C152.003 44.5306 151.887 44.8356 151.737 45.1162C151.588 45.3969 151.407 45.651 151.195 45.8787C150.984 46.1064 150.747 46.3013 150.486 46.4635C150.225 46.626 149.943 46.7504 149.64 46.8369C149.337 46.923 149.017 46.9667 148.682 46.9667C148.196 46.9667 147.74 46.8756 147.315 46.6937C146.89 46.5122 146.519 46.2555 146.202 45.9236C145.884 45.5918 145.635 45.194 145.453 44.7297C145.272 44.266 145.18 43.7514 145.18 43.1868C145.18 42.6503 145.272 42.1537 145.456 41.6963C145.639 41.2392 145.892 40.8439 146.215 40.5108C146.537 40.1772 146.917 39.9168 147.355 39.7294C147.792 39.5429 148.266 39.4492 148.778 39.4492C149.092 39.4492 149.394 39.4916 149.685 39.5761C149.976 39.6609 150.249 39.7807 150.502 39.9361C150.756 40.0911 150.987 40.2806 151.195 40.5028C151.403 40.725 151.582 40.9737 151.732 41.2489C151.882 41.5245 151.998 41.8227 152.081 42.1437C152.164 42.465 152.205 42.8053 152.205 43.1653Z" fill="#FF3C1F"/>
<path d="M165.492 46.7972V46.596H165.741C165.907 46.596 166.041 46.575 166.143 46.5325C166.245 46.4905 166.33 46.4199 166.397 46.3208C166.475 46.2112 166.514 45.952 166.514 45.5428V40.7567L163.739 46.7972H163.559L160.79 40.7567V45.5428C160.79 45.9944 160.841 46.2729 160.943 46.3792C161.056 46.5237 161.261 46.596 161.557 46.596H161.806V46.7972H159.325V46.596H159.573C159.725 46.596 159.852 46.575 159.954 46.5325C160.057 46.4905 160.145 46.4199 160.219 46.3208C160.251 46.2641 160.275 46.1733 160.292 46.0482C160.31 45.923 160.319 45.7545 160.319 45.5428V40.8626C160.319 40.637 160.305 40.4546 160.277 40.3173C160.248 40.1795 160.187 40.0757 160.092 40.0051C160.014 39.9447 159.92 39.8972 159.809 39.8619C159.697 39.8266 159.537 39.809 159.325 39.809V39.6182H161.346L163.951 45.2353L166.518 39.6182H168.55V39.809H168.301C168.002 39.809 167.783 39.8989 167.645 40.0791C167.61 40.1425 167.583 40.2379 167.563 40.3647C167.544 40.492 167.534 40.658 167.534 40.8626V45.5428C167.534 45.9872 167.585 46.2658 167.688 46.3792C167.811 46.5237 168.016 46.596 168.301 46.596H168.55V46.7972H165.492Z" fill="#FF3C1F"/>
<path d="M181.033 46.7972H175.505V46.596H175.753C175.785 46.596 175.825 46.5934 175.873 46.588C175.92 46.5825 175.971 46.5741 176.026 46.5615C176.08 46.5493 176.135 46.5325 176.187 46.5111C176.24 46.4905 176.284 46.4636 176.319 46.4321C176.354 46.4002 176.386 46.3649 176.412 46.3258C176.439 46.2872 176.46 46.2343 176.478 46.167C176.496 46.1002 176.509 46.0158 176.518 45.9133C176.527 45.8108 176.531 45.6802 176.531 45.5214V40.8626C176.531 40.6294 176.519 40.4437 176.494 40.3042C176.469 40.1648 176.436 40.0719 176.393 40.0261C176.267 39.8812 176.054 39.809 175.753 39.809H175.505V39.6182H181.033L181.117 41.1801H180.905C180.881 41.0781 180.859 40.9781 180.84 40.881C180.82 40.7844 180.794 40.6916 180.761 40.6034C180.727 40.5151 180.683 40.4345 180.63 40.3626C180.578 40.29 180.505 40.227 180.411 40.174C180.318 40.1211 180.2 40.0799 180.057 40.0497C179.914 40.0198 179.737 40.0051 179.525 40.0051H177.536V42.837H179.118C179.361 42.837 179.553 42.8177 179.692 42.7794C179.831 42.7408 179.938 42.679 180.012 42.595C180.086 42.511 180.138 42.4034 180.168 42.2736C180.198 42.1438 180.225 41.9892 180.25 41.8103H180.451V44.3035H180.25C180.225 44.1166 180.197 43.9561 180.165 43.8221C180.133 43.6881 180.08 43.5776 180.007 43.4911C179.932 43.4045 179.827 43.3411 179.689 43.3008C179.552 43.26 179.361 43.2394 179.118 43.2394H177.536V45.9293C177.536 46.0242 177.553 46.1078 177.586 46.1805C177.62 46.2527 177.679 46.3095 177.764 46.3502C177.848 46.3905 177.975 46.4107 178.144 46.4107H179.356C179.55 46.4107 179.721 46.4031 179.869 46.3868C180.017 46.3708 180.15 46.3439 180.268 46.3048C180.387 46.2658 180.492 46.212 180.586 46.1431C180.679 46.0746 180.771 45.9881 180.861 45.8839C180.951 45.7797 181.041 45.6545 181.133 45.5083C181.225 45.3617 181.327 45.1895 181.44 44.992H181.657L181.033 46.7972Z" fill="#FF3C1F"/>
<path d="M204.871 45.1136C204.695 45.4278 204.505 45.7005 204.3 45.9315C204.096 46.163 203.871 46.355 203.628 46.5087C203.385 46.6625 203.12 46.7772 202.835 46.8528C202.549 46.9284 202.237 46.9666 201.899 46.9666C201.532 46.9666 201.191 46.9217 200.877 46.8318C200.564 46.7419 200.277 46.6163 200.018 46.4558C199.759 46.2953 199.529 46.1021 199.331 45.8761C199.131 45.65 198.963 45.4022 198.825 45.1325C198.688 44.862 198.584 44.5729 198.513 44.2642C198.443 43.955 198.407 43.6382 198.407 43.3139C198.407 42.7917 198.495 42.2965 198.669 41.8289C198.844 41.3609 199.091 40.9509 199.409 40.598C199.729 40.2452 200.114 39.9654 200.565 39.7587C201.017 39.5524 201.518 39.4495 202.068 39.4495C202.339 39.4495 202.578 39.4755 202.785 39.5285C202.991 39.5814 203.169 39.639 203.319 39.7003C203.468 39.7625 203.593 39.8196 203.692 39.8725C203.79 39.9255 203.866 39.9519 203.919 39.9519C204.015 39.9519 204.102 39.9103 204.181 39.8276C204.261 39.7448 204.32 39.6184 204.358 39.4495H204.548L204.718 41.8898H204.548C204.439 41.5227 204.305 41.2084 204.146 40.9475C203.988 40.6862 203.807 40.4728 203.604 40.3069C203.402 40.141 203.179 40.0191 202.935 39.9414C202.692 39.8641 202.431 39.8251 202.152 39.8251C201.782 39.8251 201.442 39.8948 201.132 40.0338C200.821 40.1733 200.554 40.388 200.33 40.677C200.106 40.9669 199.931 41.3302 199.804 41.768C199.677 42.2057 199.613 42.7245 199.613 43.3244C199.613 43.8361 199.678 44.2898 199.807 44.6847C199.935 45.0804 200.118 45.4119 200.354 45.6803C200.59 45.9483 200.874 46.1516 201.203 46.289C201.533 46.4268 201.9 46.4953 202.306 46.4953C202.542 46.4953 202.761 46.4734 202.962 46.4293C203.163 46.3852 203.358 46.3075 203.549 46.1962C203.74 46.0853 203.929 45.9336 204.117 45.7412C204.306 45.5488 204.506 45.3026 204.718 45.0023L204.871 45.1136Z" fill="#FF3C1F"/>
<path d="M215.354 41.0902L214.106 44.0019H216.571L215.354 41.0902ZM216.635 46.7972V46.596C216.885 46.5926 217.063 46.5565 217.169 46.4876C217.274 46.4187 217.337 46.3296 217.354 46.22C217.372 46.1108 217.357 45.9864 217.309 45.8469C217.261 45.7075 217.208 45.5655 217.148 45.421L216.719 44.3884H213.937L213.45 45.5319C213.383 45.6944 213.332 45.8373 213.297 45.9608C213.262 46.0843 213.262 46.1901 213.299 46.2784C213.336 46.3666 213.418 46.4363 213.543 46.4876C213.668 46.5388 213.856 46.575 214.106 46.596V46.7972H211.837V46.596C211.988 46.5855 212.121 46.5527 212.233 46.4981C212.346 46.4435 212.448 46.3649 212.537 46.2628C212.628 46.1599 212.711 46.0343 212.789 45.8839C212.867 45.7339 212.948 45.5621 213.032 45.368L215.55 39.4494H215.741L218.232 45.421C218.338 45.6713 218.433 45.8717 218.518 46.0213C218.602 46.1717 218.689 46.2872 218.78 46.3683C218.869 46.4498 218.968 46.5052 219.076 46.535C219.183 46.5649 219.311 46.5855 219.459 46.596V46.7972H216.635Z" fill="#FF3C1F"/>
<path d="M230.641 41.5456C230.641 41.3196 230.605 41.1142 230.532 40.9285C230.46 40.7437 230.357 40.5849 230.223 40.4521C230.089 40.3198 229.927 40.216 229.736 40.14C229.546 40.0644 229.332 40.0245 229.096 40.0207C229.005 40.0207 228.889 40.0291 228.75 40.0446C228.61 40.0606 228.449 40.0829 228.266 40.111V43.1075H228.567C228.92 43.1075 229.226 43.0684 229.485 42.9907C229.744 42.9134 229.959 42.8046 230.13 42.6652C230.301 42.5257 230.429 42.3606 230.514 42.1699C230.598 41.9796 230.641 41.7712 230.641 41.5456ZM231.455 46.7972L229.027 43.4411C228.932 43.4444 228.849 43.4486 228.779 43.4541C228.708 43.4596 228.645 43.4621 228.588 43.4621C228.535 43.4621 228.483 43.4612 228.432 43.4596C228.381 43.4575 228.325 43.4512 228.266 43.4411V45.5214C228.266 45.9801 228.317 46.259 228.419 46.3578C228.553 46.5166 228.756 46.596 229.027 46.596H229.308V46.7972H226.235V46.596H226.505C226.815 46.596 227.029 46.5006 227.15 46.3103C227.22 46.1973 227.255 45.9343 227.255 45.5214V40.884C227.255 40.4425 227.209 40.1602 227.118 40.0367C227.044 39.9623 226.957 39.9064 226.856 39.8674C226.756 39.8283 226.638 39.809 226.505 39.809H226.235V39.6182H228.837C229.221 39.6182 229.555 39.6317 229.839 39.6581C230.123 39.6846 230.357 39.7279 230.54 39.7875C230.723 39.848 230.894 39.9299 231.051 40.0337C231.208 40.1379 231.344 40.2606 231.461 40.4017C231.577 40.5433 231.668 40.7021 231.733 40.8785C231.798 41.055 231.831 41.2457 231.831 41.4498C231.831 41.6725 231.796 41.8817 231.725 42.0779C231.654 42.2732 231.546 42.4505 231.4 42.6097C231.254 42.7685 231.07 42.9067 230.85 43.0252C230.629 43.1436 230.369 43.2361 230.069 43.3033L231.535 45.368C231.697 45.5936 231.847 45.7818 231.984 45.9314C232.122 46.0818 232.261 46.2023 232.402 46.2943C232.543 46.3859 232.692 46.454 232.847 46.4981C233.002 46.5426 233.178 46.575 233.376 46.596V46.7972H231.455Z" fill="#FF3C1F"/>
<path d="M245.536 46.7972H240.008V46.596H240.256C240.288 46.596 240.328 46.5934 240.376 46.588C240.423 46.5825 240.474 46.5741 240.529 46.5615C240.583 46.5493 240.637 46.5325 240.69 46.5111C240.743 46.4905 240.787 46.4636 240.822 46.4321C240.857 46.4002 240.888 46.3649 240.915 46.3258C240.942 46.2872 240.963 46.2343 240.981 46.167C240.998 46.1002 241.012 46.0158 241.021 45.9133C241.029 45.8108 241.034 45.6802 241.034 45.5214V40.8626C241.034 40.6294 241.022 40.4437 240.997 40.3042C240.972 40.1648 240.939 40.0719 240.896 40.0261C240.77 39.8812 240.556 39.809 240.256 39.809H240.008V39.6182H245.536L245.62 41.1801H245.408C245.384 41.0781 245.362 40.9781 245.342 40.881C245.323 40.7844 245.297 40.6916 245.264 40.6034C245.23 40.5151 245.186 40.4345 245.133 40.3626C245.081 40.29 245.007 40.227 244.914 40.174C244.821 40.1211 244.703 40.0799 244.56 40.0497C244.417 40.0198 244.24 40.0051 244.028 40.0051H242.039V42.837H243.621C243.864 42.837 244.055 42.8177 244.195 42.7794C244.334 42.7408 244.441 42.679 244.515 42.595C244.589 42.511 244.641 42.4034 244.67 42.2736C244.701 42.1438 244.728 41.9892 244.753 41.8103H244.954V44.3035H244.753C244.728 44.1166 244.7 43.9561 244.668 43.8221C244.636 43.6881 244.583 43.5776 244.51 43.4911C244.435 43.4045 244.33 43.3411 244.192 43.3008C244.055 43.26 243.864 43.2394 243.621 43.2394H242.039V45.9293C242.039 46.0242 242.056 46.1078 242.089 46.1805C242.123 46.2527 242.182 46.3095 242.267 46.3502C242.351 46.3905 242.478 46.4107 242.647 46.4107H243.859C244.053 46.4107 244.224 46.4031 244.372 46.3868C244.52 46.3708 244.653 46.3439 244.771 46.3048C244.89 46.2658 244.995 46.212 245.089 46.1431C245.182 46.0746 245.274 45.9881 245.364 45.8839C245.454 45.7797 245.544 45.6545 245.636 45.5083C245.728 45.3617 245.83 45.1895 245.943 44.992H246.16L245.536 46.7972Z" fill="#FF3C1F"/>
</g>
</g>
<defs>
<clipPath id="clip0_2_4932">
<rect width="274" height="48" fill="white"/>
</clipPath>
</defs>
</svg>
