<svg width="248" height="244" viewBox="0 0 248 244" fill="none" xmlns="http://www.w3.org/2000/svg">
<path d="M121.564 -2.63122e-05L248 -1.52588e-05L248 244L121.564 244C54.4287 244 4.7751e-06 189.379 1.06649e-05 122.007C1.65561e-05 54.6207 54.4287 -3.21813e-05 121.564 -2.63122e-05Z" fill="#D2D5EF"/>
<path d="M124 45.383C82.1044 45.383 48.1412 79.466 48.1412 121.51C48.1412 163.553 82.1044 197.636 124 197.636C165.896 197.636 199.859 163.553 199.859 121.51C199.859 79.466 165.896 45.383 124 45.383Z" fill="#454994"/>
<path d="M124 84.9104C103.858 84.9104 87.5292 101.296 87.5292 121.51C87.5292 141.723 103.858 158.109 124 158.109C144.142 158.109 160.47 141.723 160.47 121.51C160.47 101.296 144.142 84.9104 124 84.9104Z" fill="#EBEBFA"/>
</svg>
