<svg width="184" height="34" viewBox="0 0 184 34" fill="none" xmlns="http://www.w3.org/2000/svg">
<path fill-rule="evenodd" clip-rule="evenodd" d="M91.8409 1.69568H93.3409V31.5544H98.1891V33.0544H91.8409V1.69568Z" fill="#1A73EC"/>
<path fill-rule="evenodd" clip-rule="evenodd" d="M103.988 1.69568H105.488V31.5544H110.336V33.0544H103.988V1.69568Z" fill="#1A73EC"/>
<path fill-rule="evenodd" clip-rule="evenodd" d="M149.641 2.44568H148.623V0.945679H152.158V2.44568H151.141V31.5544H152.158V33.0544H148.623V31.5544H149.641V2.44568Z" fill="#1A73EC"/>
<path fill-rule="evenodd" clip-rule="evenodd" d="M74.0848 1.69568H75.5848V7.49862L80.9259 8.0314L80.777 9.52399L75.5848 9.00606V31.5544H110.344V33.0544H74.0848V1.69568Z" fill="#DEA81C"/>
<path fill-rule="evenodd" clip-rule="evenodd" d="M0.733887 1.69563L2.13319 1.32025L7.67964 10.914L6.38104 11.6648L2.23389 4.4914V29.9636L6.42001 24.1021L7.64068 24.9738L2.09422 32.7402L0.733887 32.3043V1.69563Z" fill="#1A73EC"/>
<path fill-rule="evenodd" clip-rule="evenodd" d="M17.3016 1.45262L18.7126 1.43011L23.6979 14.5998L18.7339 32.5047L17.2837 32.4868L12.7976 14.603L17.3016 1.45262ZM18.0464 3.9073L14.3606 14.6688L18.0474 29.3663L22.1213 14.672L18.0464 3.9073Z" fill="#1A73EC"/>
<path fill-rule="evenodd" clip-rule="evenodd" d="M162.429 1.45262L163.84 1.43011L168.825 14.5998L163.861 32.5047L162.411 32.4868L157.925 14.603L162.429 1.45262ZM163.173 3.9073L159.488 14.6688L163.174 29.3663L167.248 14.672L163.173 3.9073Z" fill="#1A73EC"/>
<path fill-rule="evenodd" clip-rule="evenodd" d="M28.7083 1.69566L30.1577 1.42499L36.6391 18.1739V1.69566H38.1391V32.3044H36.6391V22.3302L30.2083 5.71194V32.3044H28.7083V1.69566Z" fill="#1A73EC"/>
<path fill-rule="evenodd" clip-rule="evenodd" d="M173.835 1.69566L175.285 1.42499L181.766 18.1739V1.69566H183.266V32.3044H181.766V22.3302L175.335 5.71194V32.3044H173.835V1.69566Z" fill="#1A73EC"/>
<path fill-rule="evenodd" clip-rule="evenodd" d="M43.1876 0.945679H54.8849V2.44568H44.6876V8.0877H52.3031V33.0544H43.9376V31.5544H50.8031V9.5877H43.1876V0.945679Z" fill="#1A73EC"/>
<path fill-rule="evenodd" clip-rule="evenodd" d="M63.2914 2.44568H52.6437V0.945679H85.7038V2.44568H64.7914V32.3044H63.2914V2.44568Z" fill="#1A73EC"/>
<path fill-rule="evenodd" clip-rule="evenodd" d="M136.534 2.44568H132.493V0.945679H142.075V2.44568H138.034V32.3044H136.534V2.44568Z" fill="#1A73EC"/>
<path fill-rule="evenodd" clip-rule="evenodd" d="M120.046 1.60074L121.529 1.57111L126.684 32.1798L125.205 32.4289L122.367 15.5787L119.872 14.8116L117.629 32.3993L116.141 32.2094L120.046 1.60074ZM120.065 13.3015L122.088 13.9236L120.892 6.81967L120.065 13.3015Z" fill="#1A73EC"/>
</svg>
