<svg width="140" height="140" viewBox="0 0 140 140" fill="none" xmlns="http://www.w3.org/2000/svg">
<path d="M132.973 2.12122H83.4497C80.7426 2.12122 78.542 4.32178 78.542 7.0271V41.8476C78.542 44.5529 80.7426 46.7535 83.4497 46.7535H86.6579V55.405C86.6579 56.0333 86.992 56.6124 87.5349 56.9284C88.0832 57.2479 88.755 57.2425 89.2924 56.9338L107.099 46.7535H132.975C135.68 46.7535 137.881 44.5529 137.881 41.8476V7.0271C137.879 4.32178 135.679 2.12122 132.973 2.12122ZM134.359 41.8476C134.359 42.6102 133.738 43.2311 132.975 43.2311H106.63C106.323 43.2311 106.024 43.311 105.757 43.4635L90.1785 52.3693V44.9923C90.1785 44.0191 89.3905 43.2311 88.4173 43.2311H83.4479C82.6853 43.2311 82.0625 42.6102 82.0625 41.8476V7.0271C82.0625 6.26452 82.6853 5.64357 83.4479 5.64357H132.973C133.736 5.64357 134.357 6.26452 134.357 7.0271L134.359 41.8476Z" fill="#002F6D"/>
<path d="M126.035 18.4457H89.3128C87.7062 18.4457 86.4053 19.2337 86.4053 20.2069C86.4053 21.18 87.7062 21.968 89.3128 21.968H126.035C127.642 21.968 128.942 21.18 128.942 20.2069C128.942 19.2337 127.642 18.4457 126.035 18.4457Z" fill="#FF3C1F"/>
<path d="M117.925 26.9066H88.7178C87.44 26.9066 86.4053 27.6946 86.4053 28.6678C86.4053 29.641 87.44 30.429 88.7178 30.429H117.925C119.203 30.429 120.238 29.641 120.238 28.6678C120.238 27.6946 119.203 26.9066 117.925 26.9066Z" fill="#FF3C1F"/>
<path d="M89.7184 115.844C89.0627 112.537 86.6036 104.602 77.2591 101.791C77.2591 101.791 69.718 99.4766 63.9801 98.8153C61.0293 98.4847 58.8981 95.8395 58.8981 92.8637C60.8653 91.0451 62.6686 88.7305 64.1441 86.2507H79.2264L75.6197 59.3027C73.6525 45.4155 61.685 35 47.7503 35C33.8155 35 22.012 45.4155 20.0447 59.3027L16.4381 86.2507H31.3565C32.8319 88.7305 34.6352 91.0451 36.6025 92.8637H36.4385C36.4385 95.8395 34.3074 98.4847 31.5204 98.8153C26.2744 99.4766 18.4054 101.791 18.4054 101.791C11.8478 103.775 7.25758 109.231 5.94607 116.009C3.81488 127.251 7.25758 137.667 7.25758 137.667H88.5708C88.4069 137.501 91.8496 127.086 89.7184 115.844ZM20.2087 82.9442L23.3235 59.7987C24.9629 47.5647 35.4549 38.3065 47.7503 38.3065C60.0456 38.3065 70.5377 47.5647 72.177 59.7987L75.2919 82.9442H65.7835C65.7835 82.9442 68.7343 76.4965 68.7343 69.7182L68.8983 54.839C61.685 55.5003 61.0293 49.3833 59.5538 47.0687C59.5538 47.0687 48.0781 62.2786 26.2744 54.343V69.7182C26.2744 73.686 27.422 78.4804 29.3892 82.9442H20.2087ZM29.7171 69.7182V58.6414C29.7171 58.6414 45.1273 64.2625 58.8981 52.6897C58.8981 52.6897 60.5374 56.9882 65.9474 58.1455V69.8835C65.9474 72.8594 65.1277 76.3312 63.8162 79.803H55.7832C55.1275 77.8191 53.3242 76.4965 51.193 76.4965C48.406 76.4965 46.2748 78.6457 46.2748 81.4563C46.2748 84.2668 48.406 86.416 51.193 86.416C53.3242 86.416 55.1275 85.0934 55.7832 83.1095H62.1768C58.8981 89.3918 53.652 94.6822 47.7503 94.6822C37.7501 94.5169 29.7171 79.4724 29.7171 69.7182ZM52.6684 81.2909C52.6684 82.2829 52.0127 82.9442 51.029 82.9442C50.0454 82.9442 49.3897 82.2829 49.3897 81.2909C49.3897 80.299 50.0454 79.6377 51.029 79.6377C51.8487 79.6377 52.6684 80.299 52.6684 81.2909ZM39.2255 95.0129C41.8485 96.6661 44.6354 97.6581 47.5863 97.6581C50.5372 97.6581 53.3242 96.6661 55.9472 95.0129C56.7669 98.3194 59.3899 100.799 62.6686 101.626L55.6193 122.953L52.9963 105.924H54.1439V102.618H41.1927V105.924H42.5043L39.8812 123.118L32.8319 101.626C35.9467 100.799 38.4058 98.3194 39.2255 95.0129ZM9.71665 134.195C8.40514 128.408 8.07727 122.291 9.0609 116.34C10.0445 110.884 13.8151 106.42 19.2251 104.932C19.2251 104.932 25.9465 102.948 29.5531 102.452L40.0452 134.195H9.71665ZM43.4879 134.195L42.1764 130.062L45.947 106.09H49.7175L53.4881 129.896L52.0127 134.195H43.4879ZM85.9478 134.195H55.4554L65.9474 102.452C69.3901 102.948 76.2755 104.932 76.2755 104.932C84.1445 107.578 85.9478 113.695 86.4396 116.34C87.4233 122.291 87.2593 128.408 85.9478 134.195Z" fill="#E1ECFB"/>
<path d="M9.71665 134.195C8.40514 128.408 8.07727 122.291 9.0609 116.34C10.0445 110.884 13.8151 106.42 19.2251 104.932C19.2251 104.932 25.9465 102.948 29.5531 102.452L40.0452 134.195H9.71665Z" fill="#E1ECFB"/>
<path d="M85.9478 134.195H55.4554L65.9474 102.452C69.3901 102.948 76.2755 104.932 76.2755 104.932C84.1445 107.578 85.9478 113.695 86.4396 116.34C87.4233 122.291 87.2593 128.408 85.9478 134.195Z" fill="#E1ECFB"/>
<path d="M20.2087 82.9442L23.3235 59.7987C24.9629 47.5647 35.4549 38.3065 47.7503 38.3065C60.0456 38.3065 70.5377 47.5647 72.177 59.7987L75.2919 82.9442H65.7835C65.7835 82.9442 68.7343 76.4965 68.7343 69.7182L68.8983 54.839C61.685 55.5003 61.0293 49.3833 59.5538 47.0687C59.5538 47.0687 48.0781 62.2786 26.2744 54.343V69.7182C26.2744 73.686 27.422 78.4804 29.3892 82.9442H20.2087Z" fill="#E1ECFB"/>
<path d="M89.7184 115.844C89.0627 112.537 86.6036 104.602 77.2591 101.791C77.2591 101.791 69.718 99.4766 63.9801 98.8153C61.0293 98.4847 58.8981 95.8395 58.8981 92.8637C60.8653 91.0451 62.6686 88.7305 64.1441 86.2507H79.2264L75.6197 59.3027C73.6525 45.4155 61.685 35 47.7503 35C33.8155 35 22.012 45.4155 20.0447 59.3027L16.4381 86.2507H31.3565C32.8319 88.7305 34.6352 91.0451 36.6025 92.8637H36.4385C36.4385 95.8395 34.3074 98.4847 31.5204 98.8153C26.2744 99.4766 18.4054 101.791 18.4054 101.791C11.8478 103.775 7.25758 109.231 5.94607 116.009C3.81488 127.251 7.25758 137.667 7.25758 137.667H88.5708C88.4069 137.501 91.8496 127.086 89.7184 115.844ZM20.2087 82.9442L23.3235 59.7987C24.9629 47.5647 35.4549 38.3065 47.7503 38.3065C60.0456 38.3065 70.5377 47.5647 72.177 59.7987L75.2919 82.9442H65.7835C65.7835 82.9442 68.7343 76.4965 68.7343 69.7182L68.8983 54.839C61.685 55.5003 61.0293 49.3833 59.5538 47.0687C59.5538 47.0687 48.0782 62.2786 26.2744 54.343V69.7182C26.2744 73.686 27.422 78.4804 29.3892 82.9442H20.2087ZM29.7171 69.7182V58.6414C29.7171 58.6414 45.1273 64.2625 58.8981 52.6897C58.8981 52.6897 60.5374 56.9882 65.9474 58.1455V69.8835C65.9474 72.8594 65.1277 76.3312 63.8162 79.803H55.7832C55.1275 77.8191 53.3242 76.4965 51.193 76.4965C48.406 76.4965 46.2748 78.6457 46.2748 81.4563C46.2748 84.2668 48.406 86.416 51.193 86.416C53.3242 86.416 55.1275 85.0934 55.7832 83.1095H62.1768C58.8981 89.3918 53.652 94.6822 47.7503 94.6822C37.7501 94.5169 29.7171 79.4724 29.7171 69.7182ZM52.6684 81.2909C52.6684 82.2829 52.0127 82.9442 51.029 82.9442C50.0454 82.9442 49.3897 82.2829 49.3897 81.2909C49.3897 80.299 50.0454 79.6377 51.029 79.6377C51.8487 79.6377 52.6684 80.299 52.6684 81.2909ZM39.2255 95.0129C41.8485 96.6661 44.6355 97.6581 47.5863 97.6581C50.5372 97.6581 53.3242 96.6661 55.9472 95.0129C56.7669 98.3194 59.3899 100.799 62.6686 101.626L55.6193 122.953L52.9963 105.924H54.1439V102.618H41.1928V105.924H42.5043L39.8812 123.118L32.8319 101.626C35.9467 100.799 38.4058 98.3194 39.2255 95.0129ZM9.71665 134.195C8.40514 128.408 8.07727 122.291 9.0609 116.34C10.0445 110.884 13.8151 106.42 19.2251 104.932C19.2251 104.932 25.9465 102.948 29.5532 102.452L40.0452 134.195H9.71665ZM43.4879 134.195L42.1764 130.062L45.947 106.09H49.7175L53.4881 129.896L52.0127 134.195H43.4879ZM85.9478 134.195H55.4554L65.9474 102.452C69.3901 102.948 76.2755 104.932 76.2755 104.932C84.1445 107.578 85.9478 113.695 86.4397 116.34C87.4233 122.291 87.2593 128.408 85.9478 134.195Z" fill="#002F6D"/>
</svg>
