<svg width="52" height="52" viewBox="0 0 52 52" fill="none" xmlns="http://www.w3.org/2000/svg">
<rect width="52" height="52" rx="11" fill="white"/>
<rect width="52" height="52" rx="11" fill="#7C4EFF" fill-opacity="0.1"/>
<rect x="0.5" y="0.5" width="51" height="51" rx="10.5" stroke="#7C4EFF" stroke-opacity="0.3"/>
<path opacity="0.2" d="M14 25L26 13L38 25H32V33H20V25H14Z" fill="#7C4EFF"/>
<path fill-rule="evenodd" clip-rule="evenodd" d="M25.4697 12.4697C25.7626 12.1768 26.2375 12.1768 26.5304 12.4697L38.5304 24.4697C38.7449 24.6842 38.809 25.0068 38.6929 25.287C38.5768 25.5673 38.3034 25.75 38 25.75H32.75V33C32.75 33.4142 32.4142 33.75 32 33.75H20C19.5858 33.75 19.25 33.4142 19.25 33V25.75H14C13.6967 25.75 13.4232 25.5673 13.3071 25.287C13.191 25.0068 13.2552 24.6842 13.4697 24.4697L25.4697 12.4697ZM15.8107 24.25H20C20.4142 24.25 20.75 24.5858 20.75 25V32.25H31.25V25C31.25 24.5858 31.5858 24.25 32 24.25H36.1894L26 14.0607L15.8107 24.25Z" fill="#7C4EFF"/>
<path fill-rule="evenodd" clip-rule="evenodd" d="M19.25 37C19.25 36.5858 19.5858 36.25 20 36.25H32C32.4142 36.25 32.75 36.5858 32.75 37C32.75 37.4142 32.4142 37.75 32 37.75H20C19.5858 37.75 19.25 37.4142 19.25 37Z" fill="#7C4EFF"/>
</svg>
