<svg width="52" height="52" viewBox="0 0 52 52" fill="none" xmlns="http://www.w3.org/2000/svg">
<path fill-rule="evenodd" clip-rule="evenodd" d="M29.4667 48.5333C39.9969 48.5333 48.5333 39.9969 48.5333 29.4667C48.5333 18.9364 39.9969 10.4 29.4667 10.4C18.9364 10.4 10.4 18.9364 10.4 29.4667C10.4 39.9969 18.9364 48.5333 29.4667 48.5333ZM52 29.4667C52 41.9115 41.9115 52 29.4667 52C17.0218 52 6.93333 41.9115 6.93333 29.4667C6.93333 17.0218 17.0218 6.93333 29.4667 6.93333C41.9115 6.93333 52 17.0218 52 29.4667Z" fill="#3D70E0"/>
<path opacity="0.3" fill-rule="evenodd" clip-rule="evenodd" d="M9.15853 32.8622C8.24068 33.1342 7.27615 32.6106 7.0042 31.6927L0.0708656 8.29271C-0.201091 7.37486 0.322511 6.41033 1.24036 6.13838C2.15821 5.86642 3.12274 6.39002 3.3947 7.30787L10.328 30.7079C10.6 31.6257 10.0764 32.5903 9.15853 32.8622Z" fill="#3D70E0"/>
<path fill-rule="evenodd" clip-rule="evenodd" d="M6.93337 10.4C8.84795 10.4 10.4 8.84795 10.4 6.93337C10.4 5.01878 8.84795 3.4667 6.93337 3.4667C5.01878 3.4667 3.4667 5.01878 3.4667 6.93337C3.4667 8.84795 5.01878 10.4 6.93337 10.4ZM13.8667 6.93337C13.8667 10.7625 10.7625 13.8667 6.93337 13.8667C3.10419 13.8667 3.24249e-05 10.7625 3.24249e-05 6.93337C3.24249e-05 3.10419 3.10419 3.24249e-05 6.93337 3.24249e-05C10.7625 3.24249e-05 13.8667 3.10419 13.8667 6.93337Z" fill="#3D70E0"/>
<path opacity="0.3" d="M29.4666 20.8C24.6802 20.8 20.8 24.6802 20.8 29.4666C20.8 34.2531 24.6802 38.1333 29.4666 38.1333C34.2531 38.1333 38.1333 34.2531 38.1333 29.4666C38.1333 24.6802 34.2531 20.8 29.4666 20.8Z" fill="#3D70E0"/>
<path opacity="0.3" fill-rule="evenodd" clip-rule="evenodd" d="M8.26886 0.0652037L36.0022 7.8652L35.0636 11.2024L7.33028 3.40239L8.26886 0.0652037Z" fill="#3D70E0"/>
</svg>
