<svg width="50" height="50" viewBox="0 0 50 50" fill="none" xmlns="http://www.w3.org/2000/svg">
<path fill-rule="evenodd" clip-rule="evenodd" d="M5.76923 46.1538C4.70714 46.1538 3.84615 45.2929 3.84615 44.2308V28.8462C3.84615 27.7841 4.70714 26.9231 5.76923 26.9231H21.1538C22.2159 26.9231 23.0769 27.7841 23.0769 28.8462V44.2308C23.0769 45.2929 22.2159 46.1538 21.1538 46.1538H5.76923ZM0 44.2308C0 47.417 2.58297 50 5.76923 50H21.1538C24.3401 50 26.9231 47.417 26.9231 44.2308V28.8462C26.9231 25.6599 24.3401 23.0769 21.1538 23.0769H5.76923C2.58297 23.0769 0 25.6599 0 28.8462V44.2308Z" fill="#3D70E0"/>
<path d="M17.3078 42.3076H9.61546C8.55337 42.3076 7.69238 41.4466 7.69238 40.3845V32.6922C7.69238 31.6301 8.55337 30.7692 9.61546 30.7692H17.3078C18.3699 30.7692 19.2308 31.6301 19.2308 32.6922V40.3845C19.2308 41.4466 18.3699 42.3076 17.3078 42.3076Z" fill="#BBCDF4"/>
<path fill-rule="evenodd" clip-rule="evenodd" d="M5.76923 23.0769C4.70714 23.0769 3.84615 22.216 3.84615 21.1539V5.76925C3.84615 4.70716 4.70714 3.84617 5.76923 3.84617H21.1538C22.2159 3.84617 23.0769 4.70716 23.0769 5.76925V21.1539C23.0769 22.216 22.2159 23.0769 21.1538 23.0769H5.76923ZM0 21.1539C0 24.3401 2.58297 26.9231 5.76923 26.9231H21.1538C24.3401 26.9231 26.9231 24.3401 26.9231 21.1539V5.76925C26.9231 2.58299 24.3401 1.90735e-05 21.1538 1.90735e-05H5.76923C2.58297 1.90735e-05 0 2.58299 0 5.76925V21.1539Z" fill="#3D70E0"/>
<path d="M17.3078 19.2307H9.61546C8.55337 19.2307 7.69238 18.3697 7.69238 17.3076V9.61533C7.69238 8.55324 8.55337 7.69225 9.61546 7.69225H17.3078C18.3699 7.69225 19.2308 8.55324 19.2308 9.61533V17.3076C19.2308 18.3697 18.3699 19.2307 17.3078 19.2307Z" fill="#BBCDF4"/>
<path fill-rule="evenodd" clip-rule="evenodd" d="M28.8461 23.0769C27.784 23.0769 26.9231 22.216 26.9231 21.1539V5.76925C26.9231 4.70716 27.784 3.84617 28.8461 3.84617H44.2307C45.2928 3.84617 46.1538 4.70716 46.1538 5.76925V21.1539C46.1538 22.216 45.2928 23.0769 44.2307 23.0769H28.8461ZM23.0769 21.1539C23.0769 24.3401 25.6599 26.9231 28.8461 26.9231H44.2307C47.417 26.9231 50 24.3401 50 21.1539V5.76925C50 2.58299 47.417 1.90735e-05 44.2307 1.90735e-05H28.8461C25.6599 1.90735e-05 23.0769 2.58299 23.0769 5.76925V21.1539Z" fill="#3D70E0"/>
<path d="M40.3847 19.2307H32.6924C31.6303 19.2307 30.7693 18.3697 30.7693 17.3076V9.61533C30.7693 8.55324 31.6303 7.69225 32.6924 7.69225H40.3847C41.4468 7.69225 42.3077 8.55324 42.3077 9.61533V17.3076C42.3077 18.3697 41.4468 19.2307 40.3847 19.2307Z" fill="#BBCDF4"/>
</svg>
