<svg width="52" height="48" viewBox="0 0 52 48" fill="none" xmlns="http://www.w3.org/2000/svg">
<path fill-rule="evenodd" clip-rule="evenodd" d="M14.609 20.1086C13.7345 20.4893 13.3342 21.5069 13.715 22.3813L24.1088 46.2551C24.383 46.8849 25.0043 47.2923 25.6912 47.2927C26.3781 47.2931 26.9999 46.8863 27.2748 46.2569L37.7007 22.3831C38.0824 21.5091 37.6833 20.4911 36.8092 20.1094C35.9352 19.7277 34.9172 20.1268 34.5355 21.0008L25.6946 41.245L16.8818 21.0026C16.501 20.1281 15.4835 19.7279 14.609 20.1086Z" fill="#3D70E0"/>
<path fill-rule="evenodd" clip-rule="evenodd" d="M48.3198 13.0632C46.52 9.68373 43.0031 7.57227 39.1743 7.57227H27.7207C26.7669 7.57227 25.9938 8.34545 25.9938 9.29922C25.9938 10.253 26.7669 11.0262 27.7207 11.0262H39.1743C41.7269 11.0262 44.0714 12.4338 45.2713 14.6868L48.3433 20.4549C48.6949 21.1151 48.5815 21.9268 48.0624 22.4651L28.2082 43.0597C26.843 44.4757 24.5724 44.4675 23.2175 43.0414C23.2175 43.0413 23.2175 43.0414 23.2175 43.0414L10.5482 29.7052L3.91288 22.5286C3.40485 21.9791 3.30853 21.1648 3.67439 20.5119C3.67439 20.5119 3.67438 20.5119 3.67439 20.5119L5.61376 17.0513C6.08003 16.2193 5.78353 15.1668 4.9515 14.7005C4.11948 14.2342 3.067 14.5307 2.60073 15.3628L0.661358 18.8234C-0.43618 20.782 -0.1474 23.2248 1.37684 24.8733L8.03594 32.0757L20.7134 45.4202C23.4231 48.2724 27.9643 48.2891 30.6947 45.4568L50.5488 24.8625C50.5488 24.8625 50.5488 24.8625 50.5488 24.8625C52.1064 23.247 52.4467 20.812 51.3918 18.8313C51.3918 18.8313 51.3918 18.8314 51.3918 18.8313L48.3198 13.0632Z" fill="#3D70E0"/>
<path fill-rule="evenodd" clip-rule="evenodd" d="M51.8802 21.6535C51.8802 20.6997 51.1071 19.9265 50.1533 19.9265H3.00037C2.0466 19.9265 1.27341 20.6997 1.27341 21.6535C1.27341 22.6072 2.0466 23.3804 3.00037 23.3804H50.1533C51.1071 23.3804 51.8802 22.6072 51.8802 21.6535Z" fill="#3D70E0"/>
<path opacity="0.3" d="M14.3953 1.09188C13.776 -0.363959 11.7126 -0.363959 11.0933 1.09188C10.0036 3.65428 7.96324 5.69465 5.40079 6.78448C3.94497 7.40366 3.94497 9.46713 5.40079 10.0863C7.96324 11.1761 10.0036 13.2165 11.0933 15.7789C11.7126 17.2347 13.776 17.2347 14.3953 15.7789C15.485 13.2165 17.5254 11.1761 20.0878 10.0863C21.5436 9.46713 21.5436 7.40366 20.0878 6.78448C17.5254 5.69465 15.485 3.65428 14.3953 1.09188Z" fill="#3D70E0"/>
</svg>
