<svg width="28" height="28" viewBox="0 0 28 28" fill="none" xmlns="http://www.w3.org/2000/svg">
<g clip-path="url(#clip0_16_213)">
<path d="M0.835832 27.5758H15.5447C15.7721 27.5758 15.9563 27.3917 15.9563 27.1643V24.2709C15.9563 22.2473 14.3098 20.6008 12.2861 20.6008H10.4547V19.751C10.4547 19.7404 10.4496 19.7311 10.4487 19.7209C11.7537 18.8258 12.6964 17.24 12.8648 15.3898L12.8652 15.3881C13.3226 12.2907 13.0315 10.1784 11.976 8.93117C11.1233 7.92359 9.55104 7.56129 8.94183 7.69196C5.95177 8.32832 4.07068 8.20784 3.1891 7.32669C3.07413 7.21214 2.90316 7.17565 2.75171 7.23335C2.60026 7.29105 2.49674 7.43275 2.48783 7.59438C2.46747 7.95584 2.43947 8.30753 2.41274 8.64735C2.27953 10.3371 2.16371 11.8041 3.05759 12.9097L3.23238 15.3572L3.23323 15.3601L3.2328 15.3635C3.40674 17.3592 4.47413 19.0536 5.92589 19.9067V20.6008H4.09444C2.0708 20.6008 0.424316 22.2473 0.424316 24.2709V27.1647C0.424316 27.3917 0.608438 27.5758 0.835832 27.5758ZM3.2328 8.71184C3.24086 8.60705 3.24935 8.50099 3.25783 8.39408C4.4491 9.05123 6.32807 9.0839 9.06529 8.5065C10.0813 8.53535 10.828 8.84802 11.3481 9.46275C11.9926 10.2243 12.2921 11.4737 12.245 13.1884L12.1368 12.8291C12.0766 12.6284 11.8759 12.5058 11.6697 12.5423C8.57232 13.1006 6.26741 13.076 4.41601 12.4647C4.18862 12.39 3.94807 12.5237 3.8891 12.7519L3.87553 12.8045L3.86916 12.7175C3.8628 12.6267 3.82674 12.541 3.7665 12.4732C3.00371 11.6175 3.10468 10.335 3.2328 8.71184ZM4.0605 15.3555L4.57723 13.3726C6.40868 13.8817 8.61601 13.8944 11.4538 13.4146L12.0392 15.3631C11.7974 17.7868 10.0525 19.676 8.03735 19.676C6.0345 19.6764 4.29935 17.7834 4.0605 15.3555ZM8.03735 20.4994C8.59268 20.4994 9.1285 20.3789 9.63207 20.1677V21.0123C9.63207 21.8074 8.9851 22.4543 8.1905 22.4543C7.39547 22.4543 6.7485 21.8074 6.7485 21.0123V20.2839C7.16129 20.4226 7.59359 20.4994 8.03735 20.4994ZM1.24692 24.2709C1.24692 22.7008 2.52389 21.4238 4.09401 21.4238H5.96492C6.15923 22.4764 7.08238 23.2769 8.19007 23.2769C9.29777 23.2769 10.2209 22.4764 10.4152 21.4238H12.2861C13.8563 21.4238 15.1332 22.7008 15.1332 24.2709V26.7532H1.24692V24.2709Z" fill="#ECF2FA"/>
<path d="M1.24692 24.2709C1.24692 22.7008 2.52389 21.4238 4.09401 21.4238H5.96492C6.15923 22.4764 7.08238 23.2769 8.19007 23.2769C9.29777 23.2769 10.2209 22.4764 10.4152 21.4238H12.2861C13.8563 21.4238 15.1332 22.7008 15.1332 24.2709V26.7532H1.24692V24.2709Z" fill="#ECF2FA"/>
<path d="M3.2328 8.71184C3.24086 8.60705 3.24935 8.50099 3.25783 8.39408C4.4491 9.05123 6.32807 9.0839 9.06529 8.5065C10.0813 8.53535 10.828 8.84802 11.3481 9.46275C11.9926 10.2243 12.2921 11.4737 12.245 13.1884L12.1368 12.8291C12.0766 12.6284 11.8759 12.5058 11.6697 12.5423C8.57232 13.1006 6.26741 13.076 4.41601 12.4647C4.18862 12.39 3.94807 12.5237 3.8891 12.7519L3.87553 12.8045L3.86916 12.7175C3.8628 12.6267 3.82674 12.541 3.7665 12.4732C3.00371 11.6175 3.10468 10.335 3.2328 8.71184Z" fill="#ECF2FA"/>
<path d="M0.835832 27.5758H15.5447C15.7721 27.5758 15.9563 27.3917 15.9563 27.1643V24.2709C15.9563 22.2473 14.3098 20.6008 12.2861 20.6008H10.4547V19.751C10.4547 19.7404 10.4496 19.7311 10.4487 19.7209C11.7537 18.8258 12.6964 17.24 12.8648 15.3898L12.8652 15.3881C13.3226 12.2907 13.0315 10.1784 11.976 8.93117C11.1233 7.92359 9.55104 7.56129 8.94183 7.69196C5.95177 8.32832 4.07068 8.20784 3.1891 7.32669C3.07413 7.21214 2.90316 7.17565 2.75171 7.23335C2.60026 7.29105 2.49674 7.43275 2.48783 7.59438C2.46747 7.95584 2.43947 8.30753 2.41274 8.64735C2.27953 10.3371 2.16371 11.8041 3.05759 12.9097L3.23238 15.3572L3.23323 15.3601L3.2328 15.3635C3.40674 17.3592 4.47413 19.0536 5.92589 19.9067V20.6008H4.09444C2.0708 20.6008 0.424316 22.2473 0.424316 24.2709V27.1647C0.424316 27.3917 0.608438 27.5758 0.835832 27.5758ZM3.2328 8.71184C3.24086 8.60705 3.24935 8.50099 3.25783 8.39408C4.4491 9.05123 6.32807 9.0839 9.06529 8.5065C10.0813 8.53535 10.828 8.84802 11.3481 9.46275C11.9926 10.2243 12.2921 11.4737 12.245 13.1884L12.1368 12.8291C12.0766 12.6284 11.8759 12.5058 11.6697 12.5423C8.57232 13.1006 6.26741 13.076 4.41601 12.4647C4.18862 12.39 3.94807 12.5237 3.8891 12.7519L3.87553 12.8045L3.86916 12.7175C3.8628 12.6267 3.82674 12.541 3.7665 12.4732C3.00371 11.6175 3.10468 10.335 3.2328 8.71184ZM4.0605 15.3555L4.57723 13.3726C6.40868 13.8817 8.61601 13.8944 11.4538 13.4146L12.0392 15.3631C11.7974 17.7868 10.0525 19.676 8.03735 19.676C6.0345 19.6764 4.29935 17.7834 4.0605 15.3555ZM8.03735 20.4994C8.59268 20.4994 9.1285 20.3789 9.63207 20.1677V21.0123C9.63207 21.8074 8.9851 22.4543 8.1905 22.4543C7.39547 22.4543 6.7485 21.8074 6.7485 21.0123V20.2839C7.16129 20.4226 7.59359 20.4994 8.03735 20.4994ZM1.24692 24.2709C1.24692 22.7008 2.52389 21.4238 4.09401 21.4238H5.96492C6.15923 22.4764 7.08238 23.2769 8.19007 23.2769C9.29777 23.2769 10.2209 22.4764 10.4152 21.4238H12.2861C13.8563 21.4238 15.1332 22.7008 15.1332 24.2709V26.7532H1.24692V24.2709Z" fill="#002F6D"/>
<path d="M26.4295 0.424255H14.8579C14.2254 0.424255 13.7112 0.938437 13.7112 1.57056V9.70668C13.7112 10.3388 14.2254 10.853 14.8579 10.853H15.6075V12.8745C15.6075 13.0213 15.6856 13.1566 15.8125 13.2304C15.9406 13.3051 16.0975 13.3038 16.2231 13.2317L20.3837 10.853H26.43C27.0621 10.853 27.5763 10.3388 27.5763 9.70668V1.57056C27.5758 0.938437 27.0617 0.424255 26.4295 0.424255ZM26.7532 9.70668C26.7532 9.88486 26.6082 10.03 26.43 10.03H20.2742C20.2025 10.03 20.1325 10.0486 20.0702 10.0843L16.4302 12.1652V10.4415C16.4302 10.2141 16.246 10.03 16.0186 10.03H14.8575C14.6793 10.03 14.5338 9.88486 14.5338 9.70668V1.57056C14.5338 1.39238 14.6793 1.24729 14.8575 1.24729H26.4295C26.6077 1.24729 26.7528 1.39238 26.7528 1.57056L26.7532 9.70668Z" fill="#002F6D"/>
<path d="M24.8084 4.23865H16.228C15.8526 4.23865 15.5486 4.42277 15.5486 4.65016C15.5486 4.87756 15.8526 5.06168 16.228 5.06168H24.8084C25.1838 5.06168 25.4878 4.87756 25.4878 4.65016C25.4878 4.42277 25.1838 4.23865 24.8084 4.23865Z" fill="#FF3C1F"/>
<path d="M22.9136 6.21558H16.0889C15.7903 6.21558 15.5486 6.3997 15.5486 6.62709C15.5486 6.85449 15.7903 7.03861 16.0889 7.03861H22.9136C23.2122 7.03861 23.4539 6.85449 23.4539 6.62709C23.4539 6.3997 23.2122 6.21558 22.9136 6.21558Z" fill="#FF3C1F"/>
</g>
<defs>
<clipPath id="clip0_16_213">
<rect width="28" height="28" fill="white"/>
</clipPath>
</defs>
</svg>
