<svg width="32" height="28" viewBox="0 0 32 28" fill="none" xmlns="http://www.w3.org/2000/svg">
<path d="M31.7712 13.5937L0.512409 0.857766C0.182169 0.723216 -0.126858 1.09051 0.0621376 1.3929L7.81978 13.8028C7.8694 13.8821 7.86959 13.9828 7.82034 14.0624L0.0566929 26.6085C-0.130864 26.9116 0.179477 27.2773 0.50903 27.1417L31.7724 14.2739C32.0765 14.1487 32.0757 13.7178 31.7712 13.5937Z" fill="#639CE7"/>
<path d="M31.7722 14.2739C31.9226 14.212 31.9981 14.0753 31.9995 13.9379L7.8566 13.9379C7.85572 13.9811 7.84377 14.0242 7.82017 14.0623L0.0565294 26.6085C-0.131028 26.9116 0.179313 27.2773 0.508867 27.1417L31.7722 14.2739Z" fill="#0054C3"/>
</svg>
