<svg width="28" height="28" viewBox="0 0 28 28" fill="none" xmlns="http://www.w3.org/2000/svg">
<path d="M24.5637 21.7637C24.097 21.1697 23.3758 20.8303 22.6122 20.8303H17.6061L19.9395 14.4667C20.3213 14.7637 20.6607 15.1455 20.8728 15.5273C20.9576 15.7394 21.2122 15.8243 21.4243 15.7394C23.0364 15.0182 25.4122 15.7818 26.3455 17.3091C26.5576 17.6485 27.0243 17.5637 27.1092 17.1818C28.0425 12.8121 25.5819 8.40002 21.3395 6.87274H21.297H21.2546C17.097 5.43032 12.5152 7.21214 10.394 11.0727C10.2243 11.4121 10.5213 11.7515 10.8607 11.7091C12.5152 11.3697 14.5516 12.2606 15.2728 13.6606C15.3576 13.8727 15.6122 13.9576 15.8243 13.8727C16.8425 13.4061 18.1576 13.5758 19.2182 14.0849L16.7152 20.9152H7.21218C7.00006 20.9152 7.00006 20.9152 6.194 19.7273C5.64248 18.9637 4.83642 17.7758 3.47885 15.9091C2.96975 15.2303 1.994 15.0182 1.27279 15.5273C0.551573 16.0364 0.4243 17.0121 0.890967 17.7334L4.36975 22.6121C4.794 23.2061 5.43036 23.6727 6.15157 23.8849L5.34551 25.3273C4.92127 26.0909 5.17582 27.0243 5.93945 27.4485C6.70309 27.8727 7.63642 27.6182 8.06066 26.8546L9.67279 24.0546H15.5273L14.5516 26.6424H12.8546C12.6001 26.6424 12.4304 26.8121 12.4304 27.0667C12.4304 27.3212 12.6001 27.4909 12.8546 27.4909H16.8425C17.097 27.4909 17.2667 27.3212 17.2667 27.0667C17.2667 26.8121 17.097 26.6424 16.8425 26.6424H15.4425L16.4182 24.0546H22.3152L24.6061 26.897C25.1576 27.5758 26.1334 27.6606 26.8122 27.1515C27.491 26.6 27.6182 25.6243 27.0667 24.9455L24.5637 21.7637ZM26.4304 16.0364C25.6667 15.2727 24.5637 14.7637 23.4182 14.6364C23.8849 12.303 23.8001 10.1818 23.1637 8.73941C25.4546 10.4364 26.7273 13.194 26.4304 16.0364ZM18.6243 7.16971C17.2243 7.93335 15.8243 9.54547 14.7213 11.7091C13.8728 11.0727 12.7273 10.6909 11.6243 10.6909C13.1091 8.48487 15.697 7.04244 18.6243 7.16971ZM15.8243 12.8546C15.697 12.6424 15.5273 12.4727 15.3576 12.2606C16.9273 8.99396 19.3031 7.00002 21.0001 7.59396H21.0425C22.6546 8.23032 23.291 11.1152 22.5698 14.594C22.1455 14.594 21.7637 14.6788 21.4243 14.8061C20.2788 13.0667 17.7334 12.2182 15.8243 12.8546ZM7.33945 26.3455C7.12733 26.6849 6.70309 26.8121 6.36369 26.6424C6.0243 26.4303 5.89703 26.0061 6.10915 25.6667L7.08491 23.9697H8.73945L7.33945 26.3455ZM7.21218 23.1212C6.36369 23.1212 5.55763 22.7394 5.09097 22.0606L1.56975 17.1818C1.35763 16.8424 1.40006 16.4182 1.73945 16.1637C2.07885 15.9091 2.50309 15.994 2.75763 16.3334C4.11521 18.1576 4.92127 19.3455 5.47279 20.1091C5.48376 20.1248 5.49462 20.1403 5.50537 20.1557C6.36795 21.3881 6.54175 21.6364 7.21218 21.6364H16.3758L15.8243 23.0788L7.21218 23.1212ZM26.3031 26.3879C26.0061 26.6424 25.5395 26.5576 25.2849 26.2606L22.8667 23.2485C22.7819 23.1637 22.6546 23.0788 22.5273 23.0788H16.7576L17.3092 21.6364H22.6546C23.1637 21.6364 23.6304 21.8485 23.9698 22.2727L26.4728 25.3697C26.6425 25.7091 26.6001 26.1334 26.3031 26.3879Z" fill="#ECF2FA"/>
<path d="M7.21218 23.1212C6.36369 23.1212 5.55763 22.7394 5.09097 22.0606L1.56975 17.1818C1.35763 16.8424 1.40006 16.4182 1.73945 16.1637C2.07885 15.9091 2.50309 15.994 2.75763 16.3334C4.11521 18.1576 4.92127 19.3455 5.47279 20.1091L5.50537 20.1557C6.36795 21.3881 6.54175 21.6364 7.21218 21.6364H16.3758L15.8243 23.0788L7.21218 23.1212Z" fill="#ECF2FA"/>
<path d="M26.3031 26.3879C26.0061 26.6424 25.5395 26.5576 25.2849 26.2606L22.8667 23.2485C22.7819 23.1637 22.6546 23.0788 22.5273 23.0788H16.7576L17.3092 21.6364H22.6546C23.1637 21.6364 23.6304 21.8485 23.9698 22.2727L26.4728 25.3697C26.6425 25.7091 26.6001 26.1334 26.3031 26.3879Z" fill="#ECF2FA"/>
<path d="M24.5637 21.7637C24.097 21.1697 23.3758 20.8303 22.6122 20.8303H17.6061L19.9395 14.4667C20.3213 14.7637 20.6607 15.1455 20.8728 15.5273C20.9576 15.7394 21.2122 15.8243 21.4243 15.7394C23.0364 15.0182 25.4122 15.7818 26.3455 17.3091C26.5576 17.6485 27.0243 17.5637 27.1092 17.1818C28.0425 12.8121 25.5819 8.40002 21.3395 6.87274H21.297H21.2546C17.097 5.43032 12.5152 7.21214 10.394 11.0727C10.2243 11.4121 10.5213 11.7515 10.8607 11.7091C12.5152 11.3697 14.5516 12.2606 15.2728 13.6606C15.3576 13.8727 15.6122 13.9576 15.8243 13.8727C16.8425 13.4061 18.1576 13.5758 19.2182 14.0849L16.7152 20.9152H7.21218C7.00006 20.9152 7.00006 20.9152 6.194 19.7273C5.64248 18.9637 4.83642 17.7758 3.47885 15.9091C2.96975 15.2303 1.994 15.0182 1.27279 15.5273C0.551573 16.0364 0.4243 17.0121 0.890967 17.7334L4.36975 22.6121C4.794 23.2061 5.43036 23.6727 6.15157 23.8849L5.34551 25.3273C4.92127 26.0909 5.17582 27.0243 5.93945 27.4485C6.70309 27.8727 7.63642 27.6182 8.06066 26.8546L9.67279 24.0546H15.5273L14.5516 26.6424H12.8546C12.6001 26.6424 12.4304 26.8121 12.4304 27.0667C12.4304 27.3212 12.6001 27.4909 12.8546 27.4909H16.8425C17.097 27.4909 17.2667 27.3212 17.2667 27.0667C17.2667 26.8121 17.097 26.6424 16.8425 26.6424H15.4425L16.4182 24.0546H22.3152L24.6061 26.897C25.1576 27.5758 26.1334 27.6606 26.8122 27.1515C27.491 26.6 27.6182 25.6243 27.0667 24.9455L24.5637 21.7637ZM26.4304 16.0364C25.6667 15.2727 24.5637 14.7637 23.4182 14.6364C23.8849 12.303 23.8001 10.1818 23.1637 8.73941C25.4546 10.4364 26.7273 13.194 26.4304 16.0364ZM18.6243 7.16971C17.2243 7.93335 15.8243 9.54547 14.7213 11.7091C13.8728 11.0727 12.7273 10.6909 11.6243 10.6909C13.1091 8.48487 15.697 7.04244 18.6243 7.16971ZM15.8243 12.8546C15.697 12.6424 15.5273 12.4727 15.3576 12.2606C16.9273 8.99396 19.3031 7.00002 21.0001 7.59396H21.0425C22.6546 8.23032 23.291 11.1152 22.5698 14.594C22.1455 14.594 21.7637 14.6788 21.4243 14.8061C20.2788 13.0667 17.7334 12.2182 15.8243 12.8546ZM7.33945 26.3455C7.12733 26.6849 6.70309 26.8121 6.36369 26.6424C6.0243 26.4303 5.89703 26.0061 6.10915 25.6667L7.08491 23.9697H8.73945L7.33945 26.3455ZM7.21218 23.1212C6.36369 23.1212 5.55763 22.7394 5.09097 22.0606L1.56975 17.1818C1.35763 16.8424 1.40006 16.4182 1.73945 16.1637C2.07885 15.9091 2.50309 15.994 2.75763 16.3334C4.11521 18.1576 4.92127 19.3455 5.47279 20.1091C6.36369 21.3818 6.53339 21.6364 7.21218 21.6364H16.3758L15.8243 23.0788L7.21218 23.1212ZM26.3031 26.3879C26.0061 26.6424 25.5395 26.5576 25.2849 26.2606L22.8667 23.2485C22.7819 23.1637 22.6546 23.0788 22.5273 23.0788H16.7576L17.3092 21.6364H22.6546C23.1637 21.6364 23.6304 21.8485 23.9698 22.2727L26.4728 25.3697C26.6425 25.7091 26.6001 26.1334 26.3031 26.3879Z" fill="#002F6D"/>
<path fill-rule="evenodd" clip-rule="evenodd" d="M19.9394 14.4667C20.3212 14.7637 20.6606 15.1455 20.8727 15.5273C20.9576 15.7394 21.2121 15.8243 21.4242 15.7394C23.0364 15.0182 25.4121 15.7818 26.3455 17.3091C26.5576 17.6485 27.0242 17.5637 27.1091 17.1818C28.0424 12.8121 25.5818 8.40002 21.3394 6.87274H21.297H21.2545C17.097 5.43032 12.5152 7.21214 10.3939 11.0727C10.2242 11.4121 10.5212 11.7515 10.8606 11.7091C12.5151 11.3697 14.5515 12.2606 15.2727 13.6606C15.3576 13.8727 15.6121 13.9576 15.8242 13.8727C16.8424 13.4061 18.1576 13.5758 19.2182 14.0849C19.5601 14.249 19.2182 14.0849 19.9394 14.4667ZM15.5168 12.4513C15.6301 12.584 15.7371 12.7093 15.8242 12.8546C17.7333 12.2182 20.2788 13.0667 21.4242 14.8061C21.7636 14.6788 22.1455 14.594 22.5697 14.594C23.2909 11.1152 22.6545 8.23032 21.0424 7.59396H21C19.303 7.00002 16.9273 8.99396 15.3576 12.2606C15.4111 12.3275 15.4646 12.3902 15.5168 12.4513ZM18.6242 7.16971C17.2242 7.93335 15.8242 9.54547 14.7212 11.7091C13.8727 11.0727 12.7273 10.6909 11.6242 10.6909C13.1091 8.48487 15.697 7.04244 18.6242 7.16971ZM23.4182 14.6364C24.5636 14.7637 25.6667 15.2727 26.4303 16.0364C26.7273 13.194 25.4545 10.4364 23.1636 8.73941C23.8 10.1818 23.8849 12.303 23.4182 14.6364Z" fill="#FF3C1F"/>
<path d="M9.03647 5.5576C9.03647 3.9879 7.76374 2.7576 6.23647 2.7576C4.70919 2.7576 3.39404 3.9879 3.39404 5.5576C3.39404 7.1273 4.66677 8.3576 6.19404 8.3576C7.72132 8.3576 9.03647 7.08487 9.03647 5.5576ZM6.23647 7.50911C5.13344 7.50911 4.28495 6.61821 4.28495 5.5576C4.28495 4.49699 5.17586 3.60608 6.23647 3.60608C7.3395 3.60608 8.18798 4.49699 8.18798 5.5576C8.18798 6.61821 7.29707 7.50911 6.23647 7.50911Z" fill="#ECF2FA"/>
<path d="M6.23647 7.50911C5.13344 7.50911 4.28495 6.61821 4.28495 5.5576C4.28495 4.49699 5.17586 3.60608 6.23647 3.60608C7.3395 3.60608 8.18798 4.49699 8.18798 5.5576C8.18798 6.61821 7.29707 7.50911 6.23647 7.50911Z" fill="#ECF2FA"/>
<path d="M9.03647 5.5576C9.03647 3.9879 7.76374 2.7576 6.23647 2.7576C4.70919 2.7576 3.39404 3.9879 3.39404 5.5576C3.39404 7.1273 4.66677 8.3576 6.19404 8.3576C7.72132 8.3576 9.03647 7.08487 9.03647 5.5576ZM6.23647 7.50911C5.13344 7.50911 4.28495 6.61821 4.28495 5.5576C4.28495 4.49699 5.17586 3.60608 6.23647 3.60608C7.3395 3.60608 8.18798 4.49699 8.18798 5.5576C8.18798 6.61821 7.29707 7.50911 6.23647 7.50911Z" fill="#002F6D"/>
<path d="M6.23644 2.46062C6.49099 2.46062 6.66068 2.2485 6.66068 2.03638L6.61826 0.848498C6.61826 0.593952 6.40614 0.424255 6.19402 0.424255C5.93947 0.424255 5.76978 0.636377 5.76978 0.848498L5.8122 2.03638C5.8122 2.29092 6.02432 2.46062 6.23644 2.46062Z" fill="#002F6D"/>
<path d="M6.19402 8.61212C5.93947 8.61212 5.76978 8.82424 5.76978 9.03636L5.8122 10.2242C5.8122 10.4364 6.02432 10.6485 6.23644 10.6485C6.49099 10.6485 6.66068 10.4364 6.66068 10.2242L6.61826 9.03636C6.61826 8.78182 6.44856 8.61212 6.19402 8.61212Z" fill="#002F6D"/>
<path d="M4.07284 3.35152C4.24253 3.18183 4.24253 2.92728 4.07284 2.75758L3.22435 1.95152C3.05466 1.78183 2.80011 1.78183 2.63041 1.95152C2.41829 2.12122 2.41829 2.37576 2.58799 2.54546L3.43647 3.35152C3.64859 3.52122 3.90314 3.52122 4.07284 3.35152Z" fill="#002F6D"/>
<path d="M9.24846 9.16366C9.41816 9.33335 9.67271 9.33335 9.8424 9.16366C10.0121 8.99396 10.0121 8.73941 9.8424 8.56972L8.99392 7.76366C8.82422 7.59396 8.56967 7.59396 8.39998 7.76366C8.23028 7.93335 8.23028 8.1879 8.39998 8.3576L9.24846 9.16366Z" fill="#002F6D"/>
<path d="M1.52727 5.98182L2.71515 5.9394C2.96969 5.9394 3.13939 5.72728 3.13939 5.51515C3.13939 5.26061 2.92727 5.09091 2.71515 5.09091L1.52727 5.13334C1.27272 5.13334 1.10303 5.34546 1.10303 5.55758C1.10303 5.81212 1.31515 5.98182 1.52727 5.98182Z" fill="#002F6D"/>
<path d="M11.3274 5.51515C11.3274 5.26061 11.1153 5.09091 10.9031 5.09091L9.71526 5.13334C9.46071 5.13334 9.29102 5.34546 9.29102 5.55758C9.29102 5.7697 9.50314 5.98182 9.71526 5.98182L10.9031 5.9394C11.1577 5.9394 11.3274 5.7697 11.3274 5.51515Z" fill="#002F6D"/>
<path d="M3.43651 7.72124L2.63045 8.56972C2.46075 8.73942 2.46075 8.99396 2.63045 9.16366C2.80014 9.33336 3.05469 9.33336 3.22439 9.16366L4.03045 8.31518C4.20014 8.14548 4.20014 7.89093 4.03045 7.72124C3.86075 7.55154 3.6062 7.55154 3.43651 7.72124Z" fill="#002F6D"/>
<path d="M8.99392 3.35153L9.79998 2.50304C9.96968 2.33335 9.96968 2.0788 9.79998 1.9091C9.63028 1.73941 9.37574 1.73941 9.20604 1.9091L8.39998 2.75759C8.23028 2.92728 8.23028 3.18183 8.39998 3.35153C8.56967 3.52122 8.86665 3.52122 8.99392 3.35153Z" fill="#002F6D"/>
</svg>
