<svg width="28" height="28" viewBox="0 0 28 28" fill="none" xmlns="http://www.w3.org/2000/svg">
<path d="M26.0615 2.36924H15.9384V1.07693C15.9384 0.603085 15.5507 0.215393 15.0769 0.215393H12.923C12.4492 0.215393 12.0615 0.603085 12.0615 1.07693V2.36924H1.93841C0.990717 2.36924 0.215332 3.14462 0.215332 4.09232V4.95385C0.215332 5.21232 0.38764 5.38462 0.646101 5.38462H1.29226V20.0308H0.646101C0.38764 20.0308 0.215332 20.2031 0.215332 20.4615V21.3231C0.215332 22.2708 0.990717 23.0462 1.93841 23.0462H10.2092L7.71072 27.1385C7.58149 27.3539 7.66764 27.6123 7.83995 27.7415C8.05533 27.8708 8.31379 27.7846 8.44302 27.6123L11.1999 23.0031H13.5692V25.5877C13.5692 25.8462 13.7415 26.0185 13.9999 26.0185C14.2584 26.0185 14.4307 25.8462 14.4307 25.5877V23.0031H16.7999L19.5569 27.5692C19.6861 27.7846 19.9446 27.8277 20.1599 27.6985C20.3753 27.5692 20.4184 27.3108 20.2892 27.0954L17.7907 23.0031H26.0615C27.0092 23.0031 27.7846 22.2277 27.7846 21.28V20.4185C27.7846 20.16 27.6123 19.9877 27.3538 19.9877H26.7076V5.34155H27.3538C27.6123 5.34155 27.7846 5.16924 27.7846 4.91078V4.04924C27.7846 3.14462 27.0092 2.36924 26.0615 2.36924ZM12.923 1.07693H15.0769V2.36924H12.923V1.07693ZM26.923 21.28C26.923 21.7539 26.5353 22.1415 26.0615 22.1415H1.93841C1.46456 22.1415 1.07687 21.7539 1.07687 21.28V20.8492H26.923V21.28ZM25.8461 20.0308H2.15379V5.38462H25.8461V20.0308ZM26.923 4.52309C18.523 4.52309 9.30456 4.52309 1.07687 4.52309V4.09232C1.07687 3.61847 1.46456 3.23078 1.93841 3.23078H12.4923H15.5076H26.0615C26.5353 3.23078 26.923 3.61847 26.923 4.09232V4.52309Z" fill="#ECF2FA"/>
<path d="M25.8461 20.0308H2.15379V5.38462H25.8461V20.0308Z" fill="#ECF2FA"/>
<path d="M26.0615 2.36924H15.9384V1.07693C15.9384 0.603085 15.5507 0.215393 15.0769 0.215393H12.923C12.4492 0.215393 12.0615 0.603085 12.0615 1.07693V2.36924H1.93841C0.990717 2.36924 0.215332 3.14462 0.215332 4.09232V4.95385C0.215332 5.21232 0.38764 5.38462 0.646101 5.38462H1.29226V20.0308H0.646101C0.38764 20.0308 0.215332 20.2031 0.215332 20.4615V21.3231C0.215332 22.2708 0.990717 23.0462 1.93841 23.0462H10.2092L7.71072 27.1385C7.58149 27.3539 7.66764 27.6123 7.83995 27.7415C8.05533 27.8708 8.31379 27.7846 8.44302 27.6123L11.1999 23.0031H13.5692V25.5877C13.5692 25.8462 13.7415 26.0185 13.9999 26.0185C14.2584 26.0185 14.4307 25.8462 14.4307 25.5877V23.0031H16.7999L19.5569 27.5692C19.6861 27.7846 19.9446 27.8277 20.1599 27.6985C20.3753 27.5692 20.4184 27.3108 20.2892 27.0954L17.7907 23.0031H26.0615C27.0092 23.0031 27.7846 22.2277 27.7846 21.28V20.4185C27.7846 20.16 27.6123 19.9877 27.3538 19.9877H26.7076V5.34155H27.3538C27.6123 5.34155 27.7846 5.16924 27.7846 4.91078V4.04924C27.7846 3.14462 27.0092 2.36924 26.0615 2.36924ZM12.923 1.07693H15.0769V2.36924H12.923V1.07693ZM26.923 21.28C26.923 21.7539 26.5353 22.1415 26.0615 22.1415H1.93841C1.46456 22.1415 1.07687 21.7539 1.07687 21.28V20.8492H26.923V21.28ZM25.8461 20.0308H2.15379V5.38462H25.8461V20.0308ZM26.923 4.52309C18.523 4.52309 9.30456 4.52309 1.07687 4.52309V4.09232C1.07687 3.61847 1.46456 3.23078 1.93841 3.23078H12.4923H15.5076H26.0615C26.5353 3.23078 26.923 3.61847 26.923 4.09232V4.52309Z" fill="#002F6D"/>
<path d="M7.71061 13.0523L5.38446 14.9477C5.21215 15.0769 5.16907 15.3785 5.34138 15.5508C5.47061 15.7231 5.77215 15.7662 5.94446 15.5939L8.27061 13.6985C8.57215 13.9139 8.91677 14.0431 9.26138 14.0431C9.7783 14.0431 10.2521 13.7846 10.5537 13.44L13.7414 14.9477C13.7414 15.0339 13.6983 15.1631 13.6983 15.2493C13.6983 16.1969 14.4737 16.9723 15.4214 16.9723C16.3691 16.9723 17.1445 16.1969 17.1445 15.2493C17.1445 14.9477 17.0583 14.6893 16.9291 14.4739L21.8398 9.95079L21.7968 11.2C21.7968 11.4585 21.9691 11.6308 22.2275 11.6308C22.4429 11.6308 22.6583 11.4585 22.6583 11.2L22.7445 8.91695C22.7445 8.65849 22.5722 8.4431 22.2706 8.48618L20.0306 8.40002C19.8152 8.40002 19.5998 8.57233 19.5998 8.83079C19.5998 9.08926 19.7722 9.26156 20.0306 9.26156L21.2798 9.30464L16.3691 13.8277C16.1106 13.6554 15.766 13.5262 15.4214 13.5262C14.9045 13.5262 14.4306 13.7846 14.086 14.1723L10.9414 12.6646C11.1568 11.5877 10.3383 10.5969 9.26138 10.5969C8.31369 10.5969 7.5383 11.3723 7.5383 12.32C7.5383 12.5785 7.58138 12.8369 7.71061 13.0523ZM15.4214 14.3877C15.8952 14.3877 16.2829 14.7754 16.2829 15.2493C16.2829 15.7231 15.8952 16.1108 15.4214 16.1108C14.9475 16.1108 14.5598 15.7231 14.5598 15.2493C14.5598 14.8185 14.9475 14.3877 15.4214 14.3877ZM9.26138 11.4585C9.73523 11.4585 10.1229 11.8462 10.1229 12.32C10.1229 12.7939 9.73523 13.1816 9.26138 13.1816C8.78753 13.1816 8.39984 12.7939 8.39984 12.32C8.39984 11.8462 8.78753 11.4585 9.26138 11.4585Z" fill="#FF3C1F"/>
<path d="M4.7816 7.53848H7.19391C7.45237 7.53848 7.62468 7.36617 7.62468 7.10771C7.62468 6.84925 7.45237 6.67694 7.19391 6.67694H4.7816C4.52314 6.67694 4.35083 6.84925 4.35083 7.10771C4.35083 7.36617 4.52314 7.53848 4.7816 7.53848Z" fill="#002F6D"/>
<path d="M4.7816 9.69229H7.19391C7.45237 9.69229 7.62468 9.51998 7.62468 9.26152C7.62468 9.00306 7.45237 8.83075 7.19391 8.83075H4.7816C4.52314 8.83075 4.35083 9.00306 4.35083 9.26152C4.35083 9.51998 4.52314 9.69229 4.7816 9.69229Z" fill="#002F6D"/>
<path d="M20.3752 16.1539C20.3752 16.4123 20.5476 16.5846 20.806 16.5846H23.2183C23.4768 16.5846 23.6491 16.4123 23.6491 16.1539C23.6491 15.8954 23.4768 15.7231 23.2183 15.7231H20.806C20.5906 15.7231 20.3752 15.8954 20.3752 16.1539Z" fill="#002F6D"/>
<path d="M23.2183 17.877H20.806C20.5476 17.877 20.3752 18.0493 20.3752 18.3077C20.3752 18.5662 20.5476 18.7385 20.806 18.7385H23.2183C23.4768 18.7385 23.6491 18.5662 23.6491 18.3077C23.6491 18.0493 23.4768 17.877 23.2183 17.877Z" fill="#002F6D"/>
</svg>
