<svg width="28" height="28" viewBox="0 0 28 28" fill="none" xmlns="http://www.w3.org/2000/svg">
<path d="M26.6976 21.5833C27.4952 21.1451 27.7786 20.3042 27.4052 19.4095C27.079 18.7744 26.3603 18.4274 25.6332 18.5699L16.9706 20.8753C16.1963 21.081 15.3843 20.927 14.7399 20.4527L12.9182 19.1125C12.8609 19.0705 12.8613 19.0141 12.8669 18.984C12.8724 18.9539 12.8915 18.9004 12.9593 18.8805L17.9259 17.4228C18.7036 17.2255 19.1622 16.6782 19.2173 15.8535C19.2173 14.974 18.4999 14.2583 17.6175 14.2583H8.3351C8.27316 14.2583 8.21122 14.2719 8.15479 14.2987L5.82783 15.3915V15.1382C5.82783 14.2859 5.13419 13.5927 4.28189 13.5927H1.97782C1.12552 13.5927 0.431885 14.2859 0.431885 15.1382V24.0011C0.431885 24.8534 1.12552 25.5466 1.97782 25.5466H4.28273C5.13504 25.5466 5.82867 24.8534 5.82867 24.0011V23.643L14.9711 26.4193C15.6859 26.6373 16.4844 26.5928 17.2158 26.2373L26.681 21.5918C26.6861 21.5893 26.6921 21.5863 26.6976 21.5833ZM4.28273 24.6981H1.97782C1.59346 24.6981 1.28037 24.3854 1.28037 24.0011V15.1378C1.28037 14.7534 1.59304 14.4408 1.97782 14.4408H4.28273C4.6671 14.4408 4.98019 14.7534 4.98019 15.1378C4.98019 15.0941 4.97595 15.6953 4.98019 24.0007C4.97976 24.385 4.6671 24.6981 4.28273 24.6981ZM26.2971 20.8354L16.8429 25.4753C16.3308 25.7239 15.7526 25.771 15.2176 25.6081L5.82825 22.7563V16.3287L8.43013 15.1064H17.6179C18.0324 15.1064 18.3693 15.4416 18.3697 15.8242C18.3404 16.2595 18.1453 16.4916 17.7024 16.604L12.7209 18.0655C12.3607 18.1711 12.0964 18.4664 12.0315 18.8359C11.9666 19.2054 12.1134 19.5728 12.4155 19.7951L14.2372 21.1357C15.0907 21.7632 16.167 21.9664 17.1886 21.6945L25.8236 19.3963C26.1643 19.3297 26.4935 19.4922 26.6365 19.7667C26.8932 20.3848 26.5381 20.7 26.2971 20.8354Z" fill="#ECF2FA"/>
<path d="M26.2971 20.8354L16.8429 25.4753C16.3308 25.7239 15.7526 25.771 15.2176 25.6081L5.82825 22.7563V16.3287L8.43013 15.1064H17.6179C18.0324 15.1064 18.3693 15.4416 18.3697 15.8242C18.3404 16.2595 18.1453 16.4916 17.7024 16.604L12.7209 18.0655C12.3607 18.1711 12.0964 18.4664 12.0315 18.8359C11.9666 19.2054 12.1134 19.5728 12.4155 19.7951L14.2372 21.1357C15.0907 21.7632 16.167 21.9664 17.1886 21.6945L25.8236 19.3963C26.1643 19.3297 26.4935 19.4922 26.6365 19.7667C26.8932 20.3848 26.5381 20.7 26.2971 20.8354Z" fill="#ECF2FA"/>
<path d="M26.6976 21.5833C27.4952 21.1451 27.7786 20.3042 27.4052 19.4095C27.079 18.7744 26.3603 18.4274 25.6332 18.5699L16.9706 20.8753C16.1963 21.081 15.3843 20.927 14.7399 20.4527L12.9182 19.1125C12.8609 19.0705 12.8613 19.0141 12.8669 18.984C12.8724 18.9539 12.8915 18.9004 12.9593 18.8805L17.9259 17.4228C18.7036 17.2255 19.1622 16.6782 19.2173 15.8535C19.2173 14.974 18.4999 14.2583 17.6175 14.2583H8.3351C8.27316 14.2583 8.21122 14.2719 8.15479 14.2987L5.82782 15.3915V15.1382C5.82782 14.2859 5.13419 13.5927 4.28189 13.5927H1.97782C1.12552 13.5927 0.431885 14.2859 0.431885 15.1382V24.0011C0.431885 24.8534 1.12552 25.5466 1.97782 25.5466H4.28273C5.13504 25.5466 5.82867 24.8534 5.82867 24.0011V23.643L14.9711 26.4193C15.6859 26.6373 16.4844 26.5928 17.2158 26.2373L26.681 21.5918C26.6861 21.5893 26.6921 21.5863 26.6976 21.5833ZM4.28273 24.6981H1.97782C1.59346 24.6981 1.28037 24.3854 1.28037 24.0011V15.1378C1.28037 14.7534 1.59304 14.4408 1.97782 14.4408H4.28273C4.6671 14.4408 4.98019 14.7534 4.98019 15.1378C4.98019 15.0941 4.97595 15.6953 4.98019 24.0007C4.97976 24.385 4.6671 24.6981 4.28273 24.6981ZM26.2971 20.8354L16.8429 25.4753C16.3308 25.7239 15.7526 25.771 15.2176 25.6081L5.82825 22.7563V16.3287L8.43013 15.1064H17.6179C18.0324 15.1064 18.3693 15.4416 18.3697 15.8242C18.3404 16.2595 18.1453 16.4916 17.7024 16.604L12.7209 18.0655C12.3607 18.1711 12.0964 18.4664 12.0315 18.8359C11.9666 19.2054 12.1134 19.5728 12.4155 19.7951L14.2372 21.1357C15.0907 21.7632 16.167 21.9664 17.1886 21.6945L25.8236 19.3963C26.1643 19.3297 26.4935 19.4922 26.6365 19.7667C26.8932 20.3848 26.5381 20.7 26.2971 20.8354Z" fill="#002F6D"/>
<path d="M21.9385 11.2144C21.6101 11.2144 21.3429 10.9471 21.3429 10.6188C21.3429 10.3846 21.1532 10.1945 20.9186 10.1945C20.684 10.1945 20.4944 10.3846 20.4944 10.6188C20.4944 11.2666 20.9258 11.8096 21.5143 11.992V12.1125C21.5143 12.3467 21.7039 12.5368 21.9385 12.5368C22.1731 12.5368 22.3627 12.3467 22.3627 12.1125V11.9925C22.9529 11.81 23.3856 11.267 23.3856 10.6188C23.3856 9.82246 22.7365 9.17422 21.9385 9.17422C21.6101 9.17422 21.3429 8.90695 21.3429 8.57858C21.3429 8.25022 21.6101 7.98295 21.9385 7.98295C22.2686 7.98295 22.5371 8.25022 22.5371 8.57858C22.5371 8.81277 22.7267 9.00283 22.9614 9.00283C23.196 9.00283 23.3856 8.81277 23.3856 8.57858C23.3856 7.93077 22.9529 7.38731 22.3627 7.20489V7.08483C22.3627 6.85064 22.1731 6.66058 21.9385 6.66058C21.7039 6.66058 21.5143 6.85064 21.5143 7.08483V7.20531C20.9258 7.38773 20.4944 7.93077 20.4944 8.57858C20.4944 9.37489 21.1422 10.0227 21.9385 10.0227C22.2686 10.0227 22.5371 10.29 22.5371 10.6188C22.5371 10.9476 22.2686 11.2144 21.9385 11.2144Z" fill="#FF3C1F"/>
<path d="M17.5247 9.5985C17.5247 12.0328 19.5054 14.0136 21.9397 14.0136C24.3741 14.0136 26.3544 12.0332 26.3544 9.5985C26.3544 7.1642 24.3741 5.18384 21.9397 5.18384C19.5054 5.18384 17.5247 7.1642 17.5247 9.5985ZM21.9402 6.03232C23.9065 6.03232 25.5064 7.63214 25.5064 9.5985C25.5064 11.5649 23.9065 13.1651 21.9402 13.1651C19.9734 13.1651 18.3736 11.5653 18.3736 9.5985C18.3736 7.63172 19.9734 6.03232 21.9402 6.03232Z" fill="#FF3C1F"/>
<path d="M11.0655 3.34899V3.46947C10.4771 3.6519 10.0457 4.19493 10.0457 4.84274C10.0457 5.63905 10.6935 6.28729 11.4898 6.28729C11.8194 6.28729 12.088 6.55456 12.088 6.88293C12.088 7.21129 11.8194 7.47856 11.4898 7.47856C11.1614 7.47856 10.8941 7.21129 10.8941 6.88293C10.8941 6.64874 10.7045 6.45868 10.4699 6.45868C10.2353 6.45868 10.0457 6.64874 10.0457 6.88293C10.0457 7.53074 10.4771 8.07377 11.0655 8.2562V8.37668C11.0655 8.61086 11.2552 8.80093 11.4898 8.80093C11.7244 8.80093 11.914 8.61086 11.914 8.37668V8.25662C12.5037 8.0742 12.9364 7.53117 12.9364 6.88293C12.9364 6.08662 12.2874 5.4388 11.4898 5.4388C11.1614 5.4388 10.8941 5.17153 10.8941 4.84274C10.8941 4.51396 11.1614 4.24711 11.4898 4.24711C11.8194 4.24711 12.088 4.51438 12.088 4.84274C12.088 5.07693 12.2776 5.26699 12.5122 5.26699C12.7468 5.26699 12.9364 5.07693 12.9364 4.84274C12.9364 4.19493 12.5037 3.65147 11.914 3.46905V3.34899C11.914 3.1148 11.7244 2.92474 11.4898 2.92474C11.2552 2.92474 11.0655 3.1148 11.0655 3.34899Z" fill="#002F6D"/>
<path d="M7.07593 5.8626C7.07593 8.29691 9.05629 10.2777 11.4906 10.2777C13.9249 10.2777 15.9053 8.29733 15.9053 5.8626C15.9053 3.4283 13.9249 1.44794 11.4906 1.44794C9.05629 1.44794 7.07593 3.4283 7.07593 5.8626ZM15.0572 5.8626C15.0572 7.82897 13.4574 9.42921 11.491 9.42921C9.52465 9.42921 7.92484 7.82939 7.92484 5.8626C7.92484 3.89582 9.52465 2.29642 11.491 2.29642C13.4574 2.29642 15.0572 3.89624 15.0572 5.8626Z" fill="#002F6D"/>
<path d="M3.64934 22.215C3.41473 22.215 3.2251 22.4051 3.2251 22.6393V23.2218C3.2251 23.4559 3.41473 23.646 3.64934 23.646C3.88395 23.646 4.07358 23.4559 4.07358 23.2218V22.6393C4.07358 22.4047 3.88395 22.215 3.64934 22.215Z" fill="#002F6D"/>
</svg>
