<svg width="206" height="63" viewBox="0 0 206 63" fill="none" xmlns="http://www.w3.org/2000/svg">
<g clip-path="url(#clip0_1_163)">
<path d="M23.2934 33.1334C21.5913 31.9628 19.8013 30.9237 17.9393 30.0254C17.5509 29.8032 17.1191 29.6666 16.673 29.6248C16.227 29.5829 15.7771 29.6368 15.3538 29.7827C15.3975 29.9087 15.4181 30.0415 15.4148 30.1747C15.4148 31.0614 15.4148 31.948 15.4523 32.8347C15.5133 35.77 15.5415 38.7054 15.6447 41.636C15.7573 44.7954 16.8366 47.67 18.432 50.3674C19.3705 51.9774 20.7783 53.1674 22.186 54.3714C23.0307 55.0947 24.8232 56.0467 26.3764 56.784C23.5938 49.266 22.6834 41.0947 23.2934 33.1334Z" fill="url(#paint0_linear_1_163)"/>
<path d="M26.3765 56.7747C27.2582 57.2083 28.1655 57.5886 29.0934 57.9133C29.45 57.9927 29.6847 57.9973 29.8489 57.5727C29.328 56.8213 29.2483 55.9067 29.1356 55.006C28.6729 51.3633 28.5472 47.6861 28.7602 44.0206C28.8916 41.916 29.0371 39.8207 29.1685 37.7113C29.2013 37.2073 29.2389 36.7033 29.2717 36.1993C27.193 35.532 25.2268 34.3327 23.317 33.124C22.6835 41.0947 23.5938 49.266 26.3765 56.7747Z" fill="url(#paint1_linear_1_163)"/>
<path opacity="0.54" d="M15.3538 29.7733C15.3806 29.847 15.3979 29.9239 15.4054 30.0019C15.4113 30.0999 15.4113 30.198 15.4054 30.296V31.3879C15.4054 31.3879 16.3908 30.4173 18.662 31.71C20.9331 33.0026 26.2826 36.2553 27.3712 37.7206C28.0645 38.6777 28.5867 39.7465 28.915 40.8799L29.2764 35.3826L22.4582 30.0159L17.5921 28.0793L15.9685 28.4013L15.3538 29.7733Z" fill="url(#paint2_linear_1_163)"/>
<path d="M29.1731 28.1074C28.6636 26.0281 27.8744 24.0268 26.8269 22.1574C26.5916 21.6932 26.2984 21.2604 25.9541 20.8694C24.688 19.4463 23.2194 18.2153 21.5948 17.2154C19.3611 15.8714 16.8554 15.3814 14.3261 15.022C11.8643 14.6485 9.37236 14.5079 6.88383 14.602C4.83791 14.7 2.77321 14.532 0.595902 14.4807C0.569677 14.8458 0.569677 15.2123 0.595902 15.5774C1.0147 17.903 1.89181 20.1234 3.17677 22.1107C4.35458 24.0147 6.13303 25.2793 7.91618 26.5347C9.04361 27.3373 10.3027 27.9389 11.6373 28.3127C12.7025 28.6067 13.7349 29.0127 14.7954 29.3207C14.9228 29.3452 15.0421 29.4007 15.1428 29.4821C15.2435 29.5635 15.3224 29.6683 15.3725 29.7873C15.7959 29.6414 16.2458 29.5875 16.6918 29.6294C17.1379 29.6713 17.5697 29.8079 17.9581 30.03C21.5807 31.6074 25.2033 34.9067 29.267 36.2134C29.3139 35.5274 29.3561 34.846 29.3608 34.16C29.3608 32.5127 29.3233 30.8607 29.2857 29.2087C29.2846 28.8388 29.2469 28.4699 29.1731 28.1074ZM28.3426 32.5173C28.1893 32.2877 28.0499 32.0493 27.9249 31.8033C27.0572 29.8447 25.9304 28.0101 24.5745 26.348C22.3127 23.408 19.3471 21.49 15.9356 20.1647C14.89 19.7665 13.7616 19.6318 12.6509 19.7727C11.9095 19.852 11.4215 20.1367 11.4121 20.5287C11.4121 21.14 11.8813 21.35 12.3506 21.518C13.0638 21.784 13.8052 21.9847 14.5326 22.218C15.0441 22.386 15.6259 22.4047 16.006 22.9274C15.7761 23.2914 15.4242 23.254 15.1051 23.268C12.5326 23.4013 9.99145 22.6571 7.9021 21.1587C6.40672 20.0823 5.03177 18.8495 3.80087 17.4813C3.13454 16.7673 2.44943 16.0814 1.62825 15.2134C2.44943 15.2974 3.03599 15.386 3.66948 15.414C5.11007 15.4793 6.55536 15.5773 7.99595 15.5447C11.5667 15.4304 15.1328 15.8858 18.5587 16.8934C21.2445 17.6829 23.5984 19.3211 25.2643 21.56C27.038 23.968 28.3332 26.7213 28.3238 29.862C28.3379 30.6927 28.3426 31.514 28.3426 32.5173Z" fill="url(#paint3_linear_1_163)"/>
<path d="M29.1732 28.1073C28.6636 26.0281 27.8744 24.0267 26.8269 22.1573C26.5917 21.6931 26.2984 21.2604 25.9541 20.8693C24.6881 19.4463 23.2194 18.2152 21.5948 17.2153C19.3612 15.8713 16.8554 15.3813 14.3261 15.022C11.8643 14.6485 9.3724 14.5078 6.88387 14.602C4.83795 14.7 2.61841 14.252 0.436401 14.2006C0.458649 14.6628 0.513529 15.1228 0.600638 15.5773C1.01943 17.903 1.89655 20.1233 3.1815 22.1106C4.35932 24.0146 6.13777 25.2793 7.92091 26.5346C9.04834 27.3372 10.3075 27.9388 11.642 28.3126C12.7072 28.6066 13.7396 29.0126 14.8001 29.3206C14.9275 29.3452 15.0468 29.4006 15.1475 29.482C15.2482 29.5634 15.3271 29.6683 15.3773 29.7873C15.8006 29.6413 16.2505 29.5875 16.6966 29.6293C17.1426 29.6712 17.5744 29.8078 17.9628 30.03C21.5854 31.6073 25.208 34.9066 29.2717 36.2133C29.3186 35.5273 29.3609 34.846 29.3656 34.16C29.3656 32.5126 29.328 30.8606 29.2905 29.2086C29.2878 28.8386 29.2485 28.4697 29.1732 28.1073Z" fill="url(#paint4_linear_1_163)"/>
<path d="M1.71273 14.8447C1.71273 14.8447 1.38895 18.396 5.93597 21.2987C10.2108 24.0334 15.9967 26.4647 17.2965 25.172C18.5963 23.8794 16.6489 23.2354 19.5676 23.562C22.4864 23.8887 26.414 26.4647 29.3374 31.962C29.3374 31.962 28.657 27.762 28.3285 27.4447C28 27.1274 24.4337 21.308 24.4337 21.308C24.4337 21.308 19.5676 17.4347 18.9201 17.4347C18.2725 17.4347 9.83073 15.5027 8.85938 15.5027C7.88804 15.5027 1.71273 14.8447 1.71273 14.8447Z" fill="url(#paint5_linear_1_163)"/>
<path d="M0.412964 14.2006C0.420052 14.2764 0.434192 14.3514 0.455198 14.4246C0.544355 14.7513 1.0793 15.582 4.09187 17.8313C6.57889 19.698 7.51269 21.4526 12.0972 22.5913C15.992 23.562 17.2918 22.5913 16.6443 22.2693C15.9967 21.9473 12.7495 21.6253 12.0972 20.9766C11.445 20.328 11.4497 19.362 12.7495 19.362C14.0493 19.362 17.6156 20.0106 21.196 22.5913C23.1018 23.9719 24.843 25.5642 26.3859 27.3373C26.3859 27.3373 22.1626 20.3373 21.5198 20.0106C20.8769 19.684 16.3158 17.1033 15.016 16.8C13.7162 16.4966 10.1452 16.478 8.85005 16.156C7.55492 15.834 0.412964 14.2006 0.412964 14.2006Z" fill="#2F2975"/>
<path d="M26.0527 21C24.4114 18.791 22.1552 17.1085 19.563 16.1607C16.2032 14.9053 11.7735 14.546 8.20249 14.224C6.23634 14.0467 1.23415 14.308 0.412964 14.224C1.23415 15.078 3.0126 16.1607 4.30773 17.1267C5.79055 18.2 7.03875 19.46 8.5685 20.5333C10.658 22.0314 13.199 22.7755 15.7715 22.6427C16.0952 22.6427 16.4425 22.6427 16.6724 22.2973C16.2923 21.7747 15.7339 21.756 15.199 21.5927C14.4716 21.3593 13.7349 21.154 13.017 20.888C12.5477 20.72 12.0785 20.5147 12.0785 19.9033C12.0785 19.5113 12.5759 19.2267 13.322 19.1473C14.4326 19.0037 15.5618 19.1385 16.6067 19.5393C20.0229 20.86 22.9838 22.778 25.2503 25.718C26.5642 27.4307 29.1638 31.6447 29.3562 31.9713C29.3562 30.968 29.3187 30.212 29.3234 29.3907C29.3093 26.2267 27.8264 23.3847 26.0527 21Z" fill="url(#paint6_linear_1_163)"/>
<path d="M23.2935 0.32196C22.3349 0.322368 21.3868 0.51944 20.5083 0.90085C19.6299 1.28226 18.84 1.83981 18.188 2.53863C18.8203 3.90738 19.731 5.13091 20.8628 6.13197C23.2606 8.04063 27.0756 9.76729 30.0835 8.84795C30.2059 8.32778 30.2689 7.79552 30.2712 7.26129C30.2712 6.35001 30.0907 5.44765 29.74 4.60573C29.3894 3.76381 28.8754 2.99882 28.2275 2.35444C27.5795 1.71006 26.8103 1.19891 25.9637 0.850179C25.1172 0.501445 24.2098 0.32196 23.2935 0.32196Z" fill="url(#paint7_linear_1_163)"/>
<path d="M20.8628 6.13197C19.7311 5.13092 18.8203 3.90739 18.1881 2.53864C17.4631 3.31637 16.9272 4.2491 16.6215 5.26509C16.3158 6.28108 16.2485 7.35327 16.4248 8.39918C16.601 9.4451 17.0161 10.4369 17.6382 11.2982C18.2602 12.1596 19.0726 12.8676 20.0129 13.3678C20.9532 13.868 21.9963 14.1471 23.0621 14.1836C24.1278 14.2201 25.1877 14.013 26.1604 13.5782C27.133 13.1435 27.9925 12.4927 28.6726 11.6759C29.3527 10.8591 29.8354 9.89802 30.0835 8.86663C27.0756 9.7673 23.2606 8.04064 20.8628 6.13197Z" fill="url(#paint8_linear_1_163)"/>
<path d="M44.4237 48.8927L44.3017 49.0281C43.4008 48.9721 42.0118 48.9487 40.1348 48.9487C38.2578 48.9487 36.8829 48.9721 35.9866 49.0281L35.8646 48.8927V47.9967L36.0007 47.8614C36.5285 47.8467 37.0549 47.8015 37.5774 47.7261C37.6984 47.7041 37.8092 47.6443 37.8936 47.5553C37.978 47.4663 38.0316 47.3528 38.0466 47.2314C38.2032 45.8528 38.2628 44.465 38.2249 43.0781V35.9894C38.263 34.6025 38.2034 33.2147 38.0466 31.8361C38.0305 31.7146 37.9766 31.6012 37.8924 31.5116C37.8083 31.4221 37.6982 31.361 37.5774 31.3367C37.0544 31.2668 36.5281 31.2232 36.0007 31.2061L35.8646 31.0707V30.1607L36.0007 30.0394C36.861 30.0923 38.2437 30.1187 40.1489 30.1187C42.054 30.1187 43.4336 30.0923 44.2876 30.0394L44.4237 30.1607V31.0707L44.2876 31.2061C43.7602 31.2227 43.2339 31.2663 42.711 31.3367C42.5905 31.3616 42.4807 31.423 42.3967 31.5124C42.3127 31.6018 42.2585 31.7148 42.2417 31.8361C42.0874 33.2149 42.0294 34.6026 42.0681 35.9894V43.0781C42.0295 44.4648 42.0875 45.8526 42.2417 47.2314C42.2574 47.3526 42.3113 47.4657 42.3956 47.5545C42.4798 47.6434 42.5903 47.7034 42.711 47.7261C43.2334 47.8021 43.7599 47.8473 44.2876 47.8614L44.4237 47.9967V48.8927Z" fill="#6971A8"/>
<path d="M74.0427 48.8927L73.9113 49.0281C73.0197 48.9721 71.6354 48.9487 69.7585 48.9487C67.8815 48.9487 66.4737 48.9721 65.6103 49.0281L65.4883 48.9067V47.9967L65.6244 47.8614C66.1521 47.8467 66.6786 47.8015 67.2011 47.7261C67.3221 47.7041 67.4329 47.6443 67.5173 47.5553C67.6017 47.4663 67.6553 47.3528 67.6703 47.2314C67.8269 45.8528 67.8865 44.465 67.8486 43.0781V34.0201L64.8266 40.1334C64.6577 40.4741 64.0712 41.7247 63.0764 43.8667L60.6081 49.2287H59.7072C59.2379 48.1181 58.6044 46.7181 57.8067 45.0287L55.9297 41.0481L52.401 33.7447V43.0454C52.3624 44.4322 52.4204 45.8199 52.5746 47.1987C52.5896 47.3202 52.6432 47.4336 52.7276 47.5226C52.812 47.6116 52.9228 47.6714 53.0438 47.6934C53.5662 47.7694 54.0927 47.8146 54.6205 47.8287L54.7519 47.9641V48.8741L54.6205 48.9954C53.5835 48.9394 52.6262 48.9161 51.7346 48.9161C50.7023 48.9161 49.6652 48.9394 48.6235 48.9954L48.4874 48.8741V47.9641L48.6235 47.8287C49.1513 47.814 49.6777 47.7688 50.2002 47.6934C50.3212 47.6714 50.432 47.6116 50.5164 47.5226C50.6008 47.4336 50.6544 47.3202 50.6694 47.1987C50.826 45.8201 50.8856 44.4323 50.8477 43.0454V35.9894C50.8858 34.6025 50.8262 33.2147 50.6694 31.8361C50.6533 31.7146 50.5994 31.6012 50.5152 31.5116C50.4311 31.4221 50.321 31.361 50.2002 31.3367C49.6772 31.2668 49.1509 31.2232 48.6235 31.2061L48.4874 31.0707V30.1607L48.6235 30.0394C49.562 30.0907 50.7351 30.1187 52.1663 30.1187C53.2612 30.1187 54.2185 30.0923 55.0381 30.0394C55.3322 30.7145 55.753 31.6696 56.3004 32.9047L57.1638 34.7714L61.4528 43.6801L63.5128 39.5267L66.713 32.6667C67.0931 31.8501 67.4591 30.9774 67.8205 30.0394C68.834 30.0907 69.5191 30.1187 69.8664 30.1187C71.6261 30.1187 72.9775 30.0907 73.9113 30.0394L74.0427 30.1607V31.0941L73.9113 31.2154C73.3838 31.232 72.8576 31.2756 72.3346 31.3461C72.2141 31.3709 72.1044 31.4323 72.0203 31.5217C71.9363 31.6111 71.8822 31.7242 71.8654 31.8454C71.7111 33.2242 71.653 34.612 71.6918 35.9987V43.0874C71.6532 44.4742 71.7112 45.8619 71.8654 47.2407C71.8811 47.3619 71.9349 47.475 72.0192 47.5639C72.1035 47.6527 72.2139 47.7128 72.3346 47.7354C72.857 47.8114 73.3835 47.8566 73.9113 47.8707L74.0427 48.0061V48.8927Z" fill="#6971A8"/>
<path d="M92.6155 34.2114C92.6599 35.0262 92.5134 35.8403 92.1877 36.5893C91.862 37.3384 91.3659 38.002 90.7385 38.528C89.5422 39.5365 88.0225 40.086 86.4543 40.0774C85.9044 40.0754 85.3566 40.0112 84.8213 39.886C84.6936 39.551 84.5366 39.2277 84.3521 38.92L84.6336 38.626C84.9669 38.7433 85.3171 38.8064 85.6706 38.8127C86.0842 38.8288 86.4961 38.751 86.875 38.5852C87.2538 38.4195 87.5898 38.1701 87.8573 37.856C88.4494 37.0865 88.7426 36.1305 88.6832 35.1634C88.6832 32.6745 87.5539 31.43 85.2952 31.43C84.7531 31.4539 84.2127 31.5068 83.6763 31.5887C83.5919 31.8034 83.5543 33.2687 83.5543 35.98V43.078C83.5159 44.4679 83.5739 45.8588 83.728 47.2407C83.7443 47.3616 83.7984 47.4743 83.8826 47.5631C83.9668 47.6518 84.0768 47.7121 84.1972 47.7354C84.277 47.7354 84.8964 47.796 86.046 47.8707L86.1962 48.0154V48.902L86.0601 49.0373C84.826 48.9813 83.3526 48.958 81.6351 48.958C79.6971 48.958 78.3128 48.9813 77.4776 49.0373L77.3415 48.916V48.0154L77.4916 47.8707C78.0146 47.8534 78.5362 47.8082 79.0542 47.7354C79.1746 47.7121 79.2847 47.6518 79.3688 47.5631C79.453 47.4743 79.5071 47.3616 79.5235 47.2407C79.6776 45.8588 79.7356 44.4679 79.6971 43.078V35.9707C79.7357 34.5808 79.6777 33.1899 79.5235 31.808C79.5078 31.6869 79.4539 31.5738 79.3696 31.4849C79.2854 31.396 79.175 31.336 79.0542 31.3134C78.5318 31.2376 78.0053 31.1925 77.4776 31.178L77.3415 31.0287V30.142L77.4916 30.0114C78.3738 30.0642 79.7268 30.0907 81.5506 30.0907C82.3077 30.0907 83.4026 30.0767 84.8354 30.0487C86.2431 30.0207 87.0784 30.0114 87.2942 30.0114C89.7594 30.0114 91.3611 30.6336 92.0993 31.878C92.4756 32.5968 92.6537 33.4019 92.6155 34.2114Z" fill="#6971A8"/>
<path d="M111.681 48.8927L111.559 49.0281C109.565 48.9721 108.359 48.9487 107.946 48.9487C106.289 48.9487 104.75 48.9721 103.328 49.0281L103.206 48.8927V48.0667L103.343 47.9174L104.516 47.8521C105.013 47.8241 105.257 47.6514 105.257 47.3294C105.188 46.8948 105.062 46.4711 104.882 46.0694L103.788 43.2367C102.537 43.2181 101.268 43.2087 99.9827 43.2087C99.2789 43.2087 98.2356 43.2181 96.8528 43.2367L96.2569 44.8747C95.9397 45.6232 95.7128 46.4064 95.5812 47.2081C95.5812 47.5503 95.7924 47.7509 96.2147 47.8101C96.4493 47.8474 96.9092 47.8847 97.5943 47.9174L97.7303 48.0527V48.9114L97.5943 49.0467C95.9284 48.9907 94.8585 48.9674 94.3799 48.9674C94.0139 48.9674 93.0989 48.9907 91.6395 49.0467L91.5081 48.9254V48.0527L91.6536 47.9174C92.5921 47.8661 93.1505 47.6841 93.3616 47.3667C93.5728 47.0494 94.3658 45.1921 95.7454 41.7667L99.2648 33.0027L100.419 29.9134H102.338L109.504 46.6667C109.785 47.3014 110.034 47.6607 110.259 47.74C110.675 47.8625 111.107 47.9161 111.54 47.8987L111.662 48.0481L111.681 48.8927ZM103.108 41.6734L100.217 34.6407L97.4535 41.6734C98.1886 41.7014 99.1459 41.7154 100.325 41.7154C101.47 41.7154 102.395 41.7014 103.108 41.6734Z" fill="#6971A8"/>
<path d="M129.574 46.5967L128.949 47.9687C126.995 49.0189 124.803 49.5539 122.582 49.5226C117.889 49.5226 114.676 47.8411 112.943 44.478C112.142 42.9115 111.73 41.1768 111.742 39.4193C111.742 36.4824 112.723 34.1491 114.684 32.4193C116.693 30.618 119.433 29.7173 122.906 29.7173C125.116 29.72 127.308 30.1249 129.372 30.912L129.545 31.1173C129.213 32.5403 129.023 33.9925 128.978 35.4527L128.856 35.5833H128.058L127.926 35.4387C127.924 34.6834 127.874 33.929 127.776 33.18C126.65 31.9044 125.027 31.2667 122.906 31.2667C120.716 31.2667 118.995 31.9558 117.744 33.334C116.492 34.7122 115.867 36.5789 115.867 38.934C115.867 42.1322 116.974 44.5838 119.189 46.2887C120.365 47.2033 121.944 47.6591 123.924 47.656C125.774 47.6393 127.59 47.1577 129.203 46.256L129.574 46.5967Z" fill="#6971A8"/>
<path d="M149.282 30.0907C149.173 30.7699 149.115 31.4562 149.108 32.144L149.08 34.384L148.944 34.5193H148.095L147.949 34.398C147.942 33.7251 147.892 33.0533 147.799 32.3867C147.738 32.2057 147.622 32.0479 147.468 31.9344C147.313 31.8209 147.128 31.7573 146.936 31.752C146.753 31.7287 145.908 31.7147 144.397 31.7147H142.59C142.572 32.0258 142.562 33.2702 142.562 35.448V43.0733C142.524 44.4632 142.582 45.8541 142.736 47.236C142.752 47.3569 142.806 47.4696 142.891 47.5584C142.975 47.6471 143.085 47.7074 143.205 47.7307C143.73 47.8036 144.257 47.8487 144.787 47.866L144.918 48.0013V48.8973L144.787 49.0327C143.895 48.9767 142.506 48.9533 140.629 48.9533C138.752 48.9533 137.316 48.9767 136.471 49.0327L136.349 48.9113V48.0013L136.486 47.866C137.013 47.8489 137.539 47.8037 138.062 47.7307C138.183 47.7074 138.293 47.6471 138.377 47.5584C138.461 47.4696 138.515 47.3569 138.531 47.236C138.686 45.8541 138.744 44.4632 138.705 43.0733V35.4667C138.705 33.2593 138.705 32.0133 138.668 31.7333H136.739C135.798 31.687 134.855 31.7355 133.923 31.878C133.806 31.9155 133.704 31.987 133.628 32.0833C133.515 32.3572 133.447 32.647 133.426 32.942C133.365 33.4087 133.323 33.9033 133.304 34.4027L133.168 34.538H132.319L132.173 34.4027L132.145 32.1067C132.133 31.4381 132.078 30.771 131.981 30.1093L132.103 29.974C132.631 30.0642 134.566 30.1093 137.907 30.1093H143.374C146.452 30.1093 148.386 30.0642 149.174 29.974L149.282 30.0907Z" fill="#6971A8"/>
<path d="M165.645 30.1187L165.471 31.6447C165.434 31.9853 165.391 32.4333 165.349 32.9887L165.265 34.062L165.133 34.2113H164.35L164.237 34.0667C164.237 32.858 164.148 32.172 164.021 31.9994C163.815 31.724 162.557 31.584 160.267 31.584C159.896 31.584 159.329 31.612 158.526 31.6634C158.423 32.5967 158.376 34.216 158.376 36.5773V38.388L159.901 38.43C160.37 38.43 161.21 38.43 162.454 38.374C162.542 38.3801 162.631 38.3651 162.713 38.3302C162.794 38.2953 162.867 38.2415 162.923 38.1733C163.119 37.6034 163.202 37.0012 163.167 36.4L163.303 36.2693H164.138L164.274 36.4C164.237 37.4049 164.218 38.3227 164.218 39.1533C164.218 40.0587 164.237 41.048 164.274 42.1214L164.138 42.2427H163.233L163.097 42.1074C163.134 41.5539 163.095 40.998 162.979 40.4553C162.824 40.1427 162.36 39.956 161.572 39.8907C161.041 39.8487 160.52 39.8253 160.009 39.8253C159.385 39.8253 158.831 39.8254 158.348 39.8627V43.0593C158.31 44.4492 158.368 45.84 158.521 47.222C158.538 47.3429 158.592 47.4557 158.676 47.5444C158.76 47.6331 158.87 47.6934 158.991 47.7167C159.056 47.7167 159.699 47.7774 160.919 47.852L161.055 47.9873V48.8833L160.91 49.0187L155.481 48.9393C154.708 48.9393 153.638 48.9658 152.271 49.0187L152.135 48.8973V47.9873L152.271 47.852C152.799 47.8349 153.325 47.7897 153.848 47.7167C153.968 47.694 154.079 47.634 154.163 47.5451C154.247 47.4563 154.301 47.3432 154.317 47.222C154.47 45.84 154.528 44.4492 154.491 43.0593V35.9707C154.529 34.5808 154.471 33.19 154.317 31.808C154.302 31.6866 154.248 31.5731 154.164 31.4841C154.08 31.3952 153.969 31.3353 153.848 31.3134C153.325 31.2376 152.799 31.1924 152.271 31.178L152.135 31.0427V30.1093L152.271 29.9927C153.135 30.0456 154.52 30.072 156.429 30.072C157.658 30.072 160.689 30.0456 165.523 29.9927L165.645 30.1187Z" fill="#6971A8"/>
<path d="M188.436 31.0427L188.3 31.178C187.239 31.178 186.639 31.458 186.503 32.0227C186.399 32.6976 186.346 33.3792 186.343 34.062C186.315 34.8398 186.301 35.9629 186.301 37.4313V41.566C186.301 44.2229 185.775 46.1191 184.724 47.2547C183.317 48.7573 181.341 49.5133 178.755 49.5133C176.4 49.5133 174.56 49.1229 173.237 48.342C172.705 48.0411 172.239 47.6389 171.864 47.1584C171.488 46.678 171.212 46.1287 171.05 45.542C170.835 44.7673 170.727 42.742 170.727 39.452V35.9893C170.765 34.5995 170.707 33.2086 170.553 31.8267C170.537 31.7055 170.483 31.5924 170.399 31.5036C170.315 31.4147 170.204 31.3547 170.084 31.332C169.561 31.2566 169.035 31.2114 168.507 31.1967L168.371 31.0613V30.1607L168.507 30.03C169.37 30.0829 170.755 30.1093 172.66 30.1093C174.565 30.1093 175.946 30.0829 176.803 30.03L176.939 30.1607V31.0613L176.803 31.1967C176.276 31.2114 175.749 31.2566 175.227 31.332C175.106 31.3547 174.996 31.4147 174.911 31.5036C174.827 31.5924 174.773 31.7055 174.757 31.8267C174.603 33.2086 174.545 34.5995 174.584 35.9893V38.7333C174.584 42.1182 174.74 44.1902 175.053 44.9493C175.679 46.452 177.187 47.2033 179.577 47.2033C181.149 47.2033 182.392 46.816 183.26 46.0507C183.626 45.7457 183.921 45.3651 184.124 44.9353C184.328 44.3731 184.456 43.7861 184.504 43.19C184.585 42.4492 184.626 41.7045 184.626 40.9593V38.1593C184.626 35.8167 184.616 34.216 184.598 33.3573C184.612 32.8282 184.557 32.2995 184.433 31.7847C184.388 31.6873 184.323 31.6003 184.242 31.5288C184.161 31.4574 184.067 31.4031 183.964 31.3693C183.419 31.2422 182.862 31.1749 182.303 31.1687L182.167 31.0333V30.1327L182.303 30.002C183.087 30.0533 183.889 30.0813 184.72 30.0813C185.345 30.0813 186.537 30.0549 188.295 30.002L188.431 30.1327L188.436 31.0427Z" fill="#6971A8"/>
<path d="M205.836 44.464C205.628 45.931 205.529 47.4112 205.54 48.8927L205.404 49.028L195.592 48.9487C193.954 48.9487 192.8 48.972 192.124 49.028L191.993 48.8927V48.5333L192.059 48.37C192.453 48.1571 192.816 47.8918 193.138 47.5813C193.264 46.9943 193.315 46.3937 193.288 45.794L193.326 42.7887V35.9707C193.364 34.5808 193.306 33.1899 193.152 31.808C193.136 31.6869 193.082 31.5737 192.998 31.4849C192.914 31.396 192.803 31.336 192.683 31.3134C192.16 31.2379 191.634 31.1927 191.106 31.178L190.97 31.0427V30.1093L191.106 29.9927C192.045 30.044 193.391 30.072 195.179 30.072C196.967 30.072 198.464 30.044 199.402 29.9927L199.538 30.1093V31.0427L199.402 31.164C198.875 31.1787 198.348 31.2239 197.826 31.2994C197.705 31.322 197.595 31.382 197.51 31.4709C197.426 31.5597 197.372 31.6729 197.356 31.794C197.202 33.1759 197.144 34.5668 197.183 35.9567V43.9787C197.183 45.1547 197.183 46.312 197.249 47.39H199.083C201.711 47.39 203.322 47.2874 203.917 47.082C204.001 47.0537 204.076 47.0019 204.132 46.9327C204.264 46.6822 204.35 46.4104 204.386 46.13L204.71 44.464L204.846 44.3147H205.672L205.836 44.464Z" fill="#6971A8"/>
<path d="M105.29 59.9246L106.294 59.8406C106.324 60.1892 106.439 60.5254 106.627 60.8206C106.829 61.103 107.11 61.3204 107.434 61.446C107.824 61.6055 108.242 61.6849 108.664 61.6793C109.03 61.6855 109.394 61.6254 109.738 61.502C110.013 61.4077 110.255 61.2358 110.433 61.0073C110.579 60.8101 110.658 60.5712 110.658 60.326C110.664 60.0886 110.588 59.8564 110.442 59.668C110.247 59.4517 109.998 59.2907 109.72 59.2013C109.25 59.0461 108.772 58.9168 108.288 58.814C107.754 58.703 107.234 58.5356 106.735 58.3146C106.389 58.1454 106.094 57.8877 105.881 57.568C105.693 57.2707 105.595 56.9254 105.6 56.574C105.599 56.1721 105.718 55.7791 105.942 55.4446C106.188 55.0822 106.541 54.8037 106.951 54.6466C107.419 54.4604 107.92 54.3684 108.424 54.376C108.964 54.3647 109.5 54.4615 110.001 54.6606C110.427 54.8292 110.792 55.122 111.048 55.5006C111.293 55.8768 111.429 56.3127 111.442 56.7606L110.423 56.8353C110.413 56.6175 110.359 56.4041 110.264 56.2076C110.168 56.0112 110.035 55.8358 109.87 55.692C109.459 55.4059 108.962 55.2691 108.462 55.3046C107.966 55.2622 107.47 55.3871 107.054 55.6593C106.919 55.7551 106.808 55.8817 106.731 56.0286C106.654 56.1755 106.614 56.3384 106.613 56.504C106.611 56.6373 106.637 56.7697 106.691 56.892C106.744 57.0144 106.823 57.124 106.923 57.2133C107.414 57.5084 107.96 57.702 108.528 57.7826C109.134 57.902 109.729 58.0722 110.306 58.2913C110.72 58.4631 111.077 58.7458 111.339 59.108C111.566 59.4422 111.684 59.8384 111.676 60.242C111.677 60.6697 111.547 61.0875 111.306 61.4413C111.049 61.8299 110.684 62.135 110.255 62.3186C109.768 62.5351 109.239 62.6434 108.706 62.636C108.082 62.6542 107.461 62.5463 106.881 62.3186C106.41 62.129 106.006 61.804 105.722 61.3853C105.441 60.9493 105.291 60.4425 105.29 59.9246Z" fill="#41A6DC"/>
<path d="M117.551 60.6294L118.574 60.7554C118.441 61.3021 118.125 61.7876 117.678 62.132C117.118 62.4963 116.452 62.6654 115.784 62.6131C115.117 62.5607 114.486 62.2898 113.99 61.8427C113.462 61.2367 113.195 60.4494 113.244 59.6494C113.19 58.8245 113.461 58.0111 113.999 57.3814C114.249 57.1152 114.554 56.9054 114.892 56.7662C115.23 56.6269 115.595 56.5614 115.961 56.574C116.317 56.5625 116.671 56.6274 117 56.7643C117.329 56.9012 117.624 57.1069 117.866 57.3674C118.392 57.9849 118.658 58.7809 118.607 59.5887C118.607 59.6494 118.607 59.7334 118.607 59.85H114.262C114.26 60.3855 114.452 60.9038 114.802 61.3107C114.958 61.4754 115.147 61.6058 115.357 61.6934C115.568 61.781 115.794 61.8239 116.022 61.8194C116.357 61.8299 116.687 61.7298 116.96 61.5347C117.243 61.2974 117.448 60.9825 117.551 60.6294ZM114.318 59.0427H117.565C117.553 58.6495 117.423 58.269 117.19 57.9507C117.045 57.7681 116.859 57.6216 116.648 57.5228C116.436 57.424 116.204 57.3755 115.97 57.3814C115.758 57.3787 115.548 57.4187 115.352 57.4989C115.156 57.5791 114.978 57.6978 114.83 57.848C114.515 58.1684 114.332 58.5948 114.318 59.0427Z" fill="#41A6DC"/>
<path d="M120.372 62.4913V56.7046H121.258V57.5306C121.459 57.2284 121.736 56.9833 122.061 56.8197C122.386 56.656 122.748 56.5794 123.112 56.5973C123.444 56.5949 123.773 56.66 124.079 56.7886C124.338 56.8902 124.565 57.0594 124.736 57.2786C124.887 57.498 124.992 57.7457 125.045 58.0066C125.091 58.3155 125.11 58.6278 125.102 58.9399V62.4959H124.111V58.9773C124.124 58.6745 124.086 58.3716 123.999 58.0813C123.918 57.8856 123.774 57.7217 123.591 57.6146C123.382 57.4918 123.143 57.4303 122.901 57.4373C122.502 57.4293 122.115 57.5709 121.817 57.8339C121.512 58.0999 121.348 58.5993 121.348 59.3413V62.5006L120.372 62.4913Z" fill="#41A6DC"/>
<path d="M127.166 55.6314V54.5067H128.152V55.6314H127.166ZM127.166 62.4914V56.7047H128.152V62.4914H127.166Z" fill="#41A6DC"/>
<path d="M129.86 59.598C129.824 59.1601 129.885 58.7197 130.04 58.3083C130.195 57.8968 130.44 57.5245 130.756 57.218C131.265 56.7861 131.917 56.5568 132.586 56.574C132.95 56.5608 133.313 56.6237 133.651 56.7588C133.988 56.8938 134.294 57.098 134.548 57.358C134.811 57.6506 135.014 57.9921 135.144 58.3629C135.275 58.7337 135.33 59.1265 135.308 59.5187C135.337 60.1219 135.221 60.7233 134.97 61.2733C134.754 61.6955 134.413 62.0422 133.994 62.2673C133.563 62.5043 133.078 62.6265 132.586 62.622C132.22 62.6372 131.855 62.5757 131.515 62.4414C131.175 62.3072 130.866 62.1031 130.611 61.8426C130.072 61.2224 129.802 60.4154 129.86 59.598ZM130.873 59.598C130.821 60.1916 130.988 60.7839 131.343 61.264C131.494 61.4387 131.682 61.5789 131.893 61.675C132.104 61.7711 132.333 61.8209 132.565 61.8209C132.797 61.8209 133.026 61.7711 133.237 61.675C133.448 61.5789 133.636 61.4387 133.787 61.264C134.145 60.7745 134.312 60.1725 134.257 59.57C134.303 58.99 134.136 58.413 133.787 57.946C133.635 57.7726 133.447 57.6337 133.236 57.5385C133.025 57.4433 132.797 57.394 132.565 57.394C132.333 57.394 132.105 57.4433 131.894 57.5385C131.683 57.6337 131.495 57.7726 131.343 57.946C130.991 58.4222 130.824 59.009 130.873 59.598Z" fill="#41A6DC"/>
<path d="M137.021 62.4914V56.7047H137.907V57.582C138.058 57.2706 138.272 56.994 138.536 56.77C138.72 56.6408 138.94 56.5723 139.165 56.574C139.526 56.5833 139.877 56.6933 140.179 56.8914L139.841 57.8014C139.623 57.6674 139.374 57.5948 139.118 57.5914C138.908 57.5886 138.703 57.656 138.536 57.7827C138.362 57.9202 138.234 58.1075 138.17 58.3194C138.059 58.6902 138.003 59.0756 138.006 59.4627V62.4914H137.021Z" fill="#41A6DC"/>
<path d="M145.162 62.4914V54.5067H146.222V57.7734H150.399V54.5067H151.459V62.4914H150.399V58.73H146.222V62.4914H145.162Z" fill="#41A6DC"/>
<path d="M153.299 59.598C153.263 59.1601 153.324 58.7197 153.479 58.3083C153.634 57.8968 153.879 57.5245 154.195 57.218C154.704 56.7861 155.356 56.5568 156.025 56.574C156.389 56.5608 156.752 56.6237 157.09 56.7588C157.427 56.8938 157.733 57.098 157.987 57.358C158.25 57.6506 158.453 57.9921 158.583 58.3629C158.714 58.7337 158.769 59.1265 158.747 59.5187C158.776 60.1219 158.66 60.7233 158.409 61.2733C158.193 61.6955 157.852 62.0422 157.433 62.2673C157.002 62.5043 156.517 62.6265 156.025 62.622C155.659 62.6378 155.294 62.5766 154.954 62.4423C154.613 62.308 154.305 62.1036 154.05 61.8426C153.511 61.2224 153.241 60.4154 153.299 59.598ZM154.312 59.598C154.262 60.1914 154.429 60.7829 154.782 61.264C154.932 61.4413 155.121 61.5831 155.333 61.6792C155.546 61.7752 155.778 61.8231 156.011 61.8193C156.244 61.8235 156.474 61.7752 156.685 61.6783C156.897 61.5813 157.083 61.4381 157.231 61.2593C157.589 60.7699 157.755 60.1679 157.7 59.5653C157.747 58.9854 157.58 58.4083 157.231 57.9413C157.082 57.7645 156.895 57.6229 156.684 57.5268C156.473 57.4307 156.243 57.3826 156.011 57.386C155.778 57.3823 155.547 57.4298 155.335 57.5249C155.122 57.6201 154.933 57.7607 154.782 57.9367C154.429 58.4163 154.263 59.0061 154.312 59.598Z" fill="#41A6DC"/>
<path d="M160.483 62.4914V56.7047H161.365V57.5167C161.55 57.2353 161.799 57.0017 162.092 56.8354C162.409 56.6586 162.767 56.5684 163.129 56.5741C163.502 56.5602 163.87 56.6543 164.19 56.8447C164.465 57.0191 164.671 57.283 164.772 57.5914C164.957 57.2816 165.22 57.0249 165.535 56.8466C165.85 56.6682 166.207 56.5743 166.569 56.5741C166.812 56.5561 167.055 56.5882 167.285 56.6686C167.514 56.7489 167.724 56.8756 167.902 57.0407C168.245 57.4493 168.413 57.9754 168.371 58.5061V62.4774H167.39V58.8467C167.403 58.5621 167.371 58.2772 167.296 58.0021C167.229 57.8273 167.105 57.6797 166.944 57.5821C166.766 57.4756 166.561 57.4222 166.353 57.4281C166.165 57.4229 165.977 57.4562 165.802 57.5261C165.627 57.5959 165.468 57.7007 165.335 57.8341C165.034 58.1971 164.89 58.663 164.931 59.1314V62.4914H163.946V58.7347C163.972 58.3905 163.887 58.0471 163.702 57.7547C163.608 57.64 163.486 57.5502 163.349 57.4932C163.211 57.4362 163.062 57.4138 162.914 57.4281C162.642 57.4257 162.375 57.5002 162.144 57.6427C161.906 57.7929 161.726 58.018 161.633 58.2821C161.509 58.6727 161.455 59.0817 161.473 59.4907V62.4914H160.483Z" fill="#41A6DC"/>
<path d="M174.354 60.6294L175.372 60.7554C175.241 61.3016 174.926 61.7871 174.481 62.1321C173.919 62.4959 173.253 62.6648 172.585 62.6124C171.917 62.5601 171.285 62.2895 170.788 61.8427C170.26 61.2367 169.992 60.4494 170.042 59.6494C169.998 58.8299 170.271 58.0248 170.806 57.4C171.057 57.1344 171.361 56.9249 171.699 56.7857C172.038 56.6465 172.402 56.5807 172.768 56.5927C173.124 56.5812 173.479 56.6461 173.807 56.783C174.136 56.9199 174.431 57.1255 174.673 57.386C175.201 58.0024 175.467 58.7992 175.414 59.6074C175.414 59.6681 175.414 59.752 175.414 59.8687H171.074C171.073 60.4048 171.267 60.9232 171.618 61.3294C171.773 61.4945 171.962 61.6251 172.171 61.7128C172.381 61.8004 172.606 61.8431 172.834 61.838C173.169 61.8493 173.5 61.7491 173.772 61.5534C174.054 61.3098 174.257 60.9881 174.354 60.6294ZM171.116 59.0427H174.363C174.353 58.65 174.223 58.2695 173.993 57.9507C173.847 57.7687 173.661 57.6225 173.45 57.5238C173.238 57.425 173.006 57.3763 172.773 57.3814C172.56 57.3786 172.349 57.4185 172.152 57.4987C171.956 57.5789 171.777 57.6977 171.628 57.848C171.313 58.1684 171.13 58.5948 171.116 59.0427Z" fill="#41A6DC"/>
<path d="M186.705 59.6913L187.77 59.9573C187.602 60.7351 187.177 61.4347 186.564 61.9453C185.959 62.413 185.209 62.6556 184.443 62.6313C183.702 62.6624 182.969 62.4792 182.331 62.1039C181.774 61.7321 181.342 61.2019 181.092 60.5826C180.808 59.904 180.665 59.1756 180.67 58.4406C180.65 57.6874 180.811 56.9402 181.139 56.2613C181.44 55.6672 181.917 55.1788 182.505 54.8613C183.103 54.5427 183.774 54.3821 184.452 54.3946C185.177 54.3688 185.889 54.5821 186.479 55.0013C187.041 55.4328 187.443 56.0365 187.624 56.7186L186.578 56.9659C186.447 56.4692 186.163 56.0254 185.766 55.6966C185.377 55.4198 184.907 55.2786 184.429 55.2953C183.878 55.2759 183.336 55.4312 182.88 55.7386C182.468 56.03 182.162 56.4457 182.007 56.9239C181.839 57.4184 181.753 57.9371 181.754 58.4593C181.75 59.0538 181.857 59.6439 182.068 60.1999C182.242 60.6736 182.573 61.0738 183.007 61.3339C183.416 61.5834 183.888 61.7143 184.368 61.7119C184.918 61.7269 185.456 61.5448 185.883 61.1986C186.32 60.8023 186.609 60.2713 186.705 59.6913Z" fill="#41A6DC"/>
<path d="M193.33 61.7774C193.017 62.0529 192.66 62.2752 192.275 62.4354C191.926 62.5626 191.557 62.6258 191.186 62.622C190.653 62.656 190.127 62.4894 189.712 62.1554C189.544 62.0053 189.411 61.8208 189.322 61.6145C189.233 61.4082 189.19 61.1851 189.196 60.9607C189.194 60.6899 189.261 60.423 189.393 60.186C189.516 59.961 189.689 59.7677 189.9 59.6214C190.119 59.4771 190.36 59.3684 190.613 59.2994C190.901 59.2325 191.192 59.1842 191.486 59.1547C192.083 59.1029 192.673 58.9887 193.246 58.814C193.246 58.6834 193.246 58.5947 193.246 58.562C193.262 58.4098 193.245 58.2559 193.198 58.1104C193.15 57.9649 193.072 57.831 192.969 57.7174C192.648 57.4714 192.247 57.3518 191.843 57.3814C191.483 57.356 191.125 57.4407 190.815 57.624C190.565 57.8489 190.4 58.1518 190.346 58.4827L189.379 58.352C189.446 57.9917 189.595 57.6515 189.816 57.358C190.043 57.0856 190.345 56.8833 190.684 56.7747C191.11 56.6312 191.557 56.5618 192.007 56.5694C192.418 56.5567 192.828 56.6168 193.218 56.7467C193.48 56.8324 193.716 56.9835 193.903 57.1854C194.058 57.3798 194.162 57.6089 194.208 57.8527C194.25 58.1525 194.268 58.4554 194.259 58.758V60.0647C194.244 60.641 194.264 61.2176 194.32 61.7914C194.364 62.0353 194.448 62.2704 194.569 62.4867H193.541C193.427 62.2654 193.356 62.0248 193.33 61.7774ZM193.246 59.5887C192.726 59.7736 192.185 59.8973 191.636 59.9574C191.343 59.989 191.055 60.0564 190.778 60.158C190.621 60.2213 190.486 60.3297 190.392 60.4694C190.297 60.6091 190.247 60.7737 190.247 60.942C190.241 61.0644 190.262 61.1867 190.308 61.3003C190.354 61.4139 190.425 61.5162 190.515 61.6C190.765 61.7891 191.075 61.8819 191.388 61.8614C191.741 61.8672 192.09 61.782 192.401 61.614C192.686 61.4612 192.914 61.2226 193.053 60.9327C193.177 60.6212 193.231 60.287 193.213 59.9527L193.246 59.5887Z" fill="#41A6DC"/>
<path d="M196.301 62.4914V56.7047H197.192V57.582C197.341 57.271 197.554 56.9944 197.816 56.77C198.002 56.6413 198.223 56.5728 198.45 56.574C198.811 56.5833 199.162 56.6933 199.463 56.8914L199.125 57.8013C198.906 57.6679 198.655 57.5954 198.398 57.5914C198.19 57.5896 197.987 57.6569 197.821 57.7827C197.644 57.9176 197.515 58.1058 197.455 58.3193C197.341 58.6897 197.285 59.0754 197.291 59.4627V62.4914H196.301Z" fill="#41A6DC"/>
<path d="M204.592 60.6294L205.611 60.7554C205.481 61.3024 205.166 61.7884 204.719 62.132C204.159 62.4963 203.493 62.6654 202.825 62.6131C202.158 62.5607 201.527 62.2898 201.031 61.8427C200.502 61.2371 200.233 60.4499 200.28 59.6494C200.228 58.8248 200.499 58.0123 201.035 57.3814C201.286 57.1157 201.59 56.9062 201.928 56.767C202.267 56.6278 202.631 56.562 202.997 56.574C203.354 56.5624 203.709 56.6273 204.038 56.7642C204.368 56.901 204.664 57.1067 204.907 57.3674C205.431 57.9856 205.695 58.7815 205.643 59.5887C205.643 59.6494 205.643 59.7334 205.643 59.85H201.308C201.304 60.3858 201.495 60.9049 201.847 61.3107C202.003 61.4753 202.191 61.6056 202.401 61.6933C202.61 61.7809 202.835 61.8238 203.063 61.8194C203.398 61.8288 203.728 61.7289 204.001 61.5347C204.282 61.296 204.487 60.9816 204.592 60.6294ZM201.354 59.0427H204.592C204.58 58.6495 204.449 58.269 204.217 57.9507C204.071 57.7686 203.886 57.6225 203.674 57.5238C203.462 57.425 203.231 57.3762 202.997 57.3814C202.784 57.3786 202.573 57.4185 202.377 57.4987C202.18 57.5789 202.001 57.6977 201.852 57.848C201.544 58.1718 201.367 58.5972 201.354 59.0427Z" fill="#41A6DC"/>
</g>
<defs>
<linearGradient id="paint0_linear_1_163" x1="15.3538" y1="43.19" x2="26.3764" y2="43.19" gradientUnits="userSpaceOnUse">
<stop stop-color="#7D328A"/>
<stop offset="0.16" stop-color="#664B99"/>
<stop offset="0.41" stop-color="#3D6DAE"/>
<stop offset="0.58" stop-color="#2681BA"/>
<stop offset="0.86" stop-color="#645293"/>
</linearGradient>
<linearGradient id="paint1_linear_1_163" x1="23.1152" y1="45.5373" x2="29.8254" y2="45.5373" gradientUnits="userSpaceOnUse">
<stop stop-color="#41B4E8"/>
<stop offset="0.2" stop-color="#4C94D0"/>
<stop offset="0.44" stop-color="#5773B6"/>
<stop offset="0.65" stop-color="#5E5EA7"/>
<stop offset="0.78" stop-color="#6157A1"/>
<stop offset="1" stop-color="#733E91"/>
</linearGradient>
<linearGradient id="paint2_linear_1_163" x1="15.3538" y1="34.4773" x2="29.2998" y2="34.4773" gradientUnits="userSpaceOnUse">
<stop stop-color="#782F88"/>
<stop offset="1" stop-color="#2D358C"/>
</linearGradient>
<linearGradient id="paint3_linear_1_163" x1="0.553669" y1="25.34" x2="29.3467" y2="25.34" gradientUnits="userSpaceOnUse">
<stop stop-color="#7D328A"/>
<stop offset="0.46" stop-color="#664B99"/>
<stop offset="1" stop-color="#645FA7"/>
</linearGradient>
<linearGradient id="paint4_linear_1_163" x1="0.412939" y1="25.2" x2="29.3468" y2="25.2" gradientUnits="userSpaceOnUse">
<stop stop-color="#7D328A"/>
<stop offset="0.46" stop-color="#664B99"/>
<stop offset="1" stop-color="#645FA7"/>
</linearGradient>
<linearGradient id="paint5_linear_1_163" x1="1.70804" y1="23.3987" x2="29.3327" y2="23.3987" gradientUnits="userSpaceOnUse">
<stop stop-color="#782F88"/>
<stop offset="1" stop-color="#2D358C"/>
</linearGradient>
<linearGradient id="paint6_linear_1_163" x1="19.6991" y1="26.46" x2="7.78703" y2="9.93356" gradientUnits="userSpaceOnUse">
<stop offset="0.15" stop-color="#41B4E8"/>
<stop offset="0.27" stop-color="#44ABE1"/>
<stop offset="0.46" stop-color="#4D91CD"/>
<stop offset="0.7" stop-color="#5B67AE"/>
<stop offset="0.78" stop-color="#6157A1"/>
<stop offset="1" stop-color="#733E91"/>
</linearGradient>
<linearGradient id="paint7_linear_1_163" x1="27.6152" y1="0.919294" x2="23.1523" y2="7.10736" gradientUnits="userSpaceOnUse">
<stop offset="0.15" stop-color="#41B4E8"/>
<stop offset="0.24" stop-color="#499DD6"/>
<stop offset="0.37" stop-color="#537EBF"/>
<stop offset="0.5" stop-color="#5B69AE"/>
<stop offset="0.63" stop-color="#5F5BA4"/>
<stop offset="0.74" stop-color="#6157A1"/>
<stop offset="1" stop-color="#733E91"/>
</linearGradient>
<linearGradient id="paint8_linear_1_163" x1="16.3158" y1="8.37197" x2="30.0835" y2="8.37197" gradientUnits="userSpaceOnUse">
<stop offset="0.15" stop-color="#41B4E8"/>
<stop offset="0.24" stop-color="#499DD6"/>
<stop offset="0.37" stop-color="#537EBF"/>
<stop offset="0.5" stop-color="#5B69AE"/>
<stop offset="0.63" stop-color="#5F5BA4"/>
<stop offset="0.74" stop-color="#6157A1"/>
<stop offset="1" stop-color="#733E91"/>
</linearGradient>
<clipPath id="clip0_1_163">
<rect width="206" height="63" fill="white"/>
</clipPath>
</defs>
</svg>
