<svg width="28" height="28" viewBox="0 0 28 28" fill="none" xmlns="http://www.w3.org/2000/svg">
<path fill-rule="evenodd" clip-rule="evenodd" d="M26.7063 1.84929C26.6713 1.73751 26.6095 1.63231 26.521 1.54375C26.3763 1.39906 26.1872 1.32585 25.9975 1.32411C25.9952 1.32409 25.9929 1.32408 25.9906 1.32408C25.9906 1.32408 25.9906 1.32408 25.9906 1.32408H18.0549C17.6407 1.32408 17.3049 1.65987 17.3049 2.07408C17.3049 2.48829 17.6407 2.82408 18.0549 2.82408H24.18L13.5344 13.4697C13.2415 13.7626 13.2415 14.2374 13.5344 14.5303C13.8273 14.8232 14.3021 14.8232 14.595 14.5303L25.2406 3.88479V10.0098C25.2406 10.424 25.5764 10.7598 25.9906 10.7598C26.4048 10.7598 26.7406 10.424 26.7406 10.0098V2.08275V2.07408C26.7406 2.03959 26.7382 2.00563 26.7337 1.97237" fill="#1A73EC"/>
<path fill-rule="evenodd" clip-rule="evenodd" d="M2.36108 6.22223C2.36108 5.80802 2.69687 5.47223 3.11108 5.47223H17.1111C17.5253 5.47223 17.8611 5.80802 17.8611 6.22223C17.8611 6.63644 17.5253 6.97223 17.1111 6.97223H3.86108V24.1389H21.0278V10.8889C21.0278 10.4747 21.3635 10.1389 21.7778 10.1389C22.192 10.1389 22.5278 10.4747 22.5278 10.8889V24.8889C22.5278 25.3031 22.192 25.6389 21.7778 25.6389H3.11108C2.69687 25.6389 2.36108 25.3031 2.36108 24.8889V6.22223Z" fill="#DEA81C"/>
</svg>
