<svg viewBox="0 0 10 5" fill="none" xmlns="http://www.w3.org/2000/svg">
<path d="M9.1185 0.25648C9.03724 0.175169 8.94076 0.110667 8.83456 0.0666591C8.72837 0.0226511 8.61454 0 8.49959 0C8.38463 0 8.2708 0.0226511 8.16461 0.0666591C8.05841 0.110667 7.96193 0.175169 7.88067 0.25648L5.2055 2.93107C5.15081 2.98575 5.07663 3.01646 4.99929 3.01646C4.92196 3.01646 4.84778 2.98575 4.79309 2.93107L2.1185 0.25648C1.95443 0.092333 1.73188 8.52935e-05 1.49979 3.05971e-05C1.26771 -2.40994e-05 1.04511 0.0921186 0.880961 0.256188C0.716814 0.420258 0.624566 0.642815 0.624512 0.874899C0.624457 1.10698 0.7166 1.32958 0.880669 1.49373L3.55584 4.1689C3.74542 4.35851 3.97051 4.50892 4.21823 4.61153C4.46595 4.71415 4.73145 4.76697 4.99959 4.76697C5.26772 4.76697 5.53323 4.71415 5.78095 4.61153C6.02867 4.50892 6.25375 4.35851 6.44334 4.1689L9.1185 1.49373C9.28254 1.32964 9.37469 1.10712 9.37469 0.875106C9.37469 0.643087 9.28254 0.420567 9.1185 0.25648Z" fill="#2D2E35"/>
</svg>
