<svg width="44" height="44" viewBox="0 0 44 44" fill="none" xmlns="http://www.w3.org/2000/svg">
<g clip-path="url(#clip0_647_17314)">
<path d="M27.8091 25.7279C27.0793 24.9836 26.1684 24.9836 25.4433 25.7279C24.8901 26.2946 24.3371 26.8613 23.7932 27.4375C23.6445 27.5959 23.5189 27.6296 23.3377 27.5239C22.9798 27.3222 22.5987 27.159 22.2547 26.9381C20.6512 25.896 19.3079 24.5563 18.118 23.0484C17.5277 22.2992 17.0025 21.4974 16.6353 20.5945C16.5609 20.4121 16.5748 20.292 16.7189 20.1431C17.272 19.5909 17.8112 19.0243 18.355 18.4576C19.1127 17.6701 19.1127 16.7481 18.3504 15.9557C17.9181 15.5044 17.4858 15.0626 17.0536 14.6112C16.6074 14.1502 16.1658 13.6844 15.715 13.2282C14.9852 12.4935 14.0742 12.4935 13.3491 13.233C12.7914 13.7996 12.2568 14.3807 11.6898 14.9377C11.1645 15.4515 10.8996 16.0806 10.8438 16.8153C10.7555 18.011 11.0391 19.1395 11.4388 20.2392C12.2568 22.5154 13.5025 24.5371 15.0131 26.3907C17.0536 28.8973 19.4891 30.8805 22.3383 32.3116C23.6212 32.9551 24.9506 33.4496 26.3961 33.5314C27.3907 33.589 28.2552 33.3296 28.9478 32.5277C29.4219 31.9803 29.9564 31.4808 30.4585 30.9574C31.2021 30.1795 31.2067 29.2383 30.4678 28.4699C29.5846 27.5528 28.6969 26.6404 27.8091 25.7279H27.8091Z" fill="#5D53A5"/>
<path d="M26.9188 21.8999L28.6339 21.5973C28.3644 19.9694 27.6207 18.4952 26.4912 17.3235C25.2967 16.0893 23.7861 15.3114 22.1221 15.0713L21.8804 16.8529C23.1678 17.0402 24.3391 17.6404 25.2641 18.596C26.138 19.4988 26.7096 20.6417 26.9188 21.8999H26.9188Z" fill="#5D53A5"/>
<path d="M29.6039 14.1979C27.6239 12.1522 25.1186 10.8605 22.353 10.4619L22.1113 12.2435C24.5004 12.5892 26.6664 13.7081 28.3769 15.4705C29.999 17.1464 31.0634 19.2641 31.4492 21.5931L33.1643 21.2906C32.7135 18.5918 31.4817 16.1428 29.6039 14.1979H29.6039Z" fill="#5D53A5"/>
</g>
<rect x="1" y="1" width="42" height="42" rx="21" stroke="#5D53A5" stroke-width="2"/>
<defs>
<clipPath id="clip0_647_17314">
<rect width="24" height="24" fill="white" transform="translate(10 10)"/>
</clipPath>
</defs>
</svg>
