<svg width="16" height="16" viewBox="0 0 16 16" fill="none" xmlns="http://www.w3.org/2000/svg">
<path fill-rule="evenodd" clip-rule="evenodd" d="M1.85522 7.11172C1.85522 4.20864 4.20861 1.85523 7.11167 1.85523C10.0147 1.85523 12.3681 4.20864 12.3681 7.11172C12.3681 10.0148 10.0147 12.3682 7.11167 12.3682C4.20861 12.3682 1.85522 10.0148 1.85522 7.11172ZM7.11167 0C3.184 0 0 3.18402 0 7.11172C0 11.0394 3.184 14.2234 7.11167 14.2234C8.74114 14.2234 10.2426 13.6754 11.4418 12.7536L14.4165 15.7283C14.7788 16.0906 15.3661 16.0906 15.7283 15.7283C16.0906 15.3661 16.0906 14.7787 15.7283 14.4165L12.7536 11.4418C13.6754 10.2425 14.2233 8.74113 14.2233 7.11172C14.2233 3.18402 11.0393 0 7.11167 0Z" fill="#2D2E35"/>
</svg>
