<svg width="28" height="28" viewBox="0 0 28 28" fill="none" xmlns="http://www.w3.org/2000/svg">
<g clip-path="url(#clip0_2_3722)">
<path fill-rule="evenodd" clip-rule="evenodd" d="M25.6667 5.64244H19.8122C20.0243 5.47275 20.2364 5.30305 20.3637 5.17578C21.4243 4.11517 21.4243 2.33335 20.3637 1.27275C19.3031 0.212139 17.5213 0.212139 16.4607 1.27275C15.9516 1.78184 14.7637 3.47881 14.0001 5.00608C13.2364 3.47881 12.0486 1.78184 11.5395 1.27275C10.4789 0.212139 8.69704 0.169715 7.63644 1.27275C6.57583 2.33335 6.57583 4.11517 7.63644 5.17578C7.76371 5.30305 7.97583 5.47275 8.18795 5.64244H2.33341C1.2728 5.64244 0.424316 6.49093 0.424316 7.55153V11.4546C0.424316 11.7091 0.594013 11.8788 0.848559 11.8788H1.69704V25.6243C1.69704 26.6849 2.54553 27.5758 3.60613 27.5758H24.394C25.4546 27.5758 26.3031 26.7273 26.3031 25.6667V11.8788H27.1516C27.4061 11.8788 27.5758 11.7091 27.5758 11.4546V7.55153C27.5758 6.49093 26.7273 5.64244 25.6667 5.64244ZM17.0546 1.82426C17.8183 1.06062 19.0061 1.06062 19.7698 1.82426C20.5334 2.5879 20.5334 3.77578 19.7698 4.53941C19.5152 4.79396 18.9637 5.2182 18.3698 5.60002H14.6364C15.3152 4.15759 16.5455 2.37578 17.0546 1.82426ZM8.23038 4.53941C7.46674 3.77578 7.46674 2.5879 8.23038 1.82426C8.99401 1.06062 10.1819 1.06062 10.9455 1.82426C11.4546 2.33335 12.6849 4.11517 13.3637 5.60002H9.63038C8.99401 5.2182 8.48492 4.79396 8.23038 4.53941ZM1.2728 7.55153C1.2728 6.95759 1.73947 6.49093 2.33341 6.49093H11.7092V11.0303H1.23038V7.55153H1.2728ZM26.6849 11.0303H16.2486V6.49093H25.6243C26.2183 6.49093 26.6849 6.95759 26.6849 7.55153V11.0303ZM2.54553 25.6243V11.8788H11.7516V13.125V14L12.6001 13.7521V13.125V11.4546V6.49093H15.4425V11.4546V13.7521L16.2486 14.1713V11.8788H25.4546V25.6243C25.4546 26.2182 24.988 26.6849 24.394 26.6849H16.2486V22.75L15.4425 22.8718V26.7273H12.6001V23.1875L11.7516 22.75V26.7273H3.60613C3.0122 26.7273 2.54553 26.2182 2.54553 25.6243Z" fill="#ECF2FA"/>
<path d="M2.54553 11.8788V25.6243C2.54553 26.2182 3.0122 26.7273 3.60613 26.7273H11.7516V22.75L12.6001 23.1875V26.7273H15.4425V22.8718L16.2486 22.75V26.6849H24.394C24.988 26.6849 25.4546 26.2182 25.4546 25.6243V11.8788H16.2486V14.1713L15.4425 13.7521V11.4546V6.49093H12.6001V11.4546V13.125V13.7521L11.7516 14V13.125V11.8788H2.54553Z" fill="#ECF2FA"/>
<path fill-rule="evenodd" clip-rule="evenodd" d="M25.6667 5.64244H19.8122C20.0243 5.47275 20.2364 5.30305 20.3637 5.17578C21.4243 4.11517 21.4243 2.33335 20.3637 1.27275C19.3031 0.212139 17.5213 0.212139 16.4607 1.27275C15.9516 1.78184 14.7637 3.47881 14.0001 5.00608C13.2364 3.47881 12.0486 1.78184 11.5395 1.27275C10.4789 0.212139 8.69704 0.169715 7.63644 1.27275C6.57583 2.33335 6.57583 4.11517 7.63644 5.17578C7.76371 5.30305 7.97583 5.47275 8.18795 5.64244H2.33341C1.2728 5.64244 0.424316 6.49093 0.424316 7.55153V11.4546C0.424316 11.7091 0.594013 11.8788 0.848559 11.8788H1.69704V25.6243C1.69704 26.6849 2.54553 27.5758 3.60613 27.5758H24.394C25.4546 27.5758 26.3031 26.7273 26.3031 25.6667V11.8788H27.1516C27.4061 11.8788 27.5758 11.7091 27.5758 11.4546V7.55153C27.5758 6.49093 26.7273 5.64244 25.6667 5.64244ZM17.0546 1.82426C17.8183 1.06062 19.0061 1.06062 19.7698 1.82426C20.5334 2.5879 20.5334 3.77578 19.7698 4.53941C19.5152 4.79396 18.9637 5.2182 18.3698 5.60002H14.6364C15.3152 4.15759 16.5455 2.37578 17.0546 1.82426ZM8.23038 4.53941C7.46674 3.77578 7.46674 2.5879 8.23038 1.82426C8.99401 1.06062 10.1819 1.06062 10.9455 1.82426C11.4546 2.33335 12.6849 4.11517 13.3637 5.60002H9.63038C8.99401 5.2182 8.48492 4.79396 8.23038 4.53941ZM1.2728 7.55153C1.2728 6.95759 1.73947 6.49093 2.33341 6.49093H11.7092V11.0303H1.23038V7.55153H1.2728ZM26.6849 11.0303H16.2486V6.49093H25.6243C26.2183 6.49093 26.6849 6.95759 26.6849 7.55153V11.0303ZM2.54553 25.6243V11.8788H11.7516V13.125V14L12.6001 13.7521V13.125V11.4546V6.49093H15.4425V11.4546V13.7521L16.2486 14.1713V11.8788H25.4546V25.6243C25.4546 26.2182 24.988 26.6849 24.394 26.6849H16.2486V22.75L15.4425 22.8718V26.7273H12.6001V23.1875L11.7516 22.75V26.7273H3.60613C3.0122 26.7273 2.54553 26.2182 2.54553 25.6243Z" fill="#002F6D"/>
<path d="M14.897 17.1965C14.897 17.4014 15.0377 17.5381 15.2487 17.5381C15.4598 17.5381 15.6005 17.4014 15.6005 17.1965C15.6005 16.445 15.108 15.8302 14.4045 15.6594V15.2495C14.4045 15.0445 14.2638 14.9079 14.0527 14.9079C13.8417 14.9079 13.701 15.0445 13.701 15.2495V15.6594C12.9622 15.796 12.4346 16.445 12.4346 17.1282C12.3994 17.9821 13.103 18.6653 13.9824 18.6995C15.2487 18.8019 15.0729 20.4415 13.9824 20.4415C13.4899 20.4415 13.103 20.0316 13.103 19.5534C13.103 19.3485 12.9622 19.2118 12.7512 19.2118C12.5401 19.2118 12.3994 19.3485 12.3994 19.5534C12.3994 20.2707 12.8919 20.9197 13.5954 21.0905V21.5004C13.5954 21.7054 13.7361 21.842 13.9472 21.842C14.1231 21.842 14.299 21.7054 14.299 21.5004V21.0905C16.1282 20.7148 15.8819 18.0505 14.0175 18.0163C13.5251 18.0163 13.1381 17.6064 13.1381 17.1282C13.1381 16.0351 14.897 16.001 14.897 17.1965Z" fill="#FF3C1F"/>
<path fill-rule="evenodd" clip-rule="evenodd" d="M14 22.75C16.4162 22.75 18.375 20.7912 18.375 18.375C18.375 15.9588 16.4162 14 14 14C11.5838 14 9.625 15.9588 9.625 18.375C9.625 20.7912 11.5838 22.75 14 22.75ZM14 23.625C16.8995 23.625 19.25 21.2745 19.25 18.375C19.25 15.4755 16.8995 13.125 14 13.125C11.1005 13.125 8.75 15.4755 8.75 18.375C8.75 21.2745 11.1005 23.625 14 23.625Z" fill="#FF3C1F"/>
</g>
<defs>
<clipPath id="clip0_2_3722">
<rect width="28" height="28" fill="white"/>
</clipPath>
</defs>
</svg>
