<svg width="28" height="28" viewBox="0 0 28 28" fill="none" xmlns="http://www.w3.org/2000/svg">
<path d="M21.618 3.69141H18.9821L18.6813 3.08984C18.4516 2.63047 17.9922 2.34609 17.4782 2.34609H17.0024C16.6141 1.03359 15.4055 0.109375 14 0.109375C12.5946 0.109375 11.386 1.03359 10.9977 2.35156H10.5219C10.0079 2.35156 9.54849 2.63594 9.3188 3.09531L9.01802 3.69687H6.38208C5.14614 3.69687 4.13989 4.70312 4.13989 5.93906V25.6484C4.13989 26.8844 5.14614 27.8906 6.38208 27.8906H21.618C22.854 27.8906 23.8602 26.8844 23.8602 25.6484V5.93359C23.8602 4.69766 22.854 3.69141 21.618 3.69141ZM9.55942 4.62109L10.1227 3.49453C10.1993 3.34141 10.3524 3.24844 10.5219 3.24844H11.7305L11.7907 2.87656C11.9711 1.79375 12.9008 1.01172 13.9946 1.01172C15.0883 1.01172 16.018 1.79922 16.1985 2.87656L16.2641 3.24844H17.4727C17.6422 3.24844 17.7954 3.34141 17.8719 3.49453L18.4352 4.62109C18.5008 4.75234 18.468 5.02578 18.1782 5.04219H9.81099C9.64692 5.03672 9.45552 4.87266 9.55942 4.62109ZM22.9633 25.6484C22.9633 26.3922 22.3618 26.9938 21.618 26.9938H6.38208C5.63833 26.9938 5.03677 26.3922 5.03677 25.6484V5.93359C5.03677 5.18984 5.63833 4.58828 6.38208 4.58828H8.64614C8.52036 5.49609 9.36802 5.98828 9.81645 5.93359H18.1836C18.643 5.97734 19.4852 5.50703 19.354 4.58828H21.618C22.3618 4.58828 22.9633 5.18984 22.9633 5.93359V25.6484Z" fill="#ECF2FA"/>
<path d="M22.9633 25.6484C22.9633 26.3922 22.3618 26.9938 21.618 26.9938H6.38208C5.63833 26.9938 5.03677 26.3922 5.03677 25.6484V5.93359C5.03677 5.18984 5.63833 4.58828 6.38208 4.58828H8.64614C8.52036 5.49609 9.36802 5.98828 9.81645 5.93359H18.1836C18.643 5.97734 19.4852 5.50703 19.354 4.58828H21.618C22.3618 4.58828 22.9633 5.18984 22.9633 5.93359V25.6484Z" fill="#ECF2FA"/>
<path d="M21.618 3.69141H18.9821L18.6813 3.08984C18.4516 2.63047 17.9922 2.34609 17.4782 2.34609H17.0024C16.6141 1.03359 15.4055 0.109375 14 0.109375C12.5946 0.109375 11.386 1.03359 10.9977 2.35156H10.5219C10.0079 2.35156 9.54849 2.63594 9.3188 3.09531L9.01802 3.69687H6.38208C5.14614 3.69687 4.13989 4.70312 4.13989 5.93906V25.6484C4.13989 26.8844 5.14614 27.8906 6.38208 27.8906H21.618C22.854 27.8906 23.8602 26.8844 23.8602 25.6484V5.93359C23.8602 4.69766 22.854 3.69141 21.618 3.69141ZM9.55942 4.62109L10.1227 3.49453C10.1993 3.34141 10.3524 3.24844 10.5219 3.24844H11.7305L11.7907 2.87656C11.9711 1.79375 12.9008 1.01172 13.9946 1.01172C15.0883 1.01172 16.018 1.79922 16.1985 2.87656L16.2641 3.24844H17.4727C17.6422 3.24844 17.7954 3.34141 17.8719 3.49453L18.4352 4.62109C18.5008 4.75234 18.468 5.02578 18.1782 5.04219H9.81099C9.64692 5.03672 9.45552 4.87266 9.55942 4.62109ZM22.9633 25.6484C22.9633 26.3922 22.3618 26.9938 21.618 26.9938H6.38208C5.63833 26.9938 5.03677 26.3922 5.03677 25.6484V5.93359C5.03677 5.18984 5.63833 4.58828 6.38208 4.58828H8.64614C8.52036 5.49609 9.36802 5.98828 9.81645 5.93359H18.1836C18.643 5.97734 19.4852 5.50703 19.354 4.58828H21.618C22.3618 4.58828 22.9633 5.18984 22.9633 5.93359V25.6484Z" fill="#002F6D"/>
<path d="M6.83057 22.5148H21.1696V23.4116H6.83057V22.5148Z" fill="#002F6D"/>
<path d="M6.83057 20.2783H18.8772V21.1752H6.83057V20.2783Z" fill="#002F6D"/>
<path d="M6.83057 24.7516H13.1032V25.6485H6.83057V24.7516Z" fill="#002F6D"/>
<path d="M20.2727 24.7516H21.1696V25.6485H20.2727V24.7516Z" fill="#002F6D"/>
<path d="M18.479 24.7516H19.3759V25.6485H18.479V24.7516Z" fill="#002F6D"/>
<path d="M16.6907 24.7516H17.5875V25.6485H16.6907V24.7516Z" fill="#002F6D"/>
<path d="M15.7907 8.49237H12.2087V11.183H9.51807V14.765H12.2087V17.4557H15.7907V14.765H18.4813V11.183H15.7907V8.49237ZM17.579 12.0744V13.8682H14.8884V16.5588H13.0946V13.8682H10.404V12.0744H13.0946V9.38378H14.8884V12.0744H17.579Z" fill="#FF3C1F"/>
</svg>
