<svg width="20" height="28" viewBox="0 0 20 28" fill="none" xmlns="http://www.w3.org/2000/svg">
<path d="M17.618 3.69141H14.9821L14.6813 3.08984C14.4516 2.63047 13.9922 2.34609 13.4782 2.34609H13.0024C12.6141 1.03359 11.4055 0.109375 10 0.109375C8.59458 0.109375 7.38599 1.03359 6.99771 2.35156H6.52192C6.00786 2.35156 5.54849 2.63594 5.3188 3.09531L5.01802 3.69687H2.38208C1.14614 3.69687 0.139893 4.70312 0.139893 5.93906V25.6484C0.139893 26.8844 1.14614 27.8906 2.38208 27.8906H17.618C18.854 27.8906 19.8602 26.8844 19.8602 25.6484V5.93359C19.8602 4.69766 18.854 3.69141 17.618 3.69141ZM5.55942 4.62109L6.12271 3.49453C6.19927 3.34141 6.35239 3.24844 6.52192 3.24844H7.73052L7.79614 2.87656C7.97661 1.79375 8.9063 1.01172 10 1.01172C11.0938 1.01172 12.0235 1.79922 12.204 2.87656L12.2696 3.24844H13.4782C13.6477 3.24844 13.8008 3.34141 13.8774 3.49453L14.4407 4.62109C14.5227 4.75781 14.4571 5.02031 14.1836 5.04219H5.81646C5.6688 5.05312 5.44458 4.87812 5.55942 4.62109ZM18.9633 25.6484C18.9633 26.3922 18.3618 26.9938 17.618 26.9938H2.38208C1.63833 26.9938 1.03677 26.3922 1.03677 25.6484V5.93359C1.03677 5.18984 1.63833 4.58828 2.38208 4.58828H4.64614C4.60786 4.85625 4.65708 5.12969 4.80474 5.37031C5.02349 5.72031 5.40083 5.93359 5.81099 5.93359H14.1782C14.5938 5.93359 14.9711 5.72578 15.1844 5.37031C15.3321 5.12969 15.3813 4.85625 15.343 4.58828H17.6071C18.3508 4.58828 18.9524 5.18984 18.9524 5.93359V25.6484H18.9633Z" fill="#ECF2FA"/>
<path d="M18.9633 25.6484C18.9633 26.3922 18.3618 26.9938 17.618 26.9938H2.38208C1.63833 26.9938 1.03677 26.3922 1.03677 25.6484V5.93359C1.03677 5.18984 1.63833 4.58828 2.38208 4.58828H4.64614C4.60786 4.85625 4.65708 5.12969 4.80474 5.37031C5.02349 5.72031 5.40083 5.93359 5.81099 5.93359H14.1782C14.5938 5.93359 14.9711 5.72578 15.1844 5.37031C15.3321 5.12969 15.3813 4.85625 15.343 4.58828H17.6071C18.3508 4.58828 18.9524 5.18984 18.9524 5.93359V25.6484H18.9633Z" fill="#ECF2FA"/>
<path d="M16.322 11.9273C16.322 9.86016 14.7142 8.17578 12.7399 8.17578C11.7063 8.17578 10.7274 8.65156 10.0493 9.45C9.37666 8.65156 8.39228 8.17578 7.35869 8.17578C5.38447 8.17578 3.77666 9.86016 3.77666 11.9273C3.77666 12.2992 3.86416 12.6984 4.01729 13.1086H2.44775V14H4.44932C5.96416 16.7891 10.0493 19.9445 10.0493 19.9445C10.0493 19.9445 14.1892 16.7781 15.6712 14H17.6837V13.1031H16.0868C16.2345 12.6984 16.322 12.2992 16.322 11.9273ZM10.0493 18.8016C8.83525 17.8008 6.66416 15.8047 5.48838 14H6.59307L7.87822 12.1625L9.79228 15.7008L11.247 13.907L12.1821 15.6352L13.8173 14H14.6267C13.4563 15.8211 11.2743 17.8117 10.0493 18.8016ZM15.1243 13.1031H13.4509L12.4009 14.1531L11.4001 12.2992L9.94541 14.093L7.97666 10.4617L6.12822 13.1031H4.98525C4.78838 12.682 4.67354 12.2773 4.67354 11.9219C4.67354 10.3469 5.88213 9.06719 7.36416 9.06719C8.31025 9.06719 9.16885 9.58125 9.66103 10.4508L10.0493 11.1344L10.4376 10.4508C10.9298 9.58672 11.7884 9.06719 12.7345 9.06719C14.2165 9.06719 15.4251 10.3469 15.4251 11.9219C15.4251 12.2828 15.3103 12.682 15.1243 13.1031Z" fill="#FF3C1F"/>
<path d="M17.618 3.69141H14.9821L14.6813 3.08984C14.4516 2.63047 13.9922 2.34609 13.4782 2.34609H13.0024C12.6141 1.03359 11.4055 0.109375 10 0.109375C8.59458 0.109375 7.38599 1.03359 6.99771 2.35156H6.52192C6.00786 2.35156 5.54849 2.63594 5.3188 3.09531L5.01802 3.69687H2.38208C1.14614 3.69687 0.139893 4.70312 0.139893 5.93906V25.6484C0.139893 26.8844 1.14614 27.8906 2.38208 27.8906H17.618C18.854 27.8906 19.8602 26.8844 19.8602 25.6484V5.93359C19.8602 4.69766 18.854 3.69141 17.618 3.69141ZM5.55942 4.62109L6.12271 3.49453C6.19927 3.34141 6.35239 3.24844 6.52192 3.24844H7.73052L7.79614 2.87656C7.97661 1.79375 8.9063 1.01172 10 1.01172C11.0938 1.01172 12.0235 1.79922 12.204 2.87656L12.2696 3.24844H13.4782C13.6477 3.24844 13.8008 3.34141 13.8774 3.49453L14.4407 4.62109C14.5227 4.75781 14.4571 5.02031 14.1836 5.04219H5.81646C5.6688 5.05312 5.44458 4.87812 5.55942 4.62109ZM18.9633 25.6484C18.9633 26.3922 18.3618 26.9938 17.618 26.9938H2.38208C1.63833 26.9938 1.03677 26.3922 1.03677 25.6484V5.93359C1.03677 5.18984 1.63833 4.58828 2.38208 4.58828H4.64614C4.60786 4.85625 4.65708 5.12969 4.80474 5.37031C5.02349 5.72031 5.40083 5.93359 5.81099 5.93359H14.1782C14.5938 5.93359 14.9711 5.72578 15.1844 5.37031C15.3321 5.12969 15.3813 4.85625 15.343 4.58828H17.6071C18.3508 4.58828 18.9524 5.18984 18.9524 5.93359V25.6484H18.9633Z" fill="#002F6D"/>
<path d="M2.89624 21.618H11.8595V22.5149H2.89624V21.618Z" fill="#002F6D"/>
<path d="M16.3384 21.618H17.2353V22.5149H16.3384V21.618Z" fill="#002F6D"/>
<path d="M14.5447 21.618H15.4416V22.5149H14.5447V21.618Z" fill="#002F6D"/>
<path d="M12.7507 21.618H13.6476V22.5149H12.7507V21.618Z" fill="#002F6D"/>
<path d="M2.89624 24.3086H17.2353V25.2055H2.89624V24.3086Z" fill="#002F6D"/>
</svg>
