<svg width="166" height="140" viewBox="0 0 166 140" fill="none" xmlns="http://www.w3.org/2000/svg">
<path d="M10.5231 20.116L155.485 119.894" stroke="#1A73EC" stroke-width="0.4" stroke-miterlimit="10"/>
<path d="M6.45194 27.9332L159.547 112.067" stroke="#1A73EC" stroke-width="0.4" stroke-miterlimit="10"/>
<path d="M4.26972 36.7987L161.73 103.211" stroke="#1A73EC" stroke-width="0.4" stroke-miterlimit="10"/>
<path d="M4.02889 46.4718L161.97 93.5369" stroke="#1A73EC" stroke-width="0.4" stroke-miterlimit="10"/>
<path d="M5.73189 56.7219L160.276 83.2869" stroke="#1A73EC" stroke-width="0.4" stroke-miterlimit="10"/>
<path d="M9.33789 67.3066L156.671 72.7032" stroke="#1A73EC" stroke-width="0.4" stroke-miterlimit="10"/>
<path d="M14.7549 77.9538L151.253 62.0553" stroke="#1A73EC" stroke-width="0.4" stroke-miterlimit="10"/>
<path d="M21.8486 88.4093L144.15 51.5995" stroke="#1A73EC" stroke-width="0.4" stroke-miterlimit="10"/>
<path d="M30.4512 98.4069L135.548 41.6014" stroke="#1A73EC" stroke-width="0.4" stroke-miterlimit="10"/>
<path d="M40.3486 107.706L125.651 32.3035" stroke="#1A73EC" stroke-width="0.4" stroke-miterlimit="10"/>
<path d="M51.3018 116.08L114.706 23.9301" stroke="#1A73EC" stroke-width="0.4" stroke-miterlimit="10"/>
<path d="M63.0283 123.309L102.972 16.6914" stroke="#1A73EC" stroke-width="0.4" stroke-miterlimit="10"/>
<path d="M75.251 129.236L90.7569 10.7728" stroke="#1A73EC" stroke-width="0.4" stroke-miterlimit="10"/>
<path d="M87.6594 133.701L78.3405 6.30752" stroke="#1A73EC" stroke-width="0.4" stroke-miterlimit="10"/>
<path d="M99.9556 136.605L66.0427 3.40451" stroke="#1A73EC" stroke-width="0.4" stroke-miterlimit="10"/>
<path d="M111.836 137.855L54.1716 2.14556" stroke="#1A73EC" stroke-width="0.4" stroke-miterlimit="10"/>
<path d="M123.008 137.448L43.0003 2.56073" stroke="#1A73EC" stroke-width="0.4" stroke-miterlimit="10"/>
<path d="M133.187 135.373L32.8121 4.63697" stroke="#1A73EC" stroke-width="0.4" stroke-miterlimit="10"/>
<path d="M142.139 131.686L23.8687 8.32483" stroke="#1A73EC" stroke-width="0.4" stroke-miterlimit="10"/>
<path d="M149.628 126.488L16.3714 13.5211" stroke="#1A73EC" stroke-width="0.4" stroke-miterlimit="10"/>
</svg>
