<svg width="175" height="175" viewBox="0 0 175 175" fill="none" xmlns="http://www.w3.org/2000/svg">
<path fill-rule="evenodd" clip-rule="evenodd" d="M155.182 42.4988L166.587 69.2497L111.775 92.6299L135.14 147.436L108.389 158.841L108.811 157.791L134.091 147.014L110.725 92.2078L165.537 68.8277L154.759 43.5483L99.9389 66.9082L76.5732 12.1021L51.2796 22.8739L50.2298 22.4515L76.9955 11.0527L100.361 65.8587L155.182 42.4988Z" fill="#1A73EC"/>
<path fill-rule="evenodd" clip-rule="evenodd" d="M66.1404 15.6674L89.5206 70.4794L144.327 47.1136L155.74 73.885L100.92 97.2449L124.3 152.057L97.5285 163.47L74.1628 108.664L19.3567 132.03L7.94322 105.259L62.7493 81.8929L39.3836 27.087L66.1404 15.6674ZM65.7185 16.7172L40.4332 27.5088L63.7989 82.3151L8.99287 105.681L19.7789 130.98L74.585 107.615L97.9507 162.421L123.25 151.635L99.8699 96.8227L154.691 73.4627L143.905 48.1633L89.0985 71.529L65.7185 16.7172Z" fill="#DEA81C"/>
</svg>
