<svg width="76" height="76" viewBox="0 0 76 76" fill="none" xmlns="http://www.w3.org/2000/svg">
<path d="M65.7293 35.2331C67.9549 33.6692 69.4286 31.0677 69.4286 28.1353C69.4286 23.3383 65.5489 19.4586 60.7519 19.4586C55.9549 19.4586 52.0752 23.3383 52.0752 28.1353C52.0752 31.0677 53.5338 33.6692 55.7744 35.2331C53.8647 35.8947 52.1203 36.9173 50.6466 38.2406C48.6165 36.5113 46.2256 35.188 43.609 34.406C46.782 32.4812 48.9173 28.9774 48.9173 24.9925C48.9173 18.9173 44 14 37.9248 14C31.8496 14 26.9323 18.9323 26.9323 24.9925C26.9323 28.9774 29.0526 32.4812 32.2406 34.406C29.6541 35.188 27.2932 36.4962 25.2782 38.1955C23.8045 36.9023 22.0902 35.8947 20.2105 35.2481C22.4361 33.6842 23.9098 31.0827 23.9098 28.1504C23.9098 23.3534 20.0301 19.4737 15.2331 19.4737C10.4361 19.4737 6.55639 23.3534 6.55639 28.1504C6.55639 31.0827 8.01504 33.6842 10.2556 35.2481C4.28571 37.3083 0 42.9774 0 49.6391V50.6316C0 50.6617 0.0300752 50.6917 0.0601504 50.6917H18.4511C18.3459 51.5188 18.2857 52.3759 18.2857 53.2331V54.2556C18.2857 58.6767 21.8647 62.2556 26.2857 62.2556H49.594C54.015 62.2556 57.594 58.6767 57.594 54.2556V53.2331C57.594 52.3759 57.5338 51.5188 57.4286 50.6917H75.9398C75.9699 50.6917 76 50.6617 76 50.6316V49.6391C75.9699 42.9624 71.6992 37.2932 65.7293 35.2331ZM54.4812 28.1203C54.4812 24.6617 57.2932 21.8496 60.7519 21.8496C64.2105 21.8496 67.0226 24.6617 67.0226 28.1203C67.0226 31.5338 64.2707 34.3158 60.8722 34.391C60.8271 34.391 60.797 34.391 60.7519 34.391C60.7068 34.391 60.6767 34.391 60.6316 34.391C57.218 34.3308 54.4812 31.5489 54.4812 28.1203ZM29.3083 24.9925C29.3083 20.2556 33.1579 16.406 37.8947 16.406C42.6316 16.406 46.4812 20.2556 46.4812 24.9925C46.4812 29.5639 42.8872 33.3083 38.391 33.5639C38.2256 33.5639 38.0602 33.5639 37.8947 33.5639C37.7293 33.5639 37.5639 33.5639 37.3985 33.5639C32.9023 33.3083 29.3083 29.5639 29.3083 24.9925ZM8.91729 28.1203C8.91729 24.6617 11.7293 21.8496 15.188 21.8496C18.6466 21.8496 21.4586 24.6617 21.4586 28.1203C21.4586 31.5338 18.7068 34.3158 15.3083 34.391C15.2632 34.391 15.2331 34.391 15.188 34.391C15.1429 34.391 15.1128 34.391 15.0677 34.391C11.6692 34.3308 8.91729 31.5489 8.91729 28.1203ZM18.8722 48.2707H2.43609C3.11278 41.8647 8.52632 36.8421 15.0977 36.797C15.1278 36.797 15.1579 36.797 15.188 36.797C15.218 36.797 15.2481 36.797 15.2782 36.797C18.406 36.812 21.2632 37.9699 23.4737 39.8496C21.3083 42.1955 19.6992 45.0827 18.8722 48.2707ZM55.1579 54.2556C55.1579 57.3383 52.6466 59.8496 49.5639 59.8496H26.2556C23.1729 59.8496 20.6617 57.3383 20.6617 54.2556V53.2331C20.6617 43.8947 28.1203 36.2556 37.3985 35.985C37.5639 36 37.7444 36 37.9098 36C38.0752 36 38.2556 36 38.4211 35.985C47.6992 36.2556 55.1579 43.8947 55.1579 53.2331V54.2556ZM56.9474 48.2707C56.1203 45.0977 54.5414 42.2556 52.391 39.9098C54.6165 37.985 57.5038 36.8271 60.6617 36.797C60.6917 36.797 60.7218 36.797 60.7519 36.797C60.782 36.797 60.812 36.797 60.8421 36.797C67.4135 36.8421 72.8271 41.8647 73.5038 48.2707H56.9474Z" fill="#5D53A5"/>
<path fill-rule="evenodd" clip-rule="evenodd" d="M43.6091 34.406C46.782 32.4812 48.9173 28.9774 48.9173 24.9925C48.9173 18.9173 44 14 37.9249 14C31.8497 14 26.9324 18.9323 26.9324 24.9925C26.9324 28.9774 29.0527 32.4812 32.2406 34.406C21.8056 37.8984 18.0951 46.3365 18.2858 54.2556C18.3921 58.6754 21.8647 62.2556 26.2858 62.2556H49.594C54.0151 62.2556 57.594 58.6767 57.594 54.2556V53.2331C57.594 52.3759 57.5926 51.5092 57.4286 50.6917C56.5196 46.1592 54.5001 38 43.6091 34.406ZM37.8948 16.406C33.1579 16.406 29.3083 20.2556 29.3083 24.9925C29.3083 29.5639 32.9023 33.3083 37.3985 33.5639H37.8948H38.391C42.8873 33.3083 46.4812 29.5639 46.4812 24.9925C46.4812 20.2556 42.6316 16.406 37.8948 16.406ZM49.564 59.8496C52.6467 59.8496 55.1579 57.3383 55.1579 54.2556V53.2331C55.1579 43.8947 47.6993 36.2556 38.4211 35.985C38.2557 36 38.0752 36 37.9098 36C37.7444 36 37.564 36 37.3985 35.985C28.1203 36.2556 20.6617 43.8947 20.6617 53.2331V54.2556C20.6617 57.3383 23.173 59.8496 26.2557 59.8496H49.564Z" fill="#EE3066"/>
</svg>
