<svg width="76" height="76" viewBox="0 0 76 76" fill="none" xmlns="http://www.w3.org/2000/svg">
<path d="M51.7508 68.0016C51.4883 68.0016 51.2258 67.9191 51.0033 67.7516C50.3708 67.2816 35.5 56.076 35.5 47.078C35.5 42.0727 39.5702 38 44.5755 38C47.4256 38 50.0583 39.3276 51.7508 41.5077C53.4409 39.3276 56.0736 38 58.9262 38C63.9315 38 68.0017 42.0727 68.0017 47.078C68.0017 56.0785 53.1309 67.2816 52.4984 67.7541C52.2759 67.9191 52.0134 68.0016 51.7508 68.0016ZM44.5755 40.5002C40.9503 40.5002 38.0001 43.4528 38.0001 47.078C38.0001 53.1508 47.3081 61.6988 51.7508 65.1764C56.1911 61.6963 65.5016 53.1433 65.5016 47.078C65.5016 43.4528 62.5514 40.5002 58.9262 40.5002C56.3036 40.5002 53.9385 42.0477 52.8984 44.4429C52.5034 45.3554 51.0008 45.3554 50.6058 44.4429C49.5632 42.0477 47.1981 40.5002 44.5755 40.5002Z" fill="#E73668"/>
<path d="M31.7498 58.0013H20.4992C17.7415 58.0013 15.4989 55.7587 15.4989 53.0011V35.5002H10.4987C9.09609 35.5002 7.99854 34.4026 7.99854 33C7.99854 32.2975 8.30355 31.6025 8.81358 31.145L33.3974 8.33377C33.8774 7.88874 34.6199 7.88874 35.0974 8.33377L43.0004 15.6591V11.7489C43.0004 11.0589 43.5604 10.4989 44.2504 10.4989H51.7508C52.4408 10.4989 53.0009 11.0589 53.0009 11.7489V24.9296L59.7012 31.1575C60.2063 31.6275 60.2363 32.4175 59.7662 32.925C59.2962 33.4301 58.5062 33.4626 57.9986 32.9875L50.8983 26.3872C50.6458 26.1547 50.5007 25.8222 50.5007 25.4747V12.999H45.5005V18.5243C45.5005 19.0218 45.2055 19.4718 44.7505 19.6694C44.2929 19.8669 43.7629 19.7769 43.4004 19.4393L34.2499 10.9539L10.4987 32.99L16.749 33C17.439 33 17.9991 33.5601 17.9991 34.2501V53.0011C17.9991 54.3812 19.1216 55.5012 20.4992 55.5012H31.7498C32.4398 55.5012 32.9998 56.0612 32.9998 56.7513C32.9998 57.4413 32.4398 58.0013 31.7498 58.0013Z" fill="#5D53A5"/>
</svg>
