<svg width="76" height="76" viewBox="0 0 76 76" fill="none" xmlns="http://www.w3.org/2000/svg">
<path d="M11 11L11 27.2C11 27.7589 11.1305 28.3097 11.3798 28.8092L16.4 38.8495L16.4 61.4C16.4 62.354 16.7789 63.2702 17.4548 63.9452C18.1298 64.6202 19.0451 65 20 65C20.9549 65 21.8702 64.6202 22.5452 63.9452C23.221 63.2702 23.6 62.354 23.6 61.4L23.6 38C23.6 37.4412 23.4695 36.8894 23.2202 36.3899L18.2 26.3496L18.2 11L11 11Z" stroke="#5E55A4" stroke-width="2.2" stroke-miterlimit="10" stroke-linecap="round" stroke-linejoin="round"/>
<path d="M27.2002 25.4L25.4001 21.8L27.2002 18.1999L25.4001 14.6L27.2002 11L18.2002 11L18.2002 25.4L27.2002 25.4Z" stroke="#E73668" stroke-width="2.2" stroke-miterlimit="10" stroke-linecap="round" stroke-linejoin="round"/>
<path d="M42 11L42 20L59 20L59 11L42 11Z" stroke="#5E55A4" stroke-width="2.2" stroke-miterlimit="10" stroke-linecap="round" stroke-linejoin="round"/>
<path d="M65.0002 65L59.6002 20L41.6002 20L36.2002 65L65.0002 65Z" stroke="#5E55A4" stroke-width="2.2" stroke-miterlimit="10" stroke-linecap="round" stroke-linejoin="round"/>
<path d="M56.1359 51.5614C56.3258 53.1436 55.829 54.732 54.7706 55.9246C53.7131 57.1171 52.1948 57.8002 50.6009 57.8002L50.5991 57.8002C49.0052 57.8002 47.4869 57.1171 46.4294 55.9246C45.371 54.732 44.8742 53.1436 45.0641 51.5614C45.8669 44.8716 47.1035 34.5685 47.6769 29.794C47.8541 28.3135 49.1097 27.2002 50.6 27.2002L50.6018 27.2002C52.0913 27.2002 53.346 28.3135 53.5232 29.7921C54.0965 34.5657 55.3331 44.8707 56.1359 51.5614Z" stroke="#E73668" stroke-width="2.2" stroke-miterlimit="10" stroke-linecap="round" stroke-linejoin="round"/>
</svg>
