<svg width="76" height="76" viewBox="0 0 76 76" fill="none" xmlns="http://www.w3.org/2000/svg">
<path d="M38.1219 11.2459C38.1076 11.2602 38.0789 11.2602 38.0359 11.2602C23.5274 11.2602 11.7285 23.0591 11.7285 37.5676C11.7285 43.4886 13.75 49.2375 17.4488 53.8681L13.6209 62.7567C13.3055 63.4879 13.6496 64.3337 14.3664 64.6348C14.6245 64.7495 14.9112 64.7782 15.1836 64.7352L29.219 62.2693C32.0289 63.2872 34.9822 63.8033 37.9642 63.789C52.4727 63.789 64.2716 51.9901 64.2716 37.4816C64.3003 23.0161 52.5874 11.2602 38.1219 11.2459ZM37.9785 60.936C35.2116 60.936 32.4734 60.4342 29.8785 59.4593C29.6347 59.359 29.3767 59.3447 29.1186 59.3877L17.3054 61.4521L20.4307 54.1835C20.6458 53.6818 20.5598 53.094 20.2014 52.6782C18.5097 50.7141 17.162 48.4776 16.2158 46.0548C15.1549 43.3452 14.6101 40.4636 14.6101 37.5533C14.6101 24.6218 25.1331 14.1132 38.0502 14.1132C50.9387 14.0845 61.4043 24.5071 61.4186 37.3956C61.4186 37.4242 61.4186 37.4529 61.4186 37.4816C61.4186 50.4274 50.8957 60.936 37.9785 60.936Z" fill="#5D53A5"/>
<path d="M47.4317 33.2882C47.428 33.2882 47.4244 33.2882 47.4208 33.2882H42.9688V28.8253C42.9748 27.9252 42.25 27.1905 41.3499 27.1845C41.3462 27.1845 41.3425 27.1845 41.339 27.1845H34.9071C34.007 27.1845 33.2773 27.9142 33.2773 28.8143V33.2772H28.8253C27.9252 33.2712 27.1906 33.9959 27.1846 34.896C27.1846 34.9034 27.1846 34.9106 27.1846 34.918V41.3389C27.1846 42.239 27.9143 42.9687 28.8144 42.9687H33.2773V47.4207C33.2713 48.3208 33.9961 49.0554 34.8962 49.0615C34.8999 49.0615 34.9036 49.0615 34.9071 49.0615H41.328C42.2281 49.0615 42.9579 48.3317 42.9579 47.4316V42.9687H47.4208C48.3209 42.9747 49.0555 42.2499 49.0615 41.3498C49.0615 41.3461 49.0615 41.3425 49.0615 41.3389V34.918C49.0615 34.0179 48.3319 33.2882 47.4317 33.2882ZM46.8738 40.781H41.8749C41.2709 40.781 40.7811 41.2708 40.7811 41.8749V46.8738H35.465V41.8749C35.465 41.2708 34.9752 40.781 34.3712 40.781H29.3723V35.4759H34.3712C34.9752 35.4759 35.465 34.9861 35.465 34.382V29.3722H40.7702V34.3711C40.7702 34.9752 41.2599 35.4649 41.864 35.4649H46.8738V40.781Z" fill="#E73668"/>
</svg>
