<svg width="159" height="53" viewBox="0 0 159 53" fill="none" xmlns="http://www.w3.org/2000/svg">
<path d="M108.022 25.4412V28.4768H106.119V30.4676H108.022V37.2317C108.022 39.5413 109.067 40.4652 111.695 40.4652C112.157 40.4652 112.597 40.4102 112.982 40.3442V38.3755C112.652 38.4085 112.443 38.4305 112.08 38.4305C110.903 38.4305 110.387 37.8806 110.387 36.6267V30.4676H112.982V28.4768H110.387V25.4412H108.022Z" fill="#52399B"/>
<path d="M119.679 40.6302C123.176 40.6302 125.321 38.2875 125.321 34.405C125.321 30.5445 123.165 28.1909 119.679 28.1909C116.181 28.1909 114.025 30.5445 114.025 34.405C114.025 38.2875 116.17 40.6302 119.679 40.6302ZM119.679 38.5295C117.622 38.5295 116.467 37.0227 116.467 34.405C116.467 31.8094 117.622 30.2916 119.679 30.2916C121.724 30.2916 122.89 31.8094 122.89 34.405C122.89 37.0117 121.724 38.5295 119.679 38.5295Z" fill="#52399B"/>
<path d="M127.156 40.3992H129.52V33.3272C129.52 31.6444 130.785 30.5115 132.578 30.5115C132.996 30.5115 133.7 30.5885 133.898 30.6545V28.3228C133.645 28.2568 133.194 28.2239 132.842 28.2239C131.28 28.2239 129.949 29.0817 129.608 30.2586H129.432V28.4218H127.156V40.3992Z" fill="#52399B"/>
<path d="M139.769 30.2036C141.518 30.2036 142.662 31.4244 142.717 33.3052H136.668C136.8 31.4354 138.021 30.2036 139.769 30.2036ZM142.706 37.1657C142.266 38.1005 141.287 38.6175 139.857 38.6175C137.966 38.6175 136.745 37.2866 136.668 35.1859V35.0539H145.126V34.2291C145.126 30.4676 143.113 28.1909 139.78 28.1909C136.404 28.1909 134.259 30.6215 134.259 34.449C134.259 38.2765 136.36 40.6302 139.791 40.6302C142.53 40.6302 144.444 39.3104 144.983 37.1657H142.706Z" fill="#52399B"/>
<path d="M92.5146 35.9762C92.697 38.9173 95.1479 40.7982 98.7958 40.7982C102.694 40.7982 105.134 38.8261 105.134 35.6798C105.134 33.206 103.743 31.8381 100.369 31.0515L98.5564 30.6069C96.4133 30.1053 95.5469 29.4328 95.5469 28.2586C95.5469 26.7766 96.8921 25.8077 98.9098 25.8077C100.825 25.8077 102.147 26.7538 102.387 28.27H104.872C104.724 25.4999 102.284 23.5505 98.944 23.5505C95.3531 23.5505 92.9592 25.4999 92.9592 28.4296C92.9592 30.8463 94.3157 32.2827 97.291 32.9781L99.4114 33.491C101.589 34.004 102.546 34.7564 102.546 36.0104C102.546 37.4695 101.042 38.5297 98.9896 38.5297C96.7895 38.5297 95.2619 37.5379 95.0453 35.9762H92.5146Z" fill="#52399B"/>
<path d="M68.0189 28.2239C66.3911 28.2239 64.9833 29.0377 64.2574 30.4016H64.0814V28.4218H61.8047V44.3807H64.1694V38.5845H64.3564C64.9833 39.8493 66.3361 40.5972 68.0409 40.5972C71.0655 40.5972 72.9902 38.2105 72.9902 34.405C72.9902 30.5995 71.0655 28.2239 68.0189 28.2239ZM67.348 38.4745C65.3682 38.4745 64.1254 36.9127 64.1254 34.416C64.1254 31.9084 65.3682 30.3466 67.359 30.3466C69.3607 30.3466 70.5595 31.8754 70.5595 34.405C70.5595 36.9457 69.3607 38.4745 67.348 38.4745Z" fill="#52399B"/>
<path d="M81.2646 28.2239C79.6369 28.2239 78.229 29.0377 77.5031 30.4016H77.3272V28.4218H75.0505V44.3807H77.4151V38.5845H77.6021C78.229 39.8493 79.5819 40.5972 81.2866 40.5972C84.3112 40.5972 86.236 38.2105 86.236 34.405C86.236 30.5995 84.3112 28.2239 81.2646 28.2239ZM80.5937 38.4745C78.614 38.4745 77.3712 36.9127 77.3712 34.416C77.3712 31.9084 78.614 30.3466 80.6047 30.3466C82.6065 30.3466 83.8053 31.8754 83.8053 34.405C83.8053 36.9457 82.6065 38.4745 80.5937 38.4745Z" fill="#52399B"/>
<path d="M57.5621 40.3992H60.2752L54.336 23.9495H51.5886L45.6494 40.3992H48.2713L49.7875 36.0332H56.0573L57.5621 40.3992ZM52.8312 26.9362H53.025L55.4075 33.89H50.4373L52.8312 26.9362Z" fill="#52399B"/>
<path d="M47.2378 11.5421V19.4775H50.1029C52.4676 19.4775 53.8369 18.0202 53.8369 15.485C53.8369 12.9884 52.4566 11.5421 50.1029 11.5421H47.2378ZM48.4696 12.6639H49.9654C51.6097 12.6639 52.5831 13.7088 52.5831 15.5015C52.5831 17.3218 51.6262 18.3557 49.9654 18.3557H48.4696V12.6639Z" fill="#52399B"/>
<path d="M58.0307 19.593C59.7794 19.593 60.8518 18.4216 60.8518 16.4804C60.8518 14.5502 59.7739 13.3733 58.0307 13.3733C56.2819 13.3733 55.204 14.5502 55.204 16.4804C55.204 18.4216 56.2764 19.593 58.0307 19.593ZM58.0307 18.5426C57.0023 18.5426 56.4249 17.7892 56.4249 16.4804C56.4249 15.1826 57.0023 14.4237 58.0307 14.4237C59.0535 14.4237 59.6364 15.1826 59.6364 16.4804C59.6364 17.7837 59.0535 18.5426 58.0307 18.5426Z" fill="#52399B"/>
<path d="M69.9839 13.4888H68.8015L67.7347 18.0587H67.6412L66.4093 13.4888H65.2765L64.0447 18.0587H63.9567L62.8843 13.4888H61.6855L63.3352 19.4775H64.5506L65.7824 15.0671H65.8759L67.1132 19.4775H68.3396L69.9839 13.4888Z" fill="#52399B"/>
<path d="M71.3455 19.4775H72.5278V15.9745C72.5278 15.0396 73.0833 14.4567 73.9576 14.4567C74.832 14.4567 75.25 14.9351 75.25 15.8975V19.4775H76.4323V15.6005C76.4323 14.1762 75.6954 13.3733 74.3591 13.3733C73.4572 13.3733 72.8633 13.7748 72.5718 14.4402H72.4838V13.4888H71.3455V19.4775Z" fill="#52399B"/>
<path d="M78.2944 19.4775H79.4767V11.1516H78.2944V19.4775Z" fill="#52399B"/>
<path d="M83.9234 19.593C85.6722 19.593 86.7445 18.4216 86.7445 16.4804C86.7445 14.5502 85.6667 13.3733 83.9234 13.3733C82.1746 13.3733 81.0968 14.5502 81.0968 16.4804C81.0968 18.4216 82.1691 19.593 83.9234 19.593ZM83.9234 18.5426C82.895 18.5426 82.3176 17.7892 82.3176 16.4804C82.3176 15.1826 82.895 14.4237 83.9234 14.4237C84.9463 14.4237 85.5292 15.1826 85.5292 16.4804C85.5292 17.7837 84.9463 18.5426 83.9234 18.5426Z" fill="#52399B"/>
<path d="M90.2674 18.5811C89.6239 18.5811 89.1565 18.2677 89.1565 17.7287C89.1565 17.2008 89.5305 16.9203 90.3553 16.8654L91.8182 16.7719V17.2723C91.8182 18.0147 91.1582 18.5811 90.2674 18.5811ZM89.9649 19.5765C90.7513 19.5765 91.4057 19.2355 91.7632 18.6361H91.8566V19.4775H92.995V15.386C92.995 14.1212 92.1481 13.3733 90.6468 13.3733C89.2885 13.3733 88.3206 14.0332 88.1996 15.0616H89.3435C89.4755 14.6381 89.9319 14.3962 90.5918 14.3962C91.4002 14.3962 91.8182 14.7536 91.8182 15.386V15.903L90.1959 15.9965C88.7716 16.0845 87.9687 16.7059 87.9687 17.7837C87.9687 18.8781 88.8101 19.5765 89.9649 19.5765Z" fill="#52399B"/>
<path d="M97.0073 19.5765C97.8322 19.5765 98.5306 19.186 98.888 18.5316H98.9815V19.4775H100.114V11.1516H98.932V14.4402H98.844C98.5196 13.7803 97.8267 13.3898 97.0073 13.3898C95.495 13.3898 94.5216 14.5887 94.5216 16.4804C94.5216 18.3776 95.484 19.5765 97.0073 19.5765ZM97.3427 14.4512C98.3326 14.4512 98.954 15.2376 98.954 16.4859C98.954 17.7397 98.3381 18.5151 97.3427 18.5151C96.3419 18.5151 95.7424 17.7507 95.7424 16.4804C95.7424 15.2211 96.3474 14.4512 97.3427 14.4512Z" fill="#52399B"/>
<path d="M107.781 19.593C109.53 19.593 110.603 18.4216 110.603 16.4804C110.603 14.5502 109.525 13.3733 107.781 13.3733C106.033 13.3733 104.955 14.5502 104.955 16.4804C104.955 18.4216 106.027 19.593 107.781 19.593ZM107.781 18.5426C106.753 18.5426 106.176 17.7892 106.176 16.4804C106.176 15.1826 106.753 14.4237 107.781 14.4237C108.804 14.4237 109.387 15.1826 109.387 16.4804C109.387 17.7837 108.804 18.5426 107.781 18.5426Z" fill="#52399B"/>
<path d="M112.168 19.4775H113.35V15.9745C113.35 15.0396 113.905 14.4567 114.78 14.4567C115.654 14.4567 116.072 14.9351 116.072 15.8975V19.4775H117.254V15.6005C117.254 14.1762 116.518 13.3733 115.181 13.3733C114.279 13.3733 113.685 13.7748 113.394 14.4402H113.306V13.4888H112.168V19.4775Z" fill="#52399B"/>
<path d="M122.7 11.9985V13.5163H121.748V14.5117H122.7V17.8937C122.7 19.0486 123.222 19.5105 124.537 19.5105C124.768 19.5105 124.988 19.483 125.18 19.45V18.4656C125.015 18.4821 124.911 18.4931 124.729 18.4931C124.141 18.4931 123.882 18.2182 123.882 17.5913V14.5117H125.18V13.5163H123.882V11.9985H122.7Z" fill="#52399B"/>
<path d="M126.767 19.4775H127.949V15.98C127.949 15.0726 128.488 14.4622 129.456 14.4622C130.292 14.4622 130.738 14.9461 130.738 15.903V19.4775H131.92V15.6115C131.92 14.1872 131.134 13.3788 129.858 13.3788C128.956 13.3788 128.323 13.7803 128.032 14.4512H127.938V11.1516H126.767V19.4775Z" fill="#52399B"/>
<path d="M136.185 14.3797C137.06 14.3797 137.631 14.9901 137.659 15.9305H134.634C134.7 14.9956 135.311 14.3797 136.185 14.3797ZM137.653 17.8607C137.433 18.3282 136.944 18.5866 136.229 18.5866C135.283 18.5866 134.673 17.9212 134.634 16.8708V16.8049H138.863V16.3924C138.863 14.5117 137.857 13.3733 136.191 13.3733C134.502 13.3733 133.43 14.5887 133.43 16.5024C133.43 18.4161 134.48 19.593 136.196 19.593C137.565 19.593 138.522 18.9331 138.792 17.8607H137.653Z" fill="#52399B"/>
<path d="M32.819 26.8987C32.8477 24.6713 34.0438 22.5638 35.9414 21.3972C34.7443 19.6875 32.7392 18.6035 30.6531 18.5383C28.4281 18.3047 26.2711 19.8697 25.1373 19.8697C23.9815 19.8697 22.2358 18.5614 20.356 18.6001C17.9058 18.6793 15.6215 20.0724 14.4294 22.2145C11.8668 26.6512 13.7783 33.1716 16.233 36.7579C17.4611 38.5139 18.8965 40.4755 20.7746 40.406C22.6124 40.3298 23.2989 39.234 25.5173 39.234C27.7152 39.234 28.3591 40.406 30.2754 40.3617C32.2475 40.3297 33.49 38.5979 34.6751 36.8251C35.5575 35.5739 36.2365 34.1909 36.687 32.7276C34.3694 31.7473 32.8217 29.415 32.819 26.8987Z" fill="#52399B"/>
<path d="M29.1995 16.1798C30.2748 14.8889 30.8045 13.2298 30.6762 11.5547C29.0335 11.7272 27.516 12.5124 26.4262 13.7537C25.3605 14.9665 24.8059 16.5964 24.9108 18.2075C26.5542 18.2244 28.1697 17.4606 29.1995 16.1798Z" fill="#52399B"/>
<rect x="0.5" y="0.5" width="158" height="52" rx="6.5" stroke="#7C4EFF"/>
</svg>
