<svg width="180" height="52" viewBox="0 0 180 52" fill="none" xmlns="http://www.w3.org/2000/svg">
<path d="M173.333 1.04162C176.42 1.04162 178.932 3.4905 178.932 6.5V45.5C178.932 48.5095 176.42 50.9584 173.333 50.9584H6.66667C3.58 50.9584 1.06833 48.5095 1.06833 45.5V6.5C1.06833 3.4905 3.58 1.04162 6.66667 1.04162H173.333ZM173.333 2.74817e-06H6.66667C3.00167 2.74817e-06 0 2.92663 0 6.5V45.5C0 49.0734 3.00167 52 6.66667 52H173.333C176.998 52 180 49.0734 180 45.5V6.5C180 2.92663 176.998 2.74817e-06 173.333 2.74817e-06Z" fill="#7C4EFF"/>
<path d="M40.1705 25.7191C40.1318 21.5292 43.6891 19.4908 43.8518 19.3959C41.8371 16.532 38.7145 16.1407 37.6171 16.1095C34.9945 15.8404 32.4505 17.6396 31.1145 17.6396C29.7518 17.6396 27.6945 16.1355 25.4771 16.1797C22.6238 16.2226 19.9545 17.8333 18.4905 20.3345C15.4691 25.4344 17.7225 32.9289 20.6171 37.0512C22.0651 39.0701 23.7571 41.3243 25.9718 41.245C28.1385 41.1579 28.9478 39.8982 31.5625 39.8982C34.1531 39.8982 34.9131 41.245 37.1718 41.1943C39.4971 41.1579 40.9611 39.1663 42.3585 37.1292C44.0318 34.8152 44.7038 32.5363 44.7305 32.4193C44.6758 32.4011 40.2145 30.741 40.1705 25.7191Z" fill="#52399B"/>
<path d="M35.9038 13.3977C37.0691 11.9768 37.8665 10.0437 37.6451 8.08203C35.9585 8.15483 33.8491 9.21953 32.6345 10.6092C31.5598 11.8338 30.5998 13.841 30.8478 15.7286C32.7425 15.8664 34.6878 14.7965 35.9038 13.3977Z" fill="#52399B"/>
<path d="M71.5269 40.9557H68.4989L66.8402 35.874H61.0749L59.4949 40.9557H56.5469L62.2589 23.6553H65.7869L71.5269 40.9557ZM66.3402 33.742L64.8402 29.2245C64.6815 28.763 64.3842 27.6762 63.9455 25.9654H63.8922C63.7175 26.7012 63.4362 27.788 63.0495 29.2245L61.5762 33.742H66.3402Z" fill="#52399B"/>
<path d="M86.2159 34.5647C86.2159 36.6863 85.6279 38.3633 84.4519 39.5944C83.3985 40.6903 82.0905 41.2376 80.5292 41.2376C78.8439 41.2376 77.6332 40.6474 76.8959 39.467H76.8425V46.0385H73.9999V32.5874C73.9999 31.2536 73.9639 29.8847 73.8945 28.4807H76.3945L76.5532 30.458H76.6065C77.5545 28.9682 78.9932 28.2246 80.9239 28.2246C82.4332 28.2246 83.6932 28.8057 84.7012 29.9692C85.7119 31.134 86.2159 32.6654 86.2159 34.5647ZM83.3199 34.6661C83.3199 33.4519 83.0399 32.4509 82.4772 31.6631C81.8625 30.8415 81.0372 30.4307 80.0025 30.4307C79.3012 30.4307 78.6639 30.6595 78.0945 31.1106C77.5239 31.5656 77.1505 32.1597 76.9759 32.8955C76.8879 33.2387 76.8439 33.5195 76.8439 33.7405V35.8205C76.8439 36.7279 77.1292 37.4936 77.6999 38.1189C78.2705 38.7442 79.0119 39.0562 79.9239 39.0562C80.9945 39.0562 81.8279 38.6532 82.4239 37.8498C83.0212 37.0451 83.3199 35.9843 83.3199 34.6661Z" fill="#52399B"/>
<path d="M100.932 34.5647C100.932 36.6863 100.344 38.3633 99.167 39.5944C98.115 40.6903 96.807 41.2376 95.2456 41.2376C93.5603 41.2376 92.3496 40.6474 91.6136 39.467H91.5603V46.0385H88.7176V32.5874C88.7176 31.2536 88.6816 29.8847 88.6123 28.4807H91.1123L91.271 30.458H91.3243C92.271 28.9682 93.7096 28.2246 95.6416 28.2246C97.1496 28.2246 98.4096 28.8057 99.4203 29.9692C100.427 31.134 100.932 32.6654 100.932 34.5647ZM98.0363 34.6661C98.0363 33.4519 97.755 32.4509 97.1923 31.6631C96.5776 30.8415 95.755 30.4307 94.719 30.4307C94.0163 30.4307 93.3803 30.6595 92.8096 31.1106C92.239 31.5656 91.867 32.1597 91.6923 32.8955C91.6056 33.2387 91.5603 33.5195 91.5603 33.7405V35.8205C91.5603 36.7279 91.8456 37.4936 92.4136 38.1189C92.9843 38.7429 93.7256 39.0562 94.6403 39.0562C95.711 39.0562 96.5443 38.6532 97.1403 37.8498C97.7376 37.0451 98.0363 35.9843 98.0363 34.6661Z" fill="#52399B"/>
<path d="M117.386 36.1037C117.386 37.5753 116.862 38.7726 115.81 39.6969C114.654 40.707 113.045 41.2114 110.977 41.2114C109.067 41.2114 107.537 40.8526 106.378 40.1337L107.037 37.8236C108.285 38.5594 109.654 38.9286 111.146 38.9286C112.217 38.9286 113.05 38.692 113.649 38.2214C114.245 37.7508 114.542 37.119 114.542 36.3312C114.542 35.6292 114.297 35.0377 113.805 34.558C113.315 34.0783 112.498 33.6324 111.357 33.2203C108.25 32.0906 106.698 30.4357 106.698 28.2595C106.698 26.8373 107.242 25.6712 108.331 24.7638C109.417 23.8551 110.865 23.4014 112.675 23.4014C114.29 23.4014 115.631 23.6757 116.702 24.223L115.991 26.4824C114.991 25.952 113.861 25.6868 112.595 25.6868C111.595 25.6868 110.814 25.9273 110.254 26.4057C109.781 26.8334 109.543 27.3547 109.543 27.9722C109.543 28.656 109.814 29.2215 110.358 29.6661C110.831 30.0769 111.691 30.5215 112.939 31.0012C114.466 31.6005 115.587 32.3012 116.309 33.1046C117.027 33.9054 117.386 34.9077 117.386 36.1037Z" fill="#52399B"/>
<path d="M126.784 30.5604H123.651V36.6171C123.651 38.1576 124.203 38.9272 125.31 38.9272C125.818 38.9272 126.239 38.8843 126.572 38.7985L126.651 40.9032C126.091 41.1073 125.354 41.21 124.44 41.21C123.318 41.21 122.44 40.8759 121.807 40.209C121.176 39.5408 120.859 38.4202 120.859 36.8459V30.5578H118.992V28.4778H120.859V26.1937L123.651 25.3721V28.4778H126.784V30.5604Z" fill="#52399B"/>
<path d="M140.922 34.6151C140.922 36.5326 140.359 38.1069 139.236 39.338C138.059 40.6055 136.496 41.2373 134.548 41.2373C132.671 41.2373 131.176 40.6302 130.062 39.416C128.947 38.2018 128.39 36.6691 128.39 34.8218C128.39 32.8887 128.963 31.3053 130.114 30.0742C131.262 28.8418 132.811 28.2256 134.759 28.2256C136.636 28.2256 138.147 28.8327 139.287 30.0482C140.378 31.2273 140.922 32.7496 140.922 34.6151ZM137.972 34.7048C137.972 33.5543 137.72 32.5676 137.21 31.7447C136.614 30.7489 135.762 30.2523 134.658 30.2523C133.515 30.2523 132.647 30.7502 132.051 31.7447C131.54 32.5689 131.288 33.5712 131.288 34.7568C131.288 35.9073 131.54 36.894 132.051 37.7156C132.666 38.7114 133.524 39.208 134.632 39.208C135.718 39.208 136.57 38.701 137.184 37.6896C137.708 36.8511 137.972 35.854 137.972 34.7048Z" fill="#52399B"/>
<path d="M150.162 30.9182C149.88 30.8675 149.58 30.8415 149.266 30.8415C148.266 30.8415 147.492 31.2094 146.948 31.9465C146.475 32.5965 146.238 33.4181 146.238 34.41V40.9555H143.396L143.423 32.4093C143.423 30.9715 143.387 29.6624 143.316 28.482H145.792L145.896 30.8688H145.975C146.275 30.0485 146.748 29.3881 147.396 28.8928C148.03 28.4469 148.714 28.2246 149.451 28.2246C149.714 28.2246 149.951 28.2428 150.162 28.2753V30.9182Z" fill="#52399B"/>
<path d="M162.875 34.1279C162.875 34.6245 162.841 35.0431 162.771 35.385H154.243C154.276 36.6174 154.688 37.5599 155.48 38.2099C156.199 38.791 157.128 39.0822 158.269 39.0822C159.532 39.0822 160.684 38.8859 161.72 38.492L162.165 40.416C160.955 40.9308 159.525 41.1869 157.876 41.1869C155.892 41.1869 154.335 40.6175 153.201 39.48C152.071 38.3425 151.504 36.815 151.504 34.8988C151.504 33.0177 152.031 31.4512 153.085 30.2019C154.189 28.8681 155.681 28.2012 157.559 28.2012C159.403 28.2012 160.799 28.8681 161.747 30.2019C162.497 31.2614 162.875 32.5718 162.875 34.1279ZM160.164 33.409C160.183 32.5874 159.997 31.8776 159.612 31.2783C159.12 30.5074 158.364 30.1226 157.347 30.1226C156.417 30.1226 155.661 30.4983 155.084 31.2523C154.611 31.8516 154.329 32.5705 154.243 33.4077H160.164V33.409Z" fill="#52399B"/>
<path d="M60.0903 12.0246H61.2905C61.497 12.0503 61.7067 12.033 61.9063 11.9738C62.1059 11.9146 62.291 11.8149 62.4499 11.6808C62.6089 11.5468 62.7383 11.3814 62.83 11.195C62.9217 11.0086 62.9737 10.8053 62.9827 10.5979C62.9827 9.77243 62.3599 9.23922 61.3037 9.23922C61.092 9.20973 60.8766 9.22282 60.6701 9.27774C60.4636 9.33265 60.2702 9.42827 60.1014 9.55894C59.9325 9.68961 59.7917 9.85269 59.6871 10.0386C59.5825 10.2244 59.5163 10.4293 59.4924 10.6411H58.1748C58.1974 10.2566 58.2992 9.88095 58.4738 9.53743C58.6484 9.19392 58.892 8.88992 59.1895 8.64436C59.4871 8.3988 59.8321 8.21695 60.2031 8.11012C60.5741 8.00329 60.9633 7.97377 61.3462 8.0234C63.1134 8.0234 64.3577 9.00996 64.3577 10.4301C64.3618 10.9059 64.2022 11.3687 63.9054 11.7413C63.6087 12.1138 63.1928 12.3736 62.7271 12.4773V12.5827C63.2792 12.6071 63.799 12.8485 64.1731 13.2541C64.5472 13.6596 64.7451 14.1964 64.7234 14.747C64.6826 15.1429 64.5629 15.5266 64.3714 15.8757C64.1799 16.2248 63.9204 16.5323 63.6082 16.7801C63.296 17.028 62.9373 17.2111 62.5532 17.3189C62.1691 17.4267 61.7673 17.457 61.3713 17.4079C60.9744 17.4619 60.5708 17.4356 60.1843 17.3307C59.7979 17.2257 59.4366 17.0443 59.122 16.7971C58.8074 16.55 58.5459 16.2422 58.3532 15.8921C58.1604 15.542 58.0403 15.1568 58 14.7595H59.3382C59.419 15.6157 60.2079 16.168 61.3713 16.168C62.5347 16.168 63.2941 15.5476 63.2941 14.6731C63.2941 13.7862 62.5787 13.2398 61.3287 13.2398H60.0903V12.0246Z" fill="#52399B"/>
<path d="M66.2441 15.2803C66.2441 14.0644 67.1534 13.3635 68.7634 13.2639L70.5981 13.1584V12.5754C70.5981 11.8621 70.1266 11.4592 69.2114 11.4592C68.4652 11.4592 67.9496 11.7324 67.7998 12.21H66.5056C66.6422 11.0498 67.7381 10.3057 69.2746 10.3057C70.9727 10.3057 71.9305 11.1487 71.9305 12.5754V17.1904H70.6422V16.2412H70.5364C70.3218 16.5817 70.0203 16.8593 69.6629 17.0456C69.3054 17.2319 68.9048 17.3203 68.5019 17.3017C68.2176 17.3312 67.9302 17.301 67.6583 17.2129C67.3864 17.1249 67.136 16.981 66.9233 16.7905C66.7106 16.6001 66.5402 16.3673 66.4232 16.1071C66.3063 15.847 66.2453 15.5653 66.2441 15.2803ZM70.5981 14.7031V14.1384L68.944 14.2439C68.0112 14.3061 67.5882 14.6225 67.5882 15.218C67.5882 15.8259 68.117 16.1797 68.8442 16.1797C69.0572 16.2012 69.2725 16.1797 69.4771 16.1166C69.6817 16.0535 69.8714 15.9499 70.0351 15.8122C70.1987 15.6744 70.3329 15.5052 70.4296 15.3147C70.5263 15.1242 70.5837 14.9162 70.5981 14.7031Z" fill="#52399B"/>
<path d="M75.4774 11.5586V17.1909H74.1406V10.4365H78.6004V11.5585L75.4774 11.5586Z" fill="#52399B"/>
<path d="M86.7023 13.8102C86.7023 15.9562 85.6138 17.3017 83.9039 17.3017C83.4842 17.3303 83.065 17.2387 82.6957 17.0377C82.3264 16.8367 82.0224 16.5347 81.8195 16.1672H81.7137V19.436H80.377V10.436H81.6638V11.5522H81.7637C81.9702 11.1719 82.2782 10.8559 82.6536 10.6391C83.0289 10.4224 83.4571 10.3133 83.8907 10.324C85.6138 10.3239 86.7023 11.6635 86.7023 13.8102ZM85.3273 13.8102C85.3273 12.3835 84.6501 11.5214 83.5176 11.5214C82.3924 11.5214 81.6887 12.4018 81.6887 13.8161C81.6887 15.2238 82.3924 16.1049 83.5117 16.1049C84.6501 16.1049 85.3273 15.2428 85.3273 13.8102Z" fill="#52399B"/>
<path d="M88.4815 19.6101V18.4624C88.6261 18.4807 88.7719 18.4891 88.9177 18.4873C89.2025 18.5083 89.4851 18.4238 89.7112 18.2498C89.9373 18.0758 90.091 17.8247 90.1428 17.5447L90.2427 17.2158L87.791 10.4365H89.2467L90.9449 15.8015H91.0507L92.7429 10.4365H94.1605L91.6354 17.47C91.0566 19.1135 90.4161 19.6409 89.0353 19.6409C88.9236 19.6409 88.6063 19.6284 88.4815 19.6101Z" fill="#52399B"/>
<path d="M95.2021 15.2733H96.533C96.6638 15.8688 97.2235 16.1793 98.0064 16.1793C98.8966 16.1793 99.443 15.7882 99.443 15.1803C99.443 14.5292 98.9524 14.2187 98.0064 14.2187H96.9928V13.183H97.9888C98.7967 13.183 99.208 12.8732 99.208 12.3085C99.208 11.8127 98.8099 11.434 97.9888 11.434C97.2411 11.434 96.6946 11.7504 96.6079 12.2837H95.3197C95.416 11.671 95.7496 11.1204 96.2487 10.7505C96.7479 10.3805 97.3727 10.2207 97.9888 10.3054C99.5987 10.3054 100.52 11.0312 100.52 12.1723C100.527 12.4901 100.425 12.8008 100.231 13.0525C100.036 13.3042 99.7605 13.4816 99.4504 13.5551V13.6606C99.8196 13.7081 100.158 13.8891 100.403 14.1692C100.647 14.4494 100.78 14.8092 100.775 15.1804C100.775 16.4644 99.6795 17.3139 98.0064 17.3139C96.5272 17.3139 95.3256 16.6379 95.2021 15.2733Z" fill="#52399B"/>
<path d="M102.701 17.1909V10.4365H104.026V15.0823H104.132L107.253 10.4365H108.578V17.1909H107.253V12.5203H107.154L104.026 17.1909L102.701 17.1909Z" fill="#52399B"/>
<path d="M115.877 11.5585H113.744V17.1908H112.405V11.5585H110.272V10.4365H115.877V11.5585Z" fill="#52399B"/>
<path d="M123.079 15.3668C122.896 15.9841 122.503 16.5179 121.966 16.8751C121.429 17.2323 120.784 17.3901 120.142 17.3209C119.696 17.3327 119.252 17.2474 118.843 17.0711C118.433 16.8948 118.066 16.6317 117.768 16.3C117.471 15.9683 117.249 15.576 117.119 15.1502C116.988 14.7245 116.952 14.2756 117.013 13.8346C116.954 13.3923 116.99 12.9424 117.121 12.5154C117.251 12.0883 117.471 11.6942 117.767 11.3596C118.063 11.025 118.428 10.7577 118.837 10.5759C119.246 10.3941 119.689 10.302 120.136 10.3058C122.021 10.3058 123.159 11.5898 123.159 13.7108V14.1759H118.376V14.2506C118.355 14.4985 118.386 14.7481 118.468 14.9834C118.549 15.2186 118.679 15.4343 118.849 15.6165C119.019 15.7988 119.225 15.9435 119.454 16.0415C119.683 16.1396 119.931 16.1886 120.18 16.1856C120.5 16.2237 120.824 16.1662 121.11 16.0204C121.397 15.8746 121.634 15.6471 121.79 15.3668L123.079 15.3668ZM118.376 13.1901H121.796C121.813 12.9635 121.782 12.7359 121.706 12.5219C121.629 12.3079 121.509 12.1122 121.352 11.9475C121.195 11.7827 121.005 11.6524 120.795 11.5651C120.584 11.4778 120.358 11.4353 120.13 11.4403C119.899 11.4372 119.67 11.4803 119.455 11.5671C119.241 11.654 119.046 11.7827 118.883 11.9459C118.719 12.109 118.59 12.3031 118.503 12.5168C118.416 12.7305 118.373 12.9595 118.376 13.1901H118.376Z" fill="#52399B"/>
<path d="M128.745 10.4365H131.799C133.124 10.4365 133.901 11.106 133.901 12.154C133.903 12.4866 133.791 12.8098 133.582 13.0695C133.374 13.3292 133.083 13.5097 132.757 13.5808V13.6862C133.152 13.7112 133.523 13.8866 133.793 14.1764C134.062 14.4662 134.21 14.8482 134.205 15.2434C134.205 16.4218 133.317 17.1909 131.83 17.1909H128.745V10.4365ZM130.07 11.4597V13.2087H131.395C132.203 13.2087 132.589 12.8989 132.589 12.3276C132.589 11.801 132.253 11.4597 131.544 11.4597L130.07 11.4597ZM130.07 14.1887V16.1677H131.655C132.445 16.1677 132.869 15.8198 132.869 15.1812C132.869 14.5052 132.39 14.1887 131.488 14.1887L130.07 14.1887Z" fill="#52399B"/>
</svg>
