<svg width="180" height="52" viewBox="0 0 180 52" fill="none" xmlns="http://www.w3.org/2000/svg">
<path d="M173.333 1.04162C176.42 1.04162 178.932 3.4905 178.932 6.5V45.5C178.932 48.5095 176.42 50.9584 173.333 50.9584H6.66667C3.58 50.9584 1.06833 48.5095 1.06833 45.5V6.5C1.06833 3.4905 3.58 1.04162 6.66667 1.04162H173.333ZM173.333 2.74817e-06H6.66667C3.00167 2.74817e-06 0 2.92663 0 6.5V45.5C0 49.0734 3.00167 52 6.66667 52H173.333C176.998 52 180 49.0734 180 45.5V6.5C180 2.92663 176.998 2.74817e-06 173.333 2.74817e-06Z" fill="#7C4EFF"/>
<path d="M12.9133 9.80044C12.5216 10.2002 12.2949 10.8226 12.2949 11.6286V40.3781C12.2949 41.1841 12.5216 41.8064 12.9133 42.2062L13.0099 42.2939L29.5332 26.1902V25.8099L13.0099 9.7062L12.9133 9.80044Z" fill="#52399B"/>
<path d="M37.0349 31.5615L31.5332 26.1909V25.8106L37.0415 20.44L37.1649 20.5099L43.6882 24.1288C45.5499 25.1558 45.5499 26.8458 43.6882 27.8793L37.1649 31.4916L37.0349 31.5615Z" fill="#52399B"/>
<path d="M36.1647 32.4912L30.5331 27.0003L13.9131 43.2065C14.5314 43.8402 15.5398 43.9166 16.6864 43.2828L36.1647 32.4912Z" fill="#52399B"/>
<path d="M36.1647 19.5091L16.6864 8.71751C15.5398 8.09025 14.5314 8.16663 13.9131 8.80038L30.5331 25L36.1647 19.5091Z" fill="#52399B"/>
<path d="M90.8464 28.2783C87.7147 28.2783 85.1564 30.602 85.1564 33.8082C85.1564 36.9883 87.7147 39.3364 90.8464 39.3364C93.9847 39.3364 96.543 36.9883 96.543 33.8082C96.543 30.602 93.9847 28.2783 90.8464 28.2783ZM90.8464 37.1589C89.128 37.1589 87.6497 35.776 87.6497 33.8082C87.6497 31.8143 89.128 30.4558 90.8464 30.4558C92.5647 30.4558 94.0497 31.8143 94.0497 33.8082C94.0497 35.776 92.5647 37.1589 90.8464 37.1589ZM78.4314 28.2783C75.293 28.2783 72.7414 30.602 72.7414 33.8082C72.7414 36.9883 75.293 39.3364 78.4314 39.3364C81.568 39.3364 84.1214 36.9883 84.1214 33.8082C84.1214 30.602 81.568 28.2783 78.4314 28.2783ZM78.4314 37.1589C76.7114 37.1589 75.2281 35.776 75.2281 33.8082C75.2281 31.8143 76.7114 30.4558 78.4314 30.4558C80.1497 30.4558 81.6281 31.8143 81.6281 33.8082C81.6281 35.776 80.1497 37.1589 78.4314 37.1589ZM63.6581 29.9732V32.3229H69.4131C69.2447 33.6359 68.7947 34.6012 68.1047 35.2739C67.2647 36.0864 65.9564 36.9883 63.6581 36.9883C60.1164 36.9883 57.3431 34.2014 57.3431 30.7483C57.3431 27.2952 60.1164 24.5083 63.6581 24.5083C65.5731 24.5083 66.9664 25.2379 67.9947 26.1837L69.6931 24.5278C68.2547 23.1888 66.3414 22.1602 63.6581 22.1602C58.8014 22.1602 54.7197 26.013 54.7197 30.7483C54.7197 35.4835 58.8014 39.3364 63.6581 39.3364C66.2831 39.3364 68.2547 38.4979 69.8047 36.9249C71.3931 35.3763 71.8881 33.1988 71.8881 31.4405C71.8881 30.8945 71.8414 30.3924 71.7581 29.9732H63.6581ZM124.068 31.7948C123.6 30.5582 122.155 28.2783 119.211 28.2783C116.295 28.2783 113.866 30.5192 113.866 33.8082C113.866 36.9054 116.27 39.3364 119.491 39.3364C122.096 39.3364 123.6 37.7878 124.218 36.8859L122.285 35.6298C121.64 36.5495 120.761 37.1589 119.491 37.1589C118.23 37.1589 117.325 36.595 116.745 35.4835L124.33 32.4237L124.068 31.7948ZM116.335 33.6359C116.27 31.5039 118.033 30.4119 119.296 30.4119C120.286 30.4119 121.126 30.8945 121.406 31.5852L116.335 33.6359ZM110.17 39H112.663V22.75H110.17V39ZM106.086 29.51H106.003C105.443 28.8633 104.375 28.2783 103.021 28.2783C100.181 28.2783 97.5847 30.7093 97.5847 33.826C97.5847 36.9249 100.181 39.3364 103.021 39.3364C104.375 39.3364 105.443 38.7465 106.003 38.0803H106.086V38.8733C106.086 40.9874 104.928 42.1233 103.06 42.1233C101.536 42.1233 100.591 41.0508 100.201 40.1489L98.033 41.0313C98.658 42.497 100.313 44.3008 103.06 44.3008C105.983 44.3008 108.45 42.6238 108.45 38.5434V28.6147H106.086V29.51ZM103.235 37.1589C101.516 37.1589 100.078 35.7565 100.078 33.826C100.078 31.8777 101.516 30.4558 103.235 30.4558C104.928 30.4558 106.263 31.8777 106.263 33.826C106.263 35.7565 104.928 37.1589 103.235 37.1589ZM135.741 22.75H129.778V39H132.265V32.8429H135.741C138.503 32.8429 141.211 30.8945 141.211 27.7957C141.211 24.6984 138.496 22.75 135.741 22.75ZM135.806 30.5825H132.265V25.0104H135.806C137.663 25.0104 138.723 26.5135 138.723 27.7957C138.723 29.0534 137.663 30.5825 135.806 30.5825ZM151.178 28.2474C149.381 28.2474 147.513 29.0209 146.745 30.7353L148.951 31.6372C149.426 30.7353 150.3 30.4428 151.223 30.4428C152.513 30.4428 153.821 31.1984 153.841 32.5325V32.7032C153.391 32.4497 152.428 32.0743 151.243 32.0743C148.866 32.0743 146.445 33.3499 146.445 35.7305C146.445 37.908 148.391 39.3104 150.58 39.3104C152.253 39.3104 153.176 38.5743 153.756 37.7179H153.841V38.974H156.243V32.7405C156.243 29.8594 154.036 28.2474 151.178 28.2474ZM150.878 37.1524C150.065 37.1524 148.931 36.7592 148.931 35.776C148.931 34.5183 150.345 34.0357 151.568 34.0357C152.663 34.0357 153.176 34.2713 153.841 34.5817C153.646 36.0864 152.318 37.1524 150.878 37.1524ZM164.993 28.6033L162.135 35.6477H162.05L159.095 28.6033H156.413L160.853 38.4475L158.32 43.9254H160.918L167.76 28.6033H164.993ZM142.578 39H145.071V22.75H142.578V39Z" fill="#52399B"/>
<path d="M56.1462 18.9091H55.1729V16.2591H55.9995C56.3715 15.8579 56.6512 15.381 56.8192 14.8617C56.9873 14.3423 57.0397 13.7929 56.9728 13.2514V9.27637H62.3062V16.2459H63.1995V18.8959H62.2128V17.2264H56.1462V18.9091ZM57.9995 13.2514C58.059 14.3157 57.7941 15.3732 57.2395 16.2856H61.2395V10.2569H57.9995V13.2514Z" fill="#52399B" stroke="#52399B" stroke-width="0.411304" stroke-miterlimit="10"/>
<path d="M71.2138 16.1916C70.8298 16.5742 70.3737 16.8777 69.8715 17.0848C69.3693 17.2919 68.8309 17.3986 68.2871 17.3986C67.7434 17.3986 67.205 17.2919 66.7028 17.0848C66.2006 16.8777 65.7444 16.5742 65.3605 16.1916C64.5977 15.3999 64.1719 14.3461 64.1719 13.2501C64.1719 12.154 64.5977 11.1002 65.3605 10.3086C65.7444 9.92596 66.2006 9.62241 66.7028 9.41529C67.205 9.20818 67.7434 9.10156 68.2871 9.10156C68.8309 9.10156 69.3693 9.20818 69.8715 9.41529C70.3737 9.62241 70.8298 9.92596 71.2138 10.3086C71.599 10.6955 71.9024 11.155 72.1062 11.6602C72.31 12.1653 72.41 12.7059 72.4005 13.2501C72.4162 13.795 72.319 14.3374 72.1149 14.8434C71.9107 15.3494 71.604 15.8083 71.2138 16.1916ZM66.1071 15.5291C66.3881 15.819 66.7259 16.0486 67.0998 16.2036C67.4736 16.3586 67.8754 16.4356 68.2805 16.4301C68.6858 16.438 69.0884 16.3621 69.4626 16.2069C69.8368 16.0518 70.1743 15.821 70.4538 15.5291C71.0291 14.9078 71.3485 14.0944 71.3485 13.2501C71.3485 12.4058 71.0291 11.5923 70.4538 10.9711C70.1743 10.6792 69.8368 10.4483 69.4626 10.2932C69.0884 10.1381 68.6858 10.0621 68.2805 10.0701C67.8754 10.0645 67.4736 10.1416 67.0998 10.2965C66.7259 10.4515 66.3881 10.6811 66.1071 10.9711C65.5403 11.5965 65.2266 12.4084 65.2266 13.2501C65.2266 14.0918 65.5403 14.9036 66.1071 15.5291Z" fill="#52399B" stroke="#52399B" stroke-width="0.411304" stroke-miterlimit="10"/>
<path d="M77.5742 17.3977C77.0347 17.4061 76.4991 17.306 75.9995 17.1033C75.5 16.9007 75.0469 16.5997 74.6675 16.2185C73.8982 15.4195 73.4688 14.3563 73.4688 13.2505C73.4688 12.1446 73.8982 11.0814 74.6675 10.2825C75.0531 9.89468 75.5149 9.58988 76.0241 9.38701C76.5333 9.18415 77.0791 9.08754 77.6275 9.1032C78.1857 9.08751 78.7401 9.19872 79.2485 9.42835C79.7568 9.65798 80.2057 9.99996 80.5608 10.4282L79.8542 11.1172C79.5922 10.7825 79.2533 10.5152 78.8658 10.3377C78.4784 10.1601 78.0537 10.0776 77.6275 10.097C77.2171 10.0866 76.8089 10.16 76.4282 10.3127C76.0475 10.4654 75.7023 10.6941 75.4142 10.9847C74.8398 11.6117 74.5215 12.4291 74.5215 13.277C74.5215 14.1248 74.8398 14.9422 75.4142 15.5692C75.7023 15.8598 76.0475 16.0885 76.4282 16.2412C76.8089 16.3939 77.2171 16.4674 77.6275 16.457C78.0857 16.444 78.5354 16.3318 78.9454 16.1281C79.3553 15.9244 79.7155 15.6342 80.0008 15.2777L80.7208 15.98C80.3556 16.4149 79.901 16.7673 79.3875 17.0135C78.8203 17.2768 78.2001 17.4082 77.5742 17.3977Z" fill="#52399B" stroke="#52399B" stroke-width="0.411304" stroke-miterlimit="10"/>
<path d="M84.9073 17.2264H83.8806V10.2569H81.6406V9.27637H87.134V10.2569H84.9073V17.2264Z" fill="#52399B" stroke="#52399B" stroke-width="0.411304" stroke-miterlimit="10"/>
<path d="M94.2012 9.27637L91.1745 15.9809C91.1011 16.2497 90.9697 16.4994 90.7896 16.7128C90.6094 16.9261 90.3847 17.098 90.131 17.2165C89.8773 17.3349 89.6008 17.3972 89.3205 17.3989C89.0402 17.4006 88.7629 17.3417 88.5078 17.2264L88.7745 16.2856C88.9376 16.3767 89.1207 16.4268 89.3078 16.4314C89.5051 16.4412 89.7007 16.3903 89.8678 16.2856C90.0298 16.1517 90.1538 15.9782 90.2278 15.7821L90.5212 15.1461L87.8545 9.27637H89.0678L91.0412 13.8344L92.9878 9.27637H94.2012Z" fill="#52399B" stroke="#52399B" stroke-width="0.411304" stroke-miterlimit="10"/>
<path d="M95.3594 17.2264V9.27637H101.146V17.2264H100.119V10.2569H96.386V17.2264H95.3594Z" fill="#52399B" stroke="#52399B" stroke-width="0.411304" stroke-miterlimit="10"/>
<path d="M102.973 17.2264V9.27637H103.999V12.6816H107.999V9.27637H109.039V17.2264H107.999V13.6356H103.999V17.2264H102.973Z" fill="#52399B" stroke="#52399B" stroke-width="0.411304" stroke-miterlimit="10"/>
<path d="M117.413 16.1916C117.028 16.5746 116.57 16.8784 116.067 17.0857C115.564 17.293 115.024 17.3997 114.479 17.3997C113.935 17.3997 113.395 17.293 112.892 17.0857C112.388 16.8784 111.931 16.5746 111.546 16.1916C110.783 15.3999 110.357 14.3461 110.357 13.2501C110.357 12.154 110.783 11.1002 111.546 10.3086C111.93 9.92596 112.386 9.62241 112.888 9.41529C113.391 9.20818 113.929 9.10156 114.473 9.10156C115.016 9.10156 115.555 9.20818 116.057 9.41529C116.559 9.62241 117.015 9.92596 117.399 10.3086C118.156 11.1033 118.578 12.1559 118.578 13.2501C118.578 14.3442 118.156 15.3968 117.399 16.1916H117.413ZM112.306 15.5291C112.585 15.8209 112.923 16.0518 113.297 16.2069C113.671 16.3621 114.074 16.438 114.479 16.4301C114.884 16.4356 115.286 16.3586 115.66 16.2036C116.034 16.0486 116.372 15.819 116.653 15.5291C117.22 14.9036 117.533 14.0918 117.533 13.2501C117.533 12.4084 117.22 11.5965 116.653 10.9711C116.372 10.6811 116.034 10.4515 115.66 10.2965C115.286 10.1416 114.884 10.0645 114.479 10.0701C114.074 10.0621 113.671 10.1381 113.297 10.2932C112.923 10.4483 112.585 10.6792 112.306 10.9711C111.731 11.5923 111.411 12.4058 111.411 13.2501C111.411 14.0944 111.731 14.9078 112.306 15.5291Z" fill="#52399B" stroke="#52399B" stroke-width="0.411304" stroke-miterlimit="10"/>
<path d="M122.787 17.2265V9.27649H125.68C126.28 9.2705 126.861 9.48795 127.307 9.88599C127.53 10.0781 127.708 10.3166 127.827 10.5845C127.947 10.8524 128.006 11.1431 128 11.4362C128.004 11.7932 127.902 12.1432 127.707 12.4432C127.51 12.7277 127.238 12.9525 126.92 13.0925C127.305 13.2233 127.644 13.4627 127.894 13.7815C128.139 14.1062 128.27 14.5018 128.267 14.9077C128.274 15.2132 128.213 15.5164 128.089 15.7958C127.964 16.0752 127.779 16.3239 127.547 16.5242C127.084 16.9522 126.472 17.1849 125.84 17.1735L122.787 17.2265ZM123.814 12.6817H125.68C125.855 12.6918 126.03 12.6624 126.191 12.5959C126.353 12.5293 126.497 12.4273 126.614 12.2975C126.84 12.0773 126.969 11.7773 126.974 11.4627C126.986 11.1472 126.877 10.8389 126.667 10.6015C126.555 10.4779 126.417 10.3806 126.262 10.3164C126.108 10.2523 125.941 10.2229 125.774 10.2305H123.854L123.814 12.6817ZM123.814 16.246H125.894C126.074 16.252 126.254 16.2183 126.42 16.1473C126.586 16.0763 126.734 15.9697 126.854 15.8352C127.084 15.5909 127.213 15.269 127.214 14.9342C127.206 14.6023 127.072 14.2855 126.84 14.0465C126.712 13.9124 126.557 13.8065 126.384 13.7358C126.212 13.665 126.027 13.6309 125.84 13.6357H123.814V16.246Z" fill="#52399B" stroke="#52399B" stroke-width="0.411304" stroke-miterlimit="10"/>
</svg>
