<svg width="180" height="53" viewBox="0 0 180 53" fill="none" xmlns="http://www.w3.org/2000/svg">
<path d="M90.848 28.8202C87.712 28.8202 85.156 31.1906 85.156 34.4554C85.156 37.7004 87.712 40.0907 90.848 40.0907C93.9853 40.0907 96.5413 37.7004 96.5413 34.4554C96.54 31.1906 93.984 28.8202 90.848 28.8202ZM90.848 37.8726C89.1293 37.8726 87.648 36.4641 87.648 34.4568C87.648 32.4282 89.1307 31.0409 90.848 31.0409C92.5667 31.0409 94.048 32.4282 94.048 34.4568C94.048 36.4628 92.5667 37.8726 90.848 37.8726ZM78.4293 28.8202C75.2933 28.8202 72.7373 31.1906 72.7373 34.4554C72.7373 37.7004 75.2933 40.0907 78.4293 40.0907C81.5667 40.0907 84.1227 37.7004 84.1227 34.4554C84.1227 31.1906 81.5667 28.8202 78.4293 28.8202ZM78.4293 37.8726C76.7107 37.8726 75.2293 36.4641 75.2293 34.4568C75.2293 32.4282 76.712 31.0409 78.4293 31.0409C80.148 31.0409 81.6293 32.4282 81.6293 34.4568C81.6307 36.4628 80.148 37.8726 78.4293 37.8726ZM63.6587 30.5507V32.941H69.416C69.244 34.2858 68.7933 35.2677 68.1053 35.95C67.268 36.7821 65.9573 37.7004 63.6587 37.7004C60.1147 37.7004 57.344 34.8609 57.344 31.339C57.344 27.8172 60.1147 24.9777 63.6587 24.9777C65.5707 24.9777 66.9667 25.725 67.9973 26.6856L69.6947 24.9989C68.2547 23.6328 66.344 22.5874 63.6587 22.5874C58.804 22.5874 54.7227 26.5147 54.7227 31.339C54.7227 36.1634 58.804 40.0907 63.6587 40.0907C66.2787 40.0907 68.256 39.236 69.8013 37.6354C71.3907 36.056 71.8853 33.8353 71.8853 32.0426C71.8853 31.4888 71.8427 30.976 71.756 30.5493H63.6587V30.5507ZM124.069 32.407C123.597 31.1482 122.157 28.8202 119.215 28.8202C116.293 28.8202 113.865 31.1045 113.865 34.4554C113.865 37.6142 116.272 40.0907 119.493 40.0907C122.092 40.0907 123.596 38.5113 124.22 37.593L122.287 36.3118C121.643 37.2512 120.761 37.87 119.493 37.87C118.227 37.87 117.324 37.2936 116.744 36.162L124.327 33.0456L124.069 32.407ZM116.336 34.2858C116.272 32.1075 118.033 30.9985 119.301 30.9985C120.289 30.9985 121.127 31.4901 121.407 32.1937L116.336 34.2858ZM110.172 39.7501H112.663V23.1863H110.172V39.7501ZM106.089 30.0803H106.004C105.445 29.4178 104.371 28.8202 103.019 28.8202C100.183 28.8202 97.584 31.2966 97.584 34.478C97.584 37.6368 100.183 40.092 103.019 40.092C104.372 40.092 105.445 39.4944 106.004 38.812H106.089V39.6229C106.089 41.7787 104.929 42.9315 103.061 42.9315C101.536 42.9315 100.591 41.8436 100.204 40.9254L98.0347 41.8224C98.6573 43.3157 100.311 45.1521 103.061 45.1521C105.983 45.1521 108.453 43.4442 108.453 39.2811V29.1634H106.091V30.0803H106.089ZM103.233 37.8726C101.515 37.8726 100.076 36.4416 100.076 34.478C100.076 32.4918 101.515 31.0409 103.233 31.0409C104.929 31.0409 106.261 32.4918 106.261 34.478C106.261 36.4416 104.929 37.8726 103.233 37.8726ZM135.741 23.1863H129.78V39.7501H132.267V33.4749H135.74C138.497 33.4749 141.209 31.4914 141.209 28.3313C141.209 25.1712 138.499 23.1863 135.741 23.1863ZM135.805 31.1694H132.267V25.4918H135.805C137.665 25.4918 138.721 27.0222 138.721 28.3313C138.721 29.6139 137.665 31.1694 135.805 31.1694ZM151.181 28.7911C149.38 28.7911 147.515 29.5794 146.743 31.3271L148.951 32.2427C149.423 31.3271 150.303 31.0277 151.224 31.0277C152.511 31.0277 153.819 31.7948 153.84 33.1583V33.3292C153.389 33.0735 152.424 32.6905 151.245 32.6905C148.865 32.6905 146.441 33.9904 146.441 36.4191C146.441 38.6358 148.393 40.0628 150.58 40.0628C152.252 40.0628 153.175 39.3169 153.753 38.4424H153.839V39.721H156.241V33.3703C156.243 30.4314 154.032 28.7911 151.181 28.7911ZM150.88 37.8686C150.067 37.8686 148.929 37.4632 148.929 36.4615C148.929 35.1829 150.345 34.6926 151.568 34.6926C152.66 34.6926 153.176 34.9271 153.84 35.2465C153.647 36.7821 152.317 37.8686 150.88 37.8686ZM164.991 29.1528L162.139 36.3343H162.053L159.093 29.1528H156.413L160.852 39.1897L158.321 44.7732H160.916L167.757 29.1528H164.991ZM142.583 39.7501H145.069V23.1863H142.583V39.7501Z" fill="#52399B"/>
<path d="M63.2241 13.572C63.2241 14.6823 62.8934 15.5661 62.2308 16.226C61.4788 17.0104 60.4974 17.4026 59.2921 17.4026C58.1374 17.4026 57.1548 17.0051 56.3481 16.2101C55.5401 15.4137 55.1361 14.4279 55.1361 13.2513C55.1361 12.0734 55.5401 11.0876 56.3481 10.2926C57.1548 9.49628 58.1374 9.09878 59.2921 9.09878C59.8654 9.09878 60.4134 9.21008 60.9334 9.43135C61.4548 9.65395 61.8721 9.94943 62.1841 10.3191L61.4814 11.0187C60.9521 10.3893 60.2228 10.0753 59.2908 10.0753C58.4481 10.0753 57.7201 10.3695 57.1054 10.9578C56.4908 11.5461 56.1841 12.3106 56.1841 13.25C56.1841 14.1894 56.4908 14.954 57.1054 15.5423C57.7201 16.1306 58.4481 16.4247 59.2908 16.4247C60.1841 16.4247 60.9294 16.1292 61.5254 15.537C61.9121 15.1514 62.1361 14.6148 62.1961 13.9271H59.2908V12.9718H63.1668C63.2068 13.1798 63.2241 13.3799 63.2241 13.572Z" fill="#52399B"/>
<path d="M69.3709 10.2516H65.7282V12.7718H69.0136V13.7271H65.7282V16.2472H69.3709V17.2251H64.7002V9.27508H69.3709V10.2516Z" fill="#52399B"/>
<path d="M73.7054 17.2251H72.6774V10.2516H70.4427V9.27508H75.9401V10.2516H73.7054V17.2251Z" fill="#52399B"/>
<path d="M79.9174 17.2251V9.27508H80.9454V17.2251H79.9174Z" fill="#52399B"/>
<path d="M85.5042 17.2251H84.4762V10.2516H82.2416V9.27508H87.7389V10.2516H85.5042V17.2251Z" fill="#52399B"/>
<path d="M98.1453 16.1982C97.3586 17.0011 96.3813 17.4026 95.2119 17.4026C94.0426 17.4026 93.0653 17.0011 92.2799 16.1982C91.4933 15.3952 91.1013 14.4121 91.1013 13.2501C91.1013 12.088 91.4933 11.1049 92.2799 10.3019C93.0653 9.49899 94.0426 9.09619 95.2119 9.09619C96.3746 9.09619 97.3506 9.50032 98.1399 10.3072C98.9293 11.1142 99.3239 12.0947 99.3239 13.2501C99.3239 14.4121 98.9306 15.3952 98.1453 16.1982ZM93.0386 15.5317C93.6306 16.128 94.3546 16.4248 95.2119 16.4248C96.0693 16.4248 96.7946 16.1266 97.3853 15.5317C97.9773 14.9355 98.2746 14.1749 98.2746 13.2501C98.2746 12.3252 97.9773 11.5647 97.3853 10.9684C96.7946 10.3722 96.0693 10.0754 95.2119 10.0754C94.3546 10.0754 93.6306 10.3735 93.0386 10.9684C92.4479 11.5647 92.1506 12.3252 92.1506 13.2501C92.1506 14.1749 92.4479 14.9355 93.0386 15.5317Z" fill="#52399B"/>
<path d="M100.767 17.2251V9.27508H102.017L105.905 15.4589H105.949L105.905 13.9272V9.27508H106.933V17.2251H105.86L101.792 10.7405H101.748L101.792 12.2722V17.2251H100.767Z" fill="#52399B"/>
<path d="M63.2241 13.572C63.2241 14.6823 62.8934 15.5661 62.2308 16.226C61.4788 17.0104 60.4974 17.4026 59.2921 17.4026C58.1374 17.4026 57.1548 17.0051 56.3481 16.2101C55.5401 15.4137 55.1361 14.4279 55.1361 13.2513C55.1361 12.0734 55.5401 11.0876 56.3481 10.2926C57.1548 9.49628 58.1374 9.09878 59.2921 9.09878C59.8654 9.09878 60.4134 9.21008 60.9334 9.43135C61.4548 9.65395 61.8721 9.94943 62.1841 10.3191L61.4814 11.0187C60.9521 10.3893 60.2228 10.0753 59.2908 10.0753C58.4481 10.0753 57.7201 10.3695 57.1054 10.9578C56.4908 11.5461 56.1841 12.3106 56.1841 13.25C56.1841 14.1894 56.4908 14.954 57.1054 15.5423C57.7201 16.1306 58.4481 16.4247 59.2908 16.4247C60.1841 16.4247 60.9294 16.1292 61.5254 15.537C61.9121 15.1514 62.1361 14.6148 62.1961 13.9271H59.2908V12.9718H63.1668C63.2068 13.1798 63.2241 13.3799 63.2241 13.572Z" stroke="#52399B" stroke-width="0.2" stroke-miterlimit="10"/>
<path d="M69.3709 10.2516H65.7282V12.7718H69.0136V13.7271H65.7282V16.2472H69.3709V17.2251H64.7002V9.27508H69.3709V10.2516Z" stroke="#52399B" stroke-width="0.2" stroke-miterlimit="10"/>
<path d="M73.7054 17.2251H72.6774V10.2516H70.4427V9.27508H75.9401V10.2516H73.7054V17.2251Z" stroke="#52399B" stroke-width="0.2" stroke-miterlimit="10"/>
<path d="M79.9174 17.2251V9.27508H80.9454V17.2251H79.9174Z" stroke="#52399B" stroke-width="0.2" stroke-miterlimit="10"/>
<path d="M85.5042 17.2251H84.4762V10.2516H82.2416V9.27508H87.7389V10.2516H85.5042V17.2251Z" stroke="#52399B" stroke-width="0.2" stroke-miterlimit="10"/>
<path d="M98.1453 16.1982C97.3586 17.0011 96.3813 17.4026 95.2119 17.4026C94.0426 17.4026 93.0653 17.0011 92.2799 16.1982C91.4933 15.3952 91.1013 14.4121 91.1013 13.2501C91.1013 12.088 91.4933 11.1049 92.2799 10.3019C93.0653 9.49899 94.0426 9.09619 95.2119 9.09619C96.3746 9.09619 97.3506 9.50032 98.1399 10.3072C98.9293 11.1142 99.3239 12.0947 99.3239 13.2501C99.3239 14.4121 98.9306 15.3952 98.1453 16.1982ZM93.0386 15.5317C93.6306 16.128 94.3546 16.4248 95.2119 16.4248C96.0693 16.4248 96.7946 16.1266 97.3853 15.5317C97.9773 14.9355 98.2746 14.1749 98.2746 13.2501C98.2746 12.3252 97.9773 11.5647 97.3853 10.9684C96.7946 10.3722 96.0693 10.0754 95.2119 10.0754C94.3546 10.0754 93.6306 10.3735 93.0386 10.9684C92.4479 11.5647 92.1506 12.3252 92.1506 13.2501C92.1506 14.1749 92.4479 14.9355 93.0386 15.5317Z" stroke="#52399B" stroke-width="0.2" stroke-miterlimit="10"/>
<path d="M100.767 17.2251V9.27508H102.017L105.905 15.4589H105.949L105.905 13.9272V9.27508H106.933V17.2251H105.86L101.792 10.7405H101.748L101.792 12.2722V17.2251H100.767Z" stroke="#52399B" stroke-width="0.2" stroke-miterlimit="10"/>
<path fill-rule="evenodd" clip-rule="evenodd" d="M17.1293 9.45996C17.8538 9.45996 18.5309 9.65924 19.111 10.0045L34.6209 18.9431L27.7246 25.7949L13.6857 11.8467L13.6146 11.776C14.2113 10.436 15.5725 9.45996 17.1293 9.45996ZM13.3139 12.887C13.3003 13.0138 13.2933 13.142 13.2933 13.2714V39.7285C13.2933 39.8578 13.3003 39.9861 13.3139 40.1128L27.0152 26.4997L13.3139 12.887ZM13.6146 41.2237C14.2114 42.5638 15.5729 43.5399 17.1293 43.5399C17.8382 43.5399 18.5038 43.3494 19.0746 43.015L19.1199 42.9886L34.6476 34.0827L27.7247 27.2045L13.6857 41.153L13.6146 41.2237ZM35.5471 33.5668L41.9579 29.8898C43.161 29.2444 43.9777 27.9841 43.9777 26.5307C43.9777 25.0878 43.1719 23.8337 41.9809 23.1861L41.9673 23.1769L35.5188 19.4606L28.4341 26.4997L35.5471 33.5668Z" fill="#52399B"/>
<rect x="0.5" y="0.5" width="179" height="52" rx="4.5" stroke="#7C4EFF"/>
</svg>
