<svg width="28" height="28" viewBox="0 0 28 28" fill="none" xmlns="http://www.w3.org/2000/svg">
<path fill-rule="evenodd" clip-rule="evenodd" d="M25.2 0H2.8C1.2536 0 0 1.2536 0 2.8V25.2C0 26.7464 1.2536 28 2.8 28H14V17.4588H9.8V13.5059H14V11.3832C14 7.36433 16.0855 5.6 19.4949 5.6C21.0957 5.6 21.957 5.71399 22.3754 5.76936L22.4 5.77261V9.55294H20.0746C18.6275 9.55294 18.2 10.3014 18.2 11.8167V13.5059H22.3637L21.7881 17.4588H18.2V28H25.2C26.7464 28 28 26.7464 28 25.2V2.8C28 1.2536 26.7464 0 25.2 0Z" fill="#222224"/>
</svg>
