<svg width="28" height="28" viewBox="0 0 28 28" fill="none" xmlns="http://www.w3.org/2000/svg">
<path fill-rule="evenodd" clip-rule="evenodd" d="M25.2 0H2.8C1.2536 0 0 1.2536 0 2.8V25.2C0 26.7464 1.2536 28 2.8 28H25.2C26.7464 28 28 26.7464 28 25.2V2.8C28 1.2536 26.7464 0 25.2 0ZM21.4903 8.73511C22.3037 8.64109 23.0786 8.43263 23.8 8.12287C23.261 8.90202 22.5788 9.58641 21.7926 10.1352C21.8001 10.3021 21.8039 10.4698 21.8039 10.6382C21.8039 15.7759 17.7604 21.7 10.364 21.7C8.09271 21.7 5.97976 21.0564 4.2 19.9537C4.5151 19.9901 4.83547 20.0083 5.15961 20.0083C7.04415 20.0083 8.77793 19.3866 10.1536 18.3436C8.39424 18.3123 6.90922 17.1877 6.39738 15.6432C6.64237 15.6877 6.8949 15.7124 7.15346 15.7124C7.52056 15.7124 7.87637 15.6651 8.21332 15.5762C6.37325 15.2197 4.98774 13.6483 4.98774 11.7642V11.7154C5.52973 12.0062 6.15012 12.1811 6.80896 12.2015C5.73025 11.5048 5.02091 10.3145 5.02091 8.96616C5.02091 8.25261 5.21916 7.58497 5.56441 7.01063C7.54846 9.36338 10.511 10.9115 13.8526 11.0733C13.7848 10.7898 13.7486 10.4924 13.7486 10.1877C13.7486 8.04124 15.5487 6.3 17.7695 6.3C18.9258 6.3 19.9706 6.7723 20.7041 7.52812C21.6207 7.3532 22.4816 7.02959 23.258 6.58425C22.958 7.49241 22.321 8.25406 21.4903 8.73511Z" fill="#222224"/>
</svg>
