<svg width="24" height="24" viewBox="0 0 24 24" fill="none" xmlns="http://www.w3.org/2000/svg">
<path d="M9.2195 13.2806C9.28915 13.3504 9.37187 13.4057 9.46292 13.4434C9.55396 13.4812 9.65156 13.5006 9.75012 13.5006C9.84868 13.5006 9.94628 13.4812 10.0373 13.4434C10.1284 13.4057 10.2111 13.3504 10.2807 13.2806L18.9695 4.71939C19.0392 4.64965 19.1219 4.59433 19.2129 4.55659C19.304 4.51885 19.4016 4.49942 19.5001 4.49942C19.5987 4.49942 19.6963 4.51885 19.7873 4.55659C19.8784 4.59433 19.9611 4.64965 20.0307 4.71939L22.2807 6.93189C22.3505 7.00154 22.4058 7.08426 22.4435 7.1753C22.4813 7.26635 22.5007 7.36395 22.5007 7.46251C22.5007 7.56107 22.4813 7.65867 22.4435 7.74972C22.4058 7.84076 22.3505 7.92348 22.2807 7.99314L10.2432 20.0306C10.1736 20.1004 10.0909 20.1557 9.99983 20.1934C9.90878 20.2312 9.81118 20.2506 9.71262 20.2506C9.61406 20.2506 9.51646 20.2312 9.42542 20.1934C9.33437 20.1557 9.25165 20.1004 9.182 20.0306L2.4695 13.2806C2.32895 13.14 2.25 12.9493 2.25 12.7505C2.25 12.5517 2.32895 12.361 2.4695 12.2203L4.7195 9.97032C4.78915 9.90059 4.87187 9.84527 4.96292 9.80753C5.05396 9.76979 5.15156 9.75036 5.25012 9.75036C5.34868 9.75036 5.44628 9.76979 5.53733 9.80753C5.62837 9.84527 5.71109 9.90059 5.78075 9.97032L9.2195 13.2806Z" stroke="#8293D3" stroke-width="1.5" stroke-linecap="round" stroke-linejoin="round"/>
</svg>
