<svg width="228" height="216" viewBox="0 0 228 216" fill="none" xmlns="http://www.w3.org/2000/svg">
<g opacity="0.9">
<mask id="mask0_1499_295504" style="mask-type:alpha" maskUnits="userSpaceOnUse" x="2" y="4" width="223" height="210">
<path d="M162.33 69.4874C162.873 70.1529 163.325 70.8882 163.672 71.6738C163.96 72.3221 164.205 72.9887 164.405 73.6691C164.604 74.4106 164.764 75.1621 164.883 75.9206C165.083 77.396 165.153 78.8863 165.09 80.3739C164.997 81.9723 164.825 83.5651 164.573 85.1463C164.377 86.3237 163.985 87.8589 163.705 89.0187C163.424 90.1786 162.928 91.685 162.558 92.7692C162.188 93.8534 161.623 95.2763 161.196 96.3456C160.687 97.5809 159.944 99.1513 159.361 100.351C158.778 101.55 157.994 103.04 157.27 104.304C156.546 105.567 155.567 107.183 154.756 108.449C153.944 109.714 152.8 111.354 151.935 112.575C149.845 115.444 147.607 118.201 145.23 120.837C144.113 122.074 142.618 123.643 141.407 124.852C140.195 126.061 138.547 127.616 137.272 128.781C135.998 129.946 134.229 131.441 132.863 132.549C131.497 133.657 129.614 135.046 128.202 136.131C126.79 137.215 124.761 138.494 123.31 139.488C121.858 140.483 119.746 141.725 118.29 142.555C116.834 143.385 114.92 144.472 113.395 145.208C111.87 145.945 109.758 146.985 108.356 147.55C106.953 148.115 105.115 148.9 103.677 149.424C102.24 149.947 100.3 150.588 98.8405 151.032C95.9611 151.901 93.027 152.578 90.0576 153.058C87.5026 153.477 84.9209 153.713 82.3322 153.765C81.4815 153.783 80.3143 153.781 79.4437 153.701C78.294 153.658 77.1476 153.553 76.0093 153.385C75.0328 153.199 73.7135 152.962 72.7736 152.693C71.7812 152.415 70.8106 152.065 69.8697 151.645C68.9315 151.233 68.0437 150.714 67.2238 150.1C66.8261 149.79 66.4478 149.455 66.0908 149.099C65.9223 148.939 65.7416 148.701 65.5835 148.532M162.33 69.4874C163.773 71.2611 164.988 73.2091 165.944 75.2856M162.33 69.4874C154.476 59.8673 158.374 43.6359 171.03 33.2901C173.161 35.9092 174.952 38.7882 176.357 41.8583M162.33 69.4874C162.613 69.8701 162.962 70.3842 163.219 70.7356C163.387 71.0243 163.54 71.3216 163.677 71.6261C164.142 72.6447 164.483 73.7149 164.695 74.8141C164.905 75.8853 165.038 76.9703 165.091 78.0606C165.132 79.235 165.111 80.4107 165.027 81.5829C164.841 83.7954 164.477 85.9895 163.94 88.144C163.625 89.3586 163.089 91.0926 162.758 92.1708C162.427 93.2489 161.9 94.6849 161.465 95.7342C160.922 97.0242 160.14 98.8032 159.558 99.9931C158.976 101.183 158.144 102.774 157.487 103.938C156.748 105.258 155.699 107.013 154.888 108.268C154.078 109.524 152.951 111.175 152.077 112.396C149.971 115.305 147.71 118.1 145.304 120.767C144.176 122.022 142.647 123.636 141.436 124.845C140.225 126.054 138.588 127.591 137.303 128.764C136.018 129.938 134.249 131.433 132.883 132.542C131.517 133.65 129.649 134.982 128.232 136.114C126.816 137.247 124.776 138.544 123.336 139.52C121.895 140.496 119.879 141.747 118.397 142.545C116.915 143.344 114.91 144.48 113.473 145.206C112.036 145.932 110.035 146.914 108.631 147.489C107.228 148.063 105.312 148.861 103.943 149.371C102.574 149.881 100.722 150.502 99.3216 150.941C96.5211 151.797 93.6711 152.481 90.7875 152.99C89.6914 153.16 88.2534 153.374 87.1129 153.501C85.9725 153.627 84.465 153.758 83.296 153.776C82.127 153.794 80.5882 153.845 79.4402 153.74C77.9084 153.634 76.3829 153.452 74.8693 153.194C73.9883 153.039 73.1183 152.827 72.265 152.559C71.0845 152.204 69.9418 151.734 68.8536 151.156C68.2777 150.86 67.7316 150.51 67.223 150.11C67.0344 149.957 66.7816 149.77 66.6044 149.6C66.2846 149.3 65.8797 148.877 65.5827 148.542M162.33 69.4874C150.028 54.4262 122.422 54.7789 96.6769 71.4782C67.9474 90.1008 52.4651 122.011 61.9786 142.735C54.1146 133.114 36.663 132.472 23.0572 141.294C8.97992 110.733 31.8858 63.6963 74.2228 36.2325C112.189 11.596 152.893 11.0793 171.039 33.291C158.372 43.6454 154.436 59.8733 162.33 69.4874ZM162.33 69.4874C150.027 54.4357 122.421 54.7883 96.6765 71.4877M162.33 69.4874C162.043 69.1524 161.628 68.7288 161.309 68.4295C161.141 68.2598 160.878 68.0718 160.69 67.9195M162.33 69.4874C170.193 79.1179 186.884 78.494 199.547 68.1682C181.401 45.9566 140.698 46.4732 102.731 71.1097C60.3952 98.5639 37.4894 145.601 51.5667 176.162C63.5517 168.386 68.6083 155.809 64.2511 146.346C63.9569 145.77 63.6647 144.962 63.4706 144.347C63.3579 143.999 63.2662 143.528 63.1927 143.174C62.9922 142.279 62.8696 141.367 62.8261 140.451C62.7915 139.57 62.7658 138.488 62.7859 137.642C62.8502 136.944 62.9365 136.007 63.0016 135.3C63.1093 134.186 63.279 133.078 63.5099 131.982C63.8757 130.107 64.5943 127.648 65.1583 125.82C65.5555 124.546 66.2375 122.902 66.7287 121.655C67.8719 118.926 69.18 116.268 70.6457 113.697C71.3978 112.445 72.339 110.816 73.1598 109.551C73.9806 108.287 75.121 106.695 75.9905 105.426C76.86 104.156 78.1186 102.643 79.1264 101.338C80.1343 100.033 81.5878 98.3926 82.6947 97.1641C83.8016 95.9357 85.3473 94.3427 86.4994 93.1473C89.2204 90.4347 92.0786 87.863 95.0626 85.4423C97.8146 83.2181 101.666 80.4779 104.606 78.512C106.076 77.529 108.142 76.2634 109.614 75.4638C111.087 74.6642 113.013 73.5496 114.538 72.8126C116.062 72.0757 118.184 71.037 119.577 70.471C120.971 69.9051 122.818 69.1207 124.255 68.5975C125.693 68.0742 127.624 67.4324 129.092 66.9891C131.971 66.1167 134.905 65.4397 137.875 64.9629C140.427 64.5398 143.005 64.3034 145.591 64.2556C146.442 64.2375 147.609 64.2388 148.48 64.3189C149.629 64.362 150.776 64.4675 151.914 64.6348C152.891 64.8211 154.21 65.0581 155.15 65.3277C156.142 65.6065 157.112 65.9567 158.054 66.3757C158.99 66.7853 159.875 67.3034 160.69 67.9195M162.33 69.4874C162.182 69.3195 161.992 69.0804 161.833 68.9212C161.472 68.5645 161.091 68.23 160.69 67.9195M162.33 69.4874C170.194 79.1083 186.883 78.4939 199.537 68.1769C201.671 70.7877 203.462 73.6608 204.866 76.7259C218.943 107.287 196.037 154.324 153.7 181.788C115.733 206.424 75.0303 206.941 56.8841 184.729C69.5401 174.384 73.4475 158.153 65.5835 148.532M165.944 75.2856C175.487 96.0118 159.957 127.918 131.246 146.542M165.944 75.2856C175.458 96.0091 159.976 127.919 131.246 146.542M131.246 146.542C105.492 163.241 77.8955 163.594 65.5835 148.532M74.2129 36.2411C78.7402 46.0563 88.8116 61.8763 96.6765 71.4877M74.2129 36.2411C116.55 8.77725 162.281 11.2873 176.357 41.8583M74.2129 36.2411C78.7593 46.0581 88.8116 61.8763 96.6765 71.4877M74.2129 36.2411C31.8854 63.7058 8.97921 110.742 23.0565 141.304M74.2129 36.2411C112.189 11.6054 152.882 11.088 171.029 33.2997C173.16 35.9157 174.951 38.7915 176.357 41.8583M74.2129 36.2411C31.8854 63.7058 8.97932 110.742 23.047 141.303C11.0525 149.078 6.00541 161.656 10.3626 171.119C9.08411 168.032 7.53024 163.85 6.50057 160.68C5.96842 159.021 5.4944 156.732 5.09014 155.046C4.40386 152.023 4.00065 147.918 3.69539 144.844C3.51569 143.025 3.52025 140.567 3.47624 138.741C3.4152 135.844 3.73879 132.017 3.98816 129.206C4.16959 127.237 4.57356 124.633 4.90718 122.688C5.36514 120.021 6.18067 116.51 6.85601 113.892C7.38285 111.839 8.25923 109.134 8.88954 107.11C9.68737 104.629 10.9505 101.39 11.9439 98.9847C12.8031 96.8852 14.0596 94.1377 15.0483 92.0983C16.2251 89.7966 17.7681 86.767 19.0354 84.5315C20.3026 82.2959 21.9306 79.4959 23.3368 77.4274C26.1161 73.3355 29.9936 68.0047 33.018 64.0799C34.5869 62.0264 36.9338 59.4853 38.6095 57.5283C40.2853 55.5713 42.7236 53.0868 44.5496 51.2787C46.3756 49.4705 48.9738 47.0296 50.8938 45.2493C52.8137 43.4691 55.5744 41.1492 57.6481 39.4795C59.7219 37.8097 62.5991 35.5873 64.7806 34.0046C66.9621 32.4219 69.9914 30.3292 72.2798 28.8431C74.5681 27.357 77.6938 25.3695 80.1107 24.0591C82.5276 22.7487 85.5086 21.0757 87.8662 19.8851C90.2238 18.6946 93.4882 17.0862 95.9343 16.087C98.3805 15.0877 101.859 13.5665 104.467 12.6978C108.986 11.1855 115.052 9.32398 119.674 8.16818C122.27 7.52977 125.783 6.88894 128.419 6.44699C130.603 6.08882 133.522 5.72106 135.722 5.50892C138.446 5.25827 142.101 5.07386 144.836 5.01702C146.896 4.9655 149.66 5.01733 151.692 5.15609C154.569 5.35319 158.332 5.76683 161.162 6.15246C163.067 6.41449 165.548 6.92225 167.399 7.35282C170.336 8.0471 174.181 9.23952 177.048 10.1684C178.732 10.7378 180.913 11.6711 182.534 12.4082C185.736 13.9391 188.858 15.6323 191.888 17.4812C193.332 18.3467 195.117 19.7062 196.501 20.7107C199.325 22.8644 201.984 25.226 204.456 27.7758C205.808 29.1149 207.433 31.0669 208.628 32.5457C209.685 33.8479 210.994 35.6554 211.937 37.0435C214.049 40.1908 215.922 43.4919 217.54 46.9191C219.117 50.2846 220.409 53.7763 221.402 57.3576C222.094 60.3132 222.993 64.1747 223.511 67.1336C223.836 69.1401 224.059 71.1618 224.178 73.1909C224.546 78.4018 224.444 83.635 223.876 88.8278C223.64 91.3896 223.066 94.7879 222.592 97.3181C222.209 99.3843 221.59 102.123 220.999 104.141C220.315 106.536 219.36 109.774 218.558 112.091C217.843 114.204 216.766 116.987 215.911 119.049C214.956 121.342 213.58 124.339 212.488 126.561C211.396 128.784 210.028 131.483 208.819 133.502C207.611 135.521 205.923 138.547 204.518 140.606C201.72 144.686 197.861 150.029 194.837 153.953C193.258 156.006 190.965 158.591 189.235 160.504C187.506 162.418 185.16 164.949 183.295 166.754C179.494 170.424 174.228 175.116 170.207 178.544C168.118 180.28 165.203 182.383 163.064 184.028C160.925 185.672 157.844 187.702 155.556 189.188C153.267 190.675 150.076 192.54 147.725 193.972C145.374 195.405 142.336 196.957 139.969 198.146C137.602 199.336 134.325 200.876 131.901 201.945C129.6 202.938 126.514 204.187 124.158 205.04C121.803 205.893 118.29 207.055 115.748 207.843C113.493 208.541 110.449 209.331 108.152 209.862C105.551 210.452 102.051 211.162 99.407 211.584C97.2234 211.932 94.3022 212.329 92.104 212.522C89.3804 212.763 85.7297 213.015 82.9898 213.014C80.9345 213.017 78.166 213.013 76.1334 212.875C73.2573 212.677 69.4871 212.34 66.6739 211.879C61.26 211.048 55.9404 209.69 50.791 207.825C48.9252 207.173 47.0941 206.425 45.3052 205.585C42.4347 204.174 38.6961 202.133 35.9512 200.512C32.8961 198.62 30.0214 196.452 27.3634 194.035C26.1408 192.958 24.5178 191.411 23.3832 190.217C21.9035 188.704 20.5076 187.112 19.2016 185.447C17.2015 182.756 14.7182 179.029 12.9532 176.196C12.0642 174.745 11.4649 172.454 10.38 171.139C6.0228 161.677 11.0698 149.099 23.0644 141.324C24.4651 144.388 26.2528 147.261 28.3838 149.872C46.5222 172.064 87.2289 171.509 125.192 146.911M96.6765 71.4877C125.406 52.865 156.392 54.5682 165.944 75.2952M96.6765 71.4877C104.531 81.1077 107.247 80.943 102.725 71.0799C145.062 43.6161 190.792 46.1262 204.87 76.6876C191.263 85.5192 173.803 84.8674 165.948 75.2473C156.392 54.5681 125.377 52.8624 96.6765 71.4877ZM96.6765 71.4877C67.9661 90.1121 52.4262 122.017 61.9779 142.744M165.944 75.2952C158.079 65.6838 162.751 50.6803 176.357 41.8583M165.944 75.2952C175.486 96.0214 159.956 127.927 131.245 146.552M165.944 75.2952C173.798 84.9153 191.258 85.567 204.865 76.7354M176.357 41.8583C190.434 72.4197 167.528 119.456 125.188 146.958M176.357 41.8583C190.434 72.4197 167.528 119.456 125.192 146.911M176.357 41.8583C162.281 11.2873 116.55 8.77717 74.2056 36.3175C69.6922 26.4553 72.4078 26.3002 80.2632 35.9107M176.357 41.8583C189.953 33.0353 207.414 33.6776 215.268 43.2976M88.362 60.2637C118.931 40.4221 151.961 42.2458 162.122 64.3111M131.245 146.552C123.381 136.931 120.674 137.096 125.188 146.958M131.245 146.552C139.101 156.162 149.172 171.982 153.699 181.797M131.245 146.552C139.101 156.162 149.162 171.981 153.699 181.797M131.245 146.552C102.532 165.205 71.5679 163.474 61.9779 142.744M131.245 146.552C159.956 127.927 175.486 96.0213 165.943 75.2952M125.188 146.958C167.528 119.456 190.434 72.4196 176.356 41.8582M162.122 64.3111C172.292 86.3867 155.752 120.359 125.222 140.195M167.566 98.8403C159.706 89.2776 164.732 79.2325 178.754 76.57C192.786 73.9085 210.586 79.5657 218.45 89.1866C226.304 98.8067 221.284 108.794 207.262 111.457M160.404 114.261C149.632 110.233 147.264 114.787 155.121 124.379M125.192 146.911C120.674 137.096 123.381 136.931 131.25 146.504C102.52 165.127 71.5246 163.422 61.9824 142.696C54.1184 133.075 36.6668 132.434 23.061 141.256C37.1339 171.865 82.8645 174.375 125.192 146.911ZM125.192 146.911C87.2254 171.547 46.5221 172.064 28.376 149.852M125.192 146.911C167.528 119.456 190.434 72.4196 176.356 41.8582M125.192 146.911C129.718 156.735 139.791 172.546 147.645 182.166M125.174 140.19C94.6065 160.022 61.5853 158.209 51.4149 136.133C41.2445 114.058 57.7936 80.0956 88.3137 60.2592M83.0549 164.454C86.0209 151.53 94.8176 148.83 102.672 158.45M46.3864 162.44C55.8563 149.816 69.9565 147.459 77.8014 157.078C85.6559 166.698 84.3495 184.749 74.8962 197.298M204.865 76.7354C218.942 107.297 196.036 154.334 153.699 181.797M204.865 76.7354C218.461 67.9125 223.133 52.909 215.268 43.2976M204.865 76.7354C190.788 46.174 145.057 43.664 102.72 71.1278C98.203 61.3039 88.1211 45.4926 80.2667 35.8725C136.221 -0.431545 196.666 2.90183 215.268 43.2976M204.865 76.7354C191.258 85.567 173.798 84.9152 165.943 75.2952M204.865 76.7354C218.462 67.9029 223.133 52.909 215.268 43.2976M204.865 76.7354C218.942 107.297 196.036 154.334 153.703 181.759C158.226 191.622 155.51 191.777 147.645 182.166M153.699 181.797C111.372 209.262 65.6411 206.752 51.5647 176.181M153.699 181.797C158.226 191.622 155.51 191.777 147.642 182.204C91.6874 218.508 31.2427 215.175 12.6398 174.779C20.4943 184.399 37.9554 185.041 51.5612 176.219C65.6507 206.753 111.372 209.262 153.699 181.797ZM167.561 98.888C175.425 108.509 193.225 114.166 207.257 111.505M155.118 124.407C162.983 134.018 178.14 145.12 188.902 149.146C199.674 153.174 202.043 148.62 194.186 139.029C202.043 148.62 199.675 153.174 188.903 149.147M51.5647 176.181C65.1609 167.358 69.8333 152.354 61.9779 142.744M51.5647 176.181C37.4874 145.62 60.3935 98.583 102.73 71.1288C107.257 80.9441 104.54 81.1087 96.6816 71.5364C67.966 90.1122 52.4244 122.036 61.9779 142.744M51.5647 176.181C37.4874 145.62 60.393 98.583 102.729 71.1288C107.256 80.944 104.54 81.1087 96.6811 71.5364C67.9655 90.1121 52.4244 122.036 61.9779 142.744M51.5647 176.181C37.959 185.003 20.4978 184.361 12.6433 174.741C-5.95951 134.345 24.309 72.2148 80.2632 35.9107M51.5647 176.181C37.5161 145.622 60.3932 98.5829 102.716 71.166C98.1803 61.3403 88.1176 45.5308 80.2632 35.9107M51.5647 176.181C52.9676 179.247 54.7547 182.123 56.8832 184.739C69.5391 174.393 73.4467 158.162 65.5827 148.542M51.5647 176.181C63.5533 168.367 68.6065 155.828 64.2493 146.366M61.9779 142.744C54.1139 133.123 36.6623 132.482 23.0565 141.304M61.9779 142.744C62.928 144.822 64.1394 146.77 65.5827 148.542M61.9779 142.744C62.884 143.851 63.6473 145.068 64.2493 146.366M102.642 158.467C110.506 168.078 114.489 186.423 111.532 199.357M28.376 149.852C41.0406 139.517 57.7282 138.921 65.5827 148.542M28.376 149.852C26.245 147.241 24.4573 144.368 23.0565 141.304M28.376 149.852C41.0406 139.517 57.7291 138.912 65.5827 148.542M65.5827 148.542C65.3082 148.169 64.9504 147.654 64.7073 147.256C64.5357 146.969 64.3829 146.672 64.2493 146.366M65.5827 148.542C65.4008 148.321 65.2319 148.09 65.0771 147.849C64.8115 147.381 64.4775 146.82 64.2493 146.366M165.872 52.3072C154.077 26.7082 115.777 24.6021 80.3142 47.6085C44.8709 70.6166 25.6793 110.013 37.4729 135.622M20.6602 106.583C34.6825 103.92 52.4919 109.578 60.3464 119.198M20.6602 106.583C6.62834 109.244 1.60755 119.232 9.47159 128.853C17.3261 138.473 35.1353 144.131 49.1576 141.468M20.6602 106.583C6.62834 109.244 1.60803 119.232 9.47207 128.853C17.3265 138.473 35.1358 144.131 49.1581 141.468C63.1899 138.807 68.2113 128.81 60.3464 119.198M60.3464 119.198C68.2113 128.81 63.1895 138.807 49.1576 141.468M39.0097 68.8919C49.7818 72.9194 64.9382 84.0209 72.7935 93.6314M72.7935 93.6314C80.6576 103.252 78.2412 107.802 67.5196 103.75M72.7935 93.6314C80.6576 103.252 78.2416 107.802 67.5201 103.75M116.388 18.7009C113.421 31.6345 117.365 49.9756 125.269 59.5905C133.123 69.2106 141.929 66.5117 144.886 53.5868M116.388 18.7009C119.345 5.7664 128.142 3.06683 136.006 12.6878C143.908 22.3122 147.843 40.6523 144.886 53.5868M116.388 18.7009C119.345 5.7664 128.142 3.06688 136.006 12.6878C143.909 22.3123 147.843 40.6523 144.886 53.5868M153.028 20.7122C143.558 33.3368 142.256 51.3399 150.123 60.9322M49.1576 141.468C63.1895 138.807 68.2109 128.81 60.346 119.198M150.12 60.9609C157.975 70.5809 172.07 68.1758 181.488 55.5946M64.2493 146.366C63.9584 145.687 63.7099 144.991 63.5054 144.282C63.2788 143.413 63.1056 142.532 62.9866 141.642C62.8826 140.676 62.8271 139.706 62.8203 138.734C62.8158 138.049 62.8517 137.137 62.9151 136.449C63.0929 134.235 63.4565 132.04 64.002 129.888C64.307 128.672 64.843 126.938 65.1739 125.86C65.5048 124.782 66.0231 123.345 66.467 122.296C67.0104 121.007 67.7822 119.227 68.3645 118.037C68.9469 116.847 69.7785 115.256 70.4356 114.092C71.1747 112.772 72.224 111.017 73.0343 109.762C73.8447 108.506 74.9712 106.855 75.8458 105.634C77.9536 102.724 80.2175 99.9297 82.6276 97.2639C83.7563 96.0085 85.2751 94.3938 86.4863 93.1846C87.6976 91.9753 89.3545 90.4312 90.6292 89.2663C91.9039 88.1015 93.6722 86.6061 95.0382 85.4978C96.4042 84.3896 98.2836 83.049 99.7 81.9165C101.116 80.784 103.146 79.4862 104.587 78.5101C106.028 77.5341 108.063 76.2849 109.535 75.4853C111.008 74.6857 113.032 73.5513 114.459 72.8246C115.887 72.098 117.907 71.1174 119.301 70.5419C120.695 69.9664 122.611 69.1691 123.98 68.6588C125.348 68.1485 127.2 67.5283 128.601 67.0884C131.402 66.2346 134.252 65.5504 137.135 65.0394C138.241 64.8712 139.669 64.6555 140.81 64.5291C141.95 64.4026 143.467 64.2723 144.627 64.2536C145.786 64.2349 147.334 64.1846 148.482 64.2902C149.854 64.3778 151.686 64.5945 153.053 64.8359C153.932 64.9889 154.799 65.2039 155.647 65.4794C156.097 65.6268 156.697 65.8074 157.125 65.9817C157.72 66.2292 158.487 66.589 159.059 66.873C159.638 67.1648 160.184 67.5155 160.69 67.9195M102.69 77.844C72.1696 97.6805 55.629 131.653 65.7898 153.728C75.9611 175.794 108.981 177.616 139.55 157.775M102.738 77.8485C133.315 58.0173 166.336 59.8306 176.497 81.9054M102.737 77.8484C133.315 58.0173 166.336 59.8306 176.497 81.9053M150.12 60.9608C157.974 70.5809 172.07 68.1758 181.487 55.5945M80.2632 35.9107C136.217 -0.39336 196.666 2.90183 215.268 43.2976M67.5171 103.779C56.745 99.7513 41.5886 88.6498 33.7341 79.0297C25.8692 69.4184 28.2378 64.8643 39.0081 68.9109M215.268 43.2976C233.881 83.6943 203.609 145.863 147.645 182.166M215.268 43.2976C207.414 33.6776 189.953 33.0353 176.356 41.8582M181.535 55.599C190.996 42.9735 192.298 24.9704 184.431 15.3781M96.676 71.4876C88.8111 61.8762 78.7397 46.0563 74.2124 36.241C116.549 8.7772 162.28 11.2872 176.356 41.8582M96.676 71.4876C125.406 52.865 156.392 54.5682 165.943 75.2952M96.676 71.4876C104.53 81.1077 107.247 80.9429 102.724 71.0799C145.061 43.6161 190.792 46.1261 204.869 76.6875C191.262 85.5191 173.802 84.8673 165.948 75.2473C156.392 54.568 125.377 52.8623 96.676 71.4876ZM165.943 75.2952C158.078 65.6838 162.751 50.6802 176.356 41.8582M46.3859 162.44C55.8558 149.816 69.956 147.459 77.8009 157.078M176.526 81.9079C186.696 103.984 170.156 137.946 139.579 157.777M190.468 82.4192C202.261 108.028 183.079 147.425 147.626 170.432M147.617 170.432C112.154 193.438 73.8445 191.331 62.0499 165.732M111.533 199.338C108.576 212.273 99.7699 214.972 91.9154 205.352C84.0514 195.731 80.021 177.382 83.0262 164.452M74.8901 197.365C65.4245 209.942 51.3199 212.346 43.5228 202.732M23.2063 181.352C5.21249 142.304 34.4845 82.1931 88.5803 47.1061C142.667 12.0184 201.097 15.2241 219.127 54.2948M8.83154 163.757C-9.16225 124.709 20.1097 64.5986 74.196 29.5108C128.292 -5.57607 186.722 -2.37005 204.743 36.6997M184.434 15.3495C176.579 5.72948 162.484 8.1346 153.066 20.7158M204.715 36.6875C222.7 75.7346 193.437 135.846 139.341 170.933M190.744 36.1735C207.105 71.6878 180.504 126.366 131.255 158.275M194.188 139.01C186.324 129.389 171.167 118.287 160.405 114.261M139.379 170.937C85.2834 206.024 26.853 202.818 8.83224 163.748M131.284 158.277C82.0818 190.199 28.9315 187.277 12.5619 151.752M43.4783 202.689C35.6239 193.069 36.9205 175.017 46.3834 162.469M167.562 98.888C175.426 108.509 193.226 114.166 207.257 111.505M37.1775 181.866C20.807 146.351 47.4173 91.6728 96.6665 59.7646M23.2068 181.352C5.21298 142.304 34.485 82.1931 88.5808 47.1062C142.667 12.0184 201.097 15.2242 219.128 54.2948M96.6379 59.7621C145.811 27.8373 198.99 30.7626 215.35 66.2864M111.534 199.338C108.576 212.273 99.7703 214.972 91.9158 205.352C84.0517 195.731 80.0215 177.382 83.0267 164.452M139.38 170.937C85.2839 206.024 26.8535 202.818 8.83272 163.748M43.4788 202.689C35.6243 193.069 36.921 175.017 46.3839 162.469M125.331 59.3361C117.525 49.8169 113.611 31.6714 116.517 18.8672M176.654 81.6691C186.856 103.815 170.252 137.955 139.553 157.852" stroke="#1A73EC" stroke-miterlimit="10"/>
</mask>
<g mask="url(#mask0_1499_295504)">
<ellipse cx="114.799" cy="109.415" rx="112.007" ry="147.273" transform="rotate(48.8003 114.799 109.415)" fill="url(#paint0_angular_1499_295504)"/>
<ellipse cx="114.799" cy="109.415" rx="112.007" ry="147.273" transform="rotate(48.8003 114.799 109.415)" fill="url(#paint1_angular_1499_295504)"/>
</g>
</g>
<defs>
<radialGradient id="paint0_angular_1499_295504" cx="0" cy="0" r="1" gradientUnits="userSpaceOnUse" gradientTransform="translate(114.798 109.415) rotate(121.177) scale(170.677 129.807)">
<stop offset="0.187498" stop-color="#3CAD99"/>
<stop offset="0.968753" stop-color="#DEA81C"/>
</radialGradient>
<radialGradient id="paint1_angular_1499_295504" cx="0" cy="0" r="1" gradientUnits="userSpaceOnUse" gradientTransform="translate(114.798 109.415) rotate(121.177) scale(170.677 129.807)">
<stop offset="0.286457" stop-color="#DEA81C"/>
<stop offset="0.984379" stop-color="#1A73EC"/>
</radialGradient>
</defs>
</svg>
