<svg width="32" height="32" viewBox="0 0 32 32" fill="none" xmlns="http://www.w3.org/2000/svg">
<rect width="32" height="32" rx="16" fill="#52399B"/>
<path d="M12.6682 16C12.6682 14.1591 14.1601 12.6664 16.001 12.6664C17.8419 12.6664 19.3346 14.1591 19.3346 16C19.3346 17.8409 17.8419 19.3336 16.001 19.3336C14.1601 19.3336 12.6682 17.8409 12.6682 16ZM10.8661 16C10.8661 18.836 13.165 21.1349 16.001 21.1349C18.837 21.1349 21.1359 18.836 21.1359 16C21.1359 13.164 18.837 10.8651 16.001 10.8651C13.165 10.8651 10.8661 13.164 10.8661 16ZM20.1391 10.6615C20.139 10.8989 20.2093 11.1309 20.3411 11.3283C20.4729 11.5257 20.6602 11.6796 20.8795 11.7705C21.0987 11.8614 21.34 11.8852 21.5728 11.839C21.8056 11.7928 22.0194 11.6786 22.1873 11.5109C22.3552 11.3431 22.4696 11.1293 22.516 10.8966C22.5624 10.6638 22.5387 10.4225 22.448 10.2032C22.3572 9.98392 22.2035 9.79644 22.0062 9.6645C21.8089 9.53257 21.577 9.4621 21.3396 9.462H21.3391C21.021 9.46215 20.7159 9.58856 20.4909 9.81347C20.2659 10.0384 20.1394 10.3434 20.1391 10.6615ZM11.961 24.1398C10.986 24.0954 10.4561 23.933 10.1039 23.7958C9.63706 23.614 9.30394 23.3975 8.9537 23.0478C8.60346 22.698 8.38666 22.3652 8.2057 21.8983C8.06842 21.5463 7.90602 21.0162 7.8617 20.0413C7.81322 18.9872 7.80354 18.6706 7.80354 16.0001C7.80354 13.3296 7.81402 13.0138 7.8617 11.9589C7.9061 10.9839 8.0697 10.4549 8.2057 10.1018C8.38746 9.63496 8.60394 9.30184 8.9537 8.9516C9.30346 8.60136 9.63626 8.38456 10.1039 8.2036C10.4559 8.06632 10.986 7.90392 11.961 7.8596C13.0151 7.81112 13.3317 7.80144 16.001 7.80144C18.6703 7.80144 18.9872 7.81192 20.0422 7.8596C21.0171 7.904 21.5462 8.0676 21.8992 8.2036C22.3661 8.38456 22.6992 8.60184 23.0495 8.9516C23.3997 9.30136 23.6157 9.63496 23.7975 10.1018C23.9347 10.4538 24.0971 10.9839 24.1415 11.9589C24.1899 13.0138 24.1996 13.3296 24.1996 16.0001C24.1996 18.6706 24.1899 18.9863 24.1415 20.0413C24.0971 21.0162 23.9339 21.5462 23.7975 21.8983C23.6157 22.3652 23.3992 22.6983 23.0495 23.0478C22.6997 23.3972 22.3661 23.614 21.8992 23.7958C21.5472 23.933 21.0171 24.0954 20.0422 24.1398C18.9881 24.1882 18.6715 24.1979 16.001 24.1979C13.3305 24.1979 13.0147 24.1882 11.961 24.1398ZM11.8782 6.06056C10.8136 6.10904 10.0862 6.27784 9.4509 6.52504C8.79298 6.78032 8.23602 7.1228 7.67946 7.67848C7.1229 8.23416 6.7813 8.792 6.52602 9.44992C6.27882 10.0856 6.11002 10.8126 6.06154 11.8772C6.01226 12.9434 6.00098 13.2843 6.00098 16C6.00098 18.7157 6.01226 19.0566 6.06154 20.1228C6.11002 21.1874 6.27882 21.9144 6.52602 22.5501C6.7813 23.2076 7.12298 23.7661 7.67946 24.3215C8.23594 24.877 8.79298 25.219 9.4509 25.475C10.0874 25.7222 10.8136 25.891 11.8782 25.9394C12.945 25.9879 13.2853 26 16.001 26C18.7167 26 19.0575 25.9887 20.1238 25.9394C21.1884 25.891 21.9154 25.7222 22.5511 25.475C23.2086 25.219 23.7659 24.8772 24.3225 24.3215C24.8791 23.7658 25.2199 23.2076 25.4759 22.5501C25.7231 21.9144 25.8927 21.1874 25.9404 20.1228C25.9889 19.0558 26.0002 18.7157 26.0002 16C26.0002 13.2843 25.9889 12.9434 25.9404 11.8772C25.8919 10.8126 25.7231 10.0852 25.4759 9.44992C25.2199 8.7924 24.8782 8.23504 24.3225 7.67848C23.7668 7.12192 23.2086 6.78032 22.5519 6.52504C21.9154 6.27784 21.1883 6.10824 20.1246 6.06056C19.0583 6.01208 18.7175 6 16.0018 6C13.2861 6 12.945 6.01128 11.8782 6.06056Z" fill="white"/>
</svg>
