<svg width="32" height="32" viewBox="0 0 32 32" fill="none" xmlns="http://www.w3.org/2000/svg">
<rect width="32" height="32" rx="16" fill="#7C4EFF"/>
<path d="M7.19158 15.647C11.8444 13.5772 14.9471 12.2126 16.4995 11.5534C20.932 9.67101 21.853 9.34402 22.4533 9.33311C22.5853 9.33085 22.8806 9.36426 23.0718 9.52269C23.2333 9.65647 23.2777 9.83718 23.2989 9.96401C23.3202 10.0908 23.3467 10.3798 23.3256 10.6055C23.0854 13.1824 22.0461 19.4356 21.5174 22.3217C21.2936 23.5429 20.8531 23.9523 20.4266 23.9924C19.4997 24.0795 18.7959 23.367 17.8982 22.7662C16.4934 21.826 15.6998 21.2407 14.3363 20.3233C12.7605 19.263 13.782 18.6802 14.6801 17.7279C14.9151 17.4786 18.9989 13.686 19.0779 13.342C19.0878 13.299 19.097 13.1386 19.0037 13.0539C18.9103 12.9692 18.7726 12.9981 18.6732 13.0212C18.5323 13.0538 16.2882 14.5683 11.9409 17.5645C11.3039 18.0111 10.7269 18.2287 10.21 18.2173C9.64013 18.2047 8.54391 17.8883 7.72898 17.6178C6.72944 17.2861 5.93502 17.1107 6.0042 16.5473C6.04023 16.2539 6.43602 15.9537 7.19158 15.647Z" fill="white"/>
</svg>
