<svg width="32" height="32" viewBox="0 0 32 32" fill="none" xmlns="http://www.w3.org/2000/svg">
<rect width="32" height="32" rx="16" fill="#7C4EFF"/>
<path d="M23.8357 8.12335C23.3064 7.63678 21.1638 6.07887 16.3876 6.05753C16.3876 6.05753 10.7578 5.71607 8.01335 8.23433C6.48532 9.76235 5.94753 11.9946 5.89204 14.769C5.83655 17.5391 5.76399 22.7335 10.7706 24.142H10.7749L10.7706 26.2889C10.7706 26.2889 10.7407 27.1597 11.3127 27.3346C12.0041 27.5481 12.4139 26.8865 13.0755 26.1737C13.4383 25.781 13.9376 25.2091 14.3175 24.7694C17.7406 25.0554 20.3741 24.3981 20.6729 24.2999C21.3644 24.0737 25.2783 23.5743 25.9143 18.3799C26.5716 13.0361 25.5942 9.65138 23.8357 8.12335ZM24.4161 18.0043C23.8783 22.3408 20.7071 22.614 20.1223 22.8018C19.8748 22.8829 17.5614 23.4591 14.6504 23.267C14.6504 23.267 12.4822 25.8835 11.8078 26.5621C11.7011 26.6688 11.5773 26.7115 11.4962 26.6901C11.381 26.6603 11.3468 26.5237 11.3511 26.3231C11.3511 26.0328 11.3682 22.7506 11.3682 22.7506C11.3639 22.7506 11.3639 22.7506 11.3682 22.7506C7.12982 21.5768 7.37738 17.1549 7.42433 14.8415C7.47128 12.5282 7.90664 10.6288 9.19991 9.3526C11.5176 7.25264 16.3022 7.56422 16.3022 7.56422C20.34 7.58129 22.2735 8.79773 22.7217 9.20322C24.2113 10.4837 24.971 13.5355 24.4161 18.0043Z" fill="white"/>
<path d="M18.3554 14.9223C18.2145 14.9223 18.095 14.8114 18.0865 14.6662C18.0395 13.7486 17.6085 13.3004 16.7292 13.2534C16.5798 13.2449 16.4646 13.1169 16.4731 12.9675C16.4816 12.8181 16.6097 12.7028 16.7591 12.7114C17.92 12.7754 18.5688 13.4412 18.6286 14.6364C18.6371 14.7857 18.5219 14.9138 18.3725 14.9181C18.3639 14.9223 18.3597 14.9223 18.3554 14.9223Z" fill="white"/>
<path d="M19.7385 15.3835H19.7342C19.5848 15.3792 19.4653 15.2555 19.4696 15.1061C19.4909 14.1841 19.2263 13.4372 18.6629 12.8226C18.1037 12.208 17.3312 11.875 16.3111 11.8025C16.1617 11.7897 16.0507 11.6616 16.0635 11.5122C16.0763 11.3628 16.2044 11.2519 16.3537 11.2647C17.5062 11.35 18.4153 11.7513 19.0641 12.4598C19.7171 13.1726 20.033 14.0646 20.0116 15.1189C20.0073 15.2683 19.8836 15.3835 19.7385 15.3835Z" fill="white"/>
<path d="M21.155 15.9387C21.0056 15.9387 20.8861 15.8192 20.8861 15.6698C20.8733 14.018 20.3995 12.7588 19.4349 11.8156C18.4831 10.8851 17.2752 10.4113 15.8539 10.3985C15.7045 10.3985 15.585 10.2747 15.585 10.1253C15.585 9.97596 15.7087 9.85645 15.8539 9.85645C17.4203 9.86925 18.752 10.3942 19.8062 11.4272C20.8648 12.4601 21.4068 13.8857 21.4239 15.6612C21.4282 15.8149 21.3087 15.9387 21.155 15.9387C21.1593 15.9387 21.1593 15.9387 21.155 15.9387Z" fill="white"/>
<path d="M16.7928 18.2648C16.7928 18.2648 17.1727 18.2989 17.3775 18.0471L17.7745 17.5477C17.9666 17.3002 18.4318 17.1422 18.8842 17.3941C19.136 17.5349 19.5927 17.8166 19.8744 18.0258C20.1775 18.2477 20.7921 18.7599 20.7964 18.7642C21.0909 19.0117 21.1592 19.3745 20.9586 19.7629C20.9586 19.7629 20.9586 19.7672 20.9586 19.7715C20.7537 20.1343 20.4763 20.4757 20.1305 20.7916C20.1263 20.7916 20.1263 20.7958 20.122 20.7958C19.836 21.0349 19.5543 21.1715 19.2812 21.2013C19.247 21.2099 19.2086 21.2099 19.1574 21.2099C19.0379 21.2099 18.9184 21.1928 18.7989 21.1544L18.7903 21.1416C18.3635 21.0221 17.655 20.7233 16.4769 20.0702C15.7087 19.6477 15.0727 19.2166 14.5306 18.7855C14.2447 18.5593 13.9544 18.3075 13.6556 18.0087C13.6471 18.0002 13.6343 17.9874 13.6258 17.9788C13.6172 17.9703 13.6044 17.9575 13.5959 17.9489C13.5874 17.9404 13.5745 17.9276 13.566 17.9191C13.5575 17.9105 13.5447 17.8977 13.5361 17.8892C13.2416 17.5904 12.9855 17.3002 12.7593 17.0142C12.3282 16.4764 11.8971 15.8362 11.4746 15.0679C10.8215 13.8856 10.5228 13.1771 10.4033 12.7545L10.3904 12.746C10.352 12.6265 10.335 12.5069 10.335 12.3874C10.335 12.3362 10.335 12.2978 10.3435 12.2637C10.3776 11.9862 10.5142 11.7088 10.749 11.4228C10.749 11.4185 10.7532 11.4185 10.7532 11.4143C11.0691 11.0643 11.4106 10.7911 11.7734 10.5862C11.7734 10.5862 11.7776 10.5862 11.7819 10.5862C12.166 10.3856 12.5288 10.4539 12.7807 10.7484C12.7807 10.7484 13.2971 11.3673 13.5191 11.6704C13.7282 11.9563 14.0099 12.4088 14.1508 12.6606C14.4026 13.113 14.2447 13.5783 13.9971 13.7703L13.4977 14.1673C13.2459 14.3722 13.28 14.752 13.28 14.752C13.28 14.752 14.0184 17.5605 16.7928 18.2648Z" fill="white"/>
</svg>
