<svg width="32" height="32" viewBox="0 0 32 32" fill="none" xmlns="http://www.w3.org/2000/svg">
<rect width="32" height="32" rx="16" fill="#52399B"/>
<path fill-rule="evenodd" clip-rule="evenodd" d="M24.5666 16.1136C24.3605 15.3482 23.757 14.7447 22.9916 14.5386C21.5933 14.1559 16 14.1559 16 14.1559C16 14.1559 10.4067 14.1559 9.00837 14.5239C8.25769 14.73 7.63948 15.3482 7.43341 16.1136C7.06543 17.5119 7.06543 20.4116 7.06543 20.4116C7.06543 20.4116 7.06543 23.326 7.43341 24.7096C7.63948 25.475 8.24297 26.0785 9.00837 26.2846C10.4214 26.6673 16 26.6673 16 26.6673C16 26.6673 21.5933 26.6673 22.9916 26.2993C23.757 26.0932 24.3605 25.4897 24.5666 24.7243C24.9345 23.326 24.9345 20.4263 24.9345 20.4263C24.9345 20.4263 24.9493 17.5119 24.5666 16.1136ZM20.9179 22.0878C20.9179 22.4153 20.9275 22.6658 20.9468 22.8295C20.9661 22.9933 21.0046 23.1185 21.072 23.186C21.1298 23.263 21.2262 23.3016 21.361 23.3016C21.5344 23.3016 21.65 23.2341 21.7175 23.0993C21.7849 22.9644 21.8138 22.7428 21.8234 22.4249L22.8157 22.4827C22.8253 22.5309 22.8253 22.5887 22.8253 22.6658C22.8253 23.1378 22.7001 23.4942 22.44 23.7254C22.1799 23.9566 21.8138 24.0722 21.3418 24.0722C20.7734 24.0722 20.3784 23.8892 20.1473 23.5328C19.9161 23.1763 19.8005 22.6272 19.8005 21.8759V20.98C19.8005 20.2093 19.9161 19.6506 20.1569 19.2941C20.3977 18.9377 20.8023 18.7643 21.3707 18.7643C21.7656 18.7643 22.0739 18.8414 22.2858 18.9859C22.4978 19.1304 22.6423 19.3616 22.729 19.6602C22.8157 19.9685 22.8542 20.3923 22.8542 20.9318V21.8084H20.9179V22.0878ZM21.0624 19.6698C21.0046 19.7469 20.9661 19.8625 20.9468 20.0263C20.9275 20.19 20.9179 20.4405 20.9179 20.7777V21.1437H21.7656V20.7777C21.7656 20.4501 21.756 20.1997 21.7367 20.0263C21.7175 19.8529 21.6693 19.7373 21.6115 19.6698C21.5537 19.6024 21.4574 19.5639 21.3418 19.5639C21.2069 19.5542 21.1202 19.5928 21.0624 19.6698ZM15.3499 24.0144V18.8799H14.1939V22.9547C14.1554 23.0511 14.0879 23.1281 13.9916 23.1859C13.8953 23.2534 13.7989 23.2823 13.7026 23.2823C13.587 23.2823 13.5003 23.2341 13.4521 23.1378C13.404 23.0414 13.3751 22.8777 13.3751 22.6465V18.8799H12.2191V22.7139C12.2191 23.1956 12.2961 23.5424 12.4599 23.7639C12.6237 23.9855 12.8741 24.1011 13.2113 24.1011C13.7026 24.1011 14.0783 23.8603 14.3191 23.3882H14.348L14.4443 24.0144H15.3499ZM12.566 17.9165H11.4196V24.0047H10.2925V17.9165H9.14618V16.9821H12.566V17.9165ZM18.8369 18.9954C18.9911 19.1399 19.1067 19.3711 19.1741 19.6987C19.2415 20.0166 19.2704 20.4693 19.2801 21.0569V21.8661C19.2801 22.6272 19.1837 23.1955 19.0007 23.5519C18.8177 23.9084 18.5383 24.0914 18.1433 24.0914C17.9218 24.0914 17.7291 24.0336 17.5461 23.9373C17.363 23.8313 17.2282 23.6964 17.1415 23.5231H17.1126L16.997 24.0047H16.0433V16.722H17.1607V19.4289H17.1704C17.2667 19.2363 17.4112 19.0725 17.5942 18.9569C17.7773 18.8317 17.9796 18.7739 18.1915 18.7739C18.4612 18.7739 18.6828 18.8509 18.8369 18.9954ZM18.0663 22.6657C18.0952 22.4538 18.1144 22.1648 18.1144 21.7891H18.1241V21.1147C18.1241 20.7198 18.1144 20.4115 18.0855 20.19C18.0566 19.978 18.0181 19.8239 17.9507 19.7276C17.8929 19.6409 17.7965 19.5927 17.6809 19.5927C17.575 19.5927 17.469 19.6409 17.3727 19.7276C17.2763 19.8239 17.2089 19.9395 17.1704 20.0744V22.9836C17.2185 23.0703 17.286 23.1377 17.363 23.1859C17.4401 23.2341 17.5268 23.2533 17.6231 23.2533C17.7387 23.2533 17.8351 23.2052 17.9121 23.1185C17.9796 23.0318 18.0374 22.8776 18.0663 22.6657Z" fill="white"/>
<path d="M14.9167 12.2121C14.6855 12.058 14.5217 11.8172 14.4254 11.48C14.3291 11.1525 14.2809 10.7093 14.2809 10.1699V9.42812C14.2809 8.87903 14.3387 8.4359 14.4447 8.09874C14.5603 7.76158 14.7337 7.52075 14.9649 7.36661C15.2057 7.21248 15.514 7.13542 15.8993 7.13542C16.275 7.13542 16.5832 7.21248 16.8144 7.36661C17.0456 7.52075 17.2094 7.77121 17.3154 8.09874C17.4213 8.42627 17.4791 8.86939 17.4791 9.42812V10.1699C17.4791 10.719 17.431 11.1525 17.325 11.4896C17.219 11.8172 17.0553 12.0676 16.8241 12.2218C16.5929 12.3759 16.275 12.453 15.88 12.453C15.4754 12.4433 15.1479 12.3663 14.9167 12.2121ZM16.2172 11.4029C16.2846 11.2392 16.3135 10.9598 16.3135 10.5841V8.98499C16.3135 8.61893 16.2846 8.3492 16.2172 8.1758C16.1498 8.00241 16.0438 7.92534 15.88 7.92534C15.7259 7.92534 15.6103 8.01204 15.5525 8.1758C15.4851 8.3492 15.4562 8.61893 15.4562 8.98499V10.5841C15.4562 10.9598 15.4851 11.2392 15.5525 11.4029C15.6103 11.5667 15.7259 11.6534 15.8897 11.6534C16.0438 11.6534 16.1498 11.5763 16.2172 11.4029Z" fill="white"/>
<path d="M12.104 10.0832L10.7939 5.33398H11.9403L12.4027 7.48219C12.5183 8.01202 12.605 8.46478 12.6628 8.84047H12.6917C12.7302 8.57074 12.8169 8.12762 12.9518 7.49182L13.4334 5.33398H14.5798L13.2504 10.0832V12.3566H12.1137V10.0832H12.104Z" fill="white"/>
<path d="M21.2073 7.23177V12.3663H20.3018L20.2054 11.7401H20.1765C19.9357 12.2121 19.56 12.453 19.0687 12.453C18.7315 12.453 18.4811 12.3374 18.3173 12.1158C18.1535 11.8942 18.0765 11.5474 18.0765 11.0658V7.23177H19.2325V10.9984C19.2325 11.2296 19.2614 11.3933 19.3095 11.4896C19.3577 11.586 19.4444 11.6341 19.56 11.6341C19.6563 11.6341 19.7527 11.6052 19.849 11.5378C19.9453 11.48 20.0128 11.403 20.0513 11.3066V7.23177H21.2073Z" fill="white"/>
</svg>
