<svg width="26" height="31" viewBox="0 0 26 31" fill="none" xmlns="http://www.w3.org/2000/svg">
<path d="M25.9128 25.4611L21.4411 17.6054C21.8943 17.3939 22.1663 16.9105 22.136 16.3666L21.8037 13.5869L23.7072 11.5928C24.1302 11.1698 24.1604 10.4447 23.7374 9.93102L21.8339 7.87645L22.2267 5.06654C22.2871 4.46225 21.8641 3.85797 21.2598 3.73711L18.5104 3.19326L17.1809 0.745912C16.909 0.171843 16.2443 -0.0698702 15.64 0.171843H15.6098L13.0718 1.3502L10.5942 0.141629C10.3223 -0.00944193 9.98996 -0.0396561 9.68782 0.0509864C9.38567 0.141629 9.14396 0.353128 8.99289 0.625055L7.63325 3.0724L4.88376 3.55583C4.24927 3.67669 3.82627 4.25075 3.8867 4.91547L4.21905 7.69517L2.31556 9.6893C1.89256 10.1123 1.86235 10.8374 2.28535 11.3511L4.18884 13.4056L3.79605 16.2156C3.73563 16.7594 4.06798 17.2731 4.58162 17.4846L0.0797128 25.4611C-0.0411439 25.6424 -0.0109297 25.8841 0.0797128 26.0654C0.200569 26.2467 0.381854 26.3675 0.593353 26.3675H5.42762L7.63325 30.2047C7.75411 30.386 7.93539 30.5069 8.14689 30.5069C8.35839 30.5069 8.56989 30.386 8.66053 30.2047L12.9812 22.8325L17.3018 30.2954C17.4226 30.4766 17.6039 30.5975 17.8154 30.5975C18.0269 30.5975 18.2384 30.4766 18.3291 30.2954L20.5347 26.3675H25.369C25.5805 26.3675 25.792 26.2467 25.8826 26.0654C26.0337 25.8841 26.0337 25.6424 25.9128 25.4611ZM8.17711 28.694L6.30383 25.4611C6.18297 25.2798 6.00169 25.159 5.79019 25.159H1.62063L5.79019 17.7867L7.5124 18.0888L8.84182 20.5362C9.11375 21.1103 9.77846 21.352 10.3827 21.1103H10.413L11.6517 20.5362L12.256 21.5937L8.17711 28.694ZM9.92953 20.0225C9.89931 20.0225 9.89932 20.0225 9.89932 20.0225L8.56989 17.5148C8.38861 17.2126 8.08647 16.9709 7.7239 16.9407L4.94419 16.4271L5.33698 13.6474C5.39741 13.2848 5.27655 12.892 5.03484 12.6503L3.16156 10.5957L5.06505 8.60159C5.33698 8.32967 5.45783 7.9671 5.39741 7.60453L5.06505 4.85504C5.06505 4.85504 5.06505 4.82482 5.09526 4.79461L7.84475 4.31118C8.17711 4.25075 8.50946 4.03926 8.69075 3.7069L10.0504 1.25955L12.5279 2.46812C12.8603 2.6494 13.2833 2.6494 13.6157 2.46812L16.1234 1.31998C16.1536 1.31998 16.1536 1.31998 16.1536 1.31998L17.4831 3.82776C17.6644 4.1299 17.9665 4.37161 18.2989 4.40183L21.0483 4.94568L20.6556 7.72538C20.5951 8.08795 20.716 8.48074 20.9577 8.72245L22.8612 10.777L20.9275 12.7711C20.6556 13.0431 20.5347 13.4056 20.5951 13.7682L20.9275 16.5479L18.2082 17.0011C17.8759 17.0616 17.5435 17.2731 17.3622 17.6054L16.0026 20.0528L13.525 18.8442C13.1927 18.6629 12.7697 18.6629 12.4373 18.8442L9.92953 20.0225ZM20.2023 25.159C19.9908 25.159 19.7793 25.2798 19.6887 25.4611L17.8154 28.7847L13.5552 21.4124C13.525 21.3218 13.4948 21.2613 13.4344 21.2009L12.7697 20.0225L12.9812 19.9319L15.4587 21.1405C15.64 21.2311 15.8213 21.2613 16.0026 21.2613C16.4256 21.2613 16.8486 21.0498 17.0601 20.657L18.4197 18.2097L20.2326 17.8773L24.3719 25.159H20.2023Z" fill="#2E3285"/>
<path d="M19.0232 10.6563C19.0232 7.33277 16.3039 4.61349 12.9803 4.61349C9.65677 4.61349 6.9375 7.33277 6.9375 10.6563C6.9375 13.9799 9.65677 16.6992 12.9803 16.6992C16.3039 16.6992 19.0232 13.9799 19.0232 10.6563ZM12.9803 15.4906C10.3215 15.4906 8.14607 13.3152 8.14607 10.6563C8.14607 7.99748 10.3215 5.82206 12.9803 5.82206C15.6392 5.82206 17.8146 7.99748 17.8146 10.6563C17.8146 13.3152 15.6392 15.4906 12.9803 15.4906Z" fill="#D4062D"/>
</svg>
