<svg width="36" height="29" viewBox="0 0 36 29" fill="none" xmlns="http://www.w3.org/2000/svg">
<path d="M24.755 8.82178H4.53917C3.29861 8.82178 2.29297 9.82538 2.29297 11.0634V24.5133C2.29297 25.7513 3.29861 26.7549 4.53917 26.7549H24.755C25.9956 26.7549 27.0012 25.7513 27.0012 24.5133V11.0634C27.0012 9.82538 25.9956 8.82178 24.755 8.82178ZM25.9081 24.5133C25.906 25.148 25.391 25.6619 24.755 25.664H4.53917C3.90322 25.6619 3.38818 25.148 3.38612 24.5133V11.0634C3.38818 10.4288 3.90322 9.91477 4.53917 9.91271H24.755C25.391 9.91477 25.906 10.4288 25.9081 11.0634V24.5133Z" fill="#2E3285"/>
<path d="M32.9369 6.55739H32.9331H18.2617L22.1551 0.844935C22.3235 0.598354 22.2599 0.262107 22.0128 0.0939836C21.7657 -0.0741398 21.4288 -0.0106265 21.2603 0.235955L17.1386 6.28092L12.8258 2.40288C12.5863 2.22299 12.2459 2.2709 12.0657 2.51001C11.907 2.72035 11.923 3.0141 12.1033 3.20613L15.847 6.5686H2.6917C1.20687 6.57271 0.00411804 7.77302 0 9.25484V26.3138C0.00411804 27.7956 1.20687 28.9959 2.6917 29H32.9369C34.4217 28.9959 35.6245 27.7956 35.6286 26.3138V9.24363C35.6245 7.76181 34.4218 6.5615 32.9369 6.55739ZM34.5429 26.3138C34.5408 27.2001 33.8213 27.9182 32.9331 27.9203H2.6917C1.80352 27.9182 1.08398 27.2001 1.08192 26.3138V9.24363C1.08398 8.35725 1.80352 7.63917 2.6917 7.63712H32.9369C33.8251 7.63917 34.5446 8.35725 34.5466 9.24363L34.5429 26.3138Z" fill="#2E3285"/>
<path d="M32.2105 10.9733L32.1806 10.9434C31.3362 10.0995 29.9661 10.0985 29.1204 10.9412C29.1197 10.942 29.1189 10.9427 29.1183 10.9434C28.2727 11.7861 28.2716 13.1534 29.1161 13.9973C29.1169 13.9981 29.1176 13.9988 29.1183 13.9995C29.9932 14.8149 31.3648 14.7681 32.1819 13.895C32.9487 13.0757 32.9611 11.8074 32.2105 10.9733ZM31.4318 13.2373C31.0079 13.6602 30.3209 13.6602 29.8969 13.2373C29.5054 12.7841 29.5563 12.1 30.0105 11.7093C30.4178 11.3588 31.0208 11.3588 31.4281 11.7093L31.4506 11.7317C31.8437 12.1561 31.8338 12.8137 31.4281 13.2261L31.4318 13.2373Z" fill="#D4062D"/>
<path d="M31.8006 16.3942C31.4959 16.0898 31.0823 15.919 30.6513 15.9197C29.7539 15.9201 29.0269 16.6465 29.0273 17.542C29.0278 18.4375 29.7557 19.1631 30.6529 19.1626C31.5503 19.1621 32.2773 18.4357 32.2769 17.5403C32.2767 17.1104 32.1053 16.6981 31.8006 16.3942ZM31.0331 17.9222L31.0256 17.926C30.8146 18.1384 30.4709 18.1399 30.258 17.9293C30.0451 17.7187 30.0436 17.3757 30.2546 17.1632C30.4657 16.9507 30.8093 16.9492 31.0223 17.1599C31.127 17.2635 31.185 17.4052 31.1829 17.5523C31.1823 17.6902 31.1287 17.8227 31.0331 17.9222Z" fill="#D4062D"/>
</svg>
