<svg width="300" height="368" viewBox="0 0 300 368" fill="none" xmlns="http://www.w3.org/2000/svg">
<g clip-path="url(#clip0_511_121182)">
<path d="M19.2768 313.174C40.4733 357.783 77.886 376.997 91.5703 398.578C167.13 406.992 281.539 398.647 287.5 380C307 319 279 300.187 279 211.001C279 58.0003 69.6228 -10.5147 43.9997 5.00024C-10.5004 38.0002 62.4998 118.828 43.9996 124.5C-14.4131 142.41 5.24858 283.651 19.2768 313.174Z" fill="url(#paint0_linear_511_121182)"/>
<path d="M15.8657 310.261C33.0814 356.612 68.8375 379.146 80.603 401.882C155.559 417.123 274.159 418.608 275.991 399.118C278.282 374.755 234.406 264.365 275.991 214.5C314.259 168.613 296.491 78.5 248 29.9998C195.347 -22.6628 107.148 119.468 47 132C-13.1485 144.532 4.47212 279.584 15.8657 310.261Z" fill="#8E1533"/>
<path d="M15.8657 310.261C33.0814 356.612 68.8375 379.146 80.603 401.882C155.559 417.123 274.159 418.608 275.991 399.118C278.282 374.755 234.406 264.365 275.991 214.5C314.259 168.613 296.491 78.5 248 29.9998C195.347 -22.6628 107.148 119.468 47 132C-13.1485 144.532 4.47212 279.584 15.8657 310.261Z" fill="url(#paint1_linear_511_121182)"/>
<path d="M21.7259 326.808C43.175 370.397 80.8301 389.078 94.6529 410.153C170.599 418.137 283.613 408.043 288.648 389.557C308 318.5 233.318 247.9 270 195.5C355.055 74 140.663 7.49985 58.4999 7.5C-15.8631 7.50014 107 205.5 46.9882 160.597C-2.05156 123.904 7.53059 297.961 21.7259 326.808Z" fill="url(#paint2_linear_511_121182)"/>
</g>
<defs>
<linearGradient id="paint0_linear_511_121182" x1="83.9999" y1="55.5002" x2="228" y2="390.5" gradientUnits="userSpaceOnUse">
<stop stop-color="#1975F1"/>
<stop offset="1" stop-color="#3384F3"/>
</linearGradient>
<linearGradient id="paint1_linear_511_121182" x1="291.019" y1="24.6858" x2="12.8944" y2="209.379" gradientUnits="userSpaceOnUse">
<stop stop-color="#790F29"/>
<stop offset="1" stop-color="#A92748"/>
</linearGradient>
<linearGradient id="paint2_linear_511_121182" x1="232" y1="48.5001" x2="65.0001" y2="388.5" gradientUnits="userSpaceOnUse">
<stop stop-color="#E3AD1E"/>
<stop offset="1" stop-color="#DEA309"/>
</linearGradient>
<clipPath id="clip0_511_121182">
<rect width="300" height="368" fill="white"/>
</clipPath>
</defs>
</svg>
