<svg width="300" height="368" viewBox="0 0 300 368" fill="none" xmlns="http://www.w3.org/2000/svg">
<g clip-path="url(#clip0_511_121186)">
<path d="M17 319C4.50004 365.5 -18.6843 431.419 -4.99997 453C70.56 461.414 281.539 398.647 287.5 380C307 319 264.5 299 279 211C294.227 118.585 279 43 188 20.0001C53.7146 -13.94 107.413 59.5903 49 77.5001C-9.41271 95.4099 31.2999 265.805 17 319Z" fill="url(#paint0_linear_511_121186)"/>
<path d="M44.9999 328C91.4999 393 113.234 390.265 125 413C199.956 428.242 281.713 385.631 293.5 370C316.5 339.5 251 230 276.5 176.5C302.208 122.564 276.991 73.5005 228.5 25.0002C175.847 -27.6623 92.1483 85.968 31.9999 98.5001C-28.1486 111.032 25.9601 301.385 44.9999 328Z" fill="#8E1533"/>
<path d="M44.9999 328C91.4999 393 113.234 390.265 125 413C199.956 428.242 281.713 385.631 293.5 370C316.5 339.5 251 230 276.5 176.5C302.208 122.564 276.991 73.5005 228.5 25.0002C175.847 -27.6623 92.1483 85.968 31.9999 98.5001C-28.1486 111.032 25.9601 301.385 44.9999 328Z" fill="url(#paint1_linear_511_121186)"/>
<path d="M21.726 296C43.1751 339.588 7.9033 400.424 21.7261 421.5C97.6718 429.483 281.074 407.156 288.648 389.557C316 326 193.5 173.854 283 161C337 153.245 254.5 39.5 149 39.5C74.6369 39.5 99 95.5 54 132C6.43246 170.583 7.53067 267.153 21.726 296Z" fill="url(#paint2_linear_511_121186)"/>
</g>
<defs>
<linearGradient id="paint0_linear_511_121186" x1="84.0001" y1="55.4999" x2="228" y2="390.5" gradientUnits="userSpaceOnUse">
<stop stop-color="#1975F1"/>
<stop offset="1" stop-color="#3384F3"/>
</linearGradient>
<linearGradient id="paint1_linear_511_121186" x1="291.019" y1="24.6859" x2="12.8942" y2="209.379" gradientUnits="userSpaceOnUse">
<stop stop-color="#790F29"/>
<stop offset="1" stop-color="#A92748"/>
</linearGradient>
<linearGradient id="paint2_linear_511_121186" x1="232" y1="48.5" x2="65" y2="388.5" gradientUnits="userSpaceOnUse">
<stop stop-color="#E3AD1E"/>
<stop offset="1" stop-color="#DEA309"/>
</linearGradient>
<clipPath id="clip0_511_121186">
<rect width="300" height="368" fill="white"/>
</clipPath>
</defs>
</svg>
