<svg width="300" height="368" viewBox="0 0 300 368" fill="none" xmlns="http://www.w3.org/2000/svg">
<g clip-path="url(#clip0_511_121178)">
<path d="M10.6278 312.017C23.8494 360.433 71.0606 376.659 85.1712 398.517C163.078 407.043 282.561 399.013 287.182 379.713C320.168 241.978 265.925 298.042 278.408 208.554C309.841 -16.7877 112.396 -13.2549 50.5359 31.81C11.3288 60.3723 46.415 84.4742 46.417 116.883C46.4208 178.76 -25.0136 181.5 10.6278 312.017Z" fill="url(#paint0_linear_511_121178)"/>
<path d="M15.8657 310.261C33.0814 356.613 68.8375 379.147 80.603 401.882C155.559 417.124 274.158 418.609 275.991 399.118C278.282 374.755 296.171 326.479 278.5 264C264.5 214.5 178 70.0003 123 55.5002C41.5323 34.0224 104.648 129.468 44.5 142C-15.6485 154.532 -1.34994 263.909 15.8657 310.261Z" fill="#8E1533"/>
<path d="M15.8657 310.261C33.0814 356.613 68.8375 379.147 80.603 401.882C155.559 417.124 274.158 418.609 275.991 399.118C278.282 374.755 296.171 326.479 278.5 264C264.5 214.5 178 70.0003 123 55.5002C41.5323 34.0224 104.648 129.468 44.5 142C-15.6485 154.532 -1.34994 263.909 15.8657 310.261Z" fill="url(#paint1_linear_511_121178)"/>
<path d="M22.2106 325.52C43.649 369.76 81.2854 388.72 95.1013 410.111C171.009 418.213 289 408.652 289 389.206C289 364.899 245.666 263.961 282.33 210.778C325.54 148.1 127.432 -103.099 98.4467 86.6955C87.0563 161.278 56.6935 131.861 22.2106 182.1C-12.793 233.099 8.02228 296.242 22.2106 325.52Z" fill="url(#paint2_linear_511_121178)"/>
</g>
<defs>
<linearGradient id="paint0_linear_511_121178" x1="77.3446" y1="51.0541" x2="221.381" y2="392.224" gradientUnits="userSpaceOnUse">
<stop stop-color="#1975F1"/>
<stop offset="1" stop-color="#3384F3"/>
</linearGradient>
<linearGradient id="paint1_linear_511_121178" x1="291.019" y1="24.686" x2="12.8943" y2="209.379" gradientUnits="userSpaceOnUse">
<stop stop-color="#790F29"/>
<stop offset="1" stop-color="#A92748"/>
</linearGradient>
<linearGradient id="paint2_linear_511_121178" x1="232.38" y1="43.0531" x2="61.3016" y2="386.058" gradientUnits="userSpaceOnUse">
<stop stop-color="#E3AD1E"/>
<stop offset="1" stop-color="#DEA309"/>
</linearGradient>
<clipPath id="clip0_511_121178">
<rect width="300" height="368" fill="white"/>
</clipPath>
</defs>
</svg>
