<svg width="300" height="368" viewBox="0 0 300 368" fill="none" xmlns="http://www.w3.org/2000/svg">
<g clip-path="url(#clip0_709_35992)">
<path d="M19.3047 305.035C40.4872 353.753 77.8939 374.728 91.5715 398.296C167.129 407.462 281.54 398.311 287.507 377.942C307.026 311.309 264.532 289.477 279.06 193.354C294.316 92.4092 135.5 3.49994 65.0001 32C4.40502 56.4959 102.505 79.3676 44.0867 98.948C-14.3317 118.528 5.28574 272.793 19.3047 305.035Z" fill="url(#paint0_linear_709_35992)"/>
<path d="M15.8657 301.597C33.0814 351.504 68.8375 375.767 80.603 400.246C155.559 416.657 274.159 418.256 275.991 397.27C278.282 371.038 242.415 268.332 284 214.641C322.268 165.235 275.991 69.8245 227.5 17.6039C174.847 -39.0983 117.101 108.604 56.9524 122.097C-3.19612 135.591 4.47213 268.568 15.8657 301.597Z" fill="#8E1533"/>
<path d="M15.8657 301.597C33.0814 351.504 68.8375 375.767 80.603 400.246C155.559 416.657 274.159 418.256 275.991 397.27C278.282 371.038 242.415 268.332 284 214.641C322.268 165.235 275.991 69.8245 227.5 17.6039C174.847 -39.0983 117.101 108.604 56.9524 122.097C-3.19612 135.591 4.47213 268.568 15.8657 301.597Z" fill="url(#paint1_linear_709_35992)"/>
<path d="M21.7241 319.969C43.1704 367.016 80.8207 387.179 94.6416 409.927C170.578 418.544 288.612 408.376 288.612 387.697C288.612 361.847 245.262 254.504 281.94 197.947C325.166 131.291 244.469 31.9998 162.317 32C87.9633 32.0002 105.603 121.441 46.9831 140.57C-11.6369 159.699 7.5306 288.833 21.7241 319.969Z" fill="url(#paint2_linear_709_35992)"/>
</g>
<defs>
<linearGradient id="paint0_linear_709_35992" x1="84.1086" y1="23.5699" x2="250.917" y2="378.666" gradientUnits="userSpaceOnUse">
<stop stop-color="#1975F1"/>
<stop offset="1" stop-color="#3384F3"/>
</linearGradient>
<linearGradient id="paint1_linear_709_35992" x1="291.019" y1="-5.88336" x2="0.685532" y2="173.182" gradientUnits="userSpaceOnUse">
<stop stop-color="#790F29"/>
<stop offset="1" stop-color="#A92748"/>
</linearGradient>
<linearGradient id="paint2_linear_709_35992" x1="231.971" y1="19.5786" x2="43.4496" y2="375.133" gradientUnits="userSpaceOnUse">
<stop stop-color="#E3AD1E"/>
<stop offset="1" stop-color="#DEA309"/>
</linearGradient>
<clipPath id="clip0_709_35992">
<rect width="300" height="368" fill="white"/>
</clipPath>
</defs>
</svg>
