<svg width="210" height="264" viewBox="0 0 210 264" fill="none" xmlns="http://www.w3.org/2000/svg">
<path d="M3.26365 271.855C3.07569 271.658 2.76555 271.648 2.56544 271.831C1.61687 270.737 0.904372 269.458 0.473933 268.077C0.734261 268.003 0.889015 267.734 0.820551 267.471C0.610103 266.661 0.5 265.819 0.5 264.961V263.016C0.5 262.739 0.276142 262.516 0 262.516V259.625C0.276142 259.625 0.5 259.401 0.5 259.125L0.5 255.234C0.5 254.958 0.276143 254.734 0 254.734V251.843C0.276143 251.843 0.5 251.619 0.5 251.343L0.5 247.452C0.5 247.176 0.276143 246.952 0 246.952V244.061C0.276143 244.061 0.5 243.837 0.5 243.561L0.5 239.67C0.5 239.394 0.276143 239.17 0 239.17V236.28C0.276143 236.28 0.5 236.056 0.5 235.78L0.5 231.889C0.5 231.613 0.276143 231.389 0 231.389V228.498C0.276143 228.498 0.5 228.274 0.5 227.998L0.5 224.107C0.5 223.831 0.276143 223.607 0 223.607V220.716C0.276143 220.716 0.500001 220.492 0.500001 220.216L0.500001 216.325C0.500001 216.049 0.276143 215.825 0 215.825V212.934C0.276143 212.934 0.500001 212.711 0.500001 212.434V210.489C0.500001 209.879 0.552012 209.289 0.650788 208.721C0.697396 208.453 0.521082 208.197 0.255537 208.145C0.458467 207.237 0.776878 206.385 1.19134 205.599C1.42749 205.731 1.72717 205.651 1.86563 205.417C2.47378 204.388 3.26002 203.489 4.17189 202.751C4.38343 202.579 4.41856 202.271 4.253 202.057C4.98438 201.519 5.78286 201.076 6.62604 200.739C6.72048 200.993 7.00087 201.126 7.25812 201.037C8.36673 200.653 9.54515 200.46 10.7402 200.487C11.0123 200.493 11.2383 200.28 11.2508 200.01C12.1373 200.073 13.0294 200.252 13.9078 200.558C13.8125 200.812 13.9365 201.096 14.189 201.198C14.7241 201.413 15.2532 201.68 15.7713 202.001L17.5095 203.078C17.7442 203.224 18.0524 203.151 18.1979 202.916L20.8241 204.544C20.6786 204.778 20.751 205.087 20.9858 205.232L24.462 207.386C24.6968 207.531 25.005 207.459 25.1504 207.224L27.7766 208.851C27.6312 209.086 27.7036 209.394 27.9383 209.54L31.4146 211.694C31.6493 211.839 31.9575 211.767 32.103 211.532L34.7292 213.159C34.5837 213.394 34.6561 213.702 34.8909 213.847L38.3671 216.001C38.6019 216.147 38.9101 216.074 39.0555 215.84L41.6817 217.467C41.5363 217.701 41.6087 218.01 41.8434 218.155L45.3197 220.309C45.5544 220.454 45.8626 220.382 46.0081 220.147L48.6343 221.774C48.4888 222.009 48.5612 222.317 48.796 222.463L52.2722 224.617C52.507 224.762 52.8152 224.69 52.9606 224.455L55.5868 226.082C55.4414 226.317 55.5138 226.625 55.7485 226.77L59.2248 228.924C59.4595 229.07 59.7677 228.997 59.9132 228.763L62.5394 230.39C62.3939 230.625 62.4663 230.933 62.7011 231.078L66.1773 233.232C66.4121 233.377 66.7203 233.305 66.8657 233.07L69.4919 234.697C69.3465 234.932 69.4189 235.24 69.6536 235.386L73.1299 237.54C73.3646 237.685 73.6728 237.613 73.8183 237.378L76.4445 239.005C76.299 239.24 76.3714 239.548 76.6062 239.694L80.0825 241.847C80.3172 241.993 80.6254 241.92 80.7708 241.686L83.397 243.313C83.2516 243.548 83.324 243.856 83.5587 244.001L87.035 246.155C87.2698 246.301 87.5779 246.228 87.7234 245.993L90.3496 247.621C90.2042 247.855 90.2766 248.164 90.5113 248.309L93.9876 250.463C94.2223 250.608 94.5305 250.536 94.6759 250.301L97.3022 251.928C97.1567 252.163 97.2291 252.471 97.4638 252.617L99.202 253.694C100.082 254.239 101.019 254.649 101.986 254.924C102.251 254.999 102.528 254.845 102.604 254.58C102.605 254.576 102.606 254.572 102.607 254.568C104.18 254.936 105.82 254.936 107.393 254.568C107.394 254.572 107.395 254.576 107.396 254.58C107.472 254.845 107.749 254.999 108.014 254.924C108.981 254.649 109.918 254.239 110.798 253.694L112.536 252.617C112.771 252.471 112.843 252.163 112.698 251.928L115.324 250.301C115.47 250.536 115.778 250.608 116.012 250.463L119.489 248.309C119.723 248.163 119.796 247.855 119.65 247.621L122.277 245.993C122.422 246.228 122.73 246.301 122.965 246.155L126.441 244.001C126.676 243.856 126.748 243.548 126.603 243.313L129.229 241.686C129.375 241.92 129.683 241.993 129.918 241.847L133.394 239.694C133.629 239.548 133.701 239.24 133.556 239.005L136.182 237.378C136.327 237.613 136.635 237.685 136.87 237.54L140.346 235.386C140.581 235.24 140.654 234.932 140.508 234.697L143.134 233.07C143.28 233.305 143.588 233.377 143.823 233.232L147.299 231.078C147.534 230.933 147.606 230.625 147.461 230.39L150.087 228.763C150.232 228.997 150.54 229.07 150.775 228.924L154.251 226.77C154.486 226.625 154.559 226.317 154.413 226.082L157.039 224.455C157.185 224.69 157.493 224.762 157.728 224.617L161.204 222.463C161.439 222.317 161.511 222.009 161.366 221.774L163.992 220.147C164.137 220.382 164.446 220.454 164.68 220.309L168.157 218.155C168.391 218.01 168.464 217.701 168.318 217.467L170.944 215.84C171.09 216.074 171.398 216.147 171.633 216.001L175.109 213.847C175.344 213.702 175.416 213.394 175.271 213.159L177.897 211.532C178.042 211.767 178.351 211.839 178.585 211.694L182.062 209.54C182.296 209.394 182.369 209.086 182.223 208.851L184.85 207.224C184.995 207.459 185.303 207.531 185.538 207.386L189.014 205.232C189.249 205.087 189.321 204.778 189.176 204.544L191.802 202.916C191.948 203.151 192.256 203.224 192.491 203.078L194.229 202.001C194.747 201.68 195.276 201.413 195.811 201.198C196.063 201.096 196.188 200.812 196.092 200.558C196.971 200.252 197.863 200.073 198.749 200.01C198.762 200.28 198.988 200.493 199.26 200.487C200.455 200.46 201.633 200.653 202.742 201.037C202.999 201.126 203.28 200.993 203.374 200.739C204.217 201.076 205.016 201.519 205.747 202.057C205.581 202.271 205.617 202.579 205.828 202.751C206.74 203.489 207.526 204.388 208.134 205.417C208.273 205.651 208.573 205.731 208.809 205.599C209.223 206.385 209.542 207.237 209.744 208.145C209.479 208.197 209.303 208.453 209.349 208.721C209.448 209.289 209.5 209.879 209.5 210.489V212.434C209.5 212.711 209.724 212.934 210 212.934V215.825C209.724 215.825 209.5 216.049 209.5 216.325V220.216C209.5 220.492 209.724 220.716 210 220.716V223.607C209.724 223.607 209.5 223.831 209.5 224.107V227.998C209.5 228.274 209.724 228.498 210 228.498V231.389C209.724 231.389 209.5 231.613 209.5 231.889V235.78C209.5 236.056 209.724 236.28 210 236.28V239.17C209.724 239.17 209.5 239.394 209.5 239.67V243.561C209.5 243.837 209.724 244.061 210 244.061V246.952C209.724 246.952 209.5 247.176 209.5 247.452V251.343C209.5 251.619 209.724 251.843 210 251.843V254.734C209.724 254.734 209.5 254.958 209.5 255.234V259.125C209.5 259.401 209.724 259.625 210 259.625V262.516C209.724 262.516 209.5 262.739 209.5 263.016V264.961C209.5 265.819 209.39 266.661 209.179 267.47C209.111 267.734 209.266 268.003 209.526 268.077C209.096 269.458 208.383 270.737 207.435 271.831C207.234 271.648 206.924 271.658 206.736 271.855C206.159 272.46 205.501 272.997 204.771 273.449L203.084 274.494C202.849 274.64 202.777 274.948 202.922 275.183L200.397 276.747C200.252 276.512 199.944 276.44 199.709 276.585L196.334 278.677C196.099 278.822 196.027 279.13 196.172 279.365L193.647 280.929C193.502 280.695 193.194 280.622 192.959 280.768L189.584 282.859C189.349 283.004 189.277 283.312 189.422 283.547L186.897 285.112C186.752 284.877 186.444 284.804 186.209 284.95L182.834 287.041C182.599 287.186 182.527 287.495 182.672 287.729L180.147 289.294C180.002 289.059 179.694 288.987 179.459 289.132L176.084 291.223C175.849 291.369 175.777 291.677 175.922 291.912L173.397 293.476C173.252 293.241 172.944 293.169 172.709 293.314L169.334 295.405C169.099 295.551 169.027 295.859 169.172 296.094L166.647 297.658C166.502 297.423 166.194 297.351 165.959 297.496L162.584 299.588C162.349 299.733 162.277 300.041 162.422 300.276L159.897 301.84C159.752 301.606 159.444 301.533 159.209 301.679L155.834 303.77C155.599 303.915 155.527 304.223 155.672 304.458L153.147 306.023C153.002 305.788 152.694 305.715 152.459 305.861L149.084 307.952C148.849 308.097 148.777 308.406 148.922 308.64L146.397 310.205C146.252 309.97 145.944 309.898 145.709 310.043L142.334 312.134C142.099 312.28 142.027 312.588 142.172 312.823L139.647 314.387C139.502 314.152 139.194 314.08 138.959 314.225L135.584 316.316C135.349 316.462 135.277 316.77 135.422 317.005L132.897 318.569C132.752 318.334 132.444 318.262 132.209 318.407L128.834 320.499C128.599 320.644 128.527 320.952 128.672 321.187L126.147 322.751C126.002 322.517 125.694 322.444 125.459 322.59L122.084 324.681C121.849 324.826 121.777 325.134 121.922 325.369L119.397 326.934C119.252 326.699 118.944 326.626 118.709 326.772L115.334 328.863C115.099 329.008 115.027 329.317 115.172 329.551L112.647 331.116C112.502 330.881 112.194 330.809 111.959 330.954L110.271 332C109.471 332.495 108.619 332.868 107.741 333.118C107.479 333.192 107.325 333.462 107.393 333.724C105.82 334.092 104.18 334.092 102.607 333.724C102.675 333.462 102.521 333.192 102.259 333.118C101.381 332.868 100.529 332.495 99.7287 332L98.0412 330.954C97.8064 330.809 97.4982 330.881 97.3528 331.116L94.8279 329.551C94.9733 329.317 94.9009 329.008 94.6662 328.863L91.2912 326.772C91.0564 326.626 90.7482 326.699 90.6028 326.934L88.0778 325.369C88.2233 325.134 88.1509 324.826 87.9162 324.681L84.5412 322.59C84.3064 322.444 83.9982 322.517 83.8528 322.751L81.3279 321.187C81.4733 320.952 81.4009 320.644 81.1662 320.499L77.7912 318.407C77.5564 318.262 77.2482 318.334 77.1028 318.569L74.5779 317.005C74.7233 316.77 74.6509 316.462 74.4162 316.316L71.0412 314.225C70.8064 314.08 70.4982 314.152 70.3528 314.387L67.8278 312.823C67.9733 312.588 67.9009 312.28 67.6662 312.134L64.2912 310.043C64.0564 309.898 63.7482 309.97 63.6028 310.205L61.0778 308.64C61.2233 308.406 61.1509 308.097 60.9162 307.952L57.5412 305.861C57.3064 305.715 56.9982 305.788 56.8528 306.023L54.3278 304.458C54.4733 304.223 54.4009 303.915 54.1662 303.77L50.7911 301.679C50.5564 301.533 50.2482 301.606 50.1028 301.84L47.5778 300.276C47.7233 300.041 47.6509 299.733 47.4162 299.588L44.0412 297.496C43.8064 297.351 43.4982 297.423 43.3528 297.658L40.8278 296.094C40.9733 295.859 40.9009 295.551 40.6661 295.405L37.2911 293.314C37.0564 293.169 36.7482 293.241 36.6028 293.476L34.0778 291.912C34.2233 291.677 34.1509 291.369 33.9162 291.223L30.5411 289.132C30.3064 288.987 29.9982 289.059 29.8528 289.294L27.3278 287.729C27.4733 287.495 27.4009 287.186 27.1661 287.041L23.7911 284.95C23.5564 284.804 23.2482 284.877 23.1028 285.112L20.5778 283.547C20.7233 283.312 20.6509 283.004 20.4161 282.859L17.0411 280.768C16.8064 280.622 16.4982 280.695 16.3528 280.929L13.8278 279.365C13.9733 279.13 13.9009 278.822 13.6661 278.677L10.2911 276.585C10.0564 276.44 9.74821 276.512 9.60277 276.747L7.07783 275.183C7.22327 274.948 7.15088 274.64 6.91614 274.494L5.22865 273.449C4.4995 272.997 3.8413 272.46 3.26365 271.855ZM3.26365 153.863C3.0757 153.666 2.76556 153.656 2.56545 153.838C1.61687 152.745 0.904378 151.466 0.473936 150.085C0.734263 150.011 0.889016 149.742 0.820553 149.478C0.610105 148.669 0.500001 147.827 0.500001 146.969V145.024C0.500001 144.747 0.276144 144.524 0 144.524V141.633C0.276144 141.633 0.500001 141.409 0.500001 141.133L0.500002 137.242C0.500002 136.966 0.276144 136.742 0 136.742V133.851C0.276144 133.851 0.500002 133.627 0.500002 133.351L0.500002 129.46C0.500002 129.184 0.276144 128.96 0 128.96V126.069C0.276144 126.069 0.500002 125.845 0.500002 125.569L0.500002 121.678C0.500002 121.402 0.276144 121.178 0 121.178V118.288C0.276144 118.288 0.500002 118.064 0.500002 117.788L0.500002 113.897C0.500002 113.621 0.276144 113.397 0 113.397V110.506C0.276144 110.506 0.500002 110.282 0.500002 110.006L0.500002 106.115C0.500002 105.839 0.276144 105.615 0 105.615L1.93684e-06 102.724C0.276144 102.724 0.500002 102.5 0.500002 102.224V98.3332C0.500002 98.0571 0.276144 97.8332 1.99523e-06 97.8332L2.02974e-06 94.9424C0.276144 94.9424 0.500002 94.7185 0.500002 94.4424L0.500002 92.4969C0.500002 91.8874 0.552013 91.2972 0.650789 90.7289C0.697397 90.4608 0.521084 90.2054 0.255539 90.1528C0.458468 89.2451 0.776877 88.3927 1.19133 87.6065C1.42748 87.7386 1.72717 87.6587 1.86563 87.4245C2.47378 86.3959 3.26002 85.4972 4.17189 84.7587C4.38343 84.5873 4.41856 84.2789 4.253 84.0646C4.98438 83.527 5.78286 83.0835 6.62603 82.7467C6.72047 83.0005 7.00087 83.1336 7.25812 83.0446C8.36673 82.6609 9.54515 82.4679 10.7402 82.4945C11.0123 82.5005 11.2383 82.2882 11.2508 82.0179C12.1373 82.0808 13.0294 82.26 13.9078 82.5661C13.8125 82.8195 13.9365 83.1039 14.189 83.2057C14.7241 83.4213 15.2532 83.6881 15.7713 84.0091L17.5095 85.0861C17.7442 85.2315 18.0524 85.1591 18.1979 84.9244L20.8241 86.5515C20.6786 86.7863 20.751 87.0945 20.9858 87.2399L24.462 89.3938C24.6968 89.5392 25.005 89.4668 25.1504 89.2321L27.7766 90.8592C27.6312 91.094 27.7036 91.4022 27.9383 91.5476L31.4146 93.7015C31.6493 93.8469 31.9575 93.7745 32.103 93.5398L34.7292 95.1669C34.5837 95.4017 34.6561 95.7099 34.8909 95.8553L38.3671 98.0092C38.6019 98.1546 38.9101 98.0822 39.0555 97.8475L41.6817 99.4746C41.5363 99.7094 41.6087 100.018 41.8434 100.163L45.3197 102.317C45.5544 102.462 45.8626 102.39 46.0081 102.155L48.6343 103.782C48.4888 104.017 48.5612 104.325 48.796 104.471L52.2722 106.625C52.507 106.77 52.8152 106.698 52.9606 106.463L55.5868 108.09C55.4414 108.325 55.5138 108.633 55.7485 108.778L59.2248 110.932C59.4595 111.078 59.7677 111.005 59.9132 110.771L62.5394 112.398C62.3939 112.632 62.4663 112.941 62.7011 113.086L66.1773 115.24C66.4121 115.385 66.7203 115.313 66.8657 115.078L69.4919 116.705C69.3465 116.94 69.4189 117.248 69.6536 117.394L73.1299 119.548C73.3646 119.693 73.6728 119.621 73.8183 119.386L76.4445 121.013C76.299 121.248 76.3714 121.556 76.6062 121.701L80.0825 123.855C80.3172 124.001 80.6254 123.928 80.7708 123.694L83.397 125.321C83.2516 125.556 83.324 125.864 83.5587 126.009L87.035 128.163C87.2697 128.308 87.5779 128.236 87.7234 128.001L90.3496 129.629C90.2042 129.863 90.2766 130.171 90.5113 130.317L93.9876 132.471C94.2223 132.616 94.5305 132.544 94.6759 132.309L97.3022 133.936C97.1567 134.171 97.2291 134.479 97.4638 134.625L99.202 135.702C100.082 136.246 101.019 136.657 101.986 136.932C102.251 137.007 102.528 136.853 102.604 136.588C102.605 136.584 102.606 136.58 102.607 136.576C104.18 136.944 105.82 136.944 107.393 136.576C107.394 136.58 107.395 136.584 107.396 136.588C107.472 136.853 107.749 137.007 108.014 136.932C108.981 136.657 109.918 136.246 110.798 135.702L112.536 134.625C112.771 134.479 112.843 134.171 112.698 133.936L115.324 132.309C115.47 132.544 115.778 132.616 116.012 132.471L119.489 130.317C119.723 130.171 119.796 129.863 119.65 129.629L122.277 128.001C122.422 128.236 122.73 128.308 122.965 128.163L126.441 126.009C126.676 125.864 126.748 125.556 126.603 125.321L129.229 123.694C129.375 123.928 129.683 124.001 129.918 123.855L133.394 121.701C133.629 121.556 133.701 121.248 133.556 121.013L136.182 119.386C136.327 119.621 136.635 119.693 136.87 119.548L140.346 117.394C140.581 117.248 140.654 116.94 140.508 116.705L143.134 115.078C143.28 115.313 143.588 115.385 143.823 115.24L147.299 113.086C147.534 112.941 147.606 112.632 147.461 112.398L150.087 110.771C150.232 111.005 150.54 111.078 150.775 110.932L154.251 108.778C154.486 108.633 154.559 108.325 154.413 108.09L157.039 106.463C157.185 106.698 157.493 106.77 157.728 106.625L161.204 104.471C161.439 104.325 161.511 104.017 161.366 103.782L163.992 102.155C164.137 102.39 164.446 102.462 164.68 102.317L168.157 100.163C168.391 100.018 168.464 99.7094 168.318 99.4746L170.945 97.8475C171.09 98.0822 171.398 98.1546 171.633 98.0091L175.109 95.8553C175.344 95.7099 175.416 95.4017 175.271 95.1669L177.897 93.5397C178.042 93.7745 178.351 93.8469 178.585 93.7014L182.062 91.5476C182.296 91.4022 182.369 91.094 182.223 90.8592L184.85 89.2321C184.995 89.4668 185.303 89.5392 185.538 89.3937L189.014 87.2399C189.249 87.0945 189.321 86.7863 189.176 86.5515L191.802 84.9244C191.948 85.1591 192.256 85.2315 192.491 85.086L194.229 84.0091C194.747 83.6881 195.276 83.4213 195.811 83.2057C196.063 83.1039 196.188 82.8195 196.092 82.5661C196.971 82.26 197.863 82.0808 198.749 82.0179C198.762 82.2882 198.988 82.5005 199.26 82.4945C200.455 82.4679 201.633 82.6609 202.742 83.0446C202.999 83.1336 203.28 83.0005 203.374 82.7467C204.217 83.0835 205.016 83.527 205.747 84.0646C205.581 84.2789 205.617 84.5873 205.828 84.7587C206.74 85.4972 207.526 86.3958 208.134 87.4244C208.273 87.6586 208.573 87.7386 208.809 87.6065C209.223 88.3927 209.542 89.2451 209.744 90.1528C209.479 90.2054 209.303 90.4607 209.349 90.7289C209.448 91.2971 209.5 91.8873 209.5 92.4969V94.4423C209.5 94.7185 209.724 94.9423 210 94.9423V97.8332C209.724 97.8332 209.5 98.0571 209.5 98.3332V102.224C209.5 102.5 209.724 102.724 210 102.724V105.615C209.724 105.615 209.5 105.839 209.5 106.115V110.006C209.5 110.282 209.724 110.506 210 110.506V113.397C209.724 113.397 209.5 113.62 209.5 113.897V117.788C209.5 118.064 209.724 118.288 210 118.288V121.178C209.724 121.178 209.5 121.402 209.5 121.678V125.569C209.5 125.845 209.724 126.069 210 126.069V128.96C209.724 128.96 209.5 129.184 209.5 129.46V133.351C209.5 133.627 209.724 133.851 210 133.851V136.742C209.724 136.742 209.5 136.966 209.5 137.242V141.133C209.5 141.409 209.724 141.633 210 141.633V144.524C209.724 144.524 209.5 144.747 209.5 145.024V146.969C209.5 147.826 209.39 148.669 209.179 149.478C209.111 149.742 209.266 150.011 209.526 150.085C209.096 151.466 208.383 152.745 207.435 153.838C207.234 153.656 206.924 153.666 206.736 153.863C206.159 154.468 205.501 155.005 204.771 155.457L203.084 156.502C202.849 156.648 202.777 156.956 202.922 157.191L200.397 158.755C200.252 158.52 199.944 158.448 199.709 158.593L196.334 160.685C196.099 160.83 196.027 161.138 196.172 161.373L193.647 162.937C193.502 162.703 193.194 162.63 192.959 162.776L189.584 164.867C189.349 165.012 189.277 165.32 189.422 165.555L186.897 167.119C186.752 166.885 186.444 166.812 186.209 166.958L182.834 169.049C182.599 169.194 182.527 169.503 182.672 169.737L180.147 171.302C180.002 171.067 179.694 170.995 179.459 171.14L176.084 173.231C175.849 173.377 175.777 173.685 175.922 173.919L173.397 175.484C173.252 175.249 172.944 175.177 172.709 175.322L169.334 177.413C169.099 177.559 169.027 177.867 169.172 178.102L166.647 179.666C166.502 179.431 166.194 179.359 165.959 179.504L162.584 181.596C162.349 181.741 162.277 182.049 162.422 182.284L159.897 183.848C159.752 183.614 159.444 183.541 159.209 183.687L155.834 185.778C155.599 185.923 155.527 186.231 155.672 186.466L153.147 188.03C153.002 187.796 152.694 187.723 152.459 187.869L149.084 189.96C148.849 190.105 148.777 190.414 148.922 190.648L146.397 192.213C146.252 191.978 145.944 191.906 145.709 192.051L142.334 194.142C142.099 194.288 142.027 194.596 142.172 194.83L139.647 196.395C139.502 196.16 139.194 196.088 138.959 196.233L135.584 198.324C135.349 198.47 135.277 198.778 135.422 199.013L132.897 200.577C132.752 200.342 132.444 200.27 132.209 200.415L128.834 202.507C128.599 202.652 128.527 202.96 128.672 203.195L126.147 204.759C126.002 204.525 125.694 204.452 125.459 204.598L122.084 206.689C121.849 206.834 121.777 207.142 121.922 207.377L119.397 208.941C119.252 208.707 118.944 208.634 118.709 208.78L115.334 210.871C115.099 211.016 115.027 211.325 115.172 211.559L112.647 213.124C112.502 212.889 112.194 212.817 111.959 212.962L110.271 214.008C109.471 214.503 108.619 214.876 107.741 215.126C107.479 215.2 107.325 215.47 107.393 215.732C105.82 216.1 104.18 216.1 102.607 215.732C102.675 215.47 102.521 215.2 102.259 215.126C101.381 214.876 100.529 214.503 99.7287 214.008L98.0412 212.962C97.8064 212.817 97.4982 212.889 97.3528 213.124L94.8279 211.559C94.9733 211.325 94.9009 211.016 94.6662 210.871L91.2912 208.78C91.0564 208.634 90.7482 208.707 90.6028 208.941L88.0778 207.377C88.2233 207.142 88.1509 206.834 87.9162 206.689L84.5412 204.598C84.3064 204.452 83.9982 204.525 83.8528 204.759L81.3278 203.195C81.4733 202.96 81.4009 202.652 81.1662 202.506L77.7912 200.415C77.5564 200.27 77.2482 200.342 77.1028 200.577L74.5778 199.013C74.7233 198.778 74.6509 198.47 74.4162 198.324L71.0412 196.233C70.8064 196.088 70.4982 196.16 70.3528 196.395L67.8278 194.83C67.9733 194.596 67.9009 194.288 67.6662 194.142L64.2912 192.051C64.0564 191.906 63.7482 191.978 63.6028 192.213L61.0778 190.648C61.2233 190.414 61.1509 190.105 60.9162 189.96L57.5411 187.869C57.3064 187.723 56.9982 187.796 56.8528 188.03L54.3278 186.466C54.4733 186.231 54.4009 185.923 54.1661 185.778L50.7911 183.687C50.5564 183.541 50.2482 183.614 50.1028 183.848L47.5778 182.284C47.7233 182.049 47.6509 181.741 47.4161 181.595L44.0411 179.504C43.8064 179.359 43.4982 179.431 43.3528 179.666L40.8278 178.102C40.9733 177.867 40.9009 177.559 40.6661 177.413L37.2911 175.322C37.0564 175.177 36.7482 175.249 36.6028 175.484L34.0778 173.919C34.2233 173.685 34.1509 173.377 33.9161 173.231L30.5411 171.14C30.3064 170.995 29.9982 171.067 29.8528 171.302L27.3278 169.737C27.4733 169.503 27.4009 169.194 27.1661 169.049L23.7911 166.958C23.5564 166.812 23.2482 166.885 23.1028 167.119L20.5778 165.555C20.7233 165.32 20.6509 165.012 20.4161 164.867L17.0411 162.776C16.8064 162.63 16.4982 162.703 16.3528 162.937L13.8278 161.373C13.9733 161.138 13.9009 160.83 13.6661 160.684L10.2911 158.593C10.0564 158.448 9.74819 158.52 9.60276 158.755L7.07782 157.191C7.22326 156.956 7.15087 156.648 6.91613 156.502L5.22865 155.457C4.4995 155.005 3.8413 154.468 3.26365 153.863ZM3.26365 35.8709C3.0757 35.674 2.76556 35.6641 2.56545 35.8464C1.61687 34.753 0.904379 33.4744 0.473938 32.0929C0.734265 32.0187 0.889018 31.7498 0.820554 31.4864C0.610106 30.6767 0.500003 29.8344 0.500003 28.9769L0.500003 27.0315C0.500003 26.7553 0.276145 26.5315 2.84645e-06 26.5315L2.88096e-06 23.6406C0.276145 23.6406 0.500003 23.4168 0.500003 23.1406L0.500003 19.2498C0.500003 18.9736 0.276145 18.7498 2.93935e-06 18.7498L2.97386e-06 15.8589C0.276145 15.8589 0.500003 15.635 0.500003 15.3589L0.500003 11.468C0.500003 11.1919 0.276145 10.968 3.03225e-06 10.968L3.06676e-06 8.07718C0.276145 8.07718 0.500003 7.85332 0.500003 7.57718V3.68632C0.500003 3.41018 0.276145 3.18632 3.12515e-06 3.18632L3.15966e-06 0.295464C0.276146 0.295464 0.500003 0.0716057 0.500003 -0.204536L0.500003 -4.0954C0.500003 -4.37154 0.276146 -4.5954 3.21805e-06 -4.5954L3.25256e-06 -7.48626C0.276146 -7.48626 0.500003 -7.71012 0.500003 -7.98626V-11.8771C0.500003 -12.1533 0.276146 -12.3771 3.31095e-06 -12.3771L3.34546e-06 -15.268C0.276146 -15.268 0.500003 -15.4918 0.500003 -15.768L0.500003 -19.6588C0.500003 -19.935 0.276146 -20.1588 3.40385e-06 -20.1588L3.43836e-06 -23.0497C0.276146 -23.0497 0.500003 -23.2736 0.500003 -23.5497V-25.4951C0.500003 -26.1047 0.552015 -26.6949 0.650791 -27.2632C0.697399 -27.5313 0.521085 -27.7866 0.25554 -27.8392C0.458469 -28.747 0.776881 -29.5994 1.19134 -30.3856C1.42749 -30.2535 1.72717 -30.3334 1.86564 -30.5676C2.47379 -31.5962 3.26002 -32.4948 4.17189 -33.2334C4.38343 -33.4047 4.41856 -33.7131 4.25301 -33.9274C4.98438 -34.4651 5.78286 -34.9086 6.62604 -35.2454C6.72047 -34.9916 7.00087 -34.8584 7.25812 -34.9475C8.36673 -35.3312 9.54515 -35.5241 10.7402 -35.4976C11.0123 -35.4915 11.2383 -35.7039 11.2508 -35.9742C12.1373 -35.9112 13.0294 -35.7321 13.9078 -35.4259C13.8125 -35.1726 13.9365 -34.8881 14.189 -34.7864C14.7241 -34.5708 15.2532 -34.304 15.7714 -33.9829L17.5095 -32.906C17.7442 -32.7606 18.0524 -32.833 18.1979 -33.0677L20.8241 -31.4405C20.6786 -31.2058 20.751 -30.8976 20.9858 -30.7522L24.462 -28.5983C24.6968 -28.4529 25.005 -28.5253 25.1504 -28.76L27.7766 -27.1328C27.6312 -26.8981 27.7036 -26.5899 27.9383 -26.4445L31.4146 -24.2906C31.6493 -24.1452 31.9575 -24.2176 32.103 -24.4523L34.7292 -22.8251C34.5837 -22.5904 34.6561 -22.2822 34.8909 -22.1368L38.3671 -19.9829C38.6019 -19.8375 38.9101 -19.9099 39.0555 -20.1446L41.6817 -18.5174C41.5363 -18.2827 41.6087 -17.9745 41.8434 -17.8291L45.3197 -15.6752C45.5544 -15.5298 45.8626 -15.6022 46.0081 -15.8369L48.6343 -14.2097C48.4888 -13.975 48.5612 -13.6668 48.796 -13.5214L52.2723 -11.3675C52.507 -11.2221 52.8152 -11.2945 52.9606 -11.5292L55.5868 -9.90204C55.4414 -9.6673 55.5138 -9.35911 55.7485 -9.21367L59.2248 -7.05982C59.4595 -6.91438 59.7677 -6.98677 59.9132 -7.22151L62.5394 -5.59435C62.3939 -5.35961 62.4663 -5.05142 62.7011 -4.90598L66.1774 -2.75212C66.4121 -2.60669 66.7203 -2.67908 66.8657 -2.91381L69.4919 -1.28665C69.3465 -1.05191 69.4189 -0.743721 69.6536 -0.598282L73.1299 1.55557C73.3646 1.70101 73.6728 1.62862 73.8183 1.39388L76.4445 3.02105C76.299 3.25578 76.3714 3.56398 76.6062 3.70942L80.0825 5.86327C80.3172 6.00871 80.6254 5.93632 80.7708 5.70158L83.397 7.32875C83.2516 7.56348 83.324 7.87168 83.5587 8.01712L87.035 10.171C87.2698 10.3164 87.5779 10.244 87.7234 10.0093L90.3496 11.6364C90.2042 11.8712 90.2766 12.1794 90.5113 12.3248L93.9876 14.4787C94.2223 14.6241 94.5305 14.5517 94.6759 14.317L97.3022 15.9441C97.1567 16.1789 97.2291 16.4871 97.4638 16.6325L99.202 17.7094C100.082 18.2544 101.019 18.6645 101.986 18.9396C102.251 19.0151 102.528 18.8611 102.604 18.5955C102.605 18.5917 102.606 18.5878 102.607 18.584C104.18 18.9517 105.82 18.9517 107.393 18.584C107.394 18.5878 107.395 18.5917 107.396 18.5955C107.472 18.8611 107.749 19.0151 108.014 18.9396C108.981 18.6645 109.918 18.2544 110.798 17.7094L112.536 16.6325C112.771 16.4871 112.843 16.1789 112.698 15.9441L115.324 14.317C115.47 14.5517 115.778 14.6241 116.012 14.4787L119.489 12.3248C119.723 12.1794 119.796 11.8712 119.65 11.6364L122.277 10.0093C122.422 10.244 122.73 10.3164 122.965 10.171L126.441 8.01712C126.676 7.87167 126.748 7.56348 126.603 7.32874L129.229 5.70158C129.375 5.93632 129.683 6.00871 129.918 5.86327L133.394 3.70942C133.629 3.56398 133.701 3.25578 133.556 3.02105L136.182 1.39388C136.327 1.62862 136.635 1.70101 136.87 1.55557L140.346 -0.598278C140.581 -0.743717 140.654 -1.05191 140.508 -1.28665L143.134 -2.91381C143.28 -2.67907 143.588 -2.60669 143.823 -2.75212L147.299 -4.90597C147.534 -5.05141 147.606 -5.35961 147.461 -5.59435L150.087 -7.22151C150.232 -6.98677 150.54 -6.91438 150.775 -7.05982L154.251 -9.21367C154.486 -9.35911 154.559 -9.6673 154.413 -9.90204L157.039 -11.5292C157.185 -11.2945 157.493 -11.2221 157.728 -11.3675L161.204 -13.5214C161.439 -13.6668 161.511 -13.975 161.366 -14.2097L163.992 -15.8369C164.137 -15.6022 164.446 -15.5298 164.68 -15.6752L168.157 -17.8291C168.391 -17.9745 168.464 -18.2827 168.318 -18.5174L170.944 -20.1446C171.09 -19.9099 171.398 -19.8375 171.633 -19.9829L175.109 -22.1368C175.344 -22.2822 175.416 -22.5904 175.271 -22.8251L177.897 -24.4523C178.042 -24.2176 178.351 -24.1452 178.585 -24.2906L182.062 -26.4445C182.296 -26.5899 182.369 -26.8981 182.223 -27.1328L184.85 -28.76C184.995 -28.5253 185.303 -28.4529 185.538 -28.5983L189.014 -30.7522C189.249 -30.8976 189.321 -31.2058 189.176 -31.4405L191.802 -33.0677C191.948 -32.833 192.256 -32.7606 192.491 -32.906L194.229 -33.9829C194.747 -34.304 195.276 -34.5708 195.811 -34.7864C196.063 -34.8881 196.188 -35.1726 196.092 -35.4259C196.971 -35.7321 197.863 -35.9112 198.749 -35.9742C198.762 -35.7039 198.988 -35.4915 199.26 -35.4976C200.455 -35.5241 201.633 -35.3312 202.742 -34.9475C202.999 -34.8584 203.28 -34.9916 203.374 -35.2454C204.217 -34.9086 205.016 -34.4651 205.747 -33.9274C205.581 -33.7131 205.617 -33.4047 205.828 -33.2334C206.74 -32.4948 207.526 -31.5962 208.134 -30.5676C208.273 -30.3334 208.573 -30.2535 208.809 -30.3856C209.223 -29.5994 209.542 -28.747 209.744 -27.8392C209.479 -27.7866 209.303 -27.5313 209.349 -27.2632C209.448 -26.6949 209.5 -26.1047 209.5 -25.4952V-23.5497C209.5 -23.2736 209.724 -23.0497 210 -23.0497V-20.1589C209.724 -20.1589 209.5 -19.935 209.5 -19.6589V-15.768C209.5 -15.4919 209.724 -15.268 210 -15.268V-12.3771C209.724 -12.3771 209.5 -12.1533 209.5 -11.8771V-7.98627C209.5 -7.71013 209.724 -7.48627 210 -7.48627V-4.59541C209.724 -4.59541 209.5 -4.37155 209.5 -4.09541V-0.204544C209.5 0.0715981 209.724 0.295456 210 0.295456V3.18632C209.724 3.18632 209.5 3.41018 209.5 3.68632V7.57718C209.5 7.85332 209.724 8.07718 210 8.07718V10.968C209.724 10.968 209.5 11.1919 209.5 11.468V15.3589C209.5 15.635 209.724 15.8589 210 15.8589V18.7498C209.724 18.7498 209.5 18.9736 209.5 19.2498V23.1406C209.5 23.4168 209.724 23.6406 210 23.6406V26.5315C209.724 26.5315 209.5 26.7553 209.5 27.0315V28.9769C209.5 29.8344 209.39 30.6767 209.179 31.4864C209.111 31.7498 209.266 32.0187 209.526 32.0929C209.096 33.4744 208.383 34.753 207.435 35.8464C207.234 35.6641 206.924 35.674 206.736 35.8709C206.159 36.4759 205.501 37.0129 204.771 37.4647L203.084 38.5103C202.849 38.6557 202.777 38.9639 202.922 39.1986L200.397 40.763C200.252 40.5283 199.944 40.4559 199.709 40.6013L196.334 42.6925C196.099 42.8379 196.027 43.1461 196.172 43.3808L193.647 44.9452C193.502 44.7105 193.194 44.6381 192.959 44.7835L189.584 46.8746C189.349 47.0201 189.277 47.3283 189.422 47.563L186.897 49.1274C186.752 48.8927 186.444 48.8203 186.209 48.9657L182.834 51.0568C182.599 51.2023 182.527 51.5105 182.672 51.7452L180.147 53.3096C180.002 53.0749 179.694 53.0025 179.459 53.1479L176.084 55.239C175.849 55.3845 175.777 55.6927 175.922 55.9274L173.397 57.4918C173.252 57.2571 172.944 57.1847 172.709 57.3301L169.334 59.4212C169.099 59.5667 169.027 59.8749 169.172 60.1096L166.647 61.674C166.502 61.4393 166.194 61.3669 165.959 61.5123L162.584 63.6034C162.349 63.7489 162.277 64.0571 162.422 64.2918L159.897 65.8562C159.752 65.6215 159.444 65.5491 159.209 65.6945L155.834 67.7856C155.599 67.9311 155.527 68.2393 155.672 68.474L153.147 70.0384C153.002 69.8037 152.694 69.7313 152.459 69.8767L149.084 71.9678C148.849 72.1133 148.777 72.4215 148.922 72.6562L146.397 74.2206C146.252 73.9859 145.944 73.9135 145.709 74.0589L142.334 76.15C142.099 76.2955 142.027 76.6037 142.172 76.8384L139.647 78.4028C139.502 78.1681 139.194 78.0957 138.959 78.2411L135.584 80.3322C135.349 80.4777 135.277 80.7859 135.422 81.0206L132.897 82.585C132.752 82.3503 132.444 82.2779 132.209 82.4233L128.834 84.5144C128.599 84.6599 128.527 84.9681 128.672 85.2028L126.147 86.7672C126.002 86.5325 125.694 86.4601 125.459 86.6055L122.084 88.6966C121.849 88.8421 121.777 89.1503 121.922 89.385L119.397 90.9494C119.252 90.7147 118.944 90.6423 118.709 90.7877L115.334 92.8788C115.099 93.0243 115.027 93.3325 115.172 93.5672L112.647 95.1316C112.502 94.8969 112.194 94.8245 111.959 94.9699L110.271 96.0155C109.471 96.5111 108.619 96.8838 107.741 97.1338C107.479 97.2083 107.325 97.4781 107.393 97.7401C105.82 98.1078 104.18 98.1078 102.607 97.7401C102.675 97.4781 102.521 97.2083 102.259 97.1338C101.381 96.8838 100.529 96.5111 99.7287 96.0155L98.0412 94.9699C97.8064 94.8245 97.4982 94.8969 97.3528 95.1316L94.8279 93.5672C94.9733 93.3325 94.9009 93.0243 94.6662 92.8788L91.2912 90.7877C91.0564 90.6423 90.7482 90.7147 90.6028 90.9494L88.0779 89.385C88.2233 89.1503 88.1509 88.8421 87.9162 88.6966L84.5412 86.6055C84.3064 86.4601 83.9982 86.5325 83.8528 86.7672L81.3279 85.2028C81.4733 84.9681 81.4009 84.6599 81.1662 84.5144L77.7912 82.4233C77.5564 82.2779 77.2482 82.3503 77.1028 82.585L74.5779 81.0206C74.7233 80.7859 74.6509 80.4777 74.4162 80.3322L71.0412 78.2411C70.8064 78.0957 70.4982 78.1681 70.3528 78.4028L67.8279 76.8384C67.9733 76.6037 67.9009 76.2955 67.6662 76.15L64.2912 74.0589C64.0564 73.9135 63.7482 73.9859 63.6028 74.2206L61.0778 72.6562C61.2233 72.4215 61.1509 72.1133 60.9162 71.9678L57.5412 69.8767C57.3064 69.7313 56.9982 69.8037 56.8528 70.0384L54.3278 68.474C54.4733 68.2393 54.4009 67.9311 54.1662 67.7856L50.7912 65.6945C50.5564 65.5491 50.2482 65.6215 50.1028 65.8562L47.5778 64.2918C47.7233 64.0571 47.6509 63.7489 47.4162 63.6034L44.0411 61.5123C43.8064 61.3669 43.4982 61.4393 43.3528 61.674L40.8278 60.1096C40.9733 59.8749 40.9009 59.5667 40.6661 59.4212L37.2911 57.3301C37.0564 57.1847 36.7482 57.2571 36.6028 57.4918L34.0778 55.9274C34.2233 55.6927 34.1509 55.3845 33.9161 55.239L30.5411 53.1479C30.3064 53.0025 29.9982 53.0749 29.8528 53.3096L27.3278 51.7452C27.4733 51.5105 27.4009 51.2023 27.1661 51.0568L23.7911 48.9657C23.5564 48.8203 23.2482 48.8927 23.1028 49.1274L20.5778 47.563C20.7233 47.3283 20.6509 47.0201 20.4161 46.8746L17.0411 44.7835C16.8064 44.6381 16.4982 44.7105 16.3528 44.9452L13.8278 43.3808C13.9733 43.1461 13.9009 42.8379 13.6661 42.6924L10.2911 40.6013C10.0564 40.4559 9.7482 40.5283 9.60276 40.763L7.07782 39.1986C7.22326 38.9639 7.15087 38.6557 6.91614 38.5102L5.22865 37.4647C4.4995 37.0129 3.8413 36.4758 3.26365 35.8709Z" stroke="#D2D9E2" stroke-linecap="round" stroke-dasharray="4 4"/>
</svg>
