<svg width="22" height="21" viewBox="0 0 22 21" fill="none" xmlns="http://www.w3.org/2000/svg">
<path d="M2.5 20.25C1.90326 20.25 1.33097 20.0129 0.90901 19.591C0.487053 19.169 0.25 18.5967 0.25 18V3C0.25 2.40326 0.487053 1.83097 0.90901 1.40901C1.33097 0.987053 1.90326 0.75 2.5 0.75H14.5C14.6989 0.75 14.8897 0.829018 15.0303 0.96967C15.171 1.11032 15.25 1.30109 15.25 1.5C15.25 1.69891 15.171 1.88968 15.0303 2.03033C14.8897 2.17098 14.6989 2.25 14.5 2.25H2.5C2.30109 2.25 2.11032 2.32902 1.96967 2.46967C1.82902 2.61032 1.75 2.80109 1.75 3V18C1.75 18.1989 1.82902 18.3897 1.96967 18.5303C2.11032 18.671 2.30109 18.75 2.5 18.75H17.5C17.6989 18.75 17.8897 18.671 18.0303 18.5303C18.171 18.3897 18.25 18.1989 18.25 18V10.5C18.25 10.3011 18.329 10.1103 18.4697 9.96967C18.6103 9.82902 18.8011 9.75 19 9.75C19.1989 9.75 19.3897 9.82902 19.5303 9.96967C19.671 10.1103 19.75 10.3011 19.75 10.5V18C19.75 18.5967 19.5129 19.169 19.091 19.591C18.669 20.0129 18.0967 20.25 17.5 20.25H2.5Z" fill="#002F6D"/>
<path d="M10.531 14.031L21.031 3.53097C21.1007 3.46124 21.156 3.37846 21.1938 3.28735C21.2315 3.19624 21.2509 3.09859 21.2509 2.99997C21.2509 2.90135 21.2315 2.8037 21.1938 2.7126C21.156 2.62149 21.1007 2.5387 21.031 2.46897C20.9612 2.39924 20.8785 2.34392 20.7873 2.30619C20.6962 2.26845 20.5986 2.24902 20.5 2.24902C20.4014 2.24902 20.3037 2.26845 20.2126 2.30619C20.1215 2.34392 20.0387 2.39924 19.969 2.46897L9.99997 12.4395L6.03097 8.46897C5.96124 8.39924 5.87846 8.34392 5.78735 8.30619C5.69624 8.26845 5.59859 8.24902 5.49997 8.24902C5.40136 8.24902 5.3037 8.26845 5.2126 8.30619C5.12149 8.34392 5.0387 8.39924 4.96897 8.46897C4.89924 8.5387 4.84392 8.62149 4.80619 8.71259C4.76845 8.8037 4.74902 8.90135 4.74902 8.99997C4.74902 9.09859 4.76845 9.19624 4.80619 9.28735C4.84392 9.37846 4.89924 9.46124 4.96897 9.53097L9.46897 14.031C9.53864 14.1008 9.6214 14.1562 9.71252 14.194C9.80364 14.2318 9.90132 14.2513 9.99997 14.2513C10.0986 14.2513 10.1963 14.2318 10.2874 14.194C10.3785 14.1562 10.4613 14.1008 10.531 14.031Z" fill="#FF3C1F"/>
</svg>
