<svg width="32" height="22" viewBox="0 0 32 22" fill="none" xmlns="http://www.w3.org/2000/svg">
<g clip-path="url(#clip0_16_492)">
<path d="M21.9668 21.5C21.5928 21.5 21.3512 21.1044 21.522 20.7716L24.544 14.8851C25.0565 13.8869 24.3316 12.7 23.2096 12.7H19.0706C18.7944 12.7 18.5706 12.4761 18.5706 12.2V1C18.5706 0.723857 18.7944 0.5 19.0706 0.5H30.6235C30.8996 0.5 31.1235 0.723857 31.1235 0.999999V12.9583C31.1235 13.0377 31.1046 13.116 31.0683 13.1867L26.9399 21.2284C26.8543 21.3951 26.6826 21.5 26.4951 21.5H21.9668Z" stroke="#FF3C1F"/>
<path d="M3.89627 21.5C3.52225 21.5 3.28064 21.1044 3.45146 20.7716L6.47345 14.8851C6.9859 13.8869 6.26108 12.7 5.13903 12.7H1C0.723857 12.7 0.5 12.4761 0.5 12.2V1C0.5 0.723858 0.723858 0.5 1 0.5H12.5529C12.8291 0.5 13.0529 0.723857 13.0529 0.999999V12.9583C13.0529 13.0377 13.034 13.116 12.9978 13.1867L8.8694 21.2284C8.78378 21.3951 8.61206 21.5 8.42459 21.5H3.89627Z" stroke="#002F6D"/>
</g>
<defs>
<clipPath id="clip0_16_492">
<rect width="32" height="22" fill="white"/>
</clipPath>
</defs>
</svg>
