<svg width="1200" height="419" viewBox="0 0 1200 419" fill="none" xmlns="http://www.w3.org/2000/svg">
<rect x="20" y="20" width="1180" height="303" rx="20" fill="#F2F4F7"/>
<rect x="1" y="1" width="1178" height="301" rx="19" fill="white" stroke="#C1C5CB" stroke-width="2"/>
<path d="M96.308 98H93.776C93.504 98 93.276 97.928 93.092 97.784C92.908 97.64 92.736 97.428 92.576 97.148L88.484 91.112C88.38 90.952 88.276 90.82 88.172 90.716C88.068 90.604 87.952 90.516 87.824 90.452C87.696 90.38 87.552 90.332 87.392 90.308C87.232 90.276 87.052 90.26 86.852 90.26H84.86V98H82.052V80.72H84.86V88.112H86.552C86.904 88.112 87.2 88.056 87.44 87.944C87.68 87.832 87.916 87.616 88.148 87.296L92.288 81.488C92.424 81.264 92.588 81.08 92.78 80.936C92.98 80.792 93.216 80.72 93.488 80.72H95.864L90.92 87.728C90.72 88.024 90.492 88.268 90.236 88.46C89.98 88.652 89.696 88.804 89.384 88.916C89.832 89.036 90.212 89.232 90.524 89.504C90.844 89.776 91.144 90.152 91.424 90.632L96.308 98ZM104.331 92.648C103.411 92.68 102.635 92.756 102.003 92.876C101.371 92.988 100.859 93.136 100.467 93.32C100.075 93.496 99.7908 93.708 99.6148 93.956C99.4468 94.204 99.3628 94.476 99.3628 94.772C99.3628 95.06 99.4068 95.308 99.4948 95.516C99.5908 95.716 99.7188 95.884 99.8788 96.02C100.047 96.148 100.239 96.244 100.455 96.308C100.679 96.364 100.923 96.392 101.187 96.392C101.859 96.392 102.435 96.268 102.915 96.02C103.403 95.764 103.875 95.396 104.331 94.916V92.648ZM97.4908 87.464C98.8748 86.176 100.523 85.532 102.435 85.532C103.139 85.532 103.763 85.648 104.307 85.88C104.859 86.104 105.319 86.424 105.687 86.84C106.063 87.256 106.347 87.752 106.539 88.328C106.739 88.896 106.839 89.528 106.839 90.224V98H105.687C105.439 98 105.251 97.964 105.123 97.892C104.995 97.812 104.887 97.656 104.799 97.424L104.547 96.428C104.235 96.708 103.927 96.96 103.623 97.184C103.319 97.4 103.003 97.584 102.675 97.736C102.355 97.888 102.007 98 101.631 98.072C101.263 98.152 100.855 98.192 100.407 98.192C99.9108 98.192 99.4468 98.124 99.0148 97.988C98.5908 97.852 98.2228 97.648 97.9108 97.376C97.5988 97.096 97.3508 96.752 97.1668 96.344C96.9908 95.936 96.9028 95.456 96.9028 94.904C96.9028 94.432 97.0268 93.972 97.2748 93.524C97.5308 93.076 97.9468 92.676 98.5228 92.324C99.1068 91.964 99.8708 91.668 100.815 91.436C101.767 91.204 102.939 91.072 104.331 91.04V90.224C104.331 89.344 104.143 88.688 103.767 88.256C103.391 87.824 102.839 87.608 102.111 87.608C101.615 87.608 101.199 87.672 100.863 87.8C100.527 87.92 100.235 88.052 99.9868 88.196C99.7388 88.34 99.5188 88.476 99.3268 88.604C99.1348 88.724 98.9308 88.784 98.7148 88.784C98.5388 88.784 98.3868 88.74 98.2588 88.652C98.1388 88.556 98.0388 88.44 97.9588 88.304L97.4908 87.464ZM117.229 86.456C117.357 86.248 117.529 86.08 117.745 85.952C117.969 85.824 118.201 85.76 118.441 85.76H120.457L117.445 90.356C117.253 90.668 117.053 90.92 116.845 91.112C116.637 91.304 116.381 91.452 116.077 91.556C116.469 91.668 116.793 91.84 117.049 92.072C117.313 92.296 117.549 92.588 117.757 92.948L120.793 98H119.017C118.561 98 118.205 97.924 117.949 97.772C117.701 97.62 117.489 97.396 117.313 97.1L115.237 93.524C115.069 93.22 114.849 92.996 114.577 92.852C114.305 92.708 113.997 92.636 113.653 92.636H112.441V98.012H109.861V85.76H112.441V90.908H113.485C113.821 90.908 114.101 90.844 114.325 90.716C114.549 90.588 114.741 90.392 114.901 90.128L117.229 86.456ZM127.434 85.568C128.338 85.568 129.154 85.716 129.882 86.012C130.618 86.308 131.242 86.728 131.754 87.272C132.274 87.816 132.674 88.476 132.954 89.252C133.234 90.028 133.374 90.9 133.374 91.868C133.374 92.836 133.234 93.708 132.954 94.484C132.674 95.26 132.274 95.924 131.754 96.476C131.242 97.02 130.618 97.44 129.882 97.736C129.154 98.032 128.338 98.18 127.434 98.18C126.522 98.18 125.698 98.032 124.962 97.736C124.234 97.44 123.61 97.02 123.09 96.476C122.57 95.924 122.17 95.26 121.89 94.484C121.61 93.708 121.47 92.836 121.47 91.868C121.47 90.9 121.61 90.028 121.89 89.252C122.17 88.476 122.57 87.816 123.09 87.272C123.61 86.728 124.234 86.308 124.962 86.012C125.698 85.716 126.522 85.568 127.434 85.568ZM127.434 96.164C128.538 96.164 129.358 95.796 129.894 95.06C130.438 94.316 130.71 93.256 130.71 91.88C130.71 90.504 130.438 89.444 129.894 88.7C129.358 87.948 128.538 87.572 127.434 87.572C126.314 87.572 125.482 87.948 124.938 88.7C124.394 89.444 124.122 90.504 124.122 91.88C124.122 93.256 124.394 94.316 124.938 95.06C125.482 95.796 126.314 96.164 127.434 96.164ZM146.617 85.76V98H144.037V90.332C144.037 90.164 144.045 89.98 144.061 89.78C144.077 89.58 144.101 89.376 144.133 89.168C144.053 89.344 143.973 89.508 143.893 89.66C143.821 89.804 143.741 89.936 143.653 90.056L138.337 97.364C138.241 97.516 138.113 97.664 137.953 97.808C137.793 97.944 137.613 98.012 137.413 98.012H135.853V85.76H138.433V93.428C138.433 93.596 138.421 93.784 138.397 93.992C138.381 94.2 138.357 94.408 138.325 94.616C138.485 94.248 138.649 93.944 138.817 93.704L144.133 86.408C144.229 86.248 144.357 86.1 144.517 85.964C144.677 85.828 144.857 85.76 145.057 85.76H146.617ZM141.385 82.712C141.697 82.712 141.957 82.68 142.165 82.616C142.381 82.544 142.553 82.432 142.681 82.28C142.809 82.12 142.901 81.916 142.957 81.668C143.013 81.412 143.041 81.096 143.041 80.72H144.553C144.737 80.72 144.873 80.8 144.961 80.96C145.049 81.112 145.093 81.28 145.093 81.464C145.093 81.872 145.005 82.24 144.829 82.568C144.661 82.888 144.417 83.164 144.097 83.396C143.777 83.62 143.385 83.796 142.921 83.924C142.465 84.044 141.953 84.104 141.385 84.104C140.817 84.104 140.301 84.044 139.837 83.924C139.381 83.796 138.993 83.62 138.673 83.396C138.353 83.164 138.105 82.888 137.929 82.568C137.761 82.24 137.677 81.872 137.677 81.464C137.677 81.28 137.721 81.112 137.809 80.96C137.897 80.8 138.033 80.72 138.217 80.72H139.729C139.729 81.096 139.757 81.412 139.813 81.668C139.869 81.916 139.961 82.12 140.089 82.28C140.217 82.432 140.385 82.544 140.593 82.616C140.809 82.68 141.073 82.712 141.385 82.712ZM162.496 95.78C163.128 95.78 163.66 95.708 164.092 95.564C164.532 95.412 164.888 95.208 165.16 94.952C165.44 94.696 165.64 94.396 165.76 94.052C165.888 93.7 165.952 93.324 165.952 92.924C165.952 92.108 165.672 91.468 165.112 91.004C164.56 90.532 163.684 90.296 162.484 90.296H159.016V95.78H162.496ZM159.016 82.916V88.316H161.824C163.024 88.316 163.92 88.084 164.512 87.62C165.104 87.156 165.4 86.488 165.4 85.616C165.4 84.664 165.12 83.976 164.56 83.552C164.008 83.128 163.14 82.916 161.956 82.916H159.016ZM161.956 80.72C163.06 80.72 164.004 80.828 164.788 81.044C165.572 81.252 166.216 81.552 166.72 81.944C167.224 82.336 167.592 82.816 167.824 83.384C168.064 83.944 168.184 84.576 168.184 85.28C168.184 85.688 168.12 86.084 167.992 86.468C167.872 86.844 167.68 87.2 167.416 87.536C167.16 87.864 166.836 88.16 166.444 88.424C166.052 88.688 165.588 88.908 165.052 89.084C167.5 89.604 168.724 90.904 168.724 92.984C168.724 93.72 168.584 94.396 168.304 95.012C168.032 95.62 167.632 96.148 167.104 96.596C166.584 97.036 165.94 97.38 165.172 97.628C164.404 97.876 163.528 98 162.544 98H156.208V80.72H161.956ZM177.76 92.648C176.84 92.68 176.064 92.756 175.432 92.876C174.8 92.988 174.288 93.136 173.896 93.32C173.504 93.496 173.22 93.708 173.044 93.956C172.876 94.204 172.792 94.476 172.792 94.772C172.792 95.06 172.836 95.308 172.924 95.516C173.02 95.716 173.148 95.884 173.308 96.02C173.476 96.148 173.668 96.244 173.884 96.308C174.108 96.364 174.352 96.392 174.616 96.392C175.288 96.392 175.864 96.268 176.344 96.02C176.832 95.764 177.304 95.396 177.76 94.916V92.648ZM170.92 87.464C172.304 86.176 173.952 85.532 175.864 85.532C176.568 85.532 177.192 85.648 177.736 85.88C178.288 86.104 178.748 86.424 179.116 86.84C179.492 87.256 179.776 87.752 179.968 88.328C180.168 88.896 180.268 89.528 180.268 90.224V98H179.116C178.868 98 178.68 97.964 178.552 97.892C178.424 97.812 178.316 97.656 178.228 97.424L177.976 96.428C177.664 96.708 177.356 96.96 177.052 97.184C176.748 97.4 176.432 97.584 176.104 97.736C175.784 97.888 175.436 98 175.06 98.072C174.692 98.152 174.284 98.192 173.836 98.192C173.34 98.192 172.876 98.124 172.444 97.988C172.02 97.852 171.652 97.648 171.34 97.376C171.028 97.096 170.78 96.752 170.596 96.344C170.42 95.936 170.332 95.456 170.332 94.904C170.332 94.432 170.456 93.972 170.704 93.524C170.96 93.076 171.376 92.676 171.952 92.324C172.536 91.964 173.3 91.668 174.244 91.436C175.196 91.204 176.368 91.072 177.76 91.04V90.224C177.76 89.344 177.572 88.688 177.196 88.256C176.82 87.824 176.268 87.608 175.54 87.608C175.044 87.608 174.628 87.672 174.292 87.8C173.956 87.92 173.664 88.052 173.416 88.196C173.168 88.34 172.948 88.476 172.756 88.604C172.564 88.724 172.36 88.784 172.144 88.784C171.968 88.784 171.816 88.74 171.688 88.652C171.568 88.556 171.468 88.44 171.388 88.304L170.92 87.464ZM199.995 85.76V98H183.291V85.76H185.871V96.056H190.359V85.76H192.939V96.056H197.427V85.76H199.995ZM217.147 90.5C217.147 90.068 217.083 89.668 216.955 89.3C216.835 88.924 216.655 88.6 216.415 88.328C216.175 88.048 215.875 87.832 215.515 87.68C215.163 87.52 214.755 87.44 214.291 87.44C213.355 87.44 212.619 87.708 212.083 88.244C211.547 88.78 211.207 89.532 211.063 90.5H217.147ZM210.991 92.084C211.023 92.78 211.131 93.384 211.315 93.896C211.499 94.4 211.743 94.82 212.047 95.156C212.359 95.492 212.727 95.744 213.151 95.912C213.583 96.072 214.063 96.152 214.591 96.152C215.095 96.152 215.531 96.096 215.899 95.984C216.267 95.864 216.587 95.736 216.859 95.6C217.131 95.456 217.363 95.328 217.555 95.216C217.747 95.096 217.923 95.036 218.083 95.036C218.291 95.036 218.451 95.116 218.563 95.276L219.295 96.224C218.991 96.584 218.647 96.888 218.263 97.136C217.879 97.384 217.471 97.588 217.039 97.748C216.607 97.9 216.163 98.008 215.707 98.072C215.251 98.144 214.807 98.18 214.375 98.18C213.527 98.18 212.739 98.04 212.011 97.76C211.291 97.472 210.663 97.052 210.127 96.5C209.599 95.948 209.183 95.264 208.879 94.448C208.583 93.632 208.435 92.692 208.435 91.628C208.435 90.78 208.567 89.988 208.831 89.252C209.103 88.516 209.487 87.876 209.983 87.332C210.487 86.788 211.095 86.36 211.807 86.048C212.527 85.728 213.339 85.568 214.243 85.568C214.995 85.568 215.691 85.692 216.331 85.94C216.971 86.18 217.523 86.536 217.987 87.008C218.451 87.48 218.811 88.06 219.067 88.748C219.331 89.428 219.463 90.204 219.463 91.076C219.463 91.476 219.419 91.744 219.331 91.88C219.243 92.016 219.083 92.084 218.851 92.084H210.991ZM239.212 98H237.436C236.98 98 236.628 97.928 236.38 97.784C236.14 97.64 235.952 97.412 235.816 97.1L233.74 93.524C233.572 93.22 233.352 92.996 233.08 92.852C232.808 92.708 232.5 92.636 232.156 92.636H231.064V98.012H228.568V92.636H227.488C227.136 92.636 226.824 92.708 226.552 92.852C226.288 92.996 226.068 93.22 225.892 93.524L223.816 97.1C223.68 97.412 223.488 97.64 223.24 97.784C223 97.928 222.652 98 222.196 98H220.42L223.444 92.948C223.652 92.588 223.884 92.296 224.14 92.072C224.404 91.84 224.732 91.668 225.124 91.556C224.828 91.444 224.572 91.292 224.356 91.1C224.148 90.908 223.948 90.66 223.756 90.356L220.744 85.76H222.772C223.012 85.76 223.232 85.824 223.432 85.952C223.632 86.08 223.788 86.248 223.9 86.456L226.228 90.128C226.388 90.392 226.58 90.588 226.804 90.716C227.028 90.844 227.308 90.908 227.644 90.908H228.568V85.748H231.064V90.908H231.952C232.616 90.908 233.1 90.648 233.404 90.128L235.732 86.456C235.844 86.248 236 86.08 236.2 85.952C236.408 85.824 236.632 85.76 236.872 85.76H238.888L235.876 90.356C235.684 90.66 235.484 90.908 235.276 91.1C235.068 91.292 234.816 91.444 234.52 91.556C234.912 91.668 235.236 91.84 235.492 92.072C235.748 92.296 235.98 92.588 236.188 92.948L239.212 98ZM248.6 90.5C248.6 90.068 248.536 89.668 248.408 89.3C248.288 88.924 248.108 88.6 247.868 88.328C247.628 88.048 247.328 87.832 246.968 87.68C246.616 87.52 246.208 87.44 245.744 87.44C244.808 87.44 244.072 87.708 243.536 88.244C243 88.78 242.66 89.532 242.516 90.5H248.6ZM242.444 92.084C242.476 92.78 242.584 93.384 242.768 93.896C242.952 94.4 243.196 94.82 243.5 95.156C243.812 95.492 244.18 95.744 244.604 95.912C245.036 96.072 245.516 96.152 246.044 96.152C246.548 96.152 246.984 96.096 247.352 95.984C247.72 95.864 248.04 95.736 248.312 95.6C248.584 95.456 248.816 95.328 249.008 95.216C249.2 95.096 249.376 95.036 249.536 95.036C249.744 95.036 249.904 95.116 250.016 95.276L250.748 96.224C250.444 96.584 250.1 96.888 249.716 97.136C249.332 97.384 248.924 97.588 248.492 97.748C248.06 97.9 247.616 98.008 247.16 98.072C246.704 98.144 246.26 98.18 245.828 98.18C244.98 98.18 244.192 98.04 243.464 97.76C242.744 97.472 242.116 97.052 241.58 96.5C241.052 95.948 240.636 95.264 240.332 94.448C240.036 93.632 239.888 92.692 239.888 91.628C239.888 90.78 240.02 89.988 240.284 89.252C240.556 88.516 240.94 87.876 241.436 87.332C241.94 86.788 242.548 86.36 243.26 86.048C243.98 85.728 244.792 85.568 245.696 85.568C246.448 85.568 247.144 85.692 247.784 85.94C248.424 86.18 248.976 86.536 249.44 87.008C249.904 87.48 250.264 88.06 250.52 88.748C250.784 89.428 250.916 90.204 250.916 91.076C250.916 91.476 250.872 91.744 250.784 91.88C250.696 92.016 250.536 92.084 250.304 92.084H242.444ZM267.242 85.724V98H264.926V90.596C264.926 90.34 264.942 90.052 264.974 89.732C265.006 89.404 265.046 89.1 265.094 88.82L261.194 95.828C261.114 95.972 261.01 96.088 260.882 96.176C260.754 96.256 260.61 96.296 260.45 96.296H260.174C260.014 96.296 259.87 96.256 259.742 96.176C259.622 96.088 259.522 95.972 259.442 95.828L255.47 88.784C255.518 89.064 255.558 89.372 255.59 89.708C255.63 90.036 255.65 90.332 255.65 90.596V98H253.322V85.724H255.434C255.61 85.724 255.782 85.764 255.95 85.844C256.126 85.924 256.278 86.08 256.406 86.312L259.73 92C259.842 92.208 259.942 92.432 260.03 92.672C260.126 92.912 260.218 93.152 260.306 93.392C260.394 93.152 260.486 92.912 260.582 92.672C260.678 92.432 260.782 92.208 260.894 92L264.17 86.312C264.29 86.072 264.438 85.916 264.614 85.844C264.79 85.764 264.966 85.724 265.142 85.724H267.242ZM278.436 90.5C278.436 90.068 278.372 89.668 278.244 89.3C278.124 88.924 277.944 88.6 277.704 88.328C277.464 88.048 277.164 87.832 276.804 87.68C276.452 87.52 276.044 87.44 275.58 87.44C274.644 87.44 273.908 87.708 273.372 88.244C272.836 88.78 272.496 89.532 272.352 90.5H278.436ZM272.28 92.084C272.312 92.78 272.42 93.384 272.604 93.896C272.788 94.4 273.032 94.82 273.336 95.156C273.648 95.492 274.016 95.744 274.44 95.912C274.872 96.072 275.352 96.152 275.88 96.152C276.384 96.152 276.82 96.096 277.188 95.984C277.556 95.864 277.876 95.736 278.148 95.6C278.42 95.456 278.652 95.328 278.844 95.216C279.036 95.096 279.212 95.036 279.372 95.036C279.58 95.036 279.74 95.116 279.852 95.276L280.584 96.224C280.28 96.584 279.936 96.888 279.552 97.136C279.168 97.384 278.76 97.588 278.328 97.748C277.896 97.9 277.452 98.008 276.996 98.072C276.54 98.144 276.096 98.18 275.664 98.18C274.816 98.18 274.028 98.04 273.3 97.76C272.58 97.472 271.952 97.052 271.416 96.5C270.888 95.948 270.472 95.264 270.168 94.448C269.872 93.632 269.724 92.692 269.724 91.628C269.724 90.78 269.856 89.988 270.12 89.252C270.392 88.516 270.776 87.876 271.272 87.332C271.776 86.788 272.384 86.36 273.096 86.048C273.816 85.728 274.628 85.568 275.532 85.568C276.284 85.568 276.98 85.692 277.62 85.94C278.26 86.18 278.812 86.536 279.276 87.008C279.74 87.48 280.1 88.06 280.356 88.748C280.62 89.428 280.752 90.204 280.752 91.076C280.752 91.476 280.708 91.744 280.62 91.88C280.532 92.016 280.372 92.084 280.14 92.084H272.28ZM291.81 88.16C291.73 88.264 291.654 88.344 291.582 88.4C291.51 88.456 291.406 88.484 291.27 88.484C291.134 88.484 290.99 88.436 290.838 88.34C290.694 88.244 290.518 88.14 290.31 88.028C290.11 87.908 289.866 87.8 289.578 87.704C289.29 87.608 288.93 87.56 288.498 87.56C287.938 87.56 287.446 87.66 287.022 87.86C286.606 88.06 286.254 88.348 285.966 88.724C285.686 89.092 285.474 89.544 285.33 90.08C285.194 90.608 285.126 91.204 285.126 91.868C285.126 92.556 285.202 93.168 285.354 93.704C285.506 94.24 285.722 94.692 286.002 95.06C286.29 95.428 286.634 95.708 287.034 95.9C287.442 96.092 287.898 96.188 288.402 96.188C288.898 96.188 289.302 96.128 289.614 96.008C289.926 95.888 290.186 95.756 290.394 95.612C290.602 95.468 290.778 95.336 290.922 95.216C291.074 95.096 291.234 95.036 291.402 95.036C291.61 95.036 291.77 95.116 291.882 95.276L292.614 96.224C292.318 96.584 291.99 96.888 291.63 97.136C291.27 97.384 290.89 97.588 290.49 97.748C290.09 97.9 289.674 98.008 289.242 98.072C288.81 98.144 288.374 98.18 287.934 98.18C287.174 98.18 286.462 98.04 285.798 97.76C285.142 97.472 284.566 97.06 284.07 96.524C283.582 95.98 283.194 95.32 282.906 94.544C282.626 93.76 282.486 92.868 282.486 91.868C282.486 90.964 282.614 90.128 282.87 89.36C283.126 88.584 283.498 87.916 283.986 87.356C284.482 86.796 285.094 86.36 285.822 86.048C286.55 85.728 287.39 85.568 288.342 85.568C289.23 85.568 290.01 85.712 290.682 86C291.362 86.288 291.966 86.696 292.494 87.224L291.81 88.16ZM301.097 91.352V87.464H299.285C298.869 87.464 298.521 87.524 298.241 87.644C297.961 87.764 297.737 87.92 297.569 88.112C297.401 88.296 297.281 88.504 297.209 88.736C297.137 88.968 297.101 89.196 297.101 89.42C297.101 90.02 297.313 90.492 297.737 90.836C298.169 91.18 298.749 91.352 299.477 91.352H301.097ZM303.557 85.76V98H301.097V92.984H300.389C300.157 92.984 299.965 93.004 299.813 93.044C299.661 93.084 299.529 93.14 299.417 93.212C299.313 93.284 299.217 93.372 299.129 93.476C299.049 93.58 298.969 93.696 298.889 93.824L296.597 97.1C296.429 97.404 296.229 97.632 295.997 97.784C295.773 97.928 295.433 98 294.977 98H293.201L296.501 93.548C296.805 93.02 297.229 92.66 297.773 92.468C297.181 92.38 296.677 92.228 296.261 92.012C295.845 91.796 295.509 91.544 295.253 91.256C294.997 90.968 294.809 90.656 294.689 90.32C294.577 89.976 294.521 89.636 294.521 89.3C294.521 88.86 294.605 88.428 294.773 88.004C294.949 87.58 295.225 87.204 295.601 86.876C295.977 86.54 296.461 86.272 297.053 86.072C297.653 85.864 298.373 85.76 299.213 85.76H303.557ZM316.073 85.76V98H313.505V93.02C312.457 93.284 311.477 93.444 310.565 93.5C309.661 93.548 308.873 93.456 308.201 93.224C307.529 92.992 307.001 92.6 306.617 92.048C306.233 91.496 306.041 90.752 306.041 89.816V85.76H308.609V89.42C308.609 89.956 308.709 90.388 308.909 90.716C309.109 91.036 309.409 91.264 309.809 91.4C310.217 91.528 310.725 91.572 311.333 91.532C311.949 91.492 312.673 91.38 313.505 91.196V85.76H316.073ZM329.668 85.76V98H327.1V92.444H321.808V98H319.228V85.76H321.808V90.5H327.1V85.76H329.668ZM337.682 96.128C338.058 96.128 338.386 96.08 338.666 95.984C338.954 95.88 339.19 95.744 339.374 95.576C339.566 95.4 339.706 95.192 339.794 94.952C339.89 94.712 339.938 94.448 339.938 94.16C339.938 93.904 339.894 93.664 339.806 93.44C339.726 93.208 339.594 93.008 339.41 92.84C339.234 92.664 339.002 92.528 338.714 92.432C338.426 92.328 338.074 92.276 337.658 92.276H335.27V96.128H337.682ZM337.646 90.416C338.494 90.416 339.21 90.52 339.794 90.728C340.378 90.928 340.85 91.2 341.21 91.544C341.57 91.888 341.83 92.288 341.99 92.744C342.15 93.192 342.23 93.66 342.23 94.148C342.23 94.716 342.13 95.236 341.93 95.708C341.73 96.172 341.434 96.576 341.042 96.92C340.658 97.264 340.182 97.532 339.614 97.724C339.054 97.908 338.41 98 337.682 98H332.822V85.76H335.27V90.416H337.646ZM347.246 85.76V98H344.666V85.76H347.246ZM361.164 85.76V98H358.584V90.332C358.584 90.164 358.592 89.98 358.608 89.78C358.624 89.58 358.648 89.376 358.68 89.168C358.6 89.344 358.52 89.508 358.44 89.66C358.368 89.804 358.288 89.936 358.2 90.056L352.884 97.364C352.788 97.516 352.66 97.664 352.5 97.808C352.34 97.944 352.16 98.012 351.96 98.012H350.4V85.76H352.98V93.428C352.98 93.596 352.968 93.784 352.944 93.992C352.928 94.2 352.904 94.408 352.872 94.616C353.032 94.248 353.196 93.944 353.364 93.704L358.68 86.408C358.776 86.248 358.904 86.1 359.064 85.964C359.224 85.828 359.404 85.76 359.604 85.76H361.164ZM355.932 82.712C356.244 82.712 356.504 82.68 356.712 82.616C356.928 82.544 357.1 82.432 357.228 82.28C357.356 82.12 357.448 81.916 357.504 81.668C357.56 81.412 357.588 81.096 357.588 80.72H359.1C359.284 80.72 359.42 80.8 359.508 80.96C359.596 81.112 359.64 81.28 359.64 81.464C359.64 81.872 359.552 82.24 359.376 82.568C359.208 82.888 358.964 83.164 358.644 83.396C358.324 83.62 357.932 83.796 357.468 83.924C357.012 84.044 356.5 84.104 355.932 84.104C355.364 84.104 354.848 84.044 354.384 83.924C353.928 83.796 353.54 83.62 353.22 83.396C352.9 83.164 352.652 82.888 352.476 82.568C352.308 82.24 352.224 81.872 352.224 81.464C352.224 81.28 352.268 81.112 352.356 80.96C352.444 80.8 352.58 80.72 352.764 80.72H354.276C354.276 81.096 354.304 81.412 354.36 81.668C354.416 81.916 354.508 82.12 354.636 82.28C354.764 82.432 354.932 82.544 355.14 82.616C355.356 82.68 355.62 82.712 355.932 82.712ZM369.531 87.056C369.995 86.616 370.563 86.26 371.235 85.988C371.907 85.708 372.711 85.568 373.647 85.568C374.399 85.568 375.063 85.66 375.639 85.844C376.215 86.02 376.699 86.26 377.091 86.564C377.483 86.86 377.779 87.204 377.979 87.596C378.187 87.988 378.291 88.396 378.291 88.82C378.291 89.06 378.255 89.308 378.183 89.564C378.111 89.812 377.991 90.056 377.823 90.296C377.663 90.536 377.447 90.76 377.175 90.968C376.911 91.176 376.583 91.348 376.191 91.484C376.919 91.724 377.495 92.096 377.919 92.6C378.343 93.096 378.555 93.716 378.555 94.46C378.555 95.044 378.419 95.568 378.147 96.032C377.883 96.488 377.527 96.876 377.079 97.196C376.639 97.516 376.127 97.76 375.543 97.928C374.967 98.096 374.367 98.18 373.743 98.18C373.367 98.18 372.975 98.144 372.567 98.072C372.167 98.008 371.767 97.9 371.367 97.748C370.975 97.588 370.595 97.384 370.227 97.136C369.859 96.888 369.527 96.584 369.231 96.224L369.975 95.276C370.071 95.116 370.231 95.036 370.455 95.036C370.615 95.036 370.779 95.096 370.947 95.216C371.115 95.336 371.311 95.468 371.535 95.612C371.767 95.756 372.043 95.888 372.363 96.008C372.691 96.128 373.095 96.188 373.575 96.188C373.975 96.188 374.331 96.14 374.643 96.044C374.955 95.948 375.219 95.812 375.435 95.636C375.651 95.46 375.815 95.256 375.927 95.024C376.039 94.784 376.095 94.524 376.095 94.244C376.095 93.7 375.871 93.272 375.423 92.96C374.983 92.64 374.287 92.48 373.335 92.48H371.955V90.776H373.335C374.167 90.776 374.811 90.624 375.267 90.32C375.723 90.016 375.951 89.62 375.951 89.132C375.951 88.692 375.751 88.32 375.351 88.016C374.959 87.712 374.367 87.56 373.575 87.56C373.127 87.56 372.743 87.608 372.423 87.704C372.111 87.792 371.847 87.892 371.631 88.004C371.415 88.108 371.231 88.204 371.079 88.292C370.935 88.38 370.807 88.424 370.695 88.424C370.575 88.424 370.471 88.4 370.383 88.352C370.303 88.304 370.215 88.204 370.119 88.052L369.531 87.056ZM387.596 92.648C386.676 92.68 385.9 92.756 385.268 92.876C384.636 92.988 384.124 93.136 383.732 93.32C383.34 93.496 383.056 93.708 382.88 93.956C382.712 94.204 382.628 94.476 382.628 94.772C382.628 95.06 382.672 95.308 382.76 95.516C382.856 95.716 382.984 95.884 383.144 96.02C383.312 96.148 383.504 96.244 383.72 96.308C383.944 96.364 384.188 96.392 384.452 96.392C385.124 96.392 385.7 96.268 386.18 96.02C386.668 95.764 387.14 95.396 387.596 94.916V92.648ZM380.756 87.464C382.14 86.176 383.788 85.532 385.7 85.532C386.404 85.532 387.028 85.648 387.572 85.88C388.124 86.104 388.584 86.424 388.952 86.84C389.328 87.256 389.612 87.752 389.804 88.328C390.004 88.896 390.104 89.528 390.104 90.224V98H388.952C388.704 98 388.516 97.964 388.388 97.892C388.26 97.812 388.152 97.656 388.064 97.424L387.812 96.428C387.5 96.708 387.192 96.96 386.888 97.184C386.584 97.4 386.268 97.584 385.94 97.736C385.62 97.888 385.272 98 384.896 98.072C384.528 98.152 384.12 98.192 383.672 98.192C383.176 98.192 382.712 98.124 382.28 97.988C381.856 97.852 381.488 97.648 381.176 97.376C380.864 97.096 380.616 96.752 380.432 96.344C380.256 95.936 380.168 95.456 380.168 94.904C380.168 94.432 380.292 93.972 380.54 93.524C380.796 93.076 381.212 92.676 381.788 92.324C382.372 91.964 383.136 91.668 384.08 91.436C385.032 91.204 386.204 91.072 387.596 91.04V90.224C387.596 89.344 387.408 88.688 387.032 88.256C386.656 87.824 386.104 87.608 385.376 87.608C384.88 87.608 384.464 87.672 384.128 87.8C383.792 87.92 383.5 88.052 383.252 88.196C383.004 88.34 382.784 88.476 382.592 88.604C382.4 88.724 382.196 88.784 381.98 88.784C381.804 88.784 381.652 88.74 381.524 88.652C381.404 88.556 381.304 88.44 381.224 88.304L380.756 87.464ZM395.707 94.928C396.067 95.392 396.459 95.72 396.883 95.912C397.315 96.096 397.791 96.188 398.311 96.188C399.319 96.188 400.103 95.82 400.663 95.084C401.231 94.348 401.515 93.252 401.515 91.796C401.515 91.044 401.451 90.404 401.323 89.876C401.195 89.34 401.011 88.904 400.771 88.568C400.531 88.232 400.239 87.988 399.895 87.836C399.551 87.684 399.163 87.608 398.731 87.608C398.075 87.608 397.507 87.752 397.027 88.04C396.555 88.32 396.115 88.724 395.707 89.252V94.928ZM395.575 87.536C396.087 86.936 396.667 86.452 397.315 86.084C397.971 85.716 398.731 85.532 399.595 85.532C400.283 85.532 400.907 85.672 401.467 85.952C402.027 86.224 402.507 86.624 402.907 87.152C403.307 87.68 403.615 88.336 403.831 89.12C404.055 89.896 404.167 90.788 404.167 91.796C404.167 92.7 404.043 93.544 403.795 94.328C403.555 95.104 403.207 95.78 402.751 96.356C402.295 96.924 401.743 97.372 401.095 97.7C400.447 98.02 399.715 98.18 398.899 98.18C398.179 98.18 397.567 98.064 397.063 97.832C396.567 97.6 396.115 97.28 395.707 96.872V102.068H393.127V85.76H394.687C395.039 85.76 395.263 85.924 395.359 86.252L395.575 87.536ZM413.214 92.648C412.294 92.68 411.518 92.756 410.886 92.876C410.254 92.988 409.742 93.136 409.35 93.32C408.958 93.496 408.674 93.708 408.498 93.956C408.33 94.204 408.246 94.476 408.246 94.772C408.246 95.06 408.29 95.308 408.378 95.516C408.474 95.716 408.602 95.884 408.762 96.02C408.93 96.148 409.122 96.244 409.338 96.308C409.562 96.364 409.806 96.392 410.07 96.392C410.742 96.392 411.318 96.268 411.798 96.02C412.286 95.764 412.758 95.396 413.214 94.916V92.648ZM406.374 87.464C407.758 86.176 409.406 85.532 411.318 85.532C412.022 85.532 412.646 85.648 413.19 85.88C413.742 86.104 414.202 86.424 414.57 86.84C414.946 87.256 415.23 87.752 415.422 88.328C415.622 88.896 415.722 89.528 415.722 90.224V98H414.57C414.322 98 414.134 97.964 414.006 97.892C413.878 97.812 413.77 97.656 413.682 97.424L413.43 96.428C413.118 96.708 412.81 96.96 412.506 97.184C412.202 97.4 411.886 97.584 411.558 97.736C411.238 97.888 410.89 98 410.514 98.072C410.146 98.152 409.738 98.192 409.29 98.192C408.794 98.192 408.33 98.124 407.898 97.988C407.474 97.852 407.106 97.648 406.794 97.376C406.482 97.096 406.234 96.752 406.05 96.344C405.874 95.936 405.786 95.456 405.786 94.904C405.786 94.432 405.91 93.972 406.158 93.524C406.414 93.076 406.83 92.676 407.406 92.324C407.99 91.964 408.754 91.668 409.698 91.436C410.65 91.204 411.822 91.072 413.214 91.04V90.224C413.214 89.344 413.026 88.688 412.65 88.256C412.274 87.824 411.722 87.608 410.994 87.608C410.498 87.608 410.082 87.672 409.746 87.8C409.41 87.92 409.118 88.052 408.87 88.196C408.622 88.34 408.402 88.476 408.21 88.604C408.018 88.724 407.814 88.784 407.598 88.784C407.422 88.784 407.27 88.74 407.142 88.652C407.022 88.556 406.922 88.44 406.842 88.304L406.374 87.464ZM424.384 96.272C425.496 96.272 426.328 95.924 426.88 95.228C427.432 94.524 427.708 93.512 427.708 92.192C427.708 90.888 427.44 89.884 426.904 89.18C426.368 88.468 425.556 88.112 424.468 88.112C423.396 88.112 422.564 88.44 421.972 89.096C421.388 89.752 421.096 90.712 421.096 91.976C421.096 93.352 421.368 94.412 421.912 95.156C422.464 95.9 423.288 96.272 424.384 96.272ZM425.236 83.252C424.46 83.308 423.792 83.468 423.232 83.732C422.68 83.996 422.22 84.352 421.852 84.8C421.492 85.248 421.216 85.784 421.024 86.408C420.84 87.032 420.732 87.728 420.7 88.496C421.1 87.8 421.68 87.244 422.44 86.828C423.2 86.412 424.088 86.204 425.104 86.204C425.92 86.204 426.652 86.348 427.3 86.636C427.948 86.924 428.496 87.328 428.944 87.848C429.4 88.368 429.748 88.996 429.988 89.732C430.236 90.468 430.36 91.284 430.36 92.18C430.36 93.092 430.216 93.92 429.928 94.664C429.648 95.4 429.248 96.032 428.728 96.56C428.208 97.08 427.58 97.48 426.844 97.76C426.108 98.04 425.288 98.18 424.384 98.18C423.528 98.18 422.736 98.04 422.008 97.76C421.28 97.472 420.648 97.012 420.112 96.38C419.576 95.74 419.156 94.904 418.852 93.872C418.556 92.84 418.408 91.576 418.408 90.08C418.408 88.816 418.524 87.648 418.756 86.576C418.988 85.504 419.364 84.568 419.884 83.768C420.404 82.96 421.084 82.312 421.924 81.824C422.772 81.328 423.804 81.032 425.02 80.936L429.376 80.576L429.52 81.92C429.552 82.216 429.508 82.464 429.388 82.664C429.276 82.864 429.076 82.972 428.788 82.988L425.236 83.252ZM438.145 85.568C439.049 85.568 439.865 85.716 440.593 86.012C441.329 86.308 441.953 86.728 442.465 87.272C442.985 87.816 443.385 88.476 443.665 89.252C443.945 90.028 444.085 90.9 444.085 91.868C444.085 92.836 443.945 93.708 443.665 94.484C443.385 95.26 442.985 95.924 442.465 96.476C441.953 97.02 441.329 97.44 440.593 97.736C439.865 98.032 439.049 98.18 438.145 98.18C437.233 98.18 436.409 98.032 435.673 97.736C434.945 97.44 434.321 97.02 433.801 96.476C433.281 95.924 432.881 95.26 432.601 94.484C432.321 93.708 432.181 92.836 432.181 91.868C432.181 90.9 432.321 90.028 432.601 89.252C432.881 88.476 433.281 87.816 433.801 87.272C434.321 86.728 434.945 86.308 435.673 86.012C436.409 85.716 437.233 85.568 438.145 85.568ZM438.145 96.164C439.249 96.164 440.069 95.796 440.605 95.06C441.149 94.316 441.421 93.256 441.421 91.88C441.421 90.504 441.149 89.444 440.605 88.7C440.069 87.948 439.249 87.572 438.145 87.572C437.025 87.572 436.193 87.948 435.649 88.7C435.105 89.444 434.833 90.504 434.833 91.88C434.833 93.256 435.105 94.316 435.649 95.06C436.193 95.796 437.025 96.164 438.145 96.164ZM456.486 87.704H451.974V98H449.394V87.704H444.87V85.76H456.486V87.704ZM463.247 85.568C464.151 85.568 464.967 85.716 465.695 86.012C466.431 86.308 467.055 86.728 467.567 87.272C468.087 87.816 468.487 88.476 468.767 89.252C469.047 90.028 469.187 90.9 469.187 91.868C469.187 92.836 469.047 93.708 468.767 94.484C468.487 95.26 468.087 95.924 467.567 96.476C467.055 97.02 466.431 97.44 465.695 97.736C464.967 98.032 464.151 98.18 463.247 98.18C462.335 98.18 461.511 98.032 460.775 97.736C460.047 97.44 459.423 97.02 458.903 96.476C458.383 95.924 457.983 95.26 457.703 94.484C457.423 93.708 457.283 92.836 457.283 91.868C457.283 90.9 457.423 90.028 457.703 89.252C457.983 88.476 458.383 87.816 458.903 87.272C459.423 86.728 460.047 86.308 460.775 86.012C461.511 85.716 462.335 85.568 463.247 85.568ZM463.247 96.164C464.351 96.164 465.171 95.796 465.707 95.06C466.251 94.316 466.523 93.256 466.523 91.88C466.523 90.504 466.251 89.444 465.707 88.7C465.171 87.948 464.351 87.572 463.247 87.572C462.127 87.572 461.295 87.948 460.751 88.7C460.207 89.444 459.935 90.504 459.935 91.88C459.935 93.256 460.207 94.316 460.751 95.06C461.295 95.796 462.127 96.164 463.247 96.164ZM479.034 86.456C479.162 86.248 479.334 86.08 479.55 85.952C479.774 85.824 480.006 85.76 480.246 85.76H482.262L479.25 90.356C479.058 90.668 478.858 90.92 478.65 91.112C478.442 91.304 478.186 91.452 477.882 91.556C478.274 91.668 478.598 91.84 478.854 92.072C479.118 92.296 479.354 92.588 479.562 92.948L482.598 98H480.822C480.366 98 480.01 97.924 479.754 97.772C479.506 97.62 479.294 97.396 479.118 97.1L477.042 93.524C476.874 93.22 476.654 92.996 476.382 92.852C476.11 92.708 475.802 92.636 475.458 92.636H474.246V98.012H471.666V85.76H474.246V90.908H475.29C475.626 90.908 475.906 90.844 476.13 90.716C476.354 90.588 476.546 90.392 476.706 90.128L479.034 86.456ZM483.756 82.268C484.02 82.028 484.308 81.804 484.62 81.596C484.932 81.388 485.268 81.204 485.628 81.044C485.996 80.884 486.392 80.76 486.816 80.672C487.248 80.576 487.712 80.528 488.208 80.528C488.872 80.528 489.48 80.624 490.032 80.816C490.592 81 491.072 81.268 491.472 81.62C491.88 81.964 492.196 82.384 492.42 82.88C492.644 83.368 492.756 83.916 492.756 84.524C492.756 85.132 492.668 85.66 492.492 86.108C492.316 86.548 492.092 86.932 491.82 87.26C491.548 87.588 491.252 87.876 490.932 88.124C490.612 88.364 490.308 88.592 490.02 88.808C489.74 89.016 489.496 89.228 489.288 89.444C489.088 89.652 488.968 89.884 488.928 90.14L488.676 91.94H486.924L486.744 89.96C486.704 89.584 486.764 89.26 486.924 88.988C487.084 88.716 487.296 88.46 487.56 88.22C487.832 87.98 488.128 87.752 488.448 87.536C488.776 87.312 489.08 87.064 489.36 86.792C489.64 86.52 489.876 86.216 490.068 85.88C490.26 85.544 490.356 85.14 490.356 84.668C490.356 84.356 490.296 84.076 490.176 83.828C490.056 83.572 489.888 83.356 489.672 83.18C489.456 83.004 489.204 82.868 488.916 82.772C488.628 82.676 488.316 82.628 487.98 82.628C487.508 82.628 487.108 82.684 486.78 82.796C486.452 82.908 486.172 83.032 485.94 83.168C485.708 83.296 485.516 83.416 485.364 83.528C485.212 83.632 485.084 83.684 484.98 83.684C484.732 83.684 484.548 83.576 484.428 83.36L483.756 82.268ZM486.06 96.512C486.06 96.28 486.1 96.064 486.18 95.864C486.268 95.656 486.384 95.476 486.528 95.324C486.68 95.172 486.856 95.052 487.056 94.964C487.264 94.876 487.484 94.832 487.716 94.832C487.948 94.832 488.164 94.876 488.364 94.964C488.572 95.052 488.752 95.172 488.904 95.324C489.056 95.476 489.176 95.656 489.264 95.864C489.352 96.064 489.396 96.28 489.396 96.512C489.396 96.752 489.352 96.972 489.264 97.172C489.176 97.372 489.056 97.548 488.904 97.7C488.752 97.852 488.572 97.968 488.364 98.048C488.164 98.136 487.948 98.18 487.716 98.18C487.484 98.18 487.264 98.136 487.056 98.048C486.856 97.968 486.68 97.852 486.528 97.7C486.384 97.548 486.268 97.372 486.18 97.172C486.1 96.972 486.06 96.752 486.06 96.512Z" fill="#343B43"/>
<path d="M85.488 69.768C85.9307 69.768 86.312 69.7173 86.632 69.616C86.952 69.5147 87.2133 69.3733 87.416 69.192C87.624 69.0053 87.776 68.7867 87.872 68.536C87.968 68.28 88.016 68 88.016 67.696C88.016 67.104 87.8053 66.6373 87.384 66.296C86.9627 65.9493 86.3307 65.776 85.488 65.776H83.008V69.768H85.488ZM83.008 60.76V64.672H85.056C85.4933 64.672 85.872 64.624 86.192 64.528C86.5173 64.432 86.784 64.2987 86.992 64.128C87.2053 63.9573 87.3627 63.752 87.464 63.512C87.5653 63.2667 87.616 63 87.616 62.712C87.616 62.0347 87.4133 61.5413 87.008 61.232C86.6027 60.9173 85.9733 60.76 85.12 60.76H83.008ZM85.12 59.536C85.824 59.536 86.4293 59.6053 86.936 59.744C87.448 59.8827 87.8667 60.08 88.192 60.336C88.5227 60.592 88.7653 60.9067 88.92 61.28C89.0747 61.648 89.152 62.064 89.152 62.528C89.152 62.8107 89.1067 63.0827 89.016 63.344C88.9307 63.6 88.8 63.84 88.624 64.064C88.448 64.288 88.224 64.4907 87.952 64.672C87.6853 64.848 87.3707 64.992 87.008 65.104C87.8507 65.264 88.4827 65.5653 88.904 66.008C89.3307 66.4453 89.544 67.0213 89.544 67.736C89.544 68.2213 89.4533 68.664 89.272 69.064C89.096 69.464 88.8347 69.808 88.488 70.096C88.1467 70.384 87.7253 70.608 87.224 70.768C86.7227 70.9227 86.152 71 85.512 71H81.464V59.536H85.12ZM94.7628 62.768C95.3548 62.768 95.8881 62.8667 96.3628 63.064C96.8374 63.2613 97.2428 63.5413 97.5788 63.904C97.9148 64.2667 98.1708 64.7067 98.3468 65.224C98.5281 65.736 98.6188 66.3093 98.6188 66.944C98.6188 67.584 98.5281 68.16 98.3468 68.672C98.1708 69.184 97.9148 69.6213 97.5788 69.984C97.2428 70.3467 96.8374 70.6267 96.3628 70.824C95.8881 71.016 95.3548 71.112 94.7628 71.112C94.1654 71.112 93.6268 71.016 93.1468 70.824C92.6721 70.6267 92.2668 70.3467 91.9308 69.984C91.5948 69.6213 91.3361 69.184 91.1548 68.672C90.9788 68.16 90.8908 67.584 90.8908 66.944C90.8908 66.3093 90.9788 65.736 91.1548 65.224C91.3361 64.7067 91.5948 64.2667 91.9308 63.904C92.2668 63.5413 92.6721 63.2613 93.1468 63.064C93.6268 62.8667 94.1654 62.768 94.7628 62.768ZM94.7628 70C95.5628 70 96.1601 69.7333 96.5548 69.2C96.9494 68.6613 97.1468 67.912 97.1468 66.952C97.1468 65.9867 96.9494 65.2347 96.5548 64.696C96.1601 64.1573 95.5628 63.888 94.7628 63.888C94.3574 63.888 94.0028 63.9573 93.6988 64.096C93.4001 64.2347 93.1494 64.4347 92.9468 64.696C92.7494 64.9573 92.6001 65.28 92.4988 65.664C92.4028 66.0427 92.3548 66.472 92.3548 66.952C92.3548 67.912 92.5521 68.6613 92.9468 69.2C93.3468 69.7333 93.9521 70 94.7628 70ZM107.177 71H105.745V63.984H101.857V71H100.425V62.896H107.177V71ZM110.873 69.048C111.134 69.4 111.419 69.648 111.729 69.792C112.038 69.936 112.385 70.008 112.769 70.008C113.526 70.008 114.107 69.7387 114.513 69.2C114.918 68.6613 115.121 67.8933 115.121 66.896C115.121 66.368 115.073 65.9147 114.977 65.536C114.886 65.1573 114.753 64.848 114.577 64.608C114.401 64.3627 114.185 64.184 113.929 64.072C113.673 63.96 113.382 63.904 113.057 63.904C112.593 63.904 112.185 64.0107 111.833 64.224C111.486 64.4373 111.166 64.7387 110.873 65.128V69.048ZM110.801 64.152C111.142 63.7307 111.537 63.392 111.985 63.136C112.433 62.88 112.945 62.752 113.521 62.752C113.99 62.752 114.414 62.8427 114.793 63.024C115.171 63.2 115.494 63.464 115.761 63.816C116.027 64.1627 116.233 64.5947 116.377 65.112C116.521 65.6293 116.593 66.224 116.593 66.896C116.593 67.4933 116.513 68.0507 116.352 68.568C116.193 69.08 115.961 69.5253 115.657 69.904C115.358 70.2773 114.99 70.5733 114.553 70.792C114.121 71.0053 113.633 71.112 113.089 71.112C112.593 71.112 112.166 71.0293 111.809 70.864C111.457 70.6933 111.145 70.4587 110.873 70.16V73.744H109.441V62.896H110.297C110.499 62.896 110.625 62.9947 110.673 63.192L110.801 64.152ZM121.81 62.768C122.402 62.768 122.935 62.8667 123.41 63.064C123.884 63.2613 124.29 63.5413 124.626 63.904C124.962 64.2667 125.218 64.7067 125.394 65.224C125.575 65.736 125.666 66.3093 125.666 66.944C125.666 67.584 125.575 68.16 125.394 68.672C125.218 69.184 124.962 69.6213 124.626 69.984C124.29 70.3467 123.884 70.6267 123.41 70.824C122.935 71.016 122.402 71.112 121.81 71.112C121.212 71.112 120.674 71.016 120.194 70.824C119.719 70.6267 119.314 70.3467 118.978 69.984C118.642 69.6213 118.383 69.184 118.202 68.672C118.026 68.16 117.938 67.584 117.938 66.944C117.938 66.3093 118.026 65.736 118.202 65.224C118.383 64.7067 118.642 64.2667 118.978 63.904C119.314 63.5413 119.719 63.2613 120.194 63.064C120.674 62.8667 121.212 62.768 121.81 62.768ZM121.81 70C122.61 70 123.207 69.7333 123.602 69.2C123.996 68.6613 124.194 67.912 124.194 66.952C124.194 65.9867 123.996 65.2347 123.602 64.696C123.207 64.1573 122.61 63.888 121.81 63.888C121.404 63.888 121.05 63.9573 120.746 64.096C120.447 64.2347 120.196 64.4347 119.994 64.696C119.796 64.9573 119.647 65.28 119.546 65.664C119.45 66.0427 119.402 66.472 119.402 66.952C119.402 67.912 119.599 68.6613 119.994 69.2C120.394 69.7333 120.999 70 121.81 70ZM133.112 64.336C133.069 64.3947 133.026 64.44 132.984 64.472C132.941 64.504 132.882 64.52 132.808 64.52C132.728 64.52 132.64 64.488 132.544 64.424C132.448 64.3547 132.328 64.28 132.184 64.2C132.045 64.12 131.872 64.048 131.664 63.984C131.461 63.9147 131.21 63.88 130.912 63.88C130.512 63.88 130.16 63.952 129.856 64.096C129.552 64.2347 129.296 64.4373 129.088 64.704C128.885 64.9707 128.73 65.2933 128.624 65.672C128.522 66.0507 128.472 66.4747 128.472 66.944C128.472 67.4347 128.528 67.872 128.64 68.256C128.752 68.6347 128.909 68.9547 129.112 69.216C129.32 69.472 129.568 69.6693 129.856 69.808C130.149 69.9413 130.477 70.008 130.84 70.008C131.186 70.008 131.472 69.968 131.696 69.888C131.92 69.8027 132.104 69.7093 132.248 69.608C132.397 69.5067 132.52 69.416 132.616 69.336C132.717 69.2507 132.816 69.208 132.912 69.208C133.029 69.208 133.12 69.2533 133.184 69.344L133.584 69.864C133.408 70.0827 133.208 70.2693 132.984 70.424C132.76 70.5787 132.517 70.7093 132.256 70.816C132 70.9173 131.73 70.992 131.448 71.04C131.165 71.088 130.877 71.112 130.584 71.112C130.077 71.112 129.605 71.0187 129.168 70.832C128.736 70.6453 128.36 70.376 128.04 70.024C127.72 69.6667 127.469 69.2293 127.288 68.712C127.106 68.1947 127.016 67.6053 127.016 66.944C127.016 66.3413 127.098 65.784 127.264 65.272C127.434 64.76 127.68 64.32 128 63.952C128.325 63.5787 128.722 63.288 129.192 63.08C129.666 62.872 130.21 62.768 130.824 62.768C131.394 62.768 131.896 62.8613 132.328 63.048C132.765 63.2293 133.152 63.488 133.488 63.824L133.112 64.336ZM146.222 69.912V71H140.078V69.912H142.534V62.096C142.534 61.8613 142.542 61.624 142.558 61.384L140.518 63.136C140.449 63.1947 140.379 63.232 140.31 63.248C140.241 63.2587 140.177 63.2587 140.118 63.248C140.059 63.2373 140.003 63.216 139.95 63.184C139.902 63.152 139.865 63.1173 139.838 63.08L139.39 62.464L142.806 59.512H143.966V69.912H146.222Z" fill="#737980"/>
<path d="M349.414 192.56C349.514 191.88 349.701 191.283 349.974 190.77C350.254 190.257 350.604 189.83 351.024 189.49C351.444 189.143 351.924 188.883 352.464 188.71C353.011 188.53 353.601 188.44 354.234 188.44C354.874 188.44 355.454 188.533 355.974 188.72C356.501 188.9 356.951 189.153 357.324 189.48C357.704 189.807 357.994 190.197 358.194 190.65C358.401 191.103 358.504 191.6 358.504 192.14C358.504 192.6 358.447 193.007 358.334 193.36C358.227 193.707 358.071 194.013 357.864 194.28C357.664 194.547 357.417 194.77 357.124 194.95C356.831 195.13 356.501 195.28 356.134 195.4C357.027 195.66 357.697 196.077 358.144 196.65C358.591 197.217 358.814 197.93 358.814 198.79C358.814 199.483 358.684 200.1 358.424 200.64C358.164 201.18 357.811 201.637 357.364 202.01C356.924 202.383 356.407 202.67 355.814 202.87C355.227 203.063 354.604 203.16 353.944 203.16C353.204 203.16 352.564 203.073 352.024 202.9C351.484 202.72 351.017 202.467 350.624 202.14C350.237 201.807 349.914 201.407 349.654 200.94C349.394 200.473 349.174 199.95 348.994 199.37L349.924 198.98C350.171 198.873 350.404 198.843 350.624 198.89C350.851 198.937 351.014 199.06 351.114 199.26C351.221 199.473 351.341 199.703 351.474 199.95C351.607 200.19 351.777 200.413 351.984 200.62C352.197 200.82 352.457 200.99 352.764 201.13C353.077 201.263 353.461 201.33 353.914 201.33C354.374 201.33 354.774 201.257 355.114 201.11C355.461 200.957 355.747 200.763 355.974 200.53C356.207 200.29 356.381 200.023 356.494 199.73C356.607 199.437 356.664 199.147 356.664 198.86C356.664 198.5 356.621 198.17 356.534 197.87C356.447 197.563 356.277 197.303 356.024 197.09C355.777 196.877 355.424 196.71 354.964 196.59C354.511 196.463 353.914 196.4 353.174 196.4V194.85C353.781 194.843 354.291 194.783 354.704 194.67C355.124 194.55 355.457 194.39 355.704 194.19C355.957 193.983 356.137 193.737 356.244 193.45C356.357 193.163 356.414 192.85 356.414 192.51C356.414 192.143 356.357 191.82 356.244 191.54C356.131 191.26 355.971 191.027 355.764 190.84C355.564 190.647 355.324 190.503 355.044 190.41C354.764 190.317 354.454 190.27 354.114 190.27C353.787 190.27 353.484 190.317 353.204 190.41C352.931 190.503 352.684 190.633 352.464 190.8C352.251 190.967 352.071 191.167 351.924 191.4C351.777 191.627 351.671 191.877 351.604 192.15C351.511 192.423 351.384 192.607 351.224 192.7C351.071 192.793 350.844 192.813 350.544 192.76L349.414 192.56ZM372.067 195.8C372.067 197.06 371.91 198.15 371.597 199.07C371.284 199.99 370.867 200.753 370.347 201.36C369.827 201.967 369.224 202.417 368.537 202.71C367.857 203.003 367.147 203.15 366.407 203.15C365.667 203.15 364.957 203.003 364.277 202.71C363.597 202.417 362.997 201.967 362.477 201.36C361.957 200.753 361.54 199.99 361.227 199.07C360.92 198.15 360.767 197.06 360.767 195.8C360.767 194.54 360.92 193.45 361.227 192.53C361.54 191.603 361.957 190.84 362.477 190.24C362.997 189.633 363.597 189.183 364.277 188.89C364.957 188.59 365.667 188.44 366.407 188.44C367.147 188.44 367.857 188.59 368.537 188.89C369.224 189.183 369.827 189.633 370.347 190.24C370.867 190.84 371.284 191.603 371.597 192.53C371.91 193.45 372.067 194.54 372.067 195.8ZM369.847 195.8C369.847 194.733 369.754 193.847 369.567 193.14C369.387 192.427 369.137 191.857 368.817 191.43C368.504 191.003 368.137 190.7 367.717 190.52C367.304 190.34 366.867 190.25 366.407 190.25C365.94 190.25 365.5 190.34 365.087 190.52C364.674 190.7 364.31 191.003 363.997 191.43C363.684 191.857 363.434 192.427 363.247 193.14C363.067 193.847 362.977 194.733 362.977 195.8C362.977 196.867 363.067 197.757 363.247 198.47C363.434 199.177 363.684 199.743 363.997 200.17C364.31 200.597 364.674 200.9 365.087 201.08C365.5 201.26 365.94 201.35 366.407 201.35C366.867 201.35 367.304 201.26 367.717 201.08C368.137 200.9 368.504 200.597 368.817 200.17C369.137 199.743 369.387 199.177 369.567 198.47C369.754 197.757 369.847 196.867 369.847 195.8ZM390.29 195.8C390.29 197.06 390.133 198.15 389.82 199.07C389.506 199.99 389.09 200.753 388.57 201.36C388.05 201.967 387.446 202.417 386.76 202.71C386.08 203.003 385.37 203.15 384.63 203.15C383.89 203.15 383.18 203.003 382.5 202.71C381.82 202.417 381.22 201.967 380.7 201.36C380.18 200.753 379.763 199.99 379.45 199.07C379.143 198.15 378.99 197.06 378.99 195.8C378.99 194.54 379.143 193.45 379.45 192.53C379.763 191.603 380.18 190.84 380.7 190.24C381.22 189.633 381.82 189.183 382.5 188.89C383.18 188.59 383.89 188.44 384.63 188.44C385.37 188.44 386.08 188.59 386.76 188.89C387.446 189.183 388.05 189.633 388.57 190.24C389.09 190.84 389.506 191.603 389.82 192.53C390.133 193.45 390.29 194.54 390.29 195.8ZM388.07 195.8C388.07 194.733 387.976 193.847 387.79 193.14C387.61 192.427 387.36 191.857 387.04 191.43C386.726 191.003 386.36 190.7 385.94 190.52C385.526 190.34 385.09 190.25 384.63 190.25C384.163 190.25 383.723 190.34 383.31 190.52C382.896 190.7 382.533 191.003 382.22 191.43C381.906 191.857 381.656 192.427 381.47 193.14C381.29 193.847 381.2 194.733 381.2 195.8C381.2 196.867 381.29 197.757 381.47 198.47C381.656 199.177 381.906 199.743 382.22 200.17C382.533 200.597 382.896 200.9 383.31 201.08C383.723 201.26 384.163 201.35 384.63 201.35C385.09 201.35 385.526 201.26 385.94 201.08C386.36 200.9 386.726 200.597 387.04 200.17C387.36 199.743 387.61 199.177 387.79 198.47C387.976 197.757 388.07 196.867 388.07 195.8ZM403.532 195.8C403.532 197.06 403.375 198.15 403.062 199.07C402.748 199.99 402.332 200.753 401.812 201.36C401.292 201.967 400.688 202.417 400.002 202.71C399.322 203.003 398.612 203.15 397.872 203.15C397.132 203.15 396.422 203.003 395.742 202.71C395.062 202.417 394.462 201.967 393.942 201.36C393.422 200.753 393.005 199.99 392.692 199.07C392.385 198.15 392.232 197.06 392.232 195.8C392.232 194.54 392.385 193.45 392.692 192.53C393.005 191.603 393.422 190.84 393.942 190.24C394.462 189.633 395.062 189.183 395.742 188.89C396.422 188.59 397.132 188.44 397.872 188.44C398.612 188.44 399.322 188.59 400.002 188.89C400.688 189.183 401.292 189.633 401.812 190.24C402.332 190.84 402.748 191.603 403.062 192.53C403.375 193.45 403.532 194.54 403.532 195.8ZM401.312 195.8C401.312 194.733 401.218 193.847 401.032 193.14C400.852 192.427 400.602 191.857 400.282 191.43C399.968 191.003 399.602 190.7 399.182 190.52C398.768 190.34 398.332 190.25 397.872 190.25C397.405 190.25 396.965 190.34 396.552 190.52C396.138 190.7 395.775 191.003 395.462 191.43C395.148 191.857 394.898 192.427 394.712 193.14C394.532 193.847 394.442 194.733 394.442 195.8C394.442 196.867 394.532 197.757 394.712 198.47C394.898 199.177 395.148 199.743 395.462 200.17C395.775 200.597 396.138 200.9 396.552 201.08C396.965 201.26 397.405 201.35 397.872 201.35C398.332 201.35 398.768 201.26 399.182 201.08C399.602 200.9 399.968 200.597 400.282 200.17C400.602 199.743 400.852 199.177 401.032 198.47C401.218 197.757 401.312 196.867 401.312 195.8ZM416.774 195.8C416.774 197.06 416.617 198.15 416.304 199.07C415.991 199.99 415.574 200.753 415.054 201.36C414.534 201.967 413.931 202.417 413.244 202.71C412.564 203.003 411.854 203.15 411.114 203.15C410.374 203.15 409.664 203.003 408.984 202.71C408.304 202.417 407.704 201.967 407.184 201.36C406.664 200.753 406.247 199.99 405.934 199.07C405.627 198.15 405.474 197.06 405.474 195.8C405.474 194.54 405.627 193.45 405.934 192.53C406.247 191.603 406.664 190.84 407.184 190.24C407.704 189.633 408.304 189.183 408.984 188.89C409.664 188.59 410.374 188.44 411.114 188.44C411.854 188.44 412.564 188.59 413.244 188.89C413.931 189.183 414.534 189.633 415.054 190.24C415.574 190.84 415.991 191.603 416.304 192.53C416.617 193.45 416.774 194.54 416.774 195.8ZM414.554 195.8C414.554 194.733 414.461 193.847 414.274 193.14C414.094 192.427 413.844 191.857 413.524 191.43C413.211 191.003 412.844 190.7 412.424 190.52C412.011 190.34 411.574 190.25 411.114 190.25C410.647 190.25 410.207 190.34 409.794 190.52C409.381 190.7 409.017 191.003 408.704 191.43C408.391 191.857 408.141 192.427 407.954 193.14C407.774 193.847 407.684 194.733 407.684 195.8C407.684 196.867 407.774 197.757 407.954 198.47C408.141 199.177 408.391 199.743 408.704 200.17C409.017 200.597 409.381 200.9 409.794 201.08C410.207 201.26 410.647 201.35 411.114 201.35C411.574 201.35 412.011 201.26 412.424 201.08C412.844 200.9 413.211 200.597 413.524 200.17C413.844 199.743 414.094 199.177 414.274 198.47C414.461 197.757 414.554 196.867 414.554 195.8Z" fill="#464E57"/>
<path d="M91.05 251.8C91.05 253.06 90.9133 254.15 90.64 255.07C90.3733 255.99 90.0033 256.753 89.53 257.36C89.0567 257.967 88.5 258.417 87.86 258.71C87.22 259.003 86.53 259.15 85.79 259.15C85.05 259.15 84.36 259.003 83.72 258.71C83.08 258.417 82.5233 257.967 82.05 257.36C81.5833 256.753 81.2167 255.99 80.95 255.07C80.6833 254.15 80.55 253.06 80.55 251.8C80.55 250.54 80.6833 249.45 80.95 248.53C81.2167 247.603 81.5833 246.84 82.05 246.24C82.5233 245.633 83.08 245.183 83.72 244.89C84.36 244.59 85.05 244.44 85.79 244.44C86.53 244.44 87.22 244.59 87.86 244.89C88.5 245.183 89.0567 245.633 89.53 246.24C90.0033 246.84 90.3733 247.603 90.64 248.53C90.9133 249.45 91.05 250.54 91.05 251.8ZM88.83 251.8C88.83 250.733 88.7433 249.847 88.57 249.14C88.4033 248.427 88.18 247.857 87.9 247.43C87.62 247.003 87.2967 246.7 86.93 246.52C86.5633 246.34 86.1833 246.25 85.79 246.25C85.39 246.25 85.0067 246.34 84.64 246.52C84.28 246.7 83.96 247.003 83.68 247.43C83.4 247.857 83.1767 248.427 83.01 249.14C82.8433 249.847 82.76 250.733 82.76 251.8C82.76 252.867 82.8433 253.757 83.01 254.47C83.1767 255.177 83.4 255.743 83.68 256.17C83.96 256.597 84.28 256.9 84.64 257.08C85.0067 257.26 85.39 257.35 85.79 257.35C86.1833 257.35 86.5633 257.26 86.93 257.08C87.2967 256.9 87.62 256.597 87.9 256.17C88.18 255.743 88.4033 255.177 88.57 254.47C88.7433 253.757 88.83 252.867 88.83 251.8Z" fill="#464E57"/>
<path d="M1026.74 256.97C1026.97 256.97 1027.16 257.04 1027.29 257.18C1027.42 257.313 1027.49 257.487 1027.49 257.7V259H1017.75V258.27C1017.75 258.123 1017.78 257.97 1017.84 257.81C1017.9 257.65 1018 257.503 1018.13 257.37L1022.61 252.88C1022.99 252.5 1023.33 252.137 1023.62 251.79C1023.92 251.443 1024.17 251.097 1024.38 250.75C1024.59 250.403 1024.75 250.053 1024.86 249.7C1024.97 249.34 1025.03 248.963 1025.03 248.57C1025.03 248.19 1024.97 247.857 1024.85 247.57C1024.74 247.277 1024.58 247.037 1024.37 246.85C1024.17 246.657 1023.93 246.513 1023.64 246.42C1023.36 246.32 1023.05 246.27 1022.71 246.27C1022.38 246.27 1022.08 246.317 1021.8 246.41C1021.53 246.503 1021.28 246.633 1021.06 246.8C1020.85 246.967 1020.67 247.167 1020.52 247.4C1020.38 247.627 1020.28 247.877 1020.21 248.15C1020.11 248.423 1019.98 248.607 1019.82 248.7C1019.67 248.793 1019.44 248.813 1019.14 248.76L1018.01 248.56C1018.11 247.88 1018.3 247.283 1018.57 246.77C1018.85 246.257 1019.2 245.83 1019.62 245.49C1020.04 245.143 1020.52 244.883 1021.06 244.71C1021.61 244.53 1022.2 244.44 1022.83 244.44C1023.47 244.44 1024.06 244.537 1024.59 244.73C1025.13 244.917 1025.59 245.187 1025.98 245.54C1026.37 245.887 1026.68 246.31 1026.9 246.81C1027.12 247.31 1027.23 247.873 1027.23 248.5C1027.23 249.033 1027.15 249.527 1026.99 249.98C1026.84 250.433 1026.63 250.867 1026.36 251.28C1026.09 251.693 1025.78 252.097 1025.42 252.49C1025.07 252.877 1024.69 253.27 1024.3 253.67L1020.82 257.23C1021.11 257.15 1021.39 257.087 1021.68 257.04C1021.97 256.993 1022.25 256.97 1022.51 256.97H1026.74ZM1040.68 251.8C1040.68 253.06 1040.52 254.15 1040.21 255.07C1039.89 255.99 1039.48 256.753 1038.96 257.36C1038.44 257.967 1037.83 258.417 1037.15 258.71C1036.47 259.003 1035.76 259.15 1035.02 259.15C1034.28 259.15 1033.57 259.003 1032.89 258.71C1032.21 258.417 1031.61 257.967 1031.09 257.36C1030.57 256.753 1030.15 255.99 1029.84 255.07C1029.53 254.15 1029.38 253.06 1029.38 251.8C1029.38 250.54 1029.53 249.45 1029.84 248.53C1030.15 247.603 1030.57 246.84 1031.09 246.24C1031.61 245.633 1032.21 245.183 1032.89 244.89C1033.57 244.59 1034.28 244.44 1035.02 244.44C1035.76 244.44 1036.47 244.59 1037.15 244.89C1037.83 245.183 1038.44 245.633 1038.96 246.24C1039.48 246.84 1039.89 247.603 1040.21 248.53C1040.52 249.45 1040.68 250.54 1040.68 251.8ZM1038.46 251.8C1038.46 250.733 1038.36 249.847 1038.18 249.14C1038 248.427 1037.75 247.857 1037.43 247.43C1037.11 247.003 1036.75 246.7 1036.33 246.52C1035.91 246.34 1035.48 246.25 1035.02 246.25C1034.55 246.25 1034.11 246.34 1033.7 246.52C1033.28 246.7 1032.92 247.003 1032.61 247.43C1032.29 247.857 1032.04 248.427 1031.86 249.14C1031.68 249.847 1031.59 250.733 1031.59 251.8C1031.59 252.867 1031.68 253.757 1031.86 254.47C1032.04 255.177 1032.29 255.743 1032.61 256.17C1032.92 256.597 1033.28 256.9 1033.7 257.08C1034.11 257.26 1034.55 257.35 1035.02 257.35C1035.48 257.35 1035.91 257.26 1036.33 257.08C1036.75 256.9 1037.11 256.597 1037.43 256.17C1037.75 255.743 1038 255.177 1038.18 254.47C1038.36 253.757 1038.46 252.867 1038.46 251.8ZM1053.92 251.8C1053.92 253.06 1053.76 254.15 1053.45 255.07C1053.14 255.99 1052.72 256.753 1052.2 257.36C1051.68 257.967 1051.08 258.417 1050.39 258.71C1049.71 259.003 1049 259.15 1048.26 259.15C1047.52 259.15 1046.81 259.003 1046.13 258.71C1045.45 258.417 1044.85 257.967 1044.33 257.36C1043.81 256.753 1043.39 255.99 1043.08 255.07C1042.77 254.15 1042.62 253.06 1042.62 251.8C1042.62 250.54 1042.77 249.45 1043.08 248.53C1043.39 247.603 1043.81 246.84 1044.33 246.24C1044.85 245.633 1045.45 245.183 1046.13 244.89C1046.81 244.59 1047.52 244.44 1048.26 244.44C1049 244.44 1049.71 244.59 1050.39 244.89C1051.08 245.183 1051.68 245.633 1052.2 246.24C1052.72 246.84 1053.14 247.603 1053.45 248.53C1053.76 249.45 1053.92 250.54 1053.92 251.8ZM1051.7 251.8C1051.7 250.733 1051.61 249.847 1051.42 249.14C1051.24 248.427 1050.99 247.857 1050.67 247.43C1050.36 247.003 1049.99 246.7 1049.57 246.52C1049.16 246.34 1048.72 246.25 1048.26 246.25C1047.79 246.25 1047.35 246.34 1046.94 246.52C1046.53 246.7 1046.16 247.003 1045.85 247.43C1045.54 247.857 1045.29 248.427 1045.1 249.14C1044.92 249.847 1044.83 250.733 1044.83 251.8C1044.83 252.867 1044.92 253.757 1045.1 254.47C1045.29 255.177 1045.54 255.743 1045.85 256.17C1046.16 256.597 1046.53 256.9 1046.94 257.08C1047.35 257.26 1047.79 257.35 1048.26 257.35C1048.72 257.35 1049.16 257.26 1049.57 257.08C1049.99 256.9 1050.36 256.597 1050.67 256.17C1050.99 255.743 1051.24 255.177 1051.42 254.47C1051.61 253.757 1051.7 252.867 1051.7 251.8ZM1072.14 251.8C1072.14 253.06 1071.98 254.15 1071.67 255.07C1071.36 255.99 1070.94 256.753 1070.42 257.36C1069.9 257.967 1069.3 258.417 1068.61 258.71C1067.93 259.003 1067.22 259.15 1066.48 259.15C1065.74 259.15 1065.03 259.003 1064.35 258.71C1063.67 258.417 1063.07 257.967 1062.55 257.36C1062.03 256.753 1061.61 255.99 1061.3 255.07C1060.99 254.15 1060.84 253.06 1060.84 251.8C1060.84 250.54 1060.99 249.45 1061.3 248.53C1061.61 247.603 1062.03 246.84 1062.55 246.24C1063.07 245.633 1063.67 245.183 1064.35 244.89C1065.03 244.59 1065.74 244.44 1066.48 244.44C1067.22 244.44 1067.93 244.59 1068.61 244.89C1069.3 245.183 1069.9 245.633 1070.42 246.24C1070.94 246.84 1071.36 247.603 1071.67 248.53C1071.98 249.45 1072.14 250.54 1072.14 251.8ZM1069.92 251.8C1069.92 250.733 1069.83 249.847 1069.64 249.14C1069.46 248.427 1069.21 247.857 1068.89 247.43C1068.58 247.003 1068.21 246.7 1067.79 246.52C1067.38 246.34 1066.94 246.25 1066.48 246.25C1066.01 246.25 1065.57 246.34 1065.16 246.52C1064.75 246.7 1064.38 247.003 1064.07 247.43C1063.76 247.857 1063.51 248.427 1063.32 249.14C1063.14 249.847 1063.05 250.733 1063.05 251.8C1063.05 252.867 1063.14 253.757 1063.32 254.47C1063.51 255.177 1063.76 255.743 1064.07 256.17C1064.38 256.597 1064.75 256.9 1065.16 257.08C1065.57 257.26 1066.01 257.35 1066.48 257.35C1066.94 257.35 1067.38 257.26 1067.79 257.08C1068.21 256.9 1068.58 256.597 1068.89 256.17C1069.21 255.743 1069.46 255.177 1069.64 254.47C1069.83 253.757 1069.92 252.867 1069.92 251.8ZM1085.38 251.8C1085.38 253.06 1085.23 254.15 1084.91 255.07C1084.6 255.99 1084.18 256.753 1083.66 257.36C1083.14 257.967 1082.54 258.417 1081.85 258.71C1081.17 259.003 1080.46 259.15 1079.72 259.15C1078.98 259.15 1078.27 259.003 1077.59 258.71C1076.91 258.417 1076.31 257.967 1075.79 257.36C1075.27 256.753 1074.86 255.99 1074.54 255.07C1074.24 254.15 1074.08 253.06 1074.08 251.8C1074.08 250.54 1074.24 249.45 1074.54 248.53C1074.86 247.603 1075.27 246.84 1075.79 246.24C1076.31 245.633 1076.91 245.183 1077.59 244.89C1078.27 244.59 1078.98 244.44 1079.72 244.44C1080.46 244.44 1081.17 244.59 1081.85 244.89C1082.54 245.183 1083.14 245.633 1083.66 246.24C1084.18 246.84 1084.6 247.603 1084.91 248.53C1085.23 249.45 1085.38 250.54 1085.38 251.8ZM1083.16 251.8C1083.16 250.733 1083.07 249.847 1082.88 249.14C1082.7 248.427 1082.45 247.857 1082.13 247.43C1081.82 247.003 1081.45 246.7 1081.03 246.52C1080.62 246.34 1080.18 246.25 1079.72 246.25C1079.26 246.25 1078.82 246.34 1078.4 246.52C1077.99 246.7 1077.63 247.003 1077.31 247.43C1077 247.857 1076.75 248.427 1076.56 249.14C1076.38 249.847 1076.29 250.733 1076.29 251.8C1076.29 252.867 1076.38 253.757 1076.56 254.47C1076.75 255.177 1077 255.743 1077.31 256.17C1077.63 256.597 1077.99 256.9 1078.4 257.08C1078.82 257.26 1079.26 257.35 1079.72 257.35C1080.18 257.35 1080.62 257.26 1081.03 257.08C1081.45 256.9 1081.82 256.597 1082.13 256.17C1082.45 255.743 1082.7 255.177 1082.88 254.47C1083.07 253.757 1083.16 252.867 1083.16 251.8ZM1098.63 251.8C1098.63 253.06 1098.47 254.15 1098.16 255.07C1097.84 255.99 1097.43 256.753 1096.91 257.36C1096.39 257.967 1095.78 258.417 1095.1 258.71C1094.42 259.003 1093.71 259.15 1092.97 259.15C1092.23 259.15 1091.52 259.003 1090.84 258.71C1090.16 258.417 1089.56 257.967 1089.04 257.36C1088.52 256.753 1088.1 255.99 1087.79 255.07C1087.48 254.15 1087.33 253.06 1087.33 251.8C1087.33 250.54 1087.48 249.45 1087.79 248.53C1088.1 247.603 1088.52 246.84 1089.04 246.24C1089.56 245.633 1090.16 245.183 1090.84 244.89C1091.52 244.59 1092.23 244.44 1092.97 244.44C1093.71 244.44 1094.42 244.59 1095.1 244.89C1095.78 245.183 1096.39 245.633 1096.91 246.24C1097.43 246.84 1097.84 247.603 1098.16 248.53C1098.47 249.45 1098.63 250.54 1098.63 251.8ZM1096.41 251.8C1096.41 250.733 1096.31 249.847 1096.13 249.14C1095.95 248.427 1095.7 247.857 1095.38 247.43C1095.06 247.003 1094.7 246.7 1094.28 246.52C1093.86 246.34 1093.43 246.25 1092.97 246.25C1092.5 246.25 1092.06 246.34 1091.65 246.52C1091.23 246.7 1090.87 247.003 1090.56 247.43C1090.24 247.857 1089.99 248.427 1089.81 249.14C1089.63 249.847 1089.54 250.733 1089.54 251.8C1089.54 252.867 1089.63 253.757 1089.81 254.47C1089.99 255.177 1090.24 255.743 1090.56 256.17C1090.87 256.597 1091.23 256.9 1091.65 257.08C1092.06 257.26 1092.5 257.35 1092.97 257.35C1093.43 257.35 1093.86 257.26 1094.28 257.08C1094.7 256.9 1095.06 256.597 1095.38 256.17C1095.7 255.743 1095.95 255.177 1096.13 254.47C1096.31 253.757 1096.41 252.867 1096.41 251.8Z" fill="#464E57"/>
<line x1="94" y1="225" x2="1098" y2="225" stroke="#F2F4F7" stroke-width="4" stroke-linecap="round"/>
<line x1="82" y1="225" x2="382" y2="225" stroke="#7C4EFF" stroke-width="4" stroke-linecap="round"/>
<g filter="url(#filter0_d_111_12683)">
<circle cx="384" cy="225" r="10" fill="#7C4EFF"/>
<circle cx="384" cy="225" r="9.5" stroke="#7C4EFF"/>
</g>
<line x1="1" y1="142" x2="1180" y2="142" stroke="#DFE2E6" stroke-width="2"/>
<rect x="434.5" y="359.5" width="59" height="59" rx="9.5" stroke="#7C4EFF"/>
<path d="M465.924 397H463.619V387.811C463.619 387.505 463.622 387.199 463.629 386.893C463.635 386.587 463.642 386.287 463.648 385.994C463.661 385.701 463.678 385.421 463.697 385.154C463.561 385.304 463.391 385.467 463.189 385.643C462.994 385.818 462.786 386.001 462.564 386.189L460.924 387.498L459.771 386.043L464.01 382.723H465.924V397Z" fill="#7C4EFF"/>
<path d="M512 360H552V358H512V360ZM561 369V409H563V369H561ZM552 418H512V420H552V418ZM503 409V369H501V409H503ZM512 418C507.029 418 503 413.971 503 409H501C501 415.075 505.925 420 512 420V418ZM561 409C561 413.971 556.971 418 552 418V420C558.075 420 563 415.075 563 409H561ZM552 360C556.971 360 561 364.029 561 369H563C563 362.925 558.075 358 552 358V360ZM512 358C505.925 358 501 362.925 501 369H503C503 364.029 507.029 360 512 360V358Z" fill="#DFE2E6"/>
<path d="M536.844 397H527.176V395.271L530.877 391.521C531.593 390.792 532.182 390.164 532.645 389.637C533.107 389.103 533.449 388.598 533.67 388.123C533.898 387.648 534.012 387.13 534.012 386.57C534.012 385.88 533.813 385.359 533.416 385.008C533.019 384.65 532.495 384.471 531.844 384.471C531.225 384.471 530.652 384.594 530.125 384.842C529.604 385.083 529.064 385.428 528.504 385.877L527.244 384.363C527.641 384.025 528.064 383.715 528.514 383.436C528.969 383.156 529.477 382.934 530.037 382.771C530.597 382.602 531.235 382.518 531.951 382.518C532.856 382.518 533.637 382.68 534.295 383.006C534.952 383.325 535.457 383.771 535.809 384.344C536.167 384.917 536.346 385.584 536.346 386.346C536.346 387.114 536.193 387.824 535.887 388.475C535.581 389.126 535.145 389.77 534.578 390.408C534.012 391.04 533.338 391.727 532.557 392.469L530.086 394.881V394.988H536.844V397Z" fill="#999EA5"/>
<path d="M580 360H620V358H580V360ZM629 369V409H631V369H629ZM620 418H580V420H620V418ZM571 409V369H569V409H571ZM580 418C575.029 418 571 413.971 571 409H569C569 415.075 573.925 420 580 420V418ZM629 409C629 413.971 624.971 418 620 418V420C626.075 420 631 415.075 631 409H629ZM620 360C624.971 360 629 364.029 629 369H631C631 362.925 626.075 358 620 358V360ZM580 358C573.925 358 569 362.925 569 369H571C571 364.029 575.029 360 580 360V358Z" fill="#DFE2E6"/>
<path d="M604.297 385.984C604.297 386.629 604.167 387.189 603.906 387.664C603.646 388.139 603.288 388.53 602.832 388.836C602.383 389.135 601.862 389.35 601.27 389.48V389.549C602.409 389.692 603.268 390.05 603.848 390.623C604.434 391.196 604.727 391.954 604.727 392.898C604.727 393.725 604.528 394.464 604.131 395.115C603.734 395.76 603.125 396.268 602.305 396.639C601.484 397.01 600.43 397.195 599.141 397.195C598.366 397.195 597.646 397.133 596.982 397.01C596.325 396.886 595.7 396.688 595.107 396.414V394.373C595.713 394.673 596.357 394.904 597.041 395.066C597.725 395.229 598.372 395.311 598.984 395.311C600.176 395.311 601.025 395.089 601.533 394.646C602.041 394.197 602.295 393.579 602.295 392.791C602.295 392.283 602.161 391.867 601.895 391.541C601.634 391.215 601.227 390.971 600.674 390.809C600.127 390.646 599.421 390.564 598.555 390.564H597.295V388.719H598.564C599.391 388.719 600.055 388.621 600.557 388.426C601.058 388.224 601.419 387.947 601.641 387.596C601.868 387.244 601.982 386.834 601.982 386.365C601.982 385.753 601.784 385.278 601.387 384.939C600.99 384.594 600.4 384.422 599.619 384.422C599.137 384.422 598.698 384.477 598.301 384.588C597.91 384.699 597.549 384.839 597.217 385.008C596.885 385.177 596.569 385.359 596.27 385.555L595.166 383.963C595.706 383.559 596.351 383.217 597.1 382.938C597.848 382.658 598.721 382.518 599.717 382.518C601.182 382.518 602.311 382.833 603.105 383.465C603.9 384.09 604.297 384.93 604.297 385.984Z" fill="#999EA5"/>
<path d="M648 360H688V358H648V360ZM697 369V409H699V369H697ZM688 418H648V420H688V418ZM639 409V369H637V409H639ZM648 418C643.029 418 639 413.971 639 409H637C637 415.075 641.925 420 648 420V418ZM697 409C697 413.971 692.971 418 688 418V420C694.075 420 699 415.075 699 409H697ZM688 360C692.971 360 697 364.029 697 369H699C699 362.925 694.075 358 688 358V360ZM648 358C641.925 358 637 362.925 637 369H639C639 364.029 643.029 360 648 360V358Z" fill="#DFE2E6"/>
<path d="M673.361 393.865H671.428V397H669.162V393.865H662.668V392.127L669.191 382.684H671.428V391.961H673.361V393.865ZM669.162 391.961V388.416C669.162 388.123 669.165 387.827 669.172 387.527C669.185 387.221 669.198 386.928 669.211 386.648C669.224 386.368 669.237 386.111 669.25 385.877C669.263 385.636 669.273 385.438 669.279 385.281H669.201C669.077 385.542 668.941 385.809 668.791 386.082C668.641 386.349 668.482 386.609 668.312 386.863L664.797 391.961H669.162Z" fill="#999EA5"/>
<path d="M716 360H756V358H716V360ZM765 369V409H767V369H765ZM756 418H716V420H756V418ZM707 409V369H705V409H707ZM716 418C711.029 418 707 413.971 707 409H705C705 415.075 709.925 420 716 420V418ZM765 409C765 413.971 760.971 418 756 418V420C762.075 420 767 415.075 767 409H765ZM756 360C760.971 360 765 364.029 765 369H767C767 362.925 762.075 358 756 358V360ZM716 358C709.925 358 705 362.925 705 369H707C707 364.029 711.029 360 716 360V358Z" fill="#DFE2E6"/>
<path d="M736.029 388.074C736.947 388.074 737.755 388.24 738.451 388.572C739.154 388.898 739.701 389.38 740.092 390.018C740.482 390.649 740.678 391.424 740.678 392.342C740.678 393.344 740.466 394.21 740.043 394.939C739.62 395.662 738.998 396.219 738.178 396.609C737.357 397 736.358 397.195 735.18 397.195C734.431 397.195 733.731 397.13 733.08 397C732.436 396.87 731.879 396.674 731.41 396.414V394.344C731.898 394.617 732.484 394.842 733.168 395.018C733.852 395.187 734.506 395.271 735.131 395.271C735.795 395.271 736.365 395.174 736.84 394.979C737.315 394.783 737.68 394.484 737.934 394.08C738.194 393.676 738.324 393.165 738.324 392.547C738.324 391.727 738.061 391.095 737.533 390.652C737.012 390.203 736.195 389.979 735.082 389.979C734.691 389.979 734.275 390.014 733.832 390.086C733.396 390.151 733.031 390.223 732.738 390.301L731.732 389.705L732.27 382.723H739.691V384.744H734.291L733.979 388.299C734.213 388.247 734.493 388.198 734.818 388.152C735.144 388.1 735.548 388.074 736.029 388.074Z" fill="#999EA5"/>
<rect x="954.5" y="44.5" width="170" height="55" rx="7.5" fill="#F8F9FB" stroke="#DFE2E6"/>
<path d="M979.16 69.56C979.26 68.88 979.447 68.2833 979.72 67.77C980 67.2567 980.35 66.83 980.77 66.49C981.19 66.1433 981.67 65.8833 982.21 65.71C982.757 65.53 983.347 65.44 983.98 65.44C984.62 65.44 985.2 65.5333 985.72 65.72C986.247 65.9 986.697 66.1533 987.07 66.48C987.45 66.8067 987.74 67.1967 987.94 67.65C988.147 68.1033 988.25 68.6 988.25 69.14C988.25 69.6 988.193 70.0067 988.08 70.36C987.973 70.7067 987.817 71.0133 987.61 71.28C987.41 71.5467 987.163 71.77 986.87 71.95C986.577 72.13 986.247 72.28 985.88 72.4C986.773 72.66 987.443 73.0767 987.89 73.65C988.337 74.2167 988.56 74.93 988.56 75.79C988.56 76.4833 988.43 77.1 988.17 77.64C987.91 78.18 987.557 78.6367 987.11 79.01C986.67 79.3833 986.153 79.67 985.56 79.87C984.973 80.0633 984.35 80.16 983.69 80.16C982.95 80.16 982.31 80.0733 981.77 79.9C981.23 79.72 980.763 79.4667 980.37 79.14C979.983 78.8067 979.66 78.4067 979.4 77.94C979.14 77.4733 978.92 76.95 978.74 76.37L979.67 75.98C979.917 75.8733 980.15 75.8433 980.37 75.89C980.597 75.9367 980.76 76.06 980.86 76.26C980.967 76.4733 981.087 76.7033 981.22 76.95C981.353 77.19 981.523 77.4133 981.73 77.62C981.943 77.82 982.203 77.99 982.51 78.13C982.823 78.2633 983.207 78.33 983.66 78.33C984.12 78.33 984.52 78.2567 984.86 78.11C985.207 77.9567 985.493 77.7633 985.72 77.53C985.953 77.29 986.127 77.0233 986.24 76.73C986.353 76.4367 986.41 76.1467 986.41 75.86C986.41 75.5 986.367 75.17 986.28 74.87C986.193 74.5633 986.023 74.3033 985.77 74.09C985.523 73.8767 985.17 73.71 984.71 73.59C984.257 73.4633 983.66 73.4 982.92 73.4V71.85C983.527 71.8433 984.037 71.7833 984.45 71.67C984.87 71.55 985.203 71.39 985.45 71.19C985.703 70.9833 985.883 70.7367 985.99 70.45C986.103 70.1633 986.16 69.85 986.16 69.51C986.16 69.1433 986.103 68.82 985.99 68.54C985.877 68.26 985.717 68.0267 985.51 67.84C985.31 67.6467 985.07 67.5033 984.79 67.41C984.51 67.3167 984.2 67.27 983.86 67.27C983.533 67.27 983.23 67.3167 982.95 67.41C982.677 67.5033 982.43 67.6333 982.21 67.8C981.997 67.9667 981.817 68.1667 981.67 68.4C981.523 68.6267 981.417 68.8767 981.35 69.15C981.257 69.4233 981.13 69.6067 980.97 69.7C980.817 69.7933 980.59 69.8133 980.29 69.76L979.16 69.56ZM1001.81 72.8C1001.81 74.06 1001.66 75.15 1001.34 76.07C1001.03 76.99 1000.61 77.7533 1000.09 78.36C999.573 78.9667 998.97 79.4167 998.283 79.71C997.603 80.0033 996.893 80.15 996.153 80.15C995.413 80.15 994.703 80.0033 994.023 79.71C993.343 79.4167 992.743 78.9667 992.223 78.36C991.703 77.7533 991.286 76.99 990.973 76.07C990.666 75.15 990.513 74.06 990.513 72.8C990.513 71.54 990.666 70.45 990.973 69.53C991.286 68.6033 991.703 67.84 992.223 67.24C992.743 66.6333 993.343 66.1833 994.023 65.89C994.703 65.59 995.413 65.44 996.153 65.44C996.893 65.44 997.603 65.59 998.283 65.89C998.97 66.1833 999.573 66.6333 1000.09 67.24C1000.61 67.84 1001.03 68.6033 1001.34 69.53C1001.66 70.45 1001.81 71.54 1001.81 72.8ZM999.593 72.8C999.593 71.7333 999.5 70.8467 999.313 70.14C999.133 69.4267 998.883 68.8567 998.563 68.43C998.25 68.0033 997.883 67.7 997.463 67.52C997.05 67.34 996.613 67.25 996.153 67.25C995.686 67.25 995.246 67.34 994.833 67.52C994.42 67.7 994.056 68.0033 993.743 68.43C993.43 68.8567 993.18 69.4267 992.993 70.14C992.813 70.8467 992.723 71.7333 992.723 72.8C992.723 73.8667 992.813 74.7567 992.993 75.47C993.18 76.1767 993.43 76.7433 993.743 77.17C994.056 77.5967 994.42 77.9 994.833 78.08C995.246 78.26 995.686 78.35 996.153 78.35C996.613 78.35 997.05 78.26 997.463 78.08C997.883 77.9 998.25 77.5967 998.563 77.17C998.883 76.7433 999.133 76.1767 999.313 75.47C999.5 74.7567 999.593 73.8667 999.593 72.8ZM1020.04 72.8C1020.04 74.06 1019.88 75.15 1019.57 76.07C1019.25 76.99 1018.84 77.7533 1018.32 78.36C1017.8 78.9667 1017.19 79.4167 1016.51 79.71C1015.83 80.0033 1015.12 80.15 1014.38 80.15C1013.64 80.15 1012.93 80.0033 1012.25 79.71C1011.57 79.4167 1010.97 78.9667 1010.45 78.36C1009.93 77.7533 1009.51 76.99 1009.2 76.07C1008.89 75.15 1008.74 74.06 1008.74 72.8C1008.74 71.54 1008.89 70.45 1009.2 69.53C1009.51 68.6033 1009.93 67.84 1010.45 67.24C1010.97 66.6333 1011.57 66.1833 1012.25 65.89C1012.93 65.59 1013.64 65.44 1014.38 65.44C1015.12 65.44 1015.83 65.59 1016.51 65.89C1017.19 66.1833 1017.8 66.6333 1018.32 67.24C1018.84 67.84 1019.25 68.6033 1019.57 69.53C1019.88 70.45 1020.04 71.54 1020.04 72.8ZM1017.82 72.8C1017.82 71.7333 1017.72 70.8467 1017.54 70.14C1017.36 69.4267 1017.11 68.8567 1016.79 68.43C1016.47 68.0033 1016.11 67.7 1015.69 67.52C1015.27 67.34 1014.84 67.25 1014.38 67.25C1013.91 67.25 1013.47 67.34 1013.06 67.52C1012.64 67.7 1012.28 68.0033 1011.97 68.43C1011.65 68.8567 1011.4 69.4267 1011.22 70.14C1011.04 70.8467 1010.95 71.7333 1010.95 72.8C1010.95 73.8667 1011.04 74.7567 1011.22 75.47C1011.4 76.1767 1011.65 76.7433 1011.97 77.17C1012.28 77.5967 1012.64 77.9 1013.06 78.08C1013.47 78.26 1013.91 78.35 1014.38 78.35C1014.84 78.35 1015.27 78.26 1015.69 78.08C1016.11 77.9 1016.47 77.5967 1016.79 77.17C1017.11 76.7433 1017.36 76.1767 1017.54 75.47C1017.72 74.7567 1017.82 73.8667 1017.82 72.8ZM1033.28 72.8C1033.28 74.06 1033.12 75.15 1032.81 76.07C1032.49 76.99 1032.08 77.7533 1031.56 78.36C1031.04 78.9667 1030.43 79.4167 1029.75 79.71C1029.07 80.0033 1028.36 80.15 1027.62 80.15C1026.88 80.15 1026.17 80.0033 1025.49 79.71C1024.81 79.4167 1024.21 78.9667 1023.69 78.36C1023.17 77.7533 1022.75 76.99 1022.44 76.07C1022.13 75.15 1021.98 74.06 1021.98 72.8C1021.98 71.54 1022.13 70.45 1022.44 69.53C1022.75 68.6033 1023.17 67.84 1023.69 67.24C1024.21 66.6333 1024.81 66.1833 1025.49 65.89C1026.17 65.59 1026.88 65.44 1027.62 65.44C1028.36 65.44 1029.07 65.59 1029.75 65.89C1030.43 66.1833 1031.04 66.6333 1031.56 67.24C1032.08 67.84 1032.49 68.6033 1032.81 69.53C1033.12 70.45 1033.28 71.54 1033.28 72.8ZM1031.06 72.8C1031.06 71.7333 1030.96 70.8467 1030.78 70.14C1030.6 69.4267 1030.35 68.8567 1030.03 68.43C1029.71 68.0033 1029.35 67.7 1028.93 67.52C1028.51 67.34 1028.08 67.25 1027.62 67.25C1027.15 67.25 1026.71 67.34 1026.3 67.52C1025.88 67.7 1025.52 68.0033 1025.21 68.43C1024.89 68.8567 1024.64 69.4267 1024.46 70.14C1024.28 70.8467 1024.19 71.7333 1024.19 72.8C1024.19 73.8667 1024.28 74.7567 1024.46 75.47C1024.64 76.1767 1024.89 76.7433 1025.21 77.17C1025.52 77.5967 1025.88 77.9 1026.3 78.08C1026.71 78.26 1027.15 78.35 1027.62 78.35C1028.08 78.35 1028.51 78.26 1028.93 78.08C1029.35 77.9 1029.71 77.5967 1030.03 77.17C1030.35 76.7433 1030.6 76.1767 1030.78 75.47C1030.96 74.7567 1031.06 73.8667 1031.06 72.8ZM1046.52 72.8C1046.52 74.06 1046.36 75.15 1046.05 76.07C1045.74 76.99 1045.32 77.7533 1044.8 78.36C1044.28 78.9667 1043.68 79.4167 1042.99 79.71C1042.31 80.0033 1041.6 80.15 1040.86 80.15C1040.12 80.15 1039.41 80.0033 1038.73 79.71C1038.05 79.4167 1037.45 78.9667 1036.93 78.36C1036.41 77.7533 1035.99 76.99 1035.68 76.07C1035.37 75.15 1035.22 74.06 1035.22 72.8C1035.22 71.54 1035.37 70.45 1035.68 69.53C1035.99 68.6033 1036.41 67.84 1036.93 67.24C1037.45 66.6333 1038.05 66.1833 1038.73 65.89C1039.41 65.59 1040.12 65.44 1040.86 65.44C1041.6 65.44 1042.31 65.59 1042.99 65.89C1043.68 66.1833 1044.28 66.6333 1044.8 67.24C1045.32 67.84 1045.74 68.6033 1046.05 69.53C1046.36 70.45 1046.52 71.54 1046.52 72.8ZM1044.3 72.8C1044.3 71.7333 1044.21 70.8467 1044.02 70.14C1043.84 69.4267 1043.59 68.8567 1043.27 68.43C1042.96 68.0033 1042.59 67.7 1042.17 67.52C1041.76 67.34 1041.32 67.25 1040.86 67.25C1040.39 67.25 1039.95 67.34 1039.54 67.52C1039.13 67.7 1038.76 68.0033 1038.45 68.43C1038.14 68.8567 1037.89 69.4267 1037.7 70.14C1037.52 70.8467 1037.43 71.7333 1037.43 72.8C1037.43 73.8667 1037.52 74.7567 1037.7 75.47C1037.89 76.1767 1038.14 76.7433 1038.45 77.17C1038.76 77.5967 1039.13 77.9 1039.54 78.08C1039.95 78.26 1040.39 78.35 1040.86 78.35C1041.32 78.35 1041.76 78.26 1042.17 78.08C1042.59 77.9 1042.96 77.5967 1043.27 77.17C1043.59 76.7433 1043.84 76.1767 1044.02 75.47C1044.21 74.7567 1044.3 73.8667 1044.3 72.8Z" fill="#343B43"/>
<path d="M1078.1 71.42H1073.48V80H1071.33V69.8H1078.1V71.42ZM1081.82 77.44C1082.12 77.8267 1082.45 78.1 1082.8 78.26C1083.16 78.4133 1083.56 78.49 1083.99 78.49C1084.83 78.49 1085.48 78.1833 1085.95 77.57C1086.42 76.9567 1086.66 76.0433 1086.66 74.83C1086.66 74.2033 1086.61 73.67 1086.5 73.23C1086.39 72.7833 1086.24 72.42 1086.04 72.14C1085.84 71.86 1085.6 71.6567 1085.31 71.53C1085.02 71.4033 1084.7 71.34 1084.34 71.34C1083.79 71.34 1083.32 71.46 1082.92 71.7C1082.53 71.9333 1082.16 72.27 1081.82 72.71V77.44ZM1081.71 71.28C1082.14 70.78 1082.62 70.3767 1083.16 70.07C1083.71 69.7633 1084.34 69.61 1085.06 69.61C1085.63 69.61 1086.15 69.7267 1086.62 69.96C1087.09 70.1867 1087.49 70.52 1087.82 70.96C1088.15 71.4 1088.41 71.9467 1088.59 72.6C1088.78 73.2467 1088.87 73.99 1088.87 74.83C1088.87 75.5833 1088.77 76.2867 1088.56 76.94C1088.36 77.5867 1088.07 78.15 1087.69 78.63C1087.31 79.1033 1086.85 79.4767 1086.31 79.75C1085.77 80.0167 1085.16 80.15 1084.48 80.15C1083.88 80.15 1083.37 80.0533 1082.95 79.86C1082.54 79.6667 1082.16 79.4 1081.82 79.06V83.39H1079.67V69.8H1080.97C1081.26 69.8 1081.45 69.9367 1081.53 70.21L1081.71 71.28ZM1099.66 69.8V80H1097.52V75.37H1093.11V80H1090.96V69.8H1093.11V73.75H1097.52V69.8H1099.66Z" fill="#737980"/>
<path d="M819.368 392.432C819.469 392.432 819.557 392.472 819.632 392.552L820.376 393.36C819.907 393.925 819.331 394.363 818.648 394.672C817.965 394.976 817.149 395.128 816.2 395.128C815.357 395.128 814.595 394.984 813.912 394.696C813.235 394.403 812.656 393.997 812.176 393.48C811.696 392.957 811.325 392.336 811.064 391.616C810.808 390.896 810.68 390.104 810.68 389.24C810.68 388.376 810.816 387.584 811.088 386.864C811.365 386.139 811.752 385.517 812.248 385C812.749 384.477 813.347 384.072 814.04 383.784C814.739 383.496 815.507 383.352 816.344 383.352C817.176 383.352 817.909 383.488 818.544 383.76C819.184 384.027 819.739 384.384 820.208 384.832L819.592 385.704C819.549 385.763 819.499 385.813 819.44 385.856C819.381 385.899 819.301 385.92 819.2 385.92C819.093 385.92 818.971 385.872 818.832 385.776C818.699 385.675 818.525 385.565 818.312 385.448C818.104 385.325 817.84 385.216 817.52 385.12C817.205 385.019 816.811 384.968 816.336 384.968C815.787 384.968 815.283 385.064 814.824 385.256C814.365 385.448 813.971 385.728 813.64 386.096C813.309 386.464 813.051 386.912 812.864 387.44C812.683 387.968 812.592 388.568 812.592 389.24C812.592 389.917 812.688 390.523 812.88 391.056C813.072 391.584 813.336 392.032 813.672 392.4C814.008 392.763 814.403 393.04 814.856 393.232C815.309 393.424 815.797 393.52 816.32 393.52C816.64 393.52 816.925 393.504 817.176 393.472C817.432 393.435 817.667 393.379 817.88 393.304C818.093 393.224 818.293 393.125 818.48 393.008C818.672 392.891 818.861 392.747 819.048 392.576C819.155 392.48 819.261 392.432 819.368 392.432ZM829.049 395H827.329V388.176H825.057C824.993 389.195 824.894 390.075 824.761 390.816C824.633 391.552 824.478 392.176 824.297 392.688C824.116 393.2 823.913 393.616 823.689 393.936C823.465 394.251 823.228 394.496 822.977 394.672C822.726 394.848 822.468 394.965 822.201 395.024C821.94 395.083 821.676 395.112 821.409 395.112C820.892 395.112 820.633 395.027 820.633 394.856V393.776H821.081C821.257 393.776 821.436 393.747 821.617 393.688C821.804 393.629 821.982 393.515 822.153 393.344C822.324 393.168 822.486 392.923 822.641 392.608C822.801 392.293 822.945 391.88 823.073 391.368C823.206 390.851 823.321 390.224 823.417 389.488C823.513 388.747 823.588 387.864 823.641 386.84H829.049V395ZM836.494 390C836.494 389.712 836.451 389.445 836.366 389.2C836.286 388.949 836.166 388.733 836.006 388.552C835.846 388.365 835.646 388.221 835.406 388.12C835.171 388.013 834.899 387.96 834.59 387.96C833.966 387.96 833.475 388.139 833.118 388.496C832.76 388.853 832.534 389.355 832.438 390H836.494ZM832.39 391.056C832.411 391.52 832.483 391.923 832.606 392.264C832.728 392.6 832.891 392.88 833.094 393.104C833.302 393.328 833.547 393.496 833.83 393.608C834.118 393.715 834.438 393.768 834.79 393.768C835.126 393.768 835.416 393.731 835.662 393.656C835.907 393.576 836.12 393.491 836.302 393.4C836.483 393.304 836.638 393.219 836.766 393.144C836.894 393.064 837.011 393.024 837.118 393.024C837.256 393.024 837.363 393.077 837.438 393.184L837.926 393.816C837.723 394.056 837.494 394.259 837.238 394.424C836.982 394.589 836.71 394.725 836.422 394.832C836.134 394.933 835.838 395.005 835.534 395.048C835.23 395.096 834.934 395.12 834.646 395.12C834.08 395.12 833.555 395.027 833.07 394.84C832.59 394.648 832.171 394.368 831.814 394C831.462 393.632 831.184 393.176 830.982 392.632C830.784 392.088 830.686 391.461 830.686 390.752C830.686 390.187 830.774 389.659 830.95 389.168C831.131 388.677 831.387 388.251 831.718 387.888C832.054 387.525 832.459 387.24 832.934 387.032C833.414 386.819 833.955 386.712 834.558 386.712C835.059 386.712 835.523 386.795 835.95 386.96C836.376 387.12 836.744 387.357 837.054 387.672C837.363 387.987 837.603 388.373 837.774 388.832C837.95 389.285 838.038 389.803 838.038 390.384C838.038 390.651 838.008 390.829 837.95 390.92C837.891 391.011 837.784 391.056 837.63 391.056H832.39ZM845.123 393.76V388.176H842.835C842.787 388.923 842.718 389.592 842.627 390.184C842.542 390.776 842.44 391.301 842.323 391.76C842.211 392.213 842.086 392.605 841.947 392.936C841.808 393.261 841.664 393.536 841.515 393.76H845.123ZM848.283 393.704V397.248C848.283 397.408 848.235 397.533 848.139 397.624C848.048 397.72 847.931 397.768 847.787 397.768H846.723V395H840.267V397.28C840.267 397.403 840.227 397.515 840.147 397.616C840.072 397.717 839.955 397.768 839.795 397.768H838.707V393.76H838.955C839.142 393.76 839.326 393.733 839.507 393.68C839.688 393.621 839.862 393.507 840.027 393.336C840.192 393.165 840.35 392.925 840.499 392.616C840.648 392.301 840.782 391.888 840.899 391.376C841.022 390.864 841.128 390.237 841.219 389.496C841.31 388.755 841.382 387.869 841.435 386.84H846.787V393.704H848.283ZM856.46 386.84L851.964 397.32C851.905 397.443 851.833 397.539 851.748 397.608C851.668 397.677 851.543 397.712 851.372 397.712H850.1L851.604 394.448L848.276 386.84H849.772C849.916 386.84 850.025 386.875 850.1 386.944C850.18 387.008 850.239 387.085 850.276 387.176L852.22 391.808C852.268 391.941 852.311 392.075 852.348 392.208C852.391 392.336 852.431 392.469 852.468 392.608C852.511 392.469 852.553 392.333 852.596 392.2C852.639 392.067 852.687 391.933 852.74 391.8L854.604 387.176C854.641 387.08 854.703 387 854.788 386.936C854.879 386.872 854.977 386.84 855.084 386.84H856.46ZM864.811 393.776C865.499 393.776 866.009 393.531 866.339 393.04C866.675 392.544 866.843 391.837 866.843 390.92C866.843 390.003 866.675 389.296 866.339 388.8C866.009 388.299 865.499 388.048 864.811 388.048C864.118 388.048 863.603 388.299 863.267 388.8C862.937 389.296 862.771 390.003 862.771 390.92C862.771 391.837 862.937 392.544 863.267 393.04C863.603 393.531 864.118 393.776 864.811 393.776ZM861.083 390.248C861.142 389.704 861.27 389.213 861.467 388.776C861.665 388.339 861.923 387.968 862.243 387.664C862.563 387.355 862.939 387.12 863.371 386.96C863.803 386.795 864.283 386.712 864.811 386.712C865.393 386.712 865.918 386.811 866.387 387.008C866.857 387.205 867.257 387.485 867.587 387.848C867.918 388.211 868.171 388.651 868.347 389.168C868.529 389.685 868.619 390.267 868.619 390.912C868.619 391.557 868.526 392.139 868.339 392.656C868.158 393.173 867.899 393.616 867.563 393.984C867.227 394.347 866.825 394.627 866.355 394.824C865.891 395.021 865.377 395.12 864.811 395.12C864.267 395.12 863.774 395.037 863.331 394.872C862.894 394.701 862.515 394.459 862.195 394.144C861.875 393.829 861.619 393.448 861.427 393C861.241 392.552 861.123 392.048 861.075 391.488H859.299V395H857.579V386.84H859.299V390.248H861.083ZM882.907 393.704V397.248C882.907 397.408 882.859 397.533 882.763 397.624C882.672 397.72 882.555 397.768 882.411 397.768H881.347V395H870.267V386.84H871.987V393.704H874.979V386.84H876.699V393.704H879.691V386.84H881.403V395H881.411V393.704H882.907ZM891.411 386.84V395H889.692V389.888C889.692 389.776 889.697 389.653 889.708 389.52C889.718 389.387 889.734 389.251 889.756 389.112C889.702 389.229 889.649 389.339 889.596 389.44C889.548 389.536 889.494 389.624 889.436 389.704L885.892 394.576C885.828 394.677 885.742 394.776 885.636 394.872C885.529 394.963 885.409 395.008 885.276 395.008H884.236V386.84H885.956V391.952C885.956 392.064 885.948 392.189 885.932 392.328C885.921 392.467 885.905 392.605 885.884 392.744C885.99 392.499 886.1 392.296 886.212 392.136L889.756 387.272C889.82 387.165 889.905 387.067 890.012 386.976C890.118 386.885 890.238 386.84 890.372 386.84H891.411ZM900.677 386.84V395H898.957V389.888C898.957 389.776 898.962 389.653 898.973 389.52C898.984 389.387 899 389.251 899.021 389.112C898.968 389.229 898.914 389.339 898.861 389.44C898.813 389.536 898.76 389.624 898.701 389.704L895.157 394.576C895.093 394.677 895.008 394.776 894.901 394.872C894.794 394.963 894.674 395.008 894.541 395.008H893.501V386.84H895.221V391.952C895.221 392.064 895.213 392.189 895.197 392.328C895.186 392.467 895.17 392.605 895.149 392.744C895.256 392.499 895.365 392.296 895.477 392.136L899.021 387.272C899.085 387.165 899.17 387.067 899.277 386.976C899.384 386.885 899.504 386.84 899.637 386.84H900.677ZM897.189 384.808C897.397 384.808 897.57 384.787 897.709 384.744C897.853 384.696 897.968 384.621 898.053 384.52C898.138 384.413 898.2 384.277 898.237 384.112C898.274 383.941 898.293 383.731 898.293 383.48H899.301C899.424 383.48 899.514 383.533 899.573 383.64C899.632 383.741 899.661 383.853 899.661 383.976C899.661 384.248 899.602 384.493 899.485 384.712C899.373 384.925 899.21 385.109 898.997 385.264C898.784 385.413 898.522 385.531 898.213 385.616C897.909 385.696 897.568 385.736 897.189 385.736C896.81 385.736 896.466 385.696 896.157 385.616C895.853 385.531 895.594 385.413 895.381 385.264C895.168 385.109 895.002 384.925 894.885 384.712C894.773 384.493 894.717 384.248 894.717 383.976C894.717 383.853 894.746 383.741 894.805 383.64C894.864 383.533 894.954 383.48 895.077 383.48H896.085C896.085 383.731 896.104 383.941 896.141 384.112C896.178 384.277 896.24 384.413 896.325 384.52C896.41 384.621 896.522 384.696 896.661 384.744C896.805 384.787 896.981 384.808 897.189 384.808ZM909.991 393.808C910.46 393.808 910.831 393.696 911.103 393.472C911.38 393.243 911.519 392.936 911.519 392.552C911.519 392.387 911.495 392.232 911.447 392.088C911.399 391.944 911.316 391.821 911.199 391.72C911.082 391.613 910.924 391.531 910.727 391.472C910.535 391.413 910.292 391.384 909.999 391.384H908.391V393.808H909.991ZM908.391 387.976V390.304H909.807C910.02 390.304 910.215 390.275 910.391 390.216C910.572 390.152 910.727 390.067 910.855 389.96C910.988 389.848 911.09 389.717 911.159 389.568C911.234 389.413 911.271 389.243 911.271 389.056C911.271 388.923 911.247 388.792 911.199 388.664C911.151 388.531 911.068 388.413 910.951 388.312C910.839 388.211 910.69 388.131 910.503 388.072C910.316 388.008 910.084 387.976 909.807 387.976H908.391ZM909.863 386.84C910.37 386.84 910.807 386.891 911.175 386.992C911.543 387.088 911.844 387.224 912.079 387.4C912.319 387.576 912.495 387.784 912.607 388.024C912.719 388.264 912.775 388.523 912.775 388.8C912.775 388.976 912.751 389.16 912.703 389.352C912.655 389.544 912.572 389.728 912.455 389.904C912.338 390.075 912.178 390.232 911.975 390.376C911.778 390.52 911.524 390.632 911.215 390.712C911.796 390.819 912.255 391.032 912.591 391.352C912.932 391.667 913.103 392.088 913.103 392.616C913.103 393.021 913.02 393.373 912.855 393.672C912.69 393.971 912.463 394.219 912.175 394.416C911.892 394.613 911.562 394.76 911.183 394.856C910.81 394.952 910.415 395 909.999 395H906.751V386.84H909.863ZM918.264 386.712C918.866 386.712 919.41 386.811 919.896 387.008C920.386 387.205 920.802 387.485 921.144 387.848C921.49 388.211 921.757 388.651 921.944 389.168C922.13 389.685 922.224 390.267 922.224 390.912C922.224 391.557 922.13 392.139 921.944 392.656C921.757 393.173 921.49 393.616 921.144 393.984C920.802 394.347 920.386 394.627 919.896 394.824C919.41 395.021 918.866 395.12 918.264 395.12C917.656 395.12 917.106 395.021 916.616 394.824C916.13 394.627 915.714 394.347 915.368 393.984C915.021 393.616 914.754 393.173 914.568 392.656C914.381 392.139 914.288 391.557 914.288 390.912C914.288 390.267 914.381 389.685 914.568 389.168C914.754 388.651 915.021 388.211 915.368 387.848C915.714 387.485 916.13 387.205 916.616 387.008C917.106 386.811 917.656 386.712 918.264 386.712ZM918.264 393.776C919 393.776 919.546 393.531 919.904 393.04C920.266 392.544 920.448 391.837 920.448 390.92C920.448 390.003 920.266 389.296 919.904 388.8C919.546 388.299 919 388.048 918.264 388.048C917.517 388.048 916.962 388.299 916.6 388.8C916.237 389.296 916.056 390.003 916.056 390.92C916.056 391.837 916.237 392.544 916.6 393.04C916.962 393.531 917.517 393.776 918.264 393.776ZM930.836 395H929.124V388.136H925.596V395H923.876V386.84H930.836V395ZM934.659 392.952C934.899 393.261 935.16 393.48 935.443 393.608C935.731 393.731 936.048 393.792 936.395 393.792C937.067 393.792 937.589 393.547 937.963 393.056C938.341 392.565 938.531 391.835 938.531 390.864C938.531 390.363 938.488 389.936 938.403 389.584C938.317 389.227 938.195 388.936 938.035 388.712C937.875 388.488 937.68 388.325 937.451 388.224C937.221 388.123 936.963 388.072 936.675 388.072C936.237 388.072 935.859 388.168 935.539 388.36C935.224 388.547 934.931 388.816 934.659 389.168V392.952ZM934.571 388.024C934.912 387.624 935.299 387.301 935.731 387.056C936.168 386.811 936.675 386.688 937.251 386.688C937.709 386.688 938.125 386.781 938.499 386.968C938.872 387.149 939.192 387.416 939.459 387.768C939.725 388.12 939.931 388.557 940.075 389.08C940.224 389.597 940.299 390.192 940.299 390.864C940.299 391.467 940.216 392.029 940.051 392.552C939.891 393.069 939.659 393.52 939.355 393.904C939.051 394.283 938.683 394.581 938.251 394.8C937.819 395.013 937.331 395.12 936.787 395.12C936.307 395.12 935.899 395.043 935.563 394.888C935.232 394.733 934.931 394.52 934.659 394.248V397.712H932.939V386.84H933.979C934.213 386.84 934.363 386.949 934.427 387.168L934.571 388.024ZM945.498 386.712C946.101 386.712 946.645 386.811 947.13 387.008C947.621 387.205 948.037 387.485 948.378 387.848C948.725 388.211 948.991 388.651 949.178 389.168C949.365 389.685 949.458 390.267 949.458 390.912C949.458 391.557 949.365 392.139 949.178 392.656C948.991 393.173 948.725 393.616 948.378 393.984C948.037 394.347 947.621 394.627 947.13 394.824C946.645 395.021 946.101 395.12 945.498 395.12C944.89 395.12 944.341 395.021 943.85 394.824C943.365 394.627 942.949 394.347 942.602 393.984C942.255 393.616 941.989 393.173 941.802 392.656C941.615 392.139 941.522 391.557 941.522 390.912C941.522 390.267 941.615 389.685 941.802 389.168C941.989 388.651 942.255 388.211 942.602 387.848C942.949 387.485 943.365 387.205 943.85 387.008C944.341 386.811 944.89 386.712 945.498 386.712ZM945.498 393.776C946.234 393.776 946.781 393.531 947.138 393.04C947.501 392.544 947.682 391.837 947.682 390.92C947.682 390.003 947.501 389.296 947.138 388.8C946.781 388.299 946.234 388.048 945.498 388.048C944.751 388.048 944.197 388.299 943.834 388.8C943.471 389.296 943.29 390.003 943.29 390.92C943.29 391.837 943.471 392.544 943.834 393.04C944.197 393.531 944.751 393.776 945.498 393.776ZM956.879 388.44C956.825 388.509 956.775 388.563 956.727 388.6C956.679 388.637 956.609 388.656 956.519 388.656C956.428 388.656 956.332 388.624 956.231 388.56C956.135 388.496 956.017 388.427 955.879 388.352C955.745 388.272 955.583 388.2 955.391 388.136C955.199 388.072 954.959 388.04 954.671 388.04C954.297 388.04 953.969 388.107 953.687 388.24C953.409 388.373 953.175 388.565 952.983 388.816C952.796 389.061 952.655 389.363 952.559 389.72C952.468 390.072 952.423 390.469 952.423 390.912C952.423 391.371 952.473 391.779 952.575 392.136C952.676 392.493 952.82 392.795 953.007 393.04C953.199 393.285 953.428 393.472 953.695 393.6C953.967 393.728 954.271 393.792 954.607 393.792C954.937 393.792 955.207 393.752 955.415 393.672C955.623 393.592 955.796 393.504 955.935 393.408C956.073 393.312 956.191 393.224 956.287 393.144C956.388 393.064 956.495 393.024 956.607 393.024C956.745 393.024 956.852 393.077 956.927 393.184L957.415 393.816C957.217 394.056 956.999 394.259 956.759 394.424C956.519 394.589 956.265 394.725 955.999 394.832C955.732 394.933 955.455 395.005 955.167 395.048C954.879 395.096 954.588 395.12 954.295 395.12C953.788 395.12 953.313 395.027 952.871 394.84C952.433 394.648 952.049 394.373 951.719 394.016C951.393 393.653 951.135 393.213 950.943 392.696C950.756 392.173 950.663 391.579 950.663 390.912C950.663 390.309 950.748 389.752 950.919 389.24C951.089 388.723 951.337 388.277 951.663 387.904C951.993 387.531 952.401 387.24 952.887 387.032C953.372 386.819 953.932 386.712 954.567 386.712C955.159 386.712 955.679 386.808 956.127 387C956.58 387.192 956.983 387.464 957.335 387.816L956.879 388.44Z" fill="#7C4EFF"/>
<path fill-rule="evenodd" clip-rule="evenodd" d="M977.85 381.764C978.257 381.39 978.89 381.417 979.263 381.823L985.236 388.323C985.588 388.706 985.588 389.294 985.236 389.677L979.263 396.177C978.89 396.583 978.257 396.61 977.85 396.236C977.444 395.863 977.417 395.23 977.791 394.823L982.223 390H967.5C966.948 390 966.5 389.552 966.5 389C966.5 388.448 966.948 388 967.5 388H982.223L977.791 383.177C977.417 382.77 977.444 382.137 977.85 381.764Z" fill="#7C4EFF"/>
<defs>
<filter id="filter0_d_111_12683" x="370" y="212" width="28" height="28" filterUnits="userSpaceOnUse" color-interpolation-filters="sRGB">
<feFlood flood-opacity="0" result="BackgroundImageFix"/>
<feColorMatrix in="SourceAlpha" type="matrix" values="0 0 0 0 0 0 0 0 0 0 0 0 0 0 0 0 0 0 127 0" result="hardAlpha"/>
<feOffset dy="1"/>
<feGaussianBlur stdDeviation="2"/>
<feColorMatrix type="matrix" values="0 0 0 0 0 0 0 0 0 0 0 0 0 0 0 0 0 0 0.2 0"/>
<feBlend mode="normal" in2="BackgroundImageFix" result="effect1_dropShadow_111_12683"/>
<feBlend mode="normal" in="SourceGraphic" in2="effect1_dropShadow_111_12683" result="shape"/>
</filter>
</defs>
</svg>
