<svg width="52" height="52" viewBox="0 0 52 52" fill="none" xmlns="http://www.w3.org/2000/svg">
<path d="M17.2454 16.6691C16.8013 16.7702 16.3392 16.8235 15.8644 16.8235C12.4499 16.8235 9.68164 14.0552 9.68164 10.6399V6.24423L13.6811 3.11052L15.4484 3.8894L12.4436 6.24423V10.6399C12.4436 13.5805 14.4952 16.0408 17.2454 16.6691Z" fill="#FEC0B7"/>
<path d="M45.4514 15.3294C45.1421 16.5566 44.3344 17.5261 43.2994 18.0759L39.2286 15.0142L38.791 14.6852L40.4973 10.0499C41.0884 9.94016 41.7106 9.95235 42.332 10.1089C43.3327 10.361 44.1617 10.9448 44.7325 11.714C45.4756 12.7139 45.7795 14.0264 45.4514 15.3294Z" fill="#E6E6E6"/>
<path d="M44.7325 11.7143C43.2755 10.4884 41.9674 12.0738 40.6561 15.8523L38.791 14.6855L40.4973 10.0502C41.0884 9.94055 41.7106 9.95273 42.332 10.1092C43.3327 10.3614 44.1617 10.9452 44.7325 11.7143Z" fill="#D5D3D3"/>
<path d="M32.8594 17.6786C33.3151 15.8696 32.2182 14.0335 30.4091 13.5778C28.6001 13.122 26.764 14.2191 26.3082 16.0281C25.8525 17.8371 26.9496 19.6731 28.7585 20.1289C30.5676 20.5847 32.4036 19.4876 32.8594 17.6786Z" fill="#D5D3D3"/>
<path d="M43.1102 19.5783C43.9446 16.2668 41.9364 12.906 38.625 12.0718C35.3135 11.2374 31.9528 13.2455 31.1186 16.557C30.2842 19.8683 32.2922 23.2291 35.6038 24.0635C38.9151 24.8978 42.2759 22.8896 43.1102 19.5783Z" fill="#FECEC8"/>
<path fill-rule="evenodd" clip-rule="evenodd" d="M38.5126 20.2063C38.9477 20.3159 39.3894 20.052 39.499 19.6169L39.6277 19.1063C39.7373 18.6711 39.4735 18.2295 39.0383 18.1199C38.6032 18.0102 38.1616 18.2741 38.0519 18.7092L37.9233 19.2199C37.8136 19.655 38.0775 20.0966 38.5126 20.2063Z" fill="#2D2E35"/>
<path d="M37.2291 24.2513C36.6936 24.261 36.1483 24.201 35.6036 24.0638C32.2926 23.2296 30.2842 19.8685 31.1185 16.5574C31.9528 13.2463 35.3139 11.238 38.6249 12.0722C39.1695 12.2095 39.6781 12.415 40.1452 12.6773C37.4215 12.7252 34.9603 14.5822 34.2631 17.3496C33.5659 20.1171 34.8532 22.9185 37.2291 24.2513Z" fill="#FEC0B7"/>
<path fill-rule="evenodd" clip-rule="evenodd" d="M40.6962 20.7567C41.1313 20.8663 41.5729 20.6025 41.6826 20.1673L41.8113 19.6567C41.9209 19.2215 41.6571 18.7799 41.2219 18.6703C40.7868 18.5606 40.3452 18.8245 40.2355 19.2596L40.1069 19.7703C39.9972 20.2054 40.2611 20.647 40.6962 20.7567Z" fill="#2D2E35"/>
<path fill-rule="evenodd" clip-rule="evenodd" d="M35.4049 24.8514C39.1512 25.7953 42.9539 23.5231 43.8978 19.777L43.8978 19.7769C44.5996 16.9909 43.5227 14.1763 41.3874 12.5277C41.0322 12.2534 40.522 12.3191 40.2478 12.6742C39.9735 13.0294 40.0391 13.5397 40.3943 13.8139C42.0364 15.0817 42.8603 17.2434 42.322 19.38C41.5974 22.2559 38.678 24.0003 35.8019 23.2757L35.8019 23.2757C33.0848 22.5912 31.3784 19.948 31.8084 17.2342C31.8786 16.791 31.5763 16.3748 31.1331 16.3046C30.6899 16.2343 30.2736 16.5367 30.2034 16.9799C29.643 20.5165 31.8644 23.9595 35.4049 24.8514Z" fill="#2D2E35"/>
<path d="M38.4655 17.2281C37.1314 18.2201 35.5289 18.5946 33.9995 18.3999C32.9378 18.2654 31.9126 17.8573 31.0372 17.1916C30.0962 14.6785 30.8774 11.748 33.1384 10.0658C35.0382 8.65282 37.4809 8.49418 39.4813 9.44237C39.861 9.62284 40.2254 9.84354 40.5676 10.1025C41.5077 12.6153 40.7261 15.5469 38.4655 17.2281Z" fill="#E6E6E6"/>
<path d="M39.4813 9.44227L39.48 9.44298C39.48 9.44298 32.8505 11.8156 33.9996 18.3998C32.9378 18.2653 31.9127 17.8572 31.0372 17.1915C30.0962 14.6785 30.8774 11.7479 33.1384 10.0657C35.0382 8.65273 37.4809 8.49419 39.4813 9.44227Z" fill="#D5D3D3"/>
<path fill-rule="evenodd" clip-rule="evenodd" d="M34.0016 19.2134C34.338 19.2134 34.6266 19.009 34.7501 18.7177C34.7652 18.682 34.7778 18.645 34.7878 18.607C34.805 18.5411 34.8141 18.4721 34.8141 18.4009C34.8141 17.9915 34.5096 17.6451 34.1035 17.5938C33.2571 17.4868 32.4369 17.1795 31.7212 16.6843C31.0304 14.5519 31.7296 12.129 33.6255 10.7186C35.5214 9.30805 38.0437 9.33538 39.8857 10.6112C40.5774 12.7425 39.8784 15.1664 37.9826 16.5769L37.3127 17.0025C37.1165 17.1078 36.9158 17.1996 36.712 17.2784C36.5228 17.3515 36.3766 17.4877 36.2881 17.6536C36.2765 17.6753 36.2659 17.6975 36.2564 17.7201C36.1772 17.9074 36.1679 18.1245 36.247 18.3291C36.4087 18.7477 36.8791 18.9559 37.2977 18.7942C37.875 18.5711 38.4323 18.2676 38.9524 17.8807C41.5114 15.977 42.3935 12.6605 41.3296 9.81838C41.2759 9.67476 41.1825 9.54928 41.0605 9.45646C38.6445 7.61941 35.2145 7.51099 32.6555 9.41477C30.0965 11.3185 29.2145 14.6338 30.277 17.4767C30.3307 17.6206 30.4242 17.7463 30.5465 17.8392C31.5257 18.5833 32.671 19.0427 33.8544 19.2001C33.9021 19.2088 33.9514 19.2134 34.0016 19.2134Z" fill="#2D2E35"/>
<path fill-rule="evenodd" clip-rule="evenodd" d="M30.8007 19.1119C28.9144 20.1312 26.5631 18.3413 27.0959 16.2267C27.464 14.7659 29.1035 13.9162 30.4973 14.4567C30.9157 14.619 31.3864 14.4114 31.5486 13.993C31.7109 13.5746 31.5032 13.1039 31.0848 12.9417C28.7726 12.045 26.1248 13.43 25.5201 15.8297L25.5201 15.8297C24.6346 19.3443 28.4689 22.2191 31.5733 20.5415C31.968 20.3281 32.1151 19.8352 31.9018 19.4404C31.6884 19.0456 31.1955 18.8985 30.8007 19.1119Z" fill="#2D2E35"/>
<path fill-rule="evenodd" clip-rule="evenodd" d="M42.5808 18.4571C42.7913 18.8534 43.2833 19.0039 43.6795 18.7934C44.909 18.1403 45.8706 16.9868 46.2382 15.5279C46.9282 12.7891 45.2671 10.0106 42.5294 9.32103C41.7918 9.13515 41.0512 9.12034 40.3479 9.25097C39.9067 9.33292 39.6155 9.757 39.6974 10.1982C39.7793 10.6394 40.2034 10.9306 40.6446 10.8486C41.1234 10.7597 41.6273 10.7695 42.1324 10.8968C43.9999 11.3672 45.1331 13.2625 44.6625 15.1308C44.4761 15.8704 44.0672 16.4942 43.5245 16.9491C43.3369 17.1065 43.1332 17.2436 42.9172 17.3584C42.5209 17.5689 42.3703 18.0608 42.5808 18.4571Z" fill="#2D2E35"/>
<path d="M37.854 33.2045L42.6573 34.041C43.4041 34.1708 44.0298 34.6798 44.3096 35.3847L47.1644 42.5941C47.607 43.7129 47.0598 44.9792 45.9408 45.4218C45.6777 45.5264 45.4066 45.5752 45.1391 45.5752C44.2721 45.5752 43.452 45.0541 43.113 44.1984L40.708 38.1246H35.5762" fill="#BDD8FC"/>
<path d="M46.2239 44.8153C46.003 44.8754 45.7801 44.9034 45.5594 44.9034C44.5081 44.9034 43.514 44.2613 43.1031 43.2067L40.1875 35.7217C40.9927 35.7217 41.7164 36.2216 42.0129 36.9827L44.4373 43.2067C44.7596 44.0325 45.439 44.6059 46.2239 44.8153Z" fill="#9DC7FB"/>
<path d="M26.3242 32.7834V29.3953C26.3242 26.0665 29.0229 23.3677 32.3519 23.3677C34.0163 23.3677 35.5229 24.0421 36.6139 25.1331C37.705 26.2242 38.3795 27.7309 38.3795 29.3953V33.7167" fill="#EEEFF5"/>
<path d="M33.7286 23.5258C31.063 24.1489 28.5009 26.5401 28.5009 29.3957V32.9973L26.3242 32.7838V29.3957C26.3242 26.0669 29.0229 23.3681 32.3517 23.3681C32.8258 23.3681 33.2868 23.423 33.7286 23.5258Z" fill="#D8D9E0"/>
<path fill-rule="evenodd" clip-rule="evenodd" d="M38.3795 34.5292C38.8282 34.5292 39.192 34.1654 39.192 33.7167V29.3953C39.192 27.5067 38.4257 25.7958 37.1884 24.5586C35.9513 23.3215 34.2404 22.5552 32.3519 22.5552C28.5742 22.5552 25.5117 25.6178 25.5117 29.3953V32.7834C25.5117 33.2321 25.8755 33.5959 26.3242 33.5959C26.7729 33.5959 27.1367 33.2321 27.1367 32.7834V29.3953C27.1367 26.5152 29.4717 24.1802 32.3519 24.1802C33.7921 24.1802 35.0946 24.7628 36.0394 25.7076C36.9843 26.6526 37.567 27.955 37.567 29.3953V33.7167C37.567 34.1654 37.9308 34.5292 38.3795 34.5292Z" fill="#2D2E35"/>
<path d="M41.068 40.8352C41.068 35.3497 36.6211 30.9028 31.1356 30.9028C25.65 30.9028 21.2031 35.3497 21.2031 40.8352C21.2031 46.3207 25.65 50.7676 31.1356 50.7676C36.6211 50.7676 41.068 46.3207 41.068 40.8352Z" fill="#5C5E70"/>
<path fill-rule="evenodd" clip-rule="evenodd" d="M20.3906 40.8349C20.3906 46.7693 25.2013 51.58 31.1356 51.58C37.07 51.58 41.8806 46.7693 41.8806 40.8349C41.8806 34.9005 37.07 30.0899 31.1356 30.0899C30.971 30.0899 30.8051 30.0937 30.6386 30.1023C30.1905 30.1256 29.8461 30.5077 29.8693 30.9558C29.8926 31.4039 30.2747 31.7484 30.7228 31.7251C30.8578 31.7181 30.9954 31.7149 31.1356 31.7149C36.1725 31.7149 40.2556 35.798 40.2556 40.8349C40.2556 45.8718 36.1725 49.955 31.1356 49.955C26.0988 49.955 22.0156 45.8718 22.0156 40.8349C22.0156 37.4026 23.912 34.4113 26.7179 32.8546C27.1103 32.6369 27.2519 32.1424 27.0342 31.75C26.8165 31.3576 26.3219 31.216 25.9295 31.4337C22.6282 33.2652 20.3906 36.7886 20.3906 40.8349Z" fill="#2D2E35"/>
<path d="M38.5511 40.8355C38.5511 36.7407 35.2316 33.4213 31.1369 33.4213C27.0421 33.4213 23.7227 36.7407 23.7227 40.8355C23.7227 44.9303 27.0421 48.2496 31.1369 48.2496C35.2316 48.2496 38.5511 44.9303 38.5511 40.8355Z" fill="#E6E6E6"/>
<path fill-rule="evenodd" clip-rule="evenodd" d="M22.9102 40.8346C22.9102 45.3781 26.5932 49.0612 31.1367 49.0612C35.6804 49.0612 39.3633 45.3781 39.3633 40.8346C39.3633 36.291 35.6804 32.6079 31.1367 32.6079C30.9688 32.6079 30.7997 32.6127 30.6299 32.6236C30.1821 32.6523 29.8423 33.0385 29.871 33.4864C29.8996 33.9342 30.2859 34.274 30.7337 34.2453C30.8654 34.2369 30.9997 34.2329 31.1367 34.2329C34.7829 34.2329 37.7383 37.1884 37.7383 40.8346C37.7383 44.4807 34.7829 47.4362 31.1367 47.4362C27.4907 47.4362 24.5352 44.4807 24.5352 40.8346C24.5352 38.8097 25.4457 36.9987 26.8825 35.7871C27.2255 35.4978 27.2691 34.9853 26.9798 34.6422C26.6906 34.2992 26.178 34.2556 25.8349 34.5448C24.0475 36.0521 22.9102 38.3107 22.9102 40.8346Z" fill="#2D2E35"/>
<path fill-rule="evenodd" clip-rule="evenodd" d="M42.3573 44.4977C42.8232 45.6736 43.9499 46.3877 45.1387 46.3877C45.5055 46.3877 45.8785 46.3207 46.24 46.1771C47.7766 45.5689 48.5268 43.8304 47.9195 42.2952L45.0647 35.0856C44.6808 34.1183 43.8218 33.4189 42.7964 33.2406C42.7963 33.2406 42.7964 33.2406 42.7964 33.2406L37.9931 32.404C37.551 32.327 37.1302 32.623 37.0532 33.0651C36.9762 33.5071 37.2722 33.9279 37.7142 34.0049L42.5175 34.8415C42.9855 34.9228 43.3783 35.2418 43.554 35.6843C43.554 35.6843 43.554 35.6842 43.554 35.6843L46.4085 42.893C46.4085 42.8931 46.4084 42.8929 46.4085 42.893C46.6861 43.5952 46.3425 44.3891 45.6416 44.6663L45.6403 44.6668C45.4757 44.7322 45.3068 44.7627 45.1387 44.7627C44.5935 44.7627 44.0803 44.4346 43.8681 43.8993L41.4631 37.8254C41.2979 37.4082 40.8258 37.2039 40.4085 37.3691C39.9913 37.5343 39.787 38.0065 39.9522 38.4237L42.3573 44.4977Z" fill="#2D2E35"/>
<path d="M30.6813 29.3961V33.8838L32.9555 36.1581C33.8064 37.0088 33.8064 38.3882 32.9555 39.239C32.5301 39.6644 31.9726 39.8771 31.4151 39.8771C30.8575 39.8771 30.3 39.6644 29.8746 39.239L26.9622 36.3267C26.5536 35.9181 26.3242 35.3639 26.3242 34.7862V29.3961" fill="#EEEFF5"/>
<path d="M32.5035 39.585C32.1679 39.7793 31.7915 39.8761 31.415 39.8761C30.8574 39.8761 30.2997 39.6634 29.8743 39.2382L26.962 36.3259C26.5533 35.9172 26.3242 35.363 26.3242 34.7852V29.3954H28.501V34.7852C28.501 35.363 28.7302 35.9172 29.1389 36.3259L32.0512 39.2382C32.1898 39.3767 32.3423 39.4926 32.5035 39.585Z" fill="#D8D9E0"/>
<path fill-rule="evenodd" clip-rule="evenodd" d="M39.0547 45.5752C39.0547 46.0239 39.4185 46.3877 39.8672 46.3877H48.7034C49.1522 46.3877 49.5159 46.0239 49.5159 45.5752C49.5159 45.1265 49.1522 44.7627 48.7034 44.7627H39.8672C39.4185 44.7627 39.0547 45.1265 39.0547 45.5752Z" fill="#2D2E35"/>
<path d="M45.8015 48.1715C45.8015 46.7378 44.6392 45.5755 43.2054 45.5755C41.7717 45.5755 40.6094 46.7378 40.6094 48.1715C40.6094 49.6053 41.7717 50.7676 43.2054 50.7676C44.6392 50.7676 45.8015 49.6053 45.8015 48.1715Z" fill="#3B3D4C"/>
<path fill-rule="evenodd" clip-rule="evenodd" d="M43.2054 49.9551C42.2204 49.9551 41.4219 49.1566 41.4219 48.1715C41.4219 47.1865 42.2204 46.388 43.2054 46.388C44.1904 46.388 44.989 47.1865 44.989 48.1715C44.989 49.1566 44.1904 49.9551 43.2054 49.9551ZM39.7969 48.1715C39.7969 50.054 41.3229 51.5801 43.2054 51.5801C45.0879 51.5801 46.614 50.054 46.614 48.1715C46.614 46.2891 45.0879 44.763 43.2054 44.763C41.3229 44.763 39.7969 46.2891 39.7969 48.1715Z" fill="#2D2E35"/>
<path fill-rule="evenodd" clip-rule="evenodd" d="M29.3001 39.8136C29.884 40.3974 30.6508 40.6896 31.4151 40.6896C32.1793 40.6896 32.9461 40.3974 33.53 39.8137C34.6982 38.6456 34.6983 36.7516 33.53 35.5835L31.4937 33.5473V27.8647C31.4937 27.4159 31.13 27.0522 30.6812 27.0522C30.2325 27.0522 29.8687 27.4159 29.8687 27.8647V33.8839C29.8687 34.0994 29.9544 34.306 30.1067 34.4584L32.381 36.7326C32.9146 37.2661 32.9146 38.131 32.3811 38.6645" fill="#2D2E35"/>
<path d="M31.4151 40.6896C30.6508 40.6896 29.884 40.3974 29.3001 39.8136L26.3877 36.9012C25.8267 36.3402 25.5117 35.5793 25.5117 34.7862V29.3962C25.5117 28.9475 25.8755 28.5837 26.3242 28.5837C26.7729 28.5837 27.1367 28.9475 27.1367 29.3962V34.7862C27.1367 35.1485 27.2806 35.496 27.5368 35.7521L30.4492 38.6645C30.6912 38.9066 31.0002 39.0387 31.3176 39.0611C31.6996 39.0881 32.0893 38.9562 32.3811 38.6645C32.9146 38.131 32.9146 37.2661 32.381 36.7326L30.1067 34.4584C29.9544 34.306 29.8687 34.0994 29.8687 33.8839V27.8647C29.8687 27.4159 30.2325 27.0522 30.6812 27.0522C31.13 27.0522 31.4937 27.4159 31.4937 27.8647V33.5473L33.53 35.5835C34.6983 36.7516 34.6982 38.6456 33.53 39.8137C32.9461 40.3974 32.1793 40.6896 31.4151 40.6896Z" fill="#2D2E35"/>
<path d="M11.0112 33.3779L8.96367 40.6498L4.53148 43.915C3.4021 44.7478 3.1614 46.3373 3.9931 47.4656C4.49085 48.141 5.25968 48.4985 6.03968 48.4985C6.56273 48.4985 7.08984 48.3381 7.54372 48.0039L12.4147 44.4137L15.6291 36.6381L13.8729 32.7203L11.0112 33.3779Z" fill="#3B3D4C"/>
<path d="M20.2227 22.0918V29.8827H9.68555V22.0918C9.68555 19.1821 12.0448 16.8228 14.9546 16.8228C17.8644 16.8228 20.2227 19.1821 20.2227 22.0918Z" fill="#BDD8FC"/>
<path d="M19.6274 5.73055C21.1003 6.86063 22.0499 8.63869 22.0499 10.6389C22.0499 14.0542 19.2817 16.8224 15.8663 16.8224C12.4518 16.8224 9.68359 14.0542 9.68359 10.6389V6.24333L13.6826 3.10983L19.6274 5.73055Z" fill="#FECEC8"/>
<path d="M17.2454 16.6691C16.8013 16.7702 16.3392 16.8235 15.8644 16.8235C12.4499 16.8235 9.68164 14.0552 9.68164 10.6399V6.24423L13.6811 3.11052L15.4484 3.8894L12.4436 6.24423V10.6399C12.4436 13.5805 14.4952 16.0408 17.2454 16.6691Z" fill="#FEC0B7"/>
<path fill-rule="evenodd" clip-rule="evenodd" d="M10.4961 10.6399C10.4961 10.6398 10.4961 10.64 10.4961 10.6399C10.4961 10.1911 10.1323 9.8266 9.68359 9.8266C9.23486 9.8266 8.87109 10.1904 8.87109 10.6391L8.87109 10.6404C8.87224 14.5041 12.0021 17.6357 15.8657 17.6357C19.73 17.6357 22.8623 14.5034 22.8623 10.6391C22.8623 8.48419 21.8867 6.55651 20.3566 5.27439C20.0127 4.98618 19.5002 5.03136 19.212 5.3753C18.9238 5.71924 18.969 6.2317 19.3129 6.51991C20.4905 7.5067 21.2373 8.98543 21.2373 10.6391C21.2373 13.6059 18.8325 16.0107 15.8657 16.0107C12.9003 16.0107 10.4971 13.6071 10.4961 10.6399Z" fill="#2D2E35"/>
<path d="M9.68164 6.24392V10.6396C11.4222 10.6396 12.8332 9.22864 12.8332 7.48806V5.89729H20.895C21.0082 5.89729 21.1206 5.89353 21.232 5.88602C24.3692 5.67385 24.1691 0.97496 21.0247 0.97496H14.9507C12.0407 0.97496 9.68164 3.33395 9.68164 6.24392Z" fill="#F78E39"/>
<path d="M18.3827 0.97488C15.5891 0.97488 13.3029 3.14923 13.1251 5.89761H12.8355V7.48788C12.8355 8.35898 12.4825 9.14599 11.9121 9.71647C11.3417 10.2868 10.5546 10.6398 9.68359 10.6398V6.24415C9.68359 3.33428 12.043 0.97488 14.9529 0.97488H18.3827Z" fill="#E27727"/>
<path fill-rule="evenodd" clip-rule="evenodd" d="M8.86914 10.6396C8.86914 11.0884 9.23291 11.4521 9.68164 11.4521C11.871 11.4521 13.6457 9.67737 13.6457 7.48806V6.70979H20.895C21.0262 6.70979 21.1568 6.70544 21.2867 6.69667L21.2869 6.69666C22.2901 6.62881 23.0806 6.19093 23.6018 5.53423C24.1112 4.89228 24.3284 4.08697 24.2957 3.31652C24.2302 1.77059 23.1173 0.16246 21.0247 0.16246H14.9507C11.592 0.16246 8.86914 2.8852 8.86914 6.24392V10.6396ZM10.4941 9.68218V6.24392C10.4941 3.7827 12.4894 1.78746 14.9507 1.78746H21.0247C22.0766 1.78746 22.6359 2.52877 22.6722 3.38534C22.6905 3.81612 22.566 4.22532 22.3289 4.52408C22.1035 4.80808 21.7426 5.0371 21.1774 5.07536M10.4941 9.68218C11.3855 9.35199 12.0207 8.49422 12.0207 7.48806V5.89729C12.0207 5.44856 12.3845 5.08479 12.8332 5.08479H20.895C20.9902 5.08479 21.0843 5.08163 21.1772 5.07537" fill="#2D2E35"/>
<path fill-rule="evenodd" clip-rule="evenodd" d="M16.916 10.4314C17.3647 10.4314 17.7285 10.0676 17.7285 9.6189V8.17813C17.7285 7.7294 17.3647 7.36563 16.916 7.36563C16.4673 7.36563 16.1035 7.7294 16.1035 8.17813V9.6189C16.1035 10.0676 16.4673 10.4314 16.916 10.4314Z" fill="#2D2E35"/>
<path fill-rule="evenodd" clip-rule="evenodd" d="M19.4375 10.4314C19.8862 10.4314 20.25 10.0676 20.25 9.6189V8.17813C20.25 7.7294 19.8862 7.36563 19.4375 7.36563C18.9888 7.36563 18.625 7.7294 18.625 8.17813V9.6189C18.625 10.0676 18.9888 10.4314 19.4375 10.4314Z" fill="#2D2E35"/>
<path d="M20.2227 29.8832C20.2227 31.3376 19.6326 32.6558 18.68 33.6085C18.3295 33.9589 17.9305 34.2595 17.4937 34.5002V48.2213C17.4937 49.6239 16.3572 50.7604 14.9546 50.7604C13.552 50.7604 12.4155 49.6239 12.4155 48.2213V34.5012C10.7885 33.6044 9.68555 31.8728 9.68555 29.8832H20.2227Z" fill="#5C5E70"/>
<path d="M15.8576 16.9C13.3774 17.3275 11.4904 19.4898 11.4904 22.0918V29.8827H9.68555V22.0918C9.68555 19.1821 12.0449 16.8228 14.9546 16.8228C15.2624 16.8228 15.5651 16.8492 15.8576 16.9Z" fill="#9DC7FB"/>
<path d="M15.8576 50.5948C15.5773 50.7015 15.2726 50.7604 14.9546 50.7604C13.5521 50.7604 12.4155 49.6239 12.4155 48.2213V34.5012C10.7886 33.6044 9.68555 31.8728 9.68555 29.8832H11.4904C11.4904 31.8728 12.5933 33.6044 14.2204 34.5012V48.2213C14.2204 49.306 14.9009 50.2323 15.8576 50.5948Z" fill="#3B3D4C"/>
<path fill-rule="evenodd" clip-rule="evenodd" d="M11.603 48.2213C11.603 50.0726 13.1033 51.5729 14.9546 51.5729C16.8059 51.5729 18.3062 50.0726 18.3062 48.2213V34.9576C18.6479 34.7315 18.9655 34.472 19.2545 34.1831L19.2546 34.183C20.3533 33.0841 21.0352 31.5616 21.0352 29.8832V22.0923C21.0352 18.734 18.3133 16.0108 14.9546 16.0108C11.5961 16.0108 8.87305 18.7338 8.87305 22.0923V29.8832C8.87305 32.0047 9.95981 33.871 11.603 34.9585V48.2213ZM14.9546 49.9479C14.0008 49.9479 13.228 49.1752 13.228 48.2213V34.5012C13.228 34.2052 13.067 33.9326 12.8078 33.7897C11.4294 33.0299 10.498 31.5648 10.498 29.8832V22.0923C10.498 19.6313 12.4936 17.6358 14.9546 17.6358C17.4154 17.6358 19.4102 19.6311 19.4102 22.0923V29.8832C19.4102 31.1135 18.9119 32.2274 18.1056 33.0339C18.1055 33.0339 18.1055 33.034 18.1055 33.034M18.1055 33.034C17.8087 33.3306 17.471 33.585 17.1015 33.7886C16.8422 33.9315 16.6812 34.2041 16.6812 34.5002V48.2213C16.6812 49.1752 15.9085 49.9479 14.9546 49.9479" fill="#2D2E35"/>
<path fill-rule="evenodd" clip-rule="evenodd" d="M6.03954 47.6858C5.50658 47.6858 4.98514 47.4421 4.64717 46.9834C4.08203 46.2167 4.24495 45.1358 5.01337 44.5689C5.01346 44.5688 5.01327 44.569 5.01337 44.5689L9.44545 41.3037C9.59106 41.1964 9.69672 41.0436 9.74568 40.8695L10.0819 39.6741C10.2033 39.2421 9.95163 38.7935 9.51966 38.672C9.08768 38.5505 8.63902 38.8022 8.51754 39.2342L8.25692 40.1609L4.04952 43.2606C2.55946 44.3594 2.24085 46.4575 3.33895 47.9474M3.33895 47.9474C3.99629 48.8394 5.01275 49.3108 6.03954 49.3108C6.72994 49.3108 7.42696 49.0984 8.02531 48.658L12.8967 45.0675C13.2579 44.8012 13.3349 44.2926 13.0687 43.9314C12.8024 43.5702 12.2938 43.4932 11.9325 43.7594L7.06206 47.3493C7.06203 47.3493 7.06209 47.3493 7.06206 47.3493C6.75246 47.5772 6.39541 47.6858 6.03954 47.6858" fill="#2D2E35"/>
<path fill-rule="evenodd" clip-rule="evenodd" d="M9.90706 37.3034C10.339 37.425 10.7877 37.1733 10.9093 36.7414L11.7939 33.598C11.9154 33.1661 11.6638 32.7174 11.2319 32.5958C10.7999 32.4742 10.3512 32.7259 10.2297 33.1578L9.34504 36.3012C9.22348 36.7331 9.4751 37.1818 9.90706 37.3034Z" fill="#2D2E35"/>
<path d="M18.1367 24.0855L19.3225 25.6664L23.368 25.0744C24.7556 24.8716 26.0449 25.8316 26.2479 27.2191C26.4509 28.6066 25.4908 29.896 24.1033 30.099L18.5644 30.9096C18.4415 30.9276 18.3184 30.9364 18.1964 30.9364C17.4045 30.9364 16.6491 30.5655 16.1655 29.9208L14.0742 27.1324" fill="#FECEC8"/>
<path d="M24.1035 30.0995L18.5643 30.91C18.4414 30.9273 18.3185 30.9364 18.1966 30.9364C17.4045 30.9364 16.6498 30.5657 16.1654 29.9208L14.0742 27.1329L14.8552 26.5469L16.1654 28.2948C16.6498 28.9397 17.4045 29.3104 18.1966 29.3104C18.3185 29.3104 18.4414 29.3012 18.5643 29.283L24.1035 28.4725C25.0795 28.3293 25.8453 27.6478 26.1419 26.7734C26.1896 26.9166 26.2262 27.0648 26.2485 27.2192C26.4516 28.6066 25.4909 29.8964 24.1035 30.0995Z" fill="#FEC0B7"/>
<path fill-rule="evenodd" clip-rule="evenodd" d="M15.5153 30.4083C16.1536 31.2594 17.1508 31.7489 18.1962 31.7489C18.3574 31.7489 18.5195 31.7372 18.6811 31.7137L24.2207 30.9031C26.0522 30.6349 27.3196 28.9329 27.0516 27.1015C26.7836 25.27 25.0817 24.0027 23.2502 24.2706L19.6824 24.7927L16.4196 20.4423C16.1503 20.0833 15.6411 20.0105 15.2821 20.2798C14.9231 20.549 14.8503 21.0583 15.1196 21.4173L18.6721 26.154C18.8507 26.3922 19.1452 26.5136 19.4398 26.4705L23.4853 25.8785C23.4854 25.8785 23.4853 25.8785 23.4853 25.8785C24.4291 25.7405 25.3057 26.3934 25.4437 27.3368C25.5818 28.2802 24.9289 29.157 23.9854 29.2952C23.9854 29.2952 23.9855 29.2952 23.9854 29.2952L18.4472 30.1057C18.4471 30.1057 18.4473 30.1056 18.4472 30.1057C18.3631 30.1179 18.2789 30.1239 18.1962 30.1239C17.6576 30.1239 17.144 29.8716 16.8153 29.4333L12.3571 23.4891C12.0878 23.1301 11.5786 23.0574 11.2196 23.3266C10.8606 23.5959 10.7878 24.1052 11.0571 24.4641L15.5153 30.4083C15.5153 30.4083 15.5153 30.4083 15.5153 30.4083Z" fill="#2D2E35"/>
<path fill-rule="evenodd" clip-rule="evenodd" d="M13.3859 27.5692C13.6513 27.9311 14.1598 28.0092 14.5216 27.7438L18.6165 24.7402C18.9784 24.4748 19.0565 23.9664 18.7911 23.6045C18.5257 23.2427 18.0172 23.1645 17.6554 23.4299L13.5605 26.4335C13.1987 26.6989 13.1205 27.2074 13.3859 27.5692Z" fill="#2D2E35"/>
<path fill-rule="evenodd" clip-rule="evenodd" d="M8.87305 29.8827C8.87305 30.3314 9.23682 30.6952 9.68555 30.6952H16.1655C16.6143 30.6952 16.978 30.3314 16.978 29.8827C16.978 29.434 16.6143 29.0702 16.1655 29.0702H9.68555C9.23682 29.0702 8.87305 29.434 8.87305 29.8827Z" fill="#2D2E35"/>
</svg>
