<svg width="53" height="52" viewBox="0 0 53 52" fill="none" xmlns="http://www.w3.org/2000/svg">
<g clip-path="url(#clip0_799_547)">
<path d="M46.5739 4.64794L46.7461 4.62194C47.5428 4.65028 48.2848 5.20379 48.3372 6.22856L48.3428 6.92172C48.3544 7.80816 48.7008 8.76935 49.4452 9.25106C50.0478 9.64116 50.7763 9.35526 50.7763 8.63742L50.8222 8.5781V4.47142C50.8222 2.69926 49.0543 1.47117 47.3936 2.08958L47.0781 2.20699L46.0352 2.83759L46.5739 4.64794Z" fill="#BC7C63"/>
<path d="M50.4418 8.43947C49.6975 7.95776 49.2433 7.13572 49.2317 6.24928L49.2183 5.23213C49.21 4.60122 48.6874 4.03887 48.0746 3.81787C47.7519 3.70148 47.4927 3.45529 47.3849 3.12948L47.0799 2.20709L45.8652 2.65935L46.619 4.79318L46.7615 4.77378C47.5581 4.80222 48.1922 5.45079 48.2027 6.24775L48.2161 7.2649C48.2277 8.15134 48.6819 8.97339 49.4262 9.4551C50.0289 9.8451 50.824 9.41254 50.824 8.6947L50.8241 8.57821C50.6941 8.56226 50.564 8.51849 50.4418 8.43947Z" fill="#AC6F58"/>
<path d="M39.7344 3.40237C40.5641 0.866559 43.0383 0.806129 43.0383 0.806129L43.6623 0.844114C45.4289 1.23025 46.7601 2.93356 46.7601 4.97659C46.7601 6.08078 46.3712 7.08594 45.7349 7.8374L39.7344 3.40237Z" fill="#BC7C63"/>
<path d="M40.8438 3.4023C41.323 2.10322 42.3779 1.12497 43.6632 0.844044C43.4169 0.790114 43.1623 0.761677 42.9015 0.761677C41.2797 0.761677 39.8914 1.85429 39.3203 3.4023L39.9384 3.71887C40.1233 3.50051 40.8438 3.4023 40.8438 3.4023Z" fill="#AC6F58"/>
<path d="M44.5781 7.46484V12.6445H41.5312V7.66797L44.5781 7.46484Z" fill="#FEC0B7"/>
<path d="M45.6397 7.67548L43.7084 4.54066C43.2704 3.83297 42.4974 3.40234 41.6651 3.40234H39.3477H39.321C39.1417 3.88873 39.043 4.42 39.043 4.97656C39.043 9.08984 39.957 9.19141 42.9023 9.19141C44.0227 9.19141 45.0315 8.66998 45.7365 7.83738L45.6397 7.67548Z" fill="#FECEC8"/>
<path d="M32.3581 20.0122C30.3388 20.0122 28.877 18.373 28.877 16.3538L28.8861 16.25C28.8861 15.9696 29.1135 15.7422 29.3939 15.7422L30.1048 15.5391H35.4877C35.7681 15.5391 35.9955 15.7665 35.9955 16.0469V16.6563C35.9955 17.498 35.7107 18.2729 35.2327 18.891C34.564 19.7556 33.5357 20.0122 32.3581 20.0122Z" fill="#5C5E70"/>
<path d="M30.1035 15.5391H29.1895C28.909 15.5391 28.6816 15.7665 28.6816 16.0469V16.6563C28.6816 18.6756 30.3186 20.3125 32.3379 20.3125C33.5156 20.3125 34.5627 19.7555 35.2314 18.8909L33.4551 18.8906C31.6041 18.8906 30.1035 17.3901 30.1035 15.5391Z" fill="#3B3D4C"/>
<path d="M44.2918 46.7698L43.8644 47.9248L40.1889 47.8603L39.6895 27.9808H45.9863C46.9562 29.2681 47.3364 30.9057 47.0326 32.4885L44.2918 46.7698Z" fill="white"/>
<path d="M41.2896 45.7789L40.8719 29.1568L39.3848 27.98L39.8926 48.191L40.1801 48.5702H43.7218L44.019 48.191L44.2919 46.7691H42.3049C41.7539 46.7691 41.3035 46.3298 41.2896 45.7789Z" fill="#E6E6E6"/>
<path d="M43.489 51.0741L37.1035 51.0859C36.9352 51.0859 36.7988 50.7812 36.7988 50.7812C36.7988 49.1499 38.326 48.3884 38.326 48.3884C38.6418 48.2616 38.9865 48.1914 39.3476 48.1914H44.0195V49.7148L43.7936 50.7694C43.7936 50.9377 43.6572 51.0741 43.489 51.0741Z" fill="#FAE073"/>
<path d="M38.6854 49.7148C38.4293 49.7148 38.089 49.5646 38.1486 49.0859C38.1486 49.0859 38.1993 48.7042 38.3261 48.3883C37.3177 48.7936 36.6055 49.7804 36.6055 50.9336C36.6055 51.1019 36.7419 51.2383 36.9102 51.2383H43.7148C43.8832 51.2383 44.0195 51.1019 44.0195 50.9336V49.7148H38.6854Z" fill="#E7CD61"/>
<path d="M47.3104 29.2003L38.6582 29.2046V17.4623C38.6582 16.3634 38.8977 15.1608 39.6436 14.3538L41.0288 12.7799L41.5295 12.2383H44.5764L45.6713 13.3154C46.9525 14.5755 47.674 16.2972 47.674 18.0942V27.9805L47.3104 29.2003Z" fill="#FAE073"/>
<path d="M40.9707 27.9805C40.4099 27.9805 39.9551 27.5257 39.9551 26.9648V15.7755C39.9551 14.6767 40.283 13.5868 41.0287 12.7799L39.5917 14.3347C38.8459 15.1416 38.4316 16.2001 38.4316 17.2989V28.9961C38.4316 29.2766 38.659 29.5039 38.9395 29.5039H47.166C47.4465 29.5039 47.6738 29.2766 47.6738 28.9961V27.9805H40.9707Z" fill="#E7CD61"/>
<path d="M36.4295 22.8905L32.0908 22.9531C30.7905 22.9531 29.7188 22.1085 29.4368 20.8938C29.3631 20.5756 29.627 20.5653 29.627 20.5653L30.4453 20.3125H35.7926L36.4295 22.8905Z" fill="#FECEC8"/>
<path d="M32.8466 21.7344C31.8113 21.7344 30.9113 21.1595 30.4448 20.3125H29.6553C29.3288 20.3125 29.086 20.6167 29.1598 20.9349C29.4417 22.1496 30.5306 23.0547 31.831 23.0547H36.0966V21.7344H32.8466Z" fill="#FEC0B7"/>
<path d="M41.4732 23.9476H36.676C36.3955 23.9476 36.1682 23.7203 36.1682 23.4398L36.1055 20.8338L37.2145 20.313H40.6862C40.854 20.313 41.2009 20.2161 41.2015 20.0482L41.2075 14.8438C41.212 13.937 41.6157 12.5883 42.4374 12.3313C42.6322 12.2704 42.8395 12.2377 43.0545 12.2388C44.1762 12.2445 45.0811 13.1584 45.0756 14.2802L45.0404 21.2429C45.0373 21.8748 44.8479 22.4623 44.5247 22.9538C43.9618 23.8102 42.574 23.9476 41.4732 23.9476Z" fill="white"/>
<path d="M42.4085 19.2L42.4367 12.3308C41.615 12.5879 41.0169 13.3526 41.0124 14.2594L40.9902 20.009C40.9901 20.0312 40.987 20.1339 40.9051 20.219C40.8175 20.3102 40.7055 20.3125 40.6855 20.3125H41.2913C41.9065 20.3125 42.4059 19.8151 42.4085 19.2Z" fill="#E6E6E6"/>
<path d="M37.2129 21.4297V20.3125H35.791V23.8672C35.791 24.1477 36.0184 24.375 36.2988 24.375H41.8905C42.9912 24.375 43.9602 23.8098 44.5231 22.9533L38.7363 22.9531C37.895 22.9531 37.2129 22.271 37.2129 21.4297Z" fill="#E6E6E6"/>
<path d="M14.4648 21.1758L11.0117 21.8867V16.707H14.4648V21.1758Z" fill="#FEC0B7"/>
<path d="M7.96484 13.0198C7.96484 15.807 10.0338 18.0665 12.5859 18.0665C16.1126 18.0665 17.207 17.945 17.207 13.0198C17.207 10.2326 15.1381 7.97315 12.5859 7.97315C10.0338 7.97315 7.96484 10.2326 7.96484 13.0198Z" fill="#FECEC8"/>
<path d="M10.1487 13.7109H8.11738C7.21998 13.7109 6.67773 13.2132 6.67773 12.3157C6.67773 11.2907 7.71093 10.7164 7.71093 10.7164C7.84093 10.6829 7.97692 10.6641 8.11738 10.6641H10.1487C11.0461 10.6641 11.7737 11.3916 11.7737 12.2891C11.7737 12.3579 11.7687 12.4257 11.7603 12.4923C11.7603 12.4923 11.3247 13.7109 10.1487 13.7109Z" fill="#E6E6E6"/>
<path d="M7.71094 11.1719L7.71063 10.7164C7.01016 10.897 6.49219 11.5321 6.49219 12.2891C6.49219 13.1866 7.21968 13.9141 8.11719 13.9141H10.1484C10.9769 13.9141 11.6599 13.2937 11.76 12.4923L9.03125 12.4922C8.30193 12.4922 7.71094 11.9011 7.71094 11.1719Z" fill="#D5D3D3"/>
<path d="M9.68552 29.9782L6.03516 32.2083V25.1368C6.03516 24.3296 6.45989 23.2628 7.2538 23.2104C7.28742 23.2082 7.32134 23.2071 7.35547 23.2071C8.25298 23.2071 8.98047 23.9346 8.98047 24.8321L9.68552 29.9782Z" fill="#3B3D4C"/>
<path d="M7.25391 32.5508L7.2537 23.2104C6.45999 23.2629 5.83203 23.9234 5.83203 24.7305V32.5541L7.25391 32.5508Z" fill="#3B3D4C"/>
<path d="M23.3432 47.7587L30.1063 47.6841C30.1063 47.2462 30.3081 46.8324 30.1255 46.4653C29.6768 45.5624 28.7453 44.9419 27.6688 44.9419H27.0594L25.0525 44.5357L23.3086 44.7074L23.3432 47.7587Z" fill="white"/>
<path d="M24.7227 44.9414L24.1564 44.5352L22.9961 44.9414V47.9883L23.3069 48.3101L30.4102 48.293V47.6836C30.4102 47.2457 30.3072 46.8319 30.1246 46.4648L26.246 46.4649C25.4046 46.4649 24.7227 45.7828 24.7227 44.9414Z" fill="#E6E6E6"/>
<path d="M27.1907 43.4182L22.997 43.8083L21.6426 34.1166L23.3625 33.1604H25.3078C26.7961 33.1604 27.9653 34.4347 27.8374 35.9176L27.1907 43.4182Z" fill="#BC7C63"/>
<path d="M27.1905 43.418C26.2166 43.418 25.4463 42.579 25.546 41.6101C25.5896 41.1861 25.6121 40.7558 25.6121 40.3203C25.6121 37.6835 24.9983 35.1777 23.6062 33.1602L23.3328 32.9985L21.0938 32.7282L21.3718 36.7212V43.9194V44.9414H24.731H27.0593L27.1906 43.418H27.1905Z" fill="#AC6F58"/>
<path d="M20.9648 40.3203C20.9648 35.9732 17.4409 32.4492 13.0937 32.4492C8.74667 32.4492 5.22266 35.9732 5.22266 40.3203C5.22266 44.6674 8.74667 48.1914 13.0937 48.1914C17.4409 48.1914 20.9648 44.6674 20.9648 40.3203Z" fill="white"/>
<path d="M13.0937 48.1914C8.74657 48.1914 5.22266 44.6674 5.22266 40.3203C5.22266 35.9732 8.74657 32.4492 13.0937 32.4492C17.4408 32.4492 20.9648 35.9732 20.9648 40.3203C20.9648 44.6674 17.4408 48.1914 13.0937 48.1914ZM13.0937 29.4023C10.5494 29.4023 8.21489 30.2809 6.35213 31.7318C2.58203 34.6684 2.58203 38.3799 2.58203 40.3203C2.58203 46.3502 7.06388 50.832 13.0937 50.832C17.9746 50.832 21.0543 47.7919 21.0543 47.7919C22.8882 45.8388 24.0117 43.2109 24.0117 40.3203C24.0117 34.2904 19.1235 29.4023 13.0937 29.4023Z" fill="#5C5E70"/>
<path d="M14.3125 50.1211C8.28263 50.1211 3.39453 45.233 3.39453 39.2031C3.39453 36.8355 3.92377 34.5039 5.30919 32.6548C3.35675 34.5969 2.17578 37.3411 2.17578 40.3203C2.17578 46.3502 7.06388 51.2383 13.0937 51.2383C16.2329 51.2383 19.0627 49.9131 21.0543 47.7919C19.1981 49.251 16.8567 50.1211 14.3125 50.1211Z" fill="#3B3D4C"/>
<path d="M15.6836 40.3203C15.6836 38.89 14.5242 37.7305 13.0938 37.7305C12.6935 37.7305 12.3143 37.8215 11.9759 37.9836C11.1053 38.4009 10.8086 39.2903 10.8086 40.3203C10.8086 41.7506 11.6634 42.6055 13.0938 42.6055C14.1238 42.6055 15.0132 42.3089 15.4305 41.4383C15.5927 41.0998 15.6836 40.7207 15.6836 40.3203Z" fill="#5C5E70"/>
<path d="M14.3125 41.6914C12.8821 41.6914 11.7227 40.5319 11.7227 39.1016C11.7227 38.7012 11.8136 38.322 11.9757 37.9836C11.1052 38.4009 10.5039 39.2904 10.5039 40.3203C10.5039 41.7506 11.6633 42.9102 13.0937 42.9102C14.1237 42.9102 15.0131 42.3089 15.4304 41.4383C15.092 41.6004 14.7128 41.6914 14.3125 41.6914Z" fill="#3B3D4C"/>
<path d="M18.2227 32.8555V30.3164L19.7462 30.0117H20.457C21.6432 30.0117 22.6759 30.6677 23.2127 31.6366L23.3008 32.8555H18.2227Z" fill="#FECEC8"/>
<path d="M19.7461 30.0117H17.7148V33.1602H23.6055C23.6055 32.6075 23.4628 32.0881 23.2126 31.6366L21.371 31.6367C20.4736 31.6367 19.7461 30.9092 19.7461 30.0117Z" fill="#FEC0B7"/>
<path d="M17.1055 29.6055H9.38672V25.2383C9.38672 23.6399 9.73305 22.1347 11.0117 21.1758H14.4648C16.152 22.798 17.1055 25.0376 17.1055 27.3781V29.6055Z" fill="#BDD8FC"/>
<path d="M12.3323 32.8555L17.8978 32.7961L18.2244 31.6367V29.724C18.2244 29.4436 17.997 29.2162 17.7166 29.2162H13.3594C13.1917 29.2162 13.0555 29.0807 13.0547 28.9131L13.026 23.1883C13.0204 22.0713 12.1102 21.1702 10.9931 21.1758C10.8241 21.1767 10.6604 21.1993 10.5037 21.2392C9.62442 21.4627 9.28043 22.9715 9.28521 23.9197L9.28541 29.8087C9.28551 31.4914 10.6496 32.8555 12.3323 32.8555Z" fill="#BDD8FC"/>
<path d="M13.0432 31.6367C11.6409 31.6367 10.5042 30.5 10.5041 29.0978L10.5036 21.2392C9.6246 21.4628 8.97572 22.2607 8.98049 23.2088L8.9807 30.1134C8.9807 31.7961 10.3449 33.1602 12.0276 33.1602H18.2244V31.6367H13.0432Z" fill="#9DC7FB"/>
<path d="M30.1025 50.2385L23.8164 50.2224C23.5361 50.2224 23.3086 49.9951 23.3086 49.7146V48.3885L24.3172 47.988H30.6649C31.3661 47.988 31.9344 48.5564 31.9344 49.2575C31.9344 49.2746 31.9333 49.2915 31.9327 49.3083C31.906 49.9859 30.7866 50.2385 30.1025 50.2385Z" fill="#5C5E70"/>
<path d="M24.8242 49.3086C24.5437 49.3086 24.3164 49.0813 24.3164 48.8008L24.3163 47.9883H22.9961V50.0195C22.9961 50.3 23.2234 50.5273 23.5039 50.5273H30.6641C31.348 50.5273 31.905 49.986 31.9317 49.3086H24.8242Z" fill="#3B3D4C"/>
<path fill-rule="evenodd" clip-rule="evenodd" d="M27.8711 16.6563C27.8711 19.1243 29.8717 21.125 32.3398 21.125C34.8078 21.125 36.8086 19.1244 36.8086 16.6563V15.5391C36.8086 15.0903 36.4448 14.7266 35.9961 14.7266H28.6836C28.2349 14.7266 27.8711 15.0903 27.8711 15.5391V16.6563ZM32.3398 19.5C30.7692 19.5 29.4961 18.2269 29.4961 16.6563V16.3516H35.1836V16.6563C35.1836 18.2269 33.9104 19.5 32.3398 19.5Z" fill="#2D2E35"/>
<path fill-rule="evenodd" clip-rule="evenodd" d="M39.6695 39.298C40.1181 39.2867 40.4726 38.9139 40.4613 38.4653L40.2361 29.4996C40.2248 29.051 39.852 28.6965 39.4034 28.7077C38.9548 28.719 38.6003 29.0918 38.6116 29.5404L38.8369 38.5061C38.8481 38.9547 39.2209 39.3092 39.6695 39.298Z" fill="#2D2E35"/>
<path fill-rule="evenodd" clip-rule="evenodd" d="M39.0807 48.2118C39.0918 48.6525 39.4522 49.0039 39.893 49.0039H44.0192C44.4089 49.0039 44.7437 48.7272 44.8172 48.3445L47.831 32.6414L47.831 32.6413C48.0482 31.5092 47.9593 30.3525 47.5904 29.2851C47.4439 28.8609 46.9812 28.6359 46.5571 28.7825C46.133 28.929 45.908 29.3917 46.0545 29.8158C46.3314 30.6171 46.3981 31.4853 46.2351 32.3351C46.2351 32.3351 46.2351 32.3351 46.2351 32.3351L43.3479 47.3789H40.6853L40.5505 42.0179C40.5393 41.5693 40.1665 41.2148 39.7179 41.2261C39.2693 41.2374 38.9148 41.6102 38.926 42.0588L39.0807 48.2118Z" fill="#2D2E35"/>
<path fill-rule="evenodd" clip-rule="evenodd" d="M35.793 50.9336C35.793 51.5506 36.2931 52.0508 36.9102 52.0508H43.7148C44.3319 52.0508 44.832 51.5506 44.832 50.9336V48.1914C44.832 47.7427 44.4683 47.3789 44.0195 47.3789C43.5708 47.3789 43.207 47.7427 43.207 48.1914V50.4258H37.4855C37.7084 49.6064 38.4576 49.0039 39.3477 49.0039H39.8931C40.3419 49.0039 40.7056 48.6401 40.7056 48.1914C40.7056 47.7427 40.3419 47.3789 39.8931 47.3789H39.3477C37.3844 47.3789 35.793 48.9704 35.793 50.9336Z" fill="#2D2E35"/>
<path fill-rule="evenodd" clip-rule="evenodd" d="M37.6211 29.5039C37.6211 29.9526 37.9849 30.3164 38.4336 30.3164H47.6758C48.1245 30.3164 48.4883 29.9526 48.4883 29.5039V25.2383C48.4883 24.7895 48.1245 24.4258 47.6758 24.4258C47.227 24.4258 46.8633 24.7895 46.8633 25.2383V28.6914H39.2461V24.4053C39.2461 23.9565 38.8823 23.5928 38.4336 23.5928C37.9849 23.5928 37.6211 23.9565 37.6211 24.4053V29.5039Z" fill="#2D2E35"/>
<path fill-rule="evenodd" clip-rule="evenodd" d="M47.6758 22.4961C48.1245 22.4961 48.4883 22.1323 48.4883 21.6836V18.0942C48.4883 16.0794 47.6793 14.149 46.2428 12.7361L45.1479 11.659C44.9959 11.5096 44.7913 11.4258 44.5781 11.4258H41.5312C41.3047 11.4258 41.0884 11.5204 40.9346 11.6868L38.9969 13.7831L38.9968 13.7832C38.1123 14.7403 37.6211 15.9957 37.6211 17.2989V20.2822C37.6211 20.731 37.9849 21.0947 38.4336 21.0947C38.8823 21.0947 39.2461 20.731 39.2461 20.2822V17.2989C39.2461 16.4046 39.5832 15.543 40.1902 14.8861C40.1902 14.8861 40.1902 14.8861 40.1903 14.8861L41.8867 13.0508H44.2455L45.1033 13.8946L45.1033 13.8946C46.2292 15.0021 46.8633 16.5151 46.8633 18.0942V21.6836C46.8633 22.1323 47.227 22.4961 47.6758 22.4961Z" fill="#2D2E35"/>
<path fill-rule="evenodd" clip-rule="evenodd" d="M34.9785 24.375C34.9785 24.8237 35.3423 25.1875 35.791 25.1875H41.8903C44.089 25.1875 45.7845 23.4072 45.7954 21.2465L45.7954 21.2424C45.7954 21.028 45.8033 20.7259 45.8128 20.3618C45.8427 19.2119 45.8887 17.4434 45.754 15.8632C45.6653 14.8236 45.4931 13.7643 45.1418 12.9563C44.9649 12.5493 44.7182 12.1483 44.3607 11.8547C43.9814 11.5433 43.5104 11.3818 42.9807 11.429C41.9742 11.5186 41.3406 12.2045 40.9654 12.9599C40.5963 13.7028 40.4066 14.6354 40.3035 15.5424C40.1464 16.9251 40.1744 18.4548 40.1964 19.5H35.791C35.3423 19.5 34.9785 19.8638 34.9785 20.3125V24.375ZM36.6035 23.5625V21.125H41.022C41.4707 21.125 41.8345 20.7612 41.8345 20.3125C41.8345 20.0697 41.8285 19.781 41.8219 19.4595C41.8002 18.4127 41.7713 17.018 41.9181 15.7259C42.0139 14.8831 42.1774 14.1727 42.4207 13.6827C42.6579 13.2051 42.8959 13.068 43.1248 13.0476C43.2127 13.0397 43.2653 13.0579 43.3294 13.1106C43.4153 13.181 43.5317 13.3285 43.6516 13.6042C43.8939 14.1615 44.0498 15.0042 44.1348 16.0013C44.2608 17.4784 44.2196 19.0724 44.1898 20.2232C44.1794 20.6238 44.1705 20.9706 44.1704 21.2402C44.1704 21.2409 44.1704 21.2417 44.1704 21.2424H44.9829L44.1704 21.2383C44.1704 21.2389 44.1704 21.2396 44.1704 21.2402C44.1629 22.5439 43.1564 23.5625 41.8903 23.5625H36.6035Z" fill="#2D2E35"/>
<path fill-rule="evenodd" clip-rule="evenodd" d="M40.9381 9.91506C41.5076 9.99912 42.1784 10.0039 42.9023 10.0039C45.5484 10.0039 47.5742 7.68425 47.5742 4.97656C47.5742 2.26887 45.5484 -0.0507803 42.9023 -0.0507803C40.2562 -0.0507803 38.2305 2.26889 38.2305 4.97656C38.2305 6.0236 38.2875 6.87208 38.439 7.54804C38.592 8.23115 38.8566 8.80721 39.3232 9.22911C39.7883 9.64965 40.3577 9.82938 40.9381 9.91506ZM40.0247 7.19281C39.9127 6.69286 39.8555 5.98616 39.8555 4.97656C39.8555 3.02861 41.2855 1.57422 42.9023 1.57422C44.5191 1.57422 45.9492 3.02863 45.9492 4.97656C45.9492 6.9245 44.5191 8.37891 42.9023 8.37891C42.1537 8.37891 41.6057 8.371 41.1754 8.30748C40.756 8.24557 40.5447 8.14283 40.4131 8.02382C40.283 7.90617 40.1351 7.6856 40.0247 7.19281Z" fill="#2D2E35"/>
<path fill-rule="evenodd" clip-rule="evenodd" d="M41.5312 13.0508C41.98 13.0508 42.3438 12.687 42.3438 12.2383V9.29297C42.3438 8.84424 41.98 8.48047 41.5312 8.48047C41.0825 8.48047 40.7188 8.84424 40.7188 9.29297V12.2383C40.7188 12.687 41.0825 13.0508 41.5312 13.0508Z" fill="#2D2E35"/>
<path fill-rule="evenodd" clip-rule="evenodd" d="M44.5781 13.0508C45.0269 13.0508 45.3906 12.687 45.3906 12.2383V9.08984C45.3906 8.64111 45.0269 8.27734 44.5781 8.27734C44.1294 8.27734 43.7656 8.64111 43.7656 9.08984V12.2383C43.7656 12.687 44.1294 13.0508 44.5781 13.0508Z" fill="#2D2E35"/>
<path fill-rule="evenodd" clip-rule="evenodd" d="M28.2773 20.3125C28.2773 22.2757 29.8688 23.8672 31.832 23.8672H35.793C36.2417 23.8672 36.6055 23.5034 36.6055 23.0547C36.6055 22.606 36.2417 22.2422 35.793 22.2422H31.832C31.0565 22.2422 30.3879 21.7848 30.0812 21.125H35.793C36.2417 21.125 36.6055 20.7612 36.6055 20.3125C36.6055 19.8638 36.2417 19.5 35.793 19.5H29.0898C28.6411 19.5 28.2773 19.8638 28.2773 20.3125Z" fill="#2D2E35"/>
<path fill-rule="evenodd" clip-rule="evenodd" d="M49.9425 8.78942C49.964 8.80333 49.9024 8.78922 49.913 8.78942H49.9425ZM49.913 8.78942C49.9264 8.78968 49.9436 8.78624 49.9613 8.77661L49.913 8.78942ZM49.9613 8.77661C49.979 8.76698 49.9913 8.75438 49.9983 8.74299L49.9613 8.77661ZM49.9983 8.74299C50.0039 8.73397 50.01 8.72025 50.01 8.69461L49.9983 8.74299ZM48.9832 10.1372C50.1265 10.8771 51.635 10.0565 51.635 8.69461V4.47144C51.635 2.13286 49.302 0.512074 47.1103 1.32817L45.8104 1.81222C45.3899 1.96881 45.176 2.43665 45.3325 2.85717C45.4891 3.2777 45.957 3.49165 46.3775 3.33506L47.6774 2.85102C48.8073 2.43028 50.01 3.26588 50.01 4.47144V8.69461M49.9425 8.78942C49.4264 8.45542 49.035 7.86895 49.0269 7.25411L49.0135 6.2371C48.9973 5.0069 48.0186 4.0057 46.789 3.96181C46.3406 3.9458 45.964 4.29635 45.948 4.7448C45.932 5.19325 46.2826 5.56976 46.731 5.58577C47.0945 5.59875 47.3839 5.89472 47.3887 6.25843L47.4021 7.27551C47.4173 8.43374 48.0106 9.50782 48.9832 10.1372" fill="#2D2E35"/>
<path fill-rule="evenodd" clip-rule="evenodd" d="M46.0722 8.35882C46.4537 8.12262 46.5716 7.62185 46.3354 7.24031L44.3994 4.113L44.3994 4.11297C43.8131 3.16609 42.7788 2.58985 41.6651 2.58985H39.3477C38.8989 2.58985 38.5352 2.95362 38.5352 3.40235C38.5352 3.85109 38.8989 4.21485 39.3477 4.21485H41.6651C42.216 4.21485 42.7277 4.49986 43.0177 4.96833C43.0177 4.96834 43.0177 4.96835 43.0177 4.96836L44.9537 8.09565C45.1899 8.47719 45.6907 8.59501 46.0722 8.35882Z" fill="#2D2E35"/>
<path fill-rule="evenodd" clip-rule="evenodd" d="M30.9179 16.2417C31.3059 16.0164 31.4379 15.5191 31.2125 15.1311L29.3844 11.9826C29.1591 11.5946 28.6618 11.4626 28.2738 11.688C27.8857 11.9133 27.7538 12.4105 27.9791 12.7986L29.8073 15.947C30.0326 16.3351 30.5298 16.467 30.9179 16.2417Z" fill="#2D2E35"/>
<path fill-rule="evenodd" clip-rule="evenodd" d="M5.83203 32.9559C6.28076 32.9559 6.64453 32.5922 6.64453 32.1434V24.7305C6.64453 24.3379 6.96286 24.0196 7.35547 24.0196C7.80424 24.0196 8.16797 24.3833 8.16797 24.8321C8.16797 25.2808 8.53174 25.6446 8.98047 25.6446C9.4292 25.6446 9.79297 25.2808 9.79297 24.8321C9.79297 23.4858 8.70171 22.3946 7.35547 22.3946C6.06539 22.3946 5.01953 23.4404 5.01953 24.7305V32.1434C5.01953 32.5922 5.3833 32.9559 5.83203 32.9559Z" fill="#2D2E35"/>
<path fill-rule="evenodd" clip-rule="evenodd" d="M17.1061 30.002C17.5548 30.002 17.9186 29.6382 17.9186 29.1895V27.3781C17.9186 24.8166 16.8751 22.3655 15.0286 20.5901C14.8773 20.4446 14.6755 20.3633 14.4655 20.3633H10.998C10.5493 20.3633 10.1855 20.727 10.1855 21.1758C10.1855 21.6245 10.5493 21.9883 10.998 21.9883H14.1287C15.5152 23.4356 16.2936 25.3656 16.2936 27.3781V29.1895C16.2936 29.6382 16.6574 30.002 17.1061 30.002Z" fill="#2D2E35"/>
<path fill-rule="evenodd" clip-rule="evenodd" d="M11.0117 21.9883C11.4605 21.9883 11.8242 21.6245 11.8242 21.1758V17.7993C11.8242 17.3506 11.4605 16.9868 11.0117 16.9868C10.563 16.9868 10.1992 17.3506 10.1992 17.7993V21.1758C10.1992 21.6245 10.563 21.9883 11.0117 21.9883Z" fill="#2D2E35"/>
<path fill-rule="evenodd" clip-rule="evenodd" d="M14.4648 21.9883C14.9136 21.9883 15.2773 21.6245 15.2773 21.1758V18.0327C15.2773 17.584 14.9136 17.2202 14.4648 17.2202C14.0161 17.2202 13.6523 17.584 13.6523 18.0327V21.1758C13.6523 21.6245 14.0161 21.9883 14.4648 21.9883Z" fill="#2D2E35"/>
<path fill-rule="evenodd" clip-rule="evenodd" d="M22.1797 44.9414C22.1797 45.3901 22.5435 45.7539 22.9922 45.7539H27.059C27.4806 45.7539 27.8322 45.4313 27.8684 45.0112L28.6464 35.9871C28.6464 35.9871 28.6464 35.9871 28.6464 35.9871C28.8152 34.0297 27.2719 32.3477 25.3073 32.3477H23.6388C23.1901 32.3477 22.8263 32.7114 22.8263 33.1602C22.8263 33.6089 23.1901 33.9727 23.6388 33.9727H25.3073C26.3193 33.9727 27.1144 34.8392 27.0274 35.8475L27.0274 35.8475L26.3135 44.1289H22.9922C22.5435 44.1289 22.1797 44.4927 22.1797 44.9414Z" fill="#2D2E35"/>
<path fill-rule="evenodd" clip-rule="evenodd" d="M23.8885 38.4747C24.324 38.3668 24.5896 37.9263 24.4817 37.4907C24.0292 35.6641 23.1493 34.0073 21.9553 32.6322C21.6611 32.2934 21.1479 32.2572 20.8091 32.5514C20.4703 32.8456 20.4341 33.3588 20.7283 33.6976C21.7579 34.8834 22.5152 36.3103 22.9044 37.8815C23.0123 38.317 23.4529 38.5827 23.8885 38.4747Z" fill="#2D2E35"/>
<path fill-rule="evenodd" clip-rule="evenodd" d="M13.0935 50.4258C9.6124 50.4258 6.54199 48.6664 4.72333 45.9845C4.47148 45.6131 3.96624 45.5162 3.59485 45.768C3.22346 46.0199 3.12655 46.5251 3.3784 46.8965C5.48654 50.0053 9.05101 52.0508 13.0935 52.0508C19.251 52.0508 24.2997 47.3071 24.7858 41.2742C24.8218 40.827 24.4884 40.4352 24.0412 40.3991C23.5939 40.3631 23.2021 40.6965 23.166 41.1437C22.7474 46.3394 18.3973 50.4258 13.0935 50.4258Z" fill="#2D2E35"/>
<path fill-rule="evenodd" clip-rule="evenodd" d="M2.79032 44.0307C3.22269 43.9106 3.47584 43.4628 3.35576 43.0304C3.11645 42.1688 2.98828 41.2601 2.98828 40.3203C2.98828 36.0958 5.5808 32.4748 9.26478 30.9652C9.68 30.7951 9.87868 30.3206 9.70853 29.9053C9.53838 29.4901 9.06385 29.2914 8.64863 29.4616C4.37559 31.2126 1.36328 35.4137 1.36328 40.3203C1.36328 41.4085 1.51177 42.4634 1.79002 43.4653C1.91011 43.8976 2.35796 44.1508 2.79032 44.0307Z" fill="#2D2E35"/>
<path fill-rule="evenodd" clip-rule="evenodd" d="M13.0938 47.3789C9.1955 47.3789 6.03516 44.2187 6.03516 40.3203C6.03516 37.1969 8.06449 34.5452 10.8788 33.616C11.3049 33.4753 11.5363 33.0159 11.3956 32.5898C11.2549 32.1637 10.7954 31.9323 10.3693 32.073C6.90908 33.2154 4.41016 36.4751 4.41016 40.3203C4.41016 45.1161 8.29805 49.0039 13.0938 49.0039C17.8897 49.0039 21.7773 45.1161 21.7773 40.3203C21.7773 36.8266 19.7142 33.8166 16.7433 32.4389C16.3363 32.2501 15.8532 32.4271 15.6644 32.8342C15.4757 33.2413 15.6526 33.7243 16.0597 33.9131C18.4779 35.0345 20.1523 37.4826 20.1523 40.3203C20.1523 44.2187 16.9922 47.3789 13.0938 47.3789Z" fill="#2D2E35"/>
<path fill-rule="evenodd" clip-rule="evenodd" d="M12.5865 17.254C10.7771 17.254 9.18594 15.823 8.84414 13.8096C8.76903 13.3672 8.34951 13.0695 7.90711 13.1446C7.4647 13.2197 7.16695 13.6392 7.24206 14.0816C7.69651 16.7585 9.87083 18.879 12.5865 18.879C13.4558 18.879 14.2469 18.873 14.915 18.7744C15.594 18.6741 16.2405 18.4665 16.7645 17.9927C17.2899 17.5176 17.5953 16.8629 17.7743 16.0638C17.9518 15.2718 18.0201 14.2698 18.0201 13.0198C18.0201 9.85264 15.6533 7.16054 12.5865 7.16054C10.4745 7.16054 8.6802 8.45208 7.78267 10.2788C7.5848 10.6816 7.75088 11.1685 8.15362 11.3664C8.55637 11.5642 9.04327 11.3982 9.24115 10.9954C9.90179 9.65079 11.1724 8.78554 12.5865 8.78554C14.624 8.78554 16.3951 10.6124 16.3951 13.0198C16.3951 14.2324 16.3266 15.0925 16.1886 15.7085C16.0522 16.3174 15.8636 16.6166 15.6746 16.7874C15.4841 16.9597 15.1957 17.0903 14.6777 17.1668C14.1487 17.2449 13.4805 17.254 12.5865 17.254Z" fill="#2D2E35"/>
<path fill-rule="evenodd" clip-rule="evenodd" d="M5.67969 12.2891C5.67969 13.6353 6.77108 14.7266 8.11719 14.7266H10.1484C11.4947 14.7266 12.5859 13.6353 12.5859 12.2891C12.5859 10.9428 11.4947 9.85156 10.1484 9.85156H8.11719C6.77108 9.85156 5.67969 10.9428 5.67969 12.2891ZM8.11719 13.1016C7.66848 13.1016 7.30469 12.7378 7.30469 12.2891C7.30469 11.8403 7.66848 11.4766 8.11719 11.4766H10.1484C10.5972 11.4766 10.9609 11.8403 10.9609 12.2891C10.9609 12.7378 10.5972 13.1016 10.1484 13.1016H8.11719Z" fill="#2D2E35"/>
<path fill-rule="evenodd" clip-rule="evenodd" d="M22.1836 47.9883C22.1836 48.437 22.5474 48.8008 22.9961 48.8008H30.4102C30.8589 48.8008 31.2227 48.437 31.2227 47.9883V47.6836C31.2227 45.7204 29.6312 44.1289 27.668 44.1289H22.9961C22.5474 44.1289 22.1836 44.4927 22.1836 44.9414V47.9883ZM23.8086 47.1758V45.7539H27.668C28.558 45.7539 29.3072 46.3564 29.5301 47.1758H23.8086Z" fill="#2D2E35"/>
<path fill-rule="evenodd" clip-rule="evenodd" d="M13.1445 48.9023C13.5933 48.9023 13.957 48.5386 13.957 48.0898V42.9696C13.957 42.5208 13.5933 42.1571 13.1445 42.1571C12.6958 42.1571 12.332 42.5208 12.332 42.9696V48.0898C12.332 48.5386 12.6958 48.9023 13.1445 48.9023Z" fill="#2D2E35"/>
<path fill-rule="evenodd" clip-rule="evenodd" d="M13.1445 38.4835C13.5933 38.4835 13.957 38.1198 13.957 37.671V33.2617C13.957 32.813 13.5933 32.4492 13.1445 32.4492C12.6958 32.4492 12.332 32.813 12.332 33.2617V37.671C12.332 38.1198 12.6958 38.4835 13.1445 38.4835Z" fill="#2D2E35"/>
<path fill-rule="evenodd" clip-rule="evenodd" d="M4.5625 40.3203C4.5625 40.769 4.92627 41.1328 5.375 41.1328H10.4549C10.9036 41.1328 11.2674 40.769 11.2674 40.3203C11.2674 39.8716 10.9036 39.5078 10.4549 39.5078H5.375C4.92627 39.5078 4.5625 39.8716 4.5625 40.3203Z" fill="#2D2E35"/>
<path fill-rule="evenodd" clip-rule="evenodd" d="M14.9414 40.3203C14.9414 40.769 15.3052 41.1328 15.7539 41.1328H20.9146C21.3633 41.1328 21.7271 40.769 21.7271 40.3203C21.7271 39.8716 21.3633 39.5078 20.9146 39.5078H15.7539C15.3052 39.5078 14.9414 39.8716 14.9414 40.3203Z" fill="#2D2E35"/>
<path fill-rule="evenodd" clip-rule="evenodd" d="M7.07587 46.3887C7.39317 46.706 7.90761 46.706 8.22491 46.3887L11.8142 42.7994C12.1315 42.4821 12.1315 41.9677 11.8142 41.6504C11.4969 41.3331 10.9825 41.3331 10.6652 41.6504L7.07587 45.2397C6.75857 45.557 6.75857 46.0714 7.07587 46.3887Z" fill="#2D2E35"/>
<path fill-rule="evenodd" clip-rule="evenodd" d="M14.4118 39.0519C14.7291 39.3692 15.2436 39.3692 15.5609 39.0519L19.2122 35.4005C19.5295 35.0832 19.5295 34.5687 19.2122 34.2514C18.8949 33.9341 18.3805 33.9341 18.0632 34.2514L14.4118 37.9029C14.0945 38.2202 14.0945 38.7347 14.4118 39.0519Z" fill="#2D2E35"/>
<path fill-rule="evenodd" clip-rule="evenodd" d="M11.8185 38.9946C12.1358 38.6773 12.1358 38.1628 11.8185 37.8455L8.22492 34.2518C7.90763 33.9345 7.39318 33.9345 7.07587 34.2518C6.75857 34.5691 6.75856 35.0836 7.07586 35.4009L10.6694 38.9946C10.9867 39.3119 11.5012 39.3119 11.8185 38.9946Z" fill="#2D2E35"/>
<path fill-rule="evenodd" clip-rule="evenodd" d="M19.2134 46.3887C19.5307 46.0714 19.5307 45.557 19.2134 45.2397L15.5706 41.5969C15.2533 41.2795 14.7389 41.2795 14.4216 41.5968C14.1043 41.9141 14.1043 42.4286 14.4216 42.7459L18.0643 46.3887C18.3816 46.706 18.896 46.706 19.2134 46.3887Z" fill="#2D2E35"/>
<path fill-rule="evenodd" clip-rule="evenodd" d="M13.0938 42.0977C12.1122 42.0977 11.3164 41.3019 11.3164 40.3203C11.3164 39.3387 12.1122 38.543 13.0938 38.543C14.0754 38.543 14.8711 39.3387 14.8711 40.3203C14.8711 41.3019 14.0754 42.0977 13.0938 42.0977ZM9.69141 40.3203C9.69141 42.1993 11.2147 43.7227 13.0938 43.7227C14.9729 43.7227 16.4961 42.1993 16.4961 40.3203C16.4961 38.4413 14.9729 36.918 13.0938 36.918C11.2147 36.918 9.69141 38.4413 9.69141 40.3203Z" fill="#2D2E35"/>
<path fill-rule="evenodd" clip-rule="evenodd" d="M12.0276 32.3477C10.7936 32.3477 9.79329 31.3474 9.7932 30.1134C9.7932 30.1134 9.7932 30.1133 9.7932 30.1133L9.793 23.2087L9.79299 23.2046C9.78958 22.5363 10.3287 21.9917 10.9972 21.9883C11.6656 21.985 12.2101 22.5241 12.2134 23.1924V23.1924L12.2437 29.2203C12.246 29.6674 12.6091 30.0287 13.0562 30.0287H17.4119V32.3477H12.0276ZM8.1682 30.1134C8.16833 32.2448 9.89615 33.9727 12.0276 33.9727H18.2244C18.6731 33.9727 19.0369 33.6089 19.0369 33.1602V29.2162C19.0369 28.7674 18.6731 28.4037 18.2244 28.4037H13.8646L13.8384 23.1843C13.8384 23.1843 13.8384 23.1843 13.8384 23.1843C13.8306 21.6184 12.5548 20.3555 10.989 20.3633H10.9889C9.42382 20.3713 8.16123 21.6458 8.168 23.2107L8.168 23.2088L8.9805 23.2088L8.16801 23.2129" fill="#2D2E35"/>
<path fill-rule="evenodd" clip-rule="evenodd" d="M17.4102 33.1602C17.4102 33.6089 17.7739 33.9727 18.2227 33.9727H23.6055C24.0542 33.9727 24.418 33.6089 24.418 33.1602C24.418 30.9726 22.6446 29.1992 20.457 29.1992H18.2227C17.7739 29.1992 17.4102 29.563 17.4102 30.0117V33.1602ZM19.0352 32.3477V30.8242H20.457C21.4614 30.8242 22.3178 31.4581 22.6478 32.3477H19.0352Z" fill="#2D2E35"/>
<path fill-rule="evenodd" clip-rule="evenodd" d="M22.1836 50.5273C22.1836 50.9761 22.5474 51.3398 22.9961 51.3398H30.6641C31.814 51.3398 32.7461 50.4076 32.7461 49.2578C32.7461 48.108 31.814 47.1758 30.6641 47.1758H30.4102C29.9614 47.1758 29.5977 47.5395 29.5977 47.9883C29.5977 48.437 29.9614 48.8008 30.4102 48.8008H30.6641C30.9165 48.8008 31.1211 49.0054 31.1211 49.2578C31.1211 49.5102 30.9165 49.7148 30.6641 49.7148H23.8086V47.9883C23.8086 47.5395 23.4448 47.1758 22.9961 47.1758C22.5474 47.1758 22.1836 47.5395 22.1836 47.9883V50.5273Z" fill="#2D2E35"/>
</g>
<defs>
<clipPath id="clip0_799_547">
<rect width="52" height="52" fill="white" transform="translate(0.5)"/>
</clipPath>
</defs>
</svg>
