<svg width="53" height="52" viewBox="0 0 53 52" fill="none" xmlns="http://www.w3.org/2000/svg">
<g clip-path="url(#clip0_799_264)">
<path d="M37.949 41.4461L46.217 36.6346C46.5756 36.4258 46.9709 36.3249 47.3621 36.3249C48.0273 36.3249 48.6813 36.6153 49.1265 37.1613C49.9456 38.1617 49.7683 39.6409 48.7384 40.4213L36.4158 49.7426C35.1342 50.7115 33.5715 51.2361 31.965 51.2361H29.5149C28.538 51.2361 27.5712 51.0415 26.6696 50.6646L17.6111 46.877H10.7244L5.06641 46.8943V37.144H10.7244H13.1083C14.7749 35.4774 17.0355 34.5411 19.3918 34.5411H19.5955C21.9519 34.5411 24.2114 35.4774 25.8781 37.144L26.4017 37.6666H33.1375C34.194 37.6666 35.1933 37.9967 36.0205 38.5733C36.8467 39.1509 37.5008 39.9771 37.8644 40.9683C37.9205 41.1211 37.949 41.2831 37.949 41.4461Z" fill="#FECEC8"/>
<path d="M48.8722 36.897C48.8292 36.935 48.7849 36.9723 48.7384 37.0075L36.4158 46.3289C35.1342 47.2977 33.5715 47.8224 31.965 47.8224H29.5149C28.538 47.8224 27.5712 47.6278 26.6696 47.2508L17.8564 43.5658C17.6945 43.498 17.5207 43.4632 17.3452 43.4632H10.7244L5.06641 43.4805V46.8943L10.7244 46.877H17.6111L26.6696 50.6646C27.5712 51.0415 28.538 51.2361 29.5149 51.2361H31.965C33.5715 51.2361 35.1342 50.7115 36.4158 49.7427L48.7384 40.4213C49.7683 39.6409 49.9456 38.1617 49.1265 37.1613C49.048 37.0651 48.9627 36.9771 48.8722 36.897Z" fill="#FEC0B7"/>
<path d="M10.6827 47.0434V43.5094H10.7247V36.6131C10.7247 35.7217 10.002 34.999 9.11059 34.999H3.35547V49.0205H9.11069C10.0021 49.0205 10.7248 48.2979 10.7248 47.4065V47.0013L10.6827 47.0434Z" fill="#BDD8FC"/>
<path d="M9.11069 44.7571H3.35547V49.021H9.11069C10.0021 49.021 10.7248 48.2985 10.7248 47.407V43.1431C10.7248 44.0346 10.0021 44.7571 9.11069 44.7571Z" fill="#9DC7FB"/>
<path d="M3.35584 51.3317C2.93389 51.3317 2.5918 50.9896 2.5918 50.5677V33.4634C2.5918 33.0414 2.93389 32.6993 3.35584 32.6993C3.7778 32.6993 4.11989 33.0414 4.11989 33.4634V50.5677C4.11989 50.9896 3.7778 51.3317 3.35584 51.3317Z" fill="#9DC7FB"/>
<path d="M41.2102 3.77928C37.1898 -0.241042 30.6716 -0.241042 26.6512 3.77928L26.3911 4.03936L26.1309 3.77928C22.1106 -0.241042 15.5922 -0.241042 11.5719 3.77928C7.55156 7.7996 7.55156 14.3179 11.5719 18.3383L24.596 31.3623C25.5874 32.3538 27.1947 32.3538 28.1861 31.3623L41.2101 18.3383C45.2307 14.3179 45.2307 7.7997 41.2102 3.77928Z" fill="#F45481"/>
<path d="M17.8859 18.3384C13.8656 14.3181 13.8656 7.79974 17.8859 3.77942C19.0826 2.58262 20.5008 1.74227 22.0084 1.25806C18.4512 0.115456 14.3955 0.955808 11.5719 3.77942C7.55156 7.79974 7.55156 14.3181 11.5719 18.3384L24.596 31.3625C25.5874 32.3539 27.1947 32.3539 28.1861 31.3625L29.5479 30.0006L17.8859 18.3384Z" fill="#E73668"/>
<path d="M26.3956 25.1695C31.4488 25.1695 35.5452 21.0732 35.5452 16.02C35.5452 10.9669 31.4488 6.87048 26.3956 6.87048C21.3425 6.87048 17.2461 10.9669 17.2461 16.02C17.2461 21.0732 21.3425 25.1695 26.3956 25.1695Z" fill="white"/>
<path d="M17.8864 18.3379C17.7277 18.1792 17.5759 18.0161 17.4297 17.8499C18.1549 21.421 20.9601 24.2366 24.5257 24.9772L17.8864 18.3379Z" fill="#EEEFF5"/>
<path d="M30.9146 14.5751H28.2503V11.9108C28.2503 11.6945 28.075 11.5192 27.8587 11.5192H24.9221C24.7058 11.5192 24.5305 11.6945 24.5305 11.9108V14.5751H21.8662C21.6499 14.5751 21.4746 14.7504 21.4746 14.9667V17.9032C21.4746 18.1195 21.6499 18.2948 21.8662 18.2948H24.5305V20.9591C24.5305 21.1754 24.7058 21.3507 24.9221 21.3507H27.8587C28.075 21.3507 28.2503 21.1754 28.2503 20.9591V18.2948H30.9146C31.1309 18.2948 31.3062 18.1195 31.3062 17.9032V14.9667C31.3061 14.7504 31.1309 14.5751 30.9146 14.5751Z" fill="#F45481"/>
<path d="M45.966 26.6929H44.267V24.9939C44.267 24.7539 44.0724 24.5593 43.8324 24.5593H41.5956C41.3556 24.5593 41.161 24.7539 41.161 24.9939V26.6929H39.4619C39.2219 26.6929 39.0273 26.8874 39.0273 27.1274V29.3643C39.0273 29.6043 39.2219 29.7989 39.4619 29.7989H41.161V31.4979C41.161 31.7379 41.3556 31.9325 41.5956 31.9325H43.8324C44.0724 31.9325 44.267 31.7379 44.267 31.4979V29.7989H45.966C46.206 29.7989 46.4006 29.6043 46.4006 29.3643V27.1274C46.4005 26.8874 46.2059 26.6929 45.966 26.6929Z" fill="#F45481"/>
<path d="M6.92483 26.6929H8.62387V24.9939C8.62387 24.7539 8.81844 24.5593 9.05846 24.5593H11.2953C11.5353 24.5593 11.7299 24.7539 11.7299 24.9939V26.6929H13.4289C13.6689 26.6929 13.8635 26.8874 13.8635 27.1274V29.3643C13.8635 29.6043 13.6689 29.7989 13.4289 29.7989H11.7299V31.4979C11.7299 31.7379 11.5353 31.9325 11.2953 31.9325H9.05835C8.81834 31.9325 8.62376 31.7379 8.62376 31.4979V29.7989H6.92483C6.68481 29.7989 6.49023 29.6043 6.49023 29.3643V27.1274C6.49023 26.8874 6.68481 26.6929 6.92483 26.6929Z" fill="#F45481"/>
<path d="M25.3279 42.0713H24.6137C24.1917 42.0713 23.8496 42.4134 23.8496 42.8353C23.8496 43.2573 24.1917 43.5994 24.6137 43.5994H25.3279C25.7498 43.5994 26.0919 43.2573 26.0919 42.8353C26.0919 42.4134 25.7498 42.0713 25.3279 42.0713Z" fill="#2D2E35"/>
<path d="M49.7185 36.6768C48.7666 35.5133 47.1325 35.2177 45.8336 35.9738L38.412 40.2925C37.4768 38.2476 35.4105 36.9021 33.1376 36.9021H26.718L26.4188 36.6029C24.5962 34.7802 22.1728 33.7765 19.5953 33.7765H19.392C16.9219 33.7765 14.5935 34.6981 12.7996 36.3791H11.4775C11.3595 35.1773 10.3433 34.2351 9.11096 34.2351H4.11989V33.4629C4.11989 33.0409 3.7778 32.6989 3.35585 32.6989C2.93389 32.6989 2.5918 33.0409 2.5918 33.4629V34.9991V49.0207V50.5673C2.5918 50.9892 2.93389 51.3313 3.35585 51.3313C3.7778 51.3313 4.11989 50.9892 4.11989 50.5673V49.7847H9.11106C10.3433 49.7847 11.3596 48.8425 11.4776 47.6407H17.4584L26.3747 51.3693C27.3749 51.7875 28.4317 51.9996 29.5157 51.9996H31.9651C33.7271 51.9996 35.4713 51.4142 36.8767 50.3512L49.1993 41.0299C49.865 40.5264 50.286 39.7926 50.3849 38.9638C50.4838 38.135 50.2471 37.3228 49.7185 36.6768ZM48.8675 38.7828C48.8183 39.1954 48.6087 39.5606 48.2775 39.8112L35.9549 49.1325C34.8133 49.996 33.3965 50.4715 31.9652 50.4715H29.5158C28.6352 50.4715 27.7768 50.2993 26.9643 49.9595L17.9066 46.1717C17.8132 46.1327 17.713 46.1125 17.6118 46.1125H11.4892V42.6021C11.4892 42.1802 11.1471 41.8381 10.7251 41.8381C10.3032 41.8381 9.96109 42.1802 9.96109 42.6021V47.4066C9.96109 47.8753 9.57978 48.2566 9.11106 48.2566H4.11989V35.7633H9.11106C9.57978 35.7633 9.96109 36.1446 9.96109 36.6133V39.3462C9.96109 39.7681 10.3032 40.1102 10.7251 40.1102C11.1471 40.1102 11.4892 39.7681 11.4892 39.3462V37.9074H13.1088C13.3114 37.9074 13.5058 37.8269 13.649 37.6836C15.183 36.1496 17.2226 35.3048 19.3921 35.3048H19.5954C21.7648 35.3048 23.8044 36.1496 25.3384 37.6836L25.8613 38.2065C26.0046 38.3499 26.1989 38.4303 26.4016 38.4303H33.1376C34.9216 38.4303 36.5329 39.5557 37.1469 41.2307C37.1723 41.2998 37.1851 41.3721 37.1851 41.4459C37.1851 41.7905 36.9048 42.071 36.5601 42.071H28.0435C27.6215 42.071 27.2794 42.4131 27.2794 42.835C27.2794 43.257 27.6215 43.5991 28.0435 43.5991H36.5601C37.5856 43.5991 38.4445 42.8778 38.6599 41.9163L46.6022 37.2947C47.2489 36.9182 48.0621 37.0654 48.5358 37.6446C48.799 37.966 48.9167 38.3702 48.8675 38.7828Z" fill="#2D2E35"/>
<path d="M24.0561 31.9027C24.6799 32.5266 25.5092 32.8701 26.3914 32.8701C27.2737 32.8701 28.103 32.5266 28.7268 31.9027L32.7982 27.8313C33.0966 27.5329 33.0966 27.0491 32.7982 26.7509C32.4999 26.4525 32.0161 26.4525 31.7178 26.7509L27.6463 30.8222C27.3111 31.1574 26.8654 31.342 26.3915 31.342C25.9175 31.342 25.4719 31.1574 25.1368 30.8222L12.1126 17.798C10.3125 15.9979 9.32117 13.6045 9.32117 11.0588C9.32117 8.51302 10.3125 6.11972 12.1126 4.31962C13.9127 2.51942 16.3061 1.5281 18.8518 1.5281C21.3975 1.5281 23.7909 2.51942 25.5911 4.31962L25.8513 4.57971C26.1497 4.87809 26.6334 4.87809 26.9317 4.57971L27.1918 4.31952C28.9919 2.51942 31.3853 1.5281 33.9311 1.5281C36.4768 1.5281 38.8702 2.51942 40.6703 4.31962C42.4704 6.11972 43.4618 8.51313 43.4618 11.0588C43.4618 13.6045 42.4705 15.9979 40.6703 17.798L34.0515 24.4168C33.7531 24.7152 33.7531 25.199 34.0515 25.4973C34.3499 25.7957 34.8337 25.7957 35.1319 25.4973L41.7507 18.8785C43.8394 16.7898 44.9898 14.0126 44.9898 11.0587C44.9898 8.10472 43.8394 5.32766 41.7507 3.23895C39.6621 1.15035 36.885 0 33.9311 0C31.1073 0 28.4451 1.05123 26.3914 2.96848C24.3377 1.05113 21.6755 0 18.8518 0C15.8979 0 13.1208 1.15035 11.032 3.23905C8.94332 5.32776 7.79297 8.10482 7.79297 11.0588C7.79297 14.0127 8.94332 16.7898 11.032 18.8786L24.0561 31.9027Z" fill="#2D2E35"/>
<path d="M18.2186 17.8935C18.1248 17.482 17.7152 17.2247 17.3038 17.3185C16.8923 17.4123 16.635 17.822 16.7288 18.2333C17.2202 20.3871 18.4424 22.3417 20.1705 23.7369C21.9249 25.1535 24.135 25.9336 26.394 25.9336C31.8604 25.9336 36.3076 21.4864 36.3076 16.02C36.3076 10.5536 31.8604 6.10645 26.394 6.10645C21.4412 6.10645 17.2166 9.80383 16.5673 14.707C16.5118 15.1253 16.806 15.5093 17.2243 15.5648C17.6431 15.6205 18.0267 15.326 18.0821 14.9077C18.6313 10.7613 22.2046 7.63454 26.394 7.63454C31.0179 7.63454 34.7795 11.3962 34.7795 16.02C34.7795 20.6438 31.0179 24.4055 26.394 24.4055C24.4555 24.4055 22.6354 23.7632 21.1306 22.548C19.6681 21.3672 18.634 19.7142 18.2186 17.8935Z" fill="#2D2E35"/>
<path d="M27.859 10.7552H24.9224C24.2852 10.7552 23.7667 11.2737 23.7667 11.9109V13.811H21.8665C21.2293 13.811 20.7109 14.3295 20.7109 14.9667V17.9034C20.7109 18.5406 21.2293 19.059 21.8665 19.059H23.7667V20.9592C23.7667 21.5964 24.2852 22.1148 24.9224 22.1148H27.859C28.4962 22.1148 29.0146 21.5964 29.0146 20.9592V19.059H30.9149C31.5521 19.059 32.0705 18.5406 32.0705 17.9034V14.9667C32.0705 14.3295 31.5521 13.811 30.9149 13.811H29.0146V11.9109C29.0146 11.2737 28.4962 10.7552 27.859 10.7552ZM30.5424 15.3391V17.5308H28.2506C27.8286 17.5308 27.4865 17.8729 27.4865 18.2949V20.5866H25.2948V18.2949C25.2948 17.8729 24.9527 17.5308 24.5308 17.5308H22.239V15.3391H24.5308C24.9527 15.3391 25.2948 14.997 25.2948 14.5751V12.2833H27.4865V14.5751C27.4865 14.997 27.8286 15.3391 28.2506 15.3391H30.5424Z" fill="#2D2E35"/>
<path d="M43.8328 23.7953H41.5959C40.935 23.7953 40.3973 24.333 40.3973 24.9939V25.9288H39.4623C38.8014 25.9288 38.2637 26.4665 38.2637 27.1275V29.3643C38.2637 30.0252 38.8014 30.5629 39.4623 30.5629H40.3973V31.4979C40.3973 32.1589 40.935 32.6966 41.5959 32.6966H43.8328C44.4937 32.6966 45.0314 32.1589 45.0314 31.4979V30.5629H45.9663C46.6273 30.5629 47.1649 30.0252 47.1649 29.3643V27.1275C47.1649 26.4665 46.6273 25.9288 45.9663 25.9288H45.0314V24.9939C45.0314 24.333 44.4937 23.7953 43.8328 23.7953ZM45.6368 27.4569V29.0348H44.2674C43.8454 29.0348 43.5033 29.3769 43.5033 29.7989V31.1684H41.9254V29.7989C41.9254 29.3769 41.5833 29.0348 41.1614 29.0348H39.7919V27.4569H41.1614C41.5833 27.4569 41.9254 27.1148 41.9254 26.6929V25.3234H43.5033V26.6929C43.5033 27.1148 43.8454 27.4569 44.2674 27.4569H45.6368Z" fill="#2D2E35"/>
<path d="M6.9252 30.5629H7.86009V31.4979C7.86009 32.1589 8.39778 32.6966 9.05873 32.6966H11.2956C11.9565 32.6966 12.4942 32.1589 12.4942 31.4979V30.5629H13.4292C14.0901 30.5629 14.6278 30.0252 14.6278 29.3643V27.1275C14.6278 26.4665 14.0901 25.9288 13.4292 25.9288H12.4942V24.9939C12.4942 24.333 11.9565 23.7953 11.2956 23.7953H9.05873C8.39778 23.7953 7.86009 24.333 7.86009 24.9939V25.9288H6.9252C6.26425 25.9288 5.72656 26.4665 5.72656 27.1275V29.3643C5.72656 30.0252 6.26425 30.5629 6.9252 30.5629ZM7.25466 27.4569H8.62414C9.0461 27.4569 9.38819 27.1148 9.38819 26.6929V25.3234H10.9661V26.6929C10.9661 27.1148 11.3082 27.4569 11.7301 27.4569H13.0996V29.0348H11.7301C11.3082 29.0348 10.9661 29.3769 10.9661 29.7989V31.1684H9.38819V29.7989C9.38819 29.3769 9.0461 29.0348 8.62414 29.0348H7.25466V27.4569Z" fill="#2D2E35"/>
</g>
<defs>
<clipPath id="clip0_799_264">
<rect width="52" height="52" fill="white" transform="translate(0.5)"/>
</clipPath>
</defs>
</svg>
