<svg width="53" height="52" viewBox="0 0 53 52" fill="none" xmlns="http://www.w3.org/2000/svg">
<g clip-path="url(#clip0_799_1911)">
<path d="M21.3589 0.761719H8.5893C5.91881 0.761719 3.75391 2.92663 3.75391 5.59711V10.7374H26.1942V5.59711C26.1942 2.92663 24.0293 0.761719 21.3589 0.761719Z" fill="#5C5E70"/>
<path d="M26.1945 5.59711V10.7372H23.6362V5.59711C23.6362 2.92703 21.4709 0.761719 18.8008 0.761719H21.3591C24.0302 0.761719 26.1945 2.92703 26.1945 5.59711Z" fill="#3B3D4C"/>
<path d="M26.1962 13.7966H3.75586V28.464H26.1962V13.7966Z" fill="#5C5E70"/>
<path d="M26.1951 13.7977H23.6367V28.4644H26.1951V13.7977Z" fill="#3B3D4C"/>
<path d="M23.636 9.52525V17.0074C23.636 19.8978 21.293 22.2409 18.4025 22.2409H11.546C8.65555 22.2409 6.3125 19.8978 6.3125 17.0074V9.52525C6.3125 9.52525 12.4144 9.26017 14.9748 5.93298C17.5341 9.26017 23.636 9.52525 23.636 9.52525Z" fill="#FECEC8"/>
<path d="M23.6359 9.52554V17.0076C23.6359 19.8981 21.2928 22.2412 18.4023 22.2412H15.3555C18.2459 22.2412 20.589 19.8981 20.589 17.0076V9.05835C22.2851 9.46663 23.6359 9.52554 23.6359 9.52554Z" fill="#FEC0B7"/>
<path d="M4.3928 15.749H6.31315V9.52576H4.3928C3.42623 9.52576 2.64258 10.3093 2.64258 11.276V13.9989C2.64258 14.9654 3.42623 15.749 4.3928 15.749Z" fill="#FECEC8"/>
<path d="M25.5571 15.7488H23.6367V9.52551H25.5571C26.5236 9.52551 27.3073 10.3091 27.3073 11.2757V13.9986C27.3072 14.9652 26.5236 15.7488 25.5571 15.7488Z" fill="#FEC0B7"/>
<path d="M6.31211 9.52551H4.39258V15.7482H6.31211V9.52551Z" fill="#FEC0B7"/>
<path d="M38.6566 28.464H33.2812V32.0536H38.6566V28.464Z" fill="#FEC0B7"/>
<path d="M38.6567 28.4639H36.0723V32.0541H38.6567V28.4639Z" fill="#FEC0B7"/>
<path d="M48.3012 37.2099V49.713C48.3012 50.5556 47.6182 51.2387 46.7755 51.2387H23.6367V37.2089C23.6367 34.3623 25.9444 32.0546 28.791 32.0546H43.1459C45.9931 32.0546 48.3012 34.3627 48.3012 37.2099Z" fill="#BDD8FC"/>
<path d="M48.3018 37.2099V49.7132C48.3018 50.5552 47.6183 51.2387 46.7763 51.2387H43.7295C44.5714 51.2387 45.2549 50.5552 45.2549 49.7132V37.2099C45.2549 34.3631 42.9464 32.0546 40.0996 32.0546H43.1465C45.9933 32.0546 48.3018 34.3631 48.3018 37.2099Z" fill="#9DC7FB"/>
<path d="M17.6624 22.2411H12.2871V25.8307H17.6624V22.2411Z" fill="#FEC0B7"/>
<path d="M17.662 22.2412H14.9746V25.8304H17.662V22.2412Z" fill="#FEC0B7"/>
<path d="M27.307 30.986V51.2386H6.01039C5.1725 51.2386 4.55398 50.4718 4.71344 49.6491C5.03438 48.0028 5.08313 46.2204 4.81297 44.5791L2.64258 30.986C2.64258 28.1392 4.95109 25.8307 7.79789 25.8307H22.1517C24.9995 25.8307 27.307 28.1392 27.307 30.986Z" fill="white"/>
<path d="M27.3077 30.986V51.2386H24.2608V30.986C24.2608 28.1392 21.9533 25.8307 19.1055 25.8307H22.1523C25.0002 25.8307 27.3077 28.1392 27.3077 30.986Z" fill="#EEEFF5"/>
<path d="M27.3072 34.3093V51.2387H20.5898V37.2089C20.5898 34.3621 22.8973 32.0546 25.7452 32.0546L27.3072 34.3093Z" fill="#EEEFF5"/>
<path d="M33.2811 40.5453V51.2387H23.6367V37.2089C23.6367 34.3621 25.9442 32.0546 28.792 32.0546L32.1359 36.8811C32.8815 37.9576 33.2811 39.2358 33.2811 40.5453Z" fill="#BC7C63"/>
<path d="M33.2813 40.5452V51.2387H30.2345V40.5452C30.2345 39.236 29.8353 37.9574 29.0888 36.8808L26.2207 32.7401C26.9773 32.3044 27.8559 32.0546 28.7923 32.0546L32.1357 36.8808C32.8822 37.9574 33.2813 39.236 33.2813 40.5452Z" fill="#AC6F58"/>
<path d="M38.6562 40.5453V51.2387H46.775C47.6175 51.2387 48.3006 50.5557 48.3006 49.713V37.2089C48.3006 34.3621 45.9931 32.0546 43.1453 32.0546L39.8015 36.8811C39.0558 37.9576 38.6562 39.2358 38.6562 40.5453Z" fill="#BC7C63"/>
<path d="M48.3005 37.2089V49.7132C48.3005 50.5552 47.617 51.2387 46.7741 51.2387H43.7272C44.5702 51.2387 45.2537 50.5552 45.2537 49.7132V37.2089C45.2537 35.2985 44.2147 33.6308 42.6699 32.7401L43.1452 32.0546C45.993 32.0546 48.3005 34.3621 48.3005 37.2089Z" fill="#AC6F58"/>
<path d="M47.0298 45.825H45.4549C44.7527 45.825 44.1836 45.2559 44.1836 44.5538V40.8329C44.1836 40.1308 44.7527 39.5616 45.4549 39.5616H47.0298C47.7319 39.5616 48.301 40.1308 48.301 40.8329V44.5538C48.301 45.2559 47.7319 45.825 47.0298 45.825Z" fill="#AC6F58"/>
<path d="M41.025 5.88538H30.9128C26.8944 5.88538 23.6369 9.14289 23.6369 13.1612L23.6367 17.4995H48.301L48.3008 13.1612C48.3009 9.14289 45.0433 5.88538 41.025 5.88538Z" fill="#E6E6E6"/>
<path d="M48.3013 13.1605V17.4992H45.2545V13.1605C45.2545 9.14265 41.9963 5.88452 37.9785 5.88452H41.0254C45.0432 5.88452 48.3013 9.14265 48.3013 13.1605Z" fill="#D5D3D3"/>
<path d="M39.3962 28.4643H32.5404C29.6499 28.4643 27.3066 26.121 27.3066 23.2306V15.7487H44.63V23.2306C44.63 26.121 42.2867 28.4643 39.3962 28.4643Z" fill="#FECEC8"/>
<path d="M44.631 15.7483V23.2304C44.631 26.1209 42.288 28.4639 39.3975 28.4639H36.3496C39.2411 28.4639 41.5841 26.1209 41.5841 23.2304V15.7483H44.631Z" fill="#FEC0B7"/>
<path d="M25.3869 21.972H27.3073V15.7488H25.3869C24.4204 15.7488 23.6367 16.5323 23.6367 17.499V20.2219C23.6368 21.1885 24.4204 21.972 25.3869 21.972Z" fill="#FECEC8"/>
<path d="M27.3073 15.7483H25.3867V21.972H27.3073V15.7483Z" fill="#FEC0B7"/>
<path d="M44.63 15.749C44.63 15.749 42.7645 17.7552 38.9282 15.749C38.9282 15.749 32.7904 19.4581 27.3066 15.749L29.5801 11.6849H42.3564L44.63 15.749Z" fill="#E6E6E6"/>
<path d="M49.0884 45.825H47.5134C46.8113 45.825 46.2422 45.2559 46.2422 44.5538V40.8329C46.2422 40.1308 46.8113 39.5616 47.5134 39.5616H49.0884C49.7905 39.5616 50.3596 40.1308 50.3596 40.8329V44.5538C50.3596 45.2559 49.7905 45.825 49.0884 45.825Z" fill="#FECEC8"/>
<path d="M50.3605 40.8332V44.5534C50.3605 45.2563 49.7907 45.825 49.0889 45.825H47.5137C47.4355 45.825 47.3593 45.8179 47.2852 45.8047C47.8793 45.697 48.3292 45.1781 48.3292 44.5534V40.8332C48.3292 40.2086 47.8793 39.6896 47.2852 39.582C47.3593 39.5688 47.4355 39.5616 47.5137 39.5616H49.0889C49.7907 39.5616 50.3605 40.1304 50.3605 40.8332Z" fill="#FEC0B7"/>
<path d="M29.9182 40.9683V44.652C29.9182 45.3 29.3931 45.825 28.7452 45.825H13.137C10.5401 45.825 8.16656 44.3575 7.0057 42.0337L6.01852 40.0573L3.67648 35.3692C2.99703 34.0082 2.64258 32.5071 2.64258 30.9857C2.64258 29.5628 3.21945 28.273 4.15281 27.3407C4.84141 26.6521 5.72297 26.1575 6.71016 25.9452L11.6116 35.3214L11.9254 35.9075L13.067 38.0332C13.5453 38.9228 14.4167 39.5332 15.4161 39.6785L21.0091 40.3244C22.7489 40.5773 24.5191 40.5448 26.2477 40.23L28.5349 39.8136C29.255 39.6825 29.9182 40.2361 29.9182 40.9683Z" fill="#FECEC8"/>
<path d="M13.3845 39.6785C12.3852 39.5332 11.5137 38.9228 11.0354 38.0332L9.89383 35.9075L9.58 35.3214L5.03711 26.6318C5.54187 26.3108 6.10656 26.0752 6.70984 25.9452L11.6112 35.3214L11.9251 35.9075L13.0666 38.0332C13.545 38.9228 14.4164 39.5332 15.4158 39.6785H13.3845Z" fill="#FEC0B7"/>
<path d="M29.9191 40.9686V44.6523C29.9191 45.3002 29.3941 45.8253 28.7461 45.8253H26.7148C27.3628 45.8253 27.8879 45.3002 27.8879 44.6523V40.9686C27.8879 40.5745 27.6949 40.2313 27.4045 40.02L28.5359 39.8138C29.2559 39.6828 29.9191 40.2363 29.9191 40.9686Z" fill="#FEC0B7"/>
<path d="M11.9254 35.9075L6.01852 40.0573L3.67648 35.3692C2.99703 34.0082 2.64258 32.5071 2.64258 30.9857C2.64258 29.5628 3.21945 28.273 4.15281 27.3407C4.84141 26.6521 5.72297 26.1575 6.71016 25.9452L11.6116 35.3214L11.9254 35.9075Z" fill="white"/>
<path d="M11.9251 35.9075L6.0182 40.0573L5.49008 39.0011L9.28283 36.3367C9.63241 36.0911 9.74565 35.6244 9.5475 35.246L5.03711 26.6318C5.54187 26.3108 6.10656 26.0752 6.70984 25.9452L11.6112 35.3214L11.9251 35.9075Z" fill="#EEEFF5"/>
<path d="M46.5512 21.972H44.6309V15.7488H46.5512C47.5178 15.7488 48.3014 16.5323 48.3014 17.499V20.2219C48.3013 21.1885 47.5178 21.972 46.5512 21.972Z" fill="#FECEC8"/>
<path d="M48.3013 17.4992V20.2221C48.3013 21.188 47.5173 21.972 46.5504 21.972H44.6309C45.5967 21.972 46.3808 21.188 46.3808 20.2221V17.4992C46.3808 16.5324 45.5967 15.7483 44.6309 15.7483H46.5504C47.5173 15.7483 48.3013 16.5324 48.3013 17.4992Z" fill="#FEC0B7"/>
<path d="M18.8584 7.66911C17.6905 7.2081 16.5829 6.56153 15.805 5.66528L14.9748 5.12048L14.4012 5.35748C14.3762 5.38241 14.3527 5.40911 14.3309 5.43747C13.2196 6.88158 11.2745 7.72136 9.4781 8.1907C8.59783 8.42068 7.79125 8.55204 7.20472 8.62567C6.91211 8.66241 6.67598 8.68456 6.5149 8.69745C6.43441 8.70389 6.37279 8.708 6.33237 8.71046L6.28798 8.71298L6.27829 8.71346L12.7326 8.71349C13.5368 8.30757 14.3133 7.79617 14.9747 7.15082C15.6359 7.79618 16.4122 8.30759 17.2164 8.71351L20.4498 8.71352L18.8584 7.66911Z" fill="#2D2E35"/>
<path d="M23.6716 8.71353C23.6716 8.71353 23.6713 8.71351 23.636 9.52525C23.6007 10.337 23.6003 10.337 23.6003 10.337L23.598 10.3369L23.5929 10.3366L23.5763 10.3358L23.5176 10.3325C23.4674 10.3294 23.3954 10.3246 23.304 10.3173C23.1786 10.3072 23.0163 10.2925 22.8235 10.2713V17.0074C22.8235 19.4491 20.8442 21.4284 18.4025 21.4284H11.546C9.10428 21.4284 7.125 19.4491 7.125 17.0074V10.2713C7.21288 10.2616 7.30712 10.2506 7.40713 10.238C8.04472 10.158 8.92363 10.0151 9.88887 9.76292C10.7778 9.53069 11.7748 9.1969 12.7326 8.71349L6.27829 8.71346L6.27689 8.71353C5.84254 8.73269 5.5 9.09042 5.5 9.52525V17.0074C5.5 20.3466 8.20682 23.0534 11.546 23.0534H18.4025C21.7417 23.0534 24.4485 20.3466 24.4485 17.0074V9.52525C24.4485 9.09035 24.1061 8.73259 23.6716 8.71353Z" fill="#2D2E35"/>
<path d="M22.5414 10.238C22.6414 10.2506 22.7356 10.2616 22.8235 10.2713L20.4498 8.71352L17.2164 8.71351C18.174 9.19691 19.171 9.53069 20.0598 9.76292C21.0249 10.0151 21.9038 10.158 22.5414 10.238Z" fill="#2D2E35"/>
<path d="M23.636 9.52525C23.6713 8.71351 23.6716 8.71353 23.6716 8.71353L20.4498 8.71352L22.8235 10.2713C23.0163 10.2925 23.1786 10.3072 23.304 10.3173C23.3954 10.3246 23.4674 10.3294 23.5176 10.3325L23.5763 10.3358L23.5929 10.3366L23.598 10.3369L23.6003 10.337C23.6003 10.337 23.6007 10.337 23.636 9.52525Z" fill="#2D2E35"/>
<path d="M22.7438 8.62567C22.1573 8.55204 21.3508 8.42068 20.4706 8.1907C19.9377 8.05147 19.3917 7.87964 18.8584 7.66911L20.4498 8.71352L23.6716 8.71353L23.6702 8.71346L23.6605 8.71298L23.6161 8.71046C23.5757 8.708 23.5141 8.70389 23.4336 8.69745C23.2725 8.68456 23.0364 8.66241 22.7438 8.62567Z" fill="#2D2E35"/>
<path d="M14.9748 5.12048L14.4012 5.35748C14.5525 5.2067 14.7584 5.12046 14.9748 5.12048Z" fill="#2D2E35"/>
<path d="M15.6188 5.43759C15.465 5.23767 15.2271 5.12051 14.9748 5.12048L15.805 5.66528C15.7406 5.59111 15.6785 5.51522 15.6188 5.43759Z" fill="#2D2E35"/>
<path fill-rule="evenodd" clip-rule="evenodd" d="M1.83008 11.276C1.83008 9.86055 2.97753 8.71326 4.3928 8.71326H6.31315C6.76188 8.71326 7.12565 9.07703 7.12565 9.52576V15.749C7.12565 16.1977 6.76188 16.5615 6.31315 16.5615H4.3928C2.97756 16.5615 1.83008 15.4142 1.83008 13.9989V11.276ZM4.3928 10.3383C3.87493 10.3383 3.45508 10.7581 3.45508 11.276V13.9989C3.45508 14.5167 3.8749 14.9365 4.3928 14.9365H5.50065V10.3383H4.3928Z" fill="#2D2E35"/>
<path fill-rule="evenodd" clip-rule="evenodd" d="M22.8242 9.52576C22.8242 9.07703 23.188 8.71326 23.6367 8.71326H24.6087C25.0574 8.71326 25.4212 9.07703 25.4212 9.52576C25.4212 9.97449 25.0574 10.3383 24.6087 10.3383H23.6367C23.188 10.3383 22.8242 9.97449 22.8242 9.52576Z" fill="#2D2E35"/>
<path fill-rule="evenodd" clip-rule="evenodd" d="M14.9746 12.6456C15.4233 12.6456 15.7871 13.0094 15.7871 13.4581V15.2036C15.7871 15.6523 15.4233 16.0161 14.9746 16.0161C14.5259 16.0161 14.1621 15.6523 14.1621 15.2036V13.4581C14.1621 13.0094 14.5259 12.6456 14.9746 12.6456Z" fill="#2D2E35"/>
<path fill-rule="evenodd" clip-rule="evenodd" d="M27.3066 14.9362C27.7554 14.9362 28.1191 15.2999 28.1191 15.7487V23.2306C28.1191 25.6723 30.0986 27.6518 32.5404 27.6518H39.3962C41.838 27.6518 43.8175 25.6723 43.8175 23.2306V15.7487C43.8175 15.2999 44.1812 14.9362 44.63 14.9362C45.0787 14.9362 45.4425 15.2999 45.4425 15.7487V23.2306C45.4425 26.5698 42.7354 29.2768 39.3962 29.2768H32.5404C29.2012 29.2768 26.4941 26.5698 26.4941 23.2306V15.7487C26.4941 15.2999 26.8579 14.9362 27.3066 14.9362Z" fill="#2D2E35"/>
<path fill-rule="evenodd" clip-rule="evenodd" d="M39.9776 22.1246C40.3575 21.8857 40.8591 21.9999 41.098 22.3797L42.2667 24.2376C42.5056 24.6175 42.3914 25.1191 42.0116 25.358C41.6317 25.5969 41.1301 25.4827 40.8912 25.1029L39.7225 23.245C39.4836 22.8651 39.5978 22.3635 39.9776 22.1246Z" fill="#2D2E35"/>
<path fill-rule="evenodd" clip-rule="evenodd" d="M31.9588 22.1246C32.3387 22.3635 32.4529 22.8651 32.214 23.245L31.0453 25.1029C30.8063 25.4827 30.3047 25.5969 29.9249 25.358C29.5451 25.1191 29.4309 24.6175 29.6698 24.2376L30.8385 22.3797C31.0774 21.9999 31.579 21.8857 31.9588 22.1246Z" fill="#2D2E35"/>
<path fill-rule="evenodd" clip-rule="evenodd" d="M22.8242 17.499C22.8242 16.0836 23.9717 14.9363 25.3869 14.9363H27.3073C27.756 14.9363 28.1198 15.3 28.1198 15.7488V21.972C28.1198 22.4208 27.756 22.7845 27.3073 22.7845H25.3869C23.9716 22.7845 22.8244 21.6372 22.8242 20.222V17.499ZM25.3869 16.5613C24.8691 16.5613 24.4492 16.9811 24.4492 17.499V20.2218C24.4492 20.2218 24.4492 20.2218 24.4492 20.2218C24.4493 20.7397 24.8692 21.1595 25.3869 21.1595H26.4948V16.5613H25.3869Z" fill="#2D2E35"/>
<path fill-rule="evenodd" clip-rule="evenodd" d="M35.9688 19.4103C36.4175 19.4103 36.7812 19.774 36.7812 20.2228V21.9682C36.7812 22.417 36.4175 22.7807 35.9688 22.7807C35.52 22.7807 35.1562 22.417 35.1562 21.9682V20.2228C35.1562 19.774 35.52 19.4103 35.9688 19.4103Z" fill="#2D2E35"/>
<path fill-rule="evenodd" clip-rule="evenodd" d="M36.2899 12.6502C36.6842 12.4359 37.1775 12.5818 37.3918 12.9761C37.7983 13.7241 38.2917 14.2457 38.6795 14.5781C38.8731 14.7441 39.0389 14.8615 39.1517 14.9351C39.2079 14.9718 39.2507 14.9974 39.2767 15.0124C39.2897 15.0199 39.2985 15.0247 39.3027 15.027L39.3019 15.0266M39.305 15.0282C39.3045 15.028 39.3038 15.0276 39.3027 15.027L39.3027 15.0271L39.3041 15.0278L39.3054 15.0285C39.3056 15.0286 39.3054 15.0285 39.305 15.0282C39.7011 15.2346 39.8565 15.7225 39.652 16.1202C39.4469 16.5193 38.957 16.6765 38.5579 16.4713L38.9294 15.7487C39.3009 15.0261 39.3012 15.0263 39.3014 15.0264C39.3012 15.0263 39.3011 15.0262 39.3009 15.0261L38.9294 15.7487C38.5579 16.4713 38.5577 16.4712 38.5574 16.4711L38.5568 16.4708L38.5556 16.4701L38.5528 16.4687L38.5458 16.465L38.5259 16.4543C38.5102 16.4458 38.4896 16.4343 38.4645 16.4198C38.4144 16.3909 38.3464 16.3499 38.2639 16.2961C38.0991 16.1886 37.8755 16.0292 37.622 15.8119C37.1154 15.3777 36.483 14.707 35.964 13.752C35.7497 13.3578 35.8956 12.8644 36.2899 12.6502" fill="#2D2E35"/>
<path fill-rule="evenodd" clip-rule="evenodd" d="M32.4688 28.464C32.4688 28.0153 32.8325 27.6515 33.2812 27.6515H38.6565C39.1053 27.6515 39.469 28.0153 39.469 28.464V32.0536C39.469 32.5023 39.1053 32.8661 38.6565 32.8661H33.2812C32.8325 32.8661 32.4688 32.5023 32.4688 32.0536V28.464ZM34.0938 29.2765V31.2411H37.844V29.2765H34.0938Z" fill="#2D2E35"/>
<path fill-rule="evenodd" clip-rule="evenodd" d="M22.8242 51.2383C22.8242 50.7895 23.188 50.4258 23.6367 50.4258H46.7755C47.2242 50.4258 47.588 50.7895 47.588 51.2383C47.588 51.687 47.2242 52.0508 46.7755 52.0508H23.6367C23.188 52.0508 22.8242 51.687 22.8242 51.2383Z" fill="#2D2E35"/>
<path fill-rule="evenodd" clip-rule="evenodd" d="M27.9785 32.0546C27.9785 31.6058 28.3423 31.2421 28.791 31.2421H43.1459C43.5946 31.2421 43.9584 31.6058 43.9584 32.0546C43.9584 32.5033 43.5946 32.8671 43.1459 32.8671H28.791C28.3423 32.8671 27.9785 32.5033 27.9785 32.0546Z" fill="#2D2E35"/>
<path fill-rule="evenodd" clip-rule="evenodd" d="M11.4746 22.2411C11.4746 21.7924 11.8384 21.4286 12.2871 21.4286H17.6624C18.1111 21.4286 18.4749 21.7924 18.4749 22.2411V25.8307C18.4749 26.2794 18.1111 26.6432 17.6624 26.6432H12.2871C11.8384 26.6432 11.4746 26.2794 11.4746 25.8307V22.2411ZM13.0996 23.0536V25.0182H16.8499V23.0536H13.0996Z" fill="#2D2E35"/>
<path fill-rule="evenodd" clip-rule="evenodd" d="M39.2515 15.0068C39.2511 15.0066 39.2508 15.0063 39.2505 15.006C38.9273 14.748 38.4616 14.7739 38.169 15.0665C37.7641 15.4714 37.0786 15.8315 36.1628 16.0988C35.261 16.362 34.2051 16.5152 33.1333 16.5555C32.0621 16.5957 31.0005 16.5224 30.0907 16.3473C29.1622 16.1685 28.4696 15.8986 28.0715 15.6C27.7125 15.3308 27.2033 15.4035 26.934 15.7625C26.6648 16.1215 26.7375 16.6308 27.0965 16.9C27.7818 17.414 28.7549 17.745 29.7835 17.943C30.8307 18.1445 32.0173 18.2236 33.1943 18.1793C34.3707 18.1351 35.563 17.9667 36.6182 17.6587C37.4114 17.4271 38.1693 17.1045 38.7853 16.664C38.8174 16.6848 38.8508 16.7062 38.8853 16.728C39.2742 16.9734 39.8266 17.2824 40.4638 17.5195C41.7062 17.9817 43.5261 18.2487 44.9502 16.8246C45.2675 16.5073 45.2675 15.9928 44.9502 15.6755C44.6329 15.3582 44.1185 15.3582 43.8012 15.6755C43.0586 16.4181 42.0625 16.3805 41.0304 15.9965C40.5305 15.8105 40.081 15.561 39.7525 15.3537C39.5897 15.251 39.4602 15.1609 39.3731 15.0979C39.3297 15.0664 39.297 15.0419 39.2763 15.0261L39.2544 15.0092L39.2515 15.0068Z" fill="#2D2E35"/>
<path fill-rule="evenodd" clip-rule="evenodd" d="M3.45551 30.9242C3.48854 28.5542 5.42004 26.6432 7.79789 26.6432H22.1517C24.5507 26.6432 26.4945 28.5878 26.4945 30.986V32.2719C26.4945 32.7206 26.8583 33.0844 27.307 33.0844C27.7558 33.0844 28.1195 32.7206 28.1195 32.2719V30.986C28.1195 27.6906 25.4484 25.0182 22.1517 25.0182H7.79789C4.50196 25.0182 1.83008 27.6901 1.83008 30.986C1.83008 31.0289 1.83348 31.0717 1.84024 31.1141L4.01032 44.7072L4.01101 44.7114C4.26487 46.2496 4.21993 47.9345 3.91624 49.4934L4.45215 49.5978L3.91624 49.4934C3.66037 50.8067 4.65064 52.0511 6.0109 52.0511H19.995C20.4438 52.0511 20.8075 51.6873 20.8075 51.2386C20.8075 50.7899 20.4438 50.4261 19.995 50.4261H6.0109C5.69497 50.4261 5.44658 50.136 5.51125 49.8041C5.84868 48.072 5.90215 46.1926 5.61468 44.449C5.61456 44.4483 5.61444 44.4475 5.61432 44.4468L3.45551 30.9242Z" fill="#2D2E35"/>
<path fill-rule="evenodd" clip-rule="evenodd" d="M6.53936 25.1508C6.89577 25.0742 7.2596 25.2443 7.42928 25.567L13.7468 37.5802C14.122 38.012 14.9022 38.4514 16.0803 38.8196C17.2704 39.1917 18.7367 39.4521 20.2753 39.5937C23.3868 39.8802 26.5942 39.665 28.2531 39.0514C28.2974 39.0351 28.343 39.0226 28.3895 39.0141C29.6086 38.7923 30.7307 39.7293 30.7307 40.9683V44.6519C30.7307 45.7486 29.8419 46.6375 28.7452 46.6375H13.137C10.2322 46.6375 7.57727 44.9958 6.27885 42.3968L6.27885 42.3967C5.90937 41.6571 5.49289 40.9021 5.05893 40.1154C5.00467 40.0171 4.95013 39.9182 4.89538 39.8188C4.40659 38.9315 3.90388 38.0079 3.45335 37.0621C2.55506 35.1765 1.83008 33.1355 1.83008 30.9857C1.83008 28.1215 3.84838 25.7294 6.53936 25.1508ZM6.29868 26.9083C4.63895 27.5192 3.45508 29.1156 3.45508 30.9857C3.45508 32.7792 4.06196 34.5613 4.92039 36.3633C5.34823 37.2614 5.83008 38.1477 6.3187 39.0347C6.37304 39.1334 6.4275 39.2321 6.482 39.3309C6.91369 40.1134 7.34719 40.8991 7.73256 41.6706C8.75587 43.7189 10.848 45.0125 13.137 45.0125H28.7452C28.9444 45.0125 29.1057 44.8512 29.1057 44.6519V40.9683C29.1057 40.7593 28.9304 40.598 28.7289 40.6073C26.7153 41.3207 23.2731 41.5016 20.1263 41.2119C18.5127 41.0633 16.9268 40.7868 15.5954 40.3706C14.2996 39.9655 13.1038 39.3859 12.4307 38.5384C12.3992 38.4987 12.3714 38.4562 12.3478 38.4113L6.29868 26.9083Z" fill="#2D2E35"/>
<path fill-rule="evenodd" clip-rule="evenodd" d="M6.53936 25.1508C6.8965 25.074 7.26098 25.245 7.43021 25.5687L12.3297 34.9413L12.6416 35.5238C12.8356 35.886 12.7287 36.336 12.3925 36.5722L6.48559 40.7221C6.29202 40.8581 6.0488 40.9029 5.81944 40.845C5.59009 40.787 5.39739 40.632 5.29167 40.4203C5.04579 39.9282 4.77137 39.4114 4.48943 38.8806C3.99571 37.9509 3.47897 36.978 3.05223 36.0176C2.36427 34.4693 1.83008 32.7974 1.83008 30.9857C1.83008 28.1215 3.84838 25.7294 6.53936 25.1508ZM6.29714 26.9089C4.63822 27.5202 3.45508 29.1162 3.45508 30.9857C3.45508 32.4772 3.89443 33.9111 4.53723 35.3577C4.94652 36.2788 5.4077 37.1454 5.87837 38.0299C6.02358 38.3027 6.16968 38.5773 6.31545 38.8557L10.8697 35.6561L6.29714 26.9089Z" fill="#2D2E35"/>
<path fill-rule="evenodd" clip-rule="evenodd" d="M47.5134 40.3741C47.2601 40.3741 47.0547 40.5795 47.0547 40.8329V44.5538C47.0547 44.8071 47.2601 45.0125 47.5134 45.0125H49.0884C49.3417 45.0125 49.5471 44.8071 49.5471 44.5538V40.8329C49.5471 40.5795 49.3417 40.3741 49.0884 40.3741H47.5134ZM45.4297 40.8329C45.4297 39.6821 46.3626 38.7491 47.5134 38.7491H49.0884C50.2392 38.7491 51.1721 39.6821 51.1721 40.8329V44.5538C51.1721 45.7046 50.2392 46.6375 49.0884 46.6375H47.5134C46.3626 46.6375 45.4297 45.7046 45.4297 44.5538V40.8329Z" fill="#2D2E35"/>
<path fill-rule="evenodd" clip-rule="evenodd" d="M28.3799 32.8864C26.1741 33.0939 24.4492 34.9498 24.4492 37.2089V40.4903C24.4492 40.9391 24.0855 41.3028 23.6367 41.3028C23.188 41.3028 22.8242 40.9391 22.8242 40.4903V37.2089C22.8242 33.9132 25.4956 31.2421 28.792 31.2421C29.0586 31.2421 29.3081 31.3728 29.4599 31.5919L32.8038 36.4184L32.8038 36.4184C33.6436 37.6307 34.0936 39.0705 34.0936 40.5453V51.2387C34.0936 51.6874 33.7298 52.0512 33.2811 52.0512H23.6367C23.188 52.0512 22.8242 51.6874 22.8242 51.2387V45.8254C22.8242 45.3767 23.188 45.0129 23.6367 45.0129C24.0855 45.0129 24.4492 45.3767 24.4492 45.8254V50.4262H32.4686V40.5453C32.4686 39.4012 32.1195 38.2843 31.468 37.3438C31.468 37.3438 31.468 37.3438 31.468 37.3438L28.3799 32.8864Z" fill="#2D2E35"/>
<path fill-rule="evenodd" clip-rule="evenodd" d="M42.4774 31.5919C42.6292 31.3728 42.8788 31.2421 43.1453 31.2421C44.2798 31.2421 45.3426 31.5593 46.2469 32.1102C46.6301 32.3436 46.7516 32.8436 46.5181 33.2268C46.2847 33.61 45.7848 33.7314 45.4015 33.498C44.855 33.1651 44.2292 32.9494 43.5575 32.8863L40.4694 37.3438C40.4694 37.3438 40.4693 37.3438 40.4693 37.3438C39.8178 38.2843 39.4688 39.4012 39.4688 40.5453V50.4262H46.775C47.1688 50.4262 47.4881 50.1069 47.4881 49.713V45.8254C47.4881 45.3767 47.8519 45.0129 48.3006 45.0129C48.7494 45.0129 49.1131 45.3767 49.1131 45.8254V49.713C49.1131 51.0045 48.0662 52.0512 46.775 52.0512H38.6563C38.2075 52.0512 37.8438 51.6874 37.8438 51.2387V40.5453C37.8438 39.0705 38.2937 37.6307 39.1336 36.4184L39.1336 36.4184L42.4774 31.5919Z" fill="#2D2E35"/>
<path fill-rule="evenodd" clip-rule="evenodd" d="M47.7548 34.7589C48.179 34.6125 48.6415 34.8378 48.7878 35.262C48.9986 35.8731 49.1128 36.5283 49.1128 37.2084V39.5616C49.1128 40.0104 48.749 40.3741 48.3003 40.3741C47.8515 40.3741 47.4878 40.0104 47.4878 39.5616V37.2084C47.4878 36.711 47.4045 36.2348 47.2517 35.7919C47.1053 35.3677 47.3306 34.9052 47.7548 34.7589Z" fill="#2D2E35"/>
<path fill-rule="evenodd" clip-rule="evenodd" d="M38.1794 24.1803C38.4692 24.5229 38.4264 25.0356 38.0838 25.3253C37.4791 25.8367 36.7354 26.1595 35.9123 26.1595C35.1539 26.1595 34.4612 25.8851 33.8833 25.4403C33.5278 25.1666 33.4614 24.6565 33.7351 24.3009C34.0088 23.9453 34.519 23.8789 34.8746 24.1526C35.209 24.4101 35.5607 24.5345 35.9123 24.5345C36.2924 24.5345 36.6748 24.3887 37.0344 24.0846C37.377 23.7948 37.8896 23.8377 38.1794 24.1803Z" fill="#2D2E35"/>
<path fill-rule="evenodd" clip-rule="evenodd" d="M4.20894 3.39502C4.63777 3.52717 4.87827 3.98194 4.74611 4.41077C4.63077 4.78504 4.56836 5.18328 4.56836 5.59762V9.64651C4.56836 10.0952 4.20459 10.459 3.75586 10.459C3.30713 10.459 2.94336 10.0952 2.94336 9.64651V5.59762C2.94336 5.01908 3.03065 4.4596 3.19318 3.93219C3.32534 3.50336 3.78011 3.26286 4.20894 3.39502Z" fill="#2D2E35"/>
<path fill-rule="evenodd" clip-rule="evenodd" d="M5.66019 0.767555C6.51493 0.248106 7.51864 -0.0507812 8.58973 -0.0507812H21.3593C24.4785 -0.0507812 27.0072 2.47789 27.0072 5.59711V7.42026C27.0072 7.86899 26.6434 8.23276 26.1947 8.23276C25.7459 8.23276 25.3822 7.86899 25.3822 7.42026V5.59711C25.3822 3.37536 23.581 1.57422 21.3593 1.57422H8.58973C7.82456 1.57422 7.11167 1.787 6.50411 2.15623C6.12064 2.38927 5.62086 2.26733 5.38781 1.88385C5.15477 1.50038 5.27671 1.0006 5.66019 0.767555Z" fill="#2D2E35"/>
<path fill-rule="evenodd" clip-rule="evenodd" d="M26.1953 21.1599C26.644 21.1599 27.0078 21.5237 27.0078 21.9724V27.7888C27.0078 28.2375 26.644 28.6013 26.1953 28.6013C25.7466 28.6013 25.3828 28.2375 25.3828 27.7888V21.9724C25.3828 21.5237 25.7466 21.1599 26.1953 21.1599Z" fill="#2D2E35"/>
<path fill-rule="evenodd" clip-rule="evenodd" d="M3.75586 14.8154C4.20459 14.8154 4.56836 15.1792 4.56836 15.6279V27.7874C4.56836 28.2361 4.20459 28.5999 3.75586 28.5999C3.30713 28.5999 2.94336 28.2361 2.94336 27.7874V15.6279C2.94336 15.1792 3.30713 14.8154 3.75586 14.8154Z" fill="#2D2E35"/>
<path fill-rule="evenodd" clip-rule="evenodd" d="M17.1853 17.1408C17.4751 17.4835 17.4322 17.9961 17.0896 18.2859C16.485 18.7973 15.7413 19.12 14.9182 19.12C14.1598 19.12 13.467 18.8457 12.8892 18.4009C12.5336 18.1272 12.4672 17.617 12.741 17.2614C13.0147 16.9059 13.5248 16.8395 13.8804 17.1132C14.2148 17.3706 14.5665 17.495 14.9182 17.495C15.2982 17.495 15.6807 17.3493 16.0402 17.0452C16.3828 16.7554 16.8955 16.7982 17.1853 17.1408Z" fill="#2D2E35"/>
<path fill-rule="evenodd" clip-rule="evenodd" d="M14.9746 25.0181C15.4233 25.0181 15.7871 25.3818 15.7871 25.8306V30.7338C15.7871 31.1825 15.4233 31.5463 14.9746 31.5463C14.5259 31.5463 14.1621 31.1825 14.1621 30.7338V25.8306C14.1621 25.3818 14.5259 25.0181 14.9746 25.0181Z" fill="#2D2E35"/>
<path fill-rule="evenodd" clip-rule="evenodd" d="M22.8244 13.1612C22.8244 8.69414 26.4457 5.07288 30.9128 5.07288H41.025C45.4921 5.07288 49.1133 8.69414 49.1134 13.1612C49.1134 13.1612 49.1134 13.1612 49.1134 13.1612L49.1136 17.4994C49.1136 17.9481 48.7498 18.3119 48.3011 18.312C47.8524 18.312 47.4886 17.9482 47.4886 17.4995L47.4884 13.1613C47.4884 9.59166 44.5946 6.69788 41.025 6.69788H30.9128C27.3432 6.69788 24.4494 9.59162 24.4494 13.1612L24.4492 17.4995C24.4492 17.9482 24.0854 18.312 23.6367 18.312C23.1879 18.3119 22.8242 17.9481 22.8242 17.4994L22.8244 13.1612C22.8244 13.1612 22.8244 13.1612 22.8244 13.1612Z" fill="#2D2E35"/>
<path fill-rule="evenodd" clip-rule="evenodd" d="M43.8184 15.7488C43.8184 15.3 44.1821 14.9363 44.6309 14.9363H46.5512C47.9665 14.9363 49.1139 16.0836 49.1139 17.499V20.2219C49.1138 21.6371 47.9665 22.7845 46.5512 22.7845H44.6309C44.1821 22.7845 43.8184 22.4208 43.8184 21.972V15.7488ZM45.4434 16.5613V21.1595H46.5512C47.069 21.1595 47.4888 20.7398 47.4889 20.2219C47.4889 20.2219 47.4889 20.2219 47.4889 20.2219V17.499C47.4889 16.9811 47.0691 16.5613 46.5512 16.5613H45.4434Z" fill="#2D2E35"/>
</g>
<defs>
<clipPath id="clip0_799_1911">
<rect width="52" height="52" fill="white" transform="translate(0.5)"/>
</clipPath>
</defs>
</svg>
