<svg width="52" height="52" viewBox="0 0 52 52" fill="none" xmlns="http://www.w3.org/2000/svg">
<g clip-path="url(#clip0_799_417)">
<path d="M26.0005 0.761719C21.4676 0.761719 17.793 4.43635 17.793 8.96929V9.38894V14.528C17.793 19.0609 21.4676 22.7356 26.0005 22.7356C30.5335 22.7356 34.2081 19.0609 34.2081 14.528V9.38894V8.96929C34.2081 4.43635 30.5335 0.761719 26.0005 0.761719Z" fill="#FECEC8"/>
<path d="M28.8027 1.25256C30.8936 2.74025 32.259 5.18131 32.259 7.94289V15.5536C32.259 18.3152 30.8937 20.7563 28.8027 22.2439C31.9558 21.0987 34.2083 18.0764 34.2083 14.5276V8.96888C34.2083 5.42008 31.9558 2.39778 28.8027 1.25256Z" fill="#FEC0B7"/>
<path d="M29.5906 26.2145L38.1096 28.4862C41.2534 29.3245 43.4408 32.1717 43.4408 35.4254V42.8348H8.55859V35.4254C8.55859 32.1717 10.746 29.3246 13.8898 28.4862L22.4089 26.2145H29.5906Z" fill="#FAE073"/>
<path d="M32.2586 26.9258L25.9997 38.1888L19.7408 26.9258L15.0215 28.1842V42.8348H25.9997H36.9779V28.1842L32.2586 26.9258Z" fill="#5C5E70"/>
<path d="M36.9778 28.1843V42.8348H15.0215V28.1843L15.6391 28.019H15.6401L19.7408 26.9254L26.0001 38.1893L32.2584 26.9254L36.358 28.019L36.9778 28.1843Z" fill="#5C5E70"/>
<path d="M36.9776 28.1838L34.7353 27.5858V31.8575C34.7353 32.2217 34.6707 32.5831 34.5443 32.9247L34.349 33.453L32.3874 38.1129C31.9607 39.1265 31.7441 40.1986 31.7441 41.2985V42.8343H34.7353V42.8344H36.9777V28.1838H36.9776Z" fill="#3C424D"/>
<path d="M20.2538 41.2995V42.8353H15.0215V28.1848L15.6391 28.0197H15.6401L17.6489 33.4541L19.6105 38.1139C20.0374 39.1274 20.2538 40.1995 20.2538 41.2995Z" fill="#3C424D"/>
<path d="M26.0005 29.8053L23.1192 33.0028L19.7422 26.9258L22.4096 26.2145L26.0005 29.8053Z" fill="#E7CD61"/>
<path d="M25.999 29.8054L22.4082 26.2145V21.803H29.5899V26.2145L25.999 29.8054Z" fill="#FECEC8"/>
<path d="M22.4082 24.1385C23.5264 24.5577 24.7363 24.7875 25.999 24.7875C27.2618 24.7875 28.4717 24.5577 29.5899 24.1385V21.803H22.4083V24.1385H22.4082Z" fill="#FEC0B7"/>
<path d="M26 29.8053L28.8812 33.0028L32.2583 26.9258L29.5908 26.2145L26 29.8053Z" fill="#E7CD61"/>
<path d="M31.5039 4.81663V7.32817C31.5039 8.46141 32.4225 9.38004 33.5558 9.38004H34.2067V12.262H36.8741V7.89449C36.8741 5.62802 35.0368 3.79065 32.7704 3.79065H32.5299C31.9633 3.79065 31.5039 4.25002 31.5039 4.81663Z" fill="#E6E6E6"/>
<path d="M34.8226 14.3135H34.207V9.38904H34.8226C35.9558 9.38904 36.8745 10.3077 36.8745 11.4409V12.2616C36.8745 13.3949 35.9558 14.3135 34.8226 14.3135Z" fill="#FECEC8"/>
<path d="M20.4952 4.81663V7.32817C20.4952 8.46141 19.5766 9.38004 18.4433 9.38004H17.7924V12.262H15.125V7.89449C15.125 5.62802 16.9624 3.79065 19.2287 3.79065H19.4692C20.0359 3.79065 20.4952 4.25002 20.4952 4.81663Z" fill="#E6E6E6"/>
<path d="M17.1769 14.3135H17.7924V9.38904H17.1769C16.0436 9.38904 15.125 10.3077 15.125 11.4409V12.2616C15.125 13.3949 16.0436 14.3135 17.1769 14.3135Z" fill="#FECEC8"/>
<path d="M29.2832 13.9037C30.2465 13.9037 31.0273 13.1228 31.0273 12.1595C31.0273 11.1963 30.2465 10.4154 29.2832 10.4154C28.3199 10.4154 27.5391 11.1963 27.5391 12.1595C27.5391 13.1228 28.3199 13.9037 29.2832 13.9037Z" fill="#62B4FD"/>
<path d="M22.7168 13.9037C23.68 13.9037 24.4609 13.1228 24.4609 12.1595C24.4609 11.1963 23.68 10.4154 22.7168 10.4154C21.7535 10.4154 20.9727 11.1963 20.9727 12.1595C20.9727 13.1228 21.7535 13.9037 22.7168 13.9037Z" fill="#62B4FD"/>
<path d="M50.3295 6.59832C50.2639 5.05599 48.9945 3.83948 47.4507 3.83948C45.8595 3.83948 44.5694 5.12952 44.5694 6.72081V19.9805C43.0908 19.4323 41.4437 20.1854 40.8948 21.6685L34.2793 38.9097C33.9609 39.6659 33.7969 40.478 33.7969 41.2985V43.2011C33.7969 44.2986 34.0903 45.3762 34.6468 46.3222L35.8487 48.3656V51.2382H47.6472V48.3655L51.2381 27.9492L50.3295 6.59832Z" fill="#FECEC8"/>
<path d="M50.332 6.65727C50.2693 5.18543 49.1325 3.95449 47.6633 3.84724C47.2636 3.81809 46.8805 3.87212 46.5274 3.99146C47.6255 4.36297 48.4308 5.37839 48.4827 6.59826L49.3913 27.9491L47.3469 39.5726C47.1982 40.4183 46.7884 41.1965 46.1745 41.7968C43.5113 44.4006 39.8677 46.0058 35.8487 46.0058C35.3733 46.0058 34.9034 45.9825 34.4395 45.9385C34.5039 46.0684 34.5729 46.1965 34.6467 46.3221L35.8487 48.3655V51.2382H47.6471V48.3655L51.238 27.9492L50.332 6.65727Z" fill="#FEC0B7"/>
<path d="M42.6016 19.9737C42.6077 19.9759 42.6139 19.9777 42.62 19.9801V19.9668C42.6139 19.9689 42.6078 19.9714 42.6016 19.9737Z" fill="#FEC0B7"/>
<path d="M1.6703 6.59844C1.73591 5.05612 3.00534 3.8396 4.54909 3.8396C6.14037 3.8396 7.43041 5.12965 7.43041 6.72093V19.9806C8.90906 19.4324 10.5561 20.1855 11.105 21.6686L17.7205 38.9098C18.0389 39.666 18.2029 40.4782 18.2029 41.2986V43.2013C18.2029 44.2987 17.9095 45.3763 17.3531 46.3223L16.1511 48.3657V51.2383H4.35256V48.3656L0.761719 27.9493L1.6703 6.59844Z" fill="#FECEC8"/>
<path d="M18.1948 40.9977C18.1722 40.4907 18.0565 39.723 17.7199 38.9098L11.1044 21.6686C10.5578 20.1916 8.92237 19.4392 7.4486 19.9742C8.21063 20.2508 8.85128 20.8475 9.15516 21.6686L15.7706 38.9098C15.8957 39.2067 15.9967 39.5122 16.0735 39.8235C16.247 40.5271 16.0332 41.2702 15.5159 41.7777C12.8512 44.3924 9.20106 46.006 5.17279 46.006C4.75334 46.006 4.33835 45.9875 3.92773 45.9533L4.35206 48.3657V51.2383H14.2012H16.1505V48.3656L17.3525 46.3221C17.9089 45.3762 18.2023 44.2986 18.2023 43.2011V41.2985C18.2023 41.1981 18.1997 41.0979 18.1948 40.9977Z" fill="#FEC0B7"/>
<path d="M9.39739 19.9737C9.39126 19.9759 9.38503 19.9777 9.37891 19.9801V19.9668C9.38514 19.9689 9.39126 19.9714 9.39739 19.9737Z" fill="#FEC0B7"/>
<path d="M25.9998 51.2383L33.8569 43.3353C35.7688 41.4234 35.7152 38.2903 33.696 36.4469C31.9028 34.8098 29.1225 34.7969 27.315 36.4182C26.6946 36.9746 26.2566 37.6516 25.9998 38.3784C25.7431 37.6516 25.305 36.9747 24.6848 36.4182C22.8772 34.7969 20.0969 34.8098 18.3037 36.4469C16.2846 38.2903 16.2309 41.4234 18.1429 43.3353L25.9998 51.2383Z" fill="#F45481"/>
<path d="M33.6951 36.447C33.3791 36.1586 33.0322 35.9217 32.6657 35.7341C33.5839 37.5245 33.2937 39.7745 31.7944 41.2739L23.9434 49.1709C24.7375 49.9696 25.9989 51.2384 25.9989 51.2384L33.856 43.3354C35.7679 41.4235 35.7143 38.2904 33.6951 36.447Z" fill="#E73668"/>
<path d="M26.8025 12.514C26.9753 13.7284 28.0215 14.6654 29.2828 14.6654C30.6645 14.6654 31.7887 13.5413 31.7887 12.1595C31.7887 10.7778 30.6646 9.65369 29.2828 9.65369C28.3499 9.65369 27.535 10.1666 27.1037 10.9247C26.7945 10.7843 26.424 10.6797 25.9998 10.6797C25.5756 10.6797 25.2051 10.7844 24.8959 10.9247C24.4646 10.1666 23.6496 9.65369 22.7168 9.65369C21.3351 9.65369 20.2109 10.7778 20.2109 12.1595C20.2109 13.5413 21.335 14.6654 22.7168 14.6654C23.9782 14.6654 25.0244 13.7283 25.1971 12.5138C25.3673 12.3798 25.6568 12.203 25.9999 12.203C26.3432 12.2031 26.6325 12.38 26.8025 12.514ZM29.2828 11.1771C29.8245 11.1771 30.2652 11.6178 30.2652 12.1595C30.2652 12.7013 29.8245 13.142 29.2828 13.142C28.7411 13.142 28.3004 12.7013 28.3004 12.1595C28.3004 11.6178 28.7411 11.1771 29.2828 11.1771ZM22.7168 13.142C22.1751 13.142 21.7344 12.7013 21.7344 12.1595C21.7344 11.6178 22.1751 11.1771 22.7168 11.1771C23.2533 11.1771 23.6901 11.6095 23.6984 12.1441C23.6982 12.1517 23.6988 12.1594 23.6988 12.1671C23.6946 12.7053 23.256 13.142 22.7168 13.142Z" fill="#2D2E35"/>
<path d="M51.4886 15.921C51.4706 15.5007 51.1149 15.1755 50.6951 15.1924C50.2748 15.2103 49.9486 15.5656 49.9665 15.9859L50.4736 27.8987L46.8967 48.2343C46.889 48.2778 46.8852 48.3219 46.8852 48.3662V50.4766H36.6113V48.3661C36.6113 48.2302 36.5751 48.0969 36.5061 47.9797L35.3035 45.9364C34.8989 45.2486 34.6521 44.474 34.5809 43.6794C35.5381 42.6274 36.0448 41.275 36.0122 39.8418C35.996 39.1263 35.8443 38.4374 35.5729 37.8005L41.6096 21.9329C41.8057 21.4029 42.1975 20.9828 42.7125 20.7499C43.2275 20.517 43.8021 20.5006 44.3295 20.7034C45.4001 21.1152 45.9434 22.3239 45.5404 23.398L42.2776 32.0933C42.1297 32.4872 42.3293 32.9263 42.7232 33.074C43.117 33.2222 43.5561 33.0223 43.7038 32.6285L46.9666 23.9331C47.6026 22.2382 46.8732 20.3498 45.3315 19.4947V6.72141C45.3315 6.1555 45.5522 5.6227 45.9524 5.22173C46.3528 4.82127 46.8851 4.60078 47.4511 4.60078C48.5904 4.60078 49.5204 5.4923 49.5684 6.63193L49.822 12.4128C49.8404 12.833 50.1954 13.1613 50.6164 13.1404C51.0367 13.1219 51.3625 12.7662 51.344 12.3459L51.0904 6.56652C51.008 4.60992 49.4093 3.07734 47.451 3.07734C46.478 3.07734 45.5632 3.45627 44.8746 4.14497C44.1868 4.83397 43.8079 5.74905 43.8079 6.72141V19.0459C43.2232 19.0077 42.6345 19.113 42.0847 19.3617C41.1955 19.7637 40.5193 20.4891 40.1805 21.4044L37.8769 27.6357L30.3524 25.6289V22.3679C32.9546 20.9176 34.7636 18.2099 34.9523 15.0719C36.44 15.0042 37.6301 13.776 37.6364 12.2734C37.6364 12.2695 37.637 12.2656 37.637 12.2615V7.89435C37.637 5.21127 35.4542 3.02849 32.7711 3.02849H32.7178C31.0148 1.09941 28.5883 0 26 0C23.4117 0 20.9852 1.09941 19.2822 3.02849H19.2287C16.5458 3.02849 14.3632 5.21107 14.3632 7.89395V11.4408V12.2616C14.3632 13.7697 15.556 15.0041 17.0476 15.072C17.2363 18.2099 19.0454 20.9176 21.6475 22.368V25.629L14.1226 27.6359L11.8192 21.4041C11.481 20.4894 10.8054 19.7643 9.91674 19.3623C9.36668 19.1135 8.77741 19.008 8.19211 19.0463V6.72141C8.19211 5.74905 7.81338 4.83397 7.12499 4.14446C6.4367 3.45627 5.52193 3.07734 4.54896 3.07734C2.59063 3.07734 0.992138 4.60992 0.909669 6.56602L0.000684477 27.9166C-0.00165146 27.9716 0.00200479 28.0268 0.0114501 28.0809L1.89452 38.7867C1.95962 39.1565 2.28097 39.4167 2.64385 39.4166C2.68762 39.4166 2.73211 39.4129 2.77669 39.405C3.19107 39.3321 3.46793 38.9372 3.395 38.5229L1.52625 27.8986L2.43168 6.63051C2.47962 5.4923 3.40963 4.60078 4.54896 4.60078C5.11497 4.60078 5.64715 4.82127 6.04721 5.22123C6.44787 5.6226 6.66857 6.1554 6.66857 6.72141V19.4962C5.53544 20.1279 4.80185 21.3434 4.80185 22.6616C4.80185 23.0948 4.87965 23.5222 5.03321 23.9327L8.29641 32.6285C8.44419 33.0224 8.88334 33.2222 9.2771 33.074C9.67096 32.9263 9.87053 32.4872 9.72265 32.0933L6.45975 23.3983C6.37048 23.1597 6.32529 22.912 6.32529 22.6617C6.32529 21.8 6.8658 21.0131 7.66997 20.7037C8.1983 20.5005 8.77315 20.5171 9.28868 20.7504C9.80329 20.9832 10.1945 21.4031 10.3903 21.9326L16.4272 37.8006C16.1557 38.4375 16.0042 39.1264 15.9879 39.8419C15.9552 41.2758 16.4624 42.6286 17.4193 43.6795C17.3481 44.4741 17.1013 45.2487 16.6966 45.9365L15.494 47.98C15.4251 48.097 15.3888 48.2304 15.3888 48.3663V50.4766H5.11466V48.3661C5.11466 48.3218 5.1108 48.2777 5.10318 48.2341L4.01271 42.0348C3.93979 41.6205 3.54461 41.3437 3.13043 41.4166C2.71616 41.4895 2.4393 41.8844 2.51222 42.2989L3.59122 48.4326V51.2383C3.59122 51.6591 3.93217 52 4.35294 52H16.1504C16.5712 52 16.9122 51.6591 16.9122 51.2383V48.5736L18.0095 46.7089C18.3242 46.1742 18.564 45.5984 18.725 45.0011L25.4599 51.7754C25.6028 51.9193 25.7972 52.0001 26 52.0001C26.2028 52.0001 26.3972 51.9193 26.5401 51.7754L29.4391 48.8595C29.7357 48.5611 29.7343 48.0788 29.436 47.7823C29.1376 47.4857 28.6554 47.4873 28.3589 47.7854L26 50.1579L18.6815 42.7966C17.9014 42.0166 17.4858 40.9796 17.5109 39.8764C17.5359 38.7739 17.9999 37.7558 18.8173 37.0095C20.314 35.6431 22.6678 35.6322 24.1763 36.9852C24.685 37.4415 25.057 37.9957 25.2817 38.632C25.3894 38.9364 25.6771 39.1401 26 39.1401C26.3228 39.1401 26.6107 38.9364 26.7182 38.632C26.943 37.9957 27.3149 37.4415 27.8236 36.9852C29.3319 35.6323 31.6857 35.643 33.1827 37.0095C34 37.7558 34.4641 38.7738 34.4891 39.8764C34.5142 40.9796 34.0985 42.0166 33.3169 42.7982L30.8794 45.2501C30.5828 45.5484 30.5842 46.0308 30.8825 46.3272C31.181 46.624 31.6633 46.6224 31.9597 46.3242L33.275 45.0011C33.436 45.5984 33.6758 46.1743 33.9904 46.709L35.0878 48.5736V51.2383C35.0878 51.6591 35.4287 52 35.8495 52H47.647C48.0678 52 48.4087 51.6591 48.4087 51.2383V48.4325L51.9885 28.0809C51.998 28.0268 52.0017 27.9716 51.9993 27.9166L51.4886 15.921ZM36.1133 12.2617C36.1133 12.9237 35.612 13.4708 34.9693 13.5437V10.159C35.612 10.2318 36.1133 10.7789 36.1133 11.4409V12.2617ZM32.2664 4.81609C32.2664 4.6868 32.3622 4.57488 32.4966 4.55467C32.5078 4.55284 32.5184 4.55213 32.5304 4.55213H32.7711C34.6141 4.55213 36.1136 6.0516 36.1136 7.89456V8.94197C35.7267 8.74138 35.2882 8.62733 34.8231 8.62733L33.5562 8.61758C32.845 8.61758 32.2664 8.03898 32.2664 7.32784V4.81609ZM17.0307 13.5437C16.3879 13.4708 15.8867 12.9237 15.8867 12.2617V11.4409C15.8867 10.7789 16.3879 10.2318 17.0307 10.159V13.5437ZM17.1768 8.62723C16.712 8.62723 16.2734 8.74128 15.8867 8.94177V7.89405C15.8867 6.0512 17.386 4.55203 19.2287 4.55203H19.4692C19.6149 4.55203 19.7335 4.67055 19.7335 4.8163V7.32773C19.7335 8.03918 19.1548 8.61788 18.4433 8.61788L17.1768 8.62723ZM18.5541 14.5281V10.1386C20.0543 10.0802 21.2569 8.84203 21.2569 7.32784V4.8162C21.2569 4.36282 21.0859 3.94956 20.8067 3.63411C22.1896 2.28363 24.0388 1.52344 26 1.52344C27.9617 1.52344 29.8114 2.28404 31.1944 3.63512C30.9133 3.95332 30.7429 4.36922 30.7429 4.81609V7.32773C30.7429 8.84193 31.9455 10.0799 33.4458 10.1382V14.5281C33.4458 18.6338 30.1055 21.974 26 21.974C21.8944 21.974 18.5541 18.6338 18.5541 14.5281ZM28.8291 23.0399V25.8989L26 28.728L23.1709 25.8989V23.0399C24.0607 23.3363 25.0119 23.4974 26 23.4974C26.9881 23.4974 27.9393 23.3363 28.8291 23.0399ZM17.7902 35.8844C17.6624 36.001 17.5418 36.1231 17.4268 36.249L15.782 32.1229C15.7828 32.1093 15.7841 32.0958 15.7841 32.0821V28.7694L19.3642 27.8146L23.2004 34.7179C21.3665 34.1401 19.2736 34.5302 17.7902 35.8844ZM20.882 27.4099L22.1808 27.0636L24.95 29.8327L23.2666 31.7009L20.882 27.4099ZM26.0006 36.6206L24.0489 33.1085L26 30.9431L27.9518 33.1093L26.0006 36.6206ZM27.0499 29.8326L29.8191 27.0635L31.1179 27.4098L28.7333 31.7008L27.0499 29.8326ZM34.2098 35.8844C32.7268 34.5303 30.6345 34.1403 28.801 34.7175L32.6368 27.8149L36.2171 28.7697V32.1255L34.5732 36.249C34.4581 36.1231 34.3375 36.0011 34.2098 35.8844Z" fill="#2D2E35"/>
</g>
<defs>
<clipPath id="clip0_799_417">
<rect width="52" height="52" fill="white"/>
</clipPath>
</defs>
</svg>
