<svg width="52" height="52" viewBox="0 0 52 52" fill="none" xmlns="http://www.w3.org/2000/svg">
<g clip-path="url(#clip0_799_1084)">
<path d="M4.16992 12.3223L4.17927 50.1271C4.17927 50.4077 4.40656 50.6349 4.68708 50.6349L47.5287 51.03C47.8092 51.03 48.0365 50.8026 48.0365 50.5222L48.2909 49.5117V12.7826L26.0003 2.68831L4.16992 12.3223Z" fill="white"/>
<path d="M48.2909 49.5117V50.7305C48.2909 51.0109 48.0635 51.2383 47.783 51.2383H42.6022L36.0455 50.3648L28.6822 51.2383H21.6256L15.4395 50.5162L9.78638 51.2383H4.2168C3.93628 51.2383 3.70898 51.0109 3.70898 50.7305V12.7827L5.43555 12.0006V48.3945C5.43555 49.0115 5.93564 49.5117 6.55273 49.5117H48.2909Z" fill="#E6E6E6"/>
<path d="M29.3359 50.3587L30.5881 39.7029C30.7225 38.3664 30.999 37.1409 31.8406 36.094L33.3994 35.4474L39.6472 35.4471L39.8039 35.6458C40.6454 36.6927 41.165 37.9616 41.2995 39.2981L42.4139 49.5117L40.7596 50.3811L29.3359 50.3587Z" fill="#E6E6E6"/>
<path d="M42.6018 51.2383H28.6816L29.9838 39.2986C30.1189 37.962 30.6377 36.6925 31.4797 35.6454L31.6392 35.4473H33.3993L33.3241 35.5601C32.8213 36.3147 31.7844 38.6527 31.7022 39.4713L30.6923 48.7237C30.6464 49.1443 30.9758 49.5117 31.399 49.5117H42.4139L42.6018 51.2383Z" fill="#D5D3D3"/>
<path d="M21.0078 40.1997H22.1861C23.3079 40.1997 24.2174 39.2903 24.2174 38.1685V36.7498L21.0506 36.384L21.0078 40.1997Z" fill="#FECEC8"/>
<path d="M11.2715 50.776H21.3861V38.8726L20.8733 37.7796H11.2715V50.776Z" fill="#5C5E70"/>
<path d="M51.2383 12.5211V14.9785L51.1529 15.5648C51.1529 15.9338 50.7717 16.1795 50.4356 16.0273L26.2301 4.87412C26.0704 4.8017 25.8872 4.8017 25.7273 4.87412L1.64643 15.9994C1.31026 16.1516 0.929095 15.9058 0.929095 15.5368L0.761719 15.0028V12.5211C0.761719 12.3217 0.878415 12.1407 1.06001 12.0584L25.4132 1.02754C25.7862 0.858641 26.2138 0.858641 26.5867 1.02754L50.9399 12.0584C51.1217 12.1407 51.2383 12.3217 51.2383 12.5211Z" fill="#BC7C63"/>
<path d="M51.2383 14.9784V15.7696C51.2383 16.1383 50.8574 16.3841 50.5211 16.2317L26.2519 5.23961C26.0914 5.1675 25.9086 5.1675 25.7481 5.23961L1.47875 16.2317C1.14258 16.3841 0.761719 16.1383 0.761719 15.7696V15.0028L25.1621 3.94469C25.4272 3.82484 25.7085 3.76391 26 3.76391C26.2915 3.76391 26.5728 3.82484 26.8379 3.94469L51.2383 14.9784Z" fill="#AC6F58"/>
<path d="M20.5985 22.2133C17.8365 21.4324 15.696 21.5559 13.2419 22.3437C10.9601 23.0787 9.35169 25.2068 9.37526 27.8758V37.1535L9.76668 37.0658L13.7849 38.8721H19.8618L21.3852 36.7493H24.508C24.7323 36.7493 24.9142 36.5674 24.9142 36.3431V27.8758C24.9142 25.7126 23.7871 23.8127 22.088 22.7313C22.088 22.7313 21.0794 22.3721 20.5985 22.2133Z" fill="#BDD8FC"/>
<path d="M39.6359 25.1118C42.0317 26.4312 43.5646 28.9764 43.5646 31.8055V33.0589C43.5646 34.4475 42.4388 35.5734 41.0499 35.5734H36.4072L35.6887 34.8668L34.8837 35.5734H30.1333C29.7418 35.5734 29.3712 35.4839 29.0408 35.3243C29.0408 35.3243 27.8888 33.7904 27.8888 32.7932L27.8496 31.8093C27.8496 28.9451 29.4 26.4445 31.8469 25.1396C32.3081 24.8938 39.1491 24.8437 39.6359 25.1118Z" fill="#BC7C63"/>
<path d="M32.8365 24.9369C32.4816 25.1521 32.0794 25.2895 31.7639 25.5666C30.0607 27.063 29.041 29.4961 29.041 31.8056V35.3247C28.1992 34.9185 27.6191 34.0572 27.6191 33.0599V31.8056C27.6191 28.9415 29.1904 26.3689 31.637 25.0639C31.7426 25.008 32.1955 24.9653 32.8365 24.9369Z" fill="#AC6F58"/>
<path d="M39.5442 25.0733L39.5133 25.5932L38.0281 31.4664H33.2546L31.763 25.5667L31.748 25.0593C32.2091 24.8135 32.5904 24.4427 33.1094 24.2934C34.7892 23.8333 36.5695 23.8358 38.1997 24.3101C38.7521 24.4686 39.0577 24.8051 39.5442 25.0733Z" fill="white"/>
<path d="M33.2009 35.4473H33.1562C33.1593 35.4442 33.1612 35.4402 33.1634 35.4371L33.2009 35.4473Z" fill="#5C5E70"/>
<path d="M16.7305 51.0025V50.6971C16.7305 50.2402 16.7999 50.1028 16.9989 49.7246C17.1198 49.4948 17.3753 49.0423 17.3753 49.0423C17.8704 48.5295 18.5651 48.2105 19.3342 48.2105C20.5431 48.2105 21.5636 49.017 21.8872 50.1212C21.8872 50.1212 21.8452 50.4723 21.8452 50.7324C21.8452 50.9359 21.6803 51.1007 21.4769 51.1007L16.7305 51.0025Z" fill="#3B3D4C"/>
<path d="M21.9941 50.8696C21.9941 50.9722 21.9525 51.0636 21.8865 51.1306C21.8205 51.1977 21.728 51.2383 21.6265 51.2383H16.6113V50.9326C16.6113 50.1983 16.9018 49.532 17.3761 49.0425C17.303 49.2873 17.2644 49.5473 17.2644 49.8154C17.2644 49.9842 17.4013 50.1211 17.5701 50.1211H21.8865C21.9566 50.3587 21.9941 50.6096 21.9941 50.8696Z" fill="#3B3D4C"/>
<path d="M11.782 49.1992C11.9408 49.008 12.1332 48.9829 12.3477 48.8385C12.5694 48.6892 13.0751 48.3393 13.0751 48.3393C13.3362 48.256 13.611 48.2101 13.889 48.2101C15.11 48.2101 16.1432 49.0138 16.4886 50.1211C16.4886 50.1211 16.3673 50.6501 16.3673 50.9328V51.125L11.1289 51.03L11.782 49.1992Z" fill="#3B3D4C"/>
<path d="M16.6105 50.9326V51.2383H11.8331L11.7812 49.1989C12.1042 48.8099 12.5625 48.5028 13.0743 48.3393C12.7981 48.7638 12.6384 49.271 12.6384 49.8154C12.6384 49.9842 12.7753 50.1211 12.9441 50.1211H16.4877C16.5679 50.377 16.6105 50.6502 16.6105 50.9326Z" fill="#3B3D4C"/>
<path d="M19.2728 30.0859C19.1108 29.9875 18.9074 29.9875 18.7454 30.0859L17.1179 31.0749C16.9559 31.1734 16.7525 31.1734 16.5905 31.0749L14.9631 30.0859C14.8011 29.9875 14.5978 29.9875 14.4357 30.0859L13.9243 30.3968L12.4316 31.1275V34.1129L13.9243 33.9515L14.4357 33.6406C14.5978 33.5422 14.8011 33.5422 14.9631 33.6406L16.5905 34.6296C16.7525 34.7281 16.9559 34.7281 17.1179 34.6296L18.7454 33.6406C18.9074 33.5422 19.1108 33.5422 19.2728 33.6406L19.7944 33.9576L21.0079 33.6273L21.3094 31.8655L19.7944 30.4029L19.2728 30.0859Z" fill="#9DC7FB"/>
<path d="M20.7331 22.0883C20.514 22.0264 20.2964 21.9713 20.0793 21.9193C20.0803 21.9191 20.0812 21.9189 20.0821 21.9187C17.6047 21.3442 14.6628 21.2025 11.9943 22.6089C10.2458 23.6485 8.94566 25.6596 8.96506 27.8763V36.8107C8.96506 36.9953 9.12319 37.1404 9.30722 37.1243L9.88775 37.0738C9.94138 37.0692 9.99521 37.0783 10.0443 37.1005H10.0444C10.2528 37.1942 10.4885 37.0418 10.4885 36.8133V27.8631C10.4743 26.211 11.492 24.5836 12.9406 23.8202C13.0383 23.7687 13.154 23.7733 13.2505 23.827C13.3059 23.8578 13.3702 23.8825 13.4556 23.9047C13.5202 23.9217 13.5779 23.959 13.6207 24.0104C14.3955 24.9423 15.5742 25.5079 16.8382 25.5079C18.1275 25.5079 19.3088 24.9434 20.0708 24.0122C20.1157 23.9573 20.1772 23.9191 20.2461 23.9026C20.9524 23.7342 21.4605 23.3965 21.8228 23.033C21.9724 22.8828 21.9352 22.6334 21.7494 22.531C21.4274 22.3537 21.0878 22.205 20.7331 22.0883Z" fill="#9DC7FB"/>
<path d="M20.7334 15.0815C19.9368 13.7547 18.4897 12.8658 16.8383 12.8988C15.2699 12.8675 13.8858 13.6676 13.0682 14.8847C12.4109 15.966 12.291 17.1127 12.291 18.1947V19.9351C12.291 21.1845 12.7015 22.4314 14.326 22.4901C14.4003 22.4929 14.4662 22.5349 14.5007 22.6008C14.9484 23.4547 15.8538 23.9835 16.8383 23.9835C17.8211 23.9835 18.753 23.4564 19.1772 22.6052C19.2111 22.5371 19.2779 22.4929 19.354 22.49C20.986 22.4301 21.3855 21.1837 21.3855 19.9351V18.4407C21.3855 17.243 21.3855 16.0439 20.7334 15.0815Z" fill="#FECEC8"/>
<path d="M21.8804 15.082H21.3838L20.8975 15.1753C20.0422 15.1753 19.5605 15.6644 19.5605 16.5197C19.5605 17.2579 19.9137 17.9711 20.5601 18.1492C20.6633 18.1741 20.7729 18.1797 20.8902 18.1797H21.8804C22.2731 18.1797 22.5914 17.8614 22.5914 17.4688V15.793C22.5914 15.4003 22.2731 15.082 21.8804 15.082Z" fill="#E6E6E6"/>
<path d="M21.3842 15.082C20.8947 15.3349 20.5605 15.8457 20.5605 16.4348V18.1492C19.8648 18.008 19.3418 17.3925 19.3418 16.6562V16.6054C19.3418 15.7645 20.0243 15.082 20.8652 15.082H21.3842Z" fill="#D5D3D3"/>
<path d="M12.9545 15.082C13.7167 15.179 14.365 15.8423 14.365 16.6309C14.365 17.4862 13.6716 18.1797 12.8161 18.1797H12.2907L11.5488 16.4302L12.2605 15.3531C12.2605 15.3531 12.9289 15.0788 12.9545 15.082Z" fill="#E6E6E6"/>
<path d="M12.9547 15.082C12.5446 15.3565 12.2913 15.9133 12.2913 16.448V18.1797H11.8262C11.4331 18.1797 11.1152 17.8618 11.1152 17.4688V15.793C11.1152 15.3999 11.4331 15.082 11.8262 15.082H12.9547Z" fill="#D5D3D3"/>
<path d="M11.8338 51.2383H9.78711V37.8565H11.8338V51.2383Z" fill="#BC7C63"/>
<path d="M12.0273 38.7979L9.63015 38.7655C9.18175 38.7655 8.81836 38.4021 8.81836 37.9537L8.83512 37.73C8.83512 36.9158 9.49517 36.2556 10.3094 36.2556L10.4875 36.2H11.4106C12.1837 36.2 12.8177 36.7948 12.88 37.5518C12.8833 37.5922 12.7765 37.6553 12.7765 37.6965L12.6926 38.0264C12.6926 38.4747 12.4757 38.7979 12.0273 38.7979Z" fill="#FECEC8"/>
<path d="M12.8853 37.6746V38.0606C12.8853 38.5085 12.5217 38.8721 12.0728 38.8721H9.54492C9.09602 38.8721 8.73242 38.5085 8.73242 38.0606V37.6746C8.73242 36.8601 9.39258 36.2 10.2071 36.2H10.4874L10.4858 36.7403C10.4858 37.1882 10.8226 37.5518 11.2715 37.5518H12.8802C12.8833 37.5924 12.8853 37.633 12.8853 37.6746Z" fill="#FEC0B7"/>
<path d="M39.6358 25.1119L39.514 25.5923C39.2774 25.7009 39.0213 25.7832 38.7461 25.8381C38.6882 25.8502 38.6345 25.8787 38.5918 25.9203C37.7904 26.7054 36.7646 27.132 35.6454 27.132C34.4937 27.132 33.4395 26.68 32.629 25.8492C32.3335 25.7923 32.041 25.6999 31.7637 25.5659L31.6367 25.0631C32.0978 24.8173 32.5894 24.6163 33.1084 24.467C34.7883 24.0069 36.4437 23.9927 38.0738 24.467C38.6264 24.6254 39.1493 24.8438 39.6358 25.1119Z" fill="#E6E6E6"/>
<path d="M36.4062 24.4527V27.0629C36.1585 27.1086 35.9035 27.132 35.6445 27.132C35.3855 27.132 35.1306 27.1086 34.8828 27.0639V24.4527H36.4062Z" fill="#D5D3D3"/>
<path d="M39.9249 19.7966V21.9887C39.9249 23.1591 39.5519 24.3276 38.0317 24.3929C37.9465 24.3966 37.8661 24.4384 37.8138 24.506C37.2976 25.1725 36.5614 25.6085 35.645 25.6085C34.7297 25.6085 33.9926 25.1724 33.4762 24.5059C33.4239 24.4384 33.3437 24.3966 33.2584 24.3929C31.7476 24.3272 31.3652 23.1589 31.3652 21.9887V19.8611C32.891 17.1282 38.366 17.2509 39.9249 19.7966Z" fill="#FECEC8"/>
<path d="M38.2882 16.4096C38.3523 16.1734 38.3864 15.9249 38.3864 15.6685C38.3864 14.1072 37.1207 12.8415 35.5594 12.8415C33.9981 12.8415 32.7324 14.1072 32.7324 15.6685C32.7324 15.9477 32.7728 16.2173 32.8482 16.4722L38.2882 16.4096Z" fill="#D5D3D3"/>
<path d="M39.9256 19.6391V19.7975C38.4474 20.3107 36.7139 19.995 35.7129 18.4764C35.6337 18.3561 35.454 18.3571 35.3746 18.4774C34.7259 19.4607 33.7706 19.9393 32.7765 20.0152C32.7765 20.0152 31.9605 19.8866 31.5006 19.7524L31.4922 19.5219C31.4922 18.5941 31.7977 17.9802 32.3 17.2744C32.4941 17.0018 32.8335 16.3998 32.8335 16.3998C33.586 15.7405 34.5699 15.3461 35.6457 15.3674C38.0081 15.3207 39.9256 17.2768 39.9256 19.6391Z" fill="#E6E6E6"/>
<path d="M32.8328 16.3996C32.7952 16.7225 32.7758 17.0648 32.7758 17.4274V20.0152C32.3047 20.0507 31.8253 19.9959 31.3652 19.8618V19.6384C31.3652 18.3526 31.9339 17.1867 32.8328 16.3996Z" fill="#D5D3D3"/>
<path d="M3.70898 40.2517V51.2383H48.2903V15.4883" stroke="#2D2E35" stroke-width="1.5" stroke-miterlimit="10" stroke-linecap="round" stroke-linejoin="round"/>
<path d="M3.70898 15.4882V36.6969" stroke="#2D2E35" stroke-width="1.5" stroke-miterlimit="10" stroke-linecap="round" stroke-linejoin="round"/>
<path d="M12.1658 7.02818L22.7967 2.213L26 0.761672L29.2033 2.213L50.94 12.0584C51.1217 12.1406 51.2383 12.3216 51.2383 12.521V15.7692C51.2383 16.1382 50.8571 16.384 50.521 16.2318L26 5.12581L1.47905 16.2318C1.14288 16.384 0.761719 16.1382 0.761719 15.7692V12.521C0.761719 12.3216 0.878414 12.1406 1.06001 12.0584L8.89728 8.50866" stroke="#2D2E35" stroke-width="1.5" stroke-miterlimit="10" stroke-linecap="round" stroke-linejoin="round"/>
<path d="M21.3848 49.0642V28.8414" stroke="#2D2E35" stroke-width="1.5" stroke-miterlimit="10" stroke-linecap="round" stroke-linejoin="round"/>
<path d="M16.6113 51.2383V50.87C16.6113 49.401 17.8022 48.2101 19.2712 48.2101H19.3341C20.8031 48.2101 21.994 49.401 21.994 50.87" stroke="#2D2E35" stroke-width="1.5" stroke-miterlimit="10" stroke-linecap="round" stroke-linejoin="round"/>
<path d="M16.611 51.2383V50.87C16.611 49.401 15.4201 48.2101 13.9511 48.2101H13.8882C13.0653 48.2101 12.3297 48.5838 11.8418 49.1708" stroke="#2D2E35" stroke-width="1.5" stroke-miterlimit="10" stroke-linecap="round" stroke-linejoin="round"/>
<path d="M16.6113 51.0626V38.9869" stroke="#2D2E35" stroke-width="1.5" stroke-miterlimit="10" stroke-linecap="round" stroke-linejoin="round"/>
<path d="M11.7758 38.8721H9.24734C8.79904 38.8721 8.43555 38.5086 8.43555 38.0603V37.6742C8.43555 36.8599 9.0956 36.1999 9.90993 36.1999H11.1132C11.9276 36.1999 12.5876 36.8599 12.5876 37.6742V38.0603C12.5876 38.5086 12.2242 38.8721 11.7758 38.8721Z" stroke="#2D2E35" stroke-width="1.5" stroke-miterlimit="10" stroke-linecap="round" stroke-linejoin="round"/>
<path d="M12.543 34.2816L14.6978 32.9721L16.8526 34.2816L19.0075 32.9721L21.1627 34.2816" stroke="#2D2E35" stroke-width="1.5" stroke-miterlimit="10" stroke-linecap="round" stroke-linejoin="round"/>
<path d="M12.543 31.2347L14.6978 29.9252L16.8526 31.2347L19.0075 29.9252L21.1627 31.2347" stroke="#2D2E35" stroke-width="1.5" stroke-miterlimit="10" stroke-linecap="round" stroke-linejoin="round"/>
<path d="M11.7812 51.2383H9.24219V38.8721H11.7812V51.2383Z" stroke="#2D2E35" stroke-width="1.5" stroke-miterlimit="10" stroke-linecap="round" stroke-linejoin="round"/>
<path d="M21.2603 38.8721H11.7754" stroke="#2D2E35" stroke-width="1.5" stroke-miterlimit="10" stroke-linecap="round" stroke-linejoin="round"/>
<path d="M24.9138 33.2442V36.3435C24.9138 36.5679 24.7319 36.7498 24.5075 36.7498H21.3848" stroke="#2D2E35" stroke-width="1.5" stroke-miterlimit="10" stroke-linecap="round" stroke-linejoin="round"/>
<path d="M20.7324 22.0883C23.161 22.8904 24.9134 25.1784 24.9134 27.8758V29.6891" stroke="#2D2E35" stroke-width="1.5" stroke-miterlimit="10" stroke-linecap="round" stroke-linejoin="round"/>
<path d="M8.76172 36.7498V27.8762C8.76172 25.1912 10.4982 22.9119 12.9094 22.0999" stroke="#2D2E35" stroke-width="1.5" stroke-miterlimit="10" stroke-linecap="round" stroke-linejoin="round"/>
<path d="M12.291 18.1946V19.935C12.291 21.2148 12.7218 22.4922 14.4471 22.4922C14.873 23.4096 15.8127 23.9835 16.8383 23.9835C17.8639 23.9835 18.834 23.4096 19.2295 22.4922C20.9659 22.4922 21.3855 21.2148 21.3855 19.935V18.4406" stroke="#2D2E35" stroke-width="1.5" stroke-miterlimit="10" stroke-linecap="round" stroke-linejoin="round"/>
<path d="M20.7336 15.0819C19.937 13.7551 18.4899 12.8662 16.8385 12.8992C15.2701 12.8679 13.8859 13.6681 13.0684 14.8852" stroke="#2D2E35" stroke-width="1.5" stroke-miterlimit="10" stroke-linecap="round" stroke-linejoin="round"/>
<path d="M21.8809 15.082H20.8652C20.0238 15.082 19.3418 15.7641 19.3418 16.6055C19.3418 17.4749 20.0465 18.1797 20.916 18.1797H21.8809C22.2735 18.1797 22.5918 17.8614 22.5918 17.4688V15.793C22.5918 15.4003 22.2735 15.082 21.8809 15.082Z" stroke="#2D2E35" stroke-width="1.5" stroke-miterlimit="10" stroke-linecap="round" stroke-linejoin="round"/>
<path d="M11.8262 15.082H12.8418C13.6831 15.082 14.3652 15.7641 14.3652 16.6055C14.3652 17.4749 13.6604 18.1797 12.791 18.1797H11.8262C11.4335 18.1797 11.1152 17.8614 11.1152 17.4688V15.793C11.1152 15.4003 11.4335 15.082 11.8262 15.082Z" stroke="#2D2E35" stroke-width="1.5" stroke-miterlimit="10" stroke-linecap="round" stroke-linejoin="round"/>
<path d="M12.2617 36.5785V28.842" stroke="#2D2E35" stroke-width="1.5" stroke-miterlimit="10" stroke-linecap="round" stroke-linejoin="round"/>
<path d="M33.1094 24.4672C29.8382 25.4086 27.6191 28.4014 27.6191 31.8054V33.0588C27.6191 34.4475 28.745 35.5734 30.1337 35.5734H35.556" stroke="#2D2E35" stroke-width="1.5" stroke-miterlimit="10" stroke-linecap="round" stroke-linejoin="round"/>
<path d="M38.0736 24.4672C41.3448 25.4086 43.5639 28.4014 43.5639 31.8054V33.0588C43.5639 34.4475 42.438 35.5734 41.0492 35.5734H35.627" stroke="#2D2E35" stroke-width="1.5" stroke-miterlimit="10" stroke-linecap="round" stroke-linejoin="round"/>
<path d="M35.6454 15.3664C33.2833 15.3191 31.3652 17.2754 31.3652 19.6374V21.9892C31.3652 23.1938 31.7708 24.3961 33.3947 24.3961C33.9137 25.1243 34.68 25.6085 35.6454 25.6085C36.6106 25.6085 37.3769 25.1243 37.896 24.3961C39.5303 24.3961 39.9254 23.1938 39.9254 21.9892V19.6374C39.9254 17.2754 38.0073 15.3191 35.6454 15.3664Z" stroke="#2D2E35" stroke-width="1.5" stroke-miterlimit="10" stroke-linecap="round" stroke-linejoin="round"/>
<path d="M39.6582 19.784C38.0851 20.3459 36.5167 19.9683 35.544 18.1952C34.5711 19.9683 33.0029 20.3459 31.4297 19.784" stroke="#2D2E35" stroke-width="1.5" stroke-miterlimit="10" stroke-linecap="round" stroke-linejoin="round"/>
<path d="M38.2882 16.1049C38.3523 15.8687 38.3864 15.6203 38.3864 15.3638C38.3864 13.8025 37.1207 12.5368 35.5594 12.5368C33.9981 12.5368 32.7324 13.8025 32.7324 15.3638C32.7324 15.643 32.7728 15.9127 32.8482 16.1675" stroke="#2D2E35" stroke-width="1.5" stroke-miterlimit="10" stroke-linecap="round" stroke-linejoin="round"/>
<path d="M31.1133 31.4666H39.9982" stroke="#2D2E35" stroke-width="1.5" stroke-miterlimit="10" stroke-linecap="round" stroke-linejoin="round"/>
<path d="M35.6465 25.7699V35.5734" stroke="#2D2E35" stroke-width="1.5" stroke-miterlimit="10" stroke-linecap="round" stroke-linejoin="round"/>
<path d="M39.5527 25.4413L38.0293 31.4664" stroke="#2D2E35" stroke-width="1.5" stroke-miterlimit="10" stroke-linecap="round" stroke-linejoin="round"/>
<path d="M31.7324 25.4413L33.2559 31.4664" stroke="#2D2E35" stroke-width="1.5" stroke-miterlimit="10" stroke-linecap="round" stroke-linejoin="round"/>
<path d="M42.082 46.4706L42.6022 51.2383" stroke="#2D2E35" stroke-width="1.5" stroke-miterlimit="10" stroke-linecap="round" stroke-linejoin="round"/>
<path d="M39.7461 35.5736L39.804 35.6457C40.6455 36.6927 41.1651 37.9615 41.2996 39.298L41.6907 42.8837" stroke="#2D2E35" stroke-width="1.5" stroke-miterlimit="10" stroke-linecap="round" stroke-linejoin="round"/>
<path d="M31.6367 35.6768L31.5788 35.7489C30.7373 36.7959 30.2177 38.0647 30.0832 39.4012L28.9983 50.3812" stroke="#2D2E35" stroke-width="1.5" stroke-miterlimit="10" stroke-linecap="round" stroke-linejoin="round"/>
<path d="M21.3848 40.1997H22.1848C23.3066 40.1997 24.216 39.2903 24.216 38.1685V36.7498" stroke="#2D2E35" stroke-width="1.5" stroke-miterlimit="10" stroke-linecap="round" stroke-linejoin="round"/>
</g>
<defs>
<clipPath id="clip0_799_1084">
<rect width="52" height="52" fill="white"/>
</clipPath>
</defs>
</svg>
