<svg width="52" height="52" viewBox="0 0 52 52" fill="none" xmlns="http://www.w3.org/2000/svg">
<g clip-path="url(#clip0_799_920)">
<path d="M32.5847 20.2071H24.4981C23.8791 18.4114 22.7427 17.1824 21.7378 16.3941C20.1614 15.1573 18.5931 14.7281 18.5271 14.7102C18.4777 14.6969 18.4272 14.6906 18.377 14.6906C18.2515 14.6906 18.1276 14.7314 18.0257 14.809C17.8831 14.9177 17.7994 15.0863 17.7994 15.2652V21.3988C13.482 23.3539 10.3919 27.5221 9.9905 32.447H6.59506C6.27748 32.447 6.01758 32.7056 6.01758 33.0216V40.7223C6.01758 41.0384 6.27748 41.2969 6.59506 41.2969H11.5138C13.0914 44.2405 15.7466 46.5242 18.9545 47.6311V51.2382H25.1921L25.6167 48.3649H32.5847C32.7515 48.3649 32.9172 48.3609 33.0826 48.3547L33.5087 51.2382H39.7463V46.3021C43.4948 43.9388 45.9837 39.7755 45.9837 35.0331V33.539C45.9837 26.176 39.9847 20.2071 32.5847 20.2071Z" fill="#FECEC8"/>
<path d="M9.94713 35.5686C9.94713 35.5281 9.9842 35.4925 10.0265 35.4925H11.8565C12.1572 35.4925 12.4077 35.2617 12.4321 34.9619C12.861 29.6998 16.1344 25.0691 20.9751 22.8772C21.1817 22.7837 21.3143 22.5779 21.3143 22.3511V16.0803C19.8918 15.0838 18.5873 14.7265 18.5272 14.7103C18.4777 14.697 18.4273 14.6907 18.3771 14.6907C18.2515 14.6907 18.1277 14.7315 18.0257 14.8091C17.8832 14.9178 17.7995 15.0864 17.7995 15.2653V21.3989C13.4821 23.354 10.392 27.5222 9.9906 32.447H6.59516C6.27748 32.447 6.01758 32.7057 6.01758 33.0217V40.7224C6.01758 41.0385 6.27748 41.297 6.59516 41.297H9.94713V35.5686Z" fill="#FEC0B7"/>
<path d="M22.5098 50.932C21.2248 50.4886 20.0289 49.856 18.9551 49.0682V51.2383H22.5098V50.932Z" fill="#FECEC8"/>
<path d="M16.1337 46.2693C15.7394 45.7407 15.3828 45.1826 15.0694 44.5978H14.0137C14.6608 45.2226 15.3706 45.7836 16.1337 46.2693Z" fill="#FECEC8"/>
<path fill-rule="evenodd" clip-rule="evenodd" d="M18.142 51.2382C18.142 51.6869 18.5058 52.0507 18.9545 52.0507H25.1921C25.5949 52.0507 25.9369 51.7555 25.9958 51.3569L26.3179 49.1774H32.3828L32.7049 51.357C32.7638 51.7555 33.1059 52.0507 33.5087 52.0507H39.7463C40.195 52.0507 40.5588 51.6869 40.5588 51.2382V46.7418C44.3204 44.1995 46.7962 39.9055 46.7962 35.0331V33.539C46.7962 25.7234 40.4296 19.3946 32.5847 19.3946H25.0568C24.3464 17.708 23.2266 16.5293 22.2393 15.7548C20.5401 14.4217 18.8527 13.9566 18.7395 13.9259L18.7382 13.9256C18.6168 13.8929 18.4952 13.8781 18.377 13.8781C18.076 13.8781 17.7787 13.9758 17.5334 14.1627L17.5332 14.1628C17.1897 14.4246 16.9869 14.8319 16.9869 15.2652V20.8856C12.8754 22.9355 9.89999 26.914 9.26151 31.6345H6.59506C5.83248 31.6345 5.20508 32.2532 5.20508 33.0216V40.7223C5.20508 41.4911 5.83267 42.1094 6.59506 42.1094H11.0372C12.6367 44.8593 15.1397 47.0213 18.142 48.1975V51.2382ZM19.767 50.4257V47.6311C19.767 47.2845 19.5471 46.976 19.2195 46.863C16.2061 45.8233 13.7115 43.6775 12.23 40.9131C12.0885 40.6492 11.8133 40.4844 11.5138 40.4844H6.83008V33.2595H9.9905C10.4136 33.2595 10.7659 32.9347 10.8003 32.513C11.1769 27.8925 14.0768 23.9765 18.1346 22.1389C18.4252 22.0073 18.6119 21.7178 18.6119 21.3988V15.5896C19.1125 15.7648 20.1732 16.1992 21.2363 17.0333L21.2363 17.0333C22.1552 17.7543 23.1754 18.8632 23.73 20.4719C23.8429 20.7996 24.1514 21.0196 24.4981 21.0196H32.5847C39.5399 21.0196 45.1712 26.6286 45.1712 33.539V35.0331C45.1712 39.4836 42.8366 43.3933 39.313 45.6148C39.0769 45.7636 38.9338 46.0231 38.9338 46.3021V50.4257H34.21L33.8863 48.2359C33.8257 47.8259 33.4663 47.5273 33.0521 47.5428C32.894 47.5487 32.7388 47.5524 32.5847 47.5524H25.6167C25.2138 47.5524 24.8718 47.8475 24.8129 48.2461L24.4908 50.4257H19.767Z" fill="#2D2E35"/>
<path fill-rule="evenodd" clip-rule="evenodd" d="M23.2246 24.1149C23.2246 24.5636 23.5884 24.9274 24.0371 24.9274H34.548C34.9967 24.9274 35.3605 24.5636 35.3605 24.1149C35.3605 23.6661 34.9967 23.3024 34.548 23.3024H24.0371C23.5884 23.3024 23.2246 23.6661 23.2246 24.1149Z" fill="#2D2E35"/>
<path fill-rule="evenodd" clip-rule="evenodd" d="M14.4629 35.9626C14.9116 35.9626 15.2754 35.5989 15.2754 35.1501V31.1852C15.2754 30.7365 14.9116 30.3727 14.4629 30.3727C14.0142 30.3727 13.6504 30.7365 13.6504 31.1852V35.1501C13.6504 35.5989 14.0142 35.9626 14.4629 35.9626Z" fill="#2D2E35"/>
<path fill-rule="evenodd" clip-rule="evenodd" d="M5.20508 51.2383C5.20508 51.687 5.56885 52.0508 6.01758 52.0508H45.9838C46.4326 52.0508 46.7963 51.687 46.7963 51.2383C46.7963 50.7895 46.4326 50.4258 45.9838 50.4258H6.01758C5.56885 50.4258 5.20508 50.7895 5.20508 51.2383Z" fill="#2D2E35"/>
<path fill-rule="evenodd" clip-rule="evenodd" d="M25.6738 18.7848C26.1226 18.7848 26.4863 18.421 26.4863 17.9723V12.428C26.4863 11.9793 26.1226 11.6155 25.6738 11.6155C25.2251 11.6155 24.8613 11.9793 24.8613 12.428V17.9723C24.8613 18.421 25.2251 18.7848 25.6738 18.7848Z" fill="#2D2E35"/>
<path fill-rule="evenodd" clip-rule="evenodd" d="M32.5742 18.8936C33.023 18.8936 33.3867 18.5298 33.3867 18.0811V12.9442C33.3867 12.4955 33.023 12.1317 32.5742 12.1317C32.1255 12.1317 31.7617 12.4955 31.7617 12.9442V18.0811C31.7617 18.5298 32.1255 18.8936 32.5742 18.8936Z" fill="#2D2E35"/>
<path fill-rule="evenodd" clip-rule="evenodd" d="M29.1895 14.9276C29.6382 14.9276 30.002 14.5638 30.002 14.1151V10.2272C30.002 9.77847 29.6382 9.4147 29.1895 9.4147C28.7407 9.4147 28.377 9.77847 28.377 10.2272V14.1151C28.377 14.5638 28.7407 14.9276 29.1895 14.9276Z" fill="#2D2E35"/>
<path d="M27.029 24.1149H31.2163C33.2557 23.2913 34.6946 21.3019 34.6946 18.977C34.6946 15.9153 32.1999 13.4331 29.1227 13.4331C26.0454 13.4331 23.5508 15.9153 23.5508 18.977C23.5508 21.3019 24.9895 23.2913 27.029 24.1149Z" fill="#FAE073"/>
<path fill-rule="evenodd" clip-rule="evenodd" d="M26.7248 24.8683C26.8214 24.9073 26.9247 24.9274 27.029 24.9274H31.2163C31.3206 24.9274 31.4239 24.9073 31.5206 24.8683C33.8543 23.9258 35.5071 21.6467 35.5071 18.977C35.5071 15.4627 32.6448 12.6206 29.1227 12.6206C25.6005 12.6206 22.7383 15.4627 22.7383 18.977C22.7383 21.6466 24.3908 23.9258 26.7248 24.8683ZM27.1933 23.3024C25.5231 22.565 24.3633 20.9038 24.3633 18.977C24.3633 16.3679 26.4902 14.2456 29.1227 14.2456C31.7551 14.2456 33.8821 16.3679 33.8821 18.977C33.8821 20.9038 32.7222 22.565 31.052 23.3024H27.1933Z" fill="#2D2E35"/>
<path d="M31.7765 18.9774C31.7765 20.4348 30.5891 21.6158 29.1246 21.6158C27.6599 21.6158 26.4727 20.4348 26.4727 18.9774C26.4727 17.5201 27.6599 16.3389 29.1246 16.3389C30.5891 16.3389 31.7765 17.5201 31.7765 18.9774Z" fill="#E7CD61"/>
<path d="M28.5039 18.9774C28.5039 17.8782 29.1796 16.9364 30.1402 16.5398C29.8273 16.4106 29.4844 16.3389 29.1246 16.3389C27.6599 16.3389 26.4727 17.5201 26.4727 18.9774C26.4727 20.4348 27.6599 21.6158 29.1246 21.6158C29.4844 21.6158 29.8273 21.5441 30.1402 21.4151C29.1796 21.0185 28.5039 20.0767 28.5039 18.9774Z" fill="#FFB649"/>
<path fill-rule="evenodd" clip-rule="evenodd" d="M25.6602 18.9774C25.6602 20.8874 27.2151 22.4283 29.1246 22.4283C31.0339 22.4283 32.589 20.8874 32.589 18.9774C32.589 17.0675 31.0339 15.5264 29.1246 15.5264C27.2151 15.5264 25.6602 17.0675 25.6602 18.9774ZM29.1246 20.8033C28.1047 20.8033 27.2852 19.9821 27.2852 18.9774C27.2852 17.9727 28.1048 17.1514 29.1246 17.1514C30.1443 17.1514 30.964 17.9728 30.964 18.9774C30.964 19.9821 30.1443 20.8033 29.1246 20.8033Z" fill="#2D2E35"/>
<path d="M25.3351 6.33321C25.3351 9.41045 22.8405 11.905 19.7633 11.905C16.6859 11.905 14.1914 9.41045 14.1914 6.33321C14.1914 3.25597 16.6859 0.761391 19.7633 0.761391C22.8405 0.761391 25.3351 3.25597 25.3351 6.33321Z" fill="#FAE073"/>
<path fill-rule="evenodd" clip-rule="evenodd" d="M13.3789 6.33321C13.3789 9.85918 16.2372 12.7175 19.7633 12.7175C23.2892 12.7175 26.1476 9.85919 26.1476 6.33321C26.1476 2.80723 23.2892 -0.0511093 19.7633 -0.0511093C16.2372 -0.0511093 13.3789 2.80724 13.3789 6.33321ZM19.7633 11.0925C17.1346 11.0925 15.0039 8.96172 15.0039 6.33321C15.0039 3.7047 17.1346 1.57389 19.7633 1.57389C22.3917 1.57389 24.5226 3.70471 24.5226 6.33321C24.5226 8.96171 22.3917 11.0925 19.7633 11.0925Z" fill="#2D2E35"/>
<path d="M22.4152 6.33353C22.4152 7.79827 21.2279 8.98523 19.7633 8.98523C18.2987 8.98523 17.1113 7.79827 17.1113 6.33353C17.1113 4.869 18.2987 3.68184 19.7633 3.68184C21.2279 3.68184 22.4152 4.869 22.4152 6.33353Z" fill="#E7CD61"/>
<path d="M19.1426 6.33353C19.1426 5.22884 19.8183 4.28228 20.7789 3.88364C20.466 3.75385 20.1231 3.68184 19.7632 3.68184C18.2986 3.68184 17.1113 4.869 17.1113 6.33353C17.1113 7.79827 18.2986 8.98523 19.7632 8.98523C20.1231 8.98523 20.466 8.91322 20.7789 8.78342C19.8183 8.38489 19.1426 7.43843 19.1426 6.33353Z" fill="#FFB649"/>
<path fill-rule="evenodd" clip-rule="evenodd" d="M16.2988 6.33353C16.2988 8.24714 17.8501 9.79773 19.7633 9.79773C21.6765 9.79773 23.2277 8.24712 23.2277 6.33353C23.2277 4.42019 21.6765 2.86934 19.7633 2.86934C17.8501 2.86934 16.2988 4.42017 16.2988 6.33353ZM19.7633 8.17273C18.7473 8.17273 17.9238 7.3494 17.9238 6.33353C17.9238 5.31784 18.7473 4.49434 19.7633 4.49434C20.7792 4.49434 21.6027 5.31782 21.6027 6.33353C21.6027 7.34942 20.7792 8.17273 19.7633 8.17273Z" fill="#2D2E35"/>
<path d="M12.7081 15.8399C12.7081 17.3044 11.5207 18.4917 10.0562 18.4917C8.59156 18.4917 7.4043 17.3044 7.4043 15.8399C7.4043 14.3752 8.59156 13.1879 10.0562 13.1879C11.5207 13.1879 12.7081 14.3752 12.7081 15.8399Z" fill="#E7CD61"/>
<path d="M9.43555 15.8399C9.43555 14.735 10.1112 13.7884 11.0718 13.3897C10.7589 13.2599 10.416 13.1879 10.0562 13.1879C8.59156 13.1879 7.4043 14.3752 7.4043 15.8399C7.4043 17.3044 8.59156 18.4917 10.0562 18.4917C10.416 18.4917 10.7589 18.4197 11.0718 18.2899C10.1112 17.8913 9.43555 16.9446 9.43555 15.8399Z" fill="#FFB649"/>
<path fill-rule="evenodd" clip-rule="evenodd" d="M6.5918 15.8399C6.5918 17.7532 8.14285 19.3042 10.0562 19.3042C11.9694 19.3042 13.5206 17.7532 13.5206 15.8399C13.5206 13.9264 11.9695 12.3754 10.0562 12.3754C8.14281 12.3754 6.5918 13.9265 6.5918 15.8399ZM10.0562 17.6792C9.04027 17.6792 8.2168 16.8557 8.2168 15.8399C8.2168 14.8239 9.04031 14.0004 10.0562 14.0004C11.072 14.0004 11.8956 14.8239 11.8956 15.8399C11.8956 16.8557 11.072 17.6792 10.0562 17.6792Z" fill="#2D2E35"/>
<path d="M42.7393 12.3919C42.7393 13.8566 41.552 15.0438 40.0874 15.0438C38.6228 15.0438 37.4355 13.8566 37.4355 12.3919C37.4355 10.9271 38.6228 9.74003 40.0874 9.74003C41.552 9.74003 42.7393 10.9271 42.7393 12.3919Z" fill="#FAE073"/>
<path d="M39.4668 12.3919C39.4668 11.287 40.1425 10.3405 41.1031 9.94183C40.7902 9.81204 40.4473 9.74003 40.0874 9.74003C38.6228 9.74003 37.4355 10.9271 37.4355 12.3919C37.4355 13.8566 38.6228 15.0438 40.0874 15.0438C40.4473 15.0438 40.7902 14.9718 41.1031 14.842C40.1425 14.4434 39.4668 13.4967 39.4668 12.3919Z" fill="#E7CD61"/>
<path fill-rule="evenodd" clip-rule="evenodd" d="M36.623 12.3919C36.623 14.3053 38.1741 15.8563 40.0874 15.8563C42.0007 15.8563 43.5518 14.3053 43.5518 12.3919C43.5518 10.4783 42.0006 8.92753 40.0874 8.92753C38.1741 8.92753 36.623 10.4783 36.623 12.3919ZM40.0874 14.2313C39.0715 14.2313 38.248 13.4078 38.248 12.3919C38.248 11.3759 39.0715 10.5525 40.0874 10.5525C41.1033 10.5525 41.9268 11.3759 41.9268 12.3919C41.9268 13.4078 41.1033 14.2313 40.0874 14.2313Z" fill="#2D2E35"/>
</g>
<defs>
<clipPath id="clip0_799_920">
<rect width="52" height="52" fill="white"/>
</clipPath>
</defs>
</svg>
