<svg width="40" height="40" viewBox="0 0 40 40" fill="none" xmlns="http://www.w3.org/2000/svg">
<path d="M22.2501 38.2621H16.9016C16.0082 38.2621 15.2815 37.4643 15.2815 36.4835V23.2393H12.1611C11.2677 23.2393 10.541 22.4412 10.541 21.4607V15.7855C10.541 14.8047 11.2677 14.0069 12.1611 14.0069H15.2815V11.165C15.2815 8.34709 16.0875 5.94968 17.612 4.23233C19.1434 2.50715 21.2836 1.59546 23.8011 1.59546L27.8801 1.60273C28.772 1.60441 29.4974 2.40224 29.4974 3.38135V8.65062C29.4974 9.6314 28.7709 10.4292 27.8778 10.4292L25.1315 10.4303C24.2939 10.4303 24.0806 10.6147 24.035 10.6712C23.9599 10.7649 23.8704 11.0298 23.8704 11.7614V14.0066H27.6714C27.9576 14.0066 28.2348 14.0841 28.4731 14.2301C28.987 14.5454 29.3066 15.1415 29.3066 15.7858L29.3045 21.461C29.3045 22.4412 28.5778 23.239 27.6844 23.239H23.8704V36.4835C23.8704 37.4643 23.1434 38.2621 22.2501 38.2621V38.2621ZM17.2395 36.1126H21.9122V22.277C21.9122 21.6221 22.3976 21.0895 22.9939 21.0895H27.3466L27.3483 16.1564H22.9936C22.3974 16.1564 21.9122 15.6238 21.9122 14.9689V11.7614C21.9122 10.9216 21.9899 9.96653 22.5673 9.24871C23.265 8.38094 24.3645 8.28079 25.131 8.28079L27.5394 8.27967V3.75173L23.7996 3.74502C19.7537 3.74502 17.2395 6.58834 17.2395 11.165V14.9689C17.2395 15.6235 16.7543 16.1564 16.1581 16.1564H12.499V21.0895H16.1581C16.7543 21.0895 17.2395 21.6221 17.2395 22.277V36.1126ZM27.8763 3.75229H27.8766H27.8763Z" fill="#AFAAD1"/>
</svg>
