<svg width="192" height="52" viewBox="0 0 192 52" fill="none" xmlns="http://www.w3.org/2000/svg">
<path d="M73.1002 25.7208H70.1579L63.5014 15.5928V25.7208H60.5591V10.9539H63.5014L70.1579 21.1061V10.9539H73.1002V25.7208Z" fill="white"/>
<path d="M86.22 20.766H77.7306C77.803 21.6161 78.0924 22.2718 78.623 22.7576C79.1294 23.2433 79.7806 23.4862 80.5283 23.4862C81.6136 23.4862 82.3853 23.0248 82.8677 22.0775H86.0271C85.6894 23.1948 85.0382 24.142 84.0977 24.8463C83.1571 25.575 81.9753 25.9393 80.6006 25.9393C79.4912 25.9393 78.4783 25.6964 77.5859 25.1864C76.6936 24.6763 75.9942 23.972 75.5118 23.0733C75.0053 22.1504 74.7642 21.106 74.7642 19.9159C74.7642 18.7015 75.0053 17.6329 75.4877 16.7342C75.97 15.8113 76.6694 15.107 77.5377 14.6212C78.43 14.1355 79.443 13.8926 80.5765 13.8926C81.6859 13.8926 82.6747 14.1355 83.543 14.6212C84.4112 15.107 85.0865 15.787 85.5688 16.6614C86.0512 17.5357 86.2924 18.5558 86.2924 19.6973C86.2924 20.0374 86.2682 20.426 86.22 20.766ZM83.2535 18.7744C83.2294 18.0215 82.9641 17.4143 82.4335 16.9528C81.903 16.4914 81.2518 16.2728 80.48 16.2728C79.7565 16.2728 79.1294 16.4914 78.6471 16.9285C78.1406 17.3657 77.8512 17.9972 77.7306 18.7744H83.2535Z" fill="white"/>
<path d="M103.199 14.0139L99.7984 25.7206H96.639L94.5167 17.5356L92.3943 25.7206H89.2108L85.7861 14.0139H88.7767L90.8267 22.9275L93.0455 14.0139H96.1567L98.3273 22.9032L100.377 14.0139H103.199Z" fill="white"/>
<path d="M109.398 14.4268C110.049 13.2853 110.941 12.3867 112.05 11.7552C113.184 11.1237 114.438 10.7837 115.837 10.7837C117.477 10.7837 118.9 11.1966 120.13 12.0467C121.36 12.8967 122.228 14.0625 122.71 15.5441H119.334C118.996 14.8397 118.538 14.3054 117.911 13.9654C117.308 13.6254 116.609 13.4311 115.813 13.4311C114.969 13.4311 114.197 13.6254 113.546 14.0382C112.87 14.4511 112.364 15.0098 112.002 15.7384C111.64 16.467 111.448 17.3414 111.448 18.3129C111.448 19.2844 111.64 20.1345 112.002 20.8874C112.364 21.616 112.895 22.1989 113.546 22.5875C114.221 23.0004 114.969 23.1947 115.813 23.1947C116.609 23.1947 117.308 23.0247 117.911 22.6604C118.514 22.2961 118.996 21.7617 119.334 21.0574H122.71C122.228 22.5632 121.36 23.729 120.13 24.5791C118.9 25.4292 117.477 25.8421 115.813 25.8421C114.414 25.8421 113.16 25.5263 112.026 24.8706C110.893 24.2391 110 23.3404 109.373 22.1989C108.722 21.0574 108.409 19.7701 108.409 18.3129C108.433 16.8799 108.746 15.5927 109.398 14.4268Z" fill="white"/>
<path d="M135.469 20.766H126.979C127.052 21.6161 127.341 22.2718 127.872 22.7576C128.378 23.2433 129.029 23.4862 129.777 23.4862C130.862 23.4862 131.634 23.0248 132.116 22.0775H135.276C134.938 23.1948 134.287 24.142 133.346 24.8463C132.406 25.575 131.224 25.9393 129.849 25.9393C128.74 25.9393 127.727 25.6964 126.834 25.1864C125.942 24.6763 125.243 23.972 124.76 23.0733C124.254 22.1504 124.013 21.106 124.013 19.9159C124.013 18.7015 124.254 17.6329 124.736 16.7342C125.219 15.8113 125.918 15.107 126.786 14.6212C127.679 14.1355 128.691 13.8926 129.825 13.8926C130.934 13.8926 131.923 14.1355 132.791 14.6212C133.66 15.107 134.335 15.787 134.817 16.6614C135.3 17.5357 135.541 18.5558 135.541 19.6973C135.565 20.0374 135.517 20.426 135.469 20.766ZM132.502 18.7744C132.478 18.0215 132.213 17.4143 131.682 16.9528C131.151 16.4914 130.5 16.2728 129.729 16.2728C129.005 16.2728 128.378 16.4914 127.896 16.9285C127.389 17.3657 127.1 17.9972 126.979 18.7744H132.502Z" fill="white"/>
<path d="M146.032 15.1798C146.876 16.0542 147.31 17.2928 147.31 18.8715V25.745H144.368V19.2602C144.368 18.3372 144.126 17.6086 143.668 17.1228C143.21 16.6128 142.583 16.3699 141.787 16.3699C140.967 16.3699 140.34 16.6128 139.858 17.1228C139.399 17.6329 139.158 18.3372 139.158 19.2602V25.7207H136.216V14.014H139.158V15.4713C139.544 14.9612 140.051 14.5726 140.653 14.2812C141.256 13.9897 141.932 13.844 142.655 13.844C144.054 13.844 145.163 14.3055 146.032 15.1798Z" fill="white"/>
<path d="M153.508 16.4428V22.1018C153.508 22.4904 153.604 22.7819 153.797 22.9519C153.99 23.1219 154.304 23.2191 154.762 23.2191H156.137V25.7207H154.28C151.796 25.7207 150.566 24.5063 150.566 22.0775V16.4428H149.191V14.014H150.566V11.1238H153.532V14.014H156.137V16.4428H153.508Z" fill="white"/>
<path d="M169.209 14.0139V25.7206H166.242V24.239C165.856 24.7491 165.374 25.1377 164.771 25.4291C164.168 25.7206 163.493 25.8663 162.793 25.8663C161.877 25.8663 161.081 25.672 160.382 25.2834C159.682 24.8948 159.127 24.3362 158.742 23.5833C158.332 22.8304 158.139 21.9317 158.139 20.8873V14.0139H161.081V20.4502C161.081 21.3731 161.322 22.1017 161.78 22.5875C162.239 23.0975 162.866 23.3404 163.662 23.3404C164.482 23.3404 165.109 23.0975 165.567 22.5875C166.025 22.0774 166.266 21.3731 166.266 20.4502V14.0139H169.209Z" fill="white"/>
<path d="M175.19 14.3783C175.793 14.0383 176.492 13.844 177.288 13.844V16.9528H176.516C175.6 16.9528 174.9 17.1714 174.418 17.6086C173.96 18.0458 173.719 18.7987 173.719 19.8916V25.7207H170.776V14.014H173.719V15.8356C174.105 15.2284 174.587 14.7426 175.19 14.3783Z" fill="white"/>
<path d="M190.384 14.0139L183.197 31.2582H180.061L182.57 25.4291L177.915 14.0139H181.219L184.21 22.1989L187.249 14.0139H190.384Z" fill="white"/>
<path d="M104.236 31.7927V41.2407H102.692V37.1117H98.2789V41.2407H96.7354V31.7927H98.2789V35.8488H102.692V31.7927H104.236Z" fill="white"/>
<path d="M108.842 40.9007C108.263 40.585 107.829 40.1235 107.516 39.5406C107.202 38.9577 107.033 38.2776 107.033 37.5004C107.033 36.7475 107.202 36.0674 107.54 35.4845C107.877 34.9016 108.336 34.4402 108.914 34.1244C109.493 33.8087 110.144 33.6387 110.844 33.6387C111.543 33.6387 112.194 33.8087 112.773 34.1244C113.352 34.4402 113.81 34.9016 114.148 35.4845C114.486 36.0674 114.654 36.7475 114.654 37.5004C114.654 38.2533 114.486 38.9334 114.148 39.5163C113.81 40.0992 113.328 40.5607 112.749 40.8764C112.17 41.1921 111.519 41.3622 110.796 41.3622C110.048 41.3865 109.421 41.2164 108.842 40.9007ZM111.857 39.7592C112.194 39.5649 112.484 39.2734 112.701 38.9091C112.918 38.5205 113.014 38.059 113.014 37.5247C113.014 36.9904 112.918 36.5289 112.701 36.1403C112.484 35.776 112.218 35.4845 111.881 35.2902C111.543 35.0959 111.157 34.9988 110.771 34.9988C110.386 34.9988 110 35.0959 109.662 35.2902C109.324 35.4845 109.059 35.776 108.866 36.1403C108.673 36.5289 108.577 36.9661 108.577 37.5247C108.577 38.3262 108.77 38.9577 109.18 39.3949C109.59 39.832 110.096 40.0506 110.723 40.0506C111.157 40.0263 111.519 39.9292 111.857 39.7592Z" fill="white"/>
<path d="M127.992 34.003C128.45 34.2459 128.812 34.6102 129.077 35.0959C129.342 35.5817 129.487 36.1646 129.487 36.8446V41.265H127.967V37.0632C127.967 36.3832 127.799 35.8731 127.461 35.5088C127.123 35.1445 126.665 34.9745 126.086 34.9745C125.507 34.9745 125.049 35.1445 124.712 35.5088C124.374 35.8731 124.205 36.3832 124.205 37.0632V41.265H122.686V37.0632C122.686 36.3832 122.517 35.8731 122.179 35.5088C121.842 35.1445 121.383 34.9745 120.805 34.9745C120.226 34.9745 119.768 35.1445 119.43 35.5088C119.092 35.8731 118.923 36.3832 118.923 37.0632V41.265H117.38V33.7601H118.923V34.6102C119.165 34.2944 119.502 34.0516 119.888 33.8815C120.274 33.7115 120.684 33.6144 121.142 33.6144C121.745 33.6144 122.276 33.7358 122.734 34.003C123.192 34.2459 123.554 34.6345 123.819 35.0959C124.036 34.6345 124.398 34.2701 124.88 34.003C125.363 33.7358 125.869 33.5901 126.424 33.5901C127.003 33.6387 127.509 33.7601 127.992 34.003Z" fill="white"/>
<path d="M139.472 38.0833H133.78C133.828 38.6905 134.045 39.152 134.431 39.5163C134.817 39.8806 135.323 40.0506 135.902 40.0506C136.722 40.0506 137.325 39.7106 137.663 39.0062H139.327C139.11 39.6863 138.7 40.2692 138.097 40.7064C137.518 41.1436 136.77 41.3622 135.902 41.3622C135.179 41.3622 134.552 41.1921 133.997 40.8764C133.442 40.5607 132.984 40.0992 132.67 39.5163C132.357 38.9334 132.188 38.2533 132.188 37.4761C132.188 36.6989 132.333 36.0189 132.646 35.436C132.96 34.853 133.394 34.3916 133.949 34.0758C134.503 33.7601 135.154 33.5901 135.878 33.5901C136.577 33.5901 137.204 33.7358 137.759 34.0516C138.314 34.3673 138.748 34.8045 139.037 35.3631C139.351 35.9217 139.496 36.5532 139.496 37.2818C139.52 37.5976 139.496 37.8647 139.472 38.0833ZM137.904 36.8446C137.904 36.2617 137.687 35.8246 137.301 35.4602C136.915 35.1202 136.409 34.9502 135.83 34.9502C135.299 34.9502 134.841 35.1202 134.455 35.4602C134.069 35.8003 133.852 36.2617 133.78 36.8446H137.904Z" fill="white"/>
<path d="M147.189 34.0272C147.623 33.2985 148.202 32.7156 148.926 32.3027C149.649 31.8899 150.469 31.6956 151.337 31.6956C152.326 31.6956 153.219 31.9384 154.015 32.4485C154.786 32.9342 155.365 33.6386 155.703 34.5615H153.846C153.605 34.0515 153.267 33.6871 152.833 33.4443C152.399 33.2014 151.892 33.08 151.337 33.08C150.71 33.08 150.156 33.2257 149.673 33.4928C149.191 33.7843 148.805 34.1729 148.54 34.7072C148.275 35.2416 148.13 35.8488 148.13 36.5531C148.13 37.2574 148.275 37.8646 148.54 38.399C148.805 38.9333 149.191 39.3219 149.673 39.6134C150.156 39.9048 150.71 40.0505 151.337 40.0505C151.916 40.0505 152.399 39.9291 152.833 39.6862C153.267 39.4433 153.605 39.079 153.846 38.569H155.703C155.341 39.4676 154.786 40.172 154.015 40.6577C153.243 41.1435 152.35 41.3864 151.337 41.3864C150.445 41.3864 149.649 41.1921 148.926 40.7792C148.202 40.3663 147.623 39.7834 147.189 39.0547C146.755 38.3261 146.538 37.5003 146.538 36.5531C146.538 35.5816 146.755 34.7558 147.189 34.0272Z" fill="white"/>
<path d="M158.718 35.4845C159.031 34.9016 159.441 34.4645 159.996 34.1244C160.526 33.8087 161.129 33.6387 161.781 33.6387C162.359 33.6387 162.866 33.7601 163.324 33.9787C163.758 34.2216 164.12 34.4887 164.361 34.8531V33.7601H165.905V41.265H164.361V40.1478C164.096 40.5121 163.734 40.8035 163.3 41.0221C162.842 41.265 162.335 41.3864 161.756 41.3864C161.105 41.3864 160.526 41.2164 159.996 40.9007C159.465 40.5607 159.031 40.0992 158.742 39.5163C158.428 38.9334 158.284 38.2533 158.284 37.5004C158.235 36.7232 158.404 36.0674 158.718 35.4845ZM164.023 36.1646C163.806 35.776 163.541 35.4845 163.204 35.2902C162.866 35.0959 162.504 34.9988 162.094 34.9988C161.684 34.9988 161.322 35.0959 160.985 35.2902C160.647 35.4845 160.358 35.776 160.165 36.1403C159.948 36.5289 159.851 36.9661 159.851 37.4761C159.851 37.9862 159.948 38.4476 160.165 38.8362C160.382 39.2248 160.647 39.5163 161.009 39.7349C161.346 39.9292 161.732 40.0506 162.118 40.0506C162.504 40.0506 162.89 39.9535 163.228 39.7592C163.565 39.5649 163.855 39.2734 164.048 38.8848C164.265 38.4962 164.361 38.059 164.361 37.5247C164.337 36.9904 164.241 36.5289 164.023 36.1646Z" fill="white"/>
<path d="M171.62 33.9544C171.982 33.7358 172.44 33.6387 172.947 33.6387V35.2417H172.561C171.958 35.2417 171.5 35.3874 171.186 35.7031C170.873 36.0189 170.728 36.5532 170.728 37.3061V41.2407H169.185V33.7601H170.728V34.8531C170.945 34.4645 171.235 34.173 171.62 33.9544Z" fill="white"/>
<path d="M182.377 38.0833H176.685C176.733 38.6905 176.95 39.152 177.336 39.5163C177.722 39.8806 178.229 40.0506 178.807 40.0506C179.627 40.0506 180.23 39.7106 180.568 39.0062H182.232C182.015 39.6863 181.605 40.2692 181.002 40.7064C180.423 41.1436 179.676 41.3622 178.807 41.3622C178.084 41.3622 177.457 41.1921 176.902 40.8764C176.347 40.5607 175.889 40.0992 175.576 39.5163C175.262 38.9334 175.093 38.2533 175.093 37.4761C175.093 36.6989 175.238 36.0189 175.552 35.436C175.865 34.853 176.299 34.3916 176.854 34.0758C177.409 33.7601 178.06 33.5901 178.783 33.5901C179.483 33.5901 180.11 33.7358 180.664 34.0516C181.219 34.3673 181.653 34.8045 181.943 35.3631C182.256 35.9217 182.401 36.5532 182.401 37.2818C182.449 37.5976 182.425 37.8647 182.377 38.0833ZM180.833 36.8446C180.833 36.2617 180.616 35.8246 180.23 35.4602C179.844 35.1202 179.338 34.9502 178.759 34.9502C178.229 34.9502 177.77 35.1202 177.384 35.4602C176.999 35.8003 176.782 36.2617 176.709 36.8446H180.833Z" fill="white"/>
<path d="M91.7914 35.7759H59.3291V37.0388H91.7914V35.7759Z" fill="white"/>
<path d="M53.5409 11.901C52.4556 8.7922 50.5021 6.4363 47.7285 4.90617C46.2332 4.00752 44.5933 3.44891 42.8327 3.20603C42.688 3.18174 42.5433 3.15745 42.4227 3.15745C39.6733 2.76885 37.0686 3.23032 34.6809 4.51757L34.6568 4.54185C34.5845 4.56614 34.5362 4.61472 34.4639 4.639C33.5715 5.12476 32.7274 5.73195 31.9315 6.43629C31.9315 6.43629 31.5215 6.8249 31.1598 7.14064L28.1692 10.0795C24.7927 6.80061 24.4551 6.48487 24.4068 6.43629C23.611 5.73195 22.7427 5.12476 21.8745 4.639C21.8021 4.61472 21.7539 4.56614 21.6816 4.54185L21.6574 4.51757C19.2457 3.23032 16.641 2.79314 13.9157 3.15745C13.771 3.18174 13.6263 3.18174 13.4816 3.20603C11.7451 3.44891 10.081 4.03181 8.60982 4.90617C5.8363 6.4363 3.88278 8.7922 2.79749 11.901C2.17043 13.504 1.88102 15.2042 1.88102 16.9043C1.8569 19.3816 2.50807 21.689 3.81042 23.7777C4.26866 24.5549 4.84748 25.3079 5.64336 26.1579C5.81218 26.3522 11.8898 32.4727 12.131 32.7156L12.2757 32.8613L28.1692 17.0986L44.0627 32.8613L44.2074 32.7156C44.4727 32.4484 50.5262 26.3279 50.695 26.1579C51.4668 25.3079 52.0456 24.5549 52.5279 23.7777C53.8303 21.689 54.4815 19.3816 54.4573 16.9043C54.4573 15.2042 54.1679 13.504 53.5409 11.901ZM49.055 19.7217C49.0068 19.8431 48.9585 19.9646 48.9103 20.086C48.8862 20.1589 48.8379 20.2317 48.8138 20.3046C48.7897 20.3289 48.7897 20.3532 48.7656 20.4017V20.426C47.7285 22.3933 45.3168 24.8464 44.328 25.8179L44.0144 26.1093L31.5939 13.6012C33.3786 11.8767 35.525 9.86086 36.2727 9.32653L36.2968 9.30225H36.3209C36.7792 9.01079 37.2133 8.76792 37.6715 8.57361C38.2262 8.35502 38.805 8.18501 39.408 8.08786C41.265 7.77212 43.1944 8.08786 44.8827 8.91364C46.0885 9.54512 47.1256 10.4438 47.9215 11.5124C48.4279 12.2168 48.8379 12.994 49.1032 13.8198C49.7785 15.7628 49.7544 17.8515 49.055 19.7217ZM20.0174 9.30225C20.9821 9.9823 23.8762 12.7754 24.7204 13.5769L12.2998 26.0851L11.9863 25.7936C10.9975 24.8221 8.60982 22.369 7.54865 20.4017V20.3774C7.52453 20.3532 7.52453 20.3289 7.50041 20.2803C7.4763 20.2074 7.42806 20.1346 7.40394 20.0617C7.35571 19.9403 7.30747 19.8188 7.25924 19.6974C6.55983 17.8515 6.53571 15.7385 7.211 13.7712C7.50041 12.9454 7.88629 12.1682 8.39276 11.4639C9.18864 10.3952 10.2498 9.49655 11.4316 8.86507C12.6857 8.23359 14.0845 7.91785 15.4833 7.91785C15.9657 7.91785 16.448 7.96642 16.9304 8.03928C17.5333 8.13644 18.1121 8.30645 18.6427 8.52504C19.101 8.71934 19.5351 8.96222 19.9933 9.25367C19.9933 9.27796 20.0174 9.27796 20.0174 9.30225Z" fill="white"/>
<path d="M31.9798 28.8539H32.0039V25.4536H31.9798H28.6274V28.8539H31.9798Z" fill="white"/>
<path d="M27.7109 28.8539V25.4536H24.3345V28.8539H27.7109Z" fill="white"/>
<path d="M28.6274 33.1286H31.9798H32.0039V29.7283H31.9798H28.6274V33.1286Z" fill="white"/>
<path d="M24.3345 33.1286H27.7109V29.7283H24.3345V33.1286Z" fill="white"/>
<path d="M39.4318 30.6755L39.2871 30.8213C36.1035 33.9544 32.5583 37.4761 30.2912 39.6863C29.2541 40.7306 28.4824 41.4836 28.1447 41.7993C27.8312 41.4836 27.0836 40.7549 26.0706 39.7591C23.8277 37.549 20.2342 34.003 17.0265 30.8213L16.8818 30.6755L13.5054 34.1001L28.1689 48.9156L42.8323 34.1001L39.4318 30.6755Z" fill="white"/>
</svg>
