<svg width="40" height="40" viewBox="0 0 40 40" fill="none" xmlns="http://www.w3.org/2000/svg">
<path d="M36.6668 10.0373C34.57 10.134 34.6158 10.1261 34.3788 10.1459L35.6206 6.59951C35.6206 6.59951 31.7443 8.02545 30.7617 8.28052C28.1809 5.96093 24.3448 5.85845 21.6023 7.54403C19.3565 8.9247 18.151 11.2957 18.5531 14.0669C14.1822 13.4604 10.4995 11.3885 7.59197 7.89575L6.67237 6.79127L5.98522 8.05317C5.11674 9.64771 4.82835 11.4709 5.17294 13.1867C5.31434 13.8907 5.55467 14.5621 5.88756 15.1907L5.09868 14.885L5.0051 16.2031C4.91024 17.5421 5.35605 19.1051 6.19782 20.3838C6.43484 20.7439 6.74002 21.1394 7.12683 21.5295L6.71917 21.4669L7.2166 22.9773C7.87044 24.9617 9.22847 26.497 10.9909 27.3505C9.23076 28.0974 7.8089 28.574 5.47176 29.3427L3.3335 30.0457L5.30849 31.1255C6.06151 31.5372 8.72239 32.9123 11.3515 33.3248C17.1956 34.2413 23.7754 33.4949 28.2051 29.5055C31.9361 26.1453 33.1604 21.3654 32.906 16.3913C32.8676 15.6383 33.0739 14.9196 33.4869 14.368C34.3142 13.2635 36.6617 10.0447 36.6668 10.0373ZM31.9252 13.1982C31.2393 14.114 30.8957 15.2835 30.9572 16.491C31.2138 21.5084 29.8487 25.3994 26.8994 28.0554C23.4542 31.1583 17.8972 32.3762 11.6539 31.3968C10.5232 31.2196 9.35461 30.8226 8.38746 30.4261C10.3469 29.7519 11.8601 29.151 14.3038 27.9944L17.7152 26.3797L13.9488 26.1387C12.1447 26.0232 10.6425 25.1489 9.71904 23.7293C10.2094 23.7008 10.6821 23.6215 11.1529 23.4902L14.745 22.4898L11.1229 21.6027C9.36275 21.1717 8.35949 20.1185 7.82772 19.3109C7.47855 18.7801 7.25043 18.2364 7.11361 17.7351C7.47677 17.8325 7.9002 17.902 8.58303 17.9696L11.9356 18.3012L9.27934 16.2291C7.36538 14.7363 6.59837 12.4935 7.16065 10.3374C13.134 16.533 20.1474 16.0673 20.8534 16.2311C20.698 14.7218 20.6939 14.7182 20.6532 14.5745C19.7492 11.3786 21.7305 9.7558 22.6242 9.20648C24.4908 8.05927 27.4538 7.88634 29.5061 9.77639C29.9494 10.1843 30.5488 10.3448 31.1098 10.2054C31.6134 10.0803 32.0266 9.9478 32.4312 9.80361L31.589 12.2089L32.6642 12.2097C32.4612 12.4818 32.2179 12.8076 31.9252 13.1982Z" fill="#AFAAD1"/>
</svg>
