<svg width="40" height="40" viewBox="0 0 40 40" fill="none" xmlns="http://www.w3.org/2000/svg">
<path d="M25.6435 18.3527L17.543 13.9205C17.0772 13.6656 16.5267 13.6751 16.0701 13.9457C15.6133 14.2164 15.3408 14.6948 15.3408 15.2258V24.0142C15.3408 24.5427 15.6116 25.0202 16.0654 25.2912C16.3023 25.4328 16.565 25.5039 16.8282 25.5039C17.0694 25.5039 17.3111 25.4443 17.5334 25.3245L25.6343 20.9686C26.1151 20.7099 26.4153 20.21 26.4175 19.6636C26.4195 19.1173 26.123 18.6151 25.6435 18.3527ZM17.4895 22.9087V16.3403L23.5437 19.653L17.4895 22.9087Z" fill="#AFAAD1"/>
<path d="M38.0634 12.6619L38.0617 12.6451C38.0306 12.35 37.7215 9.72483 36.4453 8.38961C34.9702 6.81913 33.2979 6.62834 32.4937 6.53687C32.4271 6.52931 32.3661 6.52232 32.3116 6.51505L32.2475 6.50833C27.4001 6.15585 20.0795 6.10774 20.0062 6.10746L19.9998 6.10718L19.9933 6.10746C19.92 6.10774 12.5994 6.15585 7.7084 6.50833L7.64378 6.51505C7.59175 6.52204 7.5344 6.52847 7.47202 6.53575C6.67699 6.6275 5.02259 6.81857 3.5433 8.44584C2.32782 9.76679 1.97646 12.3357 1.94037 12.6244L1.93618 12.6619C1.92527 12.7847 1.6665 15.7083 1.6665 18.6434V21.3871C1.6665 24.3222 1.92527 27.2458 1.93618 27.3689L1.93813 27.3873C1.96919 27.6777 2.27802 30.2547 3.54834 31.5905C4.93531 33.1084 6.68902 33.3093 7.63231 33.4172C7.78141 33.4343 7.90982 33.4488 7.99738 33.4642L8.08214 33.476C10.881 33.7423 19.6562 33.8735 20.0283 33.8788L20.0395 33.8791L20.0507 33.8788C20.124 33.8785 27.4443 33.8304 32.2917 33.4779L32.3558 33.4712C32.417 33.4631 32.4858 33.4558 32.5614 33.448C33.3519 33.3641 34.9974 33.1898 36.4562 31.5846C37.6717 30.2634 38.0233 27.6945 38.0592 27.4061L38.0634 27.3686C38.0743 27.2455 38.3333 24.3222 38.3333 21.3871V18.6434C38.333 15.7083 38.0743 12.785 38.0634 12.6619ZM36.1843 21.3871C36.1843 24.1037 35.9471 26.9014 35.9247 27.1582C35.8335 27.8657 35.4629 29.491 34.8706 30.1347C33.9576 31.1393 33.0196 31.2389 32.3348 31.3113C32.252 31.32 32.1753 31.3284 32.1059 31.3371C27.4174 31.6761 20.3732 31.7281 20.0487 31.7301C19.6848 31.7248 11.0379 31.5925 8.3244 31.3404C8.18536 31.3177 8.03514 31.3004 7.87681 31.2825C7.07366 31.1905 5.97427 31.0646 5.12889 30.1347L5.10903 30.1134C4.52716 29.5072 4.16713 27.9874 4.07565 27.1666C4.05859 26.9725 3.81521 24.1417 3.81521 21.3871V18.6434C3.81521 15.9298 4.05188 13.1352 4.07481 12.8731C4.18363 12.0397 4.56129 10.5129 5.12889 9.89576C6.06994 8.8607 7.06219 8.74601 7.71847 8.6702C7.78113 8.66292 7.8396 8.65621 7.89359 8.64922C12.6503 8.30849 19.7452 8.25785 19.9998 8.2559C20.2543 8.25757 27.3467 8.30849 32.0612 8.64922C32.1191 8.65649 32.1823 8.66376 32.2503 8.6716C32.9253 8.74853 33.9455 8.8649 34.8818 9.86359L34.8905 9.87282C35.4724 10.479 35.8324 12.0255 35.9239 12.8627C35.9401 13.046 36.1843 15.8828 36.1843 18.6434V21.3871Z" fill="#AFAAD1"/>
</svg>
