<svg width="112" height="137" viewBox="0 0 112 137" fill="none" xmlns="http://www.w3.org/2000/svg">
<path d="M78.5498 28.4183H83.0615C84.5846 28.4183 85.8178 29.6515 85.8178 31.1746V45.9484C85.8178 47.4715 84.5846 48.7047 83.0615 48.7047H78.5498" fill="#4383D9"/>
<path d="M27.2836 28.4183H22.7719C21.2488 28.4183 20.0156 29.6515 20.0156 31.1746V45.9484C20.0156 47.4715 21.2488 48.7047 22.7719 48.7047H27.2836" fill="#4383D9"/>
<path d="M18.0904 32.3477C16.5236 33.2937 15.4736 35.0082 15.4736 36.9715V40.1488C15.4736 42.1121 16.5236 43.8266 18.0904 44.7727V32.3477Z" fill="#4383D9"/>
<path d="M65.2363 80.2785C65.3785 79.7344 64.7168 79.3461 64.3148 79.7398C61.3891 82.5945 57.3914 84.3555 52.9836 84.3555C47.7773 84.3555 43.1453 81.9027 40.1758 78.091L42.5 87.0215L53 135.382L63.4617 87.0215L65.2363 80.2785Z" fill="#4383D9"/>
<path d="M83.8852 93.1765L83.2617 89.3921C82.8762 87.0433 82.0695 84.8066 80.9102 82.775C79.7535 82.2445 78.5285 81.8207 77.2461 81.5253C76.527 81.3585 75.8051 81.2027 75.0859 81.0496C76.8469 83.5078 78.0418 86.3542 78.5422 89.3894L79.1656 93.1765C79.502 95.2136 78.0254 97.1031 75.9691 97.2699L69.9043 97.7648L73.2977 104.51C73.9648 105.837 73.7352 107.439 72.7234 108.525L52.7734 135.376C55.8086 135.393 58.1301 133.872 60.2684 131.715L77.4457 108.525C78.4574 107.439 78.6871 105.837 78.0199 104.51L74.6266 97.7648L80.6914 97.2699C82.7477 97.1031 84.2215 95.2136 83.8852 93.1765Z" fill="#D2D9E2"/>
<path d="M27.4586 89.4961C27.959 86.4472 29.1648 83.5898 30.934 81.1234C30.2094 81.2765 29.482 81.4351 28.7574 81.6019C27.4804 81.8972 26.2609 82.3183 25.107 82.8461C23.9394 84.8859 23.1273 87.1336 22.739 89.4933L22.1211 93.2531C21.7847 95.2902 23.2613 97.1797 25.3176 97.3465L31.3824 97.8414L27.989 104.587C27.3219 105.913 27.5515 107.516 28.5633 108.601L45.5984 131.521C47.6492 133.725 49.9926 135.373 53.0031 135.373L33.2828 108.601C32.2711 107.516 32.0414 105.913 32.7086 104.587L36.1019 97.8414L30.0371 97.3465C27.9808 97.1769 26.5043 95.2902 26.8406 93.2531L27.4586 89.4961Z" fill="#D2D9E2"/>
<path d="M58.7316 70.4266L56.1832 71.1949C54.0641 71.8348 51.8027 71.8348 49.6836 71.1949L47.1352 70.4266C44.718 69.6992 42.4594 68.6547 40.3977 67.3477H40.0449V73.1855C42.1996 74.5992 44.5758 75.7258 47.1324 76.4969L49.6809 77.2652C51.8 77.9051 54.0613 77.9051 56.1805 77.2652L58.7289 76.4969C61.2582 75.734 63.6098 74.6238 65.748 73.232V67.3477H65.4664C63.4074 68.652 61.1488 69.6965 58.7316 70.4266Z" fill="#D2D9E2"/>
<path d="M56.5766 63.618H49.8801C49.3523 63.618 48.9258 63.1914 48.9258 62.6637V59.5383C48.9258 59.0105 49.3523 58.584 49.8801 58.584H56.5766C57.1043 58.584 57.5309 59.0105 57.5309 59.5383V62.6637C57.5309 63.1887 57.1043 63.618 56.5766 63.618Z" fill="#4383D9"/>
<path d="M23.0673 25.7277C23.1056 25.7332 23.1466 25.7359 23.1849 25.7359C23.6606 25.7359 24.0735 25.3804 24.1337 24.8965C25.911 10.3961 38.2841 -0.538696 52.9157 -0.538696C66.8063 -0.538696 78.7856 9.34607 81.397 22.9687C81.4954 23.4883 81.9985 23.8273 82.5181 23.7289C83.0376 23.6304 83.3766 23.1273 83.2782 22.6078C80.4946 8.08826 67.7251 -2.45276 52.9184 -2.45276C37.3216 -2.45276 24.1282 9.20388 22.236 24.664C22.1704 25.1863 22.5423 25.6648 23.0673 25.7277Z" fill="#002F6D"/>
<path d="M93.9615 38.634C93.4338 38.634 93.0045 39.0633 93.0045 39.591V47.3594C93.0045 47.7722 92.6681 48.1113 92.2525 48.1113C91.8396 48.1113 91.5006 47.775 91.5006 47.3594C91.5006 46.8316 91.0713 46.4023 90.5435 46.4023C90.0158 46.4023 89.5865 46.8316 89.5865 47.3594C89.5865 48.4914 90.2974 49.4566 91.2955 49.8422V55.3656C91.2955 57.9988 89.1545 60.1398 86.5213 60.1398H83.4232L82.8217 51.882C82.7834 51.3543 82.3158 50.9605 81.7963 50.9961C81.2685 51.0344 80.8721 51.4937 80.9103 52.0215L81.501 60.1398H74.2138C77.0576 55.9453 78.7939 50.9797 79.0537 45.6941C79.0537 45.6859 79.0537 45.675 79.0537 45.6668L79.3763 29.8758C79.3763 15.2851 67.5064 3.41248 52.9131 3.41248C38.3197 3.41248 26.4498 15.2824 26.4498 29.8758V29.8976L26.8053 45.6941C27.2482 54.7176 31.9924 62.8222 39.2303 67.7113C39.2221 67.7605 39.2139 67.8097 39.2111 67.8617L39.0635 75.1051C39.0607 75.1761 39.0689 75.25 39.0826 75.3183L41.5572 87.2183L51.0263 130.826L34.0404 108.027C34.0185 108 33.9967 107.972 33.9721 107.945C33.2365 107.155 33.067 105.976 33.5537 105.014L36.9471 98.2679C37.0892 97.9836 37.0838 97.6472 36.9252 97.3683C36.7693 97.0922 36.4849 96.909 36.1678 96.8843L30.1029 96.3894C29.3783 96.3293 28.7303 95.982 28.2846 95.4078C27.8361 94.8336 27.6556 94.1226 27.7732 93.4035L28.3967 89.6191C28.856 86.8218 31.1939 80.6914 36.7502 77.5031C37.2096 77.2406 37.3681 76.6554 37.1029 76.1961C36.8404 75.7367 36.2553 75.5808 35.7959 75.8433C35.5471 75.9855 35.3092 76.1332 35.0713 76.2863L25.9931 73.1883C24.5822 72.707 23.6717 71.3316 23.781 69.8441L25.0799 52.016C25.1181 51.4883 24.7217 51.0289 24.1939 50.9906C23.6662 50.9523 23.2068 51.3488 23.1685 51.8765L21.8697 69.7047C21.6974 72.059 23.1385 74.2355 25.3724 74.9984L33.1982 77.6699C32.3123 78.4218 31.5303 79.2367 30.8357 80.0816C30.0619 80.2429 29.2771 80.4152 28.4951 80.5957C27.5955 80.8035 26.7068 81.0742 25.851 81.3996C17.3224 84.6425 12.0478 93.234 13.024 102.293L15.2908 123.348C15.9388 129.374 20.601 134.151 26.6275 134.969C34.4943 136.035 43.2525 136.566 52.1447 136.566C61.3513 136.566 70.7029 135.994 79.3545 134.857C85.3783 134.064 90.0404 129.284 90.6912 123.236L92.9443 102.293C94.0299 92.214 87.3771 82.8871 77.4732 80.5957C76.6803 80.4125 75.8845 80.2402 75.0943 80.0734C74.397 79.223 73.6096 78.4054 72.7209 77.6508L80.5849 74.9929C82.8271 74.2355 84.2736 72.0562 84.1041 69.6937L83.8142 65.6961C83.776 65.1683 83.3084 64.7746 82.7888 64.8101C82.2611 64.8484 81.8646 65.3078 81.9029 65.8355L82.1928 69.8332C82.3021 71.3234 81.3889 72.7015 79.9725 73.1801L70.8424 76.2644C69.6611 75.5125 68.3459 74.8726 66.8748 74.405V67.5336C69.106 65.9914 71.0885 64.1375 72.7783 62.0457H86.5049C90.1935 62.0457 93.1931 59.0461 93.1931 55.3574V49.834C94.1912 49.4484 94.9021 48.4804 94.9021 47.3511V39.5828C94.9185 39.0633 94.4892 38.634 93.9615 38.634ZM52.9158 5.33201C66.451 5.33201 77.465 16.3433 77.465 29.8621L77.4486 30.6961C62.0349 29.4027 49.7357 27.382 39.9795 21.9515C39.583 21.7301 39.0853 21.8203 38.79 22.1621C36.3099 25.0387 32.892 27.6719 28.3748 30.1875L28.3666 29.873C28.3748 16.3379 39.3834 5.33201 52.9158 5.33201ZM17.2103 123.151L14.9435 102.096C14.0631 93.9011 18.8346 86.1301 26.5482 83.1961C27.3221 82.9008 28.1287 82.6574 28.9408 82.4687C29.0283 82.4496 29.1185 82.4304 29.206 82.4086C27.6256 85.0008 26.7998 87.5902 26.5154 89.3156L25.892 93.1C25.6896 94.3332 26.015 95.6074 26.7834 96.5918C27.5517 97.5761 28.7084 98.1996 29.9553 98.3035L34.6037 98.6836L31.8474 104.163C31.0135 105.823 31.2924 107.846 32.5392 109.219L51.4939 134.66C42.9162 134.635 34.4834 134.11 26.8955 133.079C21.7467 132.382 17.7627 128.3 17.2103 123.151ZM77.0576 82.4687C86.0182 84.5414 92.0365 92.9797 91.0576 102.096L88.8045 123.039C88.2494 128.207 84.2654 132.289 79.1193 132.967C71.2689 134.001 62.8388 134.561 54.4689 134.649L73.4154 109.219C74.6623 107.846 74.9412 105.823 74.1072 104.163L71.351 98.6836L75.9994 98.3035C77.2463 98.2023 78.4029 97.5789 79.1713 96.5918C79.9424 95.6074 80.265 94.3332 80.0627 93.1L79.4392 89.3156C79.1467 87.5355 78.3099 84.957 76.7486 82.4004C76.8553 82.425 76.9564 82.4468 77.0576 82.4687ZM65.6826 76.0511C73.0873 78.0746 76.8388 85.2769 77.5553 89.6246L78.1787 93.409C78.2963 94.1281 78.1158 94.839 77.6674 95.4133C77.2189 95.9875 76.5736 96.3347 75.849 96.3949L69.7842 96.8898C69.467 96.9144 69.1826 97.0976 69.0267 97.3738C68.8709 97.6527 68.8627 97.989 69.0049 98.2734L72.3982 105.019C72.8822 105.984 72.7154 107.16 71.9799 107.95C71.9553 107.975 71.9334 108.002 71.9115 108.032L54.9775 130.761L64.3974 87.2129L65.967 79.6715C66.0736 79.1547 65.7428 78.6461 65.226 78.5394C64.7092 78.4328 64.2006 78.7636 64.0939 79.2804L62.5271 86.8136L53.0006 130.856L43.4385 86.8191L40.9885 75.034L41.1142 68.8734C42.908 69.8906 44.8303 70.7246 46.8619 71.3371L49.4103 72.1054C50.5642 72.4527 51.751 72.6277 52.9377 72.6277C54.1244 72.6277 55.3111 72.4527 56.465 72.1054L59.0135 71.3371C61.1271 70.7 63.1232 69.825 64.9799 68.7504V75.1242C64.9771 75.5617 65.267 75.939 65.6826 76.0511ZM58.4584 69.5105L55.9099 70.2789C53.9631 70.864 51.9068 70.864 49.9627 70.2789L47.4142 69.5105C36.7803 66.3058 29.2717 56.6972 28.7275 45.6312L28.4295 32.3422C33.2748 29.7418 36.9853 27.0019 39.7306 23.9941C49.6947 29.3261 62.0459 31.3304 77.4158 32.6156L77.1506 45.623C76.8826 51.0015 74.974 56.0301 71.8705 60.148H60.9959C60.4681 60.148 60.0388 60.5773 60.0388 61.1051C60.0388 61.6328 60.4681 62.0621 60.9959 62.0621H70.2845C67.1482 65.4883 63.1013 68.1105 58.4584 69.5105Z" fill="#002F6D"/>
<path d="M87.7432 32.3477V44.7699C89.31 43.8238 90.36 42.1094 90.36 40.1461V36.9687C90.36 35.0082 89.31 33.2937 87.7432 32.3477Z" fill="#4383D9"/>
<path d="M1.08563 46.159C0.637194 46.159 0.237975 45.8418 0.147741 45.3851C0.0465692 44.8656 0.385632 44.3625 0.902429 44.2613L7.88876 42.8941C8.40555 42.7902 8.91141 43.132 9.01258 43.6488C9.11376 44.1683 8.7747 44.6715 8.2579 44.7726L1.27157 46.1398C1.20868 46.1535 1.14579 46.159 1.08563 46.159Z" fill="#FF3C1F"/>
<path d="M14.1699 23.9887C13.9457 23.9887 13.7187 23.9094 13.5383 23.7508L8.19531 19.0422C7.79882 18.6922 7.76054 18.0879 8.11054 17.6914C8.46054 17.2949 9.06484 17.2566 9.46132 17.6066L14.8016 22.3152C15.198 22.6652 15.2363 23.2695 14.8863 23.666C14.6977 23.8793 14.4352 23.9887 14.1699 23.9887Z" fill="#FF3C1F"/>
<path d="M95.1863 27.9508C94.9621 27.9508 94.7352 27.8715 94.5547 27.7129C94.1582 27.3629 94.1199 26.7586 94.4699 26.3621L99.1785 21.0218C99.5285 20.6254 100.133 20.5871 100.529 20.9371C100.926 21.2871 100.964 21.8914 100.614 22.2879L95.9055 27.6281C95.7141 27.8414 95.4516 27.9508 95.1863 27.9508Z" fill="#FF3C1F"/>
<path d="M110.135 48.6391C110.114 48.6391 110.092 48.6391 110.07 48.6363L102.966 48.1578C102.438 48.1223 102.039 47.6656 102.074 47.1379C102.11 46.6102 102.567 46.2164 103.094 46.2465L110.198 46.725C110.726 46.7605 111.125 47.2172 111.09 47.7449C111.054 48.2508 110.633 48.6391 110.135 48.6391Z" fill="#FF3C1F"/>
</svg>
